G04 #@! TF.GenerationSoftware,KiCad,Pcbnew,(5.1.0)-1*
G04 #@! TF.CreationDate,2019-06-08T20:54:27-04:00*
G04 #@! TF.ProjectId,Case top+bottom,43617365-2074-46f7-902b-626f74746f6d,rev?*
G04 #@! TF.SameCoordinates,Original*
G04 #@! TF.FileFunction,Legend,Top*
G04 #@! TF.FilePolarity,Positive*
%FSLAX46Y46*%
G04 Gerber Fmt 4.6, Leading zero omitted, Abs format (unit mm)*
G04 Created by KiCad (PCBNEW (5.1.0)-1) date 2019-06-08 20:54:27*
%MOMM*%
%LPD*%
G04 APERTURE LIST*
%ADD10C,0.150000*%
G04 APERTURE END LIST*
D10*
X99606607Y-105839142D02*
X99606607Y-102839142D01*
X100749464Y-102839142D01*
X101035178Y-102982000D01*
X101178035Y-103124857D01*
X101320892Y-103410571D01*
X101320892Y-103839142D01*
X101178035Y-104124857D01*
X101035178Y-104267714D01*
X100749464Y-104410571D01*
X99606607Y-104410571D01*
X102463750Y-105696285D02*
X102892321Y-105839142D01*
X103606607Y-105839142D01*
X103892321Y-105696285D01*
X104035178Y-105553428D01*
X104178035Y-105267714D01*
X104178035Y-104982000D01*
X104035178Y-104696285D01*
X103892321Y-104553428D01*
X103606607Y-104410571D01*
X103035178Y-104267714D01*
X102749464Y-104124857D01*
X102606607Y-103982000D01*
X102463750Y-103696285D01*
X102463750Y-103410571D01*
X102606607Y-103124857D01*
X102749464Y-102982000D01*
X103035178Y-102839142D01*
X103749464Y-102839142D01*
X104178035Y-102982000D01*
X105178035Y-102839142D02*
X107178035Y-105839142D01*
X107178035Y-102839142D02*
X105178035Y-105839142D01*
X111606607Y-104267714D02*
X112035178Y-104410571D01*
X112178035Y-104553428D01*
X112320892Y-104839142D01*
X112320892Y-105267714D01*
X112178035Y-105553428D01*
X112035178Y-105696285D01*
X111749464Y-105839142D01*
X110606607Y-105839142D01*
X110606607Y-102839142D01*
X111606607Y-102839142D01*
X111892321Y-102982000D01*
X112035178Y-103124857D01*
X112178035Y-103410571D01*
X112178035Y-103696285D01*
X112035178Y-103982000D01*
X111892321Y-104124857D01*
X111606607Y-104267714D01*
X110606607Y-104267714D01*
X113606607Y-105839142D02*
X113606607Y-103839142D01*
X113606607Y-104410571D02*
X113749464Y-104124857D01*
X113892321Y-103982000D01*
X114178035Y-103839142D01*
X114463750Y-103839142D01*
X116606607Y-105696285D02*
X116320892Y-105839142D01*
X115749464Y-105839142D01*
X115463750Y-105696285D01*
X115320892Y-105410571D01*
X115320892Y-104267714D01*
X115463750Y-103982000D01*
X115749464Y-103839142D01*
X116320892Y-103839142D01*
X116606607Y-103982000D01*
X116749464Y-104267714D01*
X116749464Y-104553428D01*
X115320892Y-104839142D01*
X119320892Y-105839142D02*
X119320892Y-104267714D01*
X119178035Y-103982000D01*
X118892321Y-103839142D01*
X118320892Y-103839142D01*
X118035178Y-103982000D01*
X119320892Y-105696285D02*
X119035178Y-105839142D01*
X118320892Y-105839142D01*
X118035178Y-105696285D01*
X117892321Y-105410571D01*
X117892321Y-105124857D01*
X118035178Y-104839142D01*
X118320892Y-104696285D01*
X119035178Y-104696285D01*
X119320892Y-104553428D01*
X120749464Y-105839142D02*
X120749464Y-102839142D01*
X121035178Y-104696285D02*
X121892321Y-105839142D01*
X121892321Y-103839142D02*
X120749464Y-104982000D01*
X123606607Y-105839142D02*
X123320892Y-105696285D01*
X123178035Y-105553428D01*
X123035178Y-105267714D01*
X123035178Y-104410571D01*
X123178035Y-104124857D01*
X123320892Y-103982000D01*
X123606607Y-103839142D01*
X124035178Y-103839142D01*
X124320892Y-103982000D01*
X124463750Y-104124857D01*
X124606607Y-104410571D01*
X124606607Y-105267714D01*
X124463750Y-105553428D01*
X124320892Y-105696285D01*
X124035178Y-105839142D01*
X123606607Y-105839142D01*
X127178035Y-103839142D02*
X127178035Y-105839142D01*
X125892321Y-103839142D02*
X125892321Y-105410571D01*
X126035178Y-105696285D01*
X126320892Y-105839142D01*
X126749464Y-105839142D01*
X127035178Y-105696285D01*
X127178035Y-105553428D01*
X128178035Y-103839142D02*
X129320892Y-103839142D01*
X128606607Y-102839142D02*
X128606607Y-105410571D01*
X128749464Y-105696285D01*
X129035178Y-105839142D01*
X129320892Y-105839142D01*
X134178035Y-105839142D02*
X132463750Y-105839142D01*
X133320892Y-105839142D02*
X133320892Y-102839142D01*
X133035178Y-103267714D01*
X132749464Y-103553428D01*
X132463750Y-103696285D01*
X135463750Y-105553428D02*
X135606607Y-105696285D01*
X135463750Y-105839142D01*
X135320892Y-105696285D01*
X135463750Y-105553428D01*
X135463750Y-105839142D01*
X137463750Y-102839142D02*
X137749464Y-102839142D01*
X138035178Y-102982000D01*
X138178035Y-103124857D01*
X138320892Y-103410571D01*
X138463750Y-103982000D01*
X138463750Y-104696285D01*
X138320892Y-105267714D01*
X138178035Y-105553428D01*
X138035178Y-105696285D01*
X137749464Y-105839142D01*
X137463750Y-105839142D01*
X137178035Y-105696285D01*
X137035178Y-105553428D01*
X136892321Y-105267714D01*
X136749464Y-104696285D01*
X136749464Y-103982000D01*
X136892321Y-103410571D01*
X137035178Y-103124857D01*
X137178035Y-102982000D01*
X137463750Y-102839142D01*
X101178035Y-107489142D02*
X102892321Y-107489142D01*
X102035178Y-110489142D02*
X102035178Y-107489142D01*
X103892321Y-110489142D02*
X103892321Y-108489142D01*
X103892321Y-107489142D02*
X103749464Y-107632000D01*
X103892321Y-107774857D01*
X104035178Y-107632000D01*
X103892321Y-107489142D01*
X103892321Y-107774857D01*
X105320892Y-108489142D02*
X105320892Y-110489142D01*
X105320892Y-108774857D02*
X105463749Y-108632000D01*
X105749464Y-108489142D01*
X106178035Y-108489142D01*
X106463749Y-108632000D01*
X106606607Y-108917714D01*
X106606607Y-110489142D01*
X108035178Y-110489142D02*
X108035178Y-107489142D01*
X108320892Y-109346285D02*
X109178035Y-110489142D01*
X109178035Y-108489142D02*
X108035178Y-109632000D01*
X111606607Y-110346285D02*
X111320892Y-110489142D01*
X110749464Y-110489142D01*
X110463749Y-110346285D01*
X110320892Y-110060571D01*
X110320892Y-108917714D01*
X110463749Y-108632000D01*
X110749464Y-108489142D01*
X111320892Y-108489142D01*
X111606607Y-108632000D01*
X111749464Y-108917714D01*
X111749464Y-109203428D01*
X110320892Y-109489142D01*
X113035178Y-110489142D02*
X113035178Y-108489142D01*
X113035178Y-109060571D02*
X113178035Y-108774857D01*
X113320892Y-108632000D01*
X113606607Y-108489142D01*
X113892321Y-108489142D01*
X114892321Y-108489142D02*
X114892321Y-111489142D01*
X114892321Y-108632000D02*
X115178035Y-108489142D01*
X115749464Y-108489142D01*
X116035178Y-108632000D01*
X116178035Y-108774857D01*
X116320892Y-109060571D01*
X116320892Y-109917714D01*
X116178035Y-110203428D01*
X116035178Y-110346285D01*
X115749464Y-110489142D01*
X115178035Y-110489142D01*
X114892321Y-110346285D01*
X118035178Y-110489142D02*
X117749464Y-110346285D01*
X117606607Y-110060571D01*
X117606607Y-107489142D01*
X120463749Y-108489142D02*
X120463749Y-110489142D01*
X119178035Y-108489142D02*
X119178035Y-110060571D01*
X119320892Y-110346285D01*
X119606607Y-110489142D01*
X120035178Y-110489142D01*
X120320892Y-110346285D01*
X120463749Y-110203428D01*
X121892321Y-108489142D02*
X121892321Y-110489142D01*
X121892321Y-108774857D02*
X122035178Y-108632000D01*
X122320892Y-108489142D01*
X122749464Y-108489142D01*
X123035178Y-108632000D01*
X123178035Y-108917714D01*
X123178035Y-110489142D01*
X124606607Y-110489142D02*
X124606607Y-107489142D01*
X124892321Y-109346285D02*
X125749464Y-110489142D01*
X125749464Y-108489142D02*
X124606607Y-109632000D01*
X127035178Y-110203428D02*
X127178035Y-110346285D01*
X127035178Y-110489142D01*
X126892321Y-110346285D01*
X127035178Y-110203428D01*
X127035178Y-110489142D01*
X129749464Y-110346285D02*
X129463749Y-110489142D01*
X128892321Y-110489142D01*
X128606607Y-110346285D01*
X128463749Y-110203428D01*
X128320892Y-109917714D01*
X128320892Y-109060571D01*
X128463749Y-108774857D01*
X128606607Y-108632000D01*
X128892321Y-108489142D01*
X129463749Y-108489142D01*
X129749464Y-108632000D01*
X131463749Y-110489142D02*
X131178035Y-110346285D01*
X131035178Y-110203428D01*
X130892321Y-109917714D01*
X130892321Y-109060571D01*
X131035178Y-108774857D01*
X131178035Y-108632000D01*
X131463749Y-108489142D01*
X131892321Y-108489142D01*
X132178035Y-108632000D01*
X132320892Y-108774857D01*
X132463749Y-109060571D01*
X132463749Y-109917714D01*
X132320892Y-110203428D01*
X132178035Y-110346285D01*
X131892321Y-110489142D01*
X131463749Y-110489142D01*
X133749464Y-110489142D02*
X133749464Y-108489142D01*
X133749464Y-108774857D02*
X133892321Y-108632000D01*
X134178035Y-108489142D01*
X134606607Y-108489142D01*
X134892321Y-108632000D01*
X135035178Y-108917714D01*
X135035178Y-110489142D01*
X135035178Y-108917714D02*
X135178035Y-108632000D01*
X135463750Y-108489142D01*
X135892321Y-108489142D01*
X136178035Y-108632000D01*
X136320892Y-108917714D01*
X136320892Y-110489142D01*
X108855047Y-77176380D02*
X109521714Y-77176380D01*
X109093142Y-78176380D01*
X110378857Y-77176380D02*
X109902666Y-77176380D01*
X109855047Y-77652571D01*
X109902666Y-77604952D01*
X109997904Y-77557333D01*
X110236000Y-77557333D01*
X110331238Y-77604952D01*
X110378857Y-77652571D01*
X110426476Y-77747809D01*
X110426476Y-77985904D01*
X110378857Y-78081142D01*
X110331238Y-78128761D01*
X110236000Y-78176380D01*
X109997904Y-78176380D01*
X109902666Y-78128761D01*
X109855047Y-78081142D01*
X110807428Y-78176380D02*
X111045523Y-78176380D01*
X111045523Y-77985904D01*
X110950285Y-77938285D01*
X110855047Y-77843047D01*
X110807428Y-77700190D01*
X110807428Y-77462095D01*
X110855047Y-77319238D01*
X110950285Y-77224000D01*
X111093142Y-77176380D01*
X111283619Y-77176380D01*
X111426476Y-77224000D01*
X111521714Y-77319238D01*
X111569333Y-77462095D01*
X111569333Y-77700190D01*
X111521714Y-77843047D01*
X111426476Y-77938285D01*
X111331238Y-77985904D01*
X111331238Y-78176380D01*
X111569333Y-78176380D01*
X104211571Y-77176380D02*
X104783000Y-77176380D01*
X104497285Y-78176380D02*
X104497285Y-77176380D01*
X104973476Y-77176380D02*
X105544904Y-77176380D01*
X105259190Y-78176380D02*
X105259190Y-77176380D01*
X106354428Y-78176380D02*
X105878238Y-78176380D01*
X105878238Y-77176380D01*
X157069452Y-86254523D02*
X157355166Y-86349761D01*
X157831357Y-86349761D01*
X158021833Y-86254523D01*
X158117071Y-86159285D01*
X158212309Y-85968809D01*
X158212309Y-85778333D01*
X158117071Y-85587857D01*
X158021833Y-85492619D01*
X157831357Y-85397380D01*
X157450404Y-85302142D01*
X157259928Y-85206904D01*
X157164690Y-85111666D01*
X157069452Y-84921190D01*
X157069452Y-84730714D01*
X157164690Y-84540238D01*
X157259928Y-84445000D01*
X157450404Y-84349761D01*
X157926595Y-84349761D01*
X158212309Y-84445000D01*
X158878976Y-85016428D02*
X159355166Y-86349761D01*
X159831357Y-85016428D02*
X159355166Y-86349761D01*
X159164690Y-86825952D01*
X159069452Y-86921190D01*
X158878976Y-87016428D01*
X160593261Y-85016428D02*
X160593261Y-86349761D01*
X160593261Y-85206904D02*
X160688500Y-85111666D01*
X160878976Y-85016428D01*
X161164690Y-85016428D01*
X161355166Y-85111666D01*
X161450404Y-85302142D01*
X161450404Y-86349761D01*
X163259928Y-86254523D02*
X163069452Y-86349761D01*
X162688500Y-86349761D01*
X162498023Y-86254523D01*
X162402785Y-86159285D01*
X162307547Y-85968809D01*
X162307547Y-85397380D01*
X162402785Y-85206904D01*
X162498023Y-85111666D01*
X162688500Y-85016428D01*
X163069452Y-85016428D01*
X163259928Y-85111666D01*
X165545642Y-86254523D02*
X165831357Y-86349761D01*
X166307547Y-86349761D01*
X166498023Y-86254523D01*
X166593261Y-86159285D01*
X166688500Y-85968809D01*
X166688500Y-85778333D01*
X166593261Y-85587857D01*
X166498023Y-85492619D01*
X166307547Y-85397380D01*
X165926595Y-85302142D01*
X165736119Y-85206904D01*
X165640880Y-85111666D01*
X165545642Y-84921190D01*
X165545642Y-84730714D01*
X165640880Y-84540238D01*
X165736119Y-84445000D01*
X165926595Y-84349761D01*
X166402785Y-84349761D01*
X166688500Y-84445000D01*
X168307547Y-86254523D02*
X168117071Y-86349761D01*
X167736119Y-86349761D01*
X167545642Y-86254523D01*
X167450404Y-86064047D01*
X167450404Y-85302142D01*
X167545642Y-85111666D01*
X167736119Y-85016428D01*
X168117071Y-85016428D01*
X168307547Y-85111666D01*
X168402785Y-85302142D01*
X168402785Y-85492619D01*
X167450404Y-85683095D01*
X169545642Y-86349761D02*
X169355166Y-86254523D01*
X169259928Y-86064047D01*
X169259928Y-84349761D01*
X171069452Y-86254523D02*
X170878976Y-86349761D01*
X170498023Y-86349761D01*
X170307547Y-86254523D01*
X170212309Y-86064047D01*
X170212309Y-85302142D01*
X170307547Y-85111666D01*
X170498023Y-85016428D01*
X170878976Y-85016428D01*
X171069452Y-85111666D01*
X171164690Y-85302142D01*
X171164690Y-85492619D01*
X170212309Y-85683095D01*
X172878976Y-86254523D02*
X172688500Y-86349761D01*
X172307547Y-86349761D01*
X172117071Y-86254523D01*
X172021833Y-86159285D01*
X171926595Y-85968809D01*
X171926595Y-85397380D01*
X172021833Y-85206904D01*
X172117071Y-85111666D01*
X172307547Y-85016428D01*
X172688500Y-85016428D01*
X172878976Y-85111666D01*
X173450404Y-85016428D02*
X174212309Y-85016428D01*
X173736119Y-84349761D02*
X173736119Y-86064047D01*
X173831357Y-86254523D01*
X174021833Y-86349761D01*
X174212309Y-86349761D01*
X157926595Y-89499761D02*
X157926595Y-87975952D01*
X157545642Y-88356904D02*
X157926595Y-87975952D01*
X158307547Y-88356904D01*
X160783738Y-89309285D02*
X160688500Y-89404523D01*
X160402785Y-89499761D01*
X160212309Y-89499761D01*
X159926595Y-89404523D01*
X159736119Y-89214047D01*
X159640880Y-89023571D01*
X159545642Y-88642619D01*
X159545642Y-88356904D01*
X159640880Y-87975952D01*
X159736119Y-87785476D01*
X159926595Y-87595000D01*
X160212309Y-87499761D01*
X160402785Y-87499761D01*
X160688500Y-87595000D01*
X160783738Y-87690238D01*
X161355166Y-87499761D02*
X162021833Y-89499761D01*
X162688500Y-87499761D01*
X164021833Y-88452142D02*
X164307547Y-88547380D01*
X164402785Y-88642619D01*
X164498023Y-88833095D01*
X164498023Y-89118809D01*
X164402785Y-89309285D01*
X164307547Y-89404523D01*
X164117071Y-89499761D01*
X163355166Y-89499761D01*
X163355166Y-87499761D01*
X164021833Y-87499761D01*
X164212309Y-87595000D01*
X164307547Y-87690238D01*
X164402785Y-87880714D01*
X164402785Y-88071190D01*
X164307547Y-88261666D01*
X164212309Y-88356904D01*
X164021833Y-88452142D01*
X163355166Y-88452142D01*
X165259928Y-89404523D02*
X165545642Y-89499761D01*
X166021833Y-89499761D01*
X166212309Y-89404523D01*
X166307547Y-89309285D01*
X166402785Y-89118809D01*
X166402785Y-88928333D01*
X166307547Y-88737857D01*
X166212309Y-88642619D01*
X166021833Y-88547380D01*
X165640880Y-88452142D01*
X165450404Y-88356904D01*
X165355166Y-88261666D01*
X165259928Y-88071190D01*
X165259928Y-87880714D01*
X165355166Y-87690238D01*
X165450404Y-87595000D01*
X165640880Y-87499761D01*
X166117071Y-87499761D01*
X166402785Y-87595000D01*
X157259928Y-91506904D02*
X157259928Y-92268809D01*
X157355166Y-92364047D02*
X157736119Y-92649761D01*
X157355166Y-91411666D02*
X157736119Y-91125952D01*
X157355166Y-91316428D02*
X157355166Y-92459285D01*
X157450404Y-92459285D02*
X157450404Y-91316428D01*
X157545642Y-91221190D02*
X157545642Y-92554523D01*
X157640880Y-92554523D02*
X157640880Y-91221190D01*
X157736119Y-91125952D02*
X157736119Y-92649761D01*
X157831357Y-92649761D02*
X157831357Y-91125952D01*
X157926595Y-91125952D02*
X157926595Y-92649761D01*
X158021833Y-92649761D02*
X158021833Y-91125952D01*
X158117071Y-92649761D02*
X158498023Y-92364047D01*
X158117071Y-91125952D02*
X158117071Y-92649761D01*
X158117071Y-91125952D02*
X158498023Y-91411666D01*
X158212309Y-92554523D02*
X158212309Y-91221190D01*
X158307547Y-91221190D02*
X158307547Y-92554523D01*
X158402785Y-92459285D02*
X158402785Y-91316428D01*
X158498023Y-91316428D02*
X158498023Y-92459285D01*
X158593261Y-92268809D02*
X158593261Y-91506904D01*
X157736119Y-91125952D02*
X158117071Y-91125952D01*
X158498023Y-91316428D01*
X158688500Y-91697380D01*
X158688500Y-92078333D01*
X158498023Y-92459285D01*
X158117071Y-92649761D01*
X157736119Y-92649761D01*
X157355166Y-92459285D01*
X157164690Y-92078333D01*
X157164690Y-91697380D01*
X157355166Y-91316428D01*
X157736119Y-91125952D01*
X160783738Y-92459285D02*
X160688500Y-92554523D01*
X160402785Y-92649761D01*
X160212309Y-92649761D01*
X159926595Y-92554523D01*
X159736119Y-92364047D01*
X159640880Y-92173571D01*
X159545642Y-91792619D01*
X159545642Y-91506904D01*
X159640880Y-91125952D01*
X159736119Y-90935476D01*
X159926595Y-90745000D01*
X160212309Y-90649761D01*
X160402785Y-90649761D01*
X160688500Y-90745000D01*
X160783738Y-90840238D01*
X161545642Y-92554523D02*
X161831357Y-92649761D01*
X162307547Y-92649761D01*
X162498023Y-92554523D01*
X162593261Y-92459285D01*
X162688500Y-92268809D01*
X162688500Y-92078333D01*
X162593261Y-91887857D01*
X162498023Y-91792619D01*
X162307547Y-91697380D01*
X161926595Y-91602142D01*
X161736119Y-91506904D01*
X161640880Y-91411666D01*
X161545642Y-91221190D01*
X161545642Y-91030714D01*
X161640880Y-90840238D01*
X161736119Y-90745000D01*
X161926595Y-90649761D01*
X162402785Y-90649761D01*
X162688500Y-90745000D01*
X163926595Y-91697380D02*
X163926595Y-92649761D01*
X163259928Y-90649761D02*
X163926595Y-91697380D01*
X164593261Y-90649761D01*
X165259928Y-92649761D02*
X165259928Y-90649761D01*
X166402785Y-92649761D01*
X166402785Y-90649761D01*
X168498023Y-92459285D02*
X168402785Y-92554523D01*
X168117071Y-92649761D01*
X167926595Y-92649761D01*
X167640880Y-92554523D01*
X167450404Y-92364047D01*
X167355166Y-92173571D01*
X167259928Y-91792619D01*
X167259928Y-91506904D01*
X167355166Y-91125952D01*
X167450404Y-90935476D01*
X167640880Y-90745000D01*
X167926595Y-90649761D01*
X168117071Y-90649761D01*
X168402785Y-90745000D01*
X168498023Y-90840238D01*
X157926595Y-94275952D02*
X157926595Y-95799761D01*
X158307547Y-95418809D02*
X157926595Y-95799761D01*
X157545642Y-95418809D01*
X160593261Y-95799761D02*
X159640880Y-95799761D01*
X159640880Y-93799761D01*
X161259928Y-93799761D02*
X161259928Y-95418809D01*
X161355166Y-95609285D01*
X161450404Y-95704523D01*
X161640880Y-95799761D01*
X162021833Y-95799761D01*
X162212309Y-95704523D01*
X162307547Y-95609285D01*
X162402785Y-95418809D01*
X162402785Y-93799761D01*
X163355166Y-95799761D02*
X163355166Y-93799761D01*
X164021833Y-95228333D01*
X164688500Y-93799761D01*
X164688500Y-95799761D01*
X165545642Y-95228333D02*
X166498023Y-95228333D01*
X165355166Y-95799761D02*
X166021833Y-93799761D01*
X166688500Y-95799761D01*
X186354785Y-92845380D02*
X186021452Y-92369190D01*
X185783357Y-92845380D02*
X185783357Y-91845380D01*
X186164309Y-91845380D01*
X186259547Y-91893000D01*
X186307166Y-91940619D01*
X186354785Y-92035857D01*
X186354785Y-92178714D01*
X186307166Y-92273952D01*
X186259547Y-92321571D01*
X186164309Y-92369190D01*
X185783357Y-92369190D01*
X187354785Y-92750142D02*
X187307166Y-92797761D01*
X187164309Y-92845380D01*
X187069071Y-92845380D01*
X186926214Y-92797761D01*
X186830976Y-92702523D01*
X186783357Y-92607285D01*
X186735738Y-92416809D01*
X186735738Y-92273952D01*
X186783357Y-92083476D01*
X186830976Y-91988238D01*
X186926214Y-91893000D01*
X187069071Y-91845380D01*
X187164309Y-91845380D01*
X187307166Y-91893000D01*
X187354785Y-91940619D01*
X187735738Y-92559666D02*
X188211928Y-92559666D01*
X187640500Y-92845380D02*
X187973833Y-91845380D01*
X188307166Y-92845380D01*
X188640500Y-92464428D02*
X189402404Y-92464428D01*
X189211928Y-92654904D02*
X189402404Y-92464428D01*
X189211928Y-92273952D01*
X179878595Y-94447761D02*
X180021452Y-94495380D01*
X180259547Y-94495380D01*
X180354785Y-94447761D01*
X180402404Y-94400142D01*
X180450023Y-94304904D01*
X180450023Y-94209666D01*
X180402404Y-94114428D01*
X180354785Y-94066809D01*
X180259547Y-94019190D01*
X180069071Y-93971571D01*
X179973833Y-93923952D01*
X179926214Y-93876333D01*
X179878595Y-93781095D01*
X179878595Y-93685857D01*
X179926214Y-93590619D01*
X179973833Y-93543000D01*
X180069071Y-93495380D01*
X180307166Y-93495380D01*
X180450023Y-93543000D01*
X181069071Y-94019190D02*
X181069071Y-94495380D01*
X180735738Y-93495380D02*
X181069071Y-94019190D01*
X181402404Y-93495380D01*
X181735738Y-94495380D02*
X181735738Y-93495380D01*
X182307166Y-94495380D01*
X182307166Y-93495380D01*
X183354785Y-94400142D02*
X183307166Y-94447761D01*
X183164309Y-94495380D01*
X183069071Y-94495380D01*
X182926214Y-94447761D01*
X182830976Y-94352523D01*
X182783357Y-94257285D01*
X182735738Y-94066809D01*
X182735738Y-93923952D01*
X182783357Y-93733476D01*
X182830976Y-93638238D01*
X182926214Y-93543000D01*
X183069071Y-93495380D01*
X183164309Y-93495380D01*
X183307166Y-93543000D01*
X183354785Y-93590619D01*
X184497642Y-94447761D02*
X184640500Y-94495380D01*
X184878595Y-94495380D01*
X184973833Y-94447761D01*
X185021452Y-94400142D01*
X185069071Y-94304904D01*
X185069071Y-94209666D01*
X185021452Y-94114428D01*
X184973833Y-94066809D01*
X184878595Y-94019190D01*
X184688119Y-93971571D01*
X184592880Y-93923952D01*
X184545261Y-93876333D01*
X184497642Y-93781095D01*
X184497642Y-93685857D01*
X184545261Y-93590619D01*
X184592880Y-93543000D01*
X184688119Y-93495380D01*
X184926214Y-93495380D01*
X185069071Y-93543000D01*
X185497642Y-93971571D02*
X185830976Y-93971571D01*
X185973833Y-94495380D02*
X185497642Y-94495380D01*
X185497642Y-93495380D01*
X185973833Y-93495380D01*
X186878595Y-94495380D02*
X186402404Y-94495380D01*
X186402404Y-93495380D01*
X187211928Y-93971571D02*
X187545261Y-93971571D01*
X187688119Y-94495380D02*
X187211928Y-94495380D01*
X187211928Y-93495380D01*
X187688119Y-93495380D01*
X188688119Y-94400142D02*
X188640500Y-94447761D01*
X188497642Y-94495380D01*
X188402404Y-94495380D01*
X188259547Y-94447761D01*
X188164309Y-94352523D01*
X188116690Y-94257285D01*
X188069071Y-94066809D01*
X188069071Y-93923952D01*
X188116690Y-93733476D01*
X188164309Y-93638238D01*
X188259547Y-93543000D01*
X188402404Y-93495380D01*
X188497642Y-93495380D01*
X188640500Y-93543000D01*
X188688119Y-93590619D01*
X188973833Y-93495380D02*
X189545261Y-93495380D01*
X189259547Y-94495380D02*
X189259547Y-93495380D01*
X91394500Y-92591428D02*
X90632595Y-92591428D01*
X90823071Y-92781904D02*
X90632595Y-92591428D01*
X90823071Y-92400952D01*
X91870690Y-92972380D02*
X91870690Y-91972380D01*
X91870690Y-92448571D02*
X92442119Y-92448571D01*
X92442119Y-92972380D02*
X92442119Y-91972380D01*
X92918309Y-92972380D02*
X92918309Y-91972380D01*
X93156404Y-91972380D01*
X93299261Y-92020000D01*
X93394500Y-92115238D01*
X93442119Y-92210476D01*
X93489738Y-92400952D01*
X93489738Y-92543809D01*
X93442119Y-92734285D01*
X93394500Y-92829523D01*
X93299261Y-92924761D01*
X93156404Y-92972380D01*
X92918309Y-92972380D01*
X94442119Y-92972380D02*
X93870690Y-92972380D01*
X94156404Y-92972380D02*
X94156404Y-91972380D01*
X94061166Y-92115238D01*
X93965928Y-92210476D01*
X93870690Y-92258095D01*
X95346880Y-91972380D02*
X94870690Y-91972380D01*
X94823071Y-92448571D01*
X94870690Y-92400952D01*
X94965928Y-92353333D01*
X95204023Y-92353333D01*
X95299261Y-92400952D01*
X95346880Y-92448571D01*
X95394500Y-92543809D01*
X95394500Y-92781904D01*
X95346880Y-92877142D01*
X95299261Y-92924761D01*
X95204023Y-92972380D01*
X94965928Y-92972380D01*
X94870690Y-92924761D01*
X94823071Y-92877142D01*
X90584976Y-94574761D02*
X90727833Y-94622380D01*
X90965928Y-94622380D01*
X91061166Y-94574761D01*
X91108785Y-94527142D01*
X91156404Y-94431904D01*
X91156404Y-94336666D01*
X91108785Y-94241428D01*
X91061166Y-94193809D01*
X90965928Y-94146190D01*
X90775452Y-94098571D01*
X90680214Y-94050952D01*
X90632595Y-94003333D01*
X90584976Y-93908095D01*
X90584976Y-93812857D01*
X90632595Y-93717619D01*
X90680214Y-93670000D01*
X90775452Y-93622380D01*
X91013547Y-93622380D01*
X91156404Y-93670000D01*
X91775452Y-94146190D02*
X91775452Y-94622380D01*
X91442119Y-93622380D02*
X91775452Y-94146190D01*
X92108785Y-93622380D01*
X92442119Y-94622380D02*
X92442119Y-93622380D01*
X93013547Y-94622380D01*
X93013547Y-93622380D01*
X94061166Y-94527142D02*
X94013547Y-94574761D01*
X93870690Y-94622380D01*
X93775452Y-94622380D01*
X93632595Y-94574761D01*
X93537357Y-94479523D01*
X93489738Y-94384285D01*
X93442119Y-94193809D01*
X93442119Y-94050952D01*
X93489738Y-93860476D01*
X93537357Y-93765238D01*
X93632595Y-93670000D01*
X93775452Y-93622380D01*
X93870690Y-93622380D01*
X94013547Y-93670000D01*
X94061166Y-93717619D01*
X95204023Y-94574761D02*
X95346880Y-94622380D01*
X95584976Y-94622380D01*
X95680214Y-94574761D01*
X95727833Y-94527142D01*
X95775452Y-94431904D01*
X95775452Y-94336666D01*
X95727833Y-94241428D01*
X95680214Y-94193809D01*
X95584976Y-94146190D01*
X95394500Y-94098571D01*
X95299261Y-94050952D01*
X95251642Y-94003333D01*
X95204023Y-93908095D01*
X95204023Y-93812857D01*
X95251642Y-93717619D01*
X95299261Y-93670000D01*
X95394500Y-93622380D01*
X95632595Y-93622380D01*
X95775452Y-93670000D01*
X96204023Y-94098571D02*
X96537357Y-94098571D01*
X96680214Y-94622380D02*
X96204023Y-94622380D01*
X96204023Y-93622380D01*
X96680214Y-93622380D01*
X97584976Y-94622380D02*
X97108785Y-94622380D01*
X97108785Y-93622380D01*
X97918309Y-94098571D02*
X98251642Y-94098571D01*
X98394500Y-94622380D02*
X97918309Y-94622380D01*
X97918309Y-93622380D01*
X98394500Y-93622380D01*
X99394500Y-94527142D02*
X99346880Y-94574761D01*
X99204023Y-94622380D01*
X99108785Y-94622380D01*
X98965928Y-94574761D01*
X98870690Y-94479523D01*
X98823071Y-94384285D01*
X98775452Y-94193809D01*
X98775452Y-94050952D01*
X98823071Y-93860476D01*
X98870690Y-93765238D01*
X98965928Y-93670000D01*
X99108785Y-93622380D01*
X99204023Y-93622380D01*
X99346880Y-93670000D01*
X99394500Y-93717619D01*
X99680214Y-93622380D02*
X100251642Y-93622380D01*
X99965928Y-94622380D02*
X99965928Y-93622380D01*
X90908428Y-82748476D02*
X90908428Y-83510380D01*
X91098904Y-83319904D02*
X90908428Y-83510380D01*
X90717952Y-83319904D01*
X92241761Y-83510380D02*
X91765571Y-83510380D01*
X91765571Y-82510380D01*
X92575095Y-82510380D02*
X92575095Y-83319904D01*
X92622714Y-83415142D01*
X92670333Y-83462761D01*
X92765571Y-83510380D01*
X92956047Y-83510380D01*
X93051285Y-83462761D01*
X93098904Y-83415142D01*
X93146523Y-83319904D01*
X93146523Y-82510380D01*
X93622714Y-83510380D02*
X93622714Y-82510380D01*
X93956047Y-83224666D01*
X94289380Y-82510380D01*
X94289380Y-83510380D01*
X94717952Y-83224666D02*
X95194142Y-83224666D01*
X94622714Y-83510380D02*
X94956047Y-82510380D01*
X95289380Y-83510380D01*
X91424380Y-85352428D02*
X90662476Y-85352428D01*
X90852952Y-85542904D02*
X90662476Y-85352428D01*
X90852952Y-85161952D01*
X92472000Y-85638142D02*
X92424380Y-85685761D01*
X92281523Y-85733380D01*
X92186285Y-85733380D01*
X92043428Y-85685761D01*
X91948190Y-85590523D01*
X91900571Y-85495285D01*
X91852952Y-85304809D01*
X91852952Y-85161952D01*
X91900571Y-84971476D01*
X91948190Y-84876238D01*
X92043428Y-84781000D01*
X92186285Y-84733380D01*
X92281523Y-84733380D01*
X92424380Y-84781000D01*
X92472000Y-84828619D01*
X92852952Y-85685761D02*
X92995809Y-85733380D01*
X93233904Y-85733380D01*
X93329142Y-85685761D01*
X93376761Y-85638142D01*
X93424380Y-85542904D01*
X93424380Y-85447666D01*
X93376761Y-85352428D01*
X93329142Y-85304809D01*
X93233904Y-85257190D01*
X93043428Y-85209571D01*
X92948190Y-85161952D01*
X92900571Y-85114333D01*
X92852952Y-85019095D01*
X92852952Y-84923857D01*
X92900571Y-84828619D01*
X92948190Y-84781000D01*
X93043428Y-84733380D01*
X93281523Y-84733380D01*
X93424380Y-84781000D01*
X94043428Y-85257190D02*
X94043428Y-85733380D01*
X93710095Y-84733380D02*
X94043428Y-85257190D01*
X94376761Y-84733380D01*
X94710095Y-85733380D02*
X94710095Y-84733380D01*
X95281523Y-85733380D01*
X95281523Y-84733380D01*
X96329142Y-85638142D02*
X96281523Y-85685761D01*
X96138666Y-85733380D01*
X96043428Y-85733380D01*
X95900571Y-85685761D01*
X95805333Y-85590523D01*
X95757714Y-85495285D01*
X95710095Y-85304809D01*
X95710095Y-85161952D01*
X95757714Y-84971476D01*
X95805333Y-84876238D01*
X95900571Y-84781000D01*
X96043428Y-84733380D01*
X96138666Y-84733380D01*
X96281523Y-84781000D01*
X96329142Y-84828619D01*
X91352952Y-87335761D02*
X91495809Y-87383380D01*
X91733904Y-87383380D01*
X91829142Y-87335761D01*
X91876761Y-87288142D01*
X91924380Y-87192904D01*
X91924380Y-87097666D01*
X91876761Y-87002428D01*
X91829142Y-86954809D01*
X91733904Y-86907190D01*
X91543428Y-86859571D01*
X91448190Y-86811952D01*
X91400571Y-86764333D01*
X91352952Y-86669095D01*
X91352952Y-86573857D01*
X91400571Y-86478619D01*
X91448190Y-86431000D01*
X91543428Y-86383380D01*
X91781523Y-86383380D01*
X91924380Y-86431000D01*
X92733904Y-87335761D02*
X92638666Y-87383380D01*
X92448190Y-87383380D01*
X92352952Y-87335761D01*
X92305333Y-87240523D01*
X92305333Y-86859571D01*
X92352952Y-86764333D01*
X92448190Y-86716714D01*
X92638666Y-86716714D01*
X92733904Y-86764333D01*
X92781523Y-86859571D01*
X92781523Y-86954809D01*
X92305333Y-87050047D01*
X93352952Y-87383380D02*
X93257714Y-87335761D01*
X93210095Y-87240523D01*
X93210095Y-86383380D01*
X94114857Y-87335761D02*
X94019619Y-87383380D01*
X93829142Y-87383380D01*
X93733904Y-87335761D01*
X93686285Y-87240523D01*
X93686285Y-86859571D01*
X93733904Y-86764333D01*
X93829142Y-86716714D01*
X94019619Y-86716714D01*
X94114857Y-86764333D01*
X94162476Y-86859571D01*
X94162476Y-86954809D01*
X93686285Y-87050047D01*
X95019619Y-87335761D02*
X94924380Y-87383380D01*
X94733904Y-87383380D01*
X94638666Y-87335761D01*
X94591047Y-87288142D01*
X94543428Y-87192904D01*
X94543428Y-86907190D01*
X94591047Y-86811952D01*
X94638666Y-86764333D01*
X94733904Y-86716714D01*
X94924380Y-86716714D01*
X95019619Y-86764333D01*
X95305333Y-86716714D02*
X95686285Y-86716714D01*
X95448190Y-86383380D02*
X95448190Y-87240523D01*
X95495809Y-87335761D01*
X95591047Y-87383380D01*
X95686285Y-87383380D01*
X90932238Y-81097380D02*
X90932238Y-80335476D01*
X90741761Y-80525952D02*
X90932238Y-80335476D01*
X91122714Y-80525952D01*
X92360809Y-81002142D02*
X92313190Y-81049761D01*
X92170333Y-81097380D01*
X92075095Y-81097380D01*
X91932238Y-81049761D01*
X91837000Y-80954523D01*
X91789380Y-80859285D01*
X91741761Y-80668809D01*
X91741761Y-80525952D01*
X91789380Y-80335476D01*
X91837000Y-80240238D01*
X91932238Y-80145000D01*
X92075095Y-80097380D01*
X92170333Y-80097380D01*
X92313190Y-80145000D01*
X92360809Y-80192619D01*
X92646523Y-80097380D02*
X92979857Y-81097380D01*
X93313190Y-80097380D01*
X93979857Y-80573571D02*
X94122714Y-80621190D01*
X94170333Y-80668809D01*
X94217952Y-80764047D01*
X94217952Y-80906904D01*
X94170333Y-81002142D01*
X94122714Y-81049761D01*
X94027476Y-81097380D01*
X93646523Y-81097380D01*
X93646523Y-80097380D01*
X93979857Y-80097380D01*
X94075095Y-80145000D01*
X94122714Y-80192619D01*
X94170333Y-80287857D01*
X94170333Y-80383095D01*
X94122714Y-80478333D01*
X94075095Y-80525952D01*
X93979857Y-80573571D01*
X93646523Y-80573571D01*
X94598904Y-81049761D02*
X94741761Y-81097380D01*
X94979857Y-81097380D01*
X95075095Y-81049761D01*
X95122714Y-81002142D01*
X95170333Y-80906904D01*
X95170333Y-80811666D01*
X95122714Y-80716428D01*
X95075095Y-80668809D01*
X94979857Y-80621190D01*
X94789380Y-80573571D01*
X94694142Y-80525952D01*
X94646523Y-80478333D01*
X94598904Y-80383095D01*
X94598904Y-80287857D01*
X94646523Y-80192619D01*
X94694142Y-80145000D01*
X94789380Y-80097380D01*
X95027476Y-80097380D01*
X95170333Y-80145000D01*
M02*
