G04 #@! TF.GenerationSoftware,KiCad,Pcbnew,(5.1.0)-1*
G04 #@! TF.CreationDate,2019-06-07T12:56:34-04:00*
G04 #@! TF.ProjectId,Case top+bottom,43617365-2074-46f7-902b-626f74746f6d,rev?*
G04 #@! TF.SameCoordinates,Original*
G04 #@! TF.FileFunction,Copper,L1,Top*
G04 #@! TF.FilePolarity,Positive*
%FSLAX46Y46*%
G04 Gerber Fmt 4.6, Leading zero omitted, Abs format (unit mm)*
G04 Created by KiCad (PCBNEW (5.1.0)-1) date 2019-06-07 12:56:34*
%MOMM*%
%LPD*%
G04 APERTURE LIST*
%ADD10C,0.010000*%
G04 APERTURE END LIST*
D10*
G36*
X135953500Y-95096475D02*
G01*
X135678333Y-95168504D01*
X135577657Y-95194967D01*
X135405505Y-95240345D01*
X135172249Y-95301896D01*
X134888264Y-95376882D01*
X134563923Y-95462564D01*
X134209602Y-95556201D01*
X133835672Y-95655055D01*
X133688666Y-95693928D01*
X133306948Y-95794701D01*
X132938255Y-95891711D01*
X132593413Y-95982133D01*
X132283251Y-96063142D01*
X132018596Y-96131912D01*
X131810275Y-96185617D01*
X131669116Y-96221431D01*
X131637195Y-96229310D01*
X131429333Y-96286467D01*
X131284291Y-96348395D01*
X131180900Y-96430577D01*
X131097994Y-96548497D01*
X131037246Y-96668166D01*
X130955129Y-96899985D01*
X130945777Y-97090369D01*
X130998813Y-97224412D01*
X131048048Y-97284220D01*
X131108682Y-97330256D01*
X131191252Y-97363939D01*
X131306293Y-97386693D01*
X131464341Y-97399937D01*
X131675933Y-97405092D01*
X131951602Y-97403579D01*
X132280736Y-97397299D01*
X132882511Y-97375607D01*
X133429192Y-97336861D01*
X133949285Y-97277414D01*
X134471294Y-97193622D01*
X135023724Y-97081842D01*
X135372667Y-97001951D01*
X135587181Y-96951410D01*
X135770968Y-96908686D01*
X135909000Y-96877228D01*
X135986252Y-96860484D01*
X135997083Y-96858666D01*
X136002762Y-96899024D01*
X136007811Y-97012199D01*
X136011985Y-97186342D01*
X136015041Y-97409604D01*
X136016736Y-97670135D01*
X136017000Y-97827192D01*
X136017000Y-98795717D01*
X135561916Y-98945251D01*
X135347643Y-99008515D01*
X135080443Y-99076750D01*
X134791155Y-99142621D01*
X134510620Y-99198792D01*
X134450666Y-99209553D01*
X134253637Y-99242971D01*
X134078252Y-99269477D01*
X133910229Y-99290018D01*
X133735285Y-99305535D01*
X133539136Y-99316974D01*
X133307500Y-99325279D01*
X133026093Y-99331393D01*
X132680633Y-99336261D01*
X132503333Y-99338265D01*
X132023990Y-99341361D01*
X131621871Y-99339289D01*
X131289682Y-99331871D01*
X131020128Y-99318928D01*
X130805913Y-99300279D01*
X130767666Y-99295671D01*
X130065542Y-99186942D01*
X129433927Y-99048735D01*
X128874076Y-98881813D01*
X128387246Y-98686940D01*
X127974694Y-98464878D01*
X127637674Y-98216389D01*
X127377443Y-97942237D01*
X127195258Y-97643183D01*
X127092374Y-97319992D01*
X127067988Y-97049166D01*
X127093171Y-96791720D01*
X127172421Y-96552388D01*
X127313536Y-96314671D01*
X127524311Y-96062071D01*
X127544668Y-96040459D01*
X127751651Y-95835855D01*
X127971922Y-95647484D01*
X128219190Y-95465854D01*
X128507166Y-95281473D01*
X128849558Y-95084847D01*
X129180166Y-94908016D01*
X129515830Y-94738679D01*
X129857255Y-94579245D01*
X130216839Y-94424847D01*
X130606982Y-94270615D01*
X131040082Y-94111680D01*
X131528538Y-93943173D01*
X132084750Y-93760225D01*
X132185833Y-93727692D01*
X132460362Y-93644313D01*
X132798238Y-93549155D01*
X133179810Y-93447151D01*
X133585424Y-93343231D01*
X133995426Y-93242328D01*
X134390164Y-93149375D01*
X134749984Y-93069302D01*
X135055234Y-93007042D01*
X135064500Y-93005282D01*
X135297800Y-92960881D01*
X135512008Y-92919729D01*
X135688423Y-92885446D01*
X135808342Y-92861653D01*
X135837785Y-92855569D01*
X135976070Y-92826135D01*
X135953500Y-95096475D01*
X135953500Y-95096475D01*
G37*
X135953500Y-95096475D02*
X135678333Y-95168504D01*
X135577657Y-95194967D01*
X135405505Y-95240345D01*
X135172249Y-95301896D01*
X134888264Y-95376882D01*
X134563923Y-95462564D01*
X134209602Y-95556201D01*
X133835672Y-95655055D01*
X133688666Y-95693928D01*
X133306948Y-95794701D01*
X132938255Y-95891711D01*
X132593413Y-95982133D01*
X132283251Y-96063142D01*
X132018596Y-96131912D01*
X131810275Y-96185617D01*
X131669116Y-96221431D01*
X131637195Y-96229310D01*
X131429333Y-96286467D01*
X131284291Y-96348395D01*
X131180900Y-96430577D01*
X131097994Y-96548497D01*
X131037246Y-96668166D01*
X130955129Y-96899985D01*
X130945777Y-97090369D01*
X130998813Y-97224412D01*
X131048048Y-97284220D01*
X131108682Y-97330256D01*
X131191252Y-97363939D01*
X131306293Y-97386693D01*
X131464341Y-97399937D01*
X131675933Y-97405092D01*
X131951602Y-97403579D01*
X132280736Y-97397299D01*
X132882511Y-97375607D01*
X133429192Y-97336861D01*
X133949285Y-97277414D01*
X134471294Y-97193622D01*
X135023724Y-97081842D01*
X135372667Y-97001951D01*
X135587181Y-96951410D01*
X135770968Y-96908686D01*
X135909000Y-96877228D01*
X135986252Y-96860484D01*
X135997083Y-96858666D01*
X136002762Y-96899024D01*
X136007811Y-97012199D01*
X136011985Y-97186342D01*
X136015041Y-97409604D01*
X136016736Y-97670135D01*
X136017000Y-97827192D01*
X136017000Y-98795717D01*
X135561916Y-98945251D01*
X135347643Y-99008515D01*
X135080443Y-99076750D01*
X134791155Y-99142621D01*
X134510620Y-99198792D01*
X134450666Y-99209553D01*
X134253637Y-99242971D01*
X134078252Y-99269477D01*
X133910229Y-99290018D01*
X133735285Y-99305535D01*
X133539136Y-99316974D01*
X133307500Y-99325279D01*
X133026093Y-99331393D01*
X132680633Y-99336261D01*
X132503333Y-99338265D01*
X132023990Y-99341361D01*
X131621871Y-99339289D01*
X131289682Y-99331871D01*
X131020128Y-99318928D01*
X130805913Y-99300279D01*
X130767666Y-99295671D01*
X130065542Y-99186942D01*
X129433927Y-99048735D01*
X128874076Y-98881813D01*
X128387246Y-98686940D01*
X127974694Y-98464878D01*
X127637674Y-98216389D01*
X127377443Y-97942237D01*
X127195258Y-97643183D01*
X127092374Y-97319992D01*
X127067988Y-97049166D01*
X127093171Y-96791720D01*
X127172421Y-96552388D01*
X127313536Y-96314671D01*
X127524311Y-96062071D01*
X127544668Y-96040459D01*
X127751651Y-95835855D01*
X127971922Y-95647484D01*
X128219190Y-95465854D01*
X128507166Y-95281473D01*
X128849558Y-95084847D01*
X129180166Y-94908016D01*
X129515830Y-94738679D01*
X129857255Y-94579245D01*
X130216839Y-94424847D01*
X130606982Y-94270615D01*
X131040082Y-94111680D01*
X131528538Y-93943173D01*
X132084750Y-93760225D01*
X132185833Y-93727692D01*
X132460362Y-93644313D01*
X132798238Y-93549155D01*
X133179810Y-93447151D01*
X133585424Y-93343231D01*
X133995426Y-93242328D01*
X134390164Y-93149375D01*
X134749984Y-93069302D01*
X135055234Y-93007042D01*
X135064500Y-93005282D01*
X135297800Y-92960881D01*
X135512008Y-92919729D01*
X135688423Y-92885446D01*
X135808342Y-92861653D01*
X135837785Y-92855569D01*
X135976070Y-92826135D01*
X135953500Y-95096475D01*
G36*
X148396816Y-93489167D02*
G01*
X148875218Y-93579276D01*
X149368164Y-93720014D01*
X149897223Y-93914570D01*
X150009616Y-93960364D01*
X150487272Y-94176976D01*
X150945933Y-94422032D01*
X151376110Y-94688392D01*
X151768314Y-94968912D01*
X152113054Y-95256452D01*
X152400842Y-95543869D01*
X152622187Y-95824023D01*
X152730628Y-96008178D01*
X152812529Y-96199895D01*
X152853857Y-96373655D01*
X152850163Y-96534429D01*
X152796998Y-96687190D01*
X152689910Y-96836909D01*
X152524452Y-96988558D01*
X152296171Y-97147109D01*
X152000620Y-97317533D01*
X151633348Y-97504803D01*
X151213860Y-97702885D01*
X150955030Y-97818351D01*
X150632574Y-97956513D01*
X150262379Y-98110967D01*
X149860328Y-98275312D01*
X149442307Y-98443146D01*
X149024201Y-98608067D01*
X148621893Y-98763674D01*
X148251270Y-98903564D01*
X148060833Y-98973614D01*
X147842895Y-99053355D01*
X147645887Y-99126381D01*
X147487116Y-99186207D01*
X147383893Y-99226348D01*
X147362333Y-99235309D01*
X147270084Y-99271788D01*
X147106629Y-99332277D01*
X146880963Y-99413666D01*
X146602085Y-99512840D01*
X146278991Y-99626689D01*
X145920680Y-99752099D01*
X145536148Y-99885957D01*
X145134392Y-100025152D01*
X144724410Y-100166571D01*
X144315200Y-100307102D01*
X143915757Y-100443631D01*
X143535081Y-100573047D01*
X143182167Y-100692237D01*
X142866013Y-100798088D01*
X142595618Y-100887488D01*
X142441083Y-100937744D01*
X141986000Y-101084336D01*
X141986000Y-98949443D01*
X142631583Y-98726874D01*
X142876892Y-98642025D01*
X143118142Y-98558092D01*
X143333225Y-98482799D01*
X143500035Y-98423871D01*
X143552333Y-98405156D01*
X143635801Y-98375473D01*
X143792393Y-98320185D01*
X144015327Y-98241675D01*
X144297820Y-98142325D01*
X144633089Y-98024517D01*
X145014352Y-97890635D01*
X145434826Y-97743059D01*
X145887727Y-97584173D01*
X146366275Y-97416359D01*
X146863684Y-97241999D01*
X146949515Y-97211920D01*
X147441305Y-97039244D01*
X147909274Y-96874286D01*
X148347366Y-96719221D01*
X148749524Y-96576222D01*
X149109694Y-96447464D01*
X149421818Y-96335119D01*
X149679841Y-96241363D01*
X149877707Y-96168368D01*
X150009359Y-96118309D01*
X150068741Y-96093360D01*
X150071598Y-96091219D01*
X150036524Y-96059602D01*
X149950379Y-96016777D01*
X149934083Y-96010138D01*
X149847202Y-95973798D01*
X149696682Y-95908783D01*
X149496123Y-95821096D01*
X149259126Y-95716736D01*
X148999291Y-95601706D01*
X148730219Y-95482007D01*
X148465511Y-95363639D01*
X148284558Y-95282293D01*
X148085654Y-95204003D01*
X147942489Y-95174990D01*
X147882392Y-95179253D01*
X147803671Y-95196995D01*
X147658491Y-95230631D01*
X147462756Y-95276442D01*
X147232368Y-95330707D01*
X147023666Y-95380110D01*
X146736407Y-95448110D01*
X146432191Y-95519864D01*
X146139097Y-95588766D01*
X145885206Y-95648209D01*
X145774833Y-95673924D01*
X145496384Y-95738741D01*
X145190300Y-95810217D01*
X144845462Y-95890959D01*
X144450750Y-95983572D01*
X143995043Y-96090664D01*
X143510000Y-96204771D01*
X143244085Y-96267234D01*
X142968018Y-96331880D01*
X142709807Y-96392161D01*
X142497456Y-96441534D01*
X142446128Y-96453414D01*
X142038424Y-96547631D01*
X142020071Y-96068148D01*
X142013854Y-95805301D01*
X142012709Y-95506676D01*
X142016634Y-95221008D01*
X142020133Y-95107574D01*
X142038547Y-94626481D01*
X142488523Y-94455058D01*
X143097914Y-94236962D01*
X143705198Y-94049441D01*
X144326002Y-93889025D01*
X144975954Y-93752247D01*
X145670679Y-93635638D01*
X146425806Y-93535729D01*
X146833166Y-93490717D01*
X147397360Y-93448076D01*
X147911386Y-93446496D01*
X148396816Y-93489167D01*
X148396816Y-93489167D01*
G37*
X148396816Y-93489167D02*
X148875218Y-93579276D01*
X149368164Y-93720014D01*
X149897223Y-93914570D01*
X150009616Y-93960364D01*
X150487272Y-94176976D01*
X150945933Y-94422032D01*
X151376110Y-94688392D01*
X151768314Y-94968912D01*
X152113054Y-95256452D01*
X152400842Y-95543869D01*
X152622187Y-95824023D01*
X152730628Y-96008178D01*
X152812529Y-96199895D01*
X152853857Y-96373655D01*
X152850163Y-96534429D01*
X152796998Y-96687190D01*
X152689910Y-96836909D01*
X152524452Y-96988558D01*
X152296171Y-97147109D01*
X152000620Y-97317533D01*
X151633348Y-97504803D01*
X151213860Y-97702885D01*
X150955030Y-97818351D01*
X150632574Y-97956513D01*
X150262379Y-98110967D01*
X149860328Y-98275312D01*
X149442307Y-98443146D01*
X149024201Y-98608067D01*
X148621893Y-98763674D01*
X148251270Y-98903564D01*
X148060833Y-98973614D01*
X147842895Y-99053355D01*
X147645887Y-99126381D01*
X147487116Y-99186207D01*
X147383893Y-99226348D01*
X147362333Y-99235309D01*
X147270084Y-99271788D01*
X147106629Y-99332277D01*
X146880963Y-99413666D01*
X146602085Y-99512840D01*
X146278991Y-99626689D01*
X145920680Y-99752099D01*
X145536148Y-99885957D01*
X145134392Y-100025152D01*
X144724410Y-100166571D01*
X144315200Y-100307102D01*
X143915757Y-100443631D01*
X143535081Y-100573047D01*
X143182167Y-100692237D01*
X142866013Y-100798088D01*
X142595618Y-100887488D01*
X142441083Y-100937744D01*
X141986000Y-101084336D01*
X141986000Y-98949443D01*
X142631583Y-98726874D01*
X142876892Y-98642025D01*
X143118142Y-98558092D01*
X143333225Y-98482799D01*
X143500035Y-98423871D01*
X143552333Y-98405156D01*
X143635801Y-98375473D01*
X143792393Y-98320185D01*
X144015327Y-98241675D01*
X144297820Y-98142325D01*
X144633089Y-98024517D01*
X145014352Y-97890635D01*
X145434826Y-97743059D01*
X145887727Y-97584173D01*
X146366275Y-97416359D01*
X146863684Y-97241999D01*
X146949515Y-97211920D01*
X147441305Y-97039244D01*
X147909274Y-96874286D01*
X148347366Y-96719221D01*
X148749524Y-96576222D01*
X149109694Y-96447464D01*
X149421818Y-96335119D01*
X149679841Y-96241363D01*
X149877707Y-96168368D01*
X150009359Y-96118309D01*
X150068741Y-96093360D01*
X150071598Y-96091219D01*
X150036524Y-96059602D01*
X149950379Y-96016777D01*
X149934083Y-96010138D01*
X149847202Y-95973798D01*
X149696682Y-95908783D01*
X149496123Y-95821096D01*
X149259126Y-95716736D01*
X148999291Y-95601706D01*
X148730219Y-95482007D01*
X148465511Y-95363639D01*
X148284558Y-95282293D01*
X148085654Y-95204003D01*
X147942489Y-95174990D01*
X147882392Y-95179253D01*
X147803671Y-95196995D01*
X147658491Y-95230631D01*
X147462756Y-95276442D01*
X147232368Y-95330707D01*
X147023666Y-95380110D01*
X146736407Y-95448110D01*
X146432191Y-95519864D01*
X146139097Y-95588766D01*
X145885206Y-95648209D01*
X145774833Y-95673924D01*
X145496384Y-95738741D01*
X145190300Y-95810217D01*
X144845462Y-95890959D01*
X144450750Y-95983572D01*
X143995043Y-96090664D01*
X143510000Y-96204771D01*
X143244085Y-96267234D01*
X142968018Y-96331880D01*
X142709807Y-96392161D01*
X142497456Y-96441534D01*
X142446128Y-96453414D01*
X142038424Y-96547631D01*
X142020071Y-96068148D01*
X142013854Y-95805301D01*
X142012709Y-95506676D01*
X142016634Y-95221008D01*
X142020133Y-95107574D01*
X142038547Y-94626481D01*
X142488523Y-94455058D01*
X143097914Y-94236962D01*
X143705198Y-94049441D01*
X144326002Y-93889025D01*
X144975954Y-93752247D01*
X145670679Y-93635638D01*
X146425806Y-93535729D01*
X146833166Y-93490717D01*
X147397360Y-93448076D01*
X147911386Y-93446496D01*
X148396816Y-93489167D01*
G36*
X137128250Y-81424680D02*
G01*
X137881116Y-81585604D01*
X138638845Y-81763589D01*
X139382102Y-81953565D01*
X140091546Y-82150463D01*
X140747842Y-82349213D01*
X141118166Y-82470667D01*
X142028801Y-82800045D01*
X142864256Y-83144499D01*
X143623468Y-83503324D01*
X144305374Y-83875815D01*
X144908912Y-84261266D01*
X145433017Y-84658972D01*
X145876627Y-85068228D01*
X146238678Y-85488327D01*
X146518108Y-85918566D01*
X146618921Y-86120374D01*
X146702731Y-86333914D01*
X146790962Y-86607380D01*
X146877382Y-86916708D01*
X146955766Y-87237829D01*
X147019883Y-87546677D01*
X147063505Y-87819184D01*
X147067855Y-87855082D01*
X147090410Y-88123691D01*
X147103195Y-88434432D01*
X147106287Y-88761230D01*
X147099763Y-89078011D01*
X147083703Y-89358699D01*
X147062816Y-89548057D01*
X146975556Y-89988211D01*
X146848799Y-90425283D01*
X146688897Y-90846422D01*
X146502197Y-91238775D01*
X146295049Y-91589492D01*
X146073801Y-91885720D01*
X145844804Y-92114609D01*
X145764469Y-92176102D01*
X145594693Y-92268768D01*
X145393982Y-92324404D01*
X145147702Y-92345113D01*
X144841221Y-92332993D01*
X144737666Y-92323505D01*
X144310131Y-92256136D01*
X143940082Y-92142302D01*
X143609777Y-91974385D01*
X143301473Y-91744766D01*
X143220800Y-91672225D01*
X142980833Y-91448879D01*
X142959666Y-88539975D01*
X142938500Y-85631071D01*
X142578666Y-85483469D01*
X142402884Y-85410746D01*
X142176112Y-85316033D01*
X141925225Y-85210598D01*
X141677093Y-85105708D01*
X141629937Y-85085691D01*
X141424164Y-85000008D01*
X141247122Y-84929576D01*
X141112745Y-84879680D01*
X141034967Y-84855604D01*
X141021591Y-84854964D01*
X141019487Y-84898595D01*
X141017142Y-85022827D01*
X141014582Y-85223594D01*
X141011829Y-85496830D01*
X141008910Y-85838469D01*
X141005847Y-86244447D01*
X141002665Y-86710696D01*
X140999389Y-87233152D01*
X140996043Y-87807749D01*
X140992651Y-88430422D01*
X140989237Y-89097104D01*
X140985826Y-89803729D01*
X140982443Y-90546233D01*
X140979111Y-91320550D01*
X140975854Y-92122613D01*
X140972698Y-92948357D01*
X140971948Y-93152551D01*
X140968829Y-93983398D01*
X140965622Y-94791527D01*
X140962350Y-95572873D01*
X140959036Y-96323373D01*
X140955705Y-97038963D01*
X140952379Y-97715581D01*
X140949082Y-98349161D01*
X140945837Y-98935640D01*
X140942668Y-99470955D01*
X140939598Y-99951042D01*
X140936651Y-100371837D01*
X140933849Y-100729276D01*
X140931217Y-101019297D01*
X140928778Y-101237834D01*
X140926555Y-101380824D01*
X140924572Y-101444205D01*
X140924127Y-101447126D01*
X140879678Y-101439503D01*
X140780440Y-101403602D01*
X140652500Y-101349216D01*
X140559315Y-101308200D01*
X140397832Y-101238173D01*
X140177666Y-101143261D01*
X139908429Y-101027593D01*
X139599737Y-100895296D01*
X139261202Y-100750497D01*
X138902439Y-100597324D01*
X138716044Y-100517851D01*
X137033588Y-99800833D01*
X137033294Y-90603110D01*
X137033000Y-81405386D01*
X137128250Y-81424680D01*
X137128250Y-81424680D01*
G37*
X137128250Y-81424680D02*
X137881116Y-81585604D01*
X138638845Y-81763589D01*
X139382102Y-81953565D01*
X140091546Y-82150463D01*
X140747842Y-82349213D01*
X141118166Y-82470667D01*
X142028801Y-82800045D01*
X142864256Y-83144499D01*
X143623468Y-83503324D01*
X144305374Y-83875815D01*
X144908912Y-84261266D01*
X145433017Y-84658972D01*
X145876627Y-85068228D01*
X146238678Y-85488327D01*
X146518108Y-85918566D01*
X146618921Y-86120374D01*
X146702731Y-86333914D01*
X146790962Y-86607380D01*
X146877382Y-86916708D01*
X146955766Y-87237829D01*
X147019883Y-87546677D01*
X147063505Y-87819184D01*
X147067855Y-87855082D01*
X147090410Y-88123691D01*
X147103195Y-88434432D01*
X147106287Y-88761230D01*
X147099763Y-89078011D01*
X147083703Y-89358699D01*
X147062816Y-89548057D01*
X146975556Y-89988211D01*
X146848799Y-90425283D01*
X146688897Y-90846422D01*
X146502197Y-91238775D01*
X146295049Y-91589492D01*
X146073801Y-91885720D01*
X145844804Y-92114609D01*
X145764469Y-92176102D01*
X145594693Y-92268768D01*
X145393982Y-92324404D01*
X145147702Y-92345113D01*
X144841221Y-92332993D01*
X144737666Y-92323505D01*
X144310131Y-92256136D01*
X143940082Y-92142302D01*
X143609777Y-91974385D01*
X143301473Y-91744766D01*
X143220800Y-91672225D01*
X142980833Y-91448879D01*
X142959666Y-88539975D01*
X142938500Y-85631071D01*
X142578666Y-85483469D01*
X142402884Y-85410746D01*
X142176112Y-85316033D01*
X141925225Y-85210598D01*
X141677093Y-85105708D01*
X141629937Y-85085691D01*
X141424164Y-85000008D01*
X141247122Y-84929576D01*
X141112745Y-84879680D01*
X141034967Y-84855604D01*
X141021591Y-84854964D01*
X141019487Y-84898595D01*
X141017142Y-85022827D01*
X141014582Y-85223594D01*
X141011829Y-85496830D01*
X141008910Y-85838469D01*
X141005847Y-86244447D01*
X141002665Y-86710696D01*
X140999389Y-87233152D01*
X140996043Y-87807749D01*
X140992651Y-88430422D01*
X140989237Y-89097104D01*
X140985826Y-89803729D01*
X140982443Y-90546233D01*
X140979111Y-91320550D01*
X140975854Y-92122613D01*
X140972698Y-92948357D01*
X140971948Y-93152551D01*
X140968829Y-93983398D01*
X140965622Y-94791527D01*
X140962350Y-95572873D01*
X140959036Y-96323373D01*
X140955705Y-97038963D01*
X140952379Y-97715581D01*
X140949082Y-98349161D01*
X140945837Y-98935640D01*
X140942668Y-99470955D01*
X140939598Y-99951042D01*
X140936651Y-100371837D01*
X140933849Y-100729276D01*
X140931217Y-101019297D01*
X140928778Y-101237834D01*
X140926555Y-101380824D01*
X140924572Y-101444205D01*
X140924127Y-101447126D01*
X140879678Y-101439503D01*
X140780440Y-101403602D01*
X140652500Y-101349216D01*
X140559315Y-101308200D01*
X140397832Y-101238173D01*
X140177666Y-101143261D01*
X139908429Y-101027593D01*
X139599737Y-100895296D01*
X139261202Y-100750497D01*
X138902439Y-100597324D01*
X138716044Y-100517851D01*
X137033588Y-99800833D01*
X137033294Y-90603110D01*
X137033000Y-81405386D01*
X137128250Y-81424680D01*
M02*
