G04 #@! TF.GenerationSoftware,KiCad,Pcbnew,(5.1.0)-1*
G04 #@! TF.CreationDate,2019-06-07T12:56:35-04:00*
G04 #@! TF.ProjectId,Case top+bottom,43617365-2074-46f7-902b-626f74746f6d,rev?*
G04 #@! TF.SameCoordinates,Original*
G04 #@! TF.FileFunction,Legend,Bot*
G04 #@! TF.FilePolarity,Positive*
%FSLAX46Y46*%
G04 Gerber Fmt 4.6, Leading zero omitted, Abs format (unit mm)*
G04 Created by KiCad (PCBNEW (5.1.0)-1) date 2019-06-07 12:56:35*
%MOMM*%
%LPD*%
G04 APERTURE LIST*
%ADD10C,0.150000*%
G04 APERTURE END LIST*
D10*
X160207809Y-52542761D02*
X161160190Y-52542761D01*
X161160190Y-50542761D01*
X159541142Y-52542761D02*
X159541142Y-51209428D01*
X159541142Y-50542761D02*
X159636380Y-50638000D01*
X159541142Y-50733238D01*
X159445904Y-50638000D01*
X159541142Y-50542761D01*
X159541142Y-50733238D01*
X157731619Y-52447523D02*
X157922095Y-52542761D01*
X158303047Y-52542761D01*
X158493523Y-52447523D01*
X158588761Y-52352285D01*
X158684000Y-52161809D01*
X158684000Y-51590380D01*
X158588761Y-51399904D01*
X158493523Y-51304666D01*
X158303047Y-51209428D01*
X157922095Y-51209428D01*
X157731619Y-51304666D01*
X156112571Y-52447523D02*
X156303047Y-52542761D01*
X156684000Y-52542761D01*
X156874476Y-52447523D01*
X156969714Y-52257047D01*
X156969714Y-51495142D01*
X156874476Y-51304666D01*
X156684000Y-51209428D01*
X156303047Y-51209428D01*
X156112571Y-51304666D01*
X156017333Y-51495142D01*
X156017333Y-51685619D01*
X156969714Y-51876095D01*
X155160190Y-51209428D02*
X155160190Y-52542761D01*
X155160190Y-51399904D02*
X155064952Y-51304666D01*
X154874476Y-51209428D01*
X154588761Y-51209428D01*
X154398285Y-51304666D01*
X154303047Y-51495142D01*
X154303047Y-52542761D01*
X153445904Y-52447523D02*
X153255428Y-52542761D01*
X152874476Y-52542761D01*
X152684000Y-52447523D01*
X152588761Y-52257047D01*
X152588761Y-52161809D01*
X152684000Y-51971333D01*
X152874476Y-51876095D01*
X153160190Y-51876095D01*
X153350666Y-51780857D01*
X153445904Y-51590380D01*
X153445904Y-51495142D01*
X153350666Y-51304666D01*
X153160190Y-51209428D01*
X152874476Y-51209428D01*
X152684000Y-51304666D01*
X150969714Y-52447523D02*
X151160190Y-52542761D01*
X151541142Y-52542761D01*
X151731619Y-52447523D01*
X151826857Y-52257047D01*
X151826857Y-51495142D01*
X151731619Y-51304666D01*
X151541142Y-51209428D01*
X151160190Y-51209428D01*
X150969714Y-51304666D01*
X150874476Y-51495142D01*
X150874476Y-51685619D01*
X151826857Y-51876095D01*
X149160190Y-52542761D02*
X149160190Y-50542761D01*
X149160190Y-52447523D02*
X149350666Y-52542761D01*
X149731619Y-52542761D01*
X149922095Y-52447523D01*
X150017333Y-52352285D01*
X150112571Y-52161809D01*
X150112571Y-51590380D01*
X150017333Y-51399904D01*
X149922095Y-51304666D01*
X149731619Y-51209428D01*
X149350666Y-51209428D01*
X149160190Y-51304666D01*
X145826857Y-51209428D02*
X145826857Y-52542761D01*
X146684000Y-51209428D02*
X146684000Y-52257047D01*
X146588761Y-52447523D01*
X146398285Y-52542761D01*
X146112571Y-52542761D01*
X145922095Y-52447523D01*
X145826857Y-52352285D01*
X144874476Y-51209428D02*
X144874476Y-52542761D01*
X144874476Y-51399904D02*
X144779238Y-51304666D01*
X144588761Y-51209428D01*
X144303047Y-51209428D01*
X144112571Y-51304666D01*
X144017333Y-51495142D01*
X144017333Y-52542761D01*
X142207809Y-52542761D02*
X142207809Y-50542761D01*
X142207809Y-52447523D02*
X142398285Y-52542761D01*
X142779238Y-52542761D01*
X142969714Y-52447523D01*
X143064952Y-52352285D01*
X143160190Y-52161809D01*
X143160190Y-51590380D01*
X143064952Y-51399904D01*
X142969714Y-51304666D01*
X142779238Y-51209428D01*
X142398285Y-51209428D01*
X142207809Y-51304666D01*
X140493523Y-52447523D02*
X140684000Y-52542761D01*
X141064952Y-52542761D01*
X141255428Y-52447523D01*
X141350666Y-52257047D01*
X141350666Y-51495142D01*
X141255428Y-51304666D01*
X141064952Y-51209428D01*
X140684000Y-51209428D01*
X140493523Y-51304666D01*
X140398285Y-51495142D01*
X140398285Y-51685619D01*
X141350666Y-51876095D01*
X139541142Y-52542761D02*
X139541142Y-51209428D01*
X139541142Y-51590380D02*
X139445904Y-51399904D01*
X139350666Y-51304666D01*
X139160190Y-51209428D01*
X138969714Y-51209428D01*
X135636380Y-52352285D02*
X135731619Y-52447523D01*
X136017333Y-52542761D01*
X136207809Y-52542761D01*
X136493523Y-52447523D01*
X136684000Y-52257047D01*
X136779238Y-52066571D01*
X136874476Y-51685619D01*
X136874476Y-51399904D01*
X136779238Y-51018952D01*
X136684000Y-50828476D01*
X136493523Y-50638000D01*
X136207809Y-50542761D01*
X136017333Y-50542761D01*
X135731619Y-50638000D01*
X135636380Y-50733238D01*
X134779238Y-51495142D02*
X134112571Y-51495142D01*
X133826857Y-52542761D02*
X134779238Y-52542761D01*
X134779238Y-50542761D01*
X133826857Y-50542761D01*
X131826857Y-52542761D02*
X132493523Y-51590380D01*
X132969714Y-52542761D02*
X132969714Y-50542761D01*
X132207809Y-50542761D01*
X132017333Y-50638000D01*
X131922095Y-50733238D01*
X131826857Y-50923714D01*
X131826857Y-51209428D01*
X131922095Y-51399904D01*
X132017333Y-51495142D01*
X132207809Y-51590380D01*
X132969714Y-51590380D01*
X130969714Y-52542761D02*
X130969714Y-50542761D01*
X129826857Y-52542761D01*
X129826857Y-50542761D01*
X126969714Y-50542761D02*
X126588761Y-50542761D01*
X126398285Y-50638000D01*
X126207809Y-50828476D01*
X126112571Y-51209428D01*
X126112571Y-51876095D01*
X126207809Y-52257047D01*
X126398285Y-52447523D01*
X126588761Y-52542761D01*
X126969714Y-52542761D01*
X127160190Y-52447523D01*
X127350666Y-52257047D01*
X127445904Y-51876095D01*
X127445904Y-51209428D01*
X127350666Y-50828476D01*
X127160190Y-50638000D01*
X126969714Y-50542761D01*
X125255428Y-52542761D02*
X125255428Y-50542761D01*
X125255428Y-51495142D02*
X124112571Y-51495142D01*
X124112571Y-52542761D02*
X124112571Y-50542761D01*
X122207809Y-52542761D02*
X123160190Y-52542761D01*
X123160190Y-50542761D01*
X118969714Y-52542761D02*
X120112571Y-52542761D01*
X119541142Y-52542761D02*
X119541142Y-50542761D01*
X119731619Y-50828476D01*
X119922095Y-51018952D01*
X120112571Y-51114190D01*
X118112571Y-52352285D02*
X118017333Y-52447523D01*
X118112571Y-52542761D01*
X118207809Y-52447523D01*
X118112571Y-52352285D01*
X118112571Y-52542761D01*
X117255428Y-50733238D02*
X117160190Y-50638000D01*
X116969714Y-50542761D01*
X116493523Y-50542761D01*
X116303047Y-50638000D01*
X116207809Y-50733238D01*
X116112571Y-50923714D01*
X116112571Y-51114190D01*
X116207809Y-51399904D01*
X117350666Y-52542761D01*
X116112571Y-52542761D01*
X162493523Y-55692761D02*
X162493523Y-53692761D01*
X161636380Y-55692761D02*
X161636380Y-54645142D01*
X161731619Y-54454666D01*
X161922095Y-54359428D01*
X162207809Y-54359428D01*
X162398285Y-54454666D01*
X162493523Y-54549904D01*
X160969714Y-54359428D02*
X160207809Y-54359428D01*
X160684000Y-53692761D02*
X160684000Y-55407047D01*
X160588761Y-55597523D01*
X160398285Y-55692761D01*
X160207809Y-55692761D01*
X159826857Y-54359428D02*
X159064952Y-54359428D01*
X159541142Y-53692761D02*
X159541142Y-55407047D01*
X159445904Y-55597523D01*
X159255428Y-55692761D01*
X159064952Y-55692761D01*
X158398285Y-54359428D02*
X158398285Y-56359428D01*
X158398285Y-54454666D02*
X158207809Y-54359428D01*
X157826857Y-54359428D01*
X157636380Y-54454666D01*
X157541142Y-54549904D01*
X157445904Y-54740380D01*
X157445904Y-55311809D01*
X157541142Y-55502285D01*
X157636380Y-55597523D01*
X157826857Y-55692761D01*
X158207809Y-55692761D01*
X158398285Y-55597523D01*
X156684000Y-55597523D02*
X156493523Y-55692761D01*
X156112571Y-55692761D01*
X155922095Y-55597523D01*
X155826857Y-55407047D01*
X155826857Y-55311809D01*
X155922095Y-55121333D01*
X156112571Y-55026095D01*
X156398285Y-55026095D01*
X156588761Y-54930857D01*
X156684000Y-54740380D01*
X156684000Y-54645142D01*
X156588761Y-54454666D01*
X156398285Y-54359428D01*
X156112571Y-54359428D01*
X155922095Y-54454666D01*
X154969714Y-55502285D02*
X154874476Y-55597523D01*
X154969714Y-55692761D01*
X155064952Y-55597523D01*
X154969714Y-55502285D01*
X154969714Y-55692761D01*
X154969714Y-54454666D02*
X154874476Y-54549904D01*
X154969714Y-54645142D01*
X155064952Y-54549904D01*
X154969714Y-54454666D01*
X154969714Y-54645142D01*
X152588761Y-53597523D02*
X154303047Y-56168952D01*
X150493523Y-53597523D02*
X152207809Y-56168952D01*
X148969714Y-54359428D02*
X148969714Y-55978476D01*
X149064952Y-56168952D01*
X149160190Y-56264190D01*
X149350666Y-56359428D01*
X149636380Y-56359428D01*
X149826857Y-56264190D01*
X148969714Y-55597523D02*
X149160190Y-55692761D01*
X149541142Y-55692761D01*
X149731619Y-55597523D01*
X149826857Y-55502285D01*
X149922095Y-55311809D01*
X149922095Y-54740380D01*
X149826857Y-54549904D01*
X149731619Y-54454666D01*
X149541142Y-54359428D01*
X149160190Y-54359428D01*
X148969714Y-54454666D01*
X148017333Y-55692761D02*
X148017333Y-54359428D01*
X148017333Y-53692761D02*
X148112571Y-53788000D01*
X148017333Y-53883238D01*
X147922095Y-53788000D01*
X148017333Y-53692761D01*
X148017333Y-53883238D01*
X147350666Y-54359428D02*
X146588761Y-54359428D01*
X147064952Y-53692761D02*
X147064952Y-55407047D01*
X146969714Y-55597523D01*
X146779238Y-55692761D01*
X146588761Y-55692761D01*
X145922095Y-55692761D02*
X145922095Y-53692761D01*
X145064952Y-55692761D02*
X145064952Y-54645142D01*
X145160190Y-54454666D01*
X145350666Y-54359428D01*
X145636380Y-54359428D01*
X145826857Y-54454666D01*
X145922095Y-54549904D01*
X143255428Y-54359428D02*
X143255428Y-55692761D01*
X144112571Y-54359428D02*
X144112571Y-55407047D01*
X144017333Y-55597523D01*
X143826857Y-55692761D01*
X143541142Y-55692761D01*
X143350666Y-55597523D01*
X143255428Y-55502285D01*
X142303047Y-55692761D02*
X142303047Y-53692761D01*
X142303047Y-54454666D02*
X142112571Y-54359428D01*
X141731619Y-54359428D01*
X141541142Y-54454666D01*
X141445904Y-54549904D01*
X141350666Y-54740380D01*
X141350666Y-55311809D01*
X141445904Y-55502285D01*
X141541142Y-55597523D01*
X141731619Y-55692761D01*
X142112571Y-55692761D01*
X142303047Y-55597523D01*
X140493523Y-55502285D02*
X140398285Y-55597523D01*
X140493523Y-55692761D01*
X140588761Y-55597523D01*
X140493523Y-55502285D01*
X140493523Y-55692761D01*
X138684000Y-55597523D02*
X138874476Y-55692761D01*
X139255428Y-55692761D01*
X139445904Y-55597523D01*
X139541142Y-55502285D01*
X139636380Y-55311809D01*
X139636380Y-54740380D01*
X139541142Y-54549904D01*
X139445904Y-54454666D01*
X139255428Y-54359428D01*
X138874476Y-54359428D01*
X138684000Y-54454666D01*
X137541142Y-55692761D02*
X137731619Y-55597523D01*
X137826857Y-55502285D01*
X137922095Y-55311809D01*
X137922095Y-54740380D01*
X137826857Y-54549904D01*
X137731619Y-54454666D01*
X137541142Y-54359428D01*
X137255428Y-54359428D01*
X137064952Y-54454666D01*
X136969714Y-54549904D01*
X136874476Y-54740380D01*
X136874476Y-55311809D01*
X136969714Y-55502285D01*
X137064952Y-55597523D01*
X137255428Y-55692761D01*
X137541142Y-55692761D01*
X136017333Y-55692761D02*
X136017333Y-54359428D01*
X136017333Y-54549904D02*
X135922095Y-54454666D01*
X135731619Y-54359428D01*
X135445904Y-54359428D01*
X135255428Y-54454666D01*
X135160190Y-54645142D01*
X135160190Y-55692761D01*
X135160190Y-54645142D02*
X135064952Y-54454666D01*
X134874476Y-54359428D01*
X134588761Y-54359428D01*
X134398285Y-54454666D01*
X134303047Y-54645142D01*
X134303047Y-55692761D01*
X131922095Y-53597523D02*
X133636380Y-56168952D01*
X130398285Y-55692761D02*
X130398285Y-54645142D01*
X130493523Y-54454666D01*
X130684000Y-54359428D01*
X131064952Y-54359428D01*
X131255428Y-54454666D01*
X130398285Y-55597523D02*
X130588761Y-55692761D01*
X131064952Y-55692761D01*
X131255428Y-55597523D01*
X131350666Y-55407047D01*
X131350666Y-55216571D01*
X131255428Y-55026095D01*
X131064952Y-54930857D01*
X130588761Y-54930857D01*
X130398285Y-54835619D01*
X129445904Y-55692761D02*
X129445904Y-54359428D01*
X129445904Y-54740380D02*
X129350666Y-54549904D01*
X129255428Y-54454666D01*
X129064952Y-54359428D01*
X128874476Y-54359428D01*
X128207809Y-55692761D02*
X128207809Y-54359428D01*
X128207809Y-53692761D02*
X128303047Y-53788000D01*
X128207809Y-53883238D01*
X128112571Y-53788000D01*
X128207809Y-53692761D01*
X128207809Y-53883238D01*
X127541142Y-54359428D02*
X126779238Y-54359428D01*
X127255428Y-53692761D02*
X127255428Y-55407047D01*
X127160190Y-55597523D01*
X126969714Y-55692761D01*
X126779238Y-55692761D01*
X126112571Y-55692761D02*
X126112571Y-53692761D01*
X125255428Y-55692761D02*
X125255428Y-54645142D01*
X125350666Y-54454666D01*
X125541142Y-54359428D01*
X125826857Y-54359428D01*
X126017333Y-54454666D01*
X126112571Y-54549904D01*
X124303047Y-55692761D02*
X124303047Y-54359428D01*
X124303047Y-54549904D02*
X124207809Y-54454666D01*
X124017333Y-54359428D01*
X123731619Y-54359428D01*
X123541142Y-54454666D01*
X123445904Y-54645142D01*
X123445904Y-55692761D01*
X123445904Y-54645142D02*
X123350666Y-54454666D01*
X123160190Y-54359428D01*
X122874476Y-54359428D01*
X122684000Y-54454666D01*
X122588761Y-54645142D01*
X122588761Y-55692761D01*
X120779238Y-55692761D02*
X120779238Y-54645142D01*
X120874476Y-54454666D01*
X121064952Y-54359428D01*
X121445904Y-54359428D01*
X121636380Y-54454666D01*
X120779238Y-55597523D02*
X120969714Y-55692761D01*
X121445904Y-55692761D01*
X121636380Y-55597523D01*
X121731619Y-55407047D01*
X121731619Y-55216571D01*
X121636380Y-55026095D01*
X121445904Y-54930857D01*
X120969714Y-54930857D01*
X120779238Y-54835619D01*
X119541142Y-55692761D02*
X119731619Y-55597523D01*
X119826857Y-55407047D01*
X119826857Y-53692761D01*
X117922095Y-55692761D02*
X117922095Y-53692761D01*
X117922095Y-55597523D02*
X118112571Y-55692761D01*
X118493523Y-55692761D01*
X118684000Y-55597523D01*
X118779238Y-55502285D01*
X118874476Y-55311809D01*
X118874476Y-54740380D01*
X118779238Y-54549904D01*
X118684000Y-54454666D01*
X118493523Y-54359428D01*
X118112571Y-54359428D01*
X117922095Y-54454666D01*
X116684000Y-55692761D02*
X116874476Y-55597523D01*
X116969714Y-55502285D01*
X117064952Y-55311809D01*
X117064952Y-54740380D01*
X116969714Y-54549904D01*
X116874476Y-54454666D01*
X116684000Y-54359428D01*
X116398285Y-54359428D01*
X116207809Y-54454666D01*
X116112571Y-54549904D01*
X116017333Y-54740380D01*
X116017333Y-55311809D01*
X116112571Y-55502285D01*
X116207809Y-55597523D01*
X116398285Y-55692761D01*
X116684000Y-55692761D01*
X115160190Y-55692761D02*
X115160190Y-54359428D01*
X115160190Y-54740380D02*
X115064952Y-54549904D01*
X114969714Y-54454666D01*
X114779238Y-54359428D01*
X114588761Y-54359428D01*
M02*
