G04 #@! TF.GenerationSoftware,KiCad,Pcbnew,(5.1.0)-1*
G04 #@! TF.CreationDate,2019-08-02T10:45:09-04:00*
G04 #@! TF.ProjectId,PSX Breakout,50535820-4272-4656-916b-6f75742e6b69,rev?*
G04 #@! TF.SameCoordinates,Original*
G04 #@! TF.FileFunction,Paste,Top*
G04 #@! TF.FilePolarity,Positive*
%FSLAX46Y46*%
G04 Gerber Fmt 4.6, Leading zero omitted, Abs format (unit mm)*
G04 Created by KiCad (PCBNEW (5.1.0)-1) date 2019-08-02 10:45:09*
%MOMM*%
%LPD*%
G04 APERTURE LIST*
%ADD10R,1.500000X3.200000*%
%ADD11C,0.100000*%
%ADD12C,2.500000*%
G04 APERTURE END LIST*
D10*
X188330000Y-61750000D03*
X177511818Y-61750000D03*
X179675454Y-61750000D03*
X181839090Y-61750000D03*
X184002726Y-61750000D03*
X186166362Y-61750000D03*
D11*
G36*
X168837504Y-77059204D02*
G01*
X168861773Y-77062804D01*
X168885571Y-77068765D01*
X168908671Y-77077030D01*
X168930849Y-77087520D01*
X168951893Y-77100133D01*
X168971598Y-77114747D01*
X168989777Y-77131223D01*
X169006253Y-77149402D01*
X169020867Y-77169107D01*
X169033480Y-77190151D01*
X169043970Y-77212329D01*
X169052235Y-77235429D01*
X169058196Y-77259227D01*
X169061796Y-77283496D01*
X169063000Y-77308000D01*
X169063000Y-80808000D01*
X169061796Y-80832504D01*
X169058196Y-80856773D01*
X169052235Y-80880571D01*
X169043970Y-80903671D01*
X169033480Y-80925849D01*
X169020867Y-80946893D01*
X169006253Y-80966598D01*
X168989777Y-80984777D01*
X168971598Y-81001253D01*
X168951893Y-81015867D01*
X168930849Y-81028480D01*
X168908671Y-81038970D01*
X168885571Y-81047235D01*
X168861773Y-81053196D01*
X168837504Y-81056796D01*
X168813000Y-81058000D01*
X166813000Y-81058000D01*
X166788496Y-81056796D01*
X166764227Y-81053196D01*
X166740429Y-81047235D01*
X166717329Y-81038970D01*
X166695151Y-81028480D01*
X166674107Y-81015867D01*
X166654402Y-81001253D01*
X166636223Y-80984777D01*
X166619747Y-80966598D01*
X166605133Y-80946893D01*
X166592520Y-80925849D01*
X166582030Y-80903671D01*
X166573765Y-80880571D01*
X166567804Y-80856773D01*
X166564204Y-80832504D01*
X166563000Y-80808000D01*
X166563000Y-77308000D01*
X166564204Y-77283496D01*
X166567804Y-77259227D01*
X166573765Y-77235429D01*
X166582030Y-77212329D01*
X166592520Y-77190151D01*
X166605133Y-77169107D01*
X166619747Y-77149402D01*
X166636223Y-77131223D01*
X166654402Y-77114747D01*
X166674107Y-77100133D01*
X166695151Y-77087520D01*
X166717329Y-77077030D01*
X166740429Y-77068765D01*
X166764227Y-77062804D01*
X166788496Y-77059204D01*
X166813000Y-77058000D01*
X168813000Y-77058000D01*
X168837504Y-77059204D01*
X168837504Y-77059204D01*
G37*
D12*
X167813000Y-79058000D03*
D11*
G36*
X168837504Y-85059204D02*
G01*
X168861773Y-85062804D01*
X168885571Y-85068765D01*
X168908671Y-85077030D01*
X168930849Y-85087520D01*
X168951893Y-85100133D01*
X168971598Y-85114747D01*
X168989777Y-85131223D01*
X169006253Y-85149402D01*
X169020867Y-85169107D01*
X169033480Y-85190151D01*
X169043970Y-85212329D01*
X169052235Y-85235429D01*
X169058196Y-85259227D01*
X169061796Y-85283496D01*
X169063000Y-85308000D01*
X169063000Y-88808000D01*
X169061796Y-88832504D01*
X169058196Y-88856773D01*
X169052235Y-88880571D01*
X169043970Y-88903671D01*
X169033480Y-88925849D01*
X169020867Y-88946893D01*
X169006253Y-88966598D01*
X168989777Y-88984777D01*
X168971598Y-89001253D01*
X168951893Y-89015867D01*
X168930849Y-89028480D01*
X168908671Y-89038970D01*
X168885571Y-89047235D01*
X168861773Y-89053196D01*
X168837504Y-89056796D01*
X168813000Y-89058000D01*
X166813000Y-89058000D01*
X166788496Y-89056796D01*
X166764227Y-89053196D01*
X166740429Y-89047235D01*
X166717329Y-89038970D01*
X166695151Y-89028480D01*
X166674107Y-89015867D01*
X166654402Y-89001253D01*
X166636223Y-88984777D01*
X166619747Y-88966598D01*
X166605133Y-88946893D01*
X166592520Y-88925849D01*
X166582030Y-88903671D01*
X166573765Y-88880571D01*
X166567804Y-88856773D01*
X166564204Y-88832504D01*
X166563000Y-88808000D01*
X166563000Y-85308000D01*
X166564204Y-85283496D01*
X166567804Y-85259227D01*
X166573765Y-85235429D01*
X166582030Y-85212329D01*
X166592520Y-85190151D01*
X166605133Y-85169107D01*
X166619747Y-85149402D01*
X166636223Y-85131223D01*
X166654402Y-85114747D01*
X166674107Y-85100133D01*
X166695151Y-85087520D01*
X166717329Y-85077030D01*
X166740429Y-85068765D01*
X166764227Y-85062804D01*
X166788496Y-85059204D01*
X166813000Y-85058000D01*
X168813000Y-85058000D01*
X168837504Y-85059204D01*
X168837504Y-85059204D01*
G37*
D12*
X167813000Y-87058000D03*
D11*
G36*
X179967504Y-85059204D02*
G01*
X179991773Y-85062804D01*
X180015571Y-85068765D01*
X180038671Y-85077030D01*
X180060849Y-85087520D01*
X180081893Y-85100133D01*
X180101598Y-85114747D01*
X180119777Y-85131223D01*
X180136253Y-85149402D01*
X180150867Y-85169107D01*
X180163480Y-85190151D01*
X180173970Y-85212329D01*
X180182235Y-85235429D01*
X180188196Y-85259227D01*
X180191796Y-85283496D01*
X180193000Y-85308000D01*
X180193000Y-88808000D01*
X180191796Y-88832504D01*
X180188196Y-88856773D01*
X180182235Y-88880571D01*
X180173970Y-88903671D01*
X180163480Y-88925849D01*
X180150867Y-88946893D01*
X180136253Y-88966598D01*
X180119777Y-88984777D01*
X180101598Y-89001253D01*
X180081893Y-89015867D01*
X180060849Y-89028480D01*
X180038671Y-89038970D01*
X180015571Y-89047235D01*
X179991773Y-89053196D01*
X179967504Y-89056796D01*
X179943000Y-89058000D01*
X177943000Y-89058000D01*
X177918496Y-89056796D01*
X177894227Y-89053196D01*
X177870429Y-89047235D01*
X177847329Y-89038970D01*
X177825151Y-89028480D01*
X177804107Y-89015867D01*
X177784402Y-89001253D01*
X177766223Y-88984777D01*
X177749747Y-88966598D01*
X177735133Y-88946893D01*
X177722520Y-88925849D01*
X177712030Y-88903671D01*
X177703765Y-88880571D01*
X177697804Y-88856773D01*
X177694204Y-88832504D01*
X177693000Y-88808000D01*
X177693000Y-85308000D01*
X177694204Y-85283496D01*
X177697804Y-85259227D01*
X177703765Y-85235429D01*
X177712030Y-85212329D01*
X177722520Y-85190151D01*
X177735133Y-85169107D01*
X177749747Y-85149402D01*
X177766223Y-85131223D01*
X177784402Y-85114747D01*
X177804107Y-85100133D01*
X177825151Y-85087520D01*
X177847329Y-85077030D01*
X177870429Y-85068765D01*
X177894227Y-85062804D01*
X177918496Y-85059204D01*
X177943000Y-85058000D01*
X179943000Y-85058000D01*
X179967504Y-85059204D01*
X179967504Y-85059204D01*
G37*
D12*
X178943000Y-87058000D03*
D11*
G36*
X179967504Y-77059204D02*
G01*
X179991773Y-77062804D01*
X180015571Y-77068765D01*
X180038671Y-77077030D01*
X180060849Y-77087520D01*
X180081893Y-77100133D01*
X180101598Y-77114747D01*
X180119777Y-77131223D01*
X180136253Y-77149402D01*
X180150867Y-77169107D01*
X180163480Y-77190151D01*
X180173970Y-77212329D01*
X180182235Y-77235429D01*
X180188196Y-77259227D01*
X180191796Y-77283496D01*
X180193000Y-77308000D01*
X180193000Y-80808000D01*
X180191796Y-80832504D01*
X180188196Y-80856773D01*
X180182235Y-80880571D01*
X180173970Y-80903671D01*
X180163480Y-80925849D01*
X180150867Y-80946893D01*
X180136253Y-80966598D01*
X180119777Y-80984777D01*
X180101598Y-81001253D01*
X180081893Y-81015867D01*
X180060849Y-81028480D01*
X180038671Y-81038970D01*
X180015571Y-81047235D01*
X179991773Y-81053196D01*
X179967504Y-81056796D01*
X179943000Y-81058000D01*
X177943000Y-81058000D01*
X177918496Y-81056796D01*
X177894227Y-81053196D01*
X177870429Y-81047235D01*
X177847329Y-81038970D01*
X177825151Y-81028480D01*
X177804107Y-81015867D01*
X177784402Y-81001253D01*
X177766223Y-80984777D01*
X177749747Y-80966598D01*
X177735133Y-80946893D01*
X177722520Y-80925849D01*
X177712030Y-80903671D01*
X177703765Y-80880571D01*
X177697804Y-80856773D01*
X177694204Y-80832504D01*
X177693000Y-80808000D01*
X177693000Y-77308000D01*
X177694204Y-77283496D01*
X177697804Y-77259227D01*
X177703765Y-77235429D01*
X177712030Y-77212329D01*
X177722520Y-77190151D01*
X177735133Y-77169107D01*
X177749747Y-77149402D01*
X177766223Y-77131223D01*
X177784402Y-77114747D01*
X177804107Y-77100133D01*
X177825151Y-77087520D01*
X177847329Y-77077030D01*
X177870429Y-77068765D01*
X177894227Y-77062804D01*
X177918496Y-77059204D01*
X177943000Y-77058000D01*
X179943000Y-77058000D01*
X179967504Y-77059204D01*
X179967504Y-77059204D01*
G37*
D12*
X178943000Y-79058000D03*
D11*
G36*
X157742504Y-77059204D02*
G01*
X157766773Y-77062804D01*
X157790571Y-77068765D01*
X157813671Y-77077030D01*
X157835849Y-77087520D01*
X157856893Y-77100133D01*
X157876598Y-77114747D01*
X157894777Y-77131223D01*
X157911253Y-77149402D01*
X157925867Y-77169107D01*
X157938480Y-77190151D01*
X157948970Y-77212329D01*
X157957235Y-77235429D01*
X157963196Y-77259227D01*
X157966796Y-77283496D01*
X157968000Y-77308000D01*
X157968000Y-80808000D01*
X157966796Y-80832504D01*
X157963196Y-80856773D01*
X157957235Y-80880571D01*
X157948970Y-80903671D01*
X157938480Y-80925849D01*
X157925867Y-80946893D01*
X157911253Y-80966598D01*
X157894777Y-80984777D01*
X157876598Y-81001253D01*
X157856893Y-81015867D01*
X157835849Y-81028480D01*
X157813671Y-81038970D01*
X157790571Y-81047235D01*
X157766773Y-81053196D01*
X157742504Y-81056796D01*
X157718000Y-81058000D01*
X155718000Y-81058000D01*
X155693496Y-81056796D01*
X155669227Y-81053196D01*
X155645429Y-81047235D01*
X155622329Y-81038970D01*
X155600151Y-81028480D01*
X155579107Y-81015867D01*
X155559402Y-81001253D01*
X155541223Y-80984777D01*
X155524747Y-80966598D01*
X155510133Y-80946893D01*
X155497520Y-80925849D01*
X155487030Y-80903671D01*
X155478765Y-80880571D01*
X155472804Y-80856773D01*
X155469204Y-80832504D01*
X155468000Y-80808000D01*
X155468000Y-77308000D01*
X155469204Y-77283496D01*
X155472804Y-77259227D01*
X155478765Y-77235429D01*
X155487030Y-77212329D01*
X155497520Y-77190151D01*
X155510133Y-77169107D01*
X155524747Y-77149402D01*
X155541223Y-77131223D01*
X155559402Y-77114747D01*
X155579107Y-77100133D01*
X155600151Y-77087520D01*
X155622329Y-77077030D01*
X155645429Y-77068765D01*
X155669227Y-77062804D01*
X155693496Y-77059204D01*
X155718000Y-77058000D01*
X157718000Y-77058000D01*
X157742504Y-77059204D01*
X157742504Y-77059204D01*
G37*
D12*
X156718000Y-79058000D03*
D11*
G36*
X157742504Y-85059204D02*
G01*
X157766773Y-85062804D01*
X157790571Y-85068765D01*
X157813671Y-85077030D01*
X157835849Y-85087520D01*
X157856893Y-85100133D01*
X157876598Y-85114747D01*
X157894777Y-85131223D01*
X157911253Y-85149402D01*
X157925867Y-85169107D01*
X157938480Y-85190151D01*
X157948970Y-85212329D01*
X157957235Y-85235429D01*
X157963196Y-85259227D01*
X157966796Y-85283496D01*
X157968000Y-85308000D01*
X157968000Y-88808000D01*
X157966796Y-88832504D01*
X157963196Y-88856773D01*
X157957235Y-88880571D01*
X157948970Y-88903671D01*
X157938480Y-88925849D01*
X157925867Y-88946893D01*
X157911253Y-88966598D01*
X157894777Y-88984777D01*
X157876598Y-89001253D01*
X157856893Y-89015867D01*
X157835849Y-89028480D01*
X157813671Y-89038970D01*
X157790571Y-89047235D01*
X157766773Y-89053196D01*
X157742504Y-89056796D01*
X157718000Y-89058000D01*
X155718000Y-89058000D01*
X155693496Y-89056796D01*
X155669227Y-89053196D01*
X155645429Y-89047235D01*
X155622329Y-89038970D01*
X155600151Y-89028480D01*
X155579107Y-89015867D01*
X155559402Y-89001253D01*
X155541223Y-88984777D01*
X155524747Y-88966598D01*
X155510133Y-88946893D01*
X155497520Y-88925849D01*
X155487030Y-88903671D01*
X155478765Y-88880571D01*
X155472804Y-88856773D01*
X155469204Y-88832504D01*
X155468000Y-88808000D01*
X155468000Y-85308000D01*
X155469204Y-85283496D01*
X155472804Y-85259227D01*
X155478765Y-85235429D01*
X155487030Y-85212329D01*
X155497520Y-85190151D01*
X155510133Y-85169107D01*
X155524747Y-85149402D01*
X155541223Y-85131223D01*
X155559402Y-85114747D01*
X155579107Y-85100133D01*
X155600151Y-85087520D01*
X155622329Y-85077030D01*
X155645429Y-85068765D01*
X155669227Y-85062804D01*
X155693496Y-85059204D01*
X155718000Y-85058000D01*
X157718000Y-85058000D01*
X157742504Y-85059204D01*
X157742504Y-85059204D01*
G37*
D12*
X156718000Y-87058000D03*
M02*
