M48
; DRILL file {KiCad (5.1.0)-1} date 6/13/2019 2:24:15 PM
; FORMAT={-:-/ absolute / inch / decimal}
; #@! TF.CreationDate,2019-06-13T14:24:15-04:00
; #@! TF.GenerationSoftware,Kicad,Pcbnew,(5.1.0)-1
FMAT,2
INCH
T1C0.0157
T2C0.0276
T3C0.0315
T4C0.0354
T5C0.0394
T6C0.0512
T7C0.0591
T8C0.1260
T9C0.0669
T10C0.1260
%
G90
G05
T1
X4.45Y-3.07
X4.465Y-3.22
X4.725Y-4.0
X5.14Y-3.29
X5.295Y-3.195
X5.31Y-3.51
X5.4Y-3.08
X6.085Y-4.175
X6.11Y-3.665
X6.35Y-3.185
X6.355Y-3.935
X6.545Y-3.23
X6.615Y-3.65
X6.625Y-3.26
X6.645Y-3.73
X6.705Y-3.51
X6.825Y-3.7235
X6.83Y-3.66
X6.875Y-3.765
X6.88Y-3.66
X6.91Y-3.925
X6.94Y-2.695
X6.94Y-3.35
X6.955Y-4.065
X6.99Y-4.215
X7.035Y-2.7
X7.04Y-3.56
X7.06Y-3.29
X7.075Y-2.99
X7.09Y-3.725
X7.13Y-2.97
X7.16Y-2.62
X7.185Y-2.915
X7.195Y-3.99
X7.245Y-3.025
X7.245Y-2.96
X7.25Y-2.63
X7.26Y-4.05
X7.3Y-3.695
X7.33Y-2.77
X7.335Y-2.95
X7.43Y-3.8
T2
X5.2041Y-4.1733
X5.46Y-4.2087
X5.7159Y-4.1733
T3
X3.6265Y-3.1413
X3.6265Y-3.22
X3.6265Y-3.2987
X3.6265Y-3.5725
X3.6265Y-3.73
X3.6265Y-3.8087
X3.6265Y-3.8875
X7.3935Y-3.3225
X7.3935Y-3.4013
X7.3935Y-3.48
X7.3935Y-3.6375
T4
X5.3261Y-3.9568
X5.3261Y-4.0552
X5.5939Y-3.9568
X5.5939Y-4.0552
T5
X4.745Y-3.075
X4.845Y-3.075
X4.945Y-3.075
X4.8098Y-3.9502
X4.9063Y-4.025
X4.9063Y-4.2416
X4.985Y-3.8833
X4.985Y-4.0998
X4.985Y-4.34
X5.1484Y-3.9502
X5.1484Y-4.3006
X3.9902Y-4.105
X3.9902Y-4.2609
X4.0353Y-4.183
X4.0803Y-4.105
X4.0803Y-4.2609
X4.1254Y-4.183
X4.1705Y-4.105
X4.1705Y-4.2609
X4.2156Y-4.183
X4.2606Y-4.105
X4.2606Y-4.2609
X4.3057Y-4.183
X4.3508Y-4.105
X4.3508Y-4.2609
X4.3959Y-4.183
T6
X5.934Y-3.9079
X6.2293Y-3.9079
X6.4852Y-3.9079
X6.7805Y-3.9079
X7.0364Y-3.9079
X7.3316Y-3.9079
T7
X7.3935Y-3.2398
X7.3935Y-3.7202
X3.6265Y-3.0586
X3.6265Y-3.3814
X6.2293Y-4.1933
X6.7805Y-4.1933
X7.3316Y-4.1933
X3.6265Y-3.4898
X3.6265Y-3.9702
T8
X3.6888Y-4.1857
X4.6731Y-4.1857
T10
X4.32Y-3.805
X4.23Y-3.205
X6.385Y-3.635
X5.76Y-3.195
T9
G00X5.8395Y-3.9965
M15
G01X5.8395Y-4.1146
M16
G05
G00X7.4261Y-3.9965
M15
G01X7.4261Y-4.1146
M16
G05
T0
M30
