G04 #@! TF.GenerationSoftware,KiCad,Pcbnew,(5.1.0)-1*
G04 #@! TF.CreationDate,2019-06-11T16:06:16-04:00*
G04 #@! TF.ProjectId,PSX Breakout,50535820-4272-4656-916b-6f75742e6b69,rev?*
G04 #@! TF.SameCoordinates,Original*
G04 #@! TF.FileFunction,Copper,L2,Bot*
G04 #@! TF.FilePolarity,Positive*
%FSLAX46Y46*%
G04 Gerber Fmt 4.6, Leading zero omitted, Abs format (unit mm)*
G04 Created by KiCad (PCBNEW (5.1.0)-1) date 2019-06-11 16:06:16*
%MOMM*%
%LPD*%
G04 APERTURE LIST*
%ADD10R,1.600000X1.600000*%
%ADD11C,1.600000*%
%ADD12C,4.000000*%
%ADD13O,3.016000X1.508000*%
%ADD14O,2.200000X4.000000*%
%ADD15O,2.000000X4.000000*%
%ADD16C,1.500000*%
%ADD17C,2.000000*%
%ADD18R,1.500000X3.200000*%
%ADD19O,1.700000X3.400000*%
%ADD20O,3.400000X1.700000*%
%ADD21C,1.408000*%
%ADD22R,1.408000X1.408000*%
%ADD23R,1.700000X1.700000*%
%ADD24O,1.700000X1.700000*%
%ADD25C,0.800000*%
%ADD26C,0.250000*%
%ADD27C,0.254000*%
G04 APERTURE END LIST*
D10*
X110510500Y-104267000D03*
D11*
X108220500Y-104267000D03*
X105930500Y-104267000D03*
X103640500Y-104267000D03*
X101350500Y-104267000D03*
X111655500Y-106247000D03*
X109365500Y-106247000D03*
X107075500Y-106247000D03*
X104785500Y-106247000D03*
X102495500Y-106247000D03*
X110510500Y-108227000D03*
X108220500Y-108227000D03*
X105930500Y-108227000D03*
X103640500Y-108227000D03*
X101350500Y-108227000D03*
D12*
X93695500Y-106317000D03*
X118695500Y-106317000D03*
D13*
X124619000Y-102236000D03*
X124619000Y-107736000D03*
X126619000Y-110236000D03*
D14*
X186223500Y-106510000D03*
X172223500Y-106510000D03*
X158223500Y-106510000D03*
D15*
X186223500Y-99260000D03*
X178723500Y-99260000D03*
X150723500Y-99260000D03*
X158223500Y-99260000D03*
X164723500Y-99260000D03*
X172223500Y-99260000D03*
D16*
X92113000Y-94742000D03*
X92113000Y-96742000D03*
X92113000Y-90742000D03*
X92113000Y-98742000D03*
D17*
X92113000Y-100842000D03*
X92113000Y-88642000D03*
D18*
X176430000Y-61750000D03*
X178593636Y-61750000D03*
X180757272Y-61750000D03*
X182920908Y-61750000D03*
X185084544Y-61750000D03*
X187248180Y-61750000D03*
D19*
X145184000Y-106002000D03*
D20*
X138684000Y-106902000D03*
D19*
X132184000Y-106002000D03*
D21*
X142084000Y-100502000D03*
D22*
X142084000Y-103002000D03*
D21*
X135284000Y-103002000D03*
X135284000Y-100502000D03*
D17*
X187795000Y-94492000D03*
X187795000Y-82292000D03*
D16*
X187795000Y-84392000D03*
X187795000Y-92392000D03*
X187795000Y-86392000D03*
X187795000Y-88392000D03*
D23*
X120523000Y-78105000D03*
D24*
X123063000Y-78105000D03*
X125603000Y-78105000D03*
D16*
X92113000Y-79788000D03*
X92113000Y-81788000D03*
X92113000Y-83788000D03*
D17*
X92113000Y-85888000D03*
X92113000Y-77688000D03*
D25*
X166243000Y-82042000D03*
X170307000Y-89154000D03*
X180086000Y-94615000D03*
X184404000Y-102870000D03*
X154559000Y-106045000D03*
X161290000Y-80899000D03*
X179705000Y-75946000D03*
X137160000Y-78232000D03*
X130556000Y-83566000D03*
X134874000Y-89154000D03*
X155194000Y-93091000D03*
X168021000Y-92710000D03*
X178816000Y-90424000D03*
X176276000Y-85090000D03*
X175514000Y-99695000D03*
X161417000Y-99949000D03*
X168783000Y-94742000D03*
X177546000Y-107061000D03*
X120777000Y-101727000D03*
X176276000Y-68453000D03*
X178689000Y-68580000D03*
X188722000Y-96520000D03*
X182753000Y-101346000D03*
X113030000Y-77978000D03*
X184150000Y-66802000D03*
X186309000Y-74930000D03*
X168275000Y-82804000D03*
X174625000Y-76490990D03*
X173482000Y-92964000D03*
X173355000Y-94578000D03*
X174752000Y-92964000D03*
X174625000Y-95630998D03*
X184022986Y-76835000D03*
X179324000Y-83566000D03*
X184023000Y-75184000D03*
X185420000Y-93853000D03*
X176657000Y-103251000D03*
X134493000Y-81153000D03*
X113411000Y-81788000D03*
D26*
X181356000Y-82042000D02*
X166243000Y-82042000D01*
X187248180Y-61750000D02*
X187248180Y-76149820D01*
X187248180Y-76149820D02*
X181356000Y-82042000D01*
X170307000Y-89154000D02*
X174625000Y-89154000D01*
X174625000Y-89154000D02*
X180086000Y-94615000D01*
X186223500Y-101050500D02*
X186223500Y-99260000D01*
X184404000Y-102870000D02*
X186223500Y-101050500D01*
X158223500Y-102380500D02*
X158223500Y-99260000D01*
X154559000Y-106045000D02*
X158223500Y-102380500D01*
X181159004Y-80899000D02*
X161855685Y-80899000D01*
X161855685Y-80899000D02*
X161290000Y-80899000D01*
X185084544Y-76973460D02*
X181159004Y-80899000D01*
X185084544Y-61750000D02*
X185084544Y-76973460D01*
X138176000Y-77216000D02*
X137160000Y-78232000D01*
X178435000Y-77216000D02*
X138176000Y-77216000D01*
X179705000Y-75946000D02*
X178435000Y-77216000D01*
X118625500Y-106247000D02*
X118695500Y-106317000D01*
X107075500Y-106247000D02*
X118625500Y-106247000D01*
X101350500Y-105102000D02*
X102495500Y-106247000D01*
X101350500Y-104267000D02*
X101350500Y-105102000D01*
X173482000Y-92964000D02*
X173482000Y-94451000D01*
X173482000Y-94451000D02*
X173355000Y-94578000D01*
X125373000Y-102236000D02*
X124619000Y-102236000D01*
X132230000Y-109093000D02*
X125373000Y-102236000D01*
X159258000Y-109093000D02*
X132230000Y-109093000D01*
X164723500Y-99260000D02*
X164723500Y-103627500D01*
X164723500Y-103627500D02*
X159258000Y-109093000D01*
X174752000Y-92964000D02*
X174752000Y-95503998D01*
X174752000Y-95503998D02*
X174625000Y-95630998D01*
X183622987Y-76435001D02*
X184022986Y-76835000D01*
X180757272Y-73569286D02*
X183622987Y-76435001D01*
X180757272Y-61750000D02*
X180757272Y-73569286D01*
X146574000Y-96012000D02*
X142787999Y-99798001D01*
X173932996Y-96012000D02*
X146574000Y-96012000D01*
X187795000Y-88392000D02*
X179830998Y-96356002D01*
X142787999Y-99798001D02*
X142084000Y-100502000D01*
X174276998Y-96356002D02*
X173932996Y-96012000D01*
X179830998Y-96356002D02*
X174276998Y-96356002D01*
X180150000Y-84392000D02*
X187795000Y-84392000D01*
X179324000Y-83566000D02*
X180150000Y-84392000D01*
X94996000Y-91859000D02*
X92113000Y-94742000D01*
X92113000Y-79845000D02*
X90551000Y-81407000D01*
X94996000Y-89563998D02*
X94996000Y-91859000D01*
X90551000Y-81407000D02*
X90551000Y-86287002D01*
X92113000Y-79788000D02*
X92113000Y-79845000D01*
X90551000Y-86287002D02*
X91512998Y-87249000D01*
X91512998Y-87249000D02*
X92681002Y-87249000D01*
X92681002Y-87249000D02*
X94996000Y-89563998D01*
X93186000Y-79788000D02*
X92113000Y-79788000D01*
X93345000Y-79629000D02*
X93186000Y-79788000D01*
X95250000Y-77597000D02*
X93345000Y-79502000D01*
X108966000Y-77597000D02*
X95250000Y-77597000D01*
X135509000Y-80137000D02*
X111506000Y-80137000D01*
X111506000Y-80137000D02*
X108966000Y-77597000D01*
X149987000Y-83566000D02*
X148463000Y-85090000D01*
X179324000Y-83566000D02*
X149987000Y-83566000D01*
X148463000Y-85090000D02*
X146177000Y-85090000D01*
X146177000Y-85090000D02*
X144907000Y-86360000D01*
X93345000Y-79502000D02*
X93345000Y-79629000D01*
X144907000Y-86360000D02*
X141732000Y-86360000D01*
X141732000Y-86360000D02*
X135509000Y-80137000D01*
X182920908Y-61750000D02*
X182920908Y-74081908D01*
X182920908Y-74081908D02*
X184023000Y-75184000D01*
X135987999Y-101205999D02*
X135284000Y-100502000D01*
X136382000Y-101600000D02*
X135987999Y-101205999D01*
X142748000Y-101600000D02*
X136382000Y-101600000D01*
X147413010Y-96934990D02*
X142748000Y-101600000D01*
X185420000Y-93853000D02*
X182338010Y-96934990D01*
X182338010Y-96934990D02*
X147413010Y-96934990D01*
X105130501Y-109026999D02*
X105930500Y-108227000D01*
X104556500Y-109601000D02*
X105130501Y-109026999D01*
X90678000Y-92177000D02*
X90678000Y-101854000D01*
X90678000Y-101854000D02*
X92583000Y-103759000D01*
X92583000Y-103759000D02*
X95123000Y-103759000D01*
X95123000Y-103759000D02*
X100965000Y-109601000D01*
X92113000Y-90742000D02*
X90678000Y-92177000D01*
X100965000Y-109601000D02*
X104556500Y-109601000D01*
X187045001Y-93141999D02*
X187795000Y-92392000D01*
X186182000Y-94005000D02*
X187045001Y-93141999D01*
X186182000Y-94742000D02*
X186182000Y-94005000D01*
X176657000Y-103251000D02*
X177673000Y-103251000D01*
X177673000Y-103251000D02*
X186182000Y-94742000D01*
X140481999Y-87141999D02*
X134493000Y-81153000D01*
X187795000Y-86392000D02*
X187045001Y-87141999D01*
X187045001Y-87141999D02*
X140481999Y-87141999D01*
X92145000Y-96774000D02*
X92113000Y-96742000D01*
X113411000Y-81788000D02*
X98425000Y-96774000D01*
X98425000Y-96774000D02*
X92145000Y-96774000D01*
D27*
G36*
X189294001Y-76167572D02*
G01*
X189294000Y-76167582D01*
X189294000Y-81623873D01*
X189287795Y-81605912D01*
X189194814Y-81431956D01*
X188930413Y-81336192D01*
X187974605Y-82292000D01*
X188930413Y-83247808D01*
X189194814Y-83152044D01*
X189294000Y-82948156D01*
X189294000Y-93823874D01*
X189287795Y-93805912D01*
X189194814Y-93631956D01*
X188930413Y-93536192D01*
X187974605Y-94492000D01*
X188930413Y-95447808D01*
X189194814Y-95352044D01*
X189294001Y-95148155D01*
X189294001Y-100184568D01*
X189194533Y-100131401D01*
X188914610Y-100046487D01*
X188623500Y-100017815D01*
X188332389Y-100046487D01*
X188052466Y-100131401D01*
X187858500Y-100235078D01*
X187858500Y-98179678D01*
X187834843Y-97939484D01*
X187741352Y-97631285D01*
X187589531Y-97347248D01*
X187385214Y-97098286D01*
X187136251Y-96893969D01*
X186852214Y-96742148D01*
X186544015Y-96648657D01*
X186223500Y-96617089D01*
X185902984Y-96648657D01*
X185594785Y-96742148D01*
X185310748Y-96893969D01*
X185061786Y-97098286D01*
X184857469Y-97347249D01*
X184705648Y-97631286D01*
X184612157Y-97939485D01*
X184588500Y-98179679D01*
X184588501Y-100340322D01*
X184612158Y-100580516D01*
X184705649Y-100888715D01*
X184857470Y-101172752D01*
X184933637Y-101265562D01*
X184364199Y-101835000D01*
X184302061Y-101835000D01*
X184102102Y-101874774D01*
X183913744Y-101952795D01*
X183744226Y-102066063D01*
X183600063Y-102210226D01*
X183486795Y-102379744D01*
X183408774Y-102568102D01*
X183369000Y-102768061D01*
X183369000Y-102971939D01*
X183408774Y-103171898D01*
X183486795Y-103360256D01*
X183600063Y-103529774D01*
X183744226Y-103673937D01*
X183913744Y-103787205D01*
X184102102Y-103865226D01*
X184302061Y-103905000D01*
X184505939Y-103905000D01*
X184705898Y-103865226D01*
X184894256Y-103787205D01*
X185063774Y-103673937D01*
X185207937Y-103529774D01*
X185321205Y-103360256D01*
X185399226Y-103171898D01*
X185439000Y-102971939D01*
X185439000Y-102909801D01*
X186470187Y-101878614D01*
X186544016Y-101871343D01*
X186852215Y-101777852D01*
X187136252Y-101626031D01*
X187138500Y-101624186D01*
X187138501Y-104136812D01*
X187081817Y-104096843D01*
X186770122Y-103958469D01*
X186619622Y-103920825D01*
X186350500Y-104038875D01*
X186350500Y-106383000D01*
X187958500Y-106383000D01*
X187958500Y-105838373D01*
X188052467Y-105888599D01*
X188332390Y-105973513D01*
X188623500Y-106002185D01*
X188914611Y-105973513D01*
X189194534Y-105888599D01*
X189294001Y-105835433D01*
X189294001Y-111100000D01*
X128464218Y-111100000D01*
X128598469Y-110902091D01*
X128704870Y-110650215D01*
X128719286Y-110577814D01*
X128596677Y-110363000D01*
X126746000Y-110363000D01*
X126746000Y-110383000D01*
X126492000Y-110383000D01*
X126492000Y-110363000D01*
X124641323Y-110363000D01*
X124518714Y-110577814D01*
X124533130Y-110650215D01*
X124639531Y-110902091D01*
X124773782Y-111100000D01*
X90614000Y-111100000D01*
X90614000Y-108164499D01*
X92027606Y-108164499D01*
X92243728Y-108531258D01*
X92703605Y-108771938D01*
X93201598Y-108918275D01*
X93718571Y-108964648D01*
X94234659Y-108909273D01*
X94730026Y-108754279D01*
X95147272Y-108531258D01*
X95363394Y-108164499D01*
X93695500Y-106496605D01*
X92027606Y-108164499D01*
X90614000Y-108164499D01*
X90614000Y-106340071D01*
X91047852Y-106340071D01*
X91103227Y-106856159D01*
X91258221Y-107351526D01*
X91481242Y-107768772D01*
X91848001Y-107984894D01*
X93515895Y-106317000D01*
X91848001Y-104649106D01*
X91481242Y-104865228D01*
X91240562Y-105325105D01*
X91094225Y-105823098D01*
X91047852Y-106340071D01*
X90614000Y-106340071D01*
X90614000Y-102864801D01*
X92019200Y-104270002D01*
X92042999Y-104299001D01*
X92100345Y-104346063D01*
X92027606Y-104469501D01*
X93695500Y-106137395D01*
X93709643Y-106123253D01*
X93889248Y-106302858D01*
X93875105Y-106317000D01*
X95542999Y-107984894D01*
X95909758Y-107768772D01*
X96150438Y-107308895D01*
X96296775Y-106810902D01*
X96343148Y-106293929D01*
X96314304Y-106025105D01*
X100401201Y-110112003D01*
X100424999Y-110141001D01*
X100540724Y-110235974D01*
X100672753Y-110306546D01*
X100816014Y-110350003D01*
X100927667Y-110361000D01*
X100927675Y-110361000D01*
X100965000Y-110364676D01*
X101002325Y-110361000D01*
X104519178Y-110361000D01*
X104556500Y-110364676D01*
X104593822Y-110361000D01*
X104593833Y-110361000D01*
X104705486Y-110350003D01*
X104848747Y-110306546D01*
X104980776Y-110235974D01*
X105096501Y-110141001D01*
X105120303Y-110111998D01*
X105606614Y-109625688D01*
X105789165Y-109662000D01*
X106071835Y-109662000D01*
X106349074Y-109606853D01*
X106610227Y-109498680D01*
X106845259Y-109341637D01*
X107045137Y-109141759D01*
X107075500Y-109096317D01*
X107105863Y-109141759D01*
X107305741Y-109341637D01*
X107540773Y-109498680D01*
X107801926Y-109606853D01*
X108079165Y-109662000D01*
X108361835Y-109662000D01*
X108639074Y-109606853D01*
X108900227Y-109498680D01*
X109135259Y-109341637D01*
X109335137Y-109141759D01*
X109365500Y-109096317D01*
X109395863Y-109141759D01*
X109595741Y-109341637D01*
X109830773Y-109498680D01*
X110091926Y-109606853D01*
X110369165Y-109662000D01*
X110651835Y-109662000D01*
X110929074Y-109606853D01*
X111190227Y-109498680D01*
X111425259Y-109341637D01*
X111625137Y-109141759D01*
X111782180Y-108906727D01*
X111890353Y-108645574D01*
X111945500Y-108368335D01*
X111945500Y-108164499D01*
X117027606Y-108164499D01*
X117243728Y-108531258D01*
X117703605Y-108771938D01*
X118201598Y-108918275D01*
X118718571Y-108964648D01*
X119234659Y-108909273D01*
X119730026Y-108754279D01*
X120147272Y-108531258D01*
X120363394Y-108164499D01*
X118695500Y-106496605D01*
X117027606Y-108164499D01*
X111945500Y-108164499D01*
X111945500Y-108085665D01*
X111890353Y-107808426D01*
X111833547Y-107671284D01*
X112005630Y-107645787D01*
X112271792Y-107550603D01*
X112397014Y-107483671D01*
X112468597Y-107239702D01*
X111655500Y-106426605D01*
X111641358Y-106440748D01*
X111461753Y-106261143D01*
X111475895Y-106247000D01*
X111835105Y-106247000D01*
X112648202Y-107060097D01*
X112892171Y-106988514D01*
X113013071Y-106733004D01*
X113081800Y-106458816D01*
X113087653Y-106340071D01*
X116047852Y-106340071D01*
X116103227Y-106856159D01*
X116258221Y-107351526D01*
X116481242Y-107768772D01*
X116848001Y-107984894D01*
X118515895Y-106317000D01*
X118875105Y-106317000D01*
X120542999Y-107984894D01*
X120909758Y-107768772D01*
X120926909Y-107736000D01*
X122469280Y-107736000D01*
X122496098Y-108008291D01*
X122575523Y-108270119D01*
X122704501Y-108511420D01*
X122878077Y-108722923D01*
X123089580Y-108896499D01*
X123330881Y-109025477D01*
X123592709Y-109104902D01*
X123796770Y-109125000D01*
X125028205Y-109125000D01*
X124987716Y-109151646D01*
X124793026Y-109343631D01*
X124639531Y-109569909D01*
X124533130Y-109821785D01*
X124518714Y-109894186D01*
X124641323Y-110109000D01*
X126492000Y-110109000D01*
X126492000Y-110089000D01*
X126746000Y-110089000D01*
X126746000Y-110109000D01*
X128596677Y-110109000D01*
X128719286Y-109894186D01*
X128704870Y-109821785D01*
X128598469Y-109569909D01*
X128444974Y-109343631D01*
X128250284Y-109151646D01*
X128021880Y-109001332D01*
X127768540Y-108898466D01*
X127500000Y-108847000D01*
X126208735Y-108847000D01*
X126359923Y-108722923D01*
X126533499Y-108511420D01*
X126662477Y-108270119D01*
X126741902Y-108008291D01*
X126768720Y-107736000D01*
X126741902Y-107463709D01*
X126662477Y-107201881D01*
X126533499Y-106960580D01*
X126359923Y-106749077D01*
X126148420Y-106575501D01*
X125907119Y-106446523D01*
X125645291Y-106367098D01*
X125441230Y-106347000D01*
X123796770Y-106347000D01*
X123592709Y-106367098D01*
X123330881Y-106446523D01*
X123089580Y-106575501D01*
X122878077Y-106749077D01*
X122704501Y-106960580D01*
X122575523Y-107201881D01*
X122496098Y-107463709D01*
X122469280Y-107736000D01*
X120926909Y-107736000D01*
X121150438Y-107308895D01*
X121296775Y-106810902D01*
X121343148Y-106293929D01*
X121287773Y-105777841D01*
X121132779Y-105282474D01*
X120909758Y-104865228D01*
X120542999Y-104649106D01*
X118875105Y-106317000D01*
X118515895Y-106317000D01*
X116848001Y-104649106D01*
X116481242Y-104865228D01*
X116240562Y-105325105D01*
X116094225Y-105823098D01*
X116047852Y-106340071D01*
X113087653Y-106340071D01*
X113095717Y-106176488D01*
X113054287Y-105896870D01*
X112959103Y-105630708D01*
X112892171Y-105505486D01*
X112648202Y-105433903D01*
X111835105Y-106247000D01*
X111475895Y-106247000D01*
X111461753Y-106232858D01*
X111641358Y-106053253D01*
X111655500Y-106067395D01*
X112468597Y-105254298D01*
X112397014Y-105010329D01*
X112141504Y-104889429D01*
X111948572Y-104841068D01*
X111948572Y-104469501D01*
X117027606Y-104469501D01*
X118695500Y-106137395D01*
X120363394Y-104469501D01*
X120147272Y-104102742D01*
X119687395Y-103862062D01*
X119189402Y-103715725D01*
X118672429Y-103669352D01*
X118156341Y-103724727D01*
X117660974Y-103879721D01*
X117243728Y-104102742D01*
X117027606Y-104469501D01*
X111948572Y-104469501D01*
X111948572Y-103467000D01*
X111936312Y-103342518D01*
X111900002Y-103222820D01*
X111841037Y-103112506D01*
X111761685Y-103015815D01*
X111664994Y-102936463D01*
X111554680Y-102877498D01*
X111434982Y-102841188D01*
X111310500Y-102828928D01*
X109710500Y-102828928D01*
X109586018Y-102841188D01*
X109466320Y-102877498D01*
X109356006Y-102936463D01*
X109259315Y-103015815D01*
X109179963Y-103112506D01*
X109150508Y-103167612D01*
X109135259Y-103152363D01*
X108900227Y-102995320D01*
X108639074Y-102887147D01*
X108361835Y-102832000D01*
X108079165Y-102832000D01*
X107801926Y-102887147D01*
X107540773Y-102995320D01*
X107305741Y-103152363D01*
X107105863Y-103352241D01*
X107075500Y-103397683D01*
X107045137Y-103352241D01*
X106845259Y-103152363D01*
X106610227Y-102995320D01*
X106349074Y-102887147D01*
X106071835Y-102832000D01*
X105789165Y-102832000D01*
X105511926Y-102887147D01*
X105250773Y-102995320D01*
X105015741Y-103152363D01*
X104815863Y-103352241D01*
X104785500Y-103397683D01*
X104755137Y-103352241D01*
X104555259Y-103152363D01*
X104320227Y-102995320D01*
X104059074Y-102887147D01*
X103781835Y-102832000D01*
X103499165Y-102832000D01*
X103221926Y-102887147D01*
X102960773Y-102995320D01*
X102725741Y-103152363D01*
X102525863Y-103352241D01*
X102439128Y-103482049D01*
X102343202Y-103453903D01*
X101530105Y-104267000D01*
X101544248Y-104281143D01*
X101364643Y-104460748D01*
X101350500Y-104446605D01*
X100537403Y-105259702D01*
X100608986Y-105503671D01*
X100864496Y-105624571D01*
X101138684Y-105693300D01*
X101169248Y-105694807D01*
X101137929Y-105760996D01*
X101069200Y-106035184D01*
X101055283Y-106317512D01*
X101096713Y-106597130D01*
X101169242Y-106799941D01*
X100931926Y-106847147D01*
X100670773Y-106955320D01*
X100435741Y-107112363D01*
X100235863Y-107312241D01*
X100078820Y-107547273D01*
X100051656Y-107612854D01*
X96776314Y-104337512D01*
X99910283Y-104337512D01*
X99951713Y-104617130D01*
X100046897Y-104883292D01*
X100113829Y-105008514D01*
X100357798Y-105080097D01*
X101170895Y-104267000D01*
X100357798Y-103453903D01*
X100113829Y-103525486D01*
X99992929Y-103780996D01*
X99924200Y-104055184D01*
X99910283Y-104337512D01*
X96776314Y-104337512D01*
X95713100Y-103274298D01*
X100537403Y-103274298D01*
X101350500Y-104087395D01*
X102163597Y-103274298D01*
X102092014Y-103030329D01*
X101836504Y-102909429D01*
X101562316Y-102840700D01*
X101279988Y-102826783D01*
X101000370Y-102868213D01*
X100734208Y-102963397D01*
X100608986Y-103030329D01*
X100537403Y-103274298D01*
X95713100Y-103274298D01*
X95686804Y-103248003D01*
X95663001Y-103218999D01*
X95547276Y-103124026D01*
X95415247Y-103053454D01*
X95271986Y-103009997D01*
X95160333Y-102999000D01*
X95160322Y-102999000D01*
X95123000Y-102995324D01*
X95085678Y-102999000D01*
X92897802Y-102999000D01*
X92357565Y-102458764D01*
X92494675Y-102439961D01*
X92799088Y-102334795D01*
X92973044Y-102241814D01*
X93068808Y-101977413D01*
X92113000Y-101021605D01*
X92098858Y-101035748D01*
X91919253Y-100856143D01*
X91933395Y-100842000D01*
X92292605Y-100842000D01*
X93248413Y-101797808D01*
X93512814Y-101702044D01*
X93653704Y-101412429D01*
X93735384Y-101100892D01*
X93754718Y-100779405D01*
X93710961Y-100460325D01*
X93605795Y-100155912D01*
X93512814Y-99981956D01*
X93248413Y-99886192D01*
X92292605Y-100842000D01*
X91933395Y-100842000D01*
X91919253Y-100827858D01*
X92098858Y-100648253D01*
X92113000Y-100662395D01*
X92880492Y-99894903D01*
X92995886Y-99817799D01*
X93188799Y-99624886D01*
X93340371Y-99398043D01*
X93444775Y-99145989D01*
X93498000Y-98878411D01*
X93498000Y-98605589D01*
X93444775Y-98338011D01*
X93340371Y-98085957D01*
X93188799Y-97859114D01*
X93071685Y-97742000D01*
X93188799Y-97624886D01*
X93249527Y-97534000D01*
X98387678Y-97534000D01*
X98425000Y-97537676D01*
X98462322Y-97534000D01*
X98462333Y-97534000D01*
X98573986Y-97523003D01*
X98717247Y-97479546D01*
X98849276Y-97408974D01*
X98965001Y-97314001D01*
X98988804Y-97284997D01*
X99846929Y-96426872D01*
X107493000Y-96426872D01*
X107493000Y-96867128D01*
X107578890Y-97298925D01*
X107747369Y-97705669D01*
X107991962Y-98071729D01*
X108303271Y-98383038D01*
X108669331Y-98627631D01*
X109076075Y-98796110D01*
X109507872Y-98882000D01*
X109948128Y-98882000D01*
X110379925Y-98796110D01*
X110786669Y-98627631D01*
X111152729Y-98383038D01*
X111464038Y-98071729D01*
X111708631Y-97705669D01*
X111877110Y-97298925D01*
X111963000Y-96867128D01*
X111963000Y-96426872D01*
X111877110Y-95995075D01*
X111708631Y-95588331D01*
X111464038Y-95222271D01*
X111152729Y-94910962D01*
X110786669Y-94666369D01*
X110379925Y-94497890D01*
X109948128Y-94412000D01*
X109507872Y-94412000D01*
X109076075Y-94497890D01*
X108669331Y-94666369D01*
X108303271Y-94910962D01*
X107991962Y-95222271D01*
X107747369Y-95588331D01*
X107578890Y-95995075D01*
X107493000Y-96426872D01*
X99846929Y-96426872D01*
X104164929Y-92108872D01*
X159944000Y-92108872D01*
X159944000Y-92549128D01*
X160029890Y-92980925D01*
X160198369Y-93387669D01*
X160442962Y-93753729D01*
X160754271Y-94065038D01*
X161120331Y-94309631D01*
X161527075Y-94478110D01*
X161958872Y-94564000D01*
X162399128Y-94564000D01*
X162830925Y-94478110D01*
X163237669Y-94309631D01*
X163603729Y-94065038D01*
X163915038Y-93753729D01*
X164159631Y-93387669D01*
X164328110Y-92980925D01*
X164414000Y-92549128D01*
X164414000Y-92108872D01*
X164328110Y-91677075D01*
X164159631Y-91270331D01*
X163915038Y-90904271D01*
X163603729Y-90592962D01*
X163237669Y-90348369D01*
X162830925Y-90179890D01*
X162399128Y-90094000D01*
X161958872Y-90094000D01*
X161527075Y-90179890D01*
X161120331Y-90348369D01*
X160754271Y-90592962D01*
X160442962Y-90904271D01*
X160198369Y-91270331D01*
X160029890Y-91677075D01*
X159944000Y-92108872D01*
X104164929Y-92108872D01*
X113450803Y-82823000D01*
X113512939Y-82823000D01*
X113712898Y-82783226D01*
X113901256Y-82705205D01*
X114070774Y-82591937D01*
X114214937Y-82447774D01*
X114328205Y-82278256D01*
X114406226Y-82089898D01*
X114446000Y-81889939D01*
X114446000Y-81686061D01*
X114406226Y-81486102D01*
X114328205Y-81297744D01*
X114214937Y-81128226D01*
X114070774Y-80984063D01*
X113940475Y-80897000D01*
X133488644Y-80897000D01*
X133458000Y-81051061D01*
X133458000Y-81254939D01*
X133497774Y-81454898D01*
X133575795Y-81643256D01*
X133689063Y-81812774D01*
X133833226Y-81956937D01*
X134002744Y-82070205D01*
X134191102Y-82148226D01*
X134391061Y-82188000D01*
X134453199Y-82188000D01*
X139918200Y-87653002D01*
X139941998Y-87682000D01*
X140037044Y-87760002D01*
X140057723Y-87776973D01*
X140189752Y-87847545D01*
X140333013Y-87891002D01*
X140481999Y-87905676D01*
X140519332Y-87901999D01*
X186498852Y-87901999D01*
X186463225Y-87988011D01*
X186410000Y-88255589D01*
X186410000Y-88528411D01*
X186438833Y-88673365D01*
X180996896Y-94115302D01*
X180889937Y-93955226D01*
X180745774Y-93811063D01*
X180576256Y-93697795D01*
X180387898Y-93619774D01*
X180187939Y-93580000D01*
X180125802Y-93580000D01*
X175188804Y-88643003D01*
X175165001Y-88613999D01*
X175049276Y-88519026D01*
X174917247Y-88448454D01*
X174773986Y-88404997D01*
X174662333Y-88394000D01*
X174662322Y-88394000D01*
X174625000Y-88390324D01*
X174587678Y-88394000D01*
X171010711Y-88394000D01*
X170966774Y-88350063D01*
X170797256Y-88236795D01*
X170608898Y-88158774D01*
X170408939Y-88119000D01*
X170205061Y-88119000D01*
X170005102Y-88158774D01*
X169816744Y-88236795D01*
X169647226Y-88350063D01*
X169503063Y-88494226D01*
X169389795Y-88663744D01*
X169311774Y-88852102D01*
X169272000Y-89052061D01*
X169272000Y-89255939D01*
X169311774Y-89455898D01*
X169389795Y-89644256D01*
X169503063Y-89813774D01*
X169647226Y-89957937D01*
X169816744Y-90071205D01*
X170005102Y-90149226D01*
X170205061Y-90189000D01*
X170408939Y-90189000D01*
X170608898Y-90149226D01*
X170797256Y-90071205D01*
X170966774Y-89957937D01*
X171010711Y-89914000D01*
X174310199Y-89914000D01*
X179051000Y-94654802D01*
X179051000Y-94716939D01*
X179090774Y-94916898D01*
X179168795Y-95105256D01*
X179282063Y-95274774D01*
X179426226Y-95418937D01*
X179586303Y-95525896D01*
X179516197Y-95596002D01*
X175660000Y-95596002D01*
X175660000Y-95529059D01*
X175620226Y-95329100D01*
X175542205Y-95140742D01*
X175512000Y-95095537D01*
X175512000Y-93667711D01*
X175555937Y-93623774D01*
X175669205Y-93454256D01*
X175747226Y-93265898D01*
X175787000Y-93065939D01*
X175787000Y-92862061D01*
X175747226Y-92662102D01*
X175669205Y-92473744D01*
X175555937Y-92304226D01*
X175411774Y-92160063D01*
X175242256Y-92046795D01*
X175053898Y-91968774D01*
X174853939Y-91929000D01*
X174650061Y-91929000D01*
X174450102Y-91968774D01*
X174261744Y-92046795D01*
X174117000Y-92143510D01*
X173972256Y-92046795D01*
X173783898Y-91968774D01*
X173583939Y-91929000D01*
X173380061Y-91929000D01*
X173180102Y-91968774D01*
X172991744Y-92046795D01*
X172822226Y-92160063D01*
X172678063Y-92304226D01*
X172564795Y-92473744D01*
X172486774Y-92662102D01*
X172447000Y-92862061D01*
X172447000Y-93065939D01*
X172486774Y-93265898D01*
X172564795Y-93454256D01*
X172678063Y-93623774D01*
X172722000Y-93667711D01*
X172722001Y-93756173D01*
X172695226Y-93774063D01*
X172551063Y-93918226D01*
X172437795Y-94087744D01*
X172359774Y-94276102D01*
X172320000Y-94476061D01*
X172320000Y-94679939D01*
X172359774Y-94879898D01*
X172437795Y-95068256D01*
X172551063Y-95237774D01*
X172565289Y-95252000D01*
X146611323Y-95252000D01*
X146574000Y-95248324D01*
X146536677Y-95252000D01*
X146536667Y-95252000D01*
X146425014Y-95262997D01*
X146283912Y-95305799D01*
X146281753Y-95306454D01*
X146149723Y-95377026D01*
X146098655Y-95418937D01*
X146033999Y-95471999D01*
X146010201Y-95500997D01*
X142326246Y-99184953D01*
X142215880Y-99163000D01*
X141952120Y-99163000D01*
X141693428Y-99214457D01*
X141449746Y-99315393D01*
X141230437Y-99461931D01*
X141043931Y-99648437D01*
X140897393Y-99867746D01*
X140796457Y-100111428D01*
X140745000Y-100370120D01*
X140745000Y-100633880D01*
X140786000Y-100840000D01*
X136696801Y-100840000D01*
X136601047Y-100744246D01*
X136623000Y-100633880D01*
X136623000Y-100370120D01*
X136571543Y-100111428D01*
X136470607Y-99867746D01*
X136324069Y-99648437D01*
X136137563Y-99461931D01*
X135918254Y-99315393D01*
X135674572Y-99214457D01*
X135415880Y-99163000D01*
X135152120Y-99163000D01*
X134893428Y-99214457D01*
X134649746Y-99315393D01*
X134430437Y-99461931D01*
X134243931Y-99648437D01*
X134097393Y-99867746D01*
X133996457Y-100111428D01*
X133945000Y-100370120D01*
X133945000Y-100633880D01*
X133996457Y-100892572D01*
X134097393Y-101136254D01*
X134243931Y-101355563D01*
X134430437Y-101542069D01*
X134649746Y-101688607D01*
X134803086Y-101752122D01*
X134701236Y-101789276D01*
X134599423Y-101843695D01*
X134539477Y-102077872D01*
X135284000Y-102822395D01*
X135298143Y-102808253D01*
X135477748Y-102987858D01*
X135463605Y-103002000D01*
X136208128Y-103746523D01*
X136366429Y-103706000D01*
X140741928Y-103706000D01*
X140754188Y-103830482D01*
X140790498Y-103950180D01*
X140849463Y-104060494D01*
X140928815Y-104157185D01*
X141025506Y-104236537D01*
X141135820Y-104295502D01*
X141255518Y-104331812D01*
X141380000Y-104344072D01*
X141798250Y-104341000D01*
X141957000Y-104182250D01*
X141957000Y-103129000D01*
X142211000Y-103129000D01*
X142211000Y-104182250D01*
X142369750Y-104341000D01*
X142788000Y-104344072D01*
X142912482Y-104331812D01*
X143032180Y-104295502D01*
X143142494Y-104236537D01*
X143239185Y-104157185D01*
X143318537Y-104060494D01*
X143377502Y-103950180D01*
X143413812Y-103830482D01*
X143426072Y-103706000D01*
X143423000Y-103287750D01*
X143264250Y-103129000D01*
X142211000Y-103129000D01*
X141957000Y-103129000D01*
X140903750Y-103129000D01*
X140745000Y-103287750D01*
X140741928Y-103706000D01*
X136366429Y-103706000D01*
X136442305Y-103686577D01*
X136553602Y-103447449D01*
X136616109Y-103191203D01*
X136627425Y-102927686D01*
X136587114Y-102667024D01*
X136496724Y-102419236D01*
X136465062Y-102360000D01*
X140742383Y-102360000D01*
X140745000Y-102716250D01*
X140903750Y-102875000D01*
X141957000Y-102875000D01*
X141957000Y-102855000D01*
X142211000Y-102855000D01*
X142211000Y-102875000D01*
X143264250Y-102875000D01*
X143423000Y-102716250D01*
X143426072Y-102298000D01*
X143413812Y-102173518D01*
X143377502Y-102053820D01*
X143374534Y-102048267D01*
X147727813Y-97694990D01*
X149186324Y-97694990D01*
X149112157Y-97939485D01*
X149088500Y-98179679D01*
X149088501Y-100235079D01*
X148894533Y-100131401D01*
X148614610Y-100046487D01*
X148323500Y-100017815D01*
X148032389Y-100046487D01*
X147752466Y-100131401D01*
X147494486Y-100269294D01*
X147268366Y-100454866D01*
X147082794Y-100680987D01*
X146944901Y-100938967D01*
X146859987Y-101218890D01*
X146838500Y-101437051D01*
X146838501Y-104582950D01*
X146859988Y-104801111D01*
X146944902Y-105081034D01*
X147082795Y-105339014D01*
X147268367Y-105565134D01*
X147494487Y-105750706D01*
X147752467Y-105888599D01*
X148032390Y-105973513D01*
X148323500Y-106002185D01*
X148614611Y-105973513D01*
X148894534Y-105888599D01*
X149152514Y-105750706D01*
X149378634Y-105565134D01*
X149564206Y-105339014D01*
X149702099Y-105081034D01*
X149787013Y-104801111D01*
X149808500Y-104582950D01*
X149808500Y-101624185D01*
X149810749Y-101626031D01*
X150094786Y-101777852D01*
X150402985Y-101871343D01*
X150723500Y-101902911D01*
X151044016Y-101871343D01*
X151352215Y-101777852D01*
X151636252Y-101626031D01*
X151885214Y-101421714D01*
X152089531Y-101172752D01*
X152241352Y-100888715D01*
X152334843Y-100580516D01*
X152358500Y-100340322D01*
X152358500Y-98179678D01*
X152334843Y-97939484D01*
X152260677Y-97694990D01*
X156686324Y-97694990D01*
X156612157Y-97939485D01*
X156588500Y-98179679D01*
X156588501Y-100340322D01*
X156612158Y-100580516D01*
X156705649Y-100888715D01*
X156857470Y-101172752D01*
X157061787Y-101421714D01*
X157310749Y-101626031D01*
X157463500Y-101707678D01*
X157463500Y-102065698D01*
X154519199Y-105010000D01*
X154457061Y-105010000D01*
X154257102Y-105049774D01*
X154068744Y-105127795D01*
X153899226Y-105241063D01*
X153755063Y-105385226D01*
X153641795Y-105554744D01*
X153563774Y-105743102D01*
X153524000Y-105943061D01*
X153524000Y-106146939D01*
X153563774Y-106346898D01*
X153641795Y-106535256D01*
X153755063Y-106704774D01*
X153899226Y-106848937D01*
X154068744Y-106962205D01*
X154257102Y-107040226D01*
X154457061Y-107080000D01*
X154660939Y-107080000D01*
X154860898Y-107040226D01*
X155049256Y-106962205D01*
X155218774Y-106848937D01*
X155362937Y-106704774D01*
X155476205Y-106535256D01*
X155554226Y-106346898D01*
X155594000Y-106146939D01*
X155594000Y-106084801D01*
X156555865Y-105122936D01*
X156546614Y-105146959D01*
X156488500Y-105483000D01*
X156488500Y-106383000D01*
X158096500Y-106383000D01*
X158096500Y-104038875D01*
X158350500Y-104038875D01*
X158350500Y-106383000D01*
X159958500Y-106383000D01*
X159958500Y-105483000D01*
X159900386Y-105146959D01*
X159777830Y-104828712D01*
X159595542Y-104540489D01*
X159360527Y-104293367D01*
X159081817Y-104096843D01*
X158770122Y-103958469D01*
X158619622Y-103920825D01*
X158350500Y-104038875D01*
X158096500Y-104038875D01*
X157827378Y-103920825D01*
X157734827Y-103943974D01*
X158734504Y-102944298D01*
X158763501Y-102920501D01*
X158858474Y-102804776D01*
X158929046Y-102672747D01*
X158972503Y-102529486D01*
X158983500Y-102417833D01*
X158983500Y-102417832D01*
X158987177Y-102380500D01*
X158983500Y-102343167D01*
X158983500Y-101707679D01*
X159136252Y-101626031D01*
X159385214Y-101421714D01*
X159589531Y-101172752D01*
X159741352Y-100888715D01*
X159834843Y-100580516D01*
X159858500Y-100340322D01*
X159858500Y-98179678D01*
X159834843Y-97939484D01*
X159760677Y-97694990D01*
X163186324Y-97694990D01*
X163112157Y-97939485D01*
X163088500Y-98179679D01*
X163088501Y-100340322D01*
X163112158Y-100580516D01*
X163205649Y-100888715D01*
X163357470Y-101172752D01*
X163561787Y-101421714D01*
X163810749Y-101626031D01*
X163963501Y-101707678D01*
X163963501Y-103312697D01*
X159958500Y-107317699D01*
X159958500Y-106637000D01*
X158350500Y-106637000D01*
X158350500Y-106657000D01*
X158096500Y-106657000D01*
X158096500Y-106637000D01*
X156488500Y-106637000D01*
X156488500Y-107537000D01*
X156546614Y-107873041D01*
X156669170Y-108191288D01*
X156758796Y-108333000D01*
X145311002Y-108333000D01*
X145311002Y-108172156D01*
X145540890Y-108293476D01*
X145634953Y-108272563D01*
X145903426Y-108157291D01*
X146144252Y-107991857D01*
X146348176Y-107782619D01*
X146507361Y-107537618D01*
X146615690Y-107266269D01*
X146669000Y-106979000D01*
X146669000Y-106129000D01*
X145311000Y-106129000D01*
X145311000Y-106149000D01*
X145057000Y-106149000D01*
X145057000Y-106129000D01*
X143699000Y-106129000D01*
X143699000Y-106979000D01*
X143752310Y-107266269D01*
X143860639Y-107537618D01*
X144019824Y-107782619D01*
X144223748Y-107991857D01*
X144464574Y-108157291D01*
X144733047Y-108272563D01*
X144827110Y-108293476D01*
X145056998Y-108172156D01*
X145056998Y-108333000D01*
X139949997Y-108333000D01*
X140219618Y-108225361D01*
X140464619Y-108066176D01*
X140673857Y-107862252D01*
X140839291Y-107621426D01*
X140954563Y-107352953D01*
X140975476Y-107258890D01*
X140854155Y-107029000D01*
X138811000Y-107029000D01*
X138811000Y-107049000D01*
X138557000Y-107049000D01*
X138557000Y-107029000D01*
X136513845Y-107029000D01*
X136392524Y-107258890D01*
X136413437Y-107352953D01*
X136528709Y-107621426D01*
X136694143Y-107862252D01*
X136903381Y-108066176D01*
X137148382Y-108225361D01*
X137418003Y-108333000D01*
X132544803Y-108333000D01*
X132465485Y-108253682D01*
X132540890Y-108293476D01*
X132634953Y-108272563D01*
X132903426Y-108157291D01*
X133144252Y-107991857D01*
X133348176Y-107782619D01*
X133507361Y-107537618D01*
X133615690Y-107266269D01*
X133669000Y-106979000D01*
X133669000Y-106545110D01*
X136392524Y-106545110D01*
X136513845Y-106775000D01*
X138557000Y-106775000D01*
X138557000Y-106755000D01*
X138811000Y-106755000D01*
X138811000Y-106775000D01*
X140854155Y-106775000D01*
X140975476Y-106545110D01*
X140954563Y-106451047D01*
X140839291Y-106182574D01*
X140673857Y-105941748D01*
X140464619Y-105737824D01*
X140219618Y-105578639D01*
X139948269Y-105470310D01*
X139661000Y-105417000D01*
X137707000Y-105417000D01*
X137419731Y-105470310D01*
X137148382Y-105578639D01*
X136903381Y-105737824D01*
X136694143Y-105941748D01*
X136528709Y-106182574D01*
X136413437Y-106451047D01*
X136392524Y-106545110D01*
X133669000Y-106545110D01*
X133669000Y-106129000D01*
X132311000Y-106129000D01*
X132311000Y-106149000D01*
X132057000Y-106149000D01*
X132057000Y-106129000D01*
X130699000Y-106129000D01*
X130699000Y-106487198D01*
X129236802Y-105025000D01*
X130699000Y-105025000D01*
X130699000Y-105875000D01*
X132057000Y-105875000D01*
X132057000Y-103831845D01*
X132311000Y-103831845D01*
X132311000Y-105875000D01*
X133669000Y-105875000D01*
X133669000Y-105025000D01*
X143699000Y-105025000D01*
X143699000Y-105875000D01*
X145057000Y-105875000D01*
X145057000Y-103831845D01*
X145311000Y-103831845D01*
X145311000Y-105875000D01*
X146669000Y-105875000D01*
X146669000Y-105025000D01*
X146615690Y-104737731D01*
X146507361Y-104466382D01*
X146348176Y-104221381D01*
X146144252Y-104012143D01*
X145903426Y-103846709D01*
X145634953Y-103731437D01*
X145540890Y-103710524D01*
X145311000Y-103831845D01*
X145057000Y-103831845D01*
X144827110Y-103710524D01*
X144733047Y-103731437D01*
X144464574Y-103846709D01*
X144223748Y-104012143D01*
X144019824Y-104221381D01*
X143860639Y-104466382D01*
X143752310Y-104737731D01*
X143699000Y-105025000D01*
X133669000Y-105025000D01*
X133615690Y-104737731D01*
X133507361Y-104466382D01*
X133348176Y-104221381D01*
X133144252Y-104012143D01*
X133019039Y-103926128D01*
X134539477Y-103926128D01*
X134599423Y-104160305D01*
X134838551Y-104271602D01*
X135094797Y-104334109D01*
X135358314Y-104345425D01*
X135618976Y-104305114D01*
X135866764Y-104214724D01*
X135968577Y-104160305D01*
X136028523Y-103926128D01*
X135284000Y-103181605D01*
X134539477Y-103926128D01*
X133019039Y-103926128D01*
X132903426Y-103846709D01*
X132634953Y-103731437D01*
X132540890Y-103710524D01*
X132311000Y-103831845D01*
X132057000Y-103831845D01*
X131827110Y-103710524D01*
X131733047Y-103731437D01*
X131464574Y-103846709D01*
X131223748Y-104012143D01*
X131019824Y-104221381D01*
X130860639Y-104466382D01*
X130752310Y-104737731D01*
X130699000Y-105025000D01*
X129236802Y-105025000D01*
X127288116Y-103076314D01*
X133940575Y-103076314D01*
X133980886Y-103336976D01*
X134071276Y-103584764D01*
X134125695Y-103686577D01*
X134359872Y-103746523D01*
X135104395Y-103002000D01*
X134359872Y-102257477D01*
X134125695Y-102317423D01*
X134014398Y-102556551D01*
X133951891Y-102812797D01*
X133940575Y-103076314D01*
X127288116Y-103076314D01*
X126736826Y-102525025D01*
X126741902Y-102508291D01*
X126768720Y-102236000D01*
X126741902Y-101963709D01*
X126662477Y-101701881D01*
X126533499Y-101460580D01*
X126359923Y-101249077D01*
X126148420Y-101075501D01*
X125907119Y-100946523D01*
X125645291Y-100867098D01*
X125441230Y-100847000D01*
X123796770Y-100847000D01*
X123592709Y-100867098D01*
X123330881Y-100946523D01*
X123089580Y-101075501D01*
X122878077Y-101249077D01*
X122704501Y-101460580D01*
X122575523Y-101701881D01*
X122496098Y-101963709D01*
X122469280Y-102236000D01*
X122496098Y-102508291D01*
X122575523Y-102770119D01*
X122704501Y-103011420D01*
X122878077Y-103222923D01*
X123089580Y-103396499D01*
X123330881Y-103525477D01*
X123592709Y-103604902D01*
X123796770Y-103625000D01*
X125441230Y-103625000D01*
X125645291Y-103604902D01*
X125662025Y-103599826D01*
X131666205Y-109604008D01*
X131689999Y-109633001D01*
X131718992Y-109656795D01*
X131718996Y-109656799D01*
X131725334Y-109662000D01*
X131805724Y-109727974D01*
X131937753Y-109798546D01*
X132081014Y-109842003D01*
X132192667Y-109853000D01*
X132192676Y-109853000D01*
X132229999Y-109856676D01*
X132267322Y-109853000D01*
X159220678Y-109853000D01*
X159258000Y-109856676D01*
X159295322Y-109853000D01*
X159295333Y-109853000D01*
X159406986Y-109842003D01*
X159550247Y-109798546D01*
X159682276Y-109727974D01*
X159798001Y-109633001D01*
X159821804Y-109603997D01*
X162788801Y-106637000D01*
X170488500Y-106637000D01*
X170488500Y-107537000D01*
X170546614Y-107873041D01*
X170669170Y-108191288D01*
X170851458Y-108479511D01*
X171086473Y-108726633D01*
X171365183Y-108923157D01*
X171676878Y-109061531D01*
X171827378Y-109099175D01*
X172096500Y-108981125D01*
X172096500Y-106637000D01*
X172350500Y-106637000D01*
X172350500Y-108981125D01*
X172619622Y-109099175D01*
X172770122Y-109061531D01*
X173081817Y-108923157D01*
X173360527Y-108726633D01*
X173595542Y-108479511D01*
X173777830Y-108191288D01*
X173900386Y-107873041D01*
X173958500Y-107537000D01*
X173958500Y-106637000D01*
X184488500Y-106637000D01*
X184488500Y-107537000D01*
X184546614Y-107873041D01*
X184669170Y-108191288D01*
X184851458Y-108479511D01*
X185086473Y-108726633D01*
X185365183Y-108923157D01*
X185676878Y-109061531D01*
X185827378Y-109099175D01*
X186096500Y-108981125D01*
X186096500Y-106637000D01*
X186350500Y-106637000D01*
X186350500Y-108981125D01*
X186619622Y-109099175D01*
X186770122Y-109061531D01*
X187081817Y-108923157D01*
X187360527Y-108726633D01*
X187595542Y-108479511D01*
X187777830Y-108191288D01*
X187900386Y-107873041D01*
X187958500Y-107537000D01*
X187958500Y-106637000D01*
X186350500Y-106637000D01*
X186096500Y-106637000D01*
X184488500Y-106637000D01*
X173958500Y-106637000D01*
X172350500Y-106637000D01*
X172096500Y-106637000D01*
X170488500Y-106637000D01*
X162788801Y-106637000D01*
X163942801Y-105483000D01*
X170488500Y-105483000D01*
X170488500Y-106383000D01*
X172096500Y-106383000D01*
X172096500Y-104038875D01*
X172350500Y-104038875D01*
X172350500Y-106383000D01*
X173958500Y-106383000D01*
X173958500Y-105483000D01*
X184488500Y-105483000D01*
X184488500Y-106383000D01*
X186096500Y-106383000D01*
X186096500Y-104038875D01*
X185827378Y-103920825D01*
X185676878Y-103958469D01*
X185365183Y-104096843D01*
X185086473Y-104293367D01*
X184851458Y-104540489D01*
X184669170Y-104828712D01*
X184546614Y-105146959D01*
X184488500Y-105483000D01*
X173958500Y-105483000D01*
X173900386Y-105146959D01*
X173777830Y-104828712D01*
X173595542Y-104540489D01*
X173360527Y-104293367D01*
X173081817Y-104096843D01*
X172770122Y-103958469D01*
X172619622Y-103920825D01*
X172350500Y-104038875D01*
X172096500Y-104038875D01*
X171827378Y-103920825D01*
X171676878Y-103958469D01*
X171365183Y-104096843D01*
X171086473Y-104293367D01*
X170851458Y-104540489D01*
X170669170Y-104828712D01*
X170546614Y-105146959D01*
X170488500Y-105483000D01*
X163942801Y-105483000D01*
X165234503Y-104191299D01*
X165263501Y-104167501D01*
X165358474Y-104051776D01*
X165429046Y-103919747D01*
X165472503Y-103776486D01*
X165483500Y-103664833D01*
X165483500Y-103664824D01*
X165487176Y-103627501D01*
X165483500Y-103590178D01*
X165483500Y-101707679D01*
X165636252Y-101626031D01*
X165885214Y-101421714D01*
X166089531Y-101172752D01*
X166241352Y-100888715D01*
X166334843Y-100580516D01*
X166358500Y-100340322D01*
X166358500Y-98179678D01*
X166334843Y-97939484D01*
X166260677Y-97694990D01*
X170686324Y-97694990D01*
X170612157Y-97939485D01*
X170588500Y-98179679D01*
X170588501Y-100340322D01*
X170612158Y-100580516D01*
X170705649Y-100888715D01*
X170857470Y-101172752D01*
X171061787Y-101421714D01*
X171310749Y-101626031D01*
X171594786Y-101777852D01*
X171902985Y-101871343D01*
X172223500Y-101902911D01*
X172544016Y-101871343D01*
X172852215Y-101777852D01*
X173136252Y-101626031D01*
X173385214Y-101421714D01*
X173589531Y-101172752D01*
X173741352Y-100888715D01*
X173834843Y-100580516D01*
X173858500Y-100340322D01*
X173858500Y-98179678D01*
X173834843Y-97939484D01*
X173760677Y-97694990D01*
X177186324Y-97694990D01*
X177112157Y-97939485D01*
X177088500Y-98179679D01*
X177088501Y-100340322D01*
X177112158Y-100580516D01*
X177205649Y-100888715D01*
X177357470Y-101172752D01*
X177561787Y-101421714D01*
X177810749Y-101626031D01*
X178079511Y-101769688D01*
X177359455Y-102489744D01*
X177316774Y-102447063D01*
X177147256Y-102333795D01*
X176958898Y-102255774D01*
X176758939Y-102216000D01*
X176555061Y-102216000D01*
X176355102Y-102255774D01*
X176166744Y-102333795D01*
X175997226Y-102447063D01*
X175853063Y-102591226D01*
X175739795Y-102760744D01*
X175661774Y-102949102D01*
X175622000Y-103149061D01*
X175622000Y-103352939D01*
X175661774Y-103552898D01*
X175739795Y-103741256D01*
X175853063Y-103910774D01*
X175997226Y-104054937D01*
X176166744Y-104168205D01*
X176355102Y-104246226D01*
X176555061Y-104286000D01*
X176758939Y-104286000D01*
X176958898Y-104246226D01*
X177147256Y-104168205D01*
X177316774Y-104054937D01*
X177360711Y-104011000D01*
X177635678Y-104011000D01*
X177673000Y-104014676D01*
X177710322Y-104011000D01*
X177710333Y-104011000D01*
X177821986Y-104000003D01*
X177965247Y-103956546D01*
X178097276Y-103885974D01*
X178213001Y-103791001D01*
X178236804Y-103761997D01*
X186371388Y-95627413D01*
X186839192Y-95627413D01*
X186934956Y-95891814D01*
X187224571Y-96032704D01*
X187536108Y-96114384D01*
X187857595Y-96133718D01*
X188176675Y-96089961D01*
X188481088Y-95984795D01*
X188655044Y-95891814D01*
X188750808Y-95627413D01*
X187795000Y-94671605D01*
X186839192Y-95627413D01*
X186371388Y-95627413D01*
X186579868Y-95418934D01*
X186659587Y-95447808D01*
X187615395Y-94492000D01*
X187601253Y-94477858D01*
X187780858Y-94298253D01*
X187795000Y-94312395D01*
X188562492Y-93544903D01*
X188677886Y-93467799D01*
X188870799Y-93274886D01*
X189022371Y-93048043D01*
X189126775Y-92795989D01*
X189180000Y-92528411D01*
X189180000Y-92255589D01*
X189126775Y-91988011D01*
X189022371Y-91735957D01*
X188870799Y-91509114D01*
X188677886Y-91316201D01*
X188451043Y-91164629D01*
X188198989Y-91060225D01*
X187931411Y-91007000D01*
X187658589Y-91007000D01*
X187391011Y-91060225D01*
X187138957Y-91164629D01*
X186912114Y-91316201D01*
X186719201Y-91509114D01*
X186567629Y-91735957D01*
X186463225Y-91988011D01*
X186410000Y-92255589D01*
X186410000Y-92528411D01*
X186438833Y-92673365D01*
X186069800Y-93042399D01*
X185910256Y-92935795D01*
X185721898Y-92857774D01*
X185521939Y-92818000D01*
X185318061Y-92818000D01*
X185118102Y-92857774D01*
X184929744Y-92935795D01*
X184760226Y-93049063D01*
X184616063Y-93193226D01*
X184502795Y-93362744D01*
X184424774Y-93551102D01*
X184385000Y-93751061D01*
X184385000Y-93813198D01*
X182023209Y-96174990D01*
X181086811Y-96174990D01*
X187513635Y-89748167D01*
X187658589Y-89777000D01*
X187931411Y-89777000D01*
X188198989Y-89723775D01*
X188451043Y-89619371D01*
X188677886Y-89467799D01*
X188870799Y-89274886D01*
X189022371Y-89048043D01*
X189126775Y-88795989D01*
X189180000Y-88528411D01*
X189180000Y-88255589D01*
X189126775Y-87988011D01*
X189022371Y-87735957D01*
X188870799Y-87509114D01*
X188753685Y-87392000D01*
X188870799Y-87274886D01*
X189022371Y-87048043D01*
X189126775Y-86795989D01*
X189180000Y-86528411D01*
X189180000Y-86255589D01*
X189126775Y-85988011D01*
X189022371Y-85735957D01*
X188870799Y-85509114D01*
X188753685Y-85392000D01*
X188870799Y-85274886D01*
X189022371Y-85048043D01*
X189126775Y-84795989D01*
X189180000Y-84528411D01*
X189180000Y-84255589D01*
X189126775Y-83988011D01*
X189022371Y-83735957D01*
X188870799Y-83509114D01*
X188677886Y-83316201D01*
X188562492Y-83239097D01*
X187795000Y-82471605D01*
X187027508Y-83239097D01*
X186912114Y-83316201D01*
X186719201Y-83509114D01*
X186637091Y-83632000D01*
X180464802Y-83632000D01*
X180359000Y-83526198D01*
X180359000Y-83464061D01*
X180319226Y-83264102D01*
X180241205Y-83075744D01*
X180127937Y-82906226D01*
X180023711Y-82802000D01*
X181318678Y-82802000D01*
X181356000Y-82805676D01*
X181393322Y-82802000D01*
X181393333Y-82802000D01*
X181504986Y-82791003D01*
X181648247Y-82747546D01*
X181780276Y-82676974D01*
X181896001Y-82582001D01*
X181919804Y-82552997D01*
X182118206Y-82354595D01*
X186153282Y-82354595D01*
X186197039Y-82673675D01*
X186302205Y-82978088D01*
X186395186Y-83152044D01*
X186659587Y-83247808D01*
X187615395Y-82292000D01*
X186659587Y-81336192D01*
X186395186Y-81431956D01*
X186254296Y-81721571D01*
X186172616Y-82033108D01*
X186153282Y-82354595D01*
X182118206Y-82354595D01*
X183316214Y-81156587D01*
X186839192Y-81156587D01*
X187795000Y-82112395D01*
X188750808Y-81156587D01*
X188655044Y-80892186D01*
X188365429Y-80751296D01*
X188053892Y-80669616D01*
X187732405Y-80650282D01*
X187413325Y-80694039D01*
X187108912Y-80799205D01*
X186934956Y-80892186D01*
X186839192Y-81156587D01*
X183316214Y-81156587D01*
X187759183Y-76713619D01*
X187788181Y-76689821D01*
X187883154Y-76574096D01*
X187953726Y-76442067D01*
X187997183Y-76298806D01*
X188008180Y-76187153D01*
X188008180Y-76187143D01*
X188011856Y-76149820D01*
X188008180Y-76112497D01*
X188008180Y-63987087D01*
X188122662Y-63975812D01*
X188242360Y-63939502D01*
X188352674Y-63880537D01*
X188449365Y-63801185D01*
X188528717Y-63704494D01*
X188587682Y-63594180D01*
X188623992Y-63474482D01*
X188636252Y-63350000D01*
X188636252Y-60604000D01*
X189294000Y-60604000D01*
X189294001Y-76167572D01*
X189294001Y-76167572D01*
G37*
X189294001Y-76167572D02*
X189294000Y-76167582D01*
X189294000Y-81623873D01*
X189287795Y-81605912D01*
X189194814Y-81431956D01*
X188930413Y-81336192D01*
X187974605Y-82292000D01*
X188930413Y-83247808D01*
X189194814Y-83152044D01*
X189294000Y-82948156D01*
X189294000Y-93823874D01*
X189287795Y-93805912D01*
X189194814Y-93631956D01*
X188930413Y-93536192D01*
X187974605Y-94492000D01*
X188930413Y-95447808D01*
X189194814Y-95352044D01*
X189294001Y-95148155D01*
X189294001Y-100184568D01*
X189194533Y-100131401D01*
X188914610Y-100046487D01*
X188623500Y-100017815D01*
X188332389Y-100046487D01*
X188052466Y-100131401D01*
X187858500Y-100235078D01*
X187858500Y-98179678D01*
X187834843Y-97939484D01*
X187741352Y-97631285D01*
X187589531Y-97347248D01*
X187385214Y-97098286D01*
X187136251Y-96893969D01*
X186852214Y-96742148D01*
X186544015Y-96648657D01*
X186223500Y-96617089D01*
X185902984Y-96648657D01*
X185594785Y-96742148D01*
X185310748Y-96893969D01*
X185061786Y-97098286D01*
X184857469Y-97347249D01*
X184705648Y-97631286D01*
X184612157Y-97939485D01*
X184588500Y-98179679D01*
X184588501Y-100340322D01*
X184612158Y-100580516D01*
X184705649Y-100888715D01*
X184857470Y-101172752D01*
X184933637Y-101265562D01*
X184364199Y-101835000D01*
X184302061Y-101835000D01*
X184102102Y-101874774D01*
X183913744Y-101952795D01*
X183744226Y-102066063D01*
X183600063Y-102210226D01*
X183486795Y-102379744D01*
X183408774Y-102568102D01*
X183369000Y-102768061D01*
X183369000Y-102971939D01*
X183408774Y-103171898D01*
X183486795Y-103360256D01*
X183600063Y-103529774D01*
X183744226Y-103673937D01*
X183913744Y-103787205D01*
X184102102Y-103865226D01*
X184302061Y-103905000D01*
X184505939Y-103905000D01*
X184705898Y-103865226D01*
X184894256Y-103787205D01*
X185063774Y-103673937D01*
X185207937Y-103529774D01*
X185321205Y-103360256D01*
X185399226Y-103171898D01*
X185439000Y-102971939D01*
X185439000Y-102909801D01*
X186470187Y-101878614D01*
X186544016Y-101871343D01*
X186852215Y-101777852D01*
X187136252Y-101626031D01*
X187138500Y-101624186D01*
X187138501Y-104136812D01*
X187081817Y-104096843D01*
X186770122Y-103958469D01*
X186619622Y-103920825D01*
X186350500Y-104038875D01*
X186350500Y-106383000D01*
X187958500Y-106383000D01*
X187958500Y-105838373D01*
X188052467Y-105888599D01*
X188332390Y-105973513D01*
X188623500Y-106002185D01*
X188914611Y-105973513D01*
X189194534Y-105888599D01*
X189294001Y-105835433D01*
X189294001Y-111100000D01*
X128464218Y-111100000D01*
X128598469Y-110902091D01*
X128704870Y-110650215D01*
X128719286Y-110577814D01*
X128596677Y-110363000D01*
X126746000Y-110363000D01*
X126746000Y-110383000D01*
X126492000Y-110383000D01*
X126492000Y-110363000D01*
X124641323Y-110363000D01*
X124518714Y-110577814D01*
X124533130Y-110650215D01*
X124639531Y-110902091D01*
X124773782Y-111100000D01*
X90614000Y-111100000D01*
X90614000Y-108164499D01*
X92027606Y-108164499D01*
X92243728Y-108531258D01*
X92703605Y-108771938D01*
X93201598Y-108918275D01*
X93718571Y-108964648D01*
X94234659Y-108909273D01*
X94730026Y-108754279D01*
X95147272Y-108531258D01*
X95363394Y-108164499D01*
X93695500Y-106496605D01*
X92027606Y-108164499D01*
X90614000Y-108164499D01*
X90614000Y-106340071D01*
X91047852Y-106340071D01*
X91103227Y-106856159D01*
X91258221Y-107351526D01*
X91481242Y-107768772D01*
X91848001Y-107984894D01*
X93515895Y-106317000D01*
X91848001Y-104649106D01*
X91481242Y-104865228D01*
X91240562Y-105325105D01*
X91094225Y-105823098D01*
X91047852Y-106340071D01*
X90614000Y-106340071D01*
X90614000Y-102864801D01*
X92019200Y-104270002D01*
X92042999Y-104299001D01*
X92100345Y-104346063D01*
X92027606Y-104469501D01*
X93695500Y-106137395D01*
X93709643Y-106123253D01*
X93889248Y-106302858D01*
X93875105Y-106317000D01*
X95542999Y-107984894D01*
X95909758Y-107768772D01*
X96150438Y-107308895D01*
X96296775Y-106810902D01*
X96343148Y-106293929D01*
X96314304Y-106025105D01*
X100401201Y-110112003D01*
X100424999Y-110141001D01*
X100540724Y-110235974D01*
X100672753Y-110306546D01*
X100816014Y-110350003D01*
X100927667Y-110361000D01*
X100927675Y-110361000D01*
X100965000Y-110364676D01*
X101002325Y-110361000D01*
X104519178Y-110361000D01*
X104556500Y-110364676D01*
X104593822Y-110361000D01*
X104593833Y-110361000D01*
X104705486Y-110350003D01*
X104848747Y-110306546D01*
X104980776Y-110235974D01*
X105096501Y-110141001D01*
X105120303Y-110111998D01*
X105606614Y-109625688D01*
X105789165Y-109662000D01*
X106071835Y-109662000D01*
X106349074Y-109606853D01*
X106610227Y-109498680D01*
X106845259Y-109341637D01*
X107045137Y-109141759D01*
X107075500Y-109096317D01*
X107105863Y-109141759D01*
X107305741Y-109341637D01*
X107540773Y-109498680D01*
X107801926Y-109606853D01*
X108079165Y-109662000D01*
X108361835Y-109662000D01*
X108639074Y-109606853D01*
X108900227Y-109498680D01*
X109135259Y-109341637D01*
X109335137Y-109141759D01*
X109365500Y-109096317D01*
X109395863Y-109141759D01*
X109595741Y-109341637D01*
X109830773Y-109498680D01*
X110091926Y-109606853D01*
X110369165Y-109662000D01*
X110651835Y-109662000D01*
X110929074Y-109606853D01*
X111190227Y-109498680D01*
X111425259Y-109341637D01*
X111625137Y-109141759D01*
X111782180Y-108906727D01*
X111890353Y-108645574D01*
X111945500Y-108368335D01*
X111945500Y-108164499D01*
X117027606Y-108164499D01*
X117243728Y-108531258D01*
X117703605Y-108771938D01*
X118201598Y-108918275D01*
X118718571Y-108964648D01*
X119234659Y-108909273D01*
X119730026Y-108754279D01*
X120147272Y-108531258D01*
X120363394Y-108164499D01*
X118695500Y-106496605D01*
X117027606Y-108164499D01*
X111945500Y-108164499D01*
X111945500Y-108085665D01*
X111890353Y-107808426D01*
X111833547Y-107671284D01*
X112005630Y-107645787D01*
X112271792Y-107550603D01*
X112397014Y-107483671D01*
X112468597Y-107239702D01*
X111655500Y-106426605D01*
X111641358Y-106440748D01*
X111461753Y-106261143D01*
X111475895Y-106247000D01*
X111835105Y-106247000D01*
X112648202Y-107060097D01*
X112892171Y-106988514D01*
X113013071Y-106733004D01*
X113081800Y-106458816D01*
X113087653Y-106340071D01*
X116047852Y-106340071D01*
X116103227Y-106856159D01*
X116258221Y-107351526D01*
X116481242Y-107768772D01*
X116848001Y-107984894D01*
X118515895Y-106317000D01*
X118875105Y-106317000D01*
X120542999Y-107984894D01*
X120909758Y-107768772D01*
X120926909Y-107736000D01*
X122469280Y-107736000D01*
X122496098Y-108008291D01*
X122575523Y-108270119D01*
X122704501Y-108511420D01*
X122878077Y-108722923D01*
X123089580Y-108896499D01*
X123330881Y-109025477D01*
X123592709Y-109104902D01*
X123796770Y-109125000D01*
X125028205Y-109125000D01*
X124987716Y-109151646D01*
X124793026Y-109343631D01*
X124639531Y-109569909D01*
X124533130Y-109821785D01*
X124518714Y-109894186D01*
X124641323Y-110109000D01*
X126492000Y-110109000D01*
X126492000Y-110089000D01*
X126746000Y-110089000D01*
X126746000Y-110109000D01*
X128596677Y-110109000D01*
X128719286Y-109894186D01*
X128704870Y-109821785D01*
X128598469Y-109569909D01*
X128444974Y-109343631D01*
X128250284Y-109151646D01*
X128021880Y-109001332D01*
X127768540Y-108898466D01*
X127500000Y-108847000D01*
X126208735Y-108847000D01*
X126359923Y-108722923D01*
X126533499Y-108511420D01*
X126662477Y-108270119D01*
X126741902Y-108008291D01*
X126768720Y-107736000D01*
X126741902Y-107463709D01*
X126662477Y-107201881D01*
X126533499Y-106960580D01*
X126359923Y-106749077D01*
X126148420Y-106575501D01*
X125907119Y-106446523D01*
X125645291Y-106367098D01*
X125441230Y-106347000D01*
X123796770Y-106347000D01*
X123592709Y-106367098D01*
X123330881Y-106446523D01*
X123089580Y-106575501D01*
X122878077Y-106749077D01*
X122704501Y-106960580D01*
X122575523Y-107201881D01*
X122496098Y-107463709D01*
X122469280Y-107736000D01*
X120926909Y-107736000D01*
X121150438Y-107308895D01*
X121296775Y-106810902D01*
X121343148Y-106293929D01*
X121287773Y-105777841D01*
X121132779Y-105282474D01*
X120909758Y-104865228D01*
X120542999Y-104649106D01*
X118875105Y-106317000D01*
X118515895Y-106317000D01*
X116848001Y-104649106D01*
X116481242Y-104865228D01*
X116240562Y-105325105D01*
X116094225Y-105823098D01*
X116047852Y-106340071D01*
X113087653Y-106340071D01*
X113095717Y-106176488D01*
X113054287Y-105896870D01*
X112959103Y-105630708D01*
X112892171Y-105505486D01*
X112648202Y-105433903D01*
X111835105Y-106247000D01*
X111475895Y-106247000D01*
X111461753Y-106232858D01*
X111641358Y-106053253D01*
X111655500Y-106067395D01*
X112468597Y-105254298D01*
X112397014Y-105010329D01*
X112141504Y-104889429D01*
X111948572Y-104841068D01*
X111948572Y-104469501D01*
X117027606Y-104469501D01*
X118695500Y-106137395D01*
X120363394Y-104469501D01*
X120147272Y-104102742D01*
X119687395Y-103862062D01*
X119189402Y-103715725D01*
X118672429Y-103669352D01*
X118156341Y-103724727D01*
X117660974Y-103879721D01*
X117243728Y-104102742D01*
X117027606Y-104469501D01*
X111948572Y-104469501D01*
X111948572Y-103467000D01*
X111936312Y-103342518D01*
X111900002Y-103222820D01*
X111841037Y-103112506D01*
X111761685Y-103015815D01*
X111664994Y-102936463D01*
X111554680Y-102877498D01*
X111434982Y-102841188D01*
X111310500Y-102828928D01*
X109710500Y-102828928D01*
X109586018Y-102841188D01*
X109466320Y-102877498D01*
X109356006Y-102936463D01*
X109259315Y-103015815D01*
X109179963Y-103112506D01*
X109150508Y-103167612D01*
X109135259Y-103152363D01*
X108900227Y-102995320D01*
X108639074Y-102887147D01*
X108361835Y-102832000D01*
X108079165Y-102832000D01*
X107801926Y-102887147D01*
X107540773Y-102995320D01*
X107305741Y-103152363D01*
X107105863Y-103352241D01*
X107075500Y-103397683D01*
X107045137Y-103352241D01*
X106845259Y-103152363D01*
X106610227Y-102995320D01*
X106349074Y-102887147D01*
X106071835Y-102832000D01*
X105789165Y-102832000D01*
X105511926Y-102887147D01*
X105250773Y-102995320D01*
X105015741Y-103152363D01*
X104815863Y-103352241D01*
X104785500Y-103397683D01*
X104755137Y-103352241D01*
X104555259Y-103152363D01*
X104320227Y-102995320D01*
X104059074Y-102887147D01*
X103781835Y-102832000D01*
X103499165Y-102832000D01*
X103221926Y-102887147D01*
X102960773Y-102995320D01*
X102725741Y-103152363D01*
X102525863Y-103352241D01*
X102439128Y-103482049D01*
X102343202Y-103453903D01*
X101530105Y-104267000D01*
X101544248Y-104281143D01*
X101364643Y-104460748D01*
X101350500Y-104446605D01*
X100537403Y-105259702D01*
X100608986Y-105503671D01*
X100864496Y-105624571D01*
X101138684Y-105693300D01*
X101169248Y-105694807D01*
X101137929Y-105760996D01*
X101069200Y-106035184D01*
X101055283Y-106317512D01*
X101096713Y-106597130D01*
X101169242Y-106799941D01*
X100931926Y-106847147D01*
X100670773Y-106955320D01*
X100435741Y-107112363D01*
X100235863Y-107312241D01*
X100078820Y-107547273D01*
X100051656Y-107612854D01*
X96776314Y-104337512D01*
X99910283Y-104337512D01*
X99951713Y-104617130D01*
X100046897Y-104883292D01*
X100113829Y-105008514D01*
X100357798Y-105080097D01*
X101170895Y-104267000D01*
X100357798Y-103453903D01*
X100113829Y-103525486D01*
X99992929Y-103780996D01*
X99924200Y-104055184D01*
X99910283Y-104337512D01*
X96776314Y-104337512D01*
X95713100Y-103274298D01*
X100537403Y-103274298D01*
X101350500Y-104087395D01*
X102163597Y-103274298D01*
X102092014Y-103030329D01*
X101836504Y-102909429D01*
X101562316Y-102840700D01*
X101279988Y-102826783D01*
X101000370Y-102868213D01*
X100734208Y-102963397D01*
X100608986Y-103030329D01*
X100537403Y-103274298D01*
X95713100Y-103274298D01*
X95686804Y-103248003D01*
X95663001Y-103218999D01*
X95547276Y-103124026D01*
X95415247Y-103053454D01*
X95271986Y-103009997D01*
X95160333Y-102999000D01*
X95160322Y-102999000D01*
X95123000Y-102995324D01*
X95085678Y-102999000D01*
X92897802Y-102999000D01*
X92357565Y-102458764D01*
X92494675Y-102439961D01*
X92799088Y-102334795D01*
X92973044Y-102241814D01*
X93068808Y-101977413D01*
X92113000Y-101021605D01*
X92098858Y-101035748D01*
X91919253Y-100856143D01*
X91933395Y-100842000D01*
X92292605Y-100842000D01*
X93248413Y-101797808D01*
X93512814Y-101702044D01*
X93653704Y-101412429D01*
X93735384Y-101100892D01*
X93754718Y-100779405D01*
X93710961Y-100460325D01*
X93605795Y-100155912D01*
X93512814Y-99981956D01*
X93248413Y-99886192D01*
X92292605Y-100842000D01*
X91933395Y-100842000D01*
X91919253Y-100827858D01*
X92098858Y-100648253D01*
X92113000Y-100662395D01*
X92880492Y-99894903D01*
X92995886Y-99817799D01*
X93188799Y-99624886D01*
X93340371Y-99398043D01*
X93444775Y-99145989D01*
X93498000Y-98878411D01*
X93498000Y-98605589D01*
X93444775Y-98338011D01*
X93340371Y-98085957D01*
X93188799Y-97859114D01*
X93071685Y-97742000D01*
X93188799Y-97624886D01*
X93249527Y-97534000D01*
X98387678Y-97534000D01*
X98425000Y-97537676D01*
X98462322Y-97534000D01*
X98462333Y-97534000D01*
X98573986Y-97523003D01*
X98717247Y-97479546D01*
X98849276Y-97408974D01*
X98965001Y-97314001D01*
X98988804Y-97284997D01*
X99846929Y-96426872D01*
X107493000Y-96426872D01*
X107493000Y-96867128D01*
X107578890Y-97298925D01*
X107747369Y-97705669D01*
X107991962Y-98071729D01*
X108303271Y-98383038D01*
X108669331Y-98627631D01*
X109076075Y-98796110D01*
X109507872Y-98882000D01*
X109948128Y-98882000D01*
X110379925Y-98796110D01*
X110786669Y-98627631D01*
X111152729Y-98383038D01*
X111464038Y-98071729D01*
X111708631Y-97705669D01*
X111877110Y-97298925D01*
X111963000Y-96867128D01*
X111963000Y-96426872D01*
X111877110Y-95995075D01*
X111708631Y-95588331D01*
X111464038Y-95222271D01*
X111152729Y-94910962D01*
X110786669Y-94666369D01*
X110379925Y-94497890D01*
X109948128Y-94412000D01*
X109507872Y-94412000D01*
X109076075Y-94497890D01*
X108669331Y-94666369D01*
X108303271Y-94910962D01*
X107991962Y-95222271D01*
X107747369Y-95588331D01*
X107578890Y-95995075D01*
X107493000Y-96426872D01*
X99846929Y-96426872D01*
X104164929Y-92108872D01*
X159944000Y-92108872D01*
X159944000Y-92549128D01*
X160029890Y-92980925D01*
X160198369Y-93387669D01*
X160442962Y-93753729D01*
X160754271Y-94065038D01*
X161120331Y-94309631D01*
X161527075Y-94478110D01*
X161958872Y-94564000D01*
X162399128Y-94564000D01*
X162830925Y-94478110D01*
X163237669Y-94309631D01*
X163603729Y-94065038D01*
X163915038Y-93753729D01*
X164159631Y-93387669D01*
X164328110Y-92980925D01*
X164414000Y-92549128D01*
X164414000Y-92108872D01*
X164328110Y-91677075D01*
X164159631Y-91270331D01*
X163915038Y-90904271D01*
X163603729Y-90592962D01*
X163237669Y-90348369D01*
X162830925Y-90179890D01*
X162399128Y-90094000D01*
X161958872Y-90094000D01*
X161527075Y-90179890D01*
X161120331Y-90348369D01*
X160754271Y-90592962D01*
X160442962Y-90904271D01*
X160198369Y-91270331D01*
X160029890Y-91677075D01*
X159944000Y-92108872D01*
X104164929Y-92108872D01*
X113450803Y-82823000D01*
X113512939Y-82823000D01*
X113712898Y-82783226D01*
X113901256Y-82705205D01*
X114070774Y-82591937D01*
X114214937Y-82447774D01*
X114328205Y-82278256D01*
X114406226Y-82089898D01*
X114446000Y-81889939D01*
X114446000Y-81686061D01*
X114406226Y-81486102D01*
X114328205Y-81297744D01*
X114214937Y-81128226D01*
X114070774Y-80984063D01*
X113940475Y-80897000D01*
X133488644Y-80897000D01*
X133458000Y-81051061D01*
X133458000Y-81254939D01*
X133497774Y-81454898D01*
X133575795Y-81643256D01*
X133689063Y-81812774D01*
X133833226Y-81956937D01*
X134002744Y-82070205D01*
X134191102Y-82148226D01*
X134391061Y-82188000D01*
X134453199Y-82188000D01*
X139918200Y-87653002D01*
X139941998Y-87682000D01*
X140037044Y-87760002D01*
X140057723Y-87776973D01*
X140189752Y-87847545D01*
X140333013Y-87891002D01*
X140481999Y-87905676D01*
X140519332Y-87901999D01*
X186498852Y-87901999D01*
X186463225Y-87988011D01*
X186410000Y-88255589D01*
X186410000Y-88528411D01*
X186438833Y-88673365D01*
X180996896Y-94115302D01*
X180889937Y-93955226D01*
X180745774Y-93811063D01*
X180576256Y-93697795D01*
X180387898Y-93619774D01*
X180187939Y-93580000D01*
X180125802Y-93580000D01*
X175188804Y-88643003D01*
X175165001Y-88613999D01*
X175049276Y-88519026D01*
X174917247Y-88448454D01*
X174773986Y-88404997D01*
X174662333Y-88394000D01*
X174662322Y-88394000D01*
X174625000Y-88390324D01*
X174587678Y-88394000D01*
X171010711Y-88394000D01*
X170966774Y-88350063D01*
X170797256Y-88236795D01*
X170608898Y-88158774D01*
X170408939Y-88119000D01*
X170205061Y-88119000D01*
X170005102Y-88158774D01*
X169816744Y-88236795D01*
X169647226Y-88350063D01*
X169503063Y-88494226D01*
X169389795Y-88663744D01*
X169311774Y-88852102D01*
X169272000Y-89052061D01*
X169272000Y-89255939D01*
X169311774Y-89455898D01*
X169389795Y-89644256D01*
X169503063Y-89813774D01*
X169647226Y-89957937D01*
X169816744Y-90071205D01*
X170005102Y-90149226D01*
X170205061Y-90189000D01*
X170408939Y-90189000D01*
X170608898Y-90149226D01*
X170797256Y-90071205D01*
X170966774Y-89957937D01*
X171010711Y-89914000D01*
X174310199Y-89914000D01*
X179051000Y-94654802D01*
X179051000Y-94716939D01*
X179090774Y-94916898D01*
X179168795Y-95105256D01*
X179282063Y-95274774D01*
X179426226Y-95418937D01*
X179586303Y-95525896D01*
X179516197Y-95596002D01*
X175660000Y-95596002D01*
X175660000Y-95529059D01*
X175620226Y-95329100D01*
X175542205Y-95140742D01*
X175512000Y-95095537D01*
X175512000Y-93667711D01*
X175555937Y-93623774D01*
X175669205Y-93454256D01*
X175747226Y-93265898D01*
X175787000Y-93065939D01*
X175787000Y-92862061D01*
X175747226Y-92662102D01*
X175669205Y-92473744D01*
X175555937Y-92304226D01*
X175411774Y-92160063D01*
X175242256Y-92046795D01*
X175053898Y-91968774D01*
X174853939Y-91929000D01*
X174650061Y-91929000D01*
X174450102Y-91968774D01*
X174261744Y-92046795D01*
X174117000Y-92143510D01*
X173972256Y-92046795D01*
X173783898Y-91968774D01*
X173583939Y-91929000D01*
X173380061Y-91929000D01*
X173180102Y-91968774D01*
X172991744Y-92046795D01*
X172822226Y-92160063D01*
X172678063Y-92304226D01*
X172564795Y-92473744D01*
X172486774Y-92662102D01*
X172447000Y-92862061D01*
X172447000Y-93065939D01*
X172486774Y-93265898D01*
X172564795Y-93454256D01*
X172678063Y-93623774D01*
X172722000Y-93667711D01*
X172722001Y-93756173D01*
X172695226Y-93774063D01*
X172551063Y-93918226D01*
X172437795Y-94087744D01*
X172359774Y-94276102D01*
X172320000Y-94476061D01*
X172320000Y-94679939D01*
X172359774Y-94879898D01*
X172437795Y-95068256D01*
X172551063Y-95237774D01*
X172565289Y-95252000D01*
X146611323Y-95252000D01*
X146574000Y-95248324D01*
X146536677Y-95252000D01*
X146536667Y-95252000D01*
X146425014Y-95262997D01*
X146283912Y-95305799D01*
X146281753Y-95306454D01*
X146149723Y-95377026D01*
X146098655Y-95418937D01*
X146033999Y-95471999D01*
X146010201Y-95500997D01*
X142326246Y-99184953D01*
X142215880Y-99163000D01*
X141952120Y-99163000D01*
X141693428Y-99214457D01*
X141449746Y-99315393D01*
X141230437Y-99461931D01*
X141043931Y-99648437D01*
X140897393Y-99867746D01*
X140796457Y-100111428D01*
X140745000Y-100370120D01*
X140745000Y-100633880D01*
X140786000Y-100840000D01*
X136696801Y-100840000D01*
X136601047Y-100744246D01*
X136623000Y-100633880D01*
X136623000Y-100370120D01*
X136571543Y-100111428D01*
X136470607Y-99867746D01*
X136324069Y-99648437D01*
X136137563Y-99461931D01*
X135918254Y-99315393D01*
X135674572Y-99214457D01*
X135415880Y-99163000D01*
X135152120Y-99163000D01*
X134893428Y-99214457D01*
X134649746Y-99315393D01*
X134430437Y-99461931D01*
X134243931Y-99648437D01*
X134097393Y-99867746D01*
X133996457Y-100111428D01*
X133945000Y-100370120D01*
X133945000Y-100633880D01*
X133996457Y-100892572D01*
X134097393Y-101136254D01*
X134243931Y-101355563D01*
X134430437Y-101542069D01*
X134649746Y-101688607D01*
X134803086Y-101752122D01*
X134701236Y-101789276D01*
X134599423Y-101843695D01*
X134539477Y-102077872D01*
X135284000Y-102822395D01*
X135298143Y-102808253D01*
X135477748Y-102987858D01*
X135463605Y-103002000D01*
X136208128Y-103746523D01*
X136366429Y-103706000D01*
X140741928Y-103706000D01*
X140754188Y-103830482D01*
X140790498Y-103950180D01*
X140849463Y-104060494D01*
X140928815Y-104157185D01*
X141025506Y-104236537D01*
X141135820Y-104295502D01*
X141255518Y-104331812D01*
X141380000Y-104344072D01*
X141798250Y-104341000D01*
X141957000Y-104182250D01*
X141957000Y-103129000D01*
X142211000Y-103129000D01*
X142211000Y-104182250D01*
X142369750Y-104341000D01*
X142788000Y-104344072D01*
X142912482Y-104331812D01*
X143032180Y-104295502D01*
X143142494Y-104236537D01*
X143239185Y-104157185D01*
X143318537Y-104060494D01*
X143377502Y-103950180D01*
X143413812Y-103830482D01*
X143426072Y-103706000D01*
X143423000Y-103287750D01*
X143264250Y-103129000D01*
X142211000Y-103129000D01*
X141957000Y-103129000D01*
X140903750Y-103129000D01*
X140745000Y-103287750D01*
X140741928Y-103706000D01*
X136366429Y-103706000D01*
X136442305Y-103686577D01*
X136553602Y-103447449D01*
X136616109Y-103191203D01*
X136627425Y-102927686D01*
X136587114Y-102667024D01*
X136496724Y-102419236D01*
X136465062Y-102360000D01*
X140742383Y-102360000D01*
X140745000Y-102716250D01*
X140903750Y-102875000D01*
X141957000Y-102875000D01*
X141957000Y-102855000D01*
X142211000Y-102855000D01*
X142211000Y-102875000D01*
X143264250Y-102875000D01*
X143423000Y-102716250D01*
X143426072Y-102298000D01*
X143413812Y-102173518D01*
X143377502Y-102053820D01*
X143374534Y-102048267D01*
X147727813Y-97694990D01*
X149186324Y-97694990D01*
X149112157Y-97939485D01*
X149088500Y-98179679D01*
X149088501Y-100235079D01*
X148894533Y-100131401D01*
X148614610Y-100046487D01*
X148323500Y-100017815D01*
X148032389Y-100046487D01*
X147752466Y-100131401D01*
X147494486Y-100269294D01*
X147268366Y-100454866D01*
X147082794Y-100680987D01*
X146944901Y-100938967D01*
X146859987Y-101218890D01*
X146838500Y-101437051D01*
X146838501Y-104582950D01*
X146859988Y-104801111D01*
X146944902Y-105081034D01*
X147082795Y-105339014D01*
X147268367Y-105565134D01*
X147494487Y-105750706D01*
X147752467Y-105888599D01*
X148032390Y-105973513D01*
X148323500Y-106002185D01*
X148614611Y-105973513D01*
X148894534Y-105888599D01*
X149152514Y-105750706D01*
X149378634Y-105565134D01*
X149564206Y-105339014D01*
X149702099Y-105081034D01*
X149787013Y-104801111D01*
X149808500Y-104582950D01*
X149808500Y-101624185D01*
X149810749Y-101626031D01*
X150094786Y-101777852D01*
X150402985Y-101871343D01*
X150723500Y-101902911D01*
X151044016Y-101871343D01*
X151352215Y-101777852D01*
X151636252Y-101626031D01*
X151885214Y-101421714D01*
X152089531Y-101172752D01*
X152241352Y-100888715D01*
X152334843Y-100580516D01*
X152358500Y-100340322D01*
X152358500Y-98179678D01*
X152334843Y-97939484D01*
X152260677Y-97694990D01*
X156686324Y-97694990D01*
X156612157Y-97939485D01*
X156588500Y-98179679D01*
X156588501Y-100340322D01*
X156612158Y-100580516D01*
X156705649Y-100888715D01*
X156857470Y-101172752D01*
X157061787Y-101421714D01*
X157310749Y-101626031D01*
X157463500Y-101707678D01*
X157463500Y-102065698D01*
X154519199Y-105010000D01*
X154457061Y-105010000D01*
X154257102Y-105049774D01*
X154068744Y-105127795D01*
X153899226Y-105241063D01*
X153755063Y-105385226D01*
X153641795Y-105554744D01*
X153563774Y-105743102D01*
X153524000Y-105943061D01*
X153524000Y-106146939D01*
X153563774Y-106346898D01*
X153641795Y-106535256D01*
X153755063Y-106704774D01*
X153899226Y-106848937D01*
X154068744Y-106962205D01*
X154257102Y-107040226D01*
X154457061Y-107080000D01*
X154660939Y-107080000D01*
X154860898Y-107040226D01*
X155049256Y-106962205D01*
X155218774Y-106848937D01*
X155362937Y-106704774D01*
X155476205Y-106535256D01*
X155554226Y-106346898D01*
X155594000Y-106146939D01*
X155594000Y-106084801D01*
X156555865Y-105122936D01*
X156546614Y-105146959D01*
X156488500Y-105483000D01*
X156488500Y-106383000D01*
X158096500Y-106383000D01*
X158096500Y-104038875D01*
X158350500Y-104038875D01*
X158350500Y-106383000D01*
X159958500Y-106383000D01*
X159958500Y-105483000D01*
X159900386Y-105146959D01*
X159777830Y-104828712D01*
X159595542Y-104540489D01*
X159360527Y-104293367D01*
X159081817Y-104096843D01*
X158770122Y-103958469D01*
X158619622Y-103920825D01*
X158350500Y-104038875D01*
X158096500Y-104038875D01*
X157827378Y-103920825D01*
X157734827Y-103943974D01*
X158734504Y-102944298D01*
X158763501Y-102920501D01*
X158858474Y-102804776D01*
X158929046Y-102672747D01*
X158972503Y-102529486D01*
X158983500Y-102417833D01*
X158983500Y-102417832D01*
X158987177Y-102380500D01*
X158983500Y-102343167D01*
X158983500Y-101707679D01*
X159136252Y-101626031D01*
X159385214Y-101421714D01*
X159589531Y-101172752D01*
X159741352Y-100888715D01*
X159834843Y-100580516D01*
X159858500Y-100340322D01*
X159858500Y-98179678D01*
X159834843Y-97939484D01*
X159760677Y-97694990D01*
X163186324Y-97694990D01*
X163112157Y-97939485D01*
X163088500Y-98179679D01*
X163088501Y-100340322D01*
X163112158Y-100580516D01*
X163205649Y-100888715D01*
X163357470Y-101172752D01*
X163561787Y-101421714D01*
X163810749Y-101626031D01*
X163963501Y-101707678D01*
X163963501Y-103312697D01*
X159958500Y-107317699D01*
X159958500Y-106637000D01*
X158350500Y-106637000D01*
X158350500Y-106657000D01*
X158096500Y-106657000D01*
X158096500Y-106637000D01*
X156488500Y-106637000D01*
X156488500Y-107537000D01*
X156546614Y-107873041D01*
X156669170Y-108191288D01*
X156758796Y-108333000D01*
X145311002Y-108333000D01*
X145311002Y-108172156D01*
X145540890Y-108293476D01*
X145634953Y-108272563D01*
X145903426Y-108157291D01*
X146144252Y-107991857D01*
X146348176Y-107782619D01*
X146507361Y-107537618D01*
X146615690Y-107266269D01*
X146669000Y-106979000D01*
X146669000Y-106129000D01*
X145311000Y-106129000D01*
X145311000Y-106149000D01*
X145057000Y-106149000D01*
X145057000Y-106129000D01*
X143699000Y-106129000D01*
X143699000Y-106979000D01*
X143752310Y-107266269D01*
X143860639Y-107537618D01*
X144019824Y-107782619D01*
X144223748Y-107991857D01*
X144464574Y-108157291D01*
X144733047Y-108272563D01*
X144827110Y-108293476D01*
X145056998Y-108172156D01*
X145056998Y-108333000D01*
X139949997Y-108333000D01*
X140219618Y-108225361D01*
X140464619Y-108066176D01*
X140673857Y-107862252D01*
X140839291Y-107621426D01*
X140954563Y-107352953D01*
X140975476Y-107258890D01*
X140854155Y-107029000D01*
X138811000Y-107029000D01*
X138811000Y-107049000D01*
X138557000Y-107049000D01*
X138557000Y-107029000D01*
X136513845Y-107029000D01*
X136392524Y-107258890D01*
X136413437Y-107352953D01*
X136528709Y-107621426D01*
X136694143Y-107862252D01*
X136903381Y-108066176D01*
X137148382Y-108225361D01*
X137418003Y-108333000D01*
X132544803Y-108333000D01*
X132465485Y-108253682D01*
X132540890Y-108293476D01*
X132634953Y-108272563D01*
X132903426Y-108157291D01*
X133144252Y-107991857D01*
X133348176Y-107782619D01*
X133507361Y-107537618D01*
X133615690Y-107266269D01*
X133669000Y-106979000D01*
X133669000Y-106545110D01*
X136392524Y-106545110D01*
X136513845Y-106775000D01*
X138557000Y-106775000D01*
X138557000Y-106755000D01*
X138811000Y-106755000D01*
X138811000Y-106775000D01*
X140854155Y-106775000D01*
X140975476Y-106545110D01*
X140954563Y-106451047D01*
X140839291Y-106182574D01*
X140673857Y-105941748D01*
X140464619Y-105737824D01*
X140219618Y-105578639D01*
X139948269Y-105470310D01*
X139661000Y-105417000D01*
X137707000Y-105417000D01*
X137419731Y-105470310D01*
X137148382Y-105578639D01*
X136903381Y-105737824D01*
X136694143Y-105941748D01*
X136528709Y-106182574D01*
X136413437Y-106451047D01*
X136392524Y-106545110D01*
X133669000Y-106545110D01*
X133669000Y-106129000D01*
X132311000Y-106129000D01*
X132311000Y-106149000D01*
X132057000Y-106149000D01*
X132057000Y-106129000D01*
X130699000Y-106129000D01*
X130699000Y-106487198D01*
X129236802Y-105025000D01*
X130699000Y-105025000D01*
X130699000Y-105875000D01*
X132057000Y-105875000D01*
X132057000Y-103831845D01*
X132311000Y-103831845D01*
X132311000Y-105875000D01*
X133669000Y-105875000D01*
X133669000Y-105025000D01*
X143699000Y-105025000D01*
X143699000Y-105875000D01*
X145057000Y-105875000D01*
X145057000Y-103831845D01*
X145311000Y-103831845D01*
X145311000Y-105875000D01*
X146669000Y-105875000D01*
X146669000Y-105025000D01*
X146615690Y-104737731D01*
X146507361Y-104466382D01*
X146348176Y-104221381D01*
X146144252Y-104012143D01*
X145903426Y-103846709D01*
X145634953Y-103731437D01*
X145540890Y-103710524D01*
X145311000Y-103831845D01*
X145057000Y-103831845D01*
X144827110Y-103710524D01*
X144733047Y-103731437D01*
X144464574Y-103846709D01*
X144223748Y-104012143D01*
X144019824Y-104221381D01*
X143860639Y-104466382D01*
X143752310Y-104737731D01*
X143699000Y-105025000D01*
X133669000Y-105025000D01*
X133615690Y-104737731D01*
X133507361Y-104466382D01*
X133348176Y-104221381D01*
X133144252Y-104012143D01*
X133019039Y-103926128D01*
X134539477Y-103926128D01*
X134599423Y-104160305D01*
X134838551Y-104271602D01*
X135094797Y-104334109D01*
X135358314Y-104345425D01*
X135618976Y-104305114D01*
X135866764Y-104214724D01*
X135968577Y-104160305D01*
X136028523Y-103926128D01*
X135284000Y-103181605D01*
X134539477Y-103926128D01*
X133019039Y-103926128D01*
X132903426Y-103846709D01*
X132634953Y-103731437D01*
X132540890Y-103710524D01*
X132311000Y-103831845D01*
X132057000Y-103831845D01*
X131827110Y-103710524D01*
X131733047Y-103731437D01*
X131464574Y-103846709D01*
X131223748Y-104012143D01*
X131019824Y-104221381D01*
X130860639Y-104466382D01*
X130752310Y-104737731D01*
X130699000Y-105025000D01*
X129236802Y-105025000D01*
X127288116Y-103076314D01*
X133940575Y-103076314D01*
X133980886Y-103336976D01*
X134071276Y-103584764D01*
X134125695Y-103686577D01*
X134359872Y-103746523D01*
X135104395Y-103002000D01*
X134359872Y-102257477D01*
X134125695Y-102317423D01*
X134014398Y-102556551D01*
X133951891Y-102812797D01*
X133940575Y-103076314D01*
X127288116Y-103076314D01*
X126736826Y-102525025D01*
X126741902Y-102508291D01*
X126768720Y-102236000D01*
X126741902Y-101963709D01*
X126662477Y-101701881D01*
X126533499Y-101460580D01*
X126359923Y-101249077D01*
X126148420Y-101075501D01*
X125907119Y-100946523D01*
X125645291Y-100867098D01*
X125441230Y-100847000D01*
X123796770Y-100847000D01*
X123592709Y-100867098D01*
X123330881Y-100946523D01*
X123089580Y-101075501D01*
X122878077Y-101249077D01*
X122704501Y-101460580D01*
X122575523Y-101701881D01*
X122496098Y-101963709D01*
X122469280Y-102236000D01*
X122496098Y-102508291D01*
X122575523Y-102770119D01*
X122704501Y-103011420D01*
X122878077Y-103222923D01*
X123089580Y-103396499D01*
X123330881Y-103525477D01*
X123592709Y-103604902D01*
X123796770Y-103625000D01*
X125441230Y-103625000D01*
X125645291Y-103604902D01*
X125662025Y-103599826D01*
X131666205Y-109604008D01*
X131689999Y-109633001D01*
X131718992Y-109656795D01*
X131718996Y-109656799D01*
X131725334Y-109662000D01*
X131805724Y-109727974D01*
X131937753Y-109798546D01*
X132081014Y-109842003D01*
X132192667Y-109853000D01*
X132192676Y-109853000D01*
X132229999Y-109856676D01*
X132267322Y-109853000D01*
X159220678Y-109853000D01*
X159258000Y-109856676D01*
X159295322Y-109853000D01*
X159295333Y-109853000D01*
X159406986Y-109842003D01*
X159550247Y-109798546D01*
X159682276Y-109727974D01*
X159798001Y-109633001D01*
X159821804Y-109603997D01*
X162788801Y-106637000D01*
X170488500Y-106637000D01*
X170488500Y-107537000D01*
X170546614Y-107873041D01*
X170669170Y-108191288D01*
X170851458Y-108479511D01*
X171086473Y-108726633D01*
X171365183Y-108923157D01*
X171676878Y-109061531D01*
X171827378Y-109099175D01*
X172096500Y-108981125D01*
X172096500Y-106637000D01*
X172350500Y-106637000D01*
X172350500Y-108981125D01*
X172619622Y-109099175D01*
X172770122Y-109061531D01*
X173081817Y-108923157D01*
X173360527Y-108726633D01*
X173595542Y-108479511D01*
X173777830Y-108191288D01*
X173900386Y-107873041D01*
X173958500Y-107537000D01*
X173958500Y-106637000D01*
X184488500Y-106637000D01*
X184488500Y-107537000D01*
X184546614Y-107873041D01*
X184669170Y-108191288D01*
X184851458Y-108479511D01*
X185086473Y-108726633D01*
X185365183Y-108923157D01*
X185676878Y-109061531D01*
X185827378Y-109099175D01*
X186096500Y-108981125D01*
X186096500Y-106637000D01*
X186350500Y-106637000D01*
X186350500Y-108981125D01*
X186619622Y-109099175D01*
X186770122Y-109061531D01*
X187081817Y-108923157D01*
X187360527Y-108726633D01*
X187595542Y-108479511D01*
X187777830Y-108191288D01*
X187900386Y-107873041D01*
X187958500Y-107537000D01*
X187958500Y-106637000D01*
X186350500Y-106637000D01*
X186096500Y-106637000D01*
X184488500Y-106637000D01*
X173958500Y-106637000D01*
X172350500Y-106637000D01*
X172096500Y-106637000D01*
X170488500Y-106637000D01*
X162788801Y-106637000D01*
X163942801Y-105483000D01*
X170488500Y-105483000D01*
X170488500Y-106383000D01*
X172096500Y-106383000D01*
X172096500Y-104038875D01*
X172350500Y-104038875D01*
X172350500Y-106383000D01*
X173958500Y-106383000D01*
X173958500Y-105483000D01*
X184488500Y-105483000D01*
X184488500Y-106383000D01*
X186096500Y-106383000D01*
X186096500Y-104038875D01*
X185827378Y-103920825D01*
X185676878Y-103958469D01*
X185365183Y-104096843D01*
X185086473Y-104293367D01*
X184851458Y-104540489D01*
X184669170Y-104828712D01*
X184546614Y-105146959D01*
X184488500Y-105483000D01*
X173958500Y-105483000D01*
X173900386Y-105146959D01*
X173777830Y-104828712D01*
X173595542Y-104540489D01*
X173360527Y-104293367D01*
X173081817Y-104096843D01*
X172770122Y-103958469D01*
X172619622Y-103920825D01*
X172350500Y-104038875D01*
X172096500Y-104038875D01*
X171827378Y-103920825D01*
X171676878Y-103958469D01*
X171365183Y-104096843D01*
X171086473Y-104293367D01*
X170851458Y-104540489D01*
X170669170Y-104828712D01*
X170546614Y-105146959D01*
X170488500Y-105483000D01*
X163942801Y-105483000D01*
X165234503Y-104191299D01*
X165263501Y-104167501D01*
X165358474Y-104051776D01*
X165429046Y-103919747D01*
X165472503Y-103776486D01*
X165483500Y-103664833D01*
X165483500Y-103664824D01*
X165487176Y-103627501D01*
X165483500Y-103590178D01*
X165483500Y-101707679D01*
X165636252Y-101626031D01*
X165885214Y-101421714D01*
X166089531Y-101172752D01*
X166241352Y-100888715D01*
X166334843Y-100580516D01*
X166358500Y-100340322D01*
X166358500Y-98179678D01*
X166334843Y-97939484D01*
X166260677Y-97694990D01*
X170686324Y-97694990D01*
X170612157Y-97939485D01*
X170588500Y-98179679D01*
X170588501Y-100340322D01*
X170612158Y-100580516D01*
X170705649Y-100888715D01*
X170857470Y-101172752D01*
X171061787Y-101421714D01*
X171310749Y-101626031D01*
X171594786Y-101777852D01*
X171902985Y-101871343D01*
X172223500Y-101902911D01*
X172544016Y-101871343D01*
X172852215Y-101777852D01*
X173136252Y-101626031D01*
X173385214Y-101421714D01*
X173589531Y-101172752D01*
X173741352Y-100888715D01*
X173834843Y-100580516D01*
X173858500Y-100340322D01*
X173858500Y-98179678D01*
X173834843Y-97939484D01*
X173760677Y-97694990D01*
X177186324Y-97694990D01*
X177112157Y-97939485D01*
X177088500Y-98179679D01*
X177088501Y-100340322D01*
X177112158Y-100580516D01*
X177205649Y-100888715D01*
X177357470Y-101172752D01*
X177561787Y-101421714D01*
X177810749Y-101626031D01*
X178079511Y-101769688D01*
X177359455Y-102489744D01*
X177316774Y-102447063D01*
X177147256Y-102333795D01*
X176958898Y-102255774D01*
X176758939Y-102216000D01*
X176555061Y-102216000D01*
X176355102Y-102255774D01*
X176166744Y-102333795D01*
X175997226Y-102447063D01*
X175853063Y-102591226D01*
X175739795Y-102760744D01*
X175661774Y-102949102D01*
X175622000Y-103149061D01*
X175622000Y-103352939D01*
X175661774Y-103552898D01*
X175739795Y-103741256D01*
X175853063Y-103910774D01*
X175997226Y-104054937D01*
X176166744Y-104168205D01*
X176355102Y-104246226D01*
X176555061Y-104286000D01*
X176758939Y-104286000D01*
X176958898Y-104246226D01*
X177147256Y-104168205D01*
X177316774Y-104054937D01*
X177360711Y-104011000D01*
X177635678Y-104011000D01*
X177673000Y-104014676D01*
X177710322Y-104011000D01*
X177710333Y-104011000D01*
X177821986Y-104000003D01*
X177965247Y-103956546D01*
X178097276Y-103885974D01*
X178213001Y-103791001D01*
X178236804Y-103761997D01*
X186371388Y-95627413D01*
X186839192Y-95627413D01*
X186934956Y-95891814D01*
X187224571Y-96032704D01*
X187536108Y-96114384D01*
X187857595Y-96133718D01*
X188176675Y-96089961D01*
X188481088Y-95984795D01*
X188655044Y-95891814D01*
X188750808Y-95627413D01*
X187795000Y-94671605D01*
X186839192Y-95627413D01*
X186371388Y-95627413D01*
X186579868Y-95418934D01*
X186659587Y-95447808D01*
X187615395Y-94492000D01*
X187601253Y-94477858D01*
X187780858Y-94298253D01*
X187795000Y-94312395D01*
X188562492Y-93544903D01*
X188677886Y-93467799D01*
X188870799Y-93274886D01*
X189022371Y-93048043D01*
X189126775Y-92795989D01*
X189180000Y-92528411D01*
X189180000Y-92255589D01*
X189126775Y-91988011D01*
X189022371Y-91735957D01*
X188870799Y-91509114D01*
X188677886Y-91316201D01*
X188451043Y-91164629D01*
X188198989Y-91060225D01*
X187931411Y-91007000D01*
X187658589Y-91007000D01*
X187391011Y-91060225D01*
X187138957Y-91164629D01*
X186912114Y-91316201D01*
X186719201Y-91509114D01*
X186567629Y-91735957D01*
X186463225Y-91988011D01*
X186410000Y-92255589D01*
X186410000Y-92528411D01*
X186438833Y-92673365D01*
X186069800Y-93042399D01*
X185910256Y-92935795D01*
X185721898Y-92857774D01*
X185521939Y-92818000D01*
X185318061Y-92818000D01*
X185118102Y-92857774D01*
X184929744Y-92935795D01*
X184760226Y-93049063D01*
X184616063Y-93193226D01*
X184502795Y-93362744D01*
X184424774Y-93551102D01*
X184385000Y-93751061D01*
X184385000Y-93813198D01*
X182023209Y-96174990D01*
X181086811Y-96174990D01*
X187513635Y-89748167D01*
X187658589Y-89777000D01*
X187931411Y-89777000D01*
X188198989Y-89723775D01*
X188451043Y-89619371D01*
X188677886Y-89467799D01*
X188870799Y-89274886D01*
X189022371Y-89048043D01*
X189126775Y-88795989D01*
X189180000Y-88528411D01*
X189180000Y-88255589D01*
X189126775Y-87988011D01*
X189022371Y-87735957D01*
X188870799Y-87509114D01*
X188753685Y-87392000D01*
X188870799Y-87274886D01*
X189022371Y-87048043D01*
X189126775Y-86795989D01*
X189180000Y-86528411D01*
X189180000Y-86255589D01*
X189126775Y-85988011D01*
X189022371Y-85735957D01*
X188870799Y-85509114D01*
X188753685Y-85392000D01*
X188870799Y-85274886D01*
X189022371Y-85048043D01*
X189126775Y-84795989D01*
X189180000Y-84528411D01*
X189180000Y-84255589D01*
X189126775Y-83988011D01*
X189022371Y-83735957D01*
X188870799Y-83509114D01*
X188677886Y-83316201D01*
X188562492Y-83239097D01*
X187795000Y-82471605D01*
X187027508Y-83239097D01*
X186912114Y-83316201D01*
X186719201Y-83509114D01*
X186637091Y-83632000D01*
X180464802Y-83632000D01*
X180359000Y-83526198D01*
X180359000Y-83464061D01*
X180319226Y-83264102D01*
X180241205Y-83075744D01*
X180127937Y-82906226D01*
X180023711Y-82802000D01*
X181318678Y-82802000D01*
X181356000Y-82805676D01*
X181393322Y-82802000D01*
X181393333Y-82802000D01*
X181504986Y-82791003D01*
X181648247Y-82747546D01*
X181780276Y-82676974D01*
X181896001Y-82582001D01*
X181919804Y-82552997D01*
X182118206Y-82354595D01*
X186153282Y-82354595D01*
X186197039Y-82673675D01*
X186302205Y-82978088D01*
X186395186Y-83152044D01*
X186659587Y-83247808D01*
X187615395Y-82292000D01*
X186659587Y-81336192D01*
X186395186Y-81431956D01*
X186254296Y-81721571D01*
X186172616Y-82033108D01*
X186153282Y-82354595D01*
X182118206Y-82354595D01*
X183316214Y-81156587D01*
X186839192Y-81156587D01*
X187795000Y-82112395D01*
X188750808Y-81156587D01*
X188655044Y-80892186D01*
X188365429Y-80751296D01*
X188053892Y-80669616D01*
X187732405Y-80650282D01*
X187413325Y-80694039D01*
X187108912Y-80799205D01*
X186934956Y-80892186D01*
X186839192Y-81156587D01*
X183316214Y-81156587D01*
X187759183Y-76713619D01*
X187788181Y-76689821D01*
X187883154Y-76574096D01*
X187953726Y-76442067D01*
X187997183Y-76298806D01*
X188008180Y-76187153D01*
X188008180Y-76187143D01*
X188011856Y-76149820D01*
X188008180Y-76112497D01*
X188008180Y-63987087D01*
X188122662Y-63975812D01*
X188242360Y-63939502D01*
X188352674Y-63880537D01*
X188449365Y-63801185D01*
X188528717Y-63704494D01*
X188587682Y-63594180D01*
X188623992Y-63474482D01*
X188636252Y-63350000D01*
X188636252Y-60604000D01*
X189294000Y-60604000D01*
X189294001Y-76167572D01*
G36*
X109559248Y-106232858D02*
G01*
X109545105Y-106247000D01*
X109559248Y-106261143D01*
X109379643Y-106440748D01*
X109365500Y-106426605D01*
X109351358Y-106440748D01*
X109171753Y-106261143D01*
X109185895Y-106247000D01*
X109171753Y-106232858D01*
X109351358Y-106053253D01*
X109365500Y-106067395D01*
X109379643Y-106053253D01*
X109559248Y-106232858D01*
X109559248Y-106232858D01*
G37*
X109559248Y-106232858D02*
X109545105Y-106247000D01*
X109559248Y-106261143D01*
X109379643Y-106440748D01*
X109365500Y-106426605D01*
X109351358Y-106440748D01*
X109171753Y-106261143D01*
X109185895Y-106247000D01*
X109171753Y-106232858D01*
X109351358Y-106053253D01*
X109365500Y-106067395D01*
X109379643Y-106053253D01*
X109559248Y-106232858D01*
G36*
X107269248Y-106232858D02*
G01*
X107255105Y-106247000D01*
X107269248Y-106261143D01*
X107089643Y-106440748D01*
X107075500Y-106426605D01*
X107061358Y-106440748D01*
X106881753Y-106261143D01*
X106895895Y-106247000D01*
X106881753Y-106232858D01*
X107061358Y-106053253D01*
X107075500Y-106067395D01*
X107089643Y-106053253D01*
X107269248Y-106232858D01*
X107269248Y-106232858D01*
G37*
X107269248Y-106232858D02*
X107255105Y-106247000D01*
X107269248Y-106261143D01*
X107089643Y-106440748D01*
X107075500Y-106426605D01*
X107061358Y-106440748D01*
X106881753Y-106261143D01*
X106895895Y-106247000D01*
X106881753Y-106232858D01*
X107061358Y-106053253D01*
X107075500Y-106067395D01*
X107089643Y-106053253D01*
X107269248Y-106232858D01*
G36*
X102689248Y-106232858D02*
G01*
X102675105Y-106247000D01*
X102689248Y-106261143D01*
X102509643Y-106440748D01*
X102495500Y-106426605D01*
X102481358Y-106440748D01*
X102301753Y-106261143D01*
X102315895Y-106247000D01*
X102301753Y-106232858D01*
X102481358Y-106053253D01*
X102495500Y-106067395D01*
X102509643Y-106053253D01*
X102689248Y-106232858D01*
X102689248Y-106232858D01*
G37*
X102689248Y-106232858D02*
X102675105Y-106247000D01*
X102689248Y-106261143D01*
X102509643Y-106440748D01*
X102495500Y-106426605D01*
X102481358Y-106440748D01*
X102301753Y-106261143D01*
X102315895Y-106247000D01*
X102301753Y-106232858D01*
X102481358Y-106053253D01*
X102495500Y-106067395D01*
X102509643Y-106053253D01*
X102689248Y-106232858D01*
G36*
X110942205Y-80648008D02*
G01*
X110965999Y-80677001D01*
X110994992Y-80700795D01*
X110994996Y-80700799D01*
X111054966Y-80750014D01*
X111081724Y-80771974D01*
X111213753Y-80842546D01*
X111357014Y-80886003D01*
X111468667Y-80897000D01*
X111468676Y-80897000D01*
X111505999Y-80900676D01*
X111543322Y-80897000D01*
X112881525Y-80897000D01*
X112751226Y-80984063D01*
X112607063Y-81128226D01*
X112493795Y-81297744D01*
X112415774Y-81486102D01*
X112376000Y-81686061D01*
X112376000Y-81748197D01*
X98110199Y-96014000D01*
X93292291Y-96014000D01*
X93188799Y-95859114D01*
X93071685Y-95742000D01*
X93188799Y-95624886D01*
X93340371Y-95398043D01*
X93444775Y-95145989D01*
X93498000Y-94878411D01*
X93498000Y-94605589D01*
X93469167Y-94460635D01*
X95507003Y-92422799D01*
X95536001Y-92399001D01*
X95630974Y-92283276D01*
X95701546Y-92151247D01*
X95745003Y-92007986D01*
X95756000Y-91896333D01*
X95756000Y-91896325D01*
X95759676Y-91859000D01*
X95756000Y-91821675D01*
X95756000Y-89601331D01*
X95759677Y-89563998D01*
X95745003Y-89415012D01*
X95701546Y-89271751D01*
X95630974Y-89139722D01*
X95559799Y-89052995D01*
X95536001Y-89023997D01*
X95507004Y-89000200D01*
X93323438Y-86816635D01*
X93512814Y-86748044D01*
X93653704Y-86458429D01*
X93735384Y-86146892D01*
X93754718Y-85825405D01*
X93710961Y-85506325D01*
X93605795Y-85201912D01*
X93512814Y-85027956D01*
X93248413Y-84932192D01*
X92292605Y-85888000D01*
X92306748Y-85902143D01*
X92127143Y-86081748D01*
X92113000Y-86067605D01*
X92098858Y-86081748D01*
X91919253Y-85902143D01*
X91933395Y-85888000D01*
X91919253Y-85873858D01*
X92098858Y-85694253D01*
X92113000Y-85708395D01*
X92880492Y-84940903D01*
X92995886Y-84863799D01*
X93188799Y-84670886D01*
X93340371Y-84444043D01*
X93444775Y-84191989D01*
X93498000Y-83924411D01*
X93498000Y-83651589D01*
X93444775Y-83384011D01*
X93340371Y-83131957D01*
X93188799Y-82905114D01*
X93071685Y-82788000D01*
X93188799Y-82670886D01*
X93340371Y-82444043D01*
X93444775Y-82191989D01*
X93498000Y-81924411D01*
X93498000Y-81651589D01*
X93444775Y-81384011D01*
X93363118Y-81186872D01*
X105207000Y-81186872D01*
X105207000Y-81627128D01*
X105292890Y-82058925D01*
X105461369Y-82465669D01*
X105705962Y-82831729D01*
X106017271Y-83143038D01*
X106383331Y-83387631D01*
X106790075Y-83556110D01*
X107221872Y-83642000D01*
X107662128Y-83642000D01*
X108093925Y-83556110D01*
X108500669Y-83387631D01*
X108866729Y-83143038D01*
X109178038Y-82831729D01*
X109422631Y-82465669D01*
X109591110Y-82058925D01*
X109677000Y-81627128D01*
X109677000Y-81186872D01*
X109591110Y-80755075D01*
X109422631Y-80348331D01*
X109178038Y-79982271D01*
X108866729Y-79670962D01*
X108500669Y-79426369D01*
X108093925Y-79257890D01*
X107662128Y-79172000D01*
X107221872Y-79172000D01*
X106790075Y-79257890D01*
X106383331Y-79426369D01*
X106017271Y-79670962D01*
X105705962Y-79982271D01*
X105461369Y-80348331D01*
X105292890Y-80755075D01*
X105207000Y-81186872D01*
X93363118Y-81186872D01*
X93340371Y-81131957D01*
X93188799Y-80905114D01*
X93071685Y-80788000D01*
X93188799Y-80670886D01*
X93274261Y-80542984D01*
X93334986Y-80537003D01*
X93478247Y-80493546D01*
X93610276Y-80422974D01*
X93726001Y-80328001D01*
X93749804Y-80298997D01*
X93855997Y-80192804D01*
X93885001Y-80169001D01*
X93979974Y-80053276D01*
X94050546Y-79921246D01*
X94072313Y-79849488D01*
X95564802Y-78357000D01*
X108651199Y-78357000D01*
X110942205Y-80648008D01*
X110942205Y-80648008D01*
G37*
X110942205Y-80648008D02*
X110965999Y-80677001D01*
X110994992Y-80700795D01*
X110994996Y-80700799D01*
X111054966Y-80750014D01*
X111081724Y-80771974D01*
X111213753Y-80842546D01*
X111357014Y-80886003D01*
X111468667Y-80897000D01*
X111468676Y-80897000D01*
X111505999Y-80900676D01*
X111543322Y-80897000D01*
X112881525Y-80897000D01*
X112751226Y-80984063D01*
X112607063Y-81128226D01*
X112493795Y-81297744D01*
X112415774Y-81486102D01*
X112376000Y-81686061D01*
X112376000Y-81748197D01*
X98110199Y-96014000D01*
X93292291Y-96014000D01*
X93188799Y-95859114D01*
X93071685Y-95742000D01*
X93188799Y-95624886D01*
X93340371Y-95398043D01*
X93444775Y-95145989D01*
X93498000Y-94878411D01*
X93498000Y-94605589D01*
X93469167Y-94460635D01*
X95507003Y-92422799D01*
X95536001Y-92399001D01*
X95630974Y-92283276D01*
X95701546Y-92151247D01*
X95745003Y-92007986D01*
X95756000Y-91896333D01*
X95756000Y-91896325D01*
X95759676Y-91859000D01*
X95756000Y-91821675D01*
X95756000Y-89601331D01*
X95759677Y-89563998D01*
X95745003Y-89415012D01*
X95701546Y-89271751D01*
X95630974Y-89139722D01*
X95559799Y-89052995D01*
X95536001Y-89023997D01*
X95507004Y-89000200D01*
X93323438Y-86816635D01*
X93512814Y-86748044D01*
X93653704Y-86458429D01*
X93735384Y-86146892D01*
X93754718Y-85825405D01*
X93710961Y-85506325D01*
X93605795Y-85201912D01*
X93512814Y-85027956D01*
X93248413Y-84932192D01*
X92292605Y-85888000D01*
X92306748Y-85902143D01*
X92127143Y-86081748D01*
X92113000Y-86067605D01*
X92098858Y-86081748D01*
X91919253Y-85902143D01*
X91933395Y-85888000D01*
X91919253Y-85873858D01*
X92098858Y-85694253D01*
X92113000Y-85708395D01*
X92880492Y-84940903D01*
X92995886Y-84863799D01*
X93188799Y-84670886D01*
X93340371Y-84444043D01*
X93444775Y-84191989D01*
X93498000Y-83924411D01*
X93498000Y-83651589D01*
X93444775Y-83384011D01*
X93340371Y-83131957D01*
X93188799Y-82905114D01*
X93071685Y-82788000D01*
X93188799Y-82670886D01*
X93340371Y-82444043D01*
X93444775Y-82191989D01*
X93498000Y-81924411D01*
X93498000Y-81651589D01*
X93444775Y-81384011D01*
X93363118Y-81186872D01*
X105207000Y-81186872D01*
X105207000Y-81627128D01*
X105292890Y-82058925D01*
X105461369Y-82465669D01*
X105705962Y-82831729D01*
X106017271Y-83143038D01*
X106383331Y-83387631D01*
X106790075Y-83556110D01*
X107221872Y-83642000D01*
X107662128Y-83642000D01*
X108093925Y-83556110D01*
X108500669Y-83387631D01*
X108866729Y-83143038D01*
X109178038Y-82831729D01*
X109422631Y-82465669D01*
X109591110Y-82058925D01*
X109677000Y-81627128D01*
X109677000Y-81186872D01*
X109591110Y-80755075D01*
X109422631Y-80348331D01*
X109178038Y-79982271D01*
X108866729Y-79670962D01*
X108500669Y-79426369D01*
X108093925Y-79257890D01*
X107662128Y-79172000D01*
X107221872Y-79172000D01*
X106790075Y-79257890D01*
X106383331Y-79426369D01*
X106017271Y-79670962D01*
X105705962Y-79982271D01*
X105461369Y-80348331D01*
X105292890Y-80755075D01*
X105207000Y-81186872D01*
X93363118Y-81186872D01*
X93340371Y-81131957D01*
X93188799Y-80905114D01*
X93071685Y-80788000D01*
X93188799Y-80670886D01*
X93274261Y-80542984D01*
X93334986Y-80537003D01*
X93478247Y-80493546D01*
X93610276Y-80422974D01*
X93726001Y-80328001D01*
X93749804Y-80298997D01*
X93855997Y-80192804D01*
X93885001Y-80169001D01*
X93979974Y-80053276D01*
X94050546Y-79921246D01*
X94072313Y-79849488D01*
X95564802Y-78357000D01*
X108651199Y-78357000D01*
X110942205Y-80648008D01*
G36*
X92306748Y-88627858D02*
G01*
X92292605Y-88642000D01*
X93248413Y-89597808D01*
X93512814Y-89502044D01*
X93626189Y-89268989D01*
X94236000Y-89878800D01*
X94236001Y-91544197D01*
X92394365Y-93385833D01*
X92249411Y-93357000D01*
X91976589Y-93357000D01*
X91709011Y-93410225D01*
X91456957Y-93514629D01*
X91438000Y-93527296D01*
X91438000Y-92491801D01*
X91831635Y-92098167D01*
X91976589Y-92127000D01*
X92249411Y-92127000D01*
X92516989Y-92073775D01*
X92769043Y-91969371D01*
X92995886Y-91817799D01*
X93188799Y-91624886D01*
X93340371Y-91398043D01*
X93444775Y-91145989D01*
X93498000Y-90878411D01*
X93498000Y-90605589D01*
X93444775Y-90338011D01*
X93340371Y-90085957D01*
X93188799Y-89859114D01*
X92995886Y-89666201D01*
X92880492Y-89589097D01*
X92113000Y-88821605D01*
X91345508Y-89589097D01*
X91230114Y-89666201D01*
X91037201Y-89859114D01*
X90885629Y-90085957D01*
X90781225Y-90338011D01*
X90728000Y-90605589D01*
X90728000Y-90878411D01*
X90756833Y-91023365D01*
X90614000Y-91166198D01*
X90614000Y-89310127D01*
X90620205Y-89328088D01*
X90713186Y-89502044D01*
X90977587Y-89597808D01*
X91933395Y-88642000D01*
X91919253Y-88627858D01*
X92098858Y-88448253D01*
X92113000Y-88462395D01*
X92127143Y-88448253D01*
X92306748Y-88627858D01*
X92306748Y-88627858D01*
G37*
X92306748Y-88627858D02*
X92292605Y-88642000D01*
X93248413Y-89597808D01*
X93512814Y-89502044D01*
X93626189Y-89268989D01*
X94236000Y-89878800D01*
X94236001Y-91544197D01*
X92394365Y-93385833D01*
X92249411Y-93357000D01*
X91976589Y-93357000D01*
X91709011Y-93410225D01*
X91456957Y-93514629D01*
X91438000Y-93527296D01*
X91438000Y-92491801D01*
X91831635Y-92098167D01*
X91976589Y-92127000D01*
X92249411Y-92127000D01*
X92516989Y-92073775D01*
X92769043Y-91969371D01*
X92995886Y-91817799D01*
X93188799Y-91624886D01*
X93340371Y-91398043D01*
X93444775Y-91145989D01*
X93498000Y-90878411D01*
X93498000Y-90605589D01*
X93444775Y-90338011D01*
X93340371Y-90085957D01*
X93188799Y-89859114D01*
X92995886Y-89666201D01*
X92880492Y-89589097D01*
X92113000Y-88821605D01*
X91345508Y-89589097D01*
X91230114Y-89666201D01*
X91037201Y-89859114D01*
X90885629Y-90085957D01*
X90781225Y-90338011D01*
X90728000Y-90605589D01*
X90728000Y-90878411D01*
X90756833Y-91023365D01*
X90614000Y-91166198D01*
X90614000Y-89310127D01*
X90620205Y-89328088D01*
X90713186Y-89502044D01*
X90977587Y-89597808D01*
X91933395Y-88642000D01*
X91919253Y-88627858D01*
X92098858Y-88448253D01*
X92113000Y-88462395D01*
X92127143Y-88448253D01*
X92306748Y-88627858D01*
G36*
X178664226Y-84369937D02*
G01*
X178833744Y-84483205D01*
X179022102Y-84561226D01*
X179222061Y-84601000D01*
X179284198Y-84601000D01*
X179586205Y-84903008D01*
X179609999Y-84932001D01*
X179638992Y-84955795D01*
X179638996Y-84955799D01*
X179709685Y-85013811D01*
X179725724Y-85026974D01*
X179857753Y-85097546D01*
X180001014Y-85141003D01*
X180112667Y-85152000D01*
X180112676Y-85152000D01*
X180149999Y-85155676D01*
X180187322Y-85152000D01*
X186637091Y-85152000D01*
X186719201Y-85274886D01*
X186836315Y-85392000D01*
X186719201Y-85509114D01*
X186567629Y-85735957D01*
X186463225Y-85988011D01*
X186410000Y-86255589D01*
X186410000Y-86381999D01*
X145959802Y-86381999D01*
X146491802Y-85850000D01*
X148425678Y-85850000D01*
X148463000Y-85853676D01*
X148500322Y-85850000D01*
X148500333Y-85850000D01*
X148611986Y-85839003D01*
X148755247Y-85795546D01*
X148887276Y-85724974D01*
X149003001Y-85630001D01*
X149026803Y-85600998D01*
X150301803Y-84326000D01*
X178620289Y-84326000D01*
X178664226Y-84369937D01*
X178664226Y-84369937D01*
G37*
X178664226Y-84369937D02*
X178833744Y-84483205D01*
X179022102Y-84561226D01*
X179222061Y-84601000D01*
X179284198Y-84601000D01*
X179586205Y-84903008D01*
X179609999Y-84932001D01*
X179638992Y-84955795D01*
X179638996Y-84955799D01*
X179709685Y-85013811D01*
X179725724Y-85026974D01*
X179857753Y-85097546D01*
X180001014Y-85141003D01*
X180112667Y-85152000D01*
X180112676Y-85152000D01*
X180149999Y-85155676D01*
X180187322Y-85152000D01*
X186637091Y-85152000D01*
X186719201Y-85274886D01*
X186836315Y-85392000D01*
X186719201Y-85509114D01*
X186567629Y-85735957D01*
X186463225Y-85988011D01*
X186410000Y-86255589D01*
X186410000Y-86381999D01*
X145959802Y-86381999D01*
X146491802Y-85850000D01*
X148425678Y-85850000D01*
X148463000Y-85853676D01*
X148500322Y-85850000D01*
X148500333Y-85850000D01*
X148611986Y-85839003D01*
X148755247Y-85795546D01*
X148887276Y-85724974D01*
X149003001Y-85630001D01*
X149026803Y-85600998D01*
X150301803Y-84326000D01*
X178620289Y-84326000D01*
X178664226Y-84369937D01*
G36*
X176557000Y-61623000D02*
G01*
X178466636Y-61623000D01*
X178466636Y-61603000D01*
X178720636Y-61603000D01*
X178720636Y-61623000D01*
X178740636Y-61623000D01*
X178740636Y-61877000D01*
X178720636Y-61877000D01*
X178720636Y-63826250D01*
X178879386Y-63985000D01*
X179343636Y-63988072D01*
X179468118Y-63975812D01*
X179587816Y-63939502D01*
X179675454Y-63892658D01*
X179763092Y-63939502D01*
X179882790Y-63975812D01*
X179997272Y-63987087D01*
X179997273Y-73531954D01*
X179993596Y-73569286D01*
X180008270Y-73718271D01*
X180051726Y-73861532D01*
X180122298Y-73993562D01*
X180193473Y-74080288D01*
X180217272Y-74109287D01*
X180246270Y-74133085D01*
X182987986Y-76874802D01*
X182987986Y-76936939D01*
X183027760Y-77136898D01*
X183105781Y-77325256D01*
X183219049Y-77494774D01*
X183353739Y-77629464D01*
X180844203Y-80139000D01*
X161993711Y-80139000D01*
X161949774Y-80095063D01*
X161780256Y-79981795D01*
X161591898Y-79903774D01*
X161391939Y-79864000D01*
X161188061Y-79864000D01*
X160988102Y-79903774D01*
X160799744Y-79981795D01*
X160630226Y-80095063D01*
X160486063Y-80239226D01*
X160372795Y-80408744D01*
X160294774Y-80597102D01*
X160255000Y-80797061D01*
X160255000Y-81000939D01*
X160294774Y-81200898D01*
X160372795Y-81389256D01*
X160486063Y-81558774D01*
X160630226Y-81702937D01*
X160799744Y-81816205D01*
X160988102Y-81894226D01*
X161188061Y-81934000D01*
X161391939Y-81934000D01*
X161591898Y-81894226D01*
X161780256Y-81816205D01*
X161949774Y-81702937D01*
X161993711Y-81659000D01*
X165281368Y-81659000D01*
X165247774Y-81740102D01*
X165208000Y-81940061D01*
X165208000Y-82143939D01*
X165247774Y-82343898D01*
X165325795Y-82532256D01*
X165439063Y-82701774D01*
X165543289Y-82806000D01*
X150024322Y-82806000D01*
X149986999Y-82802324D01*
X149949676Y-82806000D01*
X149949667Y-82806000D01*
X149838014Y-82816997D01*
X149694753Y-82860454D01*
X149562724Y-82931026D01*
X149562722Y-82931027D01*
X149562723Y-82931027D01*
X149475996Y-83002201D01*
X149475992Y-83002205D01*
X149446999Y-83025999D01*
X149423205Y-83054992D01*
X148148199Y-84330000D01*
X146214322Y-84330000D01*
X146176999Y-84326324D01*
X146139676Y-84330000D01*
X146139667Y-84330000D01*
X146028014Y-84340997D01*
X145884753Y-84384454D01*
X145752724Y-84455026D01*
X145636999Y-84549999D01*
X145613201Y-84578997D01*
X144592199Y-85600000D01*
X142046802Y-85600000D01*
X137379674Y-80932872D01*
X144069000Y-80932872D01*
X144069000Y-81373128D01*
X144154890Y-81804925D01*
X144323369Y-82211669D01*
X144567962Y-82577729D01*
X144879271Y-82889038D01*
X145245331Y-83133631D01*
X145652075Y-83302110D01*
X146083872Y-83388000D01*
X146524128Y-83388000D01*
X146955925Y-83302110D01*
X147362669Y-83133631D01*
X147728729Y-82889038D01*
X148040038Y-82577729D01*
X148284631Y-82211669D01*
X148453110Y-81804925D01*
X148539000Y-81373128D01*
X148539000Y-80932872D01*
X148453110Y-80501075D01*
X148284631Y-80094331D01*
X148040038Y-79728271D01*
X147728729Y-79416962D01*
X147362669Y-79172369D01*
X146955925Y-79003890D01*
X146524128Y-78918000D01*
X146083872Y-78918000D01*
X145652075Y-79003890D01*
X145245331Y-79172369D01*
X144879271Y-79416962D01*
X144567962Y-79728271D01*
X144323369Y-80094331D01*
X144154890Y-80501075D01*
X144069000Y-80932872D01*
X137379674Y-80932872D01*
X136072804Y-79626003D01*
X136049001Y-79596999D01*
X135933276Y-79502026D01*
X135801247Y-79431454D01*
X135657986Y-79387997D01*
X135546333Y-79377000D01*
X135546322Y-79377000D01*
X135509000Y-79373324D01*
X135471678Y-79377000D01*
X126373467Y-79377000D01*
X126432014Y-79345706D01*
X126658134Y-79160134D01*
X126843706Y-78934014D01*
X126981599Y-78676034D01*
X127066513Y-78396111D01*
X127095185Y-78105000D01*
X127066513Y-77813889D01*
X126981599Y-77533966D01*
X126843706Y-77275986D01*
X126658134Y-77049866D01*
X126432014Y-76864294D01*
X126423980Y-76860000D01*
X137457198Y-76860000D01*
X137120199Y-77197000D01*
X137058061Y-77197000D01*
X136858102Y-77236774D01*
X136669744Y-77314795D01*
X136500226Y-77428063D01*
X136356063Y-77572226D01*
X136242795Y-77741744D01*
X136164774Y-77930102D01*
X136125000Y-78130061D01*
X136125000Y-78333939D01*
X136164774Y-78533898D01*
X136242795Y-78722256D01*
X136356063Y-78891774D01*
X136500226Y-79035937D01*
X136669744Y-79149205D01*
X136858102Y-79227226D01*
X137058061Y-79267000D01*
X137261939Y-79267000D01*
X137461898Y-79227226D01*
X137650256Y-79149205D01*
X137819774Y-79035937D01*
X137963937Y-78891774D01*
X138077205Y-78722256D01*
X138155226Y-78533898D01*
X138195000Y-78333939D01*
X138195000Y-78271801D01*
X138490802Y-77976000D01*
X178397678Y-77976000D01*
X178435000Y-77979676D01*
X178472322Y-77976000D01*
X178472333Y-77976000D01*
X178583986Y-77965003D01*
X178727247Y-77921546D01*
X178859276Y-77850974D01*
X178975001Y-77756001D01*
X178998804Y-77726997D01*
X179744802Y-76981000D01*
X179806939Y-76981000D01*
X180006898Y-76941226D01*
X180195256Y-76863205D01*
X180364774Y-76749937D01*
X180508937Y-76605774D01*
X180622205Y-76436256D01*
X180700226Y-76247898D01*
X180740000Y-76047939D01*
X180740000Y-75844061D01*
X180700226Y-75644102D01*
X180622205Y-75455744D01*
X180508937Y-75286226D01*
X180364774Y-75142063D01*
X180195256Y-75028795D01*
X180006898Y-74950774D01*
X179806939Y-74911000D01*
X179603061Y-74911000D01*
X179403102Y-74950774D01*
X179214744Y-75028795D01*
X179045226Y-75142063D01*
X178901063Y-75286226D01*
X178787795Y-75455744D01*
X178709774Y-75644102D01*
X178670000Y-75844061D01*
X178670000Y-75906198D01*
X178120199Y-76456000D01*
X175452530Y-76456000D01*
X175453710Y-76453793D01*
X175491450Y-76329383D01*
X175494462Y-76298806D01*
X175504193Y-76200000D01*
X175501000Y-76167581D01*
X175501000Y-63959274D01*
X175555518Y-63975812D01*
X175680000Y-63988072D01*
X176144250Y-63985000D01*
X176303000Y-63826250D01*
X176303000Y-61877000D01*
X176557000Y-61877000D01*
X176557000Y-63826250D01*
X176715750Y-63985000D01*
X177180000Y-63988072D01*
X177304482Y-63975812D01*
X177424180Y-63939502D01*
X177511818Y-63892658D01*
X177599456Y-63939502D01*
X177719154Y-63975812D01*
X177843636Y-63988072D01*
X178307886Y-63985000D01*
X178466636Y-63826250D01*
X178466636Y-61877000D01*
X176557000Y-61877000D01*
X176303000Y-61877000D01*
X176283000Y-61877000D01*
X176283000Y-61623000D01*
X176303000Y-61623000D01*
X176303000Y-61603000D01*
X176557000Y-61603000D01*
X176557000Y-61623000D01*
X176557000Y-61623000D01*
G37*
X176557000Y-61623000D02*
X178466636Y-61623000D01*
X178466636Y-61603000D01*
X178720636Y-61603000D01*
X178720636Y-61623000D01*
X178740636Y-61623000D01*
X178740636Y-61877000D01*
X178720636Y-61877000D01*
X178720636Y-63826250D01*
X178879386Y-63985000D01*
X179343636Y-63988072D01*
X179468118Y-63975812D01*
X179587816Y-63939502D01*
X179675454Y-63892658D01*
X179763092Y-63939502D01*
X179882790Y-63975812D01*
X179997272Y-63987087D01*
X179997273Y-73531954D01*
X179993596Y-73569286D01*
X180008270Y-73718271D01*
X180051726Y-73861532D01*
X180122298Y-73993562D01*
X180193473Y-74080288D01*
X180217272Y-74109287D01*
X180246270Y-74133085D01*
X182987986Y-76874802D01*
X182987986Y-76936939D01*
X183027760Y-77136898D01*
X183105781Y-77325256D01*
X183219049Y-77494774D01*
X183353739Y-77629464D01*
X180844203Y-80139000D01*
X161993711Y-80139000D01*
X161949774Y-80095063D01*
X161780256Y-79981795D01*
X161591898Y-79903774D01*
X161391939Y-79864000D01*
X161188061Y-79864000D01*
X160988102Y-79903774D01*
X160799744Y-79981795D01*
X160630226Y-80095063D01*
X160486063Y-80239226D01*
X160372795Y-80408744D01*
X160294774Y-80597102D01*
X160255000Y-80797061D01*
X160255000Y-81000939D01*
X160294774Y-81200898D01*
X160372795Y-81389256D01*
X160486063Y-81558774D01*
X160630226Y-81702937D01*
X160799744Y-81816205D01*
X160988102Y-81894226D01*
X161188061Y-81934000D01*
X161391939Y-81934000D01*
X161591898Y-81894226D01*
X161780256Y-81816205D01*
X161949774Y-81702937D01*
X161993711Y-81659000D01*
X165281368Y-81659000D01*
X165247774Y-81740102D01*
X165208000Y-81940061D01*
X165208000Y-82143939D01*
X165247774Y-82343898D01*
X165325795Y-82532256D01*
X165439063Y-82701774D01*
X165543289Y-82806000D01*
X150024322Y-82806000D01*
X149986999Y-82802324D01*
X149949676Y-82806000D01*
X149949667Y-82806000D01*
X149838014Y-82816997D01*
X149694753Y-82860454D01*
X149562724Y-82931026D01*
X149562722Y-82931027D01*
X149562723Y-82931027D01*
X149475996Y-83002201D01*
X149475992Y-83002205D01*
X149446999Y-83025999D01*
X149423205Y-83054992D01*
X148148199Y-84330000D01*
X146214322Y-84330000D01*
X146176999Y-84326324D01*
X146139676Y-84330000D01*
X146139667Y-84330000D01*
X146028014Y-84340997D01*
X145884753Y-84384454D01*
X145752724Y-84455026D01*
X145636999Y-84549999D01*
X145613201Y-84578997D01*
X144592199Y-85600000D01*
X142046802Y-85600000D01*
X137379674Y-80932872D01*
X144069000Y-80932872D01*
X144069000Y-81373128D01*
X144154890Y-81804925D01*
X144323369Y-82211669D01*
X144567962Y-82577729D01*
X144879271Y-82889038D01*
X145245331Y-83133631D01*
X145652075Y-83302110D01*
X146083872Y-83388000D01*
X146524128Y-83388000D01*
X146955925Y-83302110D01*
X147362669Y-83133631D01*
X147728729Y-82889038D01*
X148040038Y-82577729D01*
X148284631Y-82211669D01*
X148453110Y-81804925D01*
X148539000Y-81373128D01*
X148539000Y-80932872D01*
X148453110Y-80501075D01*
X148284631Y-80094331D01*
X148040038Y-79728271D01*
X147728729Y-79416962D01*
X147362669Y-79172369D01*
X146955925Y-79003890D01*
X146524128Y-78918000D01*
X146083872Y-78918000D01*
X145652075Y-79003890D01*
X145245331Y-79172369D01*
X144879271Y-79416962D01*
X144567962Y-79728271D01*
X144323369Y-80094331D01*
X144154890Y-80501075D01*
X144069000Y-80932872D01*
X137379674Y-80932872D01*
X136072804Y-79626003D01*
X136049001Y-79596999D01*
X135933276Y-79502026D01*
X135801247Y-79431454D01*
X135657986Y-79387997D01*
X135546333Y-79377000D01*
X135546322Y-79377000D01*
X135509000Y-79373324D01*
X135471678Y-79377000D01*
X126373467Y-79377000D01*
X126432014Y-79345706D01*
X126658134Y-79160134D01*
X126843706Y-78934014D01*
X126981599Y-78676034D01*
X127066513Y-78396111D01*
X127095185Y-78105000D01*
X127066513Y-77813889D01*
X126981599Y-77533966D01*
X126843706Y-77275986D01*
X126658134Y-77049866D01*
X126432014Y-76864294D01*
X126423980Y-76860000D01*
X137457198Y-76860000D01*
X137120199Y-77197000D01*
X137058061Y-77197000D01*
X136858102Y-77236774D01*
X136669744Y-77314795D01*
X136500226Y-77428063D01*
X136356063Y-77572226D01*
X136242795Y-77741744D01*
X136164774Y-77930102D01*
X136125000Y-78130061D01*
X136125000Y-78333939D01*
X136164774Y-78533898D01*
X136242795Y-78722256D01*
X136356063Y-78891774D01*
X136500226Y-79035937D01*
X136669744Y-79149205D01*
X136858102Y-79227226D01*
X137058061Y-79267000D01*
X137261939Y-79267000D01*
X137461898Y-79227226D01*
X137650256Y-79149205D01*
X137819774Y-79035937D01*
X137963937Y-78891774D01*
X138077205Y-78722256D01*
X138155226Y-78533898D01*
X138195000Y-78333939D01*
X138195000Y-78271801D01*
X138490802Y-77976000D01*
X178397678Y-77976000D01*
X178435000Y-77979676D01*
X178472322Y-77976000D01*
X178472333Y-77976000D01*
X178583986Y-77965003D01*
X178727247Y-77921546D01*
X178859276Y-77850974D01*
X178975001Y-77756001D01*
X178998804Y-77726997D01*
X179744802Y-76981000D01*
X179806939Y-76981000D01*
X180006898Y-76941226D01*
X180195256Y-76863205D01*
X180364774Y-76749937D01*
X180508937Y-76605774D01*
X180622205Y-76436256D01*
X180700226Y-76247898D01*
X180740000Y-76047939D01*
X180740000Y-75844061D01*
X180700226Y-75644102D01*
X180622205Y-75455744D01*
X180508937Y-75286226D01*
X180364774Y-75142063D01*
X180195256Y-75028795D01*
X180006898Y-74950774D01*
X179806939Y-74911000D01*
X179603061Y-74911000D01*
X179403102Y-74950774D01*
X179214744Y-75028795D01*
X179045226Y-75142063D01*
X178901063Y-75286226D01*
X178787795Y-75455744D01*
X178709774Y-75644102D01*
X178670000Y-75844061D01*
X178670000Y-75906198D01*
X178120199Y-76456000D01*
X175452530Y-76456000D01*
X175453710Y-76453793D01*
X175491450Y-76329383D01*
X175494462Y-76298806D01*
X175504193Y-76200000D01*
X175501000Y-76167581D01*
X175501000Y-63959274D01*
X175555518Y-63975812D01*
X175680000Y-63988072D01*
X176144250Y-63985000D01*
X176303000Y-63826250D01*
X176303000Y-61877000D01*
X176557000Y-61877000D01*
X176557000Y-63826250D01*
X176715750Y-63985000D01*
X177180000Y-63988072D01*
X177304482Y-63975812D01*
X177424180Y-63939502D01*
X177511818Y-63892658D01*
X177599456Y-63939502D01*
X177719154Y-63975812D01*
X177843636Y-63988072D01*
X178307886Y-63985000D01*
X178466636Y-63826250D01*
X178466636Y-61877000D01*
X176557000Y-61877000D01*
X176303000Y-61877000D01*
X176283000Y-61877000D01*
X176283000Y-61623000D01*
X176303000Y-61623000D01*
X176303000Y-61603000D01*
X176557000Y-61603000D01*
X176557000Y-61623000D01*
G36*
X178620289Y-82806000D02*
G01*
X166942711Y-82806000D01*
X166946711Y-82802000D01*
X178624289Y-82802000D01*
X178620289Y-82806000D01*
X178620289Y-82806000D01*
G37*
X178620289Y-82806000D02*
X166942711Y-82806000D01*
X166946711Y-82802000D01*
X178624289Y-82802000D01*
X178620289Y-82806000D01*
G36*
X92306748Y-77673858D02*
G01*
X92292605Y-77688000D01*
X92306748Y-77702143D01*
X92127143Y-77881748D01*
X92113000Y-77867605D01*
X91345508Y-78635097D01*
X91230114Y-78712201D01*
X91037201Y-78905114D01*
X90885629Y-79131957D01*
X90781225Y-79384011D01*
X90728000Y-79651589D01*
X90728000Y-79924411D01*
X90766290Y-80116908D01*
X90614000Y-80269199D01*
X90614000Y-78356127D01*
X90620205Y-78374088D01*
X90713186Y-78548044D01*
X90977587Y-78643808D01*
X91933395Y-77688000D01*
X91919253Y-77673858D01*
X92098858Y-77494253D01*
X92113000Y-77508395D01*
X92127143Y-77494253D01*
X92306748Y-77673858D01*
X92306748Y-77673858D01*
G37*
X92306748Y-77673858D02*
X92292605Y-77688000D01*
X92306748Y-77702143D01*
X92127143Y-77881748D01*
X92113000Y-77867605D01*
X91345508Y-78635097D01*
X91230114Y-78712201D01*
X91037201Y-78905114D01*
X90885629Y-79131957D01*
X90781225Y-79384011D01*
X90728000Y-79651589D01*
X90728000Y-79924411D01*
X90766290Y-80116908D01*
X90614000Y-80269199D01*
X90614000Y-78356127D01*
X90620205Y-78374088D01*
X90713186Y-78548044D01*
X90977587Y-78643808D01*
X91933395Y-77688000D01*
X91919253Y-77673858D01*
X92098858Y-77494253D01*
X92113000Y-77508395D01*
X92127143Y-77494253D01*
X92306748Y-77673858D01*
G36*
X119142463Y-76900506D02*
G01*
X119083498Y-77010820D01*
X119047188Y-77130518D01*
X119034928Y-77255000D01*
X119034928Y-78955000D01*
X119047188Y-79079482D01*
X119083498Y-79199180D01*
X119142463Y-79309494D01*
X119197864Y-79377000D01*
X111820803Y-79377000D01*
X109529804Y-77086003D01*
X109506001Y-77056999D01*
X109390276Y-76962026D01*
X109258247Y-76891454D01*
X109154555Y-76860000D01*
X119175705Y-76860000D01*
X119142463Y-76900506D01*
X119142463Y-76900506D01*
G37*
X119142463Y-76900506D02*
X119083498Y-77010820D01*
X119047188Y-77130518D01*
X119034928Y-77255000D01*
X119034928Y-78955000D01*
X119047188Y-79079482D01*
X119083498Y-79199180D01*
X119142463Y-79309494D01*
X119197864Y-79377000D01*
X111820803Y-79377000D01*
X109529804Y-77086003D01*
X109506001Y-77056999D01*
X109390276Y-76962026D01*
X109258247Y-76891454D01*
X109154555Y-76860000D01*
X119175705Y-76860000D01*
X119142463Y-76900506D01*
G36*
X186254000Y-63939502D02*
G01*
X186373698Y-63975812D01*
X186488180Y-63987087D01*
X186488181Y-75835017D01*
X185844544Y-76478654D01*
X185844544Y-63987087D01*
X185959026Y-63975812D01*
X186078724Y-63939502D01*
X186166362Y-63892658D01*
X186254000Y-63939502D01*
X186254000Y-63939502D01*
G37*
X186254000Y-63939502D02*
X186373698Y-63975812D01*
X186488180Y-63987087D01*
X186488181Y-75835017D01*
X185844544Y-76478654D01*
X185844544Y-63987087D01*
X185959026Y-63975812D01*
X186078724Y-63939502D01*
X186166362Y-63892658D01*
X186254000Y-63939502D01*
G36*
X184090364Y-63939502D02*
G01*
X184210062Y-63975812D01*
X184324544Y-63987087D01*
X184324545Y-74188704D01*
X184124939Y-74149000D01*
X184062802Y-74149000D01*
X183680908Y-73767107D01*
X183680908Y-63987087D01*
X183795390Y-63975812D01*
X183915088Y-63939502D01*
X184002726Y-63892658D01*
X184090364Y-63939502D01*
X184090364Y-63939502D01*
G37*
X184090364Y-63939502D02*
X184210062Y-63975812D01*
X184324544Y-63987087D01*
X184324545Y-74188704D01*
X184124939Y-74149000D01*
X184062802Y-74149000D01*
X183680908Y-73767107D01*
X183680908Y-63987087D01*
X183795390Y-63975812D01*
X183915088Y-63939502D01*
X184002726Y-63892658D01*
X184090364Y-63939502D01*
M02*
