G04 #@! TF.GenerationSoftware,KiCad,Pcbnew,(5.1.0)-1*
G04 #@! TF.CreationDate,2019-06-17T15:30:07-04:00*
G04 #@! TF.ProjectId,PSX Breakout,50535820-4272-4656-916b-6f75742e6b69,rev?*
G04 #@! TF.SameCoordinates,Original*
G04 #@! TF.FileFunction,Copper,L2,Bot*
G04 #@! TF.FilePolarity,Positive*
%FSLAX46Y46*%
G04 Gerber Fmt 4.6, Leading zero omitted, Abs format (unit mm)*
G04 Created by KiCad (PCBNEW (5.1.0)-1) date 2019-06-17 15:30:07*
%MOMM*%
%LPD*%
G04 APERTURE LIST*
%ADD10C,4.000000*%
%ADD11C,1.600000*%
%ADD12R,1.600000X1.600000*%
%ADD13O,3.016000X1.508000*%
%ADD14O,1.508000X3.016000*%
%ADD15O,2.200000X4.000000*%
%ADD16O,2.000000X4.000000*%
%ADD17C,1.500000*%
%ADD18C,2.000000*%
%ADD19R,1.500000X3.200000*%
%ADD20O,1.700000X3.400000*%
%ADD21O,3.400000X1.700000*%
%ADD22C,1.408000*%
%ADD23R,1.408000X1.408000*%
%ADD24R,1.700000X1.700000*%
%ADD25O,1.700000X1.700000*%
%ADD26C,0.800000*%
%ADD27C,0.250000*%
%ADD28C,0.254000*%
G04 APERTURE END LIST*
D10*
X118040000Y-100457000D03*
X93040000Y-100457000D03*
D11*
X100695000Y-102997000D03*
X102985000Y-102997000D03*
X105275000Y-102997000D03*
X107565000Y-102997000D03*
X109855000Y-102997000D03*
X101840000Y-100457000D03*
X104130000Y-100457000D03*
X106420000Y-100457000D03*
X108710000Y-100457000D03*
X111000000Y-100457000D03*
X100695000Y-97917000D03*
X102985000Y-97917000D03*
X105275000Y-97917000D03*
X107565000Y-97917000D03*
D12*
X109855000Y-97917000D03*
D13*
X125127000Y-102236000D03*
X125127000Y-107736000D03*
X127127000Y-110236000D03*
X127127000Y-104136000D03*
X127127000Y-98636000D03*
D14*
X122677000Y-100336000D03*
X131277000Y-100336000D03*
X131277000Y-109236000D03*
D15*
X186223500Y-106510000D03*
X172223500Y-106510000D03*
X158223500Y-106510000D03*
D16*
X186223500Y-99260000D03*
X178723500Y-99260000D03*
X150723500Y-99260000D03*
X158223500Y-99260000D03*
X164723500Y-99260000D03*
X172223500Y-99260000D03*
D17*
X92075000Y-88392000D03*
X92075000Y-90392000D03*
X92075000Y-84392000D03*
X92075000Y-92392000D03*
D18*
X92075000Y-94492000D03*
X92075000Y-82292000D03*
D19*
X176430000Y-61750000D03*
X178593636Y-61750000D03*
X180757272Y-61750000D03*
X182920908Y-61750000D03*
X185084544Y-61750000D03*
X187248180Y-61750000D03*
D20*
X145692000Y-106002000D03*
D21*
X139192000Y-106902000D03*
D20*
X132692000Y-106002000D03*
D22*
X142592000Y-100502000D03*
D23*
X142592000Y-103002000D03*
D22*
X135792000Y-103002000D03*
X135792000Y-100502000D03*
D18*
X187795000Y-94492000D03*
X187795000Y-82292000D03*
D17*
X187795000Y-84392000D03*
X187795000Y-92392000D03*
X187795000Y-86392000D03*
X187795000Y-88392000D03*
D24*
X120523000Y-78105000D03*
D25*
X123063000Y-78105000D03*
X125603000Y-78105000D03*
D17*
X187795000Y-77692000D03*
X187795000Y-75692000D03*
X187795000Y-73692000D03*
D18*
X187795000Y-71592000D03*
X187795000Y-79792000D03*
D26*
X117221000Y-79883000D03*
X166243000Y-82042000D03*
X170307000Y-89154000D03*
X180086000Y-94615000D03*
X184404000Y-102870000D03*
X154559000Y-106045000D03*
X161290000Y-80899000D03*
X179705000Y-75946000D03*
X139573000Y-79375000D03*
X130556000Y-83566000D03*
X134874000Y-89154000D03*
X155194000Y-93091000D03*
X168021000Y-92710000D03*
X178816000Y-90424000D03*
X175514000Y-99695000D03*
X161417000Y-99949000D03*
X168783000Y-94742000D03*
X177546000Y-107061000D03*
X188722000Y-96520000D03*
X182753000Y-101346000D03*
X113030000Y-77978000D03*
X168275000Y-82804000D03*
X119380000Y-83566000D03*
X126111000Y-87630000D03*
X131699000Y-86741000D03*
X176403000Y-71628000D03*
X178689000Y-71628000D03*
X182118000Y-70739000D03*
X181864000Y-65405000D03*
X187604990Y-65151000D03*
X182626000Y-72644000D03*
X152781000Y-84709000D03*
X134493000Y-77851000D03*
X97282000Y-89281000D03*
X138430000Y-84074000D03*
X171704000Y-79211010D03*
X181864000Y-89916000D03*
X120523000Y-105791000D03*
X114173000Y-96393000D03*
X121412000Y-88392000D03*
X173482000Y-92964000D03*
X173355000Y-94578000D03*
X174752000Y-92964000D03*
X174625000Y-95630998D03*
X182499000Y-76327000D03*
X176276000Y-85852000D03*
X185420000Y-93853000D03*
X182499000Y-74549000D03*
X176657000Y-103251000D03*
X134493000Y-81370010D03*
X113489182Y-81973138D03*
D27*
X117602000Y-79502000D02*
X117221000Y-79883000D01*
X136525000Y-79502000D02*
X117602000Y-79502000D01*
X148971000Y-85090000D02*
X142113000Y-85090000D01*
X150495000Y-83566000D02*
X148971000Y-85090000D01*
X187795000Y-75692000D02*
X187045001Y-76441999D01*
X142113000Y-85090000D02*
X136525000Y-79502000D01*
X186575001Y-76441999D02*
X185547000Y-77470000D01*
X187045001Y-76441999D02*
X186575001Y-76441999D01*
X185547000Y-77470000D02*
X185547000Y-79502000D01*
X185547000Y-79502000D02*
X181483000Y-83566000D01*
X181483000Y-83566000D02*
X150495000Y-83566000D01*
X181356000Y-82042000D02*
X166243000Y-82042000D01*
X184785000Y-78613000D02*
X181356000Y-82042000D01*
X186159545Y-62838635D02*
X186159545Y-63610001D01*
X187248180Y-61750000D02*
X186159545Y-62838635D01*
X186159545Y-63610001D02*
X186094545Y-63675001D01*
X186094545Y-63675001D02*
X185323179Y-63675001D01*
X185323179Y-63675001D02*
X184785000Y-64213180D01*
X184785000Y-64213180D02*
X184785000Y-78613000D01*
X170307000Y-89154000D02*
X174625000Y-89154000D01*
X174625000Y-89154000D02*
X180086000Y-94615000D01*
X186223500Y-101050500D02*
X186223500Y-99260000D01*
X184404000Y-102870000D02*
X186223500Y-101050500D01*
X158223500Y-102380500D02*
X158223500Y-99260000D01*
X154559000Y-106045000D02*
X158223500Y-102380500D01*
X181159004Y-80899000D02*
X161855685Y-80899000D01*
X184023000Y-78035004D02*
X181159004Y-80899000D01*
X184023000Y-62811544D02*
X184023000Y-78035004D01*
X185084544Y-61750000D02*
X184023000Y-62811544D01*
X161855685Y-80899000D02*
X161290000Y-80899000D01*
X139972999Y-78975001D02*
X139573000Y-79375000D01*
X140462000Y-78486000D02*
X139972999Y-78975001D01*
X177165000Y-78486000D02*
X140462000Y-78486000D01*
X179705000Y-75946000D02*
X177165000Y-78486000D01*
X173482000Y-92964000D02*
X173482000Y-94451000D01*
X173482000Y-94451000D02*
X173355000Y-94578000D01*
X174752000Y-92964000D02*
X174752000Y-95503998D01*
X174752000Y-95503998D02*
X174625000Y-95630998D01*
X124999000Y-102616000D02*
X124619000Y-102236000D01*
X132207000Y-102616000D02*
X124999000Y-102616000D01*
X138684000Y-109093000D02*
X132207000Y-102616000D01*
X159258000Y-109093000D02*
X138684000Y-109093000D01*
X164723500Y-99260000D02*
X164723500Y-103627500D01*
X164723500Y-103627500D02*
X159258000Y-109093000D01*
X146574000Y-96012000D02*
X142787999Y-99798001D01*
X173932996Y-96012000D02*
X146574000Y-96012000D01*
X187795000Y-88392000D02*
X179830998Y-96356002D01*
X142787999Y-99798001D02*
X142084000Y-100502000D01*
X174276998Y-96356002D02*
X173932996Y-96012000D01*
X179830998Y-96356002D02*
X174276998Y-96356002D01*
X180757272Y-61750000D02*
X180757272Y-74585272D01*
X180757272Y-74585272D02*
X182099001Y-75927001D01*
X182099001Y-75927001D02*
X182499000Y-76327000D01*
X176675999Y-85452001D02*
X176276000Y-85852000D01*
X187795000Y-84392000D02*
X177736000Y-84392000D01*
X177736000Y-84392000D02*
X176675999Y-85452001D01*
X141351000Y-85852000D02*
X175710315Y-85852000D01*
X136144000Y-80645000D02*
X141351000Y-85852000D01*
X113792000Y-80645000D02*
X136144000Y-80645000D01*
X106045000Y-88392000D02*
X113792000Y-80645000D01*
X92075000Y-88392000D02*
X106045000Y-88392000D01*
X175710315Y-85852000D02*
X176276000Y-85852000D01*
X182898999Y-74149001D02*
X182499000Y-74549000D01*
X183388000Y-73660000D02*
X182898999Y-74149001D01*
X182920908Y-61750000D02*
X183388000Y-62217092D01*
X183388000Y-62217092D02*
X183388000Y-73660000D01*
X135987999Y-101205999D02*
X135284000Y-100502000D01*
X136382000Y-101600000D02*
X135987999Y-101205999D01*
X143256000Y-101600000D02*
X136382000Y-101600000D01*
X147921010Y-96934990D02*
X143256000Y-101600000D01*
X185420000Y-93853000D02*
X182338010Y-96934990D01*
X182338010Y-96934990D02*
X147921010Y-96934990D01*
X104475001Y-103796999D02*
X105275000Y-102997000D01*
X99822000Y-104521000D02*
X103751000Y-104521000D01*
X103751000Y-104521000D02*
X104475001Y-103796999D01*
X96139000Y-100838000D02*
X99822000Y-104521000D01*
X90424000Y-86043000D02*
X90424000Y-95123000D01*
X92075000Y-84392000D02*
X90424000Y-86043000D01*
X90424000Y-95123000D02*
X91694000Y-96393000D01*
X91694000Y-96393000D02*
X93726000Y-96393000D01*
X93726000Y-96393000D02*
X96139000Y-98806000D01*
X96139000Y-98806000D02*
X96139000Y-100838000D01*
X187045001Y-93141999D02*
X187795000Y-92392000D01*
X186182000Y-94005000D02*
X187045001Y-93141999D01*
X186182000Y-94742000D02*
X186182000Y-94005000D01*
X176657000Y-103251000D02*
X177673000Y-103251000D01*
X177673000Y-103251000D02*
X186182000Y-94742000D01*
X140264989Y-87141999D02*
X134892999Y-81770009D01*
X187045001Y-87141999D02*
X140264989Y-87141999D01*
X134892999Y-81770009D02*
X134493000Y-81370010D01*
X187795000Y-86392000D02*
X187045001Y-87141999D01*
X105070320Y-90392000D02*
X113089183Y-82373137D01*
X113089183Y-82373137D02*
X113489182Y-81973138D01*
X92075000Y-90392000D02*
X105070320Y-90392000D01*
D28*
G36*
X189294001Y-70923875D02*
G01*
X189287795Y-70905912D01*
X189194814Y-70731956D01*
X188930413Y-70636192D01*
X187974605Y-71592000D01*
X188930413Y-72547808D01*
X189194814Y-72452044D01*
X189294001Y-72248155D01*
X189294001Y-76167572D01*
X189294000Y-76167582D01*
X189294000Y-79123873D01*
X189287795Y-79105912D01*
X189194814Y-78931956D01*
X188930413Y-78836192D01*
X187974605Y-79792000D01*
X188930413Y-80747808D01*
X189194814Y-80652044D01*
X189294000Y-80448156D01*
X189294000Y-81623873D01*
X189287795Y-81605912D01*
X189194814Y-81431956D01*
X188930413Y-81336192D01*
X187974605Y-82292000D01*
X188930413Y-83247808D01*
X189194814Y-83152044D01*
X189294000Y-82948156D01*
X189294000Y-93823874D01*
X189287795Y-93805912D01*
X189194814Y-93631956D01*
X188930413Y-93536192D01*
X187974605Y-94492000D01*
X188930413Y-95447808D01*
X189194814Y-95352044D01*
X189294001Y-95148155D01*
X189294001Y-100184568D01*
X189194533Y-100131401D01*
X188914610Y-100046487D01*
X188623500Y-100017815D01*
X188332389Y-100046487D01*
X188052466Y-100131401D01*
X187858500Y-100235078D01*
X187858500Y-98179678D01*
X187834843Y-97939484D01*
X187741352Y-97631285D01*
X187589531Y-97347248D01*
X187385214Y-97098286D01*
X187136251Y-96893969D01*
X186852214Y-96742148D01*
X186544015Y-96648657D01*
X186223500Y-96617089D01*
X185902984Y-96648657D01*
X185594785Y-96742148D01*
X185310748Y-96893969D01*
X185061786Y-97098286D01*
X184857469Y-97347249D01*
X184705648Y-97631286D01*
X184612157Y-97939485D01*
X184588500Y-98179679D01*
X184588501Y-100340322D01*
X184612158Y-100580516D01*
X184705649Y-100888715D01*
X184857470Y-101172752D01*
X184933637Y-101265562D01*
X184364199Y-101835000D01*
X184302061Y-101835000D01*
X184102102Y-101874774D01*
X183913744Y-101952795D01*
X183744226Y-102066063D01*
X183600063Y-102210226D01*
X183486795Y-102379744D01*
X183408774Y-102568102D01*
X183369000Y-102768061D01*
X183369000Y-102971939D01*
X183408774Y-103171898D01*
X183486795Y-103360256D01*
X183600063Y-103529774D01*
X183744226Y-103673937D01*
X183913744Y-103787205D01*
X184102102Y-103865226D01*
X184302061Y-103905000D01*
X184505939Y-103905000D01*
X184705898Y-103865226D01*
X184894256Y-103787205D01*
X185063774Y-103673937D01*
X185207937Y-103529774D01*
X185321205Y-103360256D01*
X185399226Y-103171898D01*
X185439000Y-102971939D01*
X185439000Y-102909801D01*
X186470187Y-101878614D01*
X186544016Y-101871343D01*
X186852215Y-101777852D01*
X187136252Y-101626031D01*
X187138500Y-101624186D01*
X187138501Y-104136812D01*
X187081817Y-104096843D01*
X186770122Y-103958469D01*
X186619622Y-103920825D01*
X186350500Y-104038875D01*
X186350500Y-106383000D01*
X187958500Y-106383000D01*
X187958500Y-105838373D01*
X188052467Y-105888599D01*
X188332390Y-105973513D01*
X188623500Y-106002185D01*
X188914611Y-105973513D01*
X189194534Y-105888599D01*
X189294001Y-105835433D01*
X189294001Y-111100000D01*
X132113312Y-111100000D01*
X132169369Y-111061974D01*
X132361354Y-110867284D01*
X132511668Y-110638880D01*
X132614534Y-110385540D01*
X132666000Y-110117000D01*
X132666000Y-109363000D01*
X131404000Y-109363000D01*
X131404000Y-109383000D01*
X131150000Y-109383000D01*
X131150000Y-109363000D01*
X129888000Y-109363000D01*
X129888000Y-110117000D01*
X129939466Y-110385540D01*
X130042332Y-110638880D01*
X130192646Y-110867284D01*
X130384631Y-111061974D01*
X130440688Y-111100000D01*
X128972218Y-111100000D01*
X129106469Y-110902091D01*
X129212870Y-110650215D01*
X129227286Y-110577814D01*
X129104677Y-110363000D01*
X127254000Y-110363000D01*
X127254000Y-110383000D01*
X127000000Y-110383000D01*
X127000000Y-110363000D01*
X125149323Y-110363000D01*
X125026714Y-110577814D01*
X125041130Y-110650215D01*
X125147531Y-110902091D01*
X125281782Y-111100000D01*
X90614000Y-111100000D01*
X90614000Y-107736000D01*
X122977280Y-107736000D01*
X123004098Y-108008291D01*
X123083523Y-108270119D01*
X123212501Y-108511420D01*
X123386077Y-108722923D01*
X123597580Y-108896499D01*
X123838881Y-109025477D01*
X124100709Y-109104902D01*
X124304770Y-109125000D01*
X125536205Y-109125000D01*
X125495716Y-109151646D01*
X125301026Y-109343631D01*
X125147531Y-109569909D01*
X125041130Y-109821785D01*
X125026714Y-109894186D01*
X125149323Y-110109000D01*
X127000000Y-110109000D01*
X127000000Y-110089000D01*
X127254000Y-110089000D01*
X127254000Y-110109000D01*
X129104677Y-110109000D01*
X129227286Y-109894186D01*
X129212870Y-109821785D01*
X129106469Y-109569909D01*
X128952974Y-109343631D01*
X128758284Y-109151646D01*
X128529880Y-109001332D01*
X128276540Y-108898466D01*
X128008000Y-108847000D01*
X126716735Y-108847000D01*
X126867923Y-108722923D01*
X127041499Y-108511420D01*
X127125107Y-108355000D01*
X129888000Y-108355000D01*
X129888000Y-109109000D01*
X131150000Y-109109000D01*
X131150000Y-109089000D01*
X131404000Y-109089000D01*
X131404000Y-109109000D01*
X132666000Y-109109000D01*
X132666000Y-108355000D01*
X132614534Y-108086460D01*
X132565000Y-107964467D01*
X132565000Y-106129000D01*
X132819000Y-106129000D01*
X132819000Y-108172155D01*
X133048890Y-108293476D01*
X133142953Y-108272563D01*
X133411426Y-108157291D01*
X133652252Y-107991857D01*
X133856176Y-107782619D01*
X134015361Y-107537618D01*
X134123690Y-107266269D01*
X134177000Y-106979000D01*
X134177000Y-106129000D01*
X132819000Y-106129000D01*
X132565000Y-106129000D01*
X131207000Y-106129000D01*
X131207000Y-106979000D01*
X131228156Y-107093000D01*
X131149998Y-107093000D01*
X131149998Y-107258322D01*
X130935186Y-107135714D01*
X130862785Y-107150130D01*
X130610909Y-107256531D01*
X130384631Y-107410026D01*
X130192646Y-107604716D01*
X130042332Y-107833120D01*
X129939466Y-108086460D01*
X129888000Y-108355000D01*
X127125107Y-108355000D01*
X127170477Y-108270119D01*
X127249902Y-108008291D01*
X127276720Y-107736000D01*
X127249902Y-107463709D01*
X127170477Y-107201881D01*
X127041499Y-106960580D01*
X126867923Y-106749077D01*
X126656420Y-106575501D01*
X126415119Y-106446523D01*
X126153291Y-106367098D01*
X125949230Y-106347000D01*
X124304770Y-106347000D01*
X124100709Y-106367098D01*
X123838881Y-106446523D01*
X123597580Y-106575501D01*
X123386077Y-106749077D01*
X123212501Y-106960580D01*
X123083523Y-107201881D01*
X123004098Y-107463709D01*
X122977280Y-107736000D01*
X90614000Y-107736000D01*
X90614000Y-102304499D01*
X91372106Y-102304499D01*
X91588228Y-102671258D01*
X92048105Y-102911938D01*
X92546098Y-103058275D01*
X93063071Y-103104648D01*
X93579159Y-103049273D01*
X94074526Y-102894279D01*
X94491772Y-102671258D01*
X94707894Y-102304499D01*
X93040000Y-100636605D01*
X91372106Y-102304499D01*
X90614000Y-102304499D01*
X90614000Y-101512628D01*
X90825742Y-101908772D01*
X91192501Y-102124894D01*
X92860395Y-100457000D01*
X91192501Y-98789106D01*
X90825742Y-99005228D01*
X90614000Y-99409812D01*
X90614000Y-96387802D01*
X91130200Y-96904002D01*
X91153999Y-96933001D01*
X91269724Y-97027974D01*
X91401753Y-97098546D01*
X91545014Y-97142003D01*
X91656667Y-97153000D01*
X91656676Y-97153000D01*
X91693999Y-97156676D01*
X91731322Y-97153000D01*
X93411199Y-97153000D01*
X94787795Y-98529597D01*
X94707893Y-98609499D01*
X94491772Y-98242742D01*
X94031895Y-98002062D01*
X93533902Y-97855725D01*
X93016929Y-97809352D01*
X92500841Y-97864727D01*
X92005474Y-98019721D01*
X91588228Y-98242742D01*
X91372106Y-98609501D01*
X93040000Y-100277395D01*
X93054143Y-100263253D01*
X93233748Y-100442858D01*
X93219605Y-100457000D01*
X94887499Y-102124894D01*
X95254258Y-101908772D01*
X95494938Y-101448895D01*
X95537714Y-101303325D01*
X95570067Y-101342746D01*
X95599000Y-101378001D01*
X95627998Y-101401799D01*
X99258201Y-105032003D01*
X99281999Y-105061001D01*
X99310997Y-105084799D01*
X99397724Y-105155974D01*
X99529753Y-105226546D01*
X99673014Y-105270003D01*
X99822000Y-105284677D01*
X99859333Y-105281000D01*
X103713678Y-105281000D01*
X103751000Y-105284676D01*
X103788322Y-105281000D01*
X103788333Y-105281000D01*
X103899986Y-105270003D01*
X104043247Y-105226546D01*
X104175276Y-105155974D01*
X104291001Y-105061001D01*
X104314803Y-105031998D01*
X104951114Y-104395688D01*
X105133665Y-104432000D01*
X105416335Y-104432000D01*
X105693574Y-104376853D01*
X105954727Y-104268680D01*
X106189759Y-104111637D01*
X106389637Y-103911759D01*
X106420000Y-103866317D01*
X106450363Y-103911759D01*
X106650241Y-104111637D01*
X106885273Y-104268680D01*
X107146426Y-104376853D01*
X107423665Y-104432000D01*
X107706335Y-104432000D01*
X107983574Y-104376853D01*
X108244727Y-104268680D01*
X108479759Y-104111637D01*
X108679637Y-103911759D01*
X108710000Y-103866317D01*
X108740363Y-103911759D01*
X108940241Y-104111637D01*
X109175273Y-104268680D01*
X109436426Y-104376853D01*
X109713665Y-104432000D01*
X109996335Y-104432000D01*
X110273574Y-104376853D01*
X110534727Y-104268680D01*
X110769759Y-104111637D01*
X110969637Y-103911759D01*
X111126680Y-103676727D01*
X111234853Y-103415574D01*
X111290000Y-103138335D01*
X111290000Y-102855665D01*
X111234853Y-102578426D01*
X111126680Y-102317273D01*
X111118145Y-102304499D01*
X116372106Y-102304499D01*
X116588228Y-102671258D01*
X117048105Y-102911938D01*
X117546098Y-103058275D01*
X118063071Y-103104648D01*
X118579159Y-103049273D01*
X119074526Y-102894279D01*
X119491772Y-102671258D01*
X119707894Y-102304499D01*
X118040000Y-100636605D01*
X116372106Y-102304499D01*
X111118145Y-102304499D01*
X110969637Y-102082241D01*
X110769759Y-101882363D01*
X110760941Y-101876471D01*
X110788184Y-101883300D01*
X111070512Y-101897217D01*
X111350130Y-101855787D01*
X111616292Y-101760603D01*
X111741514Y-101693671D01*
X111813097Y-101449702D01*
X111000000Y-100636605D01*
X110186903Y-101449702D01*
X110233706Y-101609217D01*
X109996335Y-101562000D01*
X109713665Y-101562000D01*
X109476294Y-101609217D01*
X109523097Y-101449702D01*
X108710000Y-100636605D01*
X107896903Y-101449702D01*
X107943706Y-101609217D01*
X107706335Y-101562000D01*
X107423665Y-101562000D01*
X107186294Y-101609217D01*
X107233097Y-101449702D01*
X106420000Y-100636605D01*
X105606903Y-101449702D01*
X105653706Y-101609217D01*
X105416335Y-101562000D01*
X105133665Y-101562000D01*
X105027609Y-101583096D01*
X105044759Y-101571637D01*
X105244637Y-101371759D01*
X105331372Y-101241951D01*
X105427298Y-101270097D01*
X106240395Y-100457000D01*
X106599605Y-100457000D01*
X107412702Y-101270097D01*
X107565000Y-101225411D01*
X107717298Y-101270097D01*
X108530395Y-100457000D01*
X108889605Y-100457000D01*
X109702702Y-101270097D01*
X109855000Y-101225411D01*
X110007298Y-101270097D01*
X110820395Y-100457000D01*
X111179605Y-100457000D01*
X111992702Y-101270097D01*
X112236671Y-101198514D01*
X112357571Y-100943004D01*
X112426300Y-100668816D01*
X112435603Y-100480071D01*
X115392352Y-100480071D01*
X115447727Y-100996159D01*
X115602721Y-101491526D01*
X115825742Y-101908772D01*
X116192501Y-102124894D01*
X117860395Y-100457000D01*
X118219605Y-100457000D01*
X119887499Y-102124894D01*
X120254258Y-101908772D01*
X120494938Y-101448895D01*
X120641275Y-100950902D01*
X120685040Y-100463000D01*
X121288000Y-100463000D01*
X121288000Y-101217000D01*
X121339466Y-101485540D01*
X121442332Y-101738880D01*
X121592646Y-101967284D01*
X121784631Y-102161974D01*
X122010909Y-102315469D01*
X122262785Y-102421870D01*
X122335186Y-102436286D01*
X122550000Y-102313677D01*
X122550000Y-100463000D01*
X121288000Y-100463000D01*
X120685040Y-100463000D01*
X120687648Y-100433929D01*
X120632273Y-99917841D01*
X120487456Y-99455000D01*
X121288000Y-99455000D01*
X121288000Y-100209000D01*
X122550000Y-100209000D01*
X122550000Y-98358323D01*
X122804000Y-98358323D01*
X122804000Y-100209000D01*
X124066000Y-100209000D01*
X124066000Y-99455000D01*
X124014534Y-99186460D01*
X123911668Y-98933120D01*
X123761354Y-98704716D01*
X123693593Y-98636000D01*
X124977280Y-98636000D01*
X125004098Y-98908291D01*
X125083523Y-99170119D01*
X125212501Y-99411420D01*
X125386077Y-99622923D01*
X125597580Y-99796499D01*
X125838881Y-99925477D01*
X126100709Y-100004902D01*
X126304770Y-100025000D01*
X127949230Y-100025000D01*
X128153291Y-100004902D01*
X128415119Y-99925477D01*
X128656420Y-99796499D01*
X128867923Y-99622923D01*
X129005733Y-99455000D01*
X129888000Y-99455000D01*
X129888000Y-100209000D01*
X131150000Y-100209000D01*
X131150000Y-98358323D01*
X131404000Y-98358323D01*
X131404000Y-100209000D01*
X132666000Y-100209000D01*
X132666000Y-99455000D01*
X132614534Y-99186460D01*
X132511668Y-98933120D01*
X132361354Y-98704716D01*
X132169369Y-98510026D01*
X131943091Y-98356531D01*
X131691215Y-98250130D01*
X131618814Y-98235714D01*
X131404000Y-98358323D01*
X131150000Y-98358323D01*
X130935186Y-98235714D01*
X130862785Y-98250130D01*
X130610909Y-98356531D01*
X130384631Y-98510026D01*
X130192646Y-98704716D01*
X130042332Y-98933120D01*
X129939466Y-99186460D01*
X129888000Y-99455000D01*
X129005733Y-99455000D01*
X129041499Y-99411420D01*
X129170477Y-99170119D01*
X129249902Y-98908291D01*
X129276720Y-98636000D01*
X129249902Y-98363709D01*
X129170477Y-98101881D01*
X129041499Y-97860580D01*
X128867923Y-97649077D01*
X128656420Y-97475501D01*
X128415119Y-97346523D01*
X128153291Y-97267098D01*
X127949230Y-97247000D01*
X126304770Y-97247000D01*
X126100709Y-97267098D01*
X125838881Y-97346523D01*
X125597580Y-97475501D01*
X125386077Y-97649077D01*
X125212501Y-97860580D01*
X125083523Y-98101881D01*
X125004098Y-98363709D01*
X124977280Y-98636000D01*
X123693593Y-98636000D01*
X123569369Y-98510026D01*
X123343091Y-98356531D01*
X123091215Y-98250130D01*
X123018814Y-98235714D01*
X122804000Y-98358323D01*
X122550000Y-98358323D01*
X122335186Y-98235714D01*
X122262785Y-98250130D01*
X122010909Y-98356531D01*
X121784631Y-98510026D01*
X121592646Y-98704716D01*
X121442332Y-98933120D01*
X121339466Y-99186460D01*
X121288000Y-99455000D01*
X120487456Y-99455000D01*
X120477279Y-99422474D01*
X120254258Y-99005228D01*
X119887499Y-98789106D01*
X118219605Y-100457000D01*
X117860395Y-100457000D01*
X116192501Y-98789106D01*
X115825742Y-99005228D01*
X115585062Y-99465105D01*
X115438725Y-99963098D01*
X115392352Y-100480071D01*
X112435603Y-100480071D01*
X112440217Y-100386488D01*
X112398787Y-100106870D01*
X112303603Y-99840708D01*
X112236671Y-99715486D01*
X111992702Y-99643903D01*
X111179605Y-100457000D01*
X110820395Y-100457000D01*
X110007298Y-99643903D01*
X109855000Y-99688589D01*
X109702702Y-99643903D01*
X108889605Y-100457000D01*
X108530395Y-100457000D01*
X107717298Y-99643903D01*
X107565000Y-99688589D01*
X107412702Y-99643903D01*
X106599605Y-100457000D01*
X106240395Y-100457000D01*
X105427298Y-99643903D01*
X105331372Y-99672049D01*
X105244637Y-99542241D01*
X105044759Y-99342363D01*
X105027609Y-99330904D01*
X105133665Y-99352000D01*
X105416335Y-99352000D01*
X105653706Y-99304783D01*
X105606903Y-99464298D01*
X106420000Y-100277395D01*
X107233097Y-99464298D01*
X107186294Y-99304783D01*
X107423665Y-99352000D01*
X107706335Y-99352000D01*
X107943706Y-99304783D01*
X107896903Y-99464298D01*
X108710000Y-100277395D01*
X109523097Y-99464298D01*
X109491049Y-99355072D01*
X110218951Y-99355072D01*
X110186903Y-99464298D01*
X111000000Y-100277395D01*
X111813097Y-99464298D01*
X111741514Y-99220329D01*
X111486004Y-99099429D01*
X111211816Y-99030700D01*
X111207457Y-99030485D01*
X111244502Y-98961180D01*
X111280812Y-98841482D01*
X111293072Y-98717000D01*
X111293072Y-98609501D01*
X116372106Y-98609501D01*
X118040000Y-100277395D01*
X119707894Y-98609501D01*
X119491772Y-98242742D01*
X119031895Y-98002062D01*
X118533902Y-97855725D01*
X118016929Y-97809352D01*
X117500841Y-97864727D01*
X117005474Y-98019721D01*
X116588228Y-98242742D01*
X116372106Y-98609501D01*
X111293072Y-98609501D01*
X111293072Y-97117000D01*
X111280812Y-96992518D01*
X111244502Y-96872820D01*
X111185537Y-96762506D01*
X111106185Y-96665815D01*
X111009494Y-96586463D01*
X110899180Y-96527498D01*
X110779482Y-96491188D01*
X110655000Y-96478928D01*
X109055000Y-96478928D01*
X108930518Y-96491188D01*
X108810820Y-96527498D01*
X108700506Y-96586463D01*
X108603815Y-96665815D01*
X108524463Y-96762506D01*
X108495008Y-96817612D01*
X108479759Y-96802363D01*
X108244727Y-96645320D01*
X107983574Y-96537147D01*
X107706335Y-96482000D01*
X107423665Y-96482000D01*
X107146426Y-96537147D01*
X106885273Y-96645320D01*
X106650241Y-96802363D01*
X106450363Y-97002241D01*
X106420000Y-97047683D01*
X106389637Y-97002241D01*
X106189759Y-96802363D01*
X105954727Y-96645320D01*
X105693574Y-96537147D01*
X105416335Y-96482000D01*
X105133665Y-96482000D01*
X104856426Y-96537147D01*
X104595273Y-96645320D01*
X104360241Y-96802363D01*
X104160363Y-97002241D01*
X104130000Y-97047683D01*
X104099637Y-97002241D01*
X103899759Y-96802363D01*
X103664727Y-96645320D01*
X103403574Y-96537147D01*
X103126335Y-96482000D01*
X102843665Y-96482000D01*
X102566426Y-96537147D01*
X102305273Y-96645320D01*
X102070241Y-96802363D01*
X101870363Y-97002241D01*
X101783628Y-97132049D01*
X101687702Y-97103903D01*
X100874605Y-97917000D01*
X101687702Y-98730097D01*
X101783628Y-98701951D01*
X101870363Y-98831759D01*
X102070241Y-99031637D01*
X102079059Y-99037529D01*
X102051816Y-99030700D01*
X101769488Y-99016783D01*
X101489870Y-99058213D01*
X101461551Y-99068340D01*
X101508097Y-98909702D01*
X100695000Y-98096605D01*
X99881903Y-98909702D01*
X99953486Y-99153671D01*
X100208996Y-99274571D01*
X100483184Y-99343300D01*
X100765512Y-99357217D01*
X101045130Y-99315787D01*
X101073449Y-99305660D01*
X101026903Y-99464298D01*
X101840000Y-100277395D01*
X102653097Y-99464298D01*
X102606294Y-99304783D01*
X102843665Y-99352000D01*
X103126335Y-99352000D01*
X103232391Y-99330904D01*
X103215241Y-99342363D01*
X103015363Y-99542241D01*
X102928628Y-99672049D01*
X102832702Y-99643903D01*
X102019605Y-100457000D01*
X102832702Y-101270097D01*
X102928628Y-101241951D01*
X103015363Y-101371759D01*
X103215241Y-101571637D01*
X103232391Y-101583096D01*
X103126335Y-101562000D01*
X102843665Y-101562000D01*
X102606294Y-101609217D01*
X102653097Y-101449702D01*
X101840000Y-100636605D01*
X101026903Y-101449702D01*
X101073706Y-101609217D01*
X100836335Y-101562000D01*
X100553665Y-101562000D01*
X100276426Y-101617147D01*
X100015273Y-101725320D01*
X99780241Y-101882363D01*
X99580363Y-102082241D01*
X99423320Y-102317273D01*
X99315147Y-102578426D01*
X99260000Y-102855665D01*
X99260000Y-102884198D01*
X96903314Y-100527512D01*
X100399783Y-100527512D01*
X100441213Y-100807130D01*
X100536397Y-101073292D01*
X100603329Y-101198514D01*
X100847298Y-101270097D01*
X101660395Y-100457000D01*
X100847298Y-99643903D01*
X100603329Y-99715486D01*
X100482429Y-99970996D01*
X100413700Y-100245184D01*
X100399783Y-100527512D01*
X96903314Y-100527512D01*
X96899000Y-100523199D01*
X96899000Y-98843322D01*
X96902676Y-98805999D01*
X96899000Y-98768676D01*
X96899000Y-98768667D01*
X96888003Y-98657014D01*
X96844546Y-98513753D01*
X96773974Y-98381724D01*
X96679001Y-98265999D01*
X96650004Y-98242202D01*
X96395314Y-97987512D01*
X99254783Y-97987512D01*
X99296213Y-98267130D01*
X99391397Y-98533292D01*
X99458329Y-98658514D01*
X99702298Y-98730097D01*
X100515395Y-97917000D01*
X99702298Y-97103903D01*
X99458329Y-97175486D01*
X99337429Y-97430996D01*
X99268700Y-97705184D01*
X99254783Y-97987512D01*
X96395314Y-97987512D01*
X95332100Y-96924298D01*
X99881903Y-96924298D01*
X100695000Y-97737395D01*
X101508097Y-96924298D01*
X101436514Y-96680329D01*
X101181004Y-96559429D01*
X100906816Y-96490700D01*
X100624488Y-96476783D01*
X100344870Y-96518213D01*
X100078708Y-96613397D01*
X99953486Y-96680329D01*
X99881903Y-96924298D01*
X95332100Y-96924298D01*
X94289804Y-95882003D01*
X94266001Y-95852999D01*
X94150276Y-95758026D01*
X94018247Y-95687454D01*
X93874986Y-95643997D01*
X93763333Y-95633000D01*
X93763322Y-95633000D01*
X93726000Y-95629324D01*
X93688678Y-95633000D01*
X93256558Y-95633000D01*
X93326083Y-95563475D01*
X93210415Y-95447807D01*
X93474814Y-95352044D01*
X93615704Y-95062429D01*
X93697384Y-94750892D01*
X93716718Y-94429405D01*
X93672961Y-94110325D01*
X93567795Y-93805912D01*
X93474814Y-93631956D01*
X93210413Y-93536192D01*
X92254605Y-94492000D01*
X92268748Y-94506143D01*
X92089143Y-94685748D01*
X92075000Y-94671605D01*
X92060858Y-94685748D01*
X91881253Y-94506143D01*
X91895395Y-94492000D01*
X91881253Y-94477858D01*
X92060858Y-94298253D01*
X92075000Y-94312395D01*
X92842492Y-93544903D01*
X92957886Y-93467799D01*
X93150799Y-93274886D01*
X93302371Y-93048043D01*
X93406775Y-92795989D01*
X93460000Y-92528411D01*
X93460000Y-92255589D01*
X93406775Y-91988011D01*
X93302371Y-91735957D01*
X93150799Y-91509114D01*
X93033685Y-91392000D01*
X93150799Y-91274886D01*
X93232909Y-91152000D01*
X105032998Y-91152000D01*
X105070320Y-91155676D01*
X105107642Y-91152000D01*
X105107653Y-91152000D01*
X105219306Y-91141003D01*
X105362567Y-91097546D01*
X105494596Y-91026974D01*
X105610321Y-90932001D01*
X105634124Y-90902997D01*
X105825249Y-90711872D01*
X108001000Y-90711872D01*
X108001000Y-91152128D01*
X108086890Y-91583925D01*
X108255369Y-91990669D01*
X108499962Y-92356729D01*
X108811271Y-92668038D01*
X109177331Y-92912631D01*
X109584075Y-93081110D01*
X110015872Y-93167000D01*
X110456128Y-93167000D01*
X110887925Y-93081110D01*
X111294669Y-92912631D01*
X111660729Y-92668038D01*
X111972038Y-92356729D01*
X112137650Y-92108872D01*
X159944000Y-92108872D01*
X159944000Y-92549128D01*
X160029890Y-92980925D01*
X160198369Y-93387669D01*
X160442962Y-93753729D01*
X160754271Y-94065038D01*
X161120331Y-94309631D01*
X161527075Y-94478110D01*
X161958872Y-94564000D01*
X162399128Y-94564000D01*
X162830925Y-94478110D01*
X163237669Y-94309631D01*
X163603729Y-94065038D01*
X163915038Y-93753729D01*
X164159631Y-93387669D01*
X164328110Y-92980925D01*
X164414000Y-92549128D01*
X164414000Y-92108872D01*
X164328110Y-91677075D01*
X164159631Y-91270331D01*
X163915038Y-90904271D01*
X163603729Y-90592962D01*
X163237669Y-90348369D01*
X162830925Y-90179890D01*
X162399128Y-90094000D01*
X161958872Y-90094000D01*
X161527075Y-90179890D01*
X161120331Y-90348369D01*
X160754271Y-90592962D01*
X160442962Y-90904271D01*
X160198369Y-91270331D01*
X160029890Y-91677075D01*
X159944000Y-92108872D01*
X112137650Y-92108872D01*
X112216631Y-91990669D01*
X112385110Y-91583925D01*
X112471000Y-91152128D01*
X112471000Y-90711872D01*
X112385110Y-90280075D01*
X112216631Y-89873331D01*
X111972038Y-89507271D01*
X111660729Y-89195962D01*
X111294669Y-88951369D01*
X110887925Y-88782890D01*
X110456128Y-88697000D01*
X110015872Y-88697000D01*
X109584075Y-88782890D01*
X109177331Y-88951369D01*
X108811271Y-89195962D01*
X108499962Y-89507271D01*
X108255369Y-89873331D01*
X108086890Y-90280075D01*
X108001000Y-90711872D01*
X105825249Y-90711872D01*
X113528984Y-83008138D01*
X113591121Y-83008138D01*
X113791080Y-82968364D01*
X113979438Y-82890343D01*
X114148956Y-82777075D01*
X114293119Y-82632912D01*
X114406387Y-82463394D01*
X114484408Y-82275036D01*
X114524182Y-82075077D01*
X114524182Y-81871199D01*
X114484408Y-81671240D01*
X114406387Y-81482882D01*
X114354348Y-81405000D01*
X133458000Y-81405000D01*
X133458000Y-81471949D01*
X133497774Y-81671908D01*
X133575795Y-81860266D01*
X133689063Y-82029784D01*
X133833226Y-82173947D01*
X134002744Y-82287215D01*
X134191102Y-82365236D01*
X134391061Y-82405010D01*
X134453199Y-82405010D01*
X139701190Y-87653002D01*
X139724988Y-87682000D01*
X139753986Y-87705798D01*
X139840712Y-87776973D01*
X139936552Y-87828201D01*
X139972742Y-87847545D01*
X140116003Y-87891002D01*
X140227656Y-87901999D01*
X140227665Y-87901999D01*
X140264988Y-87905675D01*
X140302311Y-87901999D01*
X186498852Y-87901999D01*
X186463225Y-87988011D01*
X186410000Y-88255589D01*
X186410000Y-88528411D01*
X186438833Y-88673365D01*
X180996896Y-94115302D01*
X180889937Y-93955226D01*
X180745774Y-93811063D01*
X180576256Y-93697795D01*
X180387898Y-93619774D01*
X180187939Y-93580000D01*
X180125802Y-93580000D01*
X175188804Y-88643003D01*
X175165001Y-88613999D01*
X175049276Y-88519026D01*
X174917247Y-88448454D01*
X174773986Y-88404997D01*
X174662333Y-88394000D01*
X174662322Y-88394000D01*
X174625000Y-88390324D01*
X174587678Y-88394000D01*
X171010711Y-88394000D01*
X170966774Y-88350063D01*
X170797256Y-88236795D01*
X170608898Y-88158774D01*
X170408939Y-88119000D01*
X170205061Y-88119000D01*
X170005102Y-88158774D01*
X169816744Y-88236795D01*
X169647226Y-88350063D01*
X169503063Y-88494226D01*
X169389795Y-88663744D01*
X169311774Y-88852102D01*
X169272000Y-89052061D01*
X169272000Y-89255939D01*
X169311774Y-89455898D01*
X169389795Y-89644256D01*
X169503063Y-89813774D01*
X169647226Y-89957937D01*
X169816744Y-90071205D01*
X170005102Y-90149226D01*
X170205061Y-90189000D01*
X170408939Y-90189000D01*
X170608898Y-90149226D01*
X170797256Y-90071205D01*
X170966774Y-89957937D01*
X171010711Y-89914000D01*
X174310199Y-89914000D01*
X179051000Y-94654802D01*
X179051000Y-94716939D01*
X179090774Y-94916898D01*
X179168795Y-95105256D01*
X179282063Y-95274774D01*
X179426226Y-95418937D01*
X179586303Y-95525896D01*
X179516197Y-95596002D01*
X175660000Y-95596002D01*
X175660000Y-95529059D01*
X175620226Y-95329100D01*
X175542205Y-95140742D01*
X175512000Y-95095537D01*
X175512000Y-93667711D01*
X175555937Y-93623774D01*
X175669205Y-93454256D01*
X175747226Y-93265898D01*
X175787000Y-93065939D01*
X175787000Y-92862061D01*
X175747226Y-92662102D01*
X175669205Y-92473744D01*
X175555937Y-92304226D01*
X175411774Y-92160063D01*
X175242256Y-92046795D01*
X175053898Y-91968774D01*
X174853939Y-91929000D01*
X174650061Y-91929000D01*
X174450102Y-91968774D01*
X174261744Y-92046795D01*
X174117000Y-92143510D01*
X173972256Y-92046795D01*
X173783898Y-91968774D01*
X173583939Y-91929000D01*
X173380061Y-91929000D01*
X173180102Y-91968774D01*
X172991744Y-92046795D01*
X172822226Y-92160063D01*
X172678063Y-92304226D01*
X172564795Y-92473744D01*
X172486774Y-92662102D01*
X172447000Y-92862061D01*
X172447000Y-93065939D01*
X172486774Y-93265898D01*
X172564795Y-93454256D01*
X172678063Y-93623774D01*
X172722000Y-93667711D01*
X172722001Y-93756173D01*
X172695226Y-93774063D01*
X172551063Y-93918226D01*
X172437795Y-94087744D01*
X172359774Y-94276102D01*
X172320000Y-94476061D01*
X172320000Y-94679939D01*
X172359774Y-94879898D01*
X172437795Y-95068256D01*
X172551063Y-95237774D01*
X172565289Y-95252000D01*
X146611323Y-95252000D01*
X146574000Y-95248324D01*
X146536677Y-95252000D01*
X146536667Y-95252000D01*
X146425014Y-95262997D01*
X146281753Y-95306454D01*
X146149723Y-95377026D01*
X146098655Y-95418937D01*
X146033999Y-95471999D01*
X146010201Y-95500997D01*
X142320409Y-99190790D01*
X142201428Y-99214457D01*
X141957746Y-99315393D01*
X141738437Y-99461931D01*
X141551931Y-99648437D01*
X141405393Y-99867746D01*
X141304457Y-100111428D01*
X141253000Y-100370120D01*
X141253000Y-100633880D01*
X141294000Y-100840000D01*
X137090000Y-100840000D01*
X137131000Y-100633880D01*
X137131000Y-100370120D01*
X137079543Y-100111428D01*
X136978607Y-99867746D01*
X136832069Y-99648437D01*
X136645563Y-99461931D01*
X136426254Y-99315393D01*
X136182572Y-99214457D01*
X135923880Y-99163000D01*
X135660120Y-99163000D01*
X135401428Y-99214457D01*
X135157746Y-99315393D01*
X134938437Y-99461931D01*
X134751931Y-99648437D01*
X134605393Y-99867746D01*
X134504457Y-100111428D01*
X134453000Y-100370120D01*
X134453000Y-100633880D01*
X134504457Y-100892572D01*
X134605393Y-101136254D01*
X134751931Y-101355563D01*
X134938437Y-101542069D01*
X135157746Y-101688607D01*
X135311086Y-101752122D01*
X135209236Y-101789276D01*
X135107423Y-101843695D01*
X135047477Y-102077872D01*
X135792000Y-102822395D01*
X135806143Y-102808253D01*
X135985748Y-102987858D01*
X135971605Y-103002000D01*
X136716128Y-103746523D01*
X136874429Y-103706000D01*
X141249928Y-103706000D01*
X141262188Y-103830482D01*
X141298498Y-103950180D01*
X141357463Y-104060494D01*
X141436815Y-104157185D01*
X141533506Y-104236537D01*
X141643820Y-104295502D01*
X141763518Y-104331812D01*
X141888000Y-104344072D01*
X142306250Y-104341000D01*
X142465000Y-104182250D01*
X142465000Y-103129000D01*
X142719000Y-103129000D01*
X142719000Y-104182250D01*
X142877750Y-104341000D01*
X143296000Y-104344072D01*
X143420482Y-104331812D01*
X143540180Y-104295502D01*
X143650494Y-104236537D01*
X143747185Y-104157185D01*
X143826537Y-104060494D01*
X143885502Y-103950180D01*
X143921812Y-103830482D01*
X143934072Y-103706000D01*
X143931000Y-103287750D01*
X143772250Y-103129000D01*
X142719000Y-103129000D01*
X142465000Y-103129000D01*
X141411750Y-103129000D01*
X141253000Y-103287750D01*
X141249928Y-103706000D01*
X136874429Y-103706000D01*
X136950305Y-103686577D01*
X137061602Y-103447449D01*
X137124109Y-103191203D01*
X137135425Y-102927686D01*
X137095114Y-102667024D01*
X137004724Y-102419236D01*
X136973062Y-102360000D01*
X141250383Y-102360000D01*
X141253000Y-102716250D01*
X141411750Y-102875000D01*
X142465000Y-102875000D01*
X142465000Y-102855000D01*
X142719000Y-102855000D01*
X142719000Y-102875000D01*
X143772250Y-102875000D01*
X143931000Y-102716250D01*
X143934072Y-102298000D01*
X143921812Y-102173518D01*
X143885502Y-102053820D01*
X143882534Y-102048267D01*
X148235813Y-97694990D01*
X149186324Y-97694990D01*
X149112157Y-97939485D01*
X149088500Y-98179679D01*
X149088501Y-100235079D01*
X148894533Y-100131401D01*
X148614610Y-100046487D01*
X148323500Y-100017815D01*
X148032389Y-100046487D01*
X147752466Y-100131401D01*
X147494486Y-100269294D01*
X147268366Y-100454866D01*
X147082794Y-100680987D01*
X146944901Y-100938967D01*
X146859987Y-101218890D01*
X146838500Y-101437051D01*
X146838501Y-104203245D01*
X146652252Y-104012143D01*
X146411426Y-103846709D01*
X146142953Y-103731437D01*
X146048890Y-103710524D01*
X145819000Y-103831845D01*
X145819000Y-105875000D01*
X147177000Y-105875000D01*
X147177000Y-105453803D01*
X147268367Y-105565134D01*
X147494487Y-105750706D01*
X147752467Y-105888599D01*
X148032390Y-105973513D01*
X148323500Y-106002185D01*
X148614611Y-105973513D01*
X148894534Y-105888599D01*
X149152514Y-105750706D01*
X149378634Y-105565134D01*
X149564206Y-105339014D01*
X149702099Y-105081034D01*
X149787013Y-104801111D01*
X149808500Y-104582950D01*
X149808500Y-101624185D01*
X149810749Y-101626031D01*
X150094786Y-101777852D01*
X150402985Y-101871343D01*
X150723500Y-101902911D01*
X151044016Y-101871343D01*
X151352215Y-101777852D01*
X151636252Y-101626031D01*
X151885214Y-101421714D01*
X152089531Y-101172752D01*
X152241352Y-100888715D01*
X152334843Y-100580516D01*
X152358500Y-100340322D01*
X152358500Y-98179678D01*
X152334843Y-97939484D01*
X152260677Y-97694990D01*
X156686324Y-97694990D01*
X156612157Y-97939485D01*
X156588500Y-98179679D01*
X156588501Y-100340322D01*
X156612158Y-100580516D01*
X156705649Y-100888715D01*
X156857470Y-101172752D01*
X157061787Y-101421714D01*
X157310749Y-101626031D01*
X157463500Y-101707678D01*
X157463500Y-102065698D01*
X154519199Y-105010000D01*
X154457061Y-105010000D01*
X154257102Y-105049774D01*
X154068744Y-105127795D01*
X153899226Y-105241063D01*
X153755063Y-105385226D01*
X153641795Y-105554744D01*
X153563774Y-105743102D01*
X153524000Y-105943061D01*
X153524000Y-106146939D01*
X153563774Y-106346898D01*
X153641795Y-106535256D01*
X153755063Y-106704774D01*
X153899226Y-106848937D01*
X154068744Y-106962205D01*
X154257102Y-107040226D01*
X154457061Y-107080000D01*
X154660939Y-107080000D01*
X154860898Y-107040226D01*
X155049256Y-106962205D01*
X155218774Y-106848937D01*
X155362937Y-106704774D01*
X155476205Y-106535256D01*
X155554226Y-106346898D01*
X155594000Y-106146939D01*
X155594000Y-106084801D01*
X156555865Y-105122936D01*
X156546614Y-105146959D01*
X156488500Y-105483000D01*
X156488500Y-106383000D01*
X158096500Y-106383000D01*
X158096500Y-104038875D01*
X158350500Y-104038875D01*
X158350500Y-106383000D01*
X159958500Y-106383000D01*
X159958500Y-105483000D01*
X159900386Y-105146959D01*
X159777830Y-104828712D01*
X159595542Y-104540489D01*
X159360527Y-104293367D01*
X159081817Y-104096843D01*
X158770122Y-103958469D01*
X158619622Y-103920825D01*
X158350500Y-104038875D01*
X158096500Y-104038875D01*
X157827378Y-103920825D01*
X157734827Y-103943974D01*
X158734504Y-102944298D01*
X158763501Y-102920501D01*
X158858474Y-102804776D01*
X158929046Y-102672747D01*
X158972503Y-102529486D01*
X158983500Y-102417833D01*
X158983500Y-102417832D01*
X158987177Y-102380500D01*
X158983500Y-102343167D01*
X158983500Y-101707679D01*
X159136252Y-101626031D01*
X159385214Y-101421714D01*
X159589531Y-101172752D01*
X159741352Y-100888715D01*
X159834843Y-100580516D01*
X159858500Y-100340322D01*
X159858500Y-98179678D01*
X159834843Y-97939484D01*
X159760677Y-97694990D01*
X163186324Y-97694990D01*
X163112157Y-97939485D01*
X163088500Y-98179679D01*
X163088501Y-100340322D01*
X163112158Y-100580516D01*
X163205649Y-100888715D01*
X163357470Y-101172752D01*
X163561787Y-101421714D01*
X163810749Y-101626031D01*
X163963501Y-101707678D01*
X163963501Y-103312697D01*
X159958500Y-107317699D01*
X159958500Y-106637000D01*
X158350500Y-106637000D01*
X158350500Y-106657000D01*
X158096500Y-106657000D01*
X158096500Y-106637000D01*
X156488500Y-106637000D01*
X156488500Y-107537000D01*
X156546614Y-107873041D01*
X156669170Y-108191288D01*
X156758796Y-108333000D01*
X145819002Y-108333000D01*
X145819002Y-108172156D01*
X146048890Y-108293476D01*
X146142953Y-108272563D01*
X146411426Y-108157291D01*
X146652252Y-107991857D01*
X146856176Y-107782619D01*
X147015361Y-107537618D01*
X147123690Y-107266269D01*
X147177000Y-106979000D01*
X147177000Y-106129000D01*
X145819000Y-106129000D01*
X145819000Y-106149000D01*
X145565000Y-106149000D01*
X145565000Y-106129000D01*
X144207000Y-106129000D01*
X144207000Y-106979000D01*
X144260310Y-107266269D01*
X144368639Y-107537618D01*
X144527824Y-107782619D01*
X144731748Y-107991857D01*
X144972574Y-108157291D01*
X145241047Y-108272563D01*
X145335110Y-108293476D01*
X145564998Y-108172156D01*
X145564998Y-108333000D01*
X140457997Y-108333000D01*
X140727618Y-108225361D01*
X140972619Y-108066176D01*
X141181857Y-107862252D01*
X141347291Y-107621426D01*
X141462563Y-107352953D01*
X141483476Y-107258890D01*
X141362155Y-107029000D01*
X139319000Y-107029000D01*
X139319000Y-107049000D01*
X139065000Y-107049000D01*
X139065000Y-107029000D01*
X139045000Y-107029000D01*
X139045000Y-106775000D01*
X139065000Y-106775000D01*
X139065000Y-106755000D01*
X139319000Y-106755000D01*
X139319000Y-106775000D01*
X141362155Y-106775000D01*
X141483476Y-106545110D01*
X141462563Y-106451047D01*
X141347291Y-106182574D01*
X141181857Y-105941748D01*
X140972619Y-105737824D01*
X140727618Y-105578639D01*
X140456269Y-105470310D01*
X140169000Y-105417000D01*
X138215000Y-105417000D01*
X137927731Y-105470310D01*
X137656382Y-105578639D01*
X137411381Y-105737824D01*
X137202143Y-105941748D01*
X137036709Y-106182574D01*
X136980136Y-106314334D01*
X135690802Y-105025000D01*
X144207000Y-105025000D01*
X144207000Y-105875000D01*
X145565000Y-105875000D01*
X145565000Y-103831845D01*
X145335110Y-103710524D01*
X145241047Y-103731437D01*
X144972574Y-103846709D01*
X144731748Y-104012143D01*
X144527824Y-104221381D01*
X144368639Y-104466382D01*
X144260310Y-104737731D01*
X144207000Y-105025000D01*
X135690802Y-105025000D01*
X134591930Y-103926128D01*
X135047477Y-103926128D01*
X135107423Y-104160305D01*
X135346551Y-104271602D01*
X135602797Y-104334109D01*
X135866314Y-104345425D01*
X136126976Y-104305114D01*
X136374764Y-104214724D01*
X136476577Y-104160305D01*
X136536523Y-103926128D01*
X135792000Y-103181605D01*
X135047477Y-103926128D01*
X134591930Y-103926128D01*
X133742116Y-103076314D01*
X134448575Y-103076314D01*
X134488886Y-103336976D01*
X134579276Y-103584764D01*
X134633695Y-103686577D01*
X134867872Y-103746523D01*
X135612395Y-103002000D01*
X134867872Y-102257477D01*
X134633695Y-102317423D01*
X134522398Y-102556551D01*
X134459891Y-102812797D01*
X134448575Y-103076314D01*
X133742116Y-103076314D01*
X132770804Y-102105003D01*
X132747001Y-102075999D01*
X132631276Y-101981026D01*
X132499247Y-101910454D01*
X132415477Y-101885043D01*
X132511668Y-101738880D01*
X132614534Y-101485540D01*
X132666000Y-101217000D01*
X132666000Y-100463000D01*
X131404000Y-100463000D01*
X131404000Y-100483000D01*
X131150000Y-100483000D01*
X131150000Y-100463000D01*
X129888000Y-100463000D01*
X129888000Y-101217000D01*
X129939466Y-101485540D01*
X130042332Y-101738880D01*
X130119409Y-101856000D01*
X127217229Y-101856000D01*
X127170477Y-101701881D01*
X127041499Y-101460580D01*
X126867923Y-101249077D01*
X126656420Y-101075501D01*
X126415119Y-100946523D01*
X126153291Y-100867098D01*
X125949230Y-100847000D01*
X124304770Y-100847000D01*
X124100709Y-100867098D01*
X124066000Y-100877627D01*
X124066000Y-100463000D01*
X122804000Y-100463000D01*
X122804000Y-102313677D01*
X122995707Y-102423097D01*
X123004098Y-102508291D01*
X123083523Y-102770119D01*
X123212501Y-103011420D01*
X123386077Y-103222923D01*
X123597580Y-103396499D01*
X123838881Y-103525477D01*
X124100709Y-103604902D01*
X124304770Y-103625000D01*
X125076510Y-103625000D01*
X125004098Y-103863709D01*
X124977280Y-104136000D01*
X125004098Y-104408291D01*
X125083523Y-104670119D01*
X125212501Y-104911420D01*
X125386077Y-105122923D01*
X125597580Y-105296499D01*
X125838881Y-105425477D01*
X126100709Y-105504902D01*
X126304770Y-105525000D01*
X127949230Y-105525000D01*
X128153291Y-105504902D01*
X128415119Y-105425477D01*
X128656420Y-105296499D01*
X128867923Y-105122923D01*
X129041499Y-104911420D01*
X129170477Y-104670119D01*
X129249902Y-104408291D01*
X129276720Y-104136000D01*
X129249902Y-103863709D01*
X129170477Y-103601881D01*
X129049741Y-103376000D01*
X131892199Y-103376000D01*
X132246437Y-103730239D01*
X132241047Y-103731437D01*
X131972574Y-103846709D01*
X131731748Y-104012143D01*
X131527824Y-104221381D01*
X131368639Y-104466382D01*
X131260310Y-104737731D01*
X131207000Y-105025000D01*
X131207000Y-105875000D01*
X132565000Y-105875000D01*
X132565000Y-105855000D01*
X132819000Y-105855000D01*
X132819000Y-105875000D01*
X134177000Y-105875000D01*
X134177000Y-105660801D01*
X138120201Y-109604003D01*
X138143999Y-109633001D01*
X138259724Y-109727974D01*
X138391753Y-109798546D01*
X138535014Y-109842003D01*
X138646667Y-109853000D01*
X138646676Y-109853000D01*
X138683999Y-109856676D01*
X138721322Y-109853000D01*
X159220678Y-109853000D01*
X159258000Y-109856676D01*
X159295322Y-109853000D01*
X159295333Y-109853000D01*
X159406986Y-109842003D01*
X159550247Y-109798546D01*
X159682276Y-109727974D01*
X159798001Y-109633001D01*
X159821804Y-109603997D01*
X162788801Y-106637000D01*
X170488500Y-106637000D01*
X170488500Y-107537000D01*
X170546614Y-107873041D01*
X170669170Y-108191288D01*
X170851458Y-108479511D01*
X171086473Y-108726633D01*
X171365183Y-108923157D01*
X171676878Y-109061531D01*
X171827378Y-109099175D01*
X172096500Y-108981125D01*
X172096500Y-106637000D01*
X172350500Y-106637000D01*
X172350500Y-108981125D01*
X172619622Y-109099175D01*
X172770122Y-109061531D01*
X173081817Y-108923157D01*
X173360527Y-108726633D01*
X173595542Y-108479511D01*
X173777830Y-108191288D01*
X173900386Y-107873041D01*
X173958500Y-107537000D01*
X173958500Y-106637000D01*
X184488500Y-106637000D01*
X184488500Y-107537000D01*
X184546614Y-107873041D01*
X184669170Y-108191288D01*
X184851458Y-108479511D01*
X185086473Y-108726633D01*
X185365183Y-108923157D01*
X185676878Y-109061531D01*
X185827378Y-109099175D01*
X186096500Y-108981125D01*
X186096500Y-106637000D01*
X186350500Y-106637000D01*
X186350500Y-108981125D01*
X186619622Y-109099175D01*
X186770122Y-109061531D01*
X187081817Y-108923157D01*
X187360527Y-108726633D01*
X187595542Y-108479511D01*
X187777830Y-108191288D01*
X187900386Y-107873041D01*
X187958500Y-107537000D01*
X187958500Y-106637000D01*
X186350500Y-106637000D01*
X186096500Y-106637000D01*
X184488500Y-106637000D01*
X173958500Y-106637000D01*
X172350500Y-106637000D01*
X172096500Y-106637000D01*
X170488500Y-106637000D01*
X162788801Y-106637000D01*
X163942801Y-105483000D01*
X170488500Y-105483000D01*
X170488500Y-106383000D01*
X172096500Y-106383000D01*
X172096500Y-104038875D01*
X172350500Y-104038875D01*
X172350500Y-106383000D01*
X173958500Y-106383000D01*
X173958500Y-105483000D01*
X184488500Y-105483000D01*
X184488500Y-106383000D01*
X186096500Y-106383000D01*
X186096500Y-104038875D01*
X185827378Y-103920825D01*
X185676878Y-103958469D01*
X185365183Y-104096843D01*
X185086473Y-104293367D01*
X184851458Y-104540489D01*
X184669170Y-104828712D01*
X184546614Y-105146959D01*
X184488500Y-105483000D01*
X173958500Y-105483000D01*
X173900386Y-105146959D01*
X173777830Y-104828712D01*
X173595542Y-104540489D01*
X173360527Y-104293367D01*
X173081817Y-104096843D01*
X172770122Y-103958469D01*
X172619622Y-103920825D01*
X172350500Y-104038875D01*
X172096500Y-104038875D01*
X171827378Y-103920825D01*
X171676878Y-103958469D01*
X171365183Y-104096843D01*
X171086473Y-104293367D01*
X170851458Y-104540489D01*
X170669170Y-104828712D01*
X170546614Y-105146959D01*
X170488500Y-105483000D01*
X163942801Y-105483000D01*
X165234503Y-104191299D01*
X165263501Y-104167501D01*
X165358474Y-104051776D01*
X165429046Y-103919747D01*
X165472503Y-103776486D01*
X165483500Y-103664833D01*
X165483500Y-103664824D01*
X165487176Y-103627501D01*
X165483500Y-103590178D01*
X165483500Y-101707679D01*
X165636252Y-101626031D01*
X165885214Y-101421714D01*
X166089531Y-101172752D01*
X166241352Y-100888715D01*
X166334843Y-100580516D01*
X166358500Y-100340322D01*
X166358500Y-98179678D01*
X166334843Y-97939484D01*
X166260677Y-97694990D01*
X170686324Y-97694990D01*
X170612157Y-97939485D01*
X170588500Y-98179679D01*
X170588501Y-100340322D01*
X170612158Y-100580516D01*
X170705649Y-100888715D01*
X170857470Y-101172752D01*
X171061787Y-101421714D01*
X171310749Y-101626031D01*
X171594786Y-101777852D01*
X171902985Y-101871343D01*
X172223500Y-101902911D01*
X172544016Y-101871343D01*
X172852215Y-101777852D01*
X173136252Y-101626031D01*
X173385214Y-101421714D01*
X173589531Y-101172752D01*
X173741352Y-100888715D01*
X173834843Y-100580516D01*
X173858500Y-100340322D01*
X173858500Y-98179678D01*
X173834843Y-97939484D01*
X173760677Y-97694990D01*
X177186324Y-97694990D01*
X177112157Y-97939485D01*
X177088500Y-98179679D01*
X177088501Y-100340322D01*
X177112158Y-100580516D01*
X177205649Y-100888715D01*
X177357470Y-101172752D01*
X177561787Y-101421714D01*
X177810749Y-101626031D01*
X178079511Y-101769688D01*
X177359455Y-102489744D01*
X177316774Y-102447063D01*
X177147256Y-102333795D01*
X176958898Y-102255774D01*
X176758939Y-102216000D01*
X176555061Y-102216000D01*
X176355102Y-102255774D01*
X176166744Y-102333795D01*
X175997226Y-102447063D01*
X175853063Y-102591226D01*
X175739795Y-102760744D01*
X175661774Y-102949102D01*
X175622000Y-103149061D01*
X175622000Y-103352939D01*
X175661774Y-103552898D01*
X175739795Y-103741256D01*
X175853063Y-103910774D01*
X175997226Y-104054937D01*
X176166744Y-104168205D01*
X176355102Y-104246226D01*
X176555061Y-104286000D01*
X176758939Y-104286000D01*
X176958898Y-104246226D01*
X177147256Y-104168205D01*
X177316774Y-104054937D01*
X177360711Y-104011000D01*
X177635678Y-104011000D01*
X177673000Y-104014676D01*
X177710322Y-104011000D01*
X177710333Y-104011000D01*
X177821986Y-104000003D01*
X177965247Y-103956546D01*
X178097276Y-103885974D01*
X178213001Y-103791001D01*
X178236804Y-103761997D01*
X186371388Y-95627413D01*
X186839192Y-95627413D01*
X186934956Y-95891814D01*
X187224571Y-96032704D01*
X187536108Y-96114384D01*
X187857595Y-96133718D01*
X188176675Y-96089961D01*
X188481088Y-95984795D01*
X188655044Y-95891814D01*
X188750808Y-95627413D01*
X187795000Y-94671605D01*
X186839192Y-95627413D01*
X186371388Y-95627413D01*
X186579868Y-95418934D01*
X186659587Y-95447808D01*
X187615395Y-94492000D01*
X187601253Y-94477858D01*
X187780858Y-94298253D01*
X187795000Y-94312395D01*
X188562492Y-93544903D01*
X188677886Y-93467799D01*
X188870799Y-93274886D01*
X189022371Y-93048043D01*
X189126775Y-92795989D01*
X189180000Y-92528411D01*
X189180000Y-92255589D01*
X189126775Y-91988011D01*
X189022371Y-91735957D01*
X188870799Y-91509114D01*
X188677886Y-91316201D01*
X188451043Y-91164629D01*
X188198989Y-91060225D01*
X187931411Y-91007000D01*
X187658589Y-91007000D01*
X187391011Y-91060225D01*
X187138957Y-91164629D01*
X186912114Y-91316201D01*
X186719201Y-91509114D01*
X186567629Y-91735957D01*
X186463225Y-91988011D01*
X186410000Y-92255589D01*
X186410000Y-92528411D01*
X186438833Y-92673365D01*
X186069800Y-93042399D01*
X185910256Y-92935795D01*
X185721898Y-92857774D01*
X185521939Y-92818000D01*
X185318061Y-92818000D01*
X185118102Y-92857774D01*
X184929744Y-92935795D01*
X184760226Y-93049063D01*
X184616063Y-93193226D01*
X184502795Y-93362744D01*
X184424774Y-93551102D01*
X184385000Y-93751061D01*
X184385000Y-93813198D01*
X182023209Y-96174990D01*
X181086811Y-96174990D01*
X187513635Y-89748167D01*
X187658589Y-89777000D01*
X187931411Y-89777000D01*
X188198989Y-89723775D01*
X188451043Y-89619371D01*
X188677886Y-89467799D01*
X188870799Y-89274886D01*
X189022371Y-89048043D01*
X189126775Y-88795989D01*
X189180000Y-88528411D01*
X189180000Y-88255589D01*
X189126775Y-87988011D01*
X189022371Y-87735957D01*
X188870799Y-87509114D01*
X188753685Y-87392000D01*
X188870799Y-87274886D01*
X189022371Y-87048043D01*
X189126775Y-86795989D01*
X189180000Y-86528411D01*
X189180000Y-86255589D01*
X189126775Y-85988011D01*
X189022371Y-85735957D01*
X188870799Y-85509114D01*
X188753685Y-85392000D01*
X188870799Y-85274886D01*
X189022371Y-85048043D01*
X189126775Y-84795989D01*
X189180000Y-84528411D01*
X189180000Y-84255589D01*
X189126775Y-83988011D01*
X189022371Y-83735957D01*
X188870799Y-83509114D01*
X188677886Y-83316201D01*
X188562492Y-83239097D01*
X187795000Y-82471605D01*
X187027508Y-83239097D01*
X186912114Y-83316201D01*
X186719201Y-83509114D01*
X186637091Y-83632000D01*
X182491801Y-83632000D01*
X183769206Y-82354595D01*
X186153282Y-82354595D01*
X186197039Y-82673675D01*
X186302205Y-82978088D01*
X186395186Y-83152044D01*
X186659587Y-83247808D01*
X187615395Y-82292000D01*
X186659587Y-81336192D01*
X186395186Y-81431956D01*
X186254296Y-81721571D01*
X186172616Y-82033108D01*
X186153282Y-82354595D01*
X183769206Y-82354595D01*
X185196388Y-80927413D01*
X186839192Y-80927413D01*
X186880695Y-81042000D01*
X186839192Y-81156587D01*
X187795000Y-82112395D01*
X188750808Y-81156587D01*
X188709305Y-81042000D01*
X188750808Y-80927413D01*
X187795000Y-79971605D01*
X186839192Y-80927413D01*
X185196388Y-80927413D01*
X186058003Y-80065799D01*
X186087001Y-80042001D01*
X186136411Y-79981795D01*
X186165813Y-79945969D01*
X186197039Y-80173675D01*
X186302205Y-80478088D01*
X186395186Y-80652044D01*
X186659587Y-80747808D01*
X187615395Y-79792000D01*
X186659587Y-78836192D01*
X186395186Y-78931956D01*
X186307000Y-79113232D01*
X186307000Y-77784801D01*
X186410000Y-77681801D01*
X186410000Y-77828411D01*
X186463225Y-78095989D01*
X186567629Y-78348043D01*
X186719201Y-78574886D01*
X186912114Y-78767799D01*
X187027508Y-78844903D01*
X187795000Y-79612395D01*
X188562492Y-78844903D01*
X188677886Y-78767799D01*
X188870799Y-78574886D01*
X189022371Y-78348043D01*
X189126775Y-78095989D01*
X189180000Y-77828411D01*
X189180000Y-77555589D01*
X189126775Y-77288011D01*
X189022371Y-77035957D01*
X188870799Y-76809114D01*
X188753685Y-76692000D01*
X188870799Y-76574886D01*
X189022371Y-76348043D01*
X189126775Y-76095989D01*
X189180000Y-75828411D01*
X189180000Y-75555589D01*
X189126775Y-75288011D01*
X189022371Y-75035957D01*
X188870799Y-74809114D01*
X188753685Y-74692000D01*
X188870799Y-74574886D01*
X189022371Y-74348043D01*
X189126775Y-74095989D01*
X189180000Y-73828411D01*
X189180000Y-73555589D01*
X189126775Y-73288011D01*
X189022371Y-73035957D01*
X188870799Y-72809114D01*
X188677886Y-72616201D01*
X188562492Y-72539097D01*
X187795000Y-71771605D01*
X187027508Y-72539097D01*
X186912114Y-72616201D01*
X186719201Y-72809114D01*
X186567629Y-73035957D01*
X186463225Y-73288011D01*
X186410000Y-73555589D01*
X186410000Y-73828411D01*
X186463225Y-74095989D01*
X186567629Y-74348043D01*
X186719201Y-74574886D01*
X186836315Y-74692000D01*
X186719201Y-74809114D01*
X186567629Y-75035957D01*
X186463225Y-75288011D01*
X186410000Y-75555589D01*
X186410000Y-75697854D01*
X186300559Y-75731052D01*
X186282754Y-75736453D01*
X186150724Y-75807025D01*
X186114512Y-75836744D01*
X186035000Y-75901998D01*
X186011202Y-75930996D01*
X185545000Y-76397198D01*
X185545000Y-71654595D01*
X186153282Y-71654595D01*
X186197039Y-71973675D01*
X186302205Y-72278088D01*
X186395186Y-72452044D01*
X186659587Y-72547808D01*
X187615395Y-71592000D01*
X186659587Y-70636192D01*
X186395186Y-70731956D01*
X186254296Y-71021571D01*
X186172616Y-71333108D01*
X186153282Y-71654595D01*
X185545000Y-71654595D01*
X185545000Y-70456587D01*
X186839192Y-70456587D01*
X187795000Y-71412395D01*
X188750808Y-70456587D01*
X188655044Y-70192186D01*
X188365429Y-70051296D01*
X188053892Y-69969616D01*
X187732405Y-69950282D01*
X187413325Y-69994039D01*
X187108912Y-70099205D01*
X186934956Y-70192186D01*
X186839192Y-70456587D01*
X185545000Y-70456587D01*
X185545000Y-64527981D01*
X185637981Y-64435001D01*
X186057223Y-64435001D01*
X186094545Y-64438677D01*
X186131867Y-64435001D01*
X186131878Y-64435001D01*
X186243531Y-64424004D01*
X186386792Y-64380547D01*
X186518821Y-64309975D01*
X186634546Y-64215002D01*
X186658349Y-64185998D01*
X186670542Y-64173805D01*
X186699546Y-64150002D01*
X186794519Y-64034277D01*
X186819216Y-63988072D01*
X187998180Y-63988072D01*
X188122662Y-63975812D01*
X188242360Y-63939502D01*
X188352674Y-63880537D01*
X188449365Y-63801185D01*
X188528717Y-63704494D01*
X188587682Y-63594180D01*
X188623992Y-63474482D01*
X188636252Y-63350000D01*
X188636252Y-60604000D01*
X189294000Y-60604000D01*
X189294001Y-70923875D01*
X189294001Y-70923875D01*
G37*
X189294001Y-70923875D02*
X189287795Y-70905912D01*
X189194814Y-70731956D01*
X188930413Y-70636192D01*
X187974605Y-71592000D01*
X188930413Y-72547808D01*
X189194814Y-72452044D01*
X189294001Y-72248155D01*
X189294001Y-76167572D01*
X189294000Y-76167582D01*
X189294000Y-79123873D01*
X189287795Y-79105912D01*
X189194814Y-78931956D01*
X188930413Y-78836192D01*
X187974605Y-79792000D01*
X188930413Y-80747808D01*
X189194814Y-80652044D01*
X189294000Y-80448156D01*
X189294000Y-81623873D01*
X189287795Y-81605912D01*
X189194814Y-81431956D01*
X188930413Y-81336192D01*
X187974605Y-82292000D01*
X188930413Y-83247808D01*
X189194814Y-83152044D01*
X189294000Y-82948156D01*
X189294000Y-93823874D01*
X189287795Y-93805912D01*
X189194814Y-93631956D01*
X188930413Y-93536192D01*
X187974605Y-94492000D01*
X188930413Y-95447808D01*
X189194814Y-95352044D01*
X189294001Y-95148155D01*
X189294001Y-100184568D01*
X189194533Y-100131401D01*
X188914610Y-100046487D01*
X188623500Y-100017815D01*
X188332389Y-100046487D01*
X188052466Y-100131401D01*
X187858500Y-100235078D01*
X187858500Y-98179678D01*
X187834843Y-97939484D01*
X187741352Y-97631285D01*
X187589531Y-97347248D01*
X187385214Y-97098286D01*
X187136251Y-96893969D01*
X186852214Y-96742148D01*
X186544015Y-96648657D01*
X186223500Y-96617089D01*
X185902984Y-96648657D01*
X185594785Y-96742148D01*
X185310748Y-96893969D01*
X185061786Y-97098286D01*
X184857469Y-97347249D01*
X184705648Y-97631286D01*
X184612157Y-97939485D01*
X184588500Y-98179679D01*
X184588501Y-100340322D01*
X184612158Y-100580516D01*
X184705649Y-100888715D01*
X184857470Y-101172752D01*
X184933637Y-101265562D01*
X184364199Y-101835000D01*
X184302061Y-101835000D01*
X184102102Y-101874774D01*
X183913744Y-101952795D01*
X183744226Y-102066063D01*
X183600063Y-102210226D01*
X183486795Y-102379744D01*
X183408774Y-102568102D01*
X183369000Y-102768061D01*
X183369000Y-102971939D01*
X183408774Y-103171898D01*
X183486795Y-103360256D01*
X183600063Y-103529774D01*
X183744226Y-103673937D01*
X183913744Y-103787205D01*
X184102102Y-103865226D01*
X184302061Y-103905000D01*
X184505939Y-103905000D01*
X184705898Y-103865226D01*
X184894256Y-103787205D01*
X185063774Y-103673937D01*
X185207937Y-103529774D01*
X185321205Y-103360256D01*
X185399226Y-103171898D01*
X185439000Y-102971939D01*
X185439000Y-102909801D01*
X186470187Y-101878614D01*
X186544016Y-101871343D01*
X186852215Y-101777852D01*
X187136252Y-101626031D01*
X187138500Y-101624186D01*
X187138501Y-104136812D01*
X187081817Y-104096843D01*
X186770122Y-103958469D01*
X186619622Y-103920825D01*
X186350500Y-104038875D01*
X186350500Y-106383000D01*
X187958500Y-106383000D01*
X187958500Y-105838373D01*
X188052467Y-105888599D01*
X188332390Y-105973513D01*
X188623500Y-106002185D01*
X188914611Y-105973513D01*
X189194534Y-105888599D01*
X189294001Y-105835433D01*
X189294001Y-111100000D01*
X132113312Y-111100000D01*
X132169369Y-111061974D01*
X132361354Y-110867284D01*
X132511668Y-110638880D01*
X132614534Y-110385540D01*
X132666000Y-110117000D01*
X132666000Y-109363000D01*
X131404000Y-109363000D01*
X131404000Y-109383000D01*
X131150000Y-109383000D01*
X131150000Y-109363000D01*
X129888000Y-109363000D01*
X129888000Y-110117000D01*
X129939466Y-110385540D01*
X130042332Y-110638880D01*
X130192646Y-110867284D01*
X130384631Y-111061974D01*
X130440688Y-111100000D01*
X128972218Y-111100000D01*
X129106469Y-110902091D01*
X129212870Y-110650215D01*
X129227286Y-110577814D01*
X129104677Y-110363000D01*
X127254000Y-110363000D01*
X127254000Y-110383000D01*
X127000000Y-110383000D01*
X127000000Y-110363000D01*
X125149323Y-110363000D01*
X125026714Y-110577814D01*
X125041130Y-110650215D01*
X125147531Y-110902091D01*
X125281782Y-111100000D01*
X90614000Y-111100000D01*
X90614000Y-107736000D01*
X122977280Y-107736000D01*
X123004098Y-108008291D01*
X123083523Y-108270119D01*
X123212501Y-108511420D01*
X123386077Y-108722923D01*
X123597580Y-108896499D01*
X123838881Y-109025477D01*
X124100709Y-109104902D01*
X124304770Y-109125000D01*
X125536205Y-109125000D01*
X125495716Y-109151646D01*
X125301026Y-109343631D01*
X125147531Y-109569909D01*
X125041130Y-109821785D01*
X125026714Y-109894186D01*
X125149323Y-110109000D01*
X127000000Y-110109000D01*
X127000000Y-110089000D01*
X127254000Y-110089000D01*
X127254000Y-110109000D01*
X129104677Y-110109000D01*
X129227286Y-109894186D01*
X129212870Y-109821785D01*
X129106469Y-109569909D01*
X128952974Y-109343631D01*
X128758284Y-109151646D01*
X128529880Y-109001332D01*
X128276540Y-108898466D01*
X128008000Y-108847000D01*
X126716735Y-108847000D01*
X126867923Y-108722923D01*
X127041499Y-108511420D01*
X127125107Y-108355000D01*
X129888000Y-108355000D01*
X129888000Y-109109000D01*
X131150000Y-109109000D01*
X131150000Y-109089000D01*
X131404000Y-109089000D01*
X131404000Y-109109000D01*
X132666000Y-109109000D01*
X132666000Y-108355000D01*
X132614534Y-108086460D01*
X132565000Y-107964467D01*
X132565000Y-106129000D01*
X132819000Y-106129000D01*
X132819000Y-108172155D01*
X133048890Y-108293476D01*
X133142953Y-108272563D01*
X133411426Y-108157291D01*
X133652252Y-107991857D01*
X133856176Y-107782619D01*
X134015361Y-107537618D01*
X134123690Y-107266269D01*
X134177000Y-106979000D01*
X134177000Y-106129000D01*
X132819000Y-106129000D01*
X132565000Y-106129000D01*
X131207000Y-106129000D01*
X131207000Y-106979000D01*
X131228156Y-107093000D01*
X131149998Y-107093000D01*
X131149998Y-107258322D01*
X130935186Y-107135714D01*
X130862785Y-107150130D01*
X130610909Y-107256531D01*
X130384631Y-107410026D01*
X130192646Y-107604716D01*
X130042332Y-107833120D01*
X129939466Y-108086460D01*
X129888000Y-108355000D01*
X127125107Y-108355000D01*
X127170477Y-108270119D01*
X127249902Y-108008291D01*
X127276720Y-107736000D01*
X127249902Y-107463709D01*
X127170477Y-107201881D01*
X127041499Y-106960580D01*
X126867923Y-106749077D01*
X126656420Y-106575501D01*
X126415119Y-106446523D01*
X126153291Y-106367098D01*
X125949230Y-106347000D01*
X124304770Y-106347000D01*
X124100709Y-106367098D01*
X123838881Y-106446523D01*
X123597580Y-106575501D01*
X123386077Y-106749077D01*
X123212501Y-106960580D01*
X123083523Y-107201881D01*
X123004098Y-107463709D01*
X122977280Y-107736000D01*
X90614000Y-107736000D01*
X90614000Y-102304499D01*
X91372106Y-102304499D01*
X91588228Y-102671258D01*
X92048105Y-102911938D01*
X92546098Y-103058275D01*
X93063071Y-103104648D01*
X93579159Y-103049273D01*
X94074526Y-102894279D01*
X94491772Y-102671258D01*
X94707894Y-102304499D01*
X93040000Y-100636605D01*
X91372106Y-102304499D01*
X90614000Y-102304499D01*
X90614000Y-101512628D01*
X90825742Y-101908772D01*
X91192501Y-102124894D01*
X92860395Y-100457000D01*
X91192501Y-98789106D01*
X90825742Y-99005228D01*
X90614000Y-99409812D01*
X90614000Y-96387802D01*
X91130200Y-96904002D01*
X91153999Y-96933001D01*
X91269724Y-97027974D01*
X91401753Y-97098546D01*
X91545014Y-97142003D01*
X91656667Y-97153000D01*
X91656676Y-97153000D01*
X91693999Y-97156676D01*
X91731322Y-97153000D01*
X93411199Y-97153000D01*
X94787795Y-98529597D01*
X94707893Y-98609499D01*
X94491772Y-98242742D01*
X94031895Y-98002062D01*
X93533902Y-97855725D01*
X93016929Y-97809352D01*
X92500841Y-97864727D01*
X92005474Y-98019721D01*
X91588228Y-98242742D01*
X91372106Y-98609501D01*
X93040000Y-100277395D01*
X93054143Y-100263253D01*
X93233748Y-100442858D01*
X93219605Y-100457000D01*
X94887499Y-102124894D01*
X95254258Y-101908772D01*
X95494938Y-101448895D01*
X95537714Y-101303325D01*
X95570067Y-101342746D01*
X95599000Y-101378001D01*
X95627998Y-101401799D01*
X99258201Y-105032003D01*
X99281999Y-105061001D01*
X99310997Y-105084799D01*
X99397724Y-105155974D01*
X99529753Y-105226546D01*
X99673014Y-105270003D01*
X99822000Y-105284677D01*
X99859333Y-105281000D01*
X103713678Y-105281000D01*
X103751000Y-105284676D01*
X103788322Y-105281000D01*
X103788333Y-105281000D01*
X103899986Y-105270003D01*
X104043247Y-105226546D01*
X104175276Y-105155974D01*
X104291001Y-105061001D01*
X104314803Y-105031998D01*
X104951114Y-104395688D01*
X105133665Y-104432000D01*
X105416335Y-104432000D01*
X105693574Y-104376853D01*
X105954727Y-104268680D01*
X106189759Y-104111637D01*
X106389637Y-103911759D01*
X106420000Y-103866317D01*
X106450363Y-103911759D01*
X106650241Y-104111637D01*
X106885273Y-104268680D01*
X107146426Y-104376853D01*
X107423665Y-104432000D01*
X107706335Y-104432000D01*
X107983574Y-104376853D01*
X108244727Y-104268680D01*
X108479759Y-104111637D01*
X108679637Y-103911759D01*
X108710000Y-103866317D01*
X108740363Y-103911759D01*
X108940241Y-104111637D01*
X109175273Y-104268680D01*
X109436426Y-104376853D01*
X109713665Y-104432000D01*
X109996335Y-104432000D01*
X110273574Y-104376853D01*
X110534727Y-104268680D01*
X110769759Y-104111637D01*
X110969637Y-103911759D01*
X111126680Y-103676727D01*
X111234853Y-103415574D01*
X111290000Y-103138335D01*
X111290000Y-102855665D01*
X111234853Y-102578426D01*
X111126680Y-102317273D01*
X111118145Y-102304499D01*
X116372106Y-102304499D01*
X116588228Y-102671258D01*
X117048105Y-102911938D01*
X117546098Y-103058275D01*
X118063071Y-103104648D01*
X118579159Y-103049273D01*
X119074526Y-102894279D01*
X119491772Y-102671258D01*
X119707894Y-102304499D01*
X118040000Y-100636605D01*
X116372106Y-102304499D01*
X111118145Y-102304499D01*
X110969637Y-102082241D01*
X110769759Y-101882363D01*
X110760941Y-101876471D01*
X110788184Y-101883300D01*
X111070512Y-101897217D01*
X111350130Y-101855787D01*
X111616292Y-101760603D01*
X111741514Y-101693671D01*
X111813097Y-101449702D01*
X111000000Y-100636605D01*
X110186903Y-101449702D01*
X110233706Y-101609217D01*
X109996335Y-101562000D01*
X109713665Y-101562000D01*
X109476294Y-101609217D01*
X109523097Y-101449702D01*
X108710000Y-100636605D01*
X107896903Y-101449702D01*
X107943706Y-101609217D01*
X107706335Y-101562000D01*
X107423665Y-101562000D01*
X107186294Y-101609217D01*
X107233097Y-101449702D01*
X106420000Y-100636605D01*
X105606903Y-101449702D01*
X105653706Y-101609217D01*
X105416335Y-101562000D01*
X105133665Y-101562000D01*
X105027609Y-101583096D01*
X105044759Y-101571637D01*
X105244637Y-101371759D01*
X105331372Y-101241951D01*
X105427298Y-101270097D01*
X106240395Y-100457000D01*
X106599605Y-100457000D01*
X107412702Y-101270097D01*
X107565000Y-101225411D01*
X107717298Y-101270097D01*
X108530395Y-100457000D01*
X108889605Y-100457000D01*
X109702702Y-101270097D01*
X109855000Y-101225411D01*
X110007298Y-101270097D01*
X110820395Y-100457000D01*
X111179605Y-100457000D01*
X111992702Y-101270097D01*
X112236671Y-101198514D01*
X112357571Y-100943004D01*
X112426300Y-100668816D01*
X112435603Y-100480071D01*
X115392352Y-100480071D01*
X115447727Y-100996159D01*
X115602721Y-101491526D01*
X115825742Y-101908772D01*
X116192501Y-102124894D01*
X117860395Y-100457000D01*
X118219605Y-100457000D01*
X119887499Y-102124894D01*
X120254258Y-101908772D01*
X120494938Y-101448895D01*
X120641275Y-100950902D01*
X120685040Y-100463000D01*
X121288000Y-100463000D01*
X121288000Y-101217000D01*
X121339466Y-101485540D01*
X121442332Y-101738880D01*
X121592646Y-101967284D01*
X121784631Y-102161974D01*
X122010909Y-102315469D01*
X122262785Y-102421870D01*
X122335186Y-102436286D01*
X122550000Y-102313677D01*
X122550000Y-100463000D01*
X121288000Y-100463000D01*
X120685040Y-100463000D01*
X120687648Y-100433929D01*
X120632273Y-99917841D01*
X120487456Y-99455000D01*
X121288000Y-99455000D01*
X121288000Y-100209000D01*
X122550000Y-100209000D01*
X122550000Y-98358323D01*
X122804000Y-98358323D01*
X122804000Y-100209000D01*
X124066000Y-100209000D01*
X124066000Y-99455000D01*
X124014534Y-99186460D01*
X123911668Y-98933120D01*
X123761354Y-98704716D01*
X123693593Y-98636000D01*
X124977280Y-98636000D01*
X125004098Y-98908291D01*
X125083523Y-99170119D01*
X125212501Y-99411420D01*
X125386077Y-99622923D01*
X125597580Y-99796499D01*
X125838881Y-99925477D01*
X126100709Y-100004902D01*
X126304770Y-100025000D01*
X127949230Y-100025000D01*
X128153291Y-100004902D01*
X128415119Y-99925477D01*
X128656420Y-99796499D01*
X128867923Y-99622923D01*
X129005733Y-99455000D01*
X129888000Y-99455000D01*
X129888000Y-100209000D01*
X131150000Y-100209000D01*
X131150000Y-98358323D01*
X131404000Y-98358323D01*
X131404000Y-100209000D01*
X132666000Y-100209000D01*
X132666000Y-99455000D01*
X132614534Y-99186460D01*
X132511668Y-98933120D01*
X132361354Y-98704716D01*
X132169369Y-98510026D01*
X131943091Y-98356531D01*
X131691215Y-98250130D01*
X131618814Y-98235714D01*
X131404000Y-98358323D01*
X131150000Y-98358323D01*
X130935186Y-98235714D01*
X130862785Y-98250130D01*
X130610909Y-98356531D01*
X130384631Y-98510026D01*
X130192646Y-98704716D01*
X130042332Y-98933120D01*
X129939466Y-99186460D01*
X129888000Y-99455000D01*
X129005733Y-99455000D01*
X129041499Y-99411420D01*
X129170477Y-99170119D01*
X129249902Y-98908291D01*
X129276720Y-98636000D01*
X129249902Y-98363709D01*
X129170477Y-98101881D01*
X129041499Y-97860580D01*
X128867923Y-97649077D01*
X128656420Y-97475501D01*
X128415119Y-97346523D01*
X128153291Y-97267098D01*
X127949230Y-97247000D01*
X126304770Y-97247000D01*
X126100709Y-97267098D01*
X125838881Y-97346523D01*
X125597580Y-97475501D01*
X125386077Y-97649077D01*
X125212501Y-97860580D01*
X125083523Y-98101881D01*
X125004098Y-98363709D01*
X124977280Y-98636000D01*
X123693593Y-98636000D01*
X123569369Y-98510026D01*
X123343091Y-98356531D01*
X123091215Y-98250130D01*
X123018814Y-98235714D01*
X122804000Y-98358323D01*
X122550000Y-98358323D01*
X122335186Y-98235714D01*
X122262785Y-98250130D01*
X122010909Y-98356531D01*
X121784631Y-98510026D01*
X121592646Y-98704716D01*
X121442332Y-98933120D01*
X121339466Y-99186460D01*
X121288000Y-99455000D01*
X120487456Y-99455000D01*
X120477279Y-99422474D01*
X120254258Y-99005228D01*
X119887499Y-98789106D01*
X118219605Y-100457000D01*
X117860395Y-100457000D01*
X116192501Y-98789106D01*
X115825742Y-99005228D01*
X115585062Y-99465105D01*
X115438725Y-99963098D01*
X115392352Y-100480071D01*
X112435603Y-100480071D01*
X112440217Y-100386488D01*
X112398787Y-100106870D01*
X112303603Y-99840708D01*
X112236671Y-99715486D01*
X111992702Y-99643903D01*
X111179605Y-100457000D01*
X110820395Y-100457000D01*
X110007298Y-99643903D01*
X109855000Y-99688589D01*
X109702702Y-99643903D01*
X108889605Y-100457000D01*
X108530395Y-100457000D01*
X107717298Y-99643903D01*
X107565000Y-99688589D01*
X107412702Y-99643903D01*
X106599605Y-100457000D01*
X106240395Y-100457000D01*
X105427298Y-99643903D01*
X105331372Y-99672049D01*
X105244637Y-99542241D01*
X105044759Y-99342363D01*
X105027609Y-99330904D01*
X105133665Y-99352000D01*
X105416335Y-99352000D01*
X105653706Y-99304783D01*
X105606903Y-99464298D01*
X106420000Y-100277395D01*
X107233097Y-99464298D01*
X107186294Y-99304783D01*
X107423665Y-99352000D01*
X107706335Y-99352000D01*
X107943706Y-99304783D01*
X107896903Y-99464298D01*
X108710000Y-100277395D01*
X109523097Y-99464298D01*
X109491049Y-99355072D01*
X110218951Y-99355072D01*
X110186903Y-99464298D01*
X111000000Y-100277395D01*
X111813097Y-99464298D01*
X111741514Y-99220329D01*
X111486004Y-99099429D01*
X111211816Y-99030700D01*
X111207457Y-99030485D01*
X111244502Y-98961180D01*
X111280812Y-98841482D01*
X111293072Y-98717000D01*
X111293072Y-98609501D01*
X116372106Y-98609501D01*
X118040000Y-100277395D01*
X119707894Y-98609501D01*
X119491772Y-98242742D01*
X119031895Y-98002062D01*
X118533902Y-97855725D01*
X118016929Y-97809352D01*
X117500841Y-97864727D01*
X117005474Y-98019721D01*
X116588228Y-98242742D01*
X116372106Y-98609501D01*
X111293072Y-98609501D01*
X111293072Y-97117000D01*
X111280812Y-96992518D01*
X111244502Y-96872820D01*
X111185537Y-96762506D01*
X111106185Y-96665815D01*
X111009494Y-96586463D01*
X110899180Y-96527498D01*
X110779482Y-96491188D01*
X110655000Y-96478928D01*
X109055000Y-96478928D01*
X108930518Y-96491188D01*
X108810820Y-96527498D01*
X108700506Y-96586463D01*
X108603815Y-96665815D01*
X108524463Y-96762506D01*
X108495008Y-96817612D01*
X108479759Y-96802363D01*
X108244727Y-96645320D01*
X107983574Y-96537147D01*
X107706335Y-96482000D01*
X107423665Y-96482000D01*
X107146426Y-96537147D01*
X106885273Y-96645320D01*
X106650241Y-96802363D01*
X106450363Y-97002241D01*
X106420000Y-97047683D01*
X106389637Y-97002241D01*
X106189759Y-96802363D01*
X105954727Y-96645320D01*
X105693574Y-96537147D01*
X105416335Y-96482000D01*
X105133665Y-96482000D01*
X104856426Y-96537147D01*
X104595273Y-96645320D01*
X104360241Y-96802363D01*
X104160363Y-97002241D01*
X104130000Y-97047683D01*
X104099637Y-97002241D01*
X103899759Y-96802363D01*
X103664727Y-96645320D01*
X103403574Y-96537147D01*
X103126335Y-96482000D01*
X102843665Y-96482000D01*
X102566426Y-96537147D01*
X102305273Y-96645320D01*
X102070241Y-96802363D01*
X101870363Y-97002241D01*
X101783628Y-97132049D01*
X101687702Y-97103903D01*
X100874605Y-97917000D01*
X101687702Y-98730097D01*
X101783628Y-98701951D01*
X101870363Y-98831759D01*
X102070241Y-99031637D01*
X102079059Y-99037529D01*
X102051816Y-99030700D01*
X101769488Y-99016783D01*
X101489870Y-99058213D01*
X101461551Y-99068340D01*
X101508097Y-98909702D01*
X100695000Y-98096605D01*
X99881903Y-98909702D01*
X99953486Y-99153671D01*
X100208996Y-99274571D01*
X100483184Y-99343300D01*
X100765512Y-99357217D01*
X101045130Y-99315787D01*
X101073449Y-99305660D01*
X101026903Y-99464298D01*
X101840000Y-100277395D01*
X102653097Y-99464298D01*
X102606294Y-99304783D01*
X102843665Y-99352000D01*
X103126335Y-99352000D01*
X103232391Y-99330904D01*
X103215241Y-99342363D01*
X103015363Y-99542241D01*
X102928628Y-99672049D01*
X102832702Y-99643903D01*
X102019605Y-100457000D01*
X102832702Y-101270097D01*
X102928628Y-101241951D01*
X103015363Y-101371759D01*
X103215241Y-101571637D01*
X103232391Y-101583096D01*
X103126335Y-101562000D01*
X102843665Y-101562000D01*
X102606294Y-101609217D01*
X102653097Y-101449702D01*
X101840000Y-100636605D01*
X101026903Y-101449702D01*
X101073706Y-101609217D01*
X100836335Y-101562000D01*
X100553665Y-101562000D01*
X100276426Y-101617147D01*
X100015273Y-101725320D01*
X99780241Y-101882363D01*
X99580363Y-102082241D01*
X99423320Y-102317273D01*
X99315147Y-102578426D01*
X99260000Y-102855665D01*
X99260000Y-102884198D01*
X96903314Y-100527512D01*
X100399783Y-100527512D01*
X100441213Y-100807130D01*
X100536397Y-101073292D01*
X100603329Y-101198514D01*
X100847298Y-101270097D01*
X101660395Y-100457000D01*
X100847298Y-99643903D01*
X100603329Y-99715486D01*
X100482429Y-99970996D01*
X100413700Y-100245184D01*
X100399783Y-100527512D01*
X96903314Y-100527512D01*
X96899000Y-100523199D01*
X96899000Y-98843322D01*
X96902676Y-98805999D01*
X96899000Y-98768676D01*
X96899000Y-98768667D01*
X96888003Y-98657014D01*
X96844546Y-98513753D01*
X96773974Y-98381724D01*
X96679001Y-98265999D01*
X96650004Y-98242202D01*
X96395314Y-97987512D01*
X99254783Y-97987512D01*
X99296213Y-98267130D01*
X99391397Y-98533292D01*
X99458329Y-98658514D01*
X99702298Y-98730097D01*
X100515395Y-97917000D01*
X99702298Y-97103903D01*
X99458329Y-97175486D01*
X99337429Y-97430996D01*
X99268700Y-97705184D01*
X99254783Y-97987512D01*
X96395314Y-97987512D01*
X95332100Y-96924298D01*
X99881903Y-96924298D01*
X100695000Y-97737395D01*
X101508097Y-96924298D01*
X101436514Y-96680329D01*
X101181004Y-96559429D01*
X100906816Y-96490700D01*
X100624488Y-96476783D01*
X100344870Y-96518213D01*
X100078708Y-96613397D01*
X99953486Y-96680329D01*
X99881903Y-96924298D01*
X95332100Y-96924298D01*
X94289804Y-95882003D01*
X94266001Y-95852999D01*
X94150276Y-95758026D01*
X94018247Y-95687454D01*
X93874986Y-95643997D01*
X93763333Y-95633000D01*
X93763322Y-95633000D01*
X93726000Y-95629324D01*
X93688678Y-95633000D01*
X93256558Y-95633000D01*
X93326083Y-95563475D01*
X93210415Y-95447807D01*
X93474814Y-95352044D01*
X93615704Y-95062429D01*
X93697384Y-94750892D01*
X93716718Y-94429405D01*
X93672961Y-94110325D01*
X93567795Y-93805912D01*
X93474814Y-93631956D01*
X93210413Y-93536192D01*
X92254605Y-94492000D01*
X92268748Y-94506143D01*
X92089143Y-94685748D01*
X92075000Y-94671605D01*
X92060858Y-94685748D01*
X91881253Y-94506143D01*
X91895395Y-94492000D01*
X91881253Y-94477858D01*
X92060858Y-94298253D01*
X92075000Y-94312395D01*
X92842492Y-93544903D01*
X92957886Y-93467799D01*
X93150799Y-93274886D01*
X93302371Y-93048043D01*
X93406775Y-92795989D01*
X93460000Y-92528411D01*
X93460000Y-92255589D01*
X93406775Y-91988011D01*
X93302371Y-91735957D01*
X93150799Y-91509114D01*
X93033685Y-91392000D01*
X93150799Y-91274886D01*
X93232909Y-91152000D01*
X105032998Y-91152000D01*
X105070320Y-91155676D01*
X105107642Y-91152000D01*
X105107653Y-91152000D01*
X105219306Y-91141003D01*
X105362567Y-91097546D01*
X105494596Y-91026974D01*
X105610321Y-90932001D01*
X105634124Y-90902997D01*
X105825249Y-90711872D01*
X108001000Y-90711872D01*
X108001000Y-91152128D01*
X108086890Y-91583925D01*
X108255369Y-91990669D01*
X108499962Y-92356729D01*
X108811271Y-92668038D01*
X109177331Y-92912631D01*
X109584075Y-93081110D01*
X110015872Y-93167000D01*
X110456128Y-93167000D01*
X110887925Y-93081110D01*
X111294669Y-92912631D01*
X111660729Y-92668038D01*
X111972038Y-92356729D01*
X112137650Y-92108872D01*
X159944000Y-92108872D01*
X159944000Y-92549128D01*
X160029890Y-92980925D01*
X160198369Y-93387669D01*
X160442962Y-93753729D01*
X160754271Y-94065038D01*
X161120331Y-94309631D01*
X161527075Y-94478110D01*
X161958872Y-94564000D01*
X162399128Y-94564000D01*
X162830925Y-94478110D01*
X163237669Y-94309631D01*
X163603729Y-94065038D01*
X163915038Y-93753729D01*
X164159631Y-93387669D01*
X164328110Y-92980925D01*
X164414000Y-92549128D01*
X164414000Y-92108872D01*
X164328110Y-91677075D01*
X164159631Y-91270331D01*
X163915038Y-90904271D01*
X163603729Y-90592962D01*
X163237669Y-90348369D01*
X162830925Y-90179890D01*
X162399128Y-90094000D01*
X161958872Y-90094000D01*
X161527075Y-90179890D01*
X161120331Y-90348369D01*
X160754271Y-90592962D01*
X160442962Y-90904271D01*
X160198369Y-91270331D01*
X160029890Y-91677075D01*
X159944000Y-92108872D01*
X112137650Y-92108872D01*
X112216631Y-91990669D01*
X112385110Y-91583925D01*
X112471000Y-91152128D01*
X112471000Y-90711872D01*
X112385110Y-90280075D01*
X112216631Y-89873331D01*
X111972038Y-89507271D01*
X111660729Y-89195962D01*
X111294669Y-88951369D01*
X110887925Y-88782890D01*
X110456128Y-88697000D01*
X110015872Y-88697000D01*
X109584075Y-88782890D01*
X109177331Y-88951369D01*
X108811271Y-89195962D01*
X108499962Y-89507271D01*
X108255369Y-89873331D01*
X108086890Y-90280075D01*
X108001000Y-90711872D01*
X105825249Y-90711872D01*
X113528984Y-83008138D01*
X113591121Y-83008138D01*
X113791080Y-82968364D01*
X113979438Y-82890343D01*
X114148956Y-82777075D01*
X114293119Y-82632912D01*
X114406387Y-82463394D01*
X114484408Y-82275036D01*
X114524182Y-82075077D01*
X114524182Y-81871199D01*
X114484408Y-81671240D01*
X114406387Y-81482882D01*
X114354348Y-81405000D01*
X133458000Y-81405000D01*
X133458000Y-81471949D01*
X133497774Y-81671908D01*
X133575795Y-81860266D01*
X133689063Y-82029784D01*
X133833226Y-82173947D01*
X134002744Y-82287215D01*
X134191102Y-82365236D01*
X134391061Y-82405010D01*
X134453199Y-82405010D01*
X139701190Y-87653002D01*
X139724988Y-87682000D01*
X139753986Y-87705798D01*
X139840712Y-87776973D01*
X139936552Y-87828201D01*
X139972742Y-87847545D01*
X140116003Y-87891002D01*
X140227656Y-87901999D01*
X140227665Y-87901999D01*
X140264988Y-87905675D01*
X140302311Y-87901999D01*
X186498852Y-87901999D01*
X186463225Y-87988011D01*
X186410000Y-88255589D01*
X186410000Y-88528411D01*
X186438833Y-88673365D01*
X180996896Y-94115302D01*
X180889937Y-93955226D01*
X180745774Y-93811063D01*
X180576256Y-93697795D01*
X180387898Y-93619774D01*
X180187939Y-93580000D01*
X180125802Y-93580000D01*
X175188804Y-88643003D01*
X175165001Y-88613999D01*
X175049276Y-88519026D01*
X174917247Y-88448454D01*
X174773986Y-88404997D01*
X174662333Y-88394000D01*
X174662322Y-88394000D01*
X174625000Y-88390324D01*
X174587678Y-88394000D01*
X171010711Y-88394000D01*
X170966774Y-88350063D01*
X170797256Y-88236795D01*
X170608898Y-88158774D01*
X170408939Y-88119000D01*
X170205061Y-88119000D01*
X170005102Y-88158774D01*
X169816744Y-88236795D01*
X169647226Y-88350063D01*
X169503063Y-88494226D01*
X169389795Y-88663744D01*
X169311774Y-88852102D01*
X169272000Y-89052061D01*
X169272000Y-89255939D01*
X169311774Y-89455898D01*
X169389795Y-89644256D01*
X169503063Y-89813774D01*
X169647226Y-89957937D01*
X169816744Y-90071205D01*
X170005102Y-90149226D01*
X170205061Y-90189000D01*
X170408939Y-90189000D01*
X170608898Y-90149226D01*
X170797256Y-90071205D01*
X170966774Y-89957937D01*
X171010711Y-89914000D01*
X174310199Y-89914000D01*
X179051000Y-94654802D01*
X179051000Y-94716939D01*
X179090774Y-94916898D01*
X179168795Y-95105256D01*
X179282063Y-95274774D01*
X179426226Y-95418937D01*
X179586303Y-95525896D01*
X179516197Y-95596002D01*
X175660000Y-95596002D01*
X175660000Y-95529059D01*
X175620226Y-95329100D01*
X175542205Y-95140742D01*
X175512000Y-95095537D01*
X175512000Y-93667711D01*
X175555937Y-93623774D01*
X175669205Y-93454256D01*
X175747226Y-93265898D01*
X175787000Y-93065939D01*
X175787000Y-92862061D01*
X175747226Y-92662102D01*
X175669205Y-92473744D01*
X175555937Y-92304226D01*
X175411774Y-92160063D01*
X175242256Y-92046795D01*
X175053898Y-91968774D01*
X174853939Y-91929000D01*
X174650061Y-91929000D01*
X174450102Y-91968774D01*
X174261744Y-92046795D01*
X174117000Y-92143510D01*
X173972256Y-92046795D01*
X173783898Y-91968774D01*
X173583939Y-91929000D01*
X173380061Y-91929000D01*
X173180102Y-91968774D01*
X172991744Y-92046795D01*
X172822226Y-92160063D01*
X172678063Y-92304226D01*
X172564795Y-92473744D01*
X172486774Y-92662102D01*
X172447000Y-92862061D01*
X172447000Y-93065939D01*
X172486774Y-93265898D01*
X172564795Y-93454256D01*
X172678063Y-93623774D01*
X172722000Y-93667711D01*
X172722001Y-93756173D01*
X172695226Y-93774063D01*
X172551063Y-93918226D01*
X172437795Y-94087744D01*
X172359774Y-94276102D01*
X172320000Y-94476061D01*
X172320000Y-94679939D01*
X172359774Y-94879898D01*
X172437795Y-95068256D01*
X172551063Y-95237774D01*
X172565289Y-95252000D01*
X146611323Y-95252000D01*
X146574000Y-95248324D01*
X146536677Y-95252000D01*
X146536667Y-95252000D01*
X146425014Y-95262997D01*
X146281753Y-95306454D01*
X146149723Y-95377026D01*
X146098655Y-95418937D01*
X146033999Y-95471999D01*
X146010201Y-95500997D01*
X142320409Y-99190790D01*
X142201428Y-99214457D01*
X141957746Y-99315393D01*
X141738437Y-99461931D01*
X141551931Y-99648437D01*
X141405393Y-99867746D01*
X141304457Y-100111428D01*
X141253000Y-100370120D01*
X141253000Y-100633880D01*
X141294000Y-100840000D01*
X137090000Y-100840000D01*
X137131000Y-100633880D01*
X137131000Y-100370120D01*
X137079543Y-100111428D01*
X136978607Y-99867746D01*
X136832069Y-99648437D01*
X136645563Y-99461931D01*
X136426254Y-99315393D01*
X136182572Y-99214457D01*
X135923880Y-99163000D01*
X135660120Y-99163000D01*
X135401428Y-99214457D01*
X135157746Y-99315393D01*
X134938437Y-99461931D01*
X134751931Y-99648437D01*
X134605393Y-99867746D01*
X134504457Y-100111428D01*
X134453000Y-100370120D01*
X134453000Y-100633880D01*
X134504457Y-100892572D01*
X134605393Y-101136254D01*
X134751931Y-101355563D01*
X134938437Y-101542069D01*
X135157746Y-101688607D01*
X135311086Y-101752122D01*
X135209236Y-101789276D01*
X135107423Y-101843695D01*
X135047477Y-102077872D01*
X135792000Y-102822395D01*
X135806143Y-102808253D01*
X135985748Y-102987858D01*
X135971605Y-103002000D01*
X136716128Y-103746523D01*
X136874429Y-103706000D01*
X141249928Y-103706000D01*
X141262188Y-103830482D01*
X141298498Y-103950180D01*
X141357463Y-104060494D01*
X141436815Y-104157185D01*
X141533506Y-104236537D01*
X141643820Y-104295502D01*
X141763518Y-104331812D01*
X141888000Y-104344072D01*
X142306250Y-104341000D01*
X142465000Y-104182250D01*
X142465000Y-103129000D01*
X142719000Y-103129000D01*
X142719000Y-104182250D01*
X142877750Y-104341000D01*
X143296000Y-104344072D01*
X143420482Y-104331812D01*
X143540180Y-104295502D01*
X143650494Y-104236537D01*
X143747185Y-104157185D01*
X143826537Y-104060494D01*
X143885502Y-103950180D01*
X143921812Y-103830482D01*
X143934072Y-103706000D01*
X143931000Y-103287750D01*
X143772250Y-103129000D01*
X142719000Y-103129000D01*
X142465000Y-103129000D01*
X141411750Y-103129000D01*
X141253000Y-103287750D01*
X141249928Y-103706000D01*
X136874429Y-103706000D01*
X136950305Y-103686577D01*
X137061602Y-103447449D01*
X137124109Y-103191203D01*
X137135425Y-102927686D01*
X137095114Y-102667024D01*
X137004724Y-102419236D01*
X136973062Y-102360000D01*
X141250383Y-102360000D01*
X141253000Y-102716250D01*
X141411750Y-102875000D01*
X142465000Y-102875000D01*
X142465000Y-102855000D01*
X142719000Y-102855000D01*
X142719000Y-102875000D01*
X143772250Y-102875000D01*
X143931000Y-102716250D01*
X143934072Y-102298000D01*
X143921812Y-102173518D01*
X143885502Y-102053820D01*
X143882534Y-102048267D01*
X148235813Y-97694990D01*
X149186324Y-97694990D01*
X149112157Y-97939485D01*
X149088500Y-98179679D01*
X149088501Y-100235079D01*
X148894533Y-100131401D01*
X148614610Y-100046487D01*
X148323500Y-100017815D01*
X148032389Y-100046487D01*
X147752466Y-100131401D01*
X147494486Y-100269294D01*
X147268366Y-100454866D01*
X147082794Y-100680987D01*
X146944901Y-100938967D01*
X146859987Y-101218890D01*
X146838500Y-101437051D01*
X146838501Y-104203245D01*
X146652252Y-104012143D01*
X146411426Y-103846709D01*
X146142953Y-103731437D01*
X146048890Y-103710524D01*
X145819000Y-103831845D01*
X145819000Y-105875000D01*
X147177000Y-105875000D01*
X147177000Y-105453803D01*
X147268367Y-105565134D01*
X147494487Y-105750706D01*
X147752467Y-105888599D01*
X148032390Y-105973513D01*
X148323500Y-106002185D01*
X148614611Y-105973513D01*
X148894534Y-105888599D01*
X149152514Y-105750706D01*
X149378634Y-105565134D01*
X149564206Y-105339014D01*
X149702099Y-105081034D01*
X149787013Y-104801111D01*
X149808500Y-104582950D01*
X149808500Y-101624185D01*
X149810749Y-101626031D01*
X150094786Y-101777852D01*
X150402985Y-101871343D01*
X150723500Y-101902911D01*
X151044016Y-101871343D01*
X151352215Y-101777852D01*
X151636252Y-101626031D01*
X151885214Y-101421714D01*
X152089531Y-101172752D01*
X152241352Y-100888715D01*
X152334843Y-100580516D01*
X152358500Y-100340322D01*
X152358500Y-98179678D01*
X152334843Y-97939484D01*
X152260677Y-97694990D01*
X156686324Y-97694990D01*
X156612157Y-97939485D01*
X156588500Y-98179679D01*
X156588501Y-100340322D01*
X156612158Y-100580516D01*
X156705649Y-100888715D01*
X156857470Y-101172752D01*
X157061787Y-101421714D01*
X157310749Y-101626031D01*
X157463500Y-101707678D01*
X157463500Y-102065698D01*
X154519199Y-105010000D01*
X154457061Y-105010000D01*
X154257102Y-105049774D01*
X154068744Y-105127795D01*
X153899226Y-105241063D01*
X153755063Y-105385226D01*
X153641795Y-105554744D01*
X153563774Y-105743102D01*
X153524000Y-105943061D01*
X153524000Y-106146939D01*
X153563774Y-106346898D01*
X153641795Y-106535256D01*
X153755063Y-106704774D01*
X153899226Y-106848937D01*
X154068744Y-106962205D01*
X154257102Y-107040226D01*
X154457061Y-107080000D01*
X154660939Y-107080000D01*
X154860898Y-107040226D01*
X155049256Y-106962205D01*
X155218774Y-106848937D01*
X155362937Y-106704774D01*
X155476205Y-106535256D01*
X155554226Y-106346898D01*
X155594000Y-106146939D01*
X155594000Y-106084801D01*
X156555865Y-105122936D01*
X156546614Y-105146959D01*
X156488500Y-105483000D01*
X156488500Y-106383000D01*
X158096500Y-106383000D01*
X158096500Y-104038875D01*
X158350500Y-104038875D01*
X158350500Y-106383000D01*
X159958500Y-106383000D01*
X159958500Y-105483000D01*
X159900386Y-105146959D01*
X159777830Y-104828712D01*
X159595542Y-104540489D01*
X159360527Y-104293367D01*
X159081817Y-104096843D01*
X158770122Y-103958469D01*
X158619622Y-103920825D01*
X158350500Y-104038875D01*
X158096500Y-104038875D01*
X157827378Y-103920825D01*
X157734827Y-103943974D01*
X158734504Y-102944298D01*
X158763501Y-102920501D01*
X158858474Y-102804776D01*
X158929046Y-102672747D01*
X158972503Y-102529486D01*
X158983500Y-102417833D01*
X158983500Y-102417832D01*
X158987177Y-102380500D01*
X158983500Y-102343167D01*
X158983500Y-101707679D01*
X159136252Y-101626031D01*
X159385214Y-101421714D01*
X159589531Y-101172752D01*
X159741352Y-100888715D01*
X159834843Y-100580516D01*
X159858500Y-100340322D01*
X159858500Y-98179678D01*
X159834843Y-97939484D01*
X159760677Y-97694990D01*
X163186324Y-97694990D01*
X163112157Y-97939485D01*
X163088500Y-98179679D01*
X163088501Y-100340322D01*
X163112158Y-100580516D01*
X163205649Y-100888715D01*
X163357470Y-101172752D01*
X163561787Y-101421714D01*
X163810749Y-101626031D01*
X163963501Y-101707678D01*
X163963501Y-103312697D01*
X159958500Y-107317699D01*
X159958500Y-106637000D01*
X158350500Y-106637000D01*
X158350500Y-106657000D01*
X158096500Y-106657000D01*
X158096500Y-106637000D01*
X156488500Y-106637000D01*
X156488500Y-107537000D01*
X156546614Y-107873041D01*
X156669170Y-108191288D01*
X156758796Y-108333000D01*
X145819002Y-108333000D01*
X145819002Y-108172156D01*
X146048890Y-108293476D01*
X146142953Y-108272563D01*
X146411426Y-108157291D01*
X146652252Y-107991857D01*
X146856176Y-107782619D01*
X147015361Y-107537618D01*
X147123690Y-107266269D01*
X147177000Y-106979000D01*
X147177000Y-106129000D01*
X145819000Y-106129000D01*
X145819000Y-106149000D01*
X145565000Y-106149000D01*
X145565000Y-106129000D01*
X144207000Y-106129000D01*
X144207000Y-106979000D01*
X144260310Y-107266269D01*
X144368639Y-107537618D01*
X144527824Y-107782619D01*
X144731748Y-107991857D01*
X144972574Y-108157291D01*
X145241047Y-108272563D01*
X145335110Y-108293476D01*
X145564998Y-108172156D01*
X145564998Y-108333000D01*
X140457997Y-108333000D01*
X140727618Y-108225361D01*
X140972619Y-108066176D01*
X141181857Y-107862252D01*
X141347291Y-107621426D01*
X141462563Y-107352953D01*
X141483476Y-107258890D01*
X141362155Y-107029000D01*
X139319000Y-107029000D01*
X139319000Y-107049000D01*
X139065000Y-107049000D01*
X139065000Y-107029000D01*
X139045000Y-107029000D01*
X139045000Y-106775000D01*
X139065000Y-106775000D01*
X139065000Y-106755000D01*
X139319000Y-106755000D01*
X139319000Y-106775000D01*
X141362155Y-106775000D01*
X141483476Y-106545110D01*
X141462563Y-106451047D01*
X141347291Y-106182574D01*
X141181857Y-105941748D01*
X140972619Y-105737824D01*
X140727618Y-105578639D01*
X140456269Y-105470310D01*
X140169000Y-105417000D01*
X138215000Y-105417000D01*
X137927731Y-105470310D01*
X137656382Y-105578639D01*
X137411381Y-105737824D01*
X137202143Y-105941748D01*
X137036709Y-106182574D01*
X136980136Y-106314334D01*
X135690802Y-105025000D01*
X144207000Y-105025000D01*
X144207000Y-105875000D01*
X145565000Y-105875000D01*
X145565000Y-103831845D01*
X145335110Y-103710524D01*
X145241047Y-103731437D01*
X144972574Y-103846709D01*
X144731748Y-104012143D01*
X144527824Y-104221381D01*
X144368639Y-104466382D01*
X144260310Y-104737731D01*
X144207000Y-105025000D01*
X135690802Y-105025000D01*
X134591930Y-103926128D01*
X135047477Y-103926128D01*
X135107423Y-104160305D01*
X135346551Y-104271602D01*
X135602797Y-104334109D01*
X135866314Y-104345425D01*
X136126976Y-104305114D01*
X136374764Y-104214724D01*
X136476577Y-104160305D01*
X136536523Y-103926128D01*
X135792000Y-103181605D01*
X135047477Y-103926128D01*
X134591930Y-103926128D01*
X133742116Y-103076314D01*
X134448575Y-103076314D01*
X134488886Y-103336976D01*
X134579276Y-103584764D01*
X134633695Y-103686577D01*
X134867872Y-103746523D01*
X135612395Y-103002000D01*
X134867872Y-102257477D01*
X134633695Y-102317423D01*
X134522398Y-102556551D01*
X134459891Y-102812797D01*
X134448575Y-103076314D01*
X133742116Y-103076314D01*
X132770804Y-102105003D01*
X132747001Y-102075999D01*
X132631276Y-101981026D01*
X132499247Y-101910454D01*
X132415477Y-101885043D01*
X132511668Y-101738880D01*
X132614534Y-101485540D01*
X132666000Y-101217000D01*
X132666000Y-100463000D01*
X131404000Y-100463000D01*
X131404000Y-100483000D01*
X131150000Y-100483000D01*
X131150000Y-100463000D01*
X129888000Y-100463000D01*
X129888000Y-101217000D01*
X129939466Y-101485540D01*
X130042332Y-101738880D01*
X130119409Y-101856000D01*
X127217229Y-101856000D01*
X127170477Y-101701881D01*
X127041499Y-101460580D01*
X126867923Y-101249077D01*
X126656420Y-101075501D01*
X126415119Y-100946523D01*
X126153291Y-100867098D01*
X125949230Y-100847000D01*
X124304770Y-100847000D01*
X124100709Y-100867098D01*
X124066000Y-100877627D01*
X124066000Y-100463000D01*
X122804000Y-100463000D01*
X122804000Y-102313677D01*
X122995707Y-102423097D01*
X123004098Y-102508291D01*
X123083523Y-102770119D01*
X123212501Y-103011420D01*
X123386077Y-103222923D01*
X123597580Y-103396499D01*
X123838881Y-103525477D01*
X124100709Y-103604902D01*
X124304770Y-103625000D01*
X125076510Y-103625000D01*
X125004098Y-103863709D01*
X124977280Y-104136000D01*
X125004098Y-104408291D01*
X125083523Y-104670119D01*
X125212501Y-104911420D01*
X125386077Y-105122923D01*
X125597580Y-105296499D01*
X125838881Y-105425477D01*
X126100709Y-105504902D01*
X126304770Y-105525000D01*
X127949230Y-105525000D01*
X128153291Y-105504902D01*
X128415119Y-105425477D01*
X128656420Y-105296499D01*
X128867923Y-105122923D01*
X129041499Y-104911420D01*
X129170477Y-104670119D01*
X129249902Y-104408291D01*
X129276720Y-104136000D01*
X129249902Y-103863709D01*
X129170477Y-103601881D01*
X129049741Y-103376000D01*
X131892199Y-103376000D01*
X132246437Y-103730239D01*
X132241047Y-103731437D01*
X131972574Y-103846709D01*
X131731748Y-104012143D01*
X131527824Y-104221381D01*
X131368639Y-104466382D01*
X131260310Y-104737731D01*
X131207000Y-105025000D01*
X131207000Y-105875000D01*
X132565000Y-105875000D01*
X132565000Y-105855000D01*
X132819000Y-105855000D01*
X132819000Y-105875000D01*
X134177000Y-105875000D01*
X134177000Y-105660801D01*
X138120201Y-109604003D01*
X138143999Y-109633001D01*
X138259724Y-109727974D01*
X138391753Y-109798546D01*
X138535014Y-109842003D01*
X138646667Y-109853000D01*
X138646676Y-109853000D01*
X138683999Y-109856676D01*
X138721322Y-109853000D01*
X159220678Y-109853000D01*
X159258000Y-109856676D01*
X159295322Y-109853000D01*
X159295333Y-109853000D01*
X159406986Y-109842003D01*
X159550247Y-109798546D01*
X159682276Y-109727974D01*
X159798001Y-109633001D01*
X159821804Y-109603997D01*
X162788801Y-106637000D01*
X170488500Y-106637000D01*
X170488500Y-107537000D01*
X170546614Y-107873041D01*
X170669170Y-108191288D01*
X170851458Y-108479511D01*
X171086473Y-108726633D01*
X171365183Y-108923157D01*
X171676878Y-109061531D01*
X171827378Y-109099175D01*
X172096500Y-108981125D01*
X172096500Y-106637000D01*
X172350500Y-106637000D01*
X172350500Y-108981125D01*
X172619622Y-109099175D01*
X172770122Y-109061531D01*
X173081817Y-108923157D01*
X173360527Y-108726633D01*
X173595542Y-108479511D01*
X173777830Y-108191288D01*
X173900386Y-107873041D01*
X173958500Y-107537000D01*
X173958500Y-106637000D01*
X184488500Y-106637000D01*
X184488500Y-107537000D01*
X184546614Y-107873041D01*
X184669170Y-108191288D01*
X184851458Y-108479511D01*
X185086473Y-108726633D01*
X185365183Y-108923157D01*
X185676878Y-109061531D01*
X185827378Y-109099175D01*
X186096500Y-108981125D01*
X186096500Y-106637000D01*
X186350500Y-106637000D01*
X186350500Y-108981125D01*
X186619622Y-109099175D01*
X186770122Y-109061531D01*
X187081817Y-108923157D01*
X187360527Y-108726633D01*
X187595542Y-108479511D01*
X187777830Y-108191288D01*
X187900386Y-107873041D01*
X187958500Y-107537000D01*
X187958500Y-106637000D01*
X186350500Y-106637000D01*
X186096500Y-106637000D01*
X184488500Y-106637000D01*
X173958500Y-106637000D01*
X172350500Y-106637000D01*
X172096500Y-106637000D01*
X170488500Y-106637000D01*
X162788801Y-106637000D01*
X163942801Y-105483000D01*
X170488500Y-105483000D01*
X170488500Y-106383000D01*
X172096500Y-106383000D01*
X172096500Y-104038875D01*
X172350500Y-104038875D01*
X172350500Y-106383000D01*
X173958500Y-106383000D01*
X173958500Y-105483000D01*
X184488500Y-105483000D01*
X184488500Y-106383000D01*
X186096500Y-106383000D01*
X186096500Y-104038875D01*
X185827378Y-103920825D01*
X185676878Y-103958469D01*
X185365183Y-104096843D01*
X185086473Y-104293367D01*
X184851458Y-104540489D01*
X184669170Y-104828712D01*
X184546614Y-105146959D01*
X184488500Y-105483000D01*
X173958500Y-105483000D01*
X173900386Y-105146959D01*
X173777830Y-104828712D01*
X173595542Y-104540489D01*
X173360527Y-104293367D01*
X173081817Y-104096843D01*
X172770122Y-103958469D01*
X172619622Y-103920825D01*
X172350500Y-104038875D01*
X172096500Y-104038875D01*
X171827378Y-103920825D01*
X171676878Y-103958469D01*
X171365183Y-104096843D01*
X171086473Y-104293367D01*
X170851458Y-104540489D01*
X170669170Y-104828712D01*
X170546614Y-105146959D01*
X170488500Y-105483000D01*
X163942801Y-105483000D01*
X165234503Y-104191299D01*
X165263501Y-104167501D01*
X165358474Y-104051776D01*
X165429046Y-103919747D01*
X165472503Y-103776486D01*
X165483500Y-103664833D01*
X165483500Y-103664824D01*
X165487176Y-103627501D01*
X165483500Y-103590178D01*
X165483500Y-101707679D01*
X165636252Y-101626031D01*
X165885214Y-101421714D01*
X166089531Y-101172752D01*
X166241352Y-100888715D01*
X166334843Y-100580516D01*
X166358500Y-100340322D01*
X166358500Y-98179678D01*
X166334843Y-97939484D01*
X166260677Y-97694990D01*
X170686324Y-97694990D01*
X170612157Y-97939485D01*
X170588500Y-98179679D01*
X170588501Y-100340322D01*
X170612158Y-100580516D01*
X170705649Y-100888715D01*
X170857470Y-101172752D01*
X171061787Y-101421714D01*
X171310749Y-101626031D01*
X171594786Y-101777852D01*
X171902985Y-101871343D01*
X172223500Y-101902911D01*
X172544016Y-101871343D01*
X172852215Y-101777852D01*
X173136252Y-101626031D01*
X173385214Y-101421714D01*
X173589531Y-101172752D01*
X173741352Y-100888715D01*
X173834843Y-100580516D01*
X173858500Y-100340322D01*
X173858500Y-98179678D01*
X173834843Y-97939484D01*
X173760677Y-97694990D01*
X177186324Y-97694990D01*
X177112157Y-97939485D01*
X177088500Y-98179679D01*
X177088501Y-100340322D01*
X177112158Y-100580516D01*
X177205649Y-100888715D01*
X177357470Y-101172752D01*
X177561787Y-101421714D01*
X177810749Y-101626031D01*
X178079511Y-101769688D01*
X177359455Y-102489744D01*
X177316774Y-102447063D01*
X177147256Y-102333795D01*
X176958898Y-102255774D01*
X176758939Y-102216000D01*
X176555061Y-102216000D01*
X176355102Y-102255774D01*
X176166744Y-102333795D01*
X175997226Y-102447063D01*
X175853063Y-102591226D01*
X175739795Y-102760744D01*
X175661774Y-102949102D01*
X175622000Y-103149061D01*
X175622000Y-103352939D01*
X175661774Y-103552898D01*
X175739795Y-103741256D01*
X175853063Y-103910774D01*
X175997226Y-104054937D01*
X176166744Y-104168205D01*
X176355102Y-104246226D01*
X176555061Y-104286000D01*
X176758939Y-104286000D01*
X176958898Y-104246226D01*
X177147256Y-104168205D01*
X177316774Y-104054937D01*
X177360711Y-104011000D01*
X177635678Y-104011000D01*
X177673000Y-104014676D01*
X177710322Y-104011000D01*
X177710333Y-104011000D01*
X177821986Y-104000003D01*
X177965247Y-103956546D01*
X178097276Y-103885974D01*
X178213001Y-103791001D01*
X178236804Y-103761997D01*
X186371388Y-95627413D01*
X186839192Y-95627413D01*
X186934956Y-95891814D01*
X187224571Y-96032704D01*
X187536108Y-96114384D01*
X187857595Y-96133718D01*
X188176675Y-96089961D01*
X188481088Y-95984795D01*
X188655044Y-95891814D01*
X188750808Y-95627413D01*
X187795000Y-94671605D01*
X186839192Y-95627413D01*
X186371388Y-95627413D01*
X186579868Y-95418934D01*
X186659587Y-95447808D01*
X187615395Y-94492000D01*
X187601253Y-94477858D01*
X187780858Y-94298253D01*
X187795000Y-94312395D01*
X188562492Y-93544903D01*
X188677886Y-93467799D01*
X188870799Y-93274886D01*
X189022371Y-93048043D01*
X189126775Y-92795989D01*
X189180000Y-92528411D01*
X189180000Y-92255589D01*
X189126775Y-91988011D01*
X189022371Y-91735957D01*
X188870799Y-91509114D01*
X188677886Y-91316201D01*
X188451043Y-91164629D01*
X188198989Y-91060225D01*
X187931411Y-91007000D01*
X187658589Y-91007000D01*
X187391011Y-91060225D01*
X187138957Y-91164629D01*
X186912114Y-91316201D01*
X186719201Y-91509114D01*
X186567629Y-91735957D01*
X186463225Y-91988011D01*
X186410000Y-92255589D01*
X186410000Y-92528411D01*
X186438833Y-92673365D01*
X186069800Y-93042399D01*
X185910256Y-92935795D01*
X185721898Y-92857774D01*
X185521939Y-92818000D01*
X185318061Y-92818000D01*
X185118102Y-92857774D01*
X184929744Y-92935795D01*
X184760226Y-93049063D01*
X184616063Y-93193226D01*
X184502795Y-93362744D01*
X184424774Y-93551102D01*
X184385000Y-93751061D01*
X184385000Y-93813198D01*
X182023209Y-96174990D01*
X181086811Y-96174990D01*
X187513635Y-89748167D01*
X187658589Y-89777000D01*
X187931411Y-89777000D01*
X188198989Y-89723775D01*
X188451043Y-89619371D01*
X188677886Y-89467799D01*
X188870799Y-89274886D01*
X189022371Y-89048043D01*
X189126775Y-88795989D01*
X189180000Y-88528411D01*
X189180000Y-88255589D01*
X189126775Y-87988011D01*
X189022371Y-87735957D01*
X188870799Y-87509114D01*
X188753685Y-87392000D01*
X188870799Y-87274886D01*
X189022371Y-87048043D01*
X189126775Y-86795989D01*
X189180000Y-86528411D01*
X189180000Y-86255589D01*
X189126775Y-85988011D01*
X189022371Y-85735957D01*
X188870799Y-85509114D01*
X188753685Y-85392000D01*
X188870799Y-85274886D01*
X189022371Y-85048043D01*
X189126775Y-84795989D01*
X189180000Y-84528411D01*
X189180000Y-84255589D01*
X189126775Y-83988011D01*
X189022371Y-83735957D01*
X188870799Y-83509114D01*
X188677886Y-83316201D01*
X188562492Y-83239097D01*
X187795000Y-82471605D01*
X187027508Y-83239097D01*
X186912114Y-83316201D01*
X186719201Y-83509114D01*
X186637091Y-83632000D01*
X182491801Y-83632000D01*
X183769206Y-82354595D01*
X186153282Y-82354595D01*
X186197039Y-82673675D01*
X186302205Y-82978088D01*
X186395186Y-83152044D01*
X186659587Y-83247808D01*
X187615395Y-82292000D01*
X186659587Y-81336192D01*
X186395186Y-81431956D01*
X186254296Y-81721571D01*
X186172616Y-82033108D01*
X186153282Y-82354595D01*
X183769206Y-82354595D01*
X185196388Y-80927413D01*
X186839192Y-80927413D01*
X186880695Y-81042000D01*
X186839192Y-81156587D01*
X187795000Y-82112395D01*
X188750808Y-81156587D01*
X188709305Y-81042000D01*
X188750808Y-80927413D01*
X187795000Y-79971605D01*
X186839192Y-80927413D01*
X185196388Y-80927413D01*
X186058003Y-80065799D01*
X186087001Y-80042001D01*
X186136411Y-79981795D01*
X186165813Y-79945969D01*
X186197039Y-80173675D01*
X186302205Y-80478088D01*
X186395186Y-80652044D01*
X186659587Y-80747808D01*
X187615395Y-79792000D01*
X186659587Y-78836192D01*
X186395186Y-78931956D01*
X186307000Y-79113232D01*
X186307000Y-77784801D01*
X186410000Y-77681801D01*
X186410000Y-77828411D01*
X186463225Y-78095989D01*
X186567629Y-78348043D01*
X186719201Y-78574886D01*
X186912114Y-78767799D01*
X187027508Y-78844903D01*
X187795000Y-79612395D01*
X188562492Y-78844903D01*
X188677886Y-78767799D01*
X188870799Y-78574886D01*
X189022371Y-78348043D01*
X189126775Y-78095989D01*
X189180000Y-77828411D01*
X189180000Y-77555589D01*
X189126775Y-77288011D01*
X189022371Y-77035957D01*
X188870799Y-76809114D01*
X188753685Y-76692000D01*
X188870799Y-76574886D01*
X189022371Y-76348043D01*
X189126775Y-76095989D01*
X189180000Y-75828411D01*
X189180000Y-75555589D01*
X189126775Y-75288011D01*
X189022371Y-75035957D01*
X188870799Y-74809114D01*
X188753685Y-74692000D01*
X188870799Y-74574886D01*
X189022371Y-74348043D01*
X189126775Y-74095989D01*
X189180000Y-73828411D01*
X189180000Y-73555589D01*
X189126775Y-73288011D01*
X189022371Y-73035957D01*
X188870799Y-72809114D01*
X188677886Y-72616201D01*
X188562492Y-72539097D01*
X187795000Y-71771605D01*
X187027508Y-72539097D01*
X186912114Y-72616201D01*
X186719201Y-72809114D01*
X186567629Y-73035957D01*
X186463225Y-73288011D01*
X186410000Y-73555589D01*
X186410000Y-73828411D01*
X186463225Y-74095989D01*
X186567629Y-74348043D01*
X186719201Y-74574886D01*
X186836315Y-74692000D01*
X186719201Y-74809114D01*
X186567629Y-75035957D01*
X186463225Y-75288011D01*
X186410000Y-75555589D01*
X186410000Y-75697854D01*
X186300559Y-75731052D01*
X186282754Y-75736453D01*
X186150724Y-75807025D01*
X186114512Y-75836744D01*
X186035000Y-75901998D01*
X186011202Y-75930996D01*
X185545000Y-76397198D01*
X185545000Y-71654595D01*
X186153282Y-71654595D01*
X186197039Y-71973675D01*
X186302205Y-72278088D01*
X186395186Y-72452044D01*
X186659587Y-72547808D01*
X187615395Y-71592000D01*
X186659587Y-70636192D01*
X186395186Y-70731956D01*
X186254296Y-71021571D01*
X186172616Y-71333108D01*
X186153282Y-71654595D01*
X185545000Y-71654595D01*
X185545000Y-70456587D01*
X186839192Y-70456587D01*
X187795000Y-71412395D01*
X188750808Y-70456587D01*
X188655044Y-70192186D01*
X188365429Y-70051296D01*
X188053892Y-69969616D01*
X187732405Y-69950282D01*
X187413325Y-69994039D01*
X187108912Y-70099205D01*
X186934956Y-70192186D01*
X186839192Y-70456587D01*
X185545000Y-70456587D01*
X185545000Y-64527981D01*
X185637981Y-64435001D01*
X186057223Y-64435001D01*
X186094545Y-64438677D01*
X186131867Y-64435001D01*
X186131878Y-64435001D01*
X186243531Y-64424004D01*
X186386792Y-64380547D01*
X186518821Y-64309975D01*
X186634546Y-64215002D01*
X186658349Y-64185998D01*
X186670542Y-64173805D01*
X186699546Y-64150002D01*
X186794519Y-64034277D01*
X186819216Y-63988072D01*
X187998180Y-63988072D01*
X188122662Y-63975812D01*
X188242360Y-63939502D01*
X188352674Y-63880537D01*
X188449365Y-63801185D01*
X188528717Y-63704494D01*
X188587682Y-63594180D01*
X188623992Y-63474482D01*
X188636252Y-63350000D01*
X188636252Y-60604000D01*
X189294000Y-60604000D01*
X189294001Y-70923875D01*
G36*
X104755519Y-89632000D02*
G01*
X93232909Y-89632000D01*
X93150799Y-89509114D01*
X93033685Y-89392000D01*
X93150799Y-89274886D01*
X93232909Y-89152000D01*
X105235519Y-89152000D01*
X104755519Y-89632000D01*
X104755519Y-89632000D01*
G37*
X104755519Y-89632000D02*
X93232909Y-89632000D01*
X93150799Y-89509114D01*
X93033685Y-89392000D01*
X93150799Y-89274886D01*
X93232909Y-89152000D01*
X105235519Y-89152000D01*
X104755519Y-89632000D01*
G36*
X119142463Y-76900506D02*
G01*
X119083498Y-77010820D01*
X119047188Y-77130518D01*
X119034928Y-77255000D01*
X119034928Y-78742000D01*
X117639322Y-78742000D01*
X117601999Y-78738324D01*
X117564676Y-78742000D01*
X117564667Y-78742000D01*
X117453014Y-78752997D01*
X117309753Y-78796454D01*
X117213319Y-78848000D01*
X117119061Y-78848000D01*
X116919102Y-78887774D01*
X116730744Y-78965795D01*
X116561226Y-79079063D01*
X116417063Y-79223226D01*
X116303795Y-79392744D01*
X116225774Y-79581102D01*
X116186000Y-79781061D01*
X116186000Y-79885000D01*
X113829322Y-79885000D01*
X113791999Y-79881324D01*
X113754676Y-79885000D01*
X113754667Y-79885000D01*
X113643014Y-79895997D01*
X113499753Y-79939454D01*
X113367724Y-80010026D01*
X113367722Y-80010027D01*
X113367723Y-80010027D01*
X113280996Y-80081201D01*
X113280992Y-80081205D01*
X113251999Y-80104999D01*
X113228205Y-80133992D01*
X105730199Y-87632000D01*
X93232909Y-87632000D01*
X93150799Y-87509114D01*
X92957886Y-87316201D01*
X92731043Y-87164629D01*
X92478989Y-87060225D01*
X92211411Y-87007000D01*
X91938589Y-87007000D01*
X91671011Y-87060225D01*
X91418957Y-87164629D01*
X91192114Y-87316201D01*
X91184000Y-87324315D01*
X91184000Y-86357801D01*
X91793635Y-85748167D01*
X91938589Y-85777000D01*
X92211411Y-85777000D01*
X92478989Y-85723775D01*
X92731043Y-85619371D01*
X92957886Y-85467799D01*
X93150799Y-85274886D01*
X93302371Y-85048043D01*
X93406775Y-84795989D01*
X93460000Y-84528411D01*
X93460000Y-84255589D01*
X93406775Y-83988011D01*
X93302371Y-83735957D01*
X93150799Y-83509114D01*
X92957886Y-83316201D01*
X92842492Y-83239097D01*
X92075000Y-82471605D01*
X91307508Y-83239097D01*
X91192114Y-83316201D01*
X90999201Y-83509114D01*
X90847629Y-83735957D01*
X90743225Y-83988011D01*
X90690000Y-84255589D01*
X90690000Y-84528411D01*
X90718833Y-84673365D01*
X90614000Y-84778199D01*
X90614000Y-83037573D01*
X90675186Y-83152044D01*
X90939587Y-83247808D01*
X91895395Y-82292000D01*
X92254605Y-82292000D01*
X93210413Y-83247808D01*
X93474814Y-83152044D01*
X93615704Y-82862429D01*
X93697384Y-82550892D01*
X93716718Y-82229405D01*
X93672961Y-81910325D01*
X93567795Y-81605912D01*
X93474814Y-81431956D01*
X93210413Y-81336192D01*
X92254605Y-82292000D01*
X91895395Y-82292000D01*
X90939587Y-81336192D01*
X90675186Y-81431956D01*
X90614000Y-81557731D01*
X90614000Y-81156587D01*
X91119192Y-81156587D01*
X92075000Y-82112395D01*
X93030808Y-81156587D01*
X92935044Y-80892186D01*
X92645429Y-80751296D01*
X92333892Y-80669616D01*
X92012405Y-80650282D01*
X91693325Y-80694039D01*
X91388912Y-80799205D01*
X91214956Y-80892186D01*
X91119192Y-81156587D01*
X90614000Y-81156587D01*
X90614000Y-79789872D01*
X95174000Y-79789872D01*
X95174000Y-80230128D01*
X95259890Y-80661925D01*
X95428369Y-81068669D01*
X95672962Y-81434729D01*
X95984271Y-81746038D01*
X96350331Y-81990631D01*
X96757075Y-82159110D01*
X97188872Y-82245000D01*
X97629128Y-82245000D01*
X98060925Y-82159110D01*
X98467669Y-81990631D01*
X98833729Y-81746038D01*
X99145038Y-81434729D01*
X99389631Y-81068669D01*
X99558110Y-80661925D01*
X99644000Y-80230128D01*
X99644000Y-79789872D01*
X99558110Y-79358075D01*
X99389631Y-78951331D01*
X99145038Y-78585271D01*
X98833729Y-78273962D01*
X98467669Y-78029369D01*
X98060925Y-77860890D01*
X97629128Y-77775000D01*
X97188872Y-77775000D01*
X96757075Y-77860890D01*
X96350331Y-78029369D01*
X95984271Y-78273962D01*
X95672962Y-78585271D01*
X95428369Y-78951331D01*
X95259890Y-79358075D01*
X95174000Y-79789872D01*
X90614000Y-79789872D01*
X90614000Y-76860000D01*
X119175705Y-76860000D01*
X119142463Y-76900506D01*
X119142463Y-76900506D01*
G37*
X119142463Y-76900506D02*
X119083498Y-77010820D01*
X119047188Y-77130518D01*
X119034928Y-77255000D01*
X119034928Y-78742000D01*
X117639322Y-78742000D01*
X117601999Y-78738324D01*
X117564676Y-78742000D01*
X117564667Y-78742000D01*
X117453014Y-78752997D01*
X117309753Y-78796454D01*
X117213319Y-78848000D01*
X117119061Y-78848000D01*
X116919102Y-78887774D01*
X116730744Y-78965795D01*
X116561226Y-79079063D01*
X116417063Y-79223226D01*
X116303795Y-79392744D01*
X116225774Y-79581102D01*
X116186000Y-79781061D01*
X116186000Y-79885000D01*
X113829322Y-79885000D01*
X113791999Y-79881324D01*
X113754676Y-79885000D01*
X113754667Y-79885000D01*
X113643014Y-79895997D01*
X113499753Y-79939454D01*
X113367724Y-80010026D01*
X113367722Y-80010027D01*
X113367723Y-80010027D01*
X113280996Y-80081201D01*
X113280992Y-80081205D01*
X113251999Y-80104999D01*
X113228205Y-80133992D01*
X105730199Y-87632000D01*
X93232909Y-87632000D01*
X93150799Y-87509114D01*
X92957886Y-87316201D01*
X92731043Y-87164629D01*
X92478989Y-87060225D01*
X92211411Y-87007000D01*
X91938589Y-87007000D01*
X91671011Y-87060225D01*
X91418957Y-87164629D01*
X91192114Y-87316201D01*
X91184000Y-87324315D01*
X91184000Y-86357801D01*
X91793635Y-85748167D01*
X91938589Y-85777000D01*
X92211411Y-85777000D01*
X92478989Y-85723775D01*
X92731043Y-85619371D01*
X92957886Y-85467799D01*
X93150799Y-85274886D01*
X93302371Y-85048043D01*
X93406775Y-84795989D01*
X93460000Y-84528411D01*
X93460000Y-84255589D01*
X93406775Y-83988011D01*
X93302371Y-83735957D01*
X93150799Y-83509114D01*
X92957886Y-83316201D01*
X92842492Y-83239097D01*
X92075000Y-82471605D01*
X91307508Y-83239097D01*
X91192114Y-83316201D01*
X90999201Y-83509114D01*
X90847629Y-83735957D01*
X90743225Y-83988011D01*
X90690000Y-84255589D01*
X90690000Y-84528411D01*
X90718833Y-84673365D01*
X90614000Y-84778199D01*
X90614000Y-83037573D01*
X90675186Y-83152044D01*
X90939587Y-83247808D01*
X91895395Y-82292000D01*
X92254605Y-82292000D01*
X93210413Y-83247808D01*
X93474814Y-83152044D01*
X93615704Y-82862429D01*
X93697384Y-82550892D01*
X93716718Y-82229405D01*
X93672961Y-81910325D01*
X93567795Y-81605912D01*
X93474814Y-81431956D01*
X93210413Y-81336192D01*
X92254605Y-82292000D01*
X91895395Y-82292000D01*
X90939587Y-81336192D01*
X90675186Y-81431956D01*
X90614000Y-81557731D01*
X90614000Y-81156587D01*
X91119192Y-81156587D01*
X92075000Y-82112395D01*
X93030808Y-81156587D01*
X92935044Y-80892186D01*
X92645429Y-80751296D01*
X92333892Y-80669616D01*
X92012405Y-80650282D01*
X91693325Y-80694039D01*
X91388912Y-80799205D01*
X91214956Y-80892186D01*
X91119192Y-81156587D01*
X90614000Y-81156587D01*
X90614000Y-79789872D01*
X95174000Y-79789872D01*
X95174000Y-80230128D01*
X95259890Y-80661925D01*
X95428369Y-81068669D01*
X95672962Y-81434729D01*
X95984271Y-81746038D01*
X96350331Y-81990631D01*
X96757075Y-82159110D01*
X97188872Y-82245000D01*
X97629128Y-82245000D01*
X98060925Y-82159110D01*
X98467669Y-81990631D01*
X98833729Y-81746038D01*
X99145038Y-81434729D01*
X99389631Y-81068669D01*
X99558110Y-80661925D01*
X99644000Y-80230128D01*
X99644000Y-79789872D01*
X99558110Y-79358075D01*
X99389631Y-78951331D01*
X99145038Y-78585271D01*
X98833729Y-78273962D01*
X98467669Y-78029369D01*
X98060925Y-77860890D01*
X97629128Y-77775000D01*
X97188872Y-77775000D01*
X96757075Y-77860890D01*
X96350331Y-78029369D01*
X95984271Y-78273962D01*
X95672962Y-78585271D01*
X95428369Y-78951331D01*
X95259890Y-79358075D01*
X95174000Y-79789872D01*
X90614000Y-79789872D01*
X90614000Y-76860000D01*
X119175705Y-76860000D01*
X119142463Y-76900506D01*
G36*
X140787201Y-86363003D02*
G01*
X140802791Y-86381999D01*
X140579791Y-86381999D01*
X135602791Y-81405000D01*
X135829199Y-81405000D01*
X140787201Y-86363003D01*
X140787201Y-86363003D01*
G37*
X140787201Y-86363003D02*
X140802791Y-86381999D01*
X140579791Y-86381999D01*
X135602791Y-81405000D01*
X135829199Y-81405000D01*
X140787201Y-86363003D01*
G36*
X176236199Y-84817000D02*
G01*
X176174061Y-84817000D01*
X175974102Y-84856774D01*
X175785744Y-84934795D01*
X175616226Y-85048063D01*
X175572289Y-85092000D01*
X150043802Y-85092000D01*
X150809803Y-84326000D01*
X176727198Y-84326000D01*
X176236199Y-84817000D01*
X176236199Y-84817000D01*
G37*
X176236199Y-84817000D02*
X176174061Y-84817000D01*
X175974102Y-84856774D01*
X175785744Y-84934795D01*
X175616226Y-85048063D01*
X175572289Y-85092000D01*
X150043802Y-85092000D01*
X150809803Y-84326000D01*
X176727198Y-84326000D01*
X176236199Y-84817000D01*
G36*
X176557000Y-61623000D02*
G01*
X178466636Y-61623000D01*
X178466636Y-61603000D01*
X178720636Y-61603000D01*
X178720636Y-61623000D01*
X178740636Y-61623000D01*
X178740636Y-61877000D01*
X178720636Y-61877000D01*
X178720636Y-63826250D01*
X178879386Y-63985000D01*
X179343636Y-63988072D01*
X179468118Y-63975812D01*
X179587816Y-63939502D01*
X179675454Y-63892658D01*
X179763092Y-63939502D01*
X179882790Y-63975812D01*
X179997272Y-63987087D01*
X179997273Y-74547940D01*
X179993596Y-74585272D01*
X180008270Y-74734257D01*
X180051726Y-74877518D01*
X180114765Y-74995454D01*
X180006898Y-74950774D01*
X179806939Y-74911000D01*
X179603061Y-74911000D01*
X179403102Y-74950774D01*
X179214744Y-75028795D01*
X179045226Y-75142063D01*
X178901063Y-75286226D01*
X178787795Y-75455744D01*
X178709774Y-75644102D01*
X178670000Y-75844061D01*
X178670000Y-75906197D01*
X176850199Y-77726000D01*
X140499323Y-77726000D01*
X140462000Y-77722324D01*
X140424677Y-77726000D01*
X140424667Y-77726000D01*
X140313014Y-77736997D01*
X140169753Y-77780454D01*
X140037724Y-77851026D01*
X139921999Y-77945999D01*
X139898196Y-77975003D01*
X139533199Y-78340000D01*
X139471061Y-78340000D01*
X139271102Y-78379774D01*
X139082744Y-78457795D01*
X138913226Y-78571063D01*
X138769063Y-78715226D01*
X138655795Y-78884744D01*
X138577774Y-79073102D01*
X138538000Y-79273061D01*
X138538000Y-79476939D01*
X138577774Y-79676898D01*
X138655795Y-79865256D01*
X138769063Y-80034774D01*
X138913226Y-80178937D01*
X139082744Y-80292205D01*
X139271102Y-80370226D01*
X139471061Y-80410000D01*
X139674939Y-80410000D01*
X139874898Y-80370226D01*
X140063256Y-80292205D01*
X140232774Y-80178937D01*
X140376937Y-80034774D01*
X140490205Y-79865256D01*
X140568226Y-79676898D01*
X140608000Y-79476939D01*
X140608000Y-79414801D01*
X140776801Y-79246000D01*
X145135134Y-79246000D01*
X144879271Y-79416962D01*
X144567962Y-79728271D01*
X144323369Y-80094331D01*
X144154890Y-80501075D01*
X144069000Y-80932872D01*
X144069000Y-81373128D01*
X144154890Y-81804925D01*
X144323369Y-82211669D01*
X144567962Y-82577729D01*
X144879271Y-82889038D01*
X145245331Y-83133631D01*
X145652075Y-83302110D01*
X146083872Y-83388000D01*
X146524128Y-83388000D01*
X146955925Y-83302110D01*
X147362669Y-83133631D01*
X147728729Y-82889038D01*
X148040038Y-82577729D01*
X148284631Y-82211669D01*
X148453110Y-81804925D01*
X148539000Y-81373128D01*
X148539000Y-80932872D01*
X148453110Y-80501075D01*
X148284631Y-80094331D01*
X148040038Y-79728271D01*
X147728729Y-79416962D01*
X147472866Y-79246000D01*
X177127678Y-79246000D01*
X177165000Y-79249676D01*
X177202322Y-79246000D01*
X177202333Y-79246000D01*
X177313986Y-79235003D01*
X177457247Y-79191546D01*
X177589276Y-79120974D01*
X177705001Y-79026001D01*
X177728804Y-78996997D01*
X179744803Y-76981000D01*
X179806939Y-76981000D01*
X180006898Y-76941226D01*
X180195256Y-76863205D01*
X180364774Y-76749937D01*
X180508937Y-76605774D01*
X180622205Y-76436256D01*
X180700226Y-76247898D01*
X180740000Y-76047939D01*
X180740000Y-75844061D01*
X180700226Y-75644102D01*
X180671181Y-75573983D01*
X181464000Y-76366802D01*
X181464000Y-76428939D01*
X181503774Y-76628898D01*
X181581795Y-76817256D01*
X181695063Y-76986774D01*
X181839226Y-77130937D01*
X182008744Y-77244205D01*
X182197102Y-77322226D01*
X182397061Y-77362000D01*
X182600939Y-77362000D01*
X182800898Y-77322226D01*
X182989256Y-77244205D01*
X183158774Y-77130937D01*
X183263001Y-77026710D01*
X183263001Y-77720201D01*
X180844203Y-80139000D01*
X161993711Y-80139000D01*
X161949774Y-80095063D01*
X161780256Y-79981795D01*
X161591898Y-79903774D01*
X161391939Y-79864000D01*
X161188061Y-79864000D01*
X160988102Y-79903774D01*
X160799744Y-79981795D01*
X160630226Y-80095063D01*
X160486063Y-80239226D01*
X160372795Y-80408744D01*
X160294774Y-80597102D01*
X160255000Y-80797061D01*
X160255000Y-81000939D01*
X160294774Y-81200898D01*
X160372795Y-81389256D01*
X160486063Y-81558774D01*
X160630226Y-81702937D01*
X160799744Y-81816205D01*
X160988102Y-81894226D01*
X161188061Y-81934000D01*
X161391939Y-81934000D01*
X161591898Y-81894226D01*
X161780256Y-81816205D01*
X161949774Y-81702937D01*
X161993711Y-81659000D01*
X165281368Y-81659000D01*
X165247774Y-81740102D01*
X165208000Y-81940061D01*
X165208000Y-82143939D01*
X165247774Y-82343898D01*
X165325795Y-82532256D01*
X165439063Y-82701774D01*
X165543289Y-82806000D01*
X150532322Y-82806000D01*
X150494999Y-82802324D01*
X150457676Y-82806000D01*
X150457667Y-82806000D01*
X150346014Y-82816997D01*
X150202753Y-82860454D01*
X150070724Y-82931026D01*
X150070722Y-82931027D01*
X150070723Y-82931027D01*
X149983996Y-83002201D01*
X149983992Y-83002205D01*
X149954999Y-83025999D01*
X149931205Y-83054992D01*
X148656199Y-84330000D01*
X142427803Y-84330000D01*
X137088804Y-78991003D01*
X137065001Y-78961999D01*
X136949276Y-78867026D01*
X136817247Y-78796454D01*
X136673986Y-78752997D01*
X136562333Y-78742000D01*
X136562322Y-78742000D01*
X136525000Y-78738324D01*
X136487678Y-78742000D01*
X126946339Y-78742000D01*
X126981599Y-78676034D01*
X127066513Y-78396111D01*
X127095185Y-78105000D01*
X127066513Y-77813889D01*
X126981599Y-77533966D01*
X126843706Y-77275986D01*
X126658134Y-77049866D01*
X126432014Y-76864294D01*
X126423980Y-76860000D01*
X174808581Y-76860000D01*
X174841000Y-76863193D01*
X174873419Y-76860000D01*
X174970383Y-76850450D01*
X175094793Y-76812710D01*
X175209450Y-76751425D01*
X175309948Y-76668948D01*
X175392425Y-76568450D01*
X175453710Y-76453793D01*
X175491450Y-76329383D01*
X175504193Y-76200000D01*
X175501000Y-76167581D01*
X175501000Y-63959274D01*
X175555518Y-63975812D01*
X175680000Y-63988072D01*
X176144250Y-63985000D01*
X176303000Y-63826250D01*
X176303000Y-61877000D01*
X176557000Y-61877000D01*
X176557000Y-63826250D01*
X176715750Y-63985000D01*
X177180000Y-63988072D01*
X177304482Y-63975812D01*
X177424180Y-63939502D01*
X177511818Y-63892658D01*
X177599456Y-63939502D01*
X177719154Y-63975812D01*
X177843636Y-63988072D01*
X178307886Y-63985000D01*
X178466636Y-63826250D01*
X178466636Y-61877000D01*
X176557000Y-61877000D01*
X176303000Y-61877000D01*
X176283000Y-61877000D01*
X176283000Y-61623000D01*
X176303000Y-61623000D01*
X176303000Y-61603000D01*
X176557000Y-61603000D01*
X176557000Y-61623000D01*
X176557000Y-61623000D01*
G37*
X176557000Y-61623000D02*
X178466636Y-61623000D01*
X178466636Y-61603000D01*
X178720636Y-61603000D01*
X178720636Y-61623000D01*
X178740636Y-61623000D01*
X178740636Y-61877000D01*
X178720636Y-61877000D01*
X178720636Y-63826250D01*
X178879386Y-63985000D01*
X179343636Y-63988072D01*
X179468118Y-63975812D01*
X179587816Y-63939502D01*
X179675454Y-63892658D01*
X179763092Y-63939502D01*
X179882790Y-63975812D01*
X179997272Y-63987087D01*
X179997273Y-74547940D01*
X179993596Y-74585272D01*
X180008270Y-74734257D01*
X180051726Y-74877518D01*
X180114765Y-74995454D01*
X180006898Y-74950774D01*
X179806939Y-74911000D01*
X179603061Y-74911000D01*
X179403102Y-74950774D01*
X179214744Y-75028795D01*
X179045226Y-75142063D01*
X178901063Y-75286226D01*
X178787795Y-75455744D01*
X178709774Y-75644102D01*
X178670000Y-75844061D01*
X178670000Y-75906197D01*
X176850199Y-77726000D01*
X140499323Y-77726000D01*
X140462000Y-77722324D01*
X140424677Y-77726000D01*
X140424667Y-77726000D01*
X140313014Y-77736997D01*
X140169753Y-77780454D01*
X140037724Y-77851026D01*
X139921999Y-77945999D01*
X139898196Y-77975003D01*
X139533199Y-78340000D01*
X139471061Y-78340000D01*
X139271102Y-78379774D01*
X139082744Y-78457795D01*
X138913226Y-78571063D01*
X138769063Y-78715226D01*
X138655795Y-78884744D01*
X138577774Y-79073102D01*
X138538000Y-79273061D01*
X138538000Y-79476939D01*
X138577774Y-79676898D01*
X138655795Y-79865256D01*
X138769063Y-80034774D01*
X138913226Y-80178937D01*
X139082744Y-80292205D01*
X139271102Y-80370226D01*
X139471061Y-80410000D01*
X139674939Y-80410000D01*
X139874898Y-80370226D01*
X140063256Y-80292205D01*
X140232774Y-80178937D01*
X140376937Y-80034774D01*
X140490205Y-79865256D01*
X140568226Y-79676898D01*
X140608000Y-79476939D01*
X140608000Y-79414801D01*
X140776801Y-79246000D01*
X145135134Y-79246000D01*
X144879271Y-79416962D01*
X144567962Y-79728271D01*
X144323369Y-80094331D01*
X144154890Y-80501075D01*
X144069000Y-80932872D01*
X144069000Y-81373128D01*
X144154890Y-81804925D01*
X144323369Y-82211669D01*
X144567962Y-82577729D01*
X144879271Y-82889038D01*
X145245331Y-83133631D01*
X145652075Y-83302110D01*
X146083872Y-83388000D01*
X146524128Y-83388000D01*
X146955925Y-83302110D01*
X147362669Y-83133631D01*
X147728729Y-82889038D01*
X148040038Y-82577729D01*
X148284631Y-82211669D01*
X148453110Y-81804925D01*
X148539000Y-81373128D01*
X148539000Y-80932872D01*
X148453110Y-80501075D01*
X148284631Y-80094331D01*
X148040038Y-79728271D01*
X147728729Y-79416962D01*
X147472866Y-79246000D01*
X177127678Y-79246000D01*
X177165000Y-79249676D01*
X177202322Y-79246000D01*
X177202333Y-79246000D01*
X177313986Y-79235003D01*
X177457247Y-79191546D01*
X177589276Y-79120974D01*
X177705001Y-79026001D01*
X177728804Y-78996997D01*
X179744803Y-76981000D01*
X179806939Y-76981000D01*
X180006898Y-76941226D01*
X180195256Y-76863205D01*
X180364774Y-76749937D01*
X180508937Y-76605774D01*
X180622205Y-76436256D01*
X180700226Y-76247898D01*
X180740000Y-76047939D01*
X180740000Y-75844061D01*
X180700226Y-75644102D01*
X180671181Y-75573983D01*
X181464000Y-76366802D01*
X181464000Y-76428939D01*
X181503774Y-76628898D01*
X181581795Y-76817256D01*
X181695063Y-76986774D01*
X181839226Y-77130937D01*
X182008744Y-77244205D01*
X182197102Y-77322226D01*
X182397061Y-77362000D01*
X182600939Y-77362000D01*
X182800898Y-77322226D01*
X182989256Y-77244205D01*
X183158774Y-77130937D01*
X183263001Y-77026710D01*
X183263001Y-77720201D01*
X180844203Y-80139000D01*
X161993711Y-80139000D01*
X161949774Y-80095063D01*
X161780256Y-79981795D01*
X161591898Y-79903774D01*
X161391939Y-79864000D01*
X161188061Y-79864000D01*
X160988102Y-79903774D01*
X160799744Y-79981795D01*
X160630226Y-80095063D01*
X160486063Y-80239226D01*
X160372795Y-80408744D01*
X160294774Y-80597102D01*
X160255000Y-80797061D01*
X160255000Y-81000939D01*
X160294774Y-81200898D01*
X160372795Y-81389256D01*
X160486063Y-81558774D01*
X160630226Y-81702937D01*
X160799744Y-81816205D01*
X160988102Y-81894226D01*
X161188061Y-81934000D01*
X161391939Y-81934000D01*
X161591898Y-81894226D01*
X161780256Y-81816205D01*
X161949774Y-81702937D01*
X161993711Y-81659000D01*
X165281368Y-81659000D01*
X165247774Y-81740102D01*
X165208000Y-81940061D01*
X165208000Y-82143939D01*
X165247774Y-82343898D01*
X165325795Y-82532256D01*
X165439063Y-82701774D01*
X165543289Y-82806000D01*
X150532322Y-82806000D01*
X150494999Y-82802324D01*
X150457676Y-82806000D01*
X150457667Y-82806000D01*
X150346014Y-82816997D01*
X150202753Y-82860454D01*
X150070724Y-82931026D01*
X150070722Y-82931027D01*
X150070723Y-82931027D01*
X149983996Y-83002201D01*
X149983992Y-83002205D01*
X149954999Y-83025999D01*
X149931205Y-83054992D01*
X148656199Y-84330000D01*
X142427803Y-84330000D01*
X137088804Y-78991003D01*
X137065001Y-78961999D01*
X136949276Y-78867026D01*
X136817247Y-78796454D01*
X136673986Y-78752997D01*
X136562333Y-78742000D01*
X136562322Y-78742000D01*
X136525000Y-78738324D01*
X136487678Y-78742000D01*
X126946339Y-78742000D01*
X126981599Y-78676034D01*
X127066513Y-78396111D01*
X127095185Y-78105000D01*
X127066513Y-77813889D01*
X126981599Y-77533966D01*
X126843706Y-77275986D01*
X126658134Y-77049866D01*
X126432014Y-76864294D01*
X126423980Y-76860000D01*
X174808581Y-76860000D01*
X174841000Y-76863193D01*
X174873419Y-76860000D01*
X174970383Y-76850450D01*
X175094793Y-76812710D01*
X175209450Y-76751425D01*
X175309948Y-76668948D01*
X175392425Y-76568450D01*
X175453710Y-76453793D01*
X175491450Y-76329383D01*
X175504193Y-76200000D01*
X175501000Y-76167581D01*
X175501000Y-63959274D01*
X175555518Y-63975812D01*
X175680000Y-63988072D01*
X176144250Y-63985000D01*
X176303000Y-63826250D01*
X176303000Y-61877000D01*
X176557000Y-61877000D01*
X176557000Y-63826250D01*
X176715750Y-63985000D01*
X177180000Y-63988072D01*
X177304482Y-63975812D01*
X177424180Y-63939502D01*
X177511818Y-63892658D01*
X177599456Y-63939502D01*
X177719154Y-63975812D01*
X177843636Y-63988072D01*
X178307886Y-63985000D01*
X178466636Y-63826250D01*
X178466636Y-61877000D01*
X176557000Y-61877000D01*
X176303000Y-61877000D01*
X176283000Y-61877000D01*
X176283000Y-61623000D01*
X176303000Y-61623000D01*
X176303000Y-61603000D01*
X176557000Y-61603000D01*
X176557000Y-61623000D01*
G36*
X181168199Y-82806000D02*
G01*
X166942711Y-82806000D01*
X166946711Y-82802000D01*
X181172199Y-82802000D01*
X181168199Y-82806000D01*
X181168199Y-82806000D01*
G37*
X181168199Y-82806000D02*
X166942711Y-82806000D01*
X166946711Y-82802000D01*
X181172199Y-82802000D01*
X181168199Y-82806000D01*
G36*
X181926728Y-63939502D02*
G01*
X182046426Y-63975812D01*
X182170908Y-63988072D01*
X182628000Y-63988072D01*
X182628001Y-73345198D01*
X182459199Y-73514000D01*
X182397061Y-73514000D01*
X182197102Y-73553774D01*
X182008744Y-73631795D01*
X181839226Y-73745063D01*
X181695063Y-73889226D01*
X181581795Y-74058744D01*
X181517272Y-74214515D01*
X181517272Y-63987087D01*
X181631754Y-63975812D01*
X181751452Y-63939502D01*
X181839090Y-63892658D01*
X181926728Y-63939502D01*
X181926728Y-63939502D01*
G37*
X181926728Y-63939502D02*
X182046426Y-63975812D01*
X182170908Y-63988072D01*
X182628000Y-63988072D01*
X182628001Y-73345198D01*
X182459199Y-73514000D01*
X182397061Y-73514000D01*
X182197102Y-73553774D01*
X182008744Y-73631795D01*
X181839226Y-73745063D01*
X181695063Y-73889226D01*
X181581795Y-74058744D01*
X181517272Y-74214515D01*
X181517272Y-63987087D01*
X181631754Y-63975812D01*
X181751452Y-63939502D01*
X181839090Y-63892658D01*
X181926728Y-63939502D01*
M02*
