G04 #@! TF.GenerationSoftware,KiCad,Pcbnew,(5.1.0)-1*
G04 #@! TF.CreationDate,2019-06-24T23:24:27-04:00*
G04 #@! TF.ProjectId,PSX Breakout,50535820-4272-4656-916b-6f75742e6b69,rev?*
G04 #@! TF.SameCoordinates,Original*
G04 #@! TF.FileFunction,Paste,Top*
G04 #@! TF.FilePolarity,Positive*
%FSLAX46Y46*%
G04 Gerber Fmt 4.6, Leading zero omitted, Abs format (unit mm)*
G04 Created by KiCad (PCBNEW (5.1.0)-1) date 2019-06-24 23:24:27*
%MOMM*%
%LPD*%
G04 APERTURE LIST*
%ADD10R,1.500000X3.200000*%
%ADD11C,0.100000*%
%ADD12C,0.950000*%
%ADD13C,2.500000*%
%ADD14C,1.600000*%
%ADD15R,1.550000X0.600000*%
G04 APERTURE END LIST*
D10*
X188330000Y-61750000D03*
X177511818Y-61750000D03*
X179675454Y-61750000D03*
X181839090Y-61750000D03*
X184002726Y-61750000D03*
X186166362Y-61750000D03*
D11*
G36*
X114243779Y-87029144D02*
G01*
X114266834Y-87032563D01*
X114289443Y-87038227D01*
X114311387Y-87046079D01*
X114332457Y-87056044D01*
X114352448Y-87068026D01*
X114371168Y-87081910D01*
X114388438Y-87097562D01*
X114404090Y-87114832D01*
X114417974Y-87133552D01*
X114429956Y-87153543D01*
X114439921Y-87174613D01*
X114447773Y-87196557D01*
X114453437Y-87219166D01*
X114456856Y-87242221D01*
X114458000Y-87265500D01*
X114458000Y-87740500D01*
X114456856Y-87763779D01*
X114453437Y-87786834D01*
X114447773Y-87809443D01*
X114439921Y-87831387D01*
X114429956Y-87852457D01*
X114417974Y-87872448D01*
X114404090Y-87891168D01*
X114388438Y-87908438D01*
X114371168Y-87924090D01*
X114352448Y-87937974D01*
X114332457Y-87949956D01*
X114311387Y-87959921D01*
X114289443Y-87967773D01*
X114266834Y-87973437D01*
X114243779Y-87976856D01*
X114220500Y-87978000D01*
X113645500Y-87978000D01*
X113622221Y-87976856D01*
X113599166Y-87973437D01*
X113576557Y-87967773D01*
X113554613Y-87959921D01*
X113533543Y-87949956D01*
X113513552Y-87937974D01*
X113494832Y-87924090D01*
X113477562Y-87908438D01*
X113461910Y-87891168D01*
X113448026Y-87872448D01*
X113436044Y-87852457D01*
X113426079Y-87831387D01*
X113418227Y-87809443D01*
X113412563Y-87786834D01*
X113409144Y-87763779D01*
X113408000Y-87740500D01*
X113408000Y-87265500D01*
X113409144Y-87242221D01*
X113412563Y-87219166D01*
X113418227Y-87196557D01*
X113426079Y-87174613D01*
X113436044Y-87153543D01*
X113448026Y-87133552D01*
X113461910Y-87114832D01*
X113477562Y-87097562D01*
X113494832Y-87081910D01*
X113513552Y-87068026D01*
X113533543Y-87056044D01*
X113554613Y-87046079D01*
X113576557Y-87038227D01*
X113599166Y-87032563D01*
X113622221Y-87029144D01*
X113645500Y-87028000D01*
X114220500Y-87028000D01*
X114243779Y-87029144D01*
X114243779Y-87029144D01*
G37*
D12*
X113933000Y-87503000D03*
D11*
G36*
X115993779Y-87029144D02*
G01*
X116016834Y-87032563D01*
X116039443Y-87038227D01*
X116061387Y-87046079D01*
X116082457Y-87056044D01*
X116102448Y-87068026D01*
X116121168Y-87081910D01*
X116138438Y-87097562D01*
X116154090Y-87114832D01*
X116167974Y-87133552D01*
X116179956Y-87153543D01*
X116189921Y-87174613D01*
X116197773Y-87196557D01*
X116203437Y-87219166D01*
X116206856Y-87242221D01*
X116208000Y-87265500D01*
X116208000Y-87740500D01*
X116206856Y-87763779D01*
X116203437Y-87786834D01*
X116197773Y-87809443D01*
X116189921Y-87831387D01*
X116179956Y-87852457D01*
X116167974Y-87872448D01*
X116154090Y-87891168D01*
X116138438Y-87908438D01*
X116121168Y-87924090D01*
X116102448Y-87937974D01*
X116082457Y-87949956D01*
X116061387Y-87959921D01*
X116039443Y-87967773D01*
X116016834Y-87973437D01*
X115993779Y-87976856D01*
X115970500Y-87978000D01*
X115395500Y-87978000D01*
X115372221Y-87976856D01*
X115349166Y-87973437D01*
X115326557Y-87967773D01*
X115304613Y-87959921D01*
X115283543Y-87949956D01*
X115263552Y-87937974D01*
X115244832Y-87924090D01*
X115227562Y-87908438D01*
X115211910Y-87891168D01*
X115198026Y-87872448D01*
X115186044Y-87852457D01*
X115176079Y-87831387D01*
X115168227Y-87809443D01*
X115162563Y-87786834D01*
X115159144Y-87763779D01*
X115158000Y-87740500D01*
X115158000Y-87265500D01*
X115159144Y-87242221D01*
X115162563Y-87219166D01*
X115168227Y-87196557D01*
X115176079Y-87174613D01*
X115186044Y-87153543D01*
X115198026Y-87133552D01*
X115211910Y-87114832D01*
X115227562Y-87097562D01*
X115244832Y-87081910D01*
X115263552Y-87068026D01*
X115283543Y-87056044D01*
X115304613Y-87046079D01*
X115326557Y-87038227D01*
X115349166Y-87032563D01*
X115372221Y-87029144D01*
X115395500Y-87028000D01*
X115970500Y-87028000D01*
X115993779Y-87029144D01*
X115993779Y-87029144D01*
G37*
D12*
X115683000Y-87503000D03*
D11*
G36*
X168837504Y-77059204D02*
G01*
X168861773Y-77062804D01*
X168885571Y-77068765D01*
X168908671Y-77077030D01*
X168930849Y-77087520D01*
X168951893Y-77100133D01*
X168971598Y-77114747D01*
X168989777Y-77131223D01*
X169006253Y-77149402D01*
X169020867Y-77169107D01*
X169033480Y-77190151D01*
X169043970Y-77212329D01*
X169052235Y-77235429D01*
X169058196Y-77259227D01*
X169061796Y-77283496D01*
X169063000Y-77308000D01*
X169063000Y-80808000D01*
X169061796Y-80832504D01*
X169058196Y-80856773D01*
X169052235Y-80880571D01*
X169043970Y-80903671D01*
X169033480Y-80925849D01*
X169020867Y-80946893D01*
X169006253Y-80966598D01*
X168989777Y-80984777D01*
X168971598Y-81001253D01*
X168951893Y-81015867D01*
X168930849Y-81028480D01*
X168908671Y-81038970D01*
X168885571Y-81047235D01*
X168861773Y-81053196D01*
X168837504Y-81056796D01*
X168813000Y-81058000D01*
X166813000Y-81058000D01*
X166788496Y-81056796D01*
X166764227Y-81053196D01*
X166740429Y-81047235D01*
X166717329Y-81038970D01*
X166695151Y-81028480D01*
X166674107Y-81015867D01*
X166654402Y-81001253D01*
X166636223Y-80984777D01*
X166619747Y-80966598D01*
X166605133Y-80946893D01*
X166592520Y-80925849D01*
X166582030Y-80903671D01*
X166573765Y-80880571D01*
X166567804Y-80856773D01*
X166564204Y-80832504D01*
X166563000Y-80808000D01*
X166563000Y-77308000D01*
X166564204Y-77283496D01*
X166567804Y-77259227D01*
X166573765Y-77235429D01*
X166582030Y-77212329D01*
X166592520Y-77190151D01*
X166605133Y-77169107D01*
X166619747Y-77149402D01*
X166636223Y-77131223D01*
X166654402Y-77114747D01*
X166674107Y-77100133D01*
X166695151Y-77087520D01*
X166717329Y-77077030D01*
X166740429Y-77068765D01*
X166764227Y-77062804D01*
X166788496Y-77059204D01*
X166813000Y-77058000D01*
X168813000Y-77058000D01*
X168837504Y-77059204D01*
X168837504Y-77059204D01*
G37*
D13*
X167813000Y-79058000D03*
D11*
G36*
X168837504Y-85059204D02*
G01*
X168861773Y-85062804D01*
X168885571Y-85068765D01*
X168908671Y-85077030D01*
X168930849Y-85087520D01*
X168951893Y-85100133D01*
X168971598Y-85114747D01*
X168989777Y-85131223D01*
X169006253Y-85149402D01*
X169020867Y-85169107D01*
X169033480Y-85190151D01*
X169043970Y-85212329D01*
X169052235Y-85235429D01*
X169058196Y-85259227D01*
X169061796Y-85283496D01*
X169063000Y-85308000D01*
X169063000Y-88808000D01*
X169061796Y-88832504D01*
X169058196Y-88856773D01*
X169052235Y-88880571D01*
X169043970Y-88903671D01*
X169033480Y-88925849D01*
X169020867Y-88946893D01*
X169006253Y-88966598D01*
X168989777Y-88984777D01*
X168971598Y-89001253D01*
X168951893Y-89015867D01*
X168930849Y-89028480D01*
X168908671Y-89038970D01*
X168885571Y-89047235D01*
X168861773Y-89053196D01*
X168837504Y-89056796D01*
X168813000Y-89058000D01*
X166813000Y-89058000D01*
X166788496Y-89056796D01*
X166764227Y-89053196D01*
X166740429Y-89047235D01*
X166717329Y-89038970D01*
X166695151Y-89028480D01*
X166674107Y-89015867D01*
X166654402Y-89001253D01*
X166636223Y-88984777D01*
X166619747Y-88966598D01*
X166605133Y-88946893D01*
X166592520Y-88925849D01*
X166582030Y-88903671D01*
X166573765Y-88880571D01*
X166567804Y-88856773D01*
X166564204Y-88832504D01*
X166563000Y-88808000D01*
X166563000Y-85308000D01*
X166564204Y-85283496D01*
X166567804Y-85259227D01*
X166573765Y-85235429D01*
X166582030Y-85212329D01*
X166592520Y-85190151D01*
X166605133Y-85169107D01*
X166619747Y-85149402D01*
X166636223Y-85131223D01*
X166654402Y-85114747D01*
X166674107Y-85100133D01*
X166695151Y-85087520D01*
X166717329Y-85077030D01*
X166740429Y-85068765D01*
X166764227Y-85062804D01*
X166788496Y-85059204D01*
X166813000Y-85058000D01*
X168813000Y-85058000D01*
X168837504Y-85059204D01*
X168837504Y-85059204D01*
G37*
D13*
X167813000Y-87058000D03*
D11*
G36*
X179967504Y-85059204D02*
G01*
X179991773Y-85062804D01*
X180015571Y-85068765D01*
X180038671Y-85077030D01*
X180060849Y-85087520D01*
X180081893Y-85100133D01*
X180101598Y-85114747D01*
X180119777Y-85131223D01*
X180136253Y-85149402D01*
X180150867Y-85169107D01*
X180163480Y-85190151D01*
X180173970Y-85212329D01*
X180182235Y-85235429D01*
X180188196Y-85259227D01*
X180191796Y-85283496D01*
X180193000Y-85308000D01*
X180193000Y-88808000D01*
X180191796Y-88832504D01*
X180188196Y-88856773D01*
X180182235Y-88880571D01*
X180173970Y-88903671D01*
X180163480Y-88925849D01*
X180150867Y-88946893D01*
X180136253Y-88966598D01*
X180119777Y-88984777D01*
X180101598Y-89001253D01*
X180081893Y-89015867D01*
X180060849Y-89028480D01*
X180038671Y-89038970D01*
X180015571Y-89047235D01*
X179991773Y-89053196D01*
X179967504Y-89056796D01*
X179943000Y-89058000D01*
X177943000Y-89058000D01*
X177918496Y-89056796D01*
X177894227Y-89053196D01*
X177870429Y-89047235D01*
X177847329Y-89038970D01*
X177825151Y-89028480D01*
X177804107Y-89015867D01*
X177784402Y-89001253D01*
X177766223Y-88984777D01*
X177749747Y-88966598D01*
X177735133Y-88946893D01*
X177722520Y-88925849D01*
X177712030Y-88903671D01*
X177703765Y-88880571D01*
X177697804Y-88856773D01*
X177694204Y-88832504D01*
X177693000Y-88808000D01*
X177693000Y-85308000D01*
X177694204Y-85283496D01*
X177697804Y-85259227D01*
X177703765Y-85235429D01*
X177712030Y-85212329D01*
X177722520Y-85190151D01*
X177735133Y-85169107D01*
X177749747Y-85149402D01*
X177766223Y-85131223D01*
X177784402Y-85114747D01*
X177804107Y-85100133D01*
X177825151Y-85087520D01*
X177847329Y-85077030D01*
X177870429Y-85068765D01*
X177894227Y-85062804D01*
X177918496Y-85059204D01*
X177943000Y-85058000D01*
X179943000Y-85058000D01*
X179967504Y-85059204D01*
X179967504Y-85059204D01*
G37*
D13*
X178943000Y-87058000D03*
D11*
G36*
X179967504Y-77059204D02*
G01*
X179991773Y-77062804D01*
X180015571Y-77068765D01*
X180038671Y-77077030D01*
X180060849Y-77087520D01*
X180081893Y-77100133D01*
X180101598Y-77114747D01*
X180119777Y-77131223D01*
X180136253Y-77149402D01*
X180150867Y-77169107D01*
X180163480Y-77190151D01*
X180173970Y-77212329D01*
X180182235Y-77235429D01*
X180188196Y-77259227D01*
X180191796Y-77283496D01*
X180193000Y-77308000D01*
X180193000Y-80808000D01*
X180191796Y-80832504D01*
X180188196Y-80856773D01*
X180182235Y-80880571D01*
X180173970Y-80903671D01*
X180163480Y-80925849D01*
X180150867Y-80946893D01*
X180136253Y-80966598D01*
X180119777Y-80984777D01*
X180101598Y-81001253D01*
X180081893Y-81015867D01*
X180060849Y-81028480D01*
X180038671Y-81038970D01*
X180015571Y-81047235D01*
X179991773Y-81053196D01*
X179967504Y-81056796D01*
X179943000Y-81058000D01*
X177943000Y-81058000D01*
X177918496Y-81056796D01*
X177894227Y-81053196D01*
X177870429Y-81047235D01*
X177847329Y-81038970D01*
X177825151Y-81028480D01*
X177804107Y-81015867D01*
X177784402Y-81001253D01*
X177766223Y-80984777D01*
X177749747Y-80966598D01*
X177735133Y-80946893D01*
X177722520Y-80925849D01*
X177712030Y-80903671D01*
X177703765Y-80880571D01*
X177697804Y-80856773D01*
X177694204Y-80832504D01*
X177693000Y-80808000D01*
X177693000Y-77308000D01*
X177694204Y-77283496D01*
X177697804Y-77259227D01*
X177703765Y-77235429D01*
X177712030Y-77212329D01*
X177722520Y-77190151D01*
X177735133Y-77169107D01*
X177749747Y-77149402D01*
X177766223Y-77131223D01*
X177784402Y-77114747D01*
X177804107Y-77100133D01*
X177825151Y-77087520D01*
X177847329Y-77077030D01*
X177870429Y-77068765D01*
X177894227Y-77062804D01*
X177918496Y-77059204D01*
X177943000Y-77058000D01*
X179943000Y-77058000D01*
X179967504Y-77059204D01*
X179967504Y-77059204D01*
G37*
D13*
X178943000Y-79058000D03*
D11*
G36*
X157742504Y-77059204D02*
G01*
X157766773Y-77062804D01*
X157790571Y-77068765D01*
X157813671Y-77077030D01*
X157835849Y-77087520D01*
X157856893Y-77100133D01*
X157876598Y-77114747D01*
X157894777Y-77131223D01*
X157911253Y-77149402D01*
X157925867Y-77169107D01*
X157938480Y-77190151D01*
X157948970Y-77212329D01*
X157957235Y-77235429D01*
X157963196Y-77259227D01*
X157966796Y-77283496D01*
X157968000Y-77308000D01*
X157968000Y-80808000D01*
X157966796Y-80832504D01*
X157963196Y-80856773D01*
X157957235Y-80880571D01*
X157948970Y-80903671D01*
X157938480Y-80925849D01*
X157925867Y-80946893D01*
X157911253Y-80966598D01*
X157894777Y-80984777D01*
X157876598Y-81001253D01*
X157856893Y-81015867D01*
X157835849Y-81028480D01*
X157813671Y-81038970D01*
X157790571Y-81047235D01*
X157766773Y-81053196D01*
X157742504Y-81056796D01*
X157718000Y-81058000D01*
X155718000Y-81058000D01*
X155693496Y-81056796D01*
X155669227Y-81053196D01*
X155645429Y-81047235D01*
X155622329Y-81038970D01*
X155600151Y-81028480D01*
X155579107Y-81015867D01*
X155559402Y-81001253D01*
X155541223Y-80984777D01*
X155524747Y-80966598D01*
X155510133Y-80946893D01*
X155497520Y-80925849D01*
X155487030Y-80903671D01*
X155478765Y-80880571D01*
X155472804Y-80856773D01*
X155469204Y-80832504D01*
X155468000Y-80808000D01*
X155468000Y-77308000D01*
X155469204Y-77283496D01*
X155472804Y-77259227D01*
X155478765Y-77235429D01*
X155487030Y-77212329D01*
X155497520Y-77190151D01*
X155510133Y-77169107D01*
X155524747Y-77149402D01*
X155541223Y-77131223D01*
X155559402Y-77114747D01*
X155579107Y-77100133D01*
X155600151Y-77087520D01*
X155622329Y-77077030D01*
X155645429Y-77068765D01*
X155669227Y-77062804D01*
X155693496Y-77059204D01*
X155718000Y-77058000D01*
X157718000Y-77058000D01*
X157742504Y-77059204D01*
X157742504Y-77059204D01*
G37*
D13*
X156718000Y-79058000D03*
D11*
G36*
X157742504Y-85059204D02*
G01*
X157766773Y-85062804D01*
X157790571Y-85068765D01*
X157813671Y-85077030D01*
X157835849Y-85087520D01*
X157856893Y-85100133D01*
X157876598Y-85114747D01*
X157894777Y-85131223D01*
X157911253Y-85149402D01*
X157925867Y-85169107D01*
X157938480Y-85190151D01*
X157948970Y-85212329D01*
X157957235Y-85235429D01*
X157963196Y-85259227D01*
X157966796Y-85283496D01*
X157968000Y-85308000D01*
X157968000Y-88808000D01*
X157966796Y-88832504D01*
X157963196Y-88856773D01*
X157957235Y-88880571D01*
X157948970Y-88903671D01*
X157938480Y-88925849D01*
X157925867Y-88946893D01*
X157911253Y-88966598D01*
X157894777Y-88984777D01*
X157876598Y-89001253D01*
X157856893Y-89015867D01*
X157835849Y-89028480D01*
X157813671Y-89038970D01*
X157790571Y-89047235D01*
X157766773Y-89053196D01*
X157742504Y-89056796D01*
X157718000Y-89058000D01*
X155718000Y-89058000D01*
X155693496Y-89056796D01*
X155669227Y-89053196D01*
X155645429Y-89047235D01*
X155622329Y-89038970D01*
X155600151Y-89028480D01*
X155579107Y-89015867D01*
X155559402Y-89001253D01*
X155541223Y-88984777D01*
X155524747Y-88966598D01*
X155510133Y-88946893D01*
X155497520Y-88925849D01*
X155487030Y-88903671D01*
X155478765Y-88880571D01*
X155472804Y-88856773D01*
X155469204Y-88832504D01*
X155468000Y-88808000D01*
X155468000Y-85308000D01*
X155469204Y-85283496D01*
X155472804Y-85259227D01*
X155478765Y-85235429D01*
X155487030Y-85212329D01*
X155497520Y-85190151D01*
X155510133Y-85169107D01*
X155524747Y-85149402D01*
X155541223Y-85131223D01*
X155559402Y-85114747D01*
X155579107Y-85100133D01*
X155600151Y-85087520D01*
X155622329Y-85077030D01*
X155645429Y-85068765D01*
X155669227Y-85062804D01*
X155693496Y-85059204D01*
X155718000Y-85058000D01*
X157718000Y-85058000D01*
X157742504Y-85059204D01*
X157742504Y-85059204D01*
G37*
D13*
X156718000Y-87058000D03*
D11*
G36*
X129987504Y-87325204D02*
G01*
X130011773Y-87328804D01*
X130035571Y-87334765D01*
X130058671Y-87343030D01*
X130080849Y-87353520D01*
X130101893Y-87366133D01*
X130121598Y-87380747D01*
X130139777Y-87397223D01*
X130156253Y-87415402D01*
X130170867Y-87435107D01*
X130183480Y-87456151D01*
X130193970Y-87478329D01*
X130202235Y-87501429D01*
X130208196Y-87525227D01*
X130211796Y-87549496D01*
X130213000Y-87574000D01*
X130213000Y-89674000D01*
X130211796Y-89698504D01*
X130208196Y-89722773D01*
X130202235Y-89746571D01*
X130193970Y-89769671D01*
X130183480Y-89791849D01*
X130170867Y-89812893D01*
X130156253Y-89832598D01*
X130139777Y-89850777D01*
X130121598Y-89867253D01*
X130101893Y-89881867D01*
X130080849Y-89894480D01*
X130058671Y-89904970D01*
X130035571Y-89913235D01*
X130011773Y-89919196D01*
X129987504Y-89922796D01*
X129963000Y-89924000D01*
X128863000Y-89924000D01*
X128838496Y-89922796D01*
X128814227Y-89919196D01*
X128790429Y-89913235D01*
X128767329Y-89904970D01*
X128745151Y-89894480D01*
X128724107Y-89881867D01*
X128704402Y-89867253D01*
X128686223Y-89850777D01*
X128669747Y-89832598D01*
X128655133Y-89812893D01*
X128642520Y-89791849D01*
X128632030Y-89769671D01*
X128623765Y-89746571D01*
X128617804Y-89722773D01*
X128614204Y-89698504D01*
X128613000Y-89674000D01*
X128613000Y-87574000D01*
X128614204Y-87549496D01*
X128617804Y-87525227D01*
X128623765Y-87501429D01*
X128632030Y-87478329D01*
X128642520Y-87456151D01*
X128655133Y-87435107D01*
X128669747Y-87415402D01*
X128686223Y-87397223D01*
X128704402Y-87380747D01*
X128724107Y-87366133D01*
X128745151Y-87353520D01*
X128767329Y-87343030D01*
X128790429Y-87334765D01*
X128814227Y-87328804D01*
X128838496Y-87325204D01*
X128863000Y-87324000D01*
X129963000Y-87324000D01*
X129987504Y-87325204D01*
X129987504Y-87325204D01*
G37*
D14*
X129413000Y-88624000D03*
D11*
G36*
X129987504Y-90925204D02*
G01*
X130011773Y-90928804D01*
X130035571Y-90934765D01*
X130058671Y-90943030D01*
X130080849Y-90953520D01*
X130101893Y-90966133D01*
X130121598Y-90980747D01*
X130139777Y-90997223D01*
X130156253Y-91015402D01*
X130170867Y-91035107D01*
X130183480Y-91056151D01*
X130193970Y-91078329D01*
X130202235Y-91101429D01*
X130208196Y-91125227D01*
X130211796Y-91149496D01*
X130213000Y-91174000D01*
X130213000Y-93274000D01*
X130211796Y-93298504D01*
X130208196Y-93322773D01*
X130202235Y-93346571D01*
X130193970Y-93369671D01*
X130183480Y-93391849D01*
X130170867Y-93412893D01*
X130156253Y-93432598D01*
X130139777Y-93450777D01*
X130121598Y-93467253D01*
X130101893Y-93481867D01*
X130080849Y-93494480D01*
X130058671Y-93504970D01*
X130035571Y-93513235D01*
X130011773Y-93519196D01*
X129987504Y-93522796D01*
X129963000Y-93524000D01*
X128863000Y-93524000D01*
X128838496Y-93522796D01*
X128814227Y-93519196D01*
X128790429Y-93513235D01*
X128767329Y-93504970D01*
X128745151Y-93494480D01*
X128724107Y-93481867D01*
X128704402Y-93467253D01*
X128686223Y-93450777D01*
X128669747Y-93432598D01*
X128655133Y-93412893D01*
X128642520Y-93391849D01*
X128632030Y-93369671D01*
X128623765Y-93346571D01*
X128617804Y-93322773D01*
X128614204Y-93298504D01*
X128613000Y-93274000D01*
X128613000Y-91174000D01*
X128614204Y-91149496D01*
X128617804Y-91125227D01*
X128623765Y-91101429D01*
X128632030Y-91078329D01*
X128642520Y-91056151D01*
X128655133Y-91035107D01*
X128669747Y-91015402D01*
X128686223Y-90997223D01*
X128704402Y-90980747D01*
X128724107Y-90966133D01*
X128745151Y-90953520D01*
X128767329Y-90943030D01*
X128790429Y-90934765D01*
X128814227Y-90928804D01*
X128838496Y-90925204D01*
X128863000Y-90924000D01*
X129963000Y-90924000D01*
X129987504Y-90925204D01*
X129987504Y-90925204D01*
G37*
D14*
X129413000Y-92224000D03*
D11*
G36*
X120645779Y-91220144D02*
G01*
X120668834Y-91223563D01*
X120691443Y-91229227D01*
X120713387Y-91237079D01*
X120734457Y-91247044D01*
X120754448Y-91259026D01*
X120773168Y-91272910D01*
X120790438Y-91288562D01*
X120806090Y-91305832D01*
X120819974Y-91324552D01*
X120831956Y-91344543D01*
X120841921Y-91365613D01*
X120849773Y-91387557D01*
X120855437Y-91410166D01*
X120858856Y-91433221D01*
X120860000Y-91456500D01*
X120860000Y-91931500D01*
X120858856Y-91954779D01*
X120855437Y-91977834D01*
X120849773Y-92000443D01*
X120841921Y-92022387D01*
X120831956Y-92043457D01*
X120819974Y-92063448D01*
X120806090Y-92082168D01*
X120790438Y-92099438D01*
X120773168Y-92115090D01*
X120754448Y-92128974D01*
X120734457Y-92140956D01*
X120713387Y-92150921D01*
X120691443Y-92158773D01*
X120668834Y-92164437D01*
X120645779Y-92167856D01*
X120622500Y-92169000D01*
X120047500Y-92169000D01*
X120024221Y-92167856D01*
X120001166Y-92164437D01*
X119978557Y-92158773D01*
X119956613Y-92150921D01*
X119935543Y-92140956D01*
X119915552Y-92128974D01*
X119896832Y-92115090D01*
X119879562Y-92099438D01*
X119863910Y-92082168D01*
X119850026Y-92063448D01*
X119838044Y-92043457D01*
X119828079Y-92022387D01*
X119820227Y-92000443D01*
X119814563Y-91977834D01*
X119811144Y-91954779D01*
X119810000Y-91931500D01*
X119810000Y-91456500D01*
X119811144Y-91433221D01*
X119814563Y-91410166D01*
X119820227Y-91387557D01*
X119828079Y-91365613D01*
X119838044Y-91344543D01*
X119850026Y-91324552D01*
X119863910Y-91305832D01*
X119879562Y-91288562D01*
X119896832Y-91272910D01*
X119915552Y-91259026D01*
X119935543Y-91247044D01*
X119956613Y-91237079D01*
X119978557Y-91229227D01*
X120001166Y-91223563D01*
X120024221Y-91220144D01*
X120047500Y-91219000D01*
X120622500Y-91219000D01*
X120645779Y-91220144D01*
X120645779Y-91220144D01*
G37*
D12*
X120335000Y-91694000D03*
D11*
G36*
X122395779Y-91220144D02*
G01*
X122418834Y-91223563D01*
X122441443Y-91229227D01*
X122463387Y-91237079D01*
X122484457Y-91247044D01*
X122504448Y-91259026D01*
X122523168Y-91272910D01*
X122540438Y-91288562D01*
X122556090Y-91305832D01*
X122569974Y-91324552D01*
X122581956Y-91344543D01*
X122591921Y-91365613D01*
X122599773Y-91387557D01*
X122605437Y-91410166D01*
X122608856Y-91433221D01*
X122610000Y-91456500D01*
X122610000Y-91931500D01*
X122608856Y-91954779D01*
X122605437Y-91977834D01*
X122599773Y-92000443D01*
X122591921Y-92022387D01*
X122581956Y-92043457D01*
X122569974Y-92063448D01*
X122556090Y-92082168D01*
X122540438Y-92099438D01*
X122523168Y-92115090D01*
X122504448Y-92128974D01*
X122484457Y-92140956D01*
X122463387Y-92150921D01*
X122441443Y-92158773D01*
X122418834Y-92164437D01*
X122395779Y-92167856D01*
X122372500Y-92169000D01*
X121797500Y-92169000D01*
X121774221Y-92167856D01*
X121751166Y-92164437D01*
X121728557Y-92158773D01*
X121706613Y-92150921D01*
X121685543Y-92140956D01*
X121665552Y-92128974D01*
X121646832Y-92115090D01*
X121629562Y-92099438D01*
X121613910Y-92082168D01*
X121600026Y-92063448D01*
X121588044Y-92043457D01*
X121578079Y-92022387D01*
X121570227Y-92000443D01*
X121564563Y-91977834D01*
X121561144Y-91954779D01*
X121560000Y-91931500D01*
X121560000Y-91456500D01*
X121561144Y-91433221D01*
X121564563Y-91410166D01*
X121570227Y-91387557D01*
X121578079Y-91365613D01*
X121588044Y-91344543D01*
X121600026Y-91324552D01*
X121613910Y-91305832D01*
X121629562Y-91288562D01*
X121646832Y-91272910D01*
X121665552Y-91259026D01*
X121685543Y-91247044D01*
X121706613Y-91237079D01*
X121728557Y-91229227D01*
X121751166Y-91223563D01*
X121774221Y-91220144D01*
X121797500Y-91219000D01*
X122372500Y-91219000D01*
X122395779Y-91220144D01*
X122395779Y-91220144D01*
G37*
D12*
X122085000Y-91694000D03*
D11*
G36*
X122381779Y-92871144D02*
G01*
X122404834Y-92874563D01*
X122427443Y-92880227D01*
X122449387Y-92888079D01*
X122470457Y-92898044D01*
X122490448Y-92910026D01*
X122509168Y-92923910D01*
X122526438Y-92939562D01*
X122542090Y-92956832D01*
X122555974Y-92975552D01*
X122567956Y-92995543D01*
X122577921Y-93016613D01*
X122585773Y-93038557D01*
X122591437Y-93061166D01*
X122594856Y-93084221D01*
X122596000Y-93107500D01*
X122596000Y-93582500D01*
X122594856Y-93605779D01*
X122591437Y-93628834D01*
X122585773Y-93651443D01*
X122577921Y-93673387D01*
X122567956Y-93694457D01*
X122555974Y-93714448D01*
X122542090Y-93733168D01*
X122526438Y-93750438D01*
X122509168Y-93766090D01*
X122490448Y-93779974D01*
X122470457Y-93791956D01*
X122449387Y-93801921D01*
X122427443Y-93809773D01*
X122404834Y-93815437D01*
X122381779Y-93818856D01*
X122358500Y-93820000D01*
X121783500Y-93820000D01*
X121760221Y-93818856D01*
X121737166Y-93815437D01*
X121714557Y-93809773D01*
X121692613Y-93801921D01*
X121671543Y-93791956D01*
X121651552Y-93779974D01*
X121632832Y-93766090D01*
X121615562Y-93750438D01*
X121599910Y-93733168D01*
X121586026Y-93714448D01*
X121574044Y-93694457D01*
X121564079Y-93673387D01*
X121556227Y-93651443D01*
X121550563Y-93628834D01*
X121547144Y-93605779D01*
X121546000Y-93582500D01*
X121546000Y-93107500D01*
X121547144Y-93084221D01*
X121550563Y-93061166D01*
X121556227Y-93038557D01*
X121564079Y-93016613D01*
X121574044Y-92995543D01*
X121586026Y-92975552D01*
X121599910Y-92956832D01*
X121615562Y-92939562D01*
X121632832Y-92923910D01*
X121651552Y-92910026D01*
X121671543Y-92898044D01*
X121692613Y-92888079D01*
X121714557Y-92880227D01*
X121737166Y-92874563D01*
X121760221Y-92871144D01*
X121783500Y-92870000D01*
X122358500Y-92870000D01*
X122381779Y-92871144D01*
X122381779Y-92871144D01*
G37*
D12*
X122071000Y-93345000D03*
D11*
G36*
X120631779Y-92871144D02*
G01*
X120654834Y-92874563D01*
X120677443Y-92880227D01*
X120699387Y-92888079D01*
X120720457Y-92898044D01*
X120740448Y-92910026D01*
X120759168Y-92923910D01*
X120776438Y-92939562D01*
X120792090Y-92956832D01*
X120805974Y-92975552D01*
X120817956Y-92995543D01*
X120827921Y-93016613D01*
X120835773Y-93038557D01*
X120841437Y-93061166D01*
X120844856Y-93084221D01*
X120846000Y-93107500D01*
X120846000Y-93582500D01*
X120844856Y-93605779D01*
X120841437Y-93628834D01*
X120835773Y-93651443D01*
X120827921Y-93673387D01*
X120817956Y-93694457D01*
X120805974Y-93714448D01*
X120792090Y-93733168D01*
X120776438Y-93750438D01*
X120759168Y-93766090D01*
X120740448Y-93779974D01*
X120720457Y-93791956D01*
X120699387Y-93801921D01*
X120677443Y-93809773D01*
X120654834Y-93815437D01*
X120631779Y-93818856D01*
X120608500Y-93820000D01*
X120033500Y-93820000D01*
X120010221Y-93818856D01*
X119987166Y-93815437D01*
X119964557Y-93809773D01*
X119942613Y-93801921D01*
X119921543Y-93791956D01*
X119901552Y-93779974D01*
X119882832Y-93766090D01*
X119865562Y-93750438D01*
X119849910Y-93733168D01*
X119836026Y-93714448D01*
X119824044Y-93694457D01*
X119814079Y-93673387D01*
X119806227Y-93651443D01*
X119800563Y-93628834D01*
X119797144Y-93605779D01*
X119796000Y-93582500D01*
X119796000Y-93107500D01*
X119797144Y-93084221D01*
X119800563Y-93061166D01*
X119806227Y-93038557D01*
X119814079Y-93016613D01*
X119824044Y-92995543D01*
X119836026Y-92975552D01*
X119849910Y-92956832D01*
X119865562Y-92939562D01*
X119882832Y-92923910D01*
X119901552Y-92910026D01*
X119921543Y-92898044D01*
X119942613Y-92888079D01*
X119964557Y-92880227D01*
X119987166Y-92874563D01*
X120010221Y-92871144D01*
X120033500Y-92870000D01*
X120608500Y-92870000D01*
X120631779Y-92871144D01*
X120631779Y-92871144D01*
G37*
D12*
X120321000Y-93345000D03*
D11*
G36*
X133853779Y-86775144D02*
G01*
X133876834Y-86778563D01*
X133899443Y-86784227D01*
X133921387Y-86792079D01*
X133942457Y-86802044D01*
X133962448Y-86814026D01*
X133981168Y-86827910D01*
X133998438Y-86843562D01*
X134014090Y-86860832D01*
X134027974Y-86879552D01*
X134039956Y-86899543D01*
X134049921Y-86920613D01*
X134057773Y-86942557D01*
X134063437Y-86965166D01*
X134066856Y-86988221D01*
X134068000Y-87011500D01*
X134068000Y-87486500D01*
X134066856Y-87509779D01*
X134063437Y-87532834D01*
X134057773Y-87555443D01*
X134049921Y-87577387D01*
X134039956Y-87598457D01*
X134027974Y-87618448D01*
X134014090Y-87637168D01*
X133998438Y-87654438D01*
X133981168Y-87670090D01*
X133962448Y-87683974D01*
X133942457Y-87695956D01*
X133921387Y-87705921D01*
X133899443Y-87713773D01*
X133876834Y-87719437D01*
X133853779Y-87722856D01*
X133830500Y-87724000D01*
X133255500Y-87724000D01*
X133232221Y-87722856D01*
X133209166Y-87719437D01*
X133186557Y-87713773D01*
X133164613Y-87705921D01*
X133143543Y-87695956D01*
X133123552Y-87683974D01*
X133104832Y-87670090D01*
X133087562Y-87654438D01*
X133071910Y-87637168D01*
X133058026Y-87618448D01*
X133046044Y-87598457D01*
X133036079Y-87577387D01*
X133028227Y-87555443D01*
X133022563Y-87532834D01*
X133019144Y-87509779D01*
X133018000Y-87486500D01*
X133018000Y-87011500D01*
X133019144Y-86988221D01*
X133022563Y-86965166D01*
X133028227Y-86942557D01*
X133036079Y-86920613D01*
X133046044Y-86899543D01*
X133058026Y-86879552D01*
X133071910Y-86860832D01*
X133087562Y-86843562D01*
X133104832Y-86827910D01*
X133123552Y-86814026D01*
X133143543Y-86802044D01*
X133164613Y-86792079D01*
X133186557Y-86784227D01*
X133209166Y-86778563D01*
X133232221Y-86775144D01*
X133255500Y-86774000D01*
X133830500Y-86774000D01*
X133853779Y-86775144D01*
X133853779Y-86775144D01*
G37*
D12*
X133543000Y-87249000D03*
D11*
G36*
X135603779Y-86775144D02*
G01*
X135626834Y-86778563D01*
X135649443Y-86784227D01*
X135671387Y-86792079D01*
X135692457Y-86802044D01*
X135712448Y-86814026D01*
X135731168Y-86827910D01*
X135748438Y-86843562D01*
X135764090Y-86860832D01*
X135777974Y-86879552D01*
X135789956Y-86899543D01*
X135799921Y-86920613D01*
X135807773Y-86942557D01*
X135813437Y-86965166D01*
X135816856Y-86988221D01*
X135818000Y-87011500D01*
X135818000Y-87486500D01*
X135816856Y-87509779D01*
X135813437Y-87532834D01*
X135807773Y-87555443D01*
X135799921Y-87577387D01*
X135789956Y-87598457D01*
X135777974Y-87618448D01*
X135764090Y-87637168D01*
X135748438Y-87654438D01*
X135731168Y-87670090D01*
X135712448Y-87683974D01*
X135692457Y-87695956D01*
X135671387Y-87705921D01*
X135649443Y-87713773D01*
X135626834Y-87719437D01*
X135603779Y-87722856D01*
X135580500Y-87724000D01*
X135005500Y-87724000D01*
X134982221Y-87722856D01*
X134959166Y-87719437D01*
X134936557Y-87713773D01*
X134914613Y-87705921D01*
X134893543Y-87695956D01*
X134873552Y-87683974D01*
X134854832Y-87670090D01*
X134837562Y-87654438D01*
X134821910Y-87637168D01*
X134808026Y-87618448D01*
X134796044Y-87598457D01*
X134786079Y-87577387D01*
X134778227Y-87555443D01*
X134772563Y-87532834D01*
X134769144Y-87509779D01*
X134768000Y-87486500D01*
X134768000Y-87011500D01*
X134769144Y-86988221D01*
X134772563Y-86965166D01*
X134778227Y-86942557D01*
X134786079Y-86920613D01*
X134796044Y-86899543D01*
X134808026Y-86879552D01*
X134821910Y-86860832D01*
X134837562Y-86843562D01*
X134854832Y-86827910D01*
X134873552Y-86814026D01*
X134893543Y-86802044D01*
X134914613Y-86792079D01*
X134936557Y-86784227D01*
X134959166Y-86778563D01*
X134982221Y-86775144D01*
X135005500Y-86774000D01*
X135580500Y-86774000D01*
X135603779Y-86775144D01*
X135603779Y-86775144D01*
G37*
D12*
X135293000Y-87249000D03*
D11*
G36*
X184728779Y-64423144D02*
G01*
X184751834Y-64426563D01*
X184774443Y-64432227D01*
X184796387Y-64440079D01*
X184817457Y-64450044D01*
X184837448Y-64462026D01*
X184856168Y-64475910D01*
X184873438Y-64491562D01*
X184889090Y-64508832D01*
X184902974Y-64527552D01*
X184914956Y-64547543D01*
X184924921Y-64568613D01*
X184932773Y-64590557D01*
X184938437Y-64613166D01*
X184941856Y-64636221D01*
X184943000Y-64659500D01*
X184943000Y-65134500D01*
X184941856Y-65157779D01*
X184938437Y-65180834D01*
X184932773Y-65203443D01*
X184924921Y-65225387D01*
X184914956Y-65246457D01*
X184902974Y-65266448D01*
X184889090Y-65285168D01*
X184873438Y-65302438D01*
X184856168Y-65318090D01*
X184837448Y-65331974D01*
X184817457Y-65343956D01*
X184796387Y-65353921D01*
X184774443Y-65361773D01*
X184751834Y-65367437D01*
X184728779Y-65370856D01*
X184705500Y-65372000D01*
X184130500Y-65372000D01*
X184107221Y-65370856D01*
X184084166Y-65367437D01*
X184061557Y-65361773D01*
X184039613Y-65353921D01*
X184018543Y-65343956D01*
X183998552Y-65331974D01*
X183979832Y-65318090D01*
X183962562Y-65302438D01*
X183946910Y-65285168D01*
X183933026Y-65266448D01*
X183921044Y-65246457D01*
X183911079Y-65225387D01*
X183903227Y-65203443D01*
X183897563Y-65180834D01*
X183894144Y-65157779D01*
X183893000Y-65134500D01*
X183893000Y-64659500D01*
X183894144Y-64636221D01*
X183897563Y-64613166D01*
X183903227Y-64590557D01*
X183911079Y-64568613D01*
X183921044Y-64547543D01*
X183933026Y-64527552D01*
X183946910Y-64508832D01*
X183962562Y-64491562D01*
X183979832Y-64475910D01*
X183998552Y-64462026D01*
X184018543Y-64450044D01*
X184039613Y-64440079D01*
X184061557Y-64432227D01*
X184084166Y-64426563D01*
X184107221Y-64423144D01*
X184130500Y-64422000D01*
X184705500Y-64422000D01*
X184728779Y-64423144D01*
X184728779Y-64423144D01*
G37*
D12*
X184418000Y-64897000D03*
D11*
G36*
X186478779Y-64423144D02*
G01*
X186501834Y-64426563D01*
X186524443Y-64432227D01*
X186546387Y-64440079D01*
X186567457Y-64450044D01*
X186587448Y-64462026D01*
X186606168Y-64475910D01*
X186623438Y-64491562D01*
X186639090Y-64508832D01*
X186652974Y-64527552D01*
X186664956Y-64547543D01*
X186674921Y-64568613D01*
X186682773Y-64590557D01*
X186688437Y-64613166D01*
X186691856Y-64636221D01*
X186693000Y-64659500D01*
X186693000Y-65134500D01*
X186691856Y-65157779D01*
X186688437Y-65180834D01*
X186682773Y-65203443D01*
X186674921Y-65225387D01*
X186664956Y-65246457D01*
X186652974Y-65266448D01*
X186639090Y-65285168D01*
X186623438Y-65302438D01*
X186606168Y-65318090D01*
X186587448Y-65331974D01*
X186567457Y-65343956D01*
X186546387Y-65353921D01*
X186524443Y-65361773D01*
X186501834Y-65367437D01*
X186478779Y-65370856D01*
X186455500Y-65372000D01*
X185880500Y-65372000D01*
X185857221Y-65370856D01*
X185834166Y-65367437D01*
X185811557Y-65361773D01*
X185789613Y-65353921D01*
X185768543Y-65343956D01*
X185748552Y-65331974D01*
X185729832Y-65318090D01*
X185712562Y-65302438D01*
X185696910Y-65285168D01*
X185683026Y-65266448D01*
X185671044Y-65246457D01*
X185661079Y-65225387D01*
X185653227Y-65203443D01*
X185647563Y-65180834D01*
X185644144Y-65157779D01*
X185643000Y-65134500D01*
X185643000Y-64659500D01*
X185644144Y-64636221D01*
X185647563Y-64613166D01*
X185653227Y-64590557D01*
X185661079Y-64568613D01*
X185671044Y-64547543D01*
X185683026Y-64527552D01*
X185696910Y-64508832D01*
X185712562Y-64491562D01*
X185729832Y-64475910D01*
X185748552Y-64462026D01*
X185768543Y-64450044D01*
X185789613Y-64440079D01*
X185811557Y-64432227D01*
X185834166Y-64426563D01*
X185857221Y-64423144D01*
X185880500Y-64422000D01*
X186455500Y-64422000D01*
X186478779Y-64423144D01*
X186478779Y-64423144D01*
G37*
D12*
X186168000Y-64897000D03*
D11*
G36*
X125772779Y-82711144D02*
G01*
X125795834Y-82714563D01*
X125818443Y-82720227D01*
X125840387Y-82728079D01*
X125861457Y-82738044D01*
X125881448Y-82750026D01*
X125900168Y-82763910D01*
X125917438Y-82779562D01*
X125933090Y-82796832D01*
X125946974Y-82815552D01*
X125958956Y-82835543D01*
X125968921Y-82856613D01*
X125976773Y-82878557D01*
X125982437Y-82901166D01*
X125985856Y-82924221D01*
X125987000Y-82947500D01*
X125987000Y-83422500D01*
X125985856Y-83445779D01*
X125982437Y-83468834D01*
X125976773Y-83491443D01*
X125968921Y-83513387D01*
X125958956Y-83534457D01*
X125946974Y-83554448D01*
X125933090Y-83573168D01*
X125917438Y-83590438D01*
X125900168Y-83606090D01*
X125881448Y-83619974D01*
X125861457Y-83631956D01*
X125840387Y-83641921D01*
X125818443Y-83649773D01*
X125795834Y-83655437D01*
X125772779Y-83658856D01*
X125749500Y-83660000D01*
X125174500Y-83660000D01*
X125151221Y-83658856D01*
X125128166Y-83655437D01*
X125105557Y-83649773D01*
X125083613Y-83641921D01*
X125062543Y-83631956D01*
X125042552Y-83619974D01*
X125023832Y-83606090D01*
X125006562Y-83590438D01*
X124990910Y-83573168D01*
X124977026Y-83554448D01*
X124965044Y-83534457D01*
X124955079Y-83513387D01*
X124947227Y-83491443D01*
X124941563Y-83468834D01*
X124938144Y-83445779D01*
X124937000Y-83422500D01*
X124937000Y-82947500D01*
X124938144Y-82924221D01*
X124941563Y-82901166D01*
X124947227Y-82878557D01*
X124955079Y-82856613D01*
X124965044Y-82835543D01*
X124977026Y-82815552D01*
X124990910Y-82796832D01*
X125006562Y-82779562D01*
X125023832Y-82763910D01*
X125042552Y-82750026D01*
X125062543Y-82738044D01*
X125083613Y-82728079D01*
X125105557Y-82720227D01*
X125128166Y-82714563D01*
X125151221Y-82711144D01*
X125174500Y-82710000D01*
X125749500Y-82710000D01*
X125772779Y-82711144D01*
X125772779Y-82711144D01*
G37*
D12*
X125462000Y-83185000D03*
D11*
G36*
X124022779Y-82711144D02*
G01*
X124045834Y-82714563D01*
X124068443Y-82720227D01*
X124090387Y-82728079D01*
X124111457Y-82738044D01*
X124131448Y-82750026D01*
X124150168Y-82763910D01*
X124167438Y-82779562D01*
X124183090Y-82796832D01*
X124196974Y-82815552D01*
X124208956Y-82835543D01*
X124218921Y-82856613D01*
X124226773Y-82878557D01*
X124232437Y-82901166D01*
X124235856Y-82924221D01*
X124237000Y-82947500D01*
X124237000Y-83422500D01*
X124235856Y-83445779D01*
X124232437Y-83468834D01*
X124226773Y-83491443D01*
X124218921Y-83513387D01*
X124208956Y-83534457D01*
X124196974Y-83554448D01*
X124183090Y-83573168D01*
X124167438Y-83590438D01*
X124150168Y-83606090D01*
X124131448Y-83619974D01*
X124111457Y-83631956D01*
X124090387Y-83641921D01*
X124068443Y-83649773D01*
X124045834Y-83655437D01*
X124022779Y-83658856D01*
X123999500Y-83660000D01*
X123424500Y-83660000D01*
X123401221Y-83658856D01*
X123378166Y-83655437D01*
X123355557Y-83649773D01*
X123333613Y-83641921D01*
X123312543Y-83631956D01*
X123292552Y-83619974D01*
X123273832Y-83606090D01*
X123256562Y-83590438D01*
X123240910Y-83573168D01*
X123227026Y-83554448D01*
X123215044Y-83534457D01*
X123205079Y-83513387D01*
X123197227Y-83491443D01*
X123191563Y-83468834D01*
X123188144Y-83445779D01*
X123187000Y-83422500D01*
X123187000Y-82947500D01*
X123188144Y-82924221D01*
X123191563Y-82901166D01*
X123197227Y-82878557D01*
X123205079Y-82856613D01*
X123215044Y-82835543D01*
X123227026Y-82815552D01*
X123240910Y-82796832D01*
X123256562Y-82779562D01*
X123273832Y-82763910D01*
X123292552Y-82750026D01*
X123312543Y-82738044D01*
X123333613Y-82728079D01*
X123355557Y-82720227D01*
X123378166Y-82714563D01*
X123401221Y-82711144D01*
X123424500Y-82710000D01*
X123999500Y-82710000D01*
X124022779Y-82711144D01*
X124022779Y-82711144D01*
G37*
D12*
X123712000Y-83185000D03*
D11*
G36*
X135589779Y-84997144D02*
G01*
X135612834Y-85000563D01*
X135635443Y-85006227D01*
X135657387Y-85014079D01*
X135678457Y-85024044D01*
X135698448Y-85036026D01*
X135717168Y-85049910D01*
X135734438Y-85065562D01*
X135750090Y-85082832D01*
X135763974Y-85101552D01*
X135775956Y-85121543D01*
X135785921Y-85142613D01*
X135793773Y-85164557D01*
X135799437Y-85187166D01*
X135802856Y-85210221D01*
X135804000Y-85233500D01*
X135804000Y-85708500D01*
X135802856Y-85731779D01*
X135799437Y-85754834D01*
X135793773Y-85777443D01*
X135785921Y-85799387D01*
X135775956Y-85820457D01*
X135763974Y-85840448D01*
X135750090Y-85859168D01*
X135734438Y-85876438D01*
X135717168Y-85892090D01*
X135698448Y-85905974D01*
X135678457Y-85917956D01*
X135657387Y-85927921D01*
X135635443Y-85935773D01*
X135612834Y-85941437D01*
X135589779Y-85944856D01*
X135566500Y-85946000D01*
X134991500Y-85946000D01*
X134968221Y-85944856D01*
X134945166Y-85941437D01*
X134922557Y-85935773D01*
X134900613Y-85927921D01*
X134879543Y-85917956D01*
X134859552Y-85905974D01*
X134840832Y-85892090D01*
X134823562Y-85876438D01*
X134807910Y-85859168D01*
X134794026Y-85840448D01*
X134782044Y-85820457D01*
X134772079Y-85799387D01*
X134764227Y-85777443D01*
X134758563Y-85754834D01*
X134755144Y-85731779D01*
X134754000Y-85708500D01*
X134754000Y-85233500D01*
X134755144Y-85210221D01*
X134758563Y-85187166D01*
X134764227Y-85164557D01*
X134772079Y-85142613D01*
X134782044Y-85121543D01*
X134794026Y-85101552D01*
X134807910Y-85082832D01*
X134823562Y-85065562D01*
X134840832Y-85049910D01*
X134859552Y-85036026D01*
X134879543Y-85024044D01*
X134900613Y-85014079D01*
X134922557Y-85006227D01*
X134945166Y-85000563D01*
X134968221Y-84997144D01*
X134991500Y-84996000D01*
X135566500Y-84996000D01*
X135589779Y-84997144D01*
X135589779Y-84997144D01*
G37*
D12*
X135279000Y-85471000D03*
D11*
G36*
X133839779Y-84997144D02*
G01*
X133862834Y-85000563D01*
X133885443Y-85006227D01*
X133907387Y-85014079D01*
X133928457Y-85024044D01*
X133948448Y-85036026D01*
X133967168Y-85049910D01*
X133984438Y-85065562D01*
X134000090Y-85082832D01*
X134013974Y-85101552D01*
X134025956Y-85121543D01*
X134035921Y-85142613D01*
X134043773Y-85164557D01*
X134049437Y-85187166D01*
X134052856Y-85210221D01*
X134054000Y-85233500D01*
X134054000Y-85708500D01*
X134052856Y-85731779D01*
X134049437Y-85754834D01*
X134043773Y-85777443D01*
X134035921Y-85799387D01*
X134025956Y-85820457D01*
X134013974Y-85840448D01*
X134000090Y-85859168D01*
X133984438Y-85876438D01*
X133967168Y-85892090D01*
X133948448Y-85905974D01*
X133928457Y-85917956D01*
X133907387Y-85927921D01*
X133885443Y-85935773D01*
X133862834Y-85941437D01*
X133839779Y-85944856D01*
X133816500Y-85946000D01*
X133241500Y-85946000D01*
X133218221Y-85944856D01*
X133195166Y-85941437D01*
X133172557Y-85935773D01*
X133150613Y-85927921D01*
X133129543Y-85917956D01*
X133109552Y-85905974D01*
X133090832Y-85892090D01*
X133073562Y-85876438D01*
X133057910Y-85859168D01*
X133044026Y-85840448D01*
X133032044Y-85820457D01*
X133022079Y-85799387D01*
X133014227Y-85777443D01*
X133008563Y-85754834D01*
X133005144Y-85731779D01*
X133004000Y-85708500D01*
X133004000Y-85233500D01*
X133005144Y-85210221D01*
X133008563Y-85187166D01*
X133014227Y-85164557D01*
X133022079Y-85142613D01*
X133032044Y-85121543D01*
X133044026Y-85101552D01*
X133057910Y-85082832D01*
X133073562Y-85065562D01*
X133090832Y-85049910D01*
X133109552Y-85036026D01*
X133129543Y-85024044D01*
X133150613Y-85014079D01*
X133172557Y-85006227D01*
X133195166Y-85000563D01*
X133218221Y-84997144D01*
X133241500Y-84996000D01*
X133816500Y-84996000D01*
X133839779Y-84997144D01*
X133839779Y-84997144D01*
G37*
D12*
X133529000Y-85471000D03*
D15*
X118458000Y-86233000D03*
X118458000Y-87503000D03*
X118458000Y-88773000D03*
X118458000Y-90043000D03*
X123858000Y-90043000D03*
X123858000Y-88773000D03*
X123858000Y-87503000D03*
X123858000Y-86233000D03*
M02*
