M48
; DRILL file {KiCad (5.1.0)-1} date 6/7/2019 12:29:49 PM
; FORMAT={-:-/ absolute / inch / decimal}
; #@! TF.CreationDate,2019-06-07T12:29:49-04:00
; #@! TF.GenerationSoftware,Kicad,Pcbnew,(5.1.0)-1
FMAT,2
INCH
T1C0.0157
T2C0.0276
T3C0.0315
T4C0.0354
T5C0.0394
T6C0.0512
T7C0.0591
T8C0.1260
T9C0.0669
T10C0.1260
%
G90
G05
T1
X3.61Y-3.65
X3.72Y-3.345
X3.755Y-3.485
X3.905Y-3.09
X4.0Y-3.22
X4.095Y-3.225
X4.205Y-3.185
X4.3965Y-3.455
X4.495Y-3.415
X4.505Y-3.81
X4.605Y-3.7
X4.725Y-3.635
X4.76Y-3.7
X4.835Y-3.105
X4.895Y-3.71
X5.035Y-3.69
X5.045Y-3.3
X5.06Y-3.78
X5.06Y-4.19
X5.175Y-3.83
X5.24Y-3.15
X5.26Y-2.84
X5.26Y-3.05
X5.265Y-2.585
X5.265Y-2.735
X5.365Y-2.565
X5.3665Y-3.3385
X5.43Y-3.28
X5.46Y-3.24
X5.475Y-2.67
X5.515Y-2.725
X5.515Y-3.655
X5.565Y-3.595
X5.57Y-2.595
X5.605Y-2.74
X5.605Y-2.87
X5.61Y-2.95
X5.64Y-3.55
X5.655Y-3.05
X5.68Y-3.145
X5.725Y-3.725
X5.735Y-3.55
X5.75Y-3.46
X5.755Y-3.055
X5.81Y-3.51
X6.18Y-3.66
X6.265Y-3.435
X6.385Y-3.66
X6.575Y-3.395
X6.575Y-3.69
X6.8Y-3.515
X6.855Y-3.635
X7.225Y-3.41
T2
X5.2041Y-4.1733
X5.46Y-4.2087
X5.7159Y-4.1733
T3
X3.6265Y-3.5725
X3.6265Y-3.73
X3.6265Y-3.8087
X3.6265Y-3.8875
X3.6265Y-3.1413
X3.6265Y-3.22
X3.6265Y-3.2987
X7.3935Y-3.3225
X7.3935Y-3.4013
X7.3935Y-3.48
X7.3935Y-3.6375
T4
X5.3261Y-3.9568
X5.3261Y-4.0552
X5.5939Y-3.9568
X5.5939Y-4.0552
T5
X4.9063Y-4.025
X4.9063Y-4.2416
X4.985Y-4.34
X4.14Y-3.09
X4.24Y-3.09
X4.34Y-3.09
X3.9902Y-4.105
X3.9902Y-4.2609
X4.0353Y-4.183
X4.0803Y-4.105
X4.0803Y-4.2609
X4.1254Y-4.183
X4.1705Y-4.105
X4.1705Y-4.2609
X4.2156Y-4.183
X4.2606Y-4.105
X4.2606Y-4.2609
X4.3057Y-4.183
X4.3508Y-4.105
X4.3508Y-4.2609
X4.3959Y-4.183
T6
X5.934Y-3.9079
X6.2293Y-3.9079
X6.4852Y-3.9079
X6.7805Y-3.9079
X7.0364Y-3.9079
X7.3316Y-3.9079
T7
X3.6265Y-3.0586
X3.6265Y-3.3814
X7.3935Y-3.2398
X7.3935Y-3.7202
X6.2293Y-4.1933
X6.7805Y-4.1933
X7.3316Y-4.1933
X3.6265Y-3.4898
X3.6265Y-3.9702
T8
X3.6888Y-4.1857
X4.6731Y-4.1857
T10
X6.36Y-3.165
X7.0085Y-3.445
X3.8765Y-3.87
X4.66Y-3.155
T9
G00X5.8395Y-3.9965
M15
G01X5.8395Y-4.1146
M16
G05
G00X7.4261Y-3.9965
M15
G01X7.4261Y-4.1146
M16
G05
T0
M30
