G04 #@! TF.GenerationSoftware,KiCad,Pcbnew,(5.1.0)-1*
G04 #@! TF.CreationDate,2019-06-13T14:24:13-04:00*
G04 #@! TF.ProjectId,PSX Breakout,50535820-4272-4656-916b-6f75742e6b69,rev?*
G04 #@! TF.SameCoordinates,Original*
G04 #@! TF.FileFunction,Legend,Top*
G04 #@! TF.FilePolarity,Positive*
%FSLAX46Y46*%
G04 Gerber Fmt 4.6, Leading zero omitted, Abs format (unit mm)*
G04 Created by KiCad (PCBNEW (5.1.0)-1) date 2019-06-13 14:24:13*
%MOMM*%
%LPD*%
G04 APERTURE LIST*
%ADD10C,0.150000*%
%ADD11C,0.340000*%
%ADD12C,0.127000*%
%ADD13C,0.120000*%
%ADD14C,0.400000*%
G04 APERTURE END LIST*
D10*
X176135619Y-70620380D02*
X176135619Y-69620380D01*
X176516571Y-69620380D01*
X176611809Y-69668000D01*
X176659428Y-69715619D01*
X176707047Y-69810857D01*
X176707047Y-69953714D01*
X176659428Y-70048952D01*
X176611809Y-70096571D01*
X176516571Y-70144190D01*
X176135619Y-70144190D01*
X177088000Y-70572761D02*
X177230857Y-70620380D01*
X177468952Y-70620380D01*
X177564190Y-70572761D01*
X177611809Y-70525142D01*
X177659428Y-70429904D01*
X177659428Y-70334666D01*
X177611809Y-70239428D01*
X177564190Y-70191809D01*
X177468952Y-70144190D01*
X177278476Y-70096571D01*
X177183238Y-70048952D01*
X177135619Y-70001333D01*
X177088000Y-69906095D01*
X177088000Y-69810857D01*
X177135619Y-69715619D01*
X177183238Y-69668000D01*
X177278476Y-69620380D01*
X177516571Y-69620380D01*
X177659428Y-69668000D01*
X177992761Y-69620380D02*
X178659428Y-70620380D01*
X178659428Y-69620380D02*
X177992761Y-70620380D01*
X180135619Y-70096571D02*
X180278476Y-70144190D01*
X180326095Y-70191809D01*
X180373714Y-70287047D01*
X180373714Y-70429904D01*
X180326095Y-70525142D01*
X180278476Y-70572761D01*
X180183238Y-70620380D01*
X179802285Y-70620380D01*
X179802285Y-69620380D01*
X180135619Y-69620380D01*
X180230857Y-69668000D01*
X180278476Y-69715619D01*
X180326095Y-69810857D01*
X180326095Y-69906095D01*
X180278476Y-70001333D01*
X180230857Y-70048952D01*
X180135619Y-70096571D01*
X179802285Y-70096571D01*
X180802285Y-70620380D02*
X180802285Y-69953714D01*
X180802285Y-70144190D02*
X180849904Y-70048952D01*
X180897523Y-70001333D01*
X180992761Y-69953714D01*
X181088000Y-69953714D01*
X181802285Y-70572761D02*
X181707047Y-70620380D01*
X181516571Y-70620380D01*
X181421333Y-70572761D01*
X181373714Y-70477523D01*
X181373714Y-70096571D01*
X181421333Y-70001333D01*
X181516571Y-69953714D01*
X181707047Y-69953714D01*
X181802285Y-70001333D01*
X181849904Y-70096571D01*
X181849904Y-70191809D01*
X181373714Y-70287047D01*
X182707047Y-70620380D02*
X182707047Y-70096571D01*
X182659428Y-70001333D01*
X182564190Y-69953714D01*
X182373714Y-69953714D01*
X182278476Y-70001333D01*
X182707047Y-70572761D02*
X182611809Y-70620380D01*
X182373714Y-70620380D01*
X182278476Y-70572761D01*
X182230857Y-70477523D01*
X182230857Y-70382285D01*
X182278476Y-70287047D01*
X182373714Y-70239428D01*
X182611809Y-70239428D01*
X182707047Y-70191809D01*
X183183238Y-70620380D02*
X183183238Y-69620380D01*
X183278476Y-70239428D02*
X183564190Y-70620380D01*
X183564190Y-69953714D02*
X183183238Y-70334666D01*
X184135619Y-70620380D02*
X184040380Y-70572761D01*
X183992761Y-70525142D01*
X183945142Y-70429904D01*
X183945142Y-70144190D01*
X183992761Y-70048952D01*
X184040380Y-70001333D01*
X184135619Y-69953714D01*
X184278476Y-69953714D01*
X184373714Y-70001333D01*
X184421333Y-70048952D01*
X184468952Y-70144190D01*
X184468952Y-70429904D01*
X184421333Y-70525142D01*
X184373714Y-70572761D01*
X184278476Y-70620380D01*
X184135619Y-70620380D01*
X185326095Y-69953714D02*
X185326095Y-70620380D01*
X184897523Y-69953714D02*
X184897523Y-70477523D01*
X184945142Y-70572761D01*
X185040380Y-70620380D01*
X185183238Y-70620380D01*
X185278476Y-70572761D01*
X185326095Y-70525142D01*
X185659428Y-69953714D02*
X186040380Y-69953714D01*
X185802285Y-69620380D02*
X185802285Y-70477523D01*
X185849904Y-70572761D01*
X185945142Y-70620380D01*
X186040380Y-70620380D01*
X187659428Y-70620380D02*
X187088000Y-70620380D01*
X187373714Y-70620380D02*
X187373714Y-69620380D01*
X187278476Y-69763238D01*
X187183238Y-69858476D01*
X187088000Y-69906095D01*
X188088000Y-70525142D02*
X188135619Y-70572761D01*
X188088000Y-70620380D01*
X188040380Y-70572761D01*
X188088000Y-70525142D01*
X188088000Y-70620380D01*
X188754666Y-69620380D02*
X188849904Y-69620380D01*
X188945142Y-69668000D01*
X188992761Y-69715619D01*
X189040380Y-69810857D01*
X189088000Y-70001333D01*
X189088000Y-70239428D01*
X189040380Y-70429904D01*
X188992761Y-70525142D01*
X188945142Y-70572761D01*
X188849904Y-70620380D01*
X188754666Y-70620380D01*
X188659428Y-70572761D01*
X188611809Y-70525142D01*
X188564190Y-70429904D01*
X188516571Y-70239428D01*
X188516571Y-70001333D01*
X188564190Y-69810857D01*
X188611809Y-69715619D01*
X188659428Y-69668000D01*
X188754666Y-69620380D01*
X176659428Y-71270380D02*
X177230857Y-71270380D01*
X176945142Y-72270380D02*
X176945142Y-71270380D01*
X177564190Y-72270380D02*
X177564190Y-71603714D01*
X177564190Y-71270380D02*
X177516571Y-71318000D01*
X177564190Y-71365619D01*
X177611809Y-71318000D01*
X177564190Y-71270380D01*
X177564190Y-71365619D01*
X178040380Y-71603714D02*
X178040380Y-72270380D01*
X178040380Y-71698952D02*
X178088000Y-71651333D01*
X178183238Y-71603714D01*
X178326095Y-71603714D01*
X178421333Y-71651333D01*
X178468952Y-71746571D01*
X178468952Y-72270380D01*
X178945142Y-72270380D02*
X178945142Y-71270380D01*
X179040380Y-71889428D02*
X179326095Y-72270380D01*
X179326095Y-71603714D02*
X178945142Y-71984666D01*
X180135619Y-72222761D02*
X180040380Y-72270380D01*
X179849904Y-72270380D01*
X179754666Y-72222761D01*
X179707047Y-72127523D01*
X179707047Y-71746571D01*
X179754666Y-71651333D01*
X179849904Y-71603714D01*
X180040380Y-71603714D01*
X180135619Y-71651333D01*
X180183238Y-71746571D01*
X180183238Y-71841809D01*
X179707047Y-71937047D01*
X180611809Y-72270380D02*
X180611809Y-71603714D01*
X180611809Y-71794190D02*
X180659428Y-71698952D01*
X180707047Y-71651333D01*
X180802285Y-71603714D01*
X180897523Y-71603714D01*
X181230857Y-71603714D02*
X181230857Y-72603714D01*
X181230857Y-71651333D02*
X181326095Y-71603714D01*
X181516571Y-71603714D01*
X181611809Y-71651333D01*
X181659428Y-71698952D01*
X181707047Y-71794190D01*
X181707047Y-72079904D01*
X181659428Y-72175142D01*
X181611809Y-72222761D01*
X181516571Y-72270380D01*
X181326095Y-72270380D01*
X181230857Y-72222761D01*
X182278476Y-72270380D02*
X182183238Y-72222761D01*
X182135619Y-72127523D01*
X182135619Y-71270380D01*
X183088000Y-71603714D02*
X183088000Y-72270380D01*
X182659428Y-71603714D02*
X182659428Y-72127523D01*
X182707047Y-72222761D01*
X182802285Y-72270380D01*
X182945142Y-72270380D01*
X183040380Y-72222761D01*
X183088000Y-72175142D01*
X183564190Y-71603714D02*
X183564190Y-72270380D01*
X183564190Y-71698952D02*
X183611809Y-71651333D01*
X183707047Y-71603714D01*
X183849904Y-71603714D01*
X183945142Y-71651333D01*
X183992761Y-71746571D01*
X183992761Y-72270380D01*
X184468952Y-72270380D02*
X184468952Y-71270380D01*
X184564190Y-71889428D02*
X184849904Y-72270380D01*
X184849904Y-71603714D02*
X184468952Y-71984666D01*
X185278476Y-72175142D02*
X185326095Y-72222761D01*
X185278476Y-72270380D01*
X185230857Y-72222761D01*
X185278476Y-72175142D01*
X185278476Y-72270380D01*
X186183238Y-72222761D02*
X186088000Y-72270380D01*
X185897523Y-72270380D01*
X185802285Y-72222761D01*
X185754666Y-72175142D01*
X185707047Y-72079904D01*
X185707047Y-71794190D01*
X185754666Y-71698952D01*
X185802285Y-71651333D01*
X185897523Y-71603714D01*
X186088000Y-71603714D01*
X186183238Y-71651333D01*
X186754666Y-72270380D02*
X186659428Y-72222761D01*
X186611809Y-72175142D01*
X186564190Y-72079904D01*
X186564190Y-71794190D01*
X186611809Y-71698952D01*
X186659428Y-71651333D01*
X186754666Y-71603714D01*
X186897523Y-71603714D01*
X186992761Y-71651333D01*
X187040380Y-71698952D01*
X187088000Y-71794190D01*
X187088000Y-72079904D01*
X187040380Y-72175142D01*
X186992761Y-72222761D01*
X186897523Y-72270380D01*
X186754666Y-72270380D01*
X187516571Y-72270380D02*
X187516571Y-71603714D01*
X187516571Y-71698952D02*
X187564190Y-71651333D01*
X187659428Y-71603714D01*
X187802285Y-71603714D01*
X187897523Y-71651333D01*
X187945142Y-71746571D01*
X187945142Y-72270380D01*
X187945142Y-71746571D02*
X187992761Y-71651333D01*
X188088000Y-71603714D01*
X188230857Y-71603714D01*
X188326095Y-71651333D01*
X188373714Y-71746571D01*
X188373714Y-72270380D01*
X124095047Y-80351380D02*
X124761714Y-80351380D01*
X124333142Y-81351380D01*
X125618857Y-80351380D02*
X125142666Y-80351380D01*
X125095047Y-80827571D01*
X125142666Y-80779952D01*
X125237904Y-80732333D01*
X125476000Y-80732333D01*
X125571238Y-80779952D01*
X125618857Y-80827571D01*
X125666476Y-80922809D01*
X125666476Y-81160904D01*
X125618857Y-81256142D01*
X125571238Y-81303761D01*
X125476000Y-81351380D01*
X125237904Y-81351380D01*
X125142666Y-81303761D01*
X125095047Y-81256142D01*
X126047428Y-81351380D02*
X126285523Y-81351380D01*
X126285523Y-81160904D01*
X126190285Y-81113285D01*
X126095047Y-81018047D01*
X126047428Y-80875190D01*
X126047428Y-80637095D01*
X126095047Y-80494238D01*
X126190285Y-80399000D01*
X126333142Y-80351380D01*
X126523619Y-80351380D01*
X126666476Y-80399000D01*
X126761714Y-80494238D01*
X126809333Y-80637095D01*
X126809333Y-80875190D01*
X126761714Y-81018047D01*
X126666476Y-81113285D01*
X126571238Y-81160904D01*
X126571238Y-81351380D01*
X126809333Y-81351380D01*
X119451571Y-80351380D02*
X120023000Y-80351380D01*
X119737285Y-81351380D02*
X119737285Y-80351380D01*
X120213476Y-80351380D02*
X120784904Y-80351380D01*
X120499190Y-81351380D02*
X120499190Y-80351380D01*
X121594428Y-81351380D02*
X121118238Y-81351380D01*
X121118238Y-80351380D01*
X136876452Y-84806523D02*
X137162166Y-84901761D01*
X137638357Y-84901761D01*
X137828833Y-84806523D01*
X137924071Y-84711285D01*
X138019309Y-84520809D01*
X138019309Y-84330333D01*
X137924071Y-84139857D01*
X137828833Y-84044619D01*
X137638357Y-83949380D01*
X137257404Y-83854142D01*
X137066928Y-83758904D01*
X136971690Y-83663666D01*
X136876452Y-83473190D01*
X136876452Y-83282714D01*
X136971690Y-83092238D01*
X137066928Y-82997000D01*
X137257404Y-82901761D01*
X137733595Y-82901761D01*
X138019309Y-82997000D01*
X138685976Y-83568428D02*
X139162166Y-84901761D01*
X139638357Y-83568428D02*
X139162166Y-84901761D01*
X138971690Y-85377952D01*
X138876452Y-85473190D01*
X138685976Y-85568428D01*
X140400261Y-83568428D02*
X140400261Y-84901761D01*
X140400261Y-83758904D02*
X140495500Y-83663666D01*
X140685976Y-83568428D01*
X140971690Y-83568428D01*
X141162166Y-83663666D01*
X141257404Y-83854142D01*
X141257404Y-84901761D01*
X143066928Y-84806523D02*
X142876452Y-84901761D01*
X142495500Y-84901761D01*
X142305023Y-84806523D01*
X142209785Y-84711285D01*
X142114547Y-84520809D01*
X142114547Y-83949380D01*
X142209785Y-83758904D01*
X142305023Y-83663666D01*
X142495500Y-83568428D01*
X142876452Y-83568428D01*
X143066928Y-83663666D01*
X136876452Y-87956523D02*
X137162166Y-88051761D01*
X137638357Y-88051761D01*
X137828833Y-87956523D01*
X137924071Y-87861285D01*
X138019309Y-87670809D01*
X138019309Y-87480333D01*
X137924071Y-87289857D01*
X137828833Y-87194619D01*
X137638357Y-87099380D01*
X137257404Y-87004142D01*
X137066928Y-86908904D01*
X136971690Y-86813666D01*
X136876452Y-86623190D01*
X136876452Y-86432714D01*
X136971690Y-86242238D01*
X137066928Y-86147000D01*
X137257404Y-86051761D01*
X137733595Y-86051761D01*
X138019309Y-86147000D01*
X139638357Y-87956523D02*
X139447880Y-88051761D01*
X139066928Y-88051761D01*
X138876452Y-87956523D01*
X138781214Y-87766047D01*
X138781214Y-87004142D01*
X138876452Y-86813666D01*
X139066928Y-86718428D01*
X139447880Y-86718428D01*
X139638357Y-86813666D01*
X139733595Y-87004142D01*
X139733595Y-87194619D01*
X138781214Y-87385095D01*
X140876452Y-88051761D02*
X140685976Y-87956523D01*
X140590738Y-87766047D01*
X140590738Y-86051761D01*
X142400261Y-87956523D02*
X142209785Y-88051761D01*
X141828833Y-88051761D01*
X141638357Y-87956523D01*
X141543119Y-87766047D01*
X141543119Y-87004142D01*
X141638357Y-86813666D01*
X141828833Y-86718428D01*
X142209785Y-86718428D01*
X142400261Y-86813666D01*
X142495500Y-87004142D01*
X142495500Y-87194619D01*
X141543119Y-87385095D01*
X144209785Y-87956523D02*
X144019309Y-88051761D01*
X143638357Y-88051761D01*
X143447880Y-87956523D01*
X143352642Y-87861285D01*
X143257404Y-87670809D01*
X143257404Y-87099380D01*
X143352642Y-86908904D01*
X143447880Y-86813666D01*
X143638357Y-86718428D01*
X144019309Y-86718428D01*
X144209785Y-86813666D01*
X144781214Y-86718428D02*
X145543119Y-86718428D01*
X145066928Y-86051761D02*
X145066928Y-87766047D01*
X145162166Y-87956523D01*
X145352642Y-88051761D01*
X145543119Y-88051761D01*
X137733595Y-91201761D02*
X137733595Y-89677952D01*
X137352642Y-90058904D02*
X137733595Y-89677952D01*
X138114547Y-90058904D01*
X140590738Y-91011285D02*
X140495500Y-91106523D01*
X140209785Y-91201761D01*
X140019309Y-91201761D01*
X139733595Y-91106523D01*
X139543119Y-90916047D01*
X139447880Y-90725571D01*
X139352642Y-90344619D01*
X139352642Y-90058904D01*
X139447880Y-89677952D01*
X139543119Y-89487476D01*
X139733595Y-89297000D01*
X140019309Y-89201761D01*
X140209785Y-89201761D01*
X140495500Y-89297000D01*
X140590738Y-89392238D01*
X141162166Y-89201761D02*
X141828833Y-91201761D01*
X142495500Y-89201761D01*
X143828833Y-90154142D02*
X144114547Y-90249380D01*
X144209785Y-90344619D01*
X144305023Y-90535095D01*
X144305023Y-90820809D01*
X144209785Y-91011285D01*
X144114547Y-91106523D01*
X143924071Y-91201761D01*
X143162166Y-91201761D01*
X143162166Y-89201761D01*
X143828833Y-89201761D01*
X144019309Y-89297000D01*
X144114547Y-89392238D01*
X144209785Y-89582714D01*
X144209785Y-89773190D01*
X144114547Y-89963666D01*
X144019309Y-90058904D01*
X143828833Y-90154142D01*
X143162166Y-90154142D01*
X145066928Y-91106523D02*
X145352642Y-91201761D01*
X145828833Y-91201761D01*
X146019309Y-91106523D01*
X146114547Y-91011285D01*
X146209785Y-90820809D01*
X146209785Y-90630333D01*
X146114547Y-90439857D01*
X146019309Y-90344619D01*
X145828833Y-90249380D01*
X145447880Y-90154142D01*
X145257404Y-90058904D01*
X145162166Y-89963666D01*
X145066928Y-89773190D01*
X145066928Y-89582714D01*
X145162166Y-89392238D01*
X145257404Y-89297000D01*
X145447880Y-89201761D01*
X145924071Y-89201761D01*
X146209785Y-89297000D01*
X137066928Y-93208904D02*
X137066928Y-93970809D01*
X137162166Y-94066047D02*
X137543119Y-94351761D01*
X137162166Y-93113666D02*
X137543119Y-92827952D01*
X137162166Y-93018428D02*
X137162166Y-94161285D01*
X137257404Y-94161285D02*
X137257404Y-93018428D01*
X137352642Y-92923190D02*
X137352642Y-94256523D01*
X137447880Y-94256523D02*
X137447880Y-92923190D01*
X137543119Y-92827952D02*
X137543119Y-94351761D01*
X137638357Y-94351761D02*
X137638357Y-92827952D01*
X137733595Y-92827952D02*
X137733595Y-94351761D01*
X137828833Y-94351761D02*
X137828833Y-92827952D01*
X137924071Y-94351761D02*
X138305023Y-94066047D01*
X137924071Y-92827952D02*
X137924071Y-94351761D01*
X137924071Y-92827952D02*
X138305023Y-93113666D01*
X138019309Y-94256523D02*
X138019309Y-92923190D01*
X138114547Y-92923190D02*
X138114547Y-94256523D01*
X138209785Y-94161285D02*
X138209785Y-93018428D01*
X138305023Y-93018428D02*
X138305023Y-94161285D01*
X138400261Y-93970809D02*
X138400261Y-93208904D01*
X137543119Y-92827952D02*
X137924071Y-92827952D01*
X138305023Y-93018428D01*
X138495500Y-93399380D01*
X138495500Y-93780333D01*
X138305023Y-94161285D01*
X137924071Y-94351761D01*
X137543119Y-94351761D01*
X137162166Y-94161285D01*
X136971690Y-93780333D01*
X136971690Y-93399380D01*
X137162166Y-93018428D01*
X137543119Y-92827952D01*
X140590738Y-94161285D02*
X140495500Y-94256523D01*
X140209785Y-94351761D01*
X140019309Y-94351761D01*
X139733595Y-94256523D01*
X139543119Y-94066047D01*
X139447880Y-93875571D01*
X139352642Y-93494619D01*
X139352642Y-93208904D01*
X139447880Y-92827952D01*
X139543119Y-92637476D01*
X139733595Y-92447000D01*
X140019309Y-92351761D01*
X140209785Y-92351761D01*
X140495500Y-92447000D01*
X140590738Y-92542238D01*
X141352642Y-94256523D02*
X141638357Y-94351761D01*
X142114547Y-94351761D01*
X142305023Y-94256523D01*
X142400261Y-94161285D01*
X142495500Y-93970809D01*
X142495500Y-93780333D01*
X142400261Y-93589857D01*
X142305023Y-93494619D01*
X142114547Y-93399380D01*
X141733595Y-93304142D01*
X141543119Y-93208904D01*
X141447880Y-93113666D01*
X141352642Y-92923190D01*
X141352642Y-92732714D01*
X141447880Y-92542238D01*
X141543119Y-92447000D01*
X141733595Y-92351761D01*
X142209785Y-92351761D01*
X142495500Y-92447000D01*
X143733595Y-93399380D02*
X143733595Y-94351761D01*
X143066928Y-92351761D02*
X143733595Y-93399380D01*
X144400261Y-92351761D01*
X145066928Y-94351761D02*
X145066928Y-92351761D01*
X146209785Y-94351761D01*
X146209785Y-92351761D01*
X148305023Y-94161285D02*
X148209785Y-94256523D01*
X147924071Y-94351761D01*
X147733595Y-94351761D01*
X147447880Y-94256523D01*
X147257404Y-94066047D01*
X147162166Y-93875571D01*
X147066928Y-93494619D01*
X147066928Y-93208904D01*
X147162166Y-92827952D01*
X147257404Y-92637476D01*
X147447880Y-92447000D01*
X147733595Y-92351761D01*
X147924071Y-92351761D01*
X148209785Y-92447000D01*
X148305023Y-92542238D01*
X137733595Y-95977952D02*
X137733595Y-97501761D01*
X138114547Y-97120809D02*
X137733595Y-97501761D01*
X137352642Y-97120809D01*
X140400261Y-97501761D02*
X139447880Y-97501761D01*
X139447880Y-95501761D01*
X141066928Y-95501761D02*
X141066928Y-97120809D01*
X141162166Y-97311285D01*
X141257404Y-97406523D01*
X141447880Y-97501761D01*
X141828833Y-97501761D01*
X142019309Y-97406523D01*
X142114547Y-97311285D01*
X142209785Y-97120809D01*
X142209785Y-95501761D01*
X143162166Y-97501761D02*
X143162166Y-95501761D01*
X143828833Y-96930333D01*
X144495500Y-95501761D01*
X144495500Y-97501761D01*
X145352642Y-96930333D02*
X146305023Y-96930333D01*
X145162166Y-97501761D02*
X145828833Y-95501761D01*
X146495500Y-97501761D01*
X181909785Y-92845380D02*
X181576452Y-92369190D01*
X181338357Y-92845380D02*
X181338357Y-91845380D01*
X181719309Y-91845380D01*
X181814547Y-91893000D01*
X181862166Y-91940619D01*
X181909785Y-92035857D01*
X181909785Y-92178714D01*
X181862166Y-92273952D01*
X181814547Y-92321571D01*
X181719309Y-92369190D01*
X181338357Y-92369190D01*
X182909785Y-92750142D02*
X182862166Y-92797761D01*
X182719309Y-92845380D01*
X182624071Y-92845380D01*
X182481214Y-92797761D01*
X182385976Y-92702523D01*
X182338357Y-92607285D01*
X182290738Y-92416809D01*
X182290738Y-92273952D01*
X182338357Y-92083476D01*
X182385976Y-91988238D01*
X182481214Y-91893000D01*
X182624071Y-91845380D01*
X182719309Y-91845380D01*
X182862166Y-91893000D01*
X182909785Y-91940619D01*
X183290738Y-92559666D02*
X183766928Y-92559666D01*
X183195500Y-92845380D02*
X183528833Y-91845380D01*
X183862166Y-92845380D01*
X184195500Y-92464428D02*
X184957404Y-92464428D01*
X184766928Y-92654904D02*
X184957404Y-92464428D01*
X184766928Y-92273952D01*
X175433595Y-94447761D02*
X175576452Y-94495380D01*
X175814547Y-94495380D01*
X175909785Y-94447761D01*
X175957404Y-94400142D01*
X176005023Y-94304904D01*
X176005023Y-94209666D01*
X175957404Y-94114428D01*
X175909785Y-94066809D01*
X175814547Y-94019190D01*
X175624071Y-93971571D01*
X175528833Y-93923952D01*
X175481214Y-93876333D01*
X175433595Y-93781095D01*
X175433595Y-93685857D01*
X175481214Y-93590619D01*
X175528833Y-93543000D01*
X175624071Y-93495380D01*
X175862166Y-93495380D01*
X176005023Y-93543000D01*
X176624071Y-94019190D02*
X176624071Y-94495380D01*
X176290738Y-93495380D02*
X176624071Y-94019190D01*
X176957404Y-93495380D01*
X177290738Y-94495380D02*
X177290738Y-93495380D01*
X177862166Y-94495380D01*
X177862166Y-93495380D01*
X178909785Y-94400142D02*
X178862166Y-94447761D01*
X178719309Y-94495380D01*
X178624071Y-94495380D01*
X178481214Y-94447761D01*
X178385976Y-94352523D01*
X178338357Y-94257285D01*
X178290738Y-94066809D01*
X178290738Y-93923952D01*
X178338357Y-93733476D01*
X178385976Y-93638238D01*
X178481214Y-93543000D01*
X178624071Y-93495380D01*
X178719309Y-93495380D01*
X178862166Y-93543000D01*
X178909785Y-93590619D01*
X180052642Y-94447761D02*
X180195500Y-94495380D01*
X180433595Y-94495380D01*
X180528833Y-94447761D01*
X180576452Y-94400142D01*
X180624071Y-94304904D01*
X180624071Y-94209666D01*
X180576452Y-94114428D01*
X180528833Y-94066809D01*
X180433595Y-94019190D01*
X180243119Y-93971571D01*
X180147880Y-93923952D01*
X180100261Y-93876333D01*
X180052642Y-93781095D01*
X180052642Y-93685857D01*
X180100261Y-93590619D01*
X180147880Y-93543000D01*
X180243119Y-93495380D01*
X180481214Y-93495380D01*
X180624071Y-93543000D01*
X181052642Y-93971571D02*
X181385976Y-93971571D01*
X181528833Y-94495380D02*
X181052642Y-94495380D01*
X181052642Y-93495380D01*
X181528833Y-93495380D01*
X182433595Y-94495380D02*
X181957404Y-94495380D01*
X181957404Y-93495380D01*
X182766928Y-93971571D02*
X183100261Y-93971571D01*
X183243119Y-94495380D02*
X182766928Y-94495380D01*
X182766928Y-93495380D01*
X183243119Y-93495380D01*
X184243119Y-94400142D02*
X184195500Y-94447761D01*
X184052642Y-94495380D01*
X183957404Y-94495380D01*
X183814547Y-94447761D01*
X183719309Y-94352523D01*
X183671690Y-94257285D01*
X183624071Y-94066809D01*
X183624071Y-93923952D01*
X183671690Y-93733476D01*
X183719309Y-93638238D01*
X183814547Y-93543000D01*
X183957404Y-93495380D01*
X184052642Y-93495380D01*
X184195500Y-93543000D01*
X184243119Y-93590619D01*
X184528833Y-93495380D02*
X185100261Y-93495380D01*
X184814547Y-94495380D02*
X184814547Y-93495380D01*
X95585500Y-92591428D02*
X94823595Y-92591428D01*
X95014071Y-92781904D02*
X94823595Y-92591428D01*
X95014071Y-92400952D01*
X96061690Y-92972380D02*
X96061690Y-91972380D01*
X96061690Y-92448571D02*
X96633119Y-92448571D01*
X96633119Y-92972380D02*
X96633119Y-91972380D01*
X97109309Y-92972380D02*
X97109309Y-91972380D01*
X97347404Y-91972380D01*
X97490261Y-92020000D01*
X97585500Y-92115238D01*
X97633119Y-92210476D01*
X97680738Y-92400952D01*
X97680738Y-92543809D01*
X97633119Y-92734285D01*
X97585500Y-92829523D01*
X97490261Y-92924761D01*
X97347404Y-92972380D01*
X97109309Y-92972380D01*
X98633119Y-92972380D02*
X98061690Y-92972380D01*
X98347404Y-92972380D02*
X98347404Y-91972380D01*
X98252166Y-92115238D01*
X98156928Y-92210476D01*
X98061690Y-92258095D01*
X99537880Y-91972380D02*
X99061690Y-91972380D01*
X99014071Y-92448571D01*
X99061690Y-92400952D01*
X99156928Y-92353333D01*
X99395023Y-92353333D01*
X99490261Y-92400952D01*
X99537880Y-92448571D01*
X99585500Y-92543809D01*
X99585500Y-92781904D01*
X99537880Y-92877142D01*
X99490261Y-92924761D01*
X99395023Y-92972380D01*
X99156928Y-92972380D01*
X99061690Y-92924761D01*
X99014071Y-92877142D01*
X94775976Y-94574761D02*
X94918833Y-94622380D01*
X95156928Y-94622380D01*
X95252166Y-94574761D01*
X95299785Y-94527142D01*
X95347404Y-94431904D01*
X95347404Y-94336666D01*
X95299785Y-94241428D01*
X95252166Y-94193809D01*
X95156928Y-94146190D01*
X94966452Y-94098571D01*
X94871214Y-94050952D01*
X94823595Y-94003333D01*
X94775976Y-93908095D01*
X94775976Y-93812857D01*
X94823595Y-93717619D01*
X94871214Y-93670000D01*
X94966452Y-93622380D01*
X95204547Y-93622380D01*
X95347404Y-93670000D01*
X95966452Y-94146190D02*
X95966452Y-94622380D01*
X95633119Y-93622380D02*
X95966452Y-94146190D01*
X96299785Y-93622380D01*
X96633119Y-94622380D02*
X96633119Y-93622380D01*
X97204547Y-94622380D01*
X97204547Y-93622380D01*
X98252166Y-94527142D02*
X98204547Y-94574761D01*
X98061690Y-94622380D01*
X97966452Y-94622380D01*
X97823595Y-94574761D01*
X97728357Y-94479523D01*
X97680738Y-94384285D01*
X97633119Y-94193809D01*
X97633119Y-94050952D01*
X97680738Y-93860476D01*
X97728357Y-93765238D01*
X97823595Y-93670000D01*
X97966452Y-93622380D01*
X98061690Y-93622380D01*
X98204547Y-93670000D01*
X98252166Y-93717619D01*
X99395023Y-94574761D02*
X99537880Y-94622380D01*
X99775976Y-94622380D01*
X99871214Y-94574761D01*
X99918833Y-94527142D01*
X99966452Y-94431904D01*
X99966452Y-94336666D01*
X99918833Y-94241428D01*
X99871214Y-94193809D01*
X99775976Y-94146190D01*
X99585500Y-94098571D01*
X99490261Y-94050952D01*
X99442642Y-94003333D01*
X99395023Y-93908095D01*
X99395023Y-93812857D01*
X99442642Y-93717619D01*
X99490261Y-93670000D01*
X99585500Y-93622380D01*
X99823595Y-93622380D01*
X99966452Y-93670000D01*
X100395023Y-94098571D02*
X100728357Y-94098571D01*
X100871214Y-94622380D02*
X100395023Y-94622380D01*
X100395023Y-93622380D01*
X100871214Y-93622380D01*
X101775976Y-94622380D02*
X101299785Y-94622380D01*
X101299785Y-93622380D01*
X102109309Y-94098571D02*
X102442642Y-94098571D01*
X102585500Y-94622380D02*
X102109309Y-94622380D01*
X102109309Y-93622380D01*
X102585500Y-93622380D01*
X103585500Y-94527142D02*
X103537880Y-94574761D01*
X103395023Y-94622380D01*
X103299785Y-94622380D01*
X103156928Y-94574761D01*
X103061690Y-94479523D01*
X103014071Y-94384285D01*
X102966452Y-94193809D01*
X102966452Y-94050952D01*
X103014071Y-93860476D01*
X103061690Y-93765238D01*
X103156928Y-93670000D01*
X103299785Y-93622380D01*
X103395023Y-93622380D01*
X103537880Y-93670000D01*
X103585500Y-93717619D01*
X103871214Y-93622380D02*
X104442642Y-93622380D01*
X104156928Y-94622380D02*
X104156928Y-93622380D01*
X94845428Y-82875476D02*
X94845428Y-83637380D01*
X95035904Y-83446904D02*
X94845428Y-83637380D01*
X94654952Y-83446904D01*
X96178761Y-83637380D02*
X95702571Y-83637380D01*
X95702571Y-82637380D01*
X96512095Y-82637380D02*
X96512095Y-83446904D01*
X96559714Y-83542142D01*
X96607333Y-83589761D01*
X96702571Y-83637380D01*
X96893047Y-83637380D01*
X96988285Y-83589761D01*
X97035904Y-83542142D01*
X97083523Y-83446904D01*
X97083523Y-82637380D01*
X97559714Y-83637380D02*
X97559714Y-82637380D01*
X97893047Y-83351666D01*
X98226380Y-82637380D01*
X98226380Y-83637380D01*
X98654952Y-83351666D02*
X99131142Y-83351666D01*
X98559714Y-83637380D02*
X98893047Y-82637380D01*
X99226380Y-83637380D01*
X95361380Y-85479428D02*
X94599476Y-85479428D01*
X94789952Y-85669904D02*
X94599476Y-85479428D01*
X94789952Y-85288952D01*
X96409000Y-85765142D02*
X96361380Y-85812761D01*
X96218523Y-85860380D01*
X96123285Y-85860380D01*
X95980428Y-85812761D01*
X95885190Y-85717523D01*
X95837571Y-85622285D01*
X95789952Y-85431809D01*
X95789952Y-85288952D01*
X95837571Y-85098476D01*
X95885190Y-85003238D01*
X95980428Y-84908000D01*
X96123285Y-84860380D01*
X96218523Y-84860380D01*
X96361380Y-84908000D01*
X96409000Y-84955619D01*
X96789952Y-85812761D02*
X96932809Y-85860380D01*
X97170904Y-85860380D01*
X97266142Y-85812761D01*
X97313761Y-85765142D01*
X97361380Y-85669904D01*
X97361380Y-85574666D01*
X97313761Y-85479428D01*
X97266142Y-85431809D01*
X97170904Y-85384190D01*
X96980428Y-85336571D01*
X96885190Y-85288952D01*
X96837571Y-85241333D01*
X96789952Y-85146095D01*
X96789952Y-85050857D01*
X96837571Y-84955619D01*
X96885190Y-84908000D01*
X96980428Y-84860380D01*
X97218523Y-84860380D01*
X97361380Y-84908000D01*
X97980428Y-85384190D02*
X97980428Y-85860380D01*
X97647095Y-84860380D02*
X97980428Y-85384190D01*
X98313761Y-84860380D01*
X98647095Y-85860380D02*
X98647095Y-84860380D01*
X99218523Y-85860380D01*
X99218523Y-84860380D01*
X100266142Y-85765142D02*
X100218523Y-85812761D01*
X100075666Y-85860380D01*
X99980428Y-85860380D01*
X99837571Y-85812761D01*
X99742333Y-85717523D01*
X99694714Y-85622285D01*
X99647095Y-85431809D01*
X99647095Y-85288952D01*
X99694714Y-85098476D01*
X99742333Y-85003238D01*
X99837571Y-84908000D01*
X99980428Y-84860380D01*
X100075666Y-84860380D01*
X100218523Y-84908000D01*
X100266142Y-84955619D01*
X95289952Y-87462761D02*
X95432809Y-87510380D01*
X95670904Y-87510380D01*
X95766142Y-87462761D01*
X95813761Y-87415142D01*
X95861380Y-87319904D01*
X95861380Y-87224666D01*
X95813761Y-87129428D01*
X95766142Y-87081809D01*
X95670904Y-87034190D01*
X95480428Y-86986571D01*
X95385190Y-86938952D01*
X95337571Y-86891333D01*
X95289952Y-86796095D01*
X95289952Y-86700857D01*
X95337571Y-86605619D01*
X95385190Y-86558000D01*
X95480428Y-86510380D01*
X95718523Y-86510380D01*
X95861380Y-86558000D01*
X96670904Y-87462761D02*
X96575666Y-87510380D01*
X96385190Y-87510380D01*
X96289952Y-87462761D01*
X96242333Y-87367523D01*
X96242333Y-86986571D01*
X96289952Y-86891333D01*
X96385190Y-86843714D01*
X96575666Y-86843714D01*
X96670904Y-86891333D01*
X96718523Y-86986571D01*
X96718523Y-87081809D01*
X96242333Y-87177047D01*
X97289952Y-87510380D02*
X97194714Y-87462761D01*
X97147095Y-87367523D01*
X97147095Y-86510380D01*
X98051857Y-87462761D02*
X97956619Y-87510380D01*
X97766142Y-87510380D01*
X97670904Y-87462761D01*
X97623285Y-87367523D01*
X97623285Y-86986571D01*
X97670904Y-86891333D01*
X97766142Y-86843714D01*
X97956619Y-86843714D01*
X98051857Y-86891333D01*
X98099476Y-86986571D01*
X98099476Y-87081809D01*
X97623285Y-87177047D01*
X98956619Y-87462761D02*
X98861380Y-87510380D01*
X98670904Y-87510380D01*
X98575666Y-87462761D01*
X98528047Y-87415142D01*
X98480428Y-87319904D01*
X98480428Y-87034190D01*
X98528047Y-86938952D01*
X98575666Y-86891333D01*
X98670904Y-86843714D01*
X98861380Y-86843714D01*
X98956619Y-86891333D01*
X99242333Y-86843714D02*
X99623285Y-86843714D01*
X99385190Y-86510380D02*
X99385190Y-87367523D01*
X99432809Y-87462761D01*
X99528047Y-87510380D01*
X99623285Y-87510380D01*
X94869238Y-81224380D02*
X94869238Y-80462476D01*
X94678761Y-80652952D02*
X94869238Y-80462476D01*
X95059714Y-80652952D01*
X96297809Y-81129142D02*
X96250190Y-81176761D01*
X96107333Y-81224380D01*
X96012095Y-81224380D01*
X95869238Y-81176761D01*
X95774000Y-81081523D01*
X95726380Y-80986285D01*
X95678761Y-80795809D01*
X95678761Y-80652952D01*
X95726380Y-80462476D01*
X95774000Y-80367238D01*
X95869238Y-80272000D01*
X96012095Y-80224380D01*
X96107333Y-80224380D01*
X96250190Y-80272000D01*
X96297809Y-80319619D01*
X96583523Y-80224380D02*
X96916857Y-81224380D01*
X97250190Y-80224380D01*
X97916857Y-80700571D02*
X98059714Y-80748190D01*
X98107333Y-80795809D01*
X98154952Y-80891047D01*
X98154952Y-81033904D01*
X98107333Y-81129142D01*
X98059714Y-81176761D01*
X97964476Y-81224380D01*
X97583523Y-81224380D01*
X97583523Y-80224380D01*
X97916857Y-80224380D01*
X98012095Y-80272000D01*
X98059714Y-80319619D01*
X98107333Y-80414857D01*
X98107333Y-80510095D01*
X98059714Y-80605333D01*
X98012095Y-80652952D01*
X97916857Y-80700571D01*
X97583523Y-80700571D01*
X98535904Y-81176761D02*
X98678761Y-81224380D01*
X98916857Y-81224380D01*
X99012095Y-81176761D01*
X99059714Y-81129142D01*
X99107333Y-81033904D01*
X99107333Y-80938666D01*
X99059714Y-80843428D01*
X99012095Y-80795809D01*
X98916857Y-80748190D01*
X98726380Y-80700571D01*
X98631142Y-80652952D01*
X98583523Y-80605333D01*
X98535904Y-80510095D01*
X98535904Y-80414857D01*
X98583523Y-80319619D01*
X98631142Y-80272000D01*
X98726380Y-80224380D01*
X98964476Y-80224380D01*
X99107333Y-80272000D01*
D11*
X121989000Y-110236000D02*
G75*
G03X121989000Y-110236000I-170000J0D01*
G01*
D12*
X122719000Y-111436000D02*
X122419000Y-111436000D01*
X122719000Y-115436000D02*
X122719000Y-111436000D01*
X128719000Y-115436000D02*
X122719000Y-115436000D01*
X128719000Y-111436000D02*
X128719000Y-115436000D01*
X130619000Y-111436000D02*
X128719000Y-111436000D01*
X130619000Y-97436000D02*
X130619000Y-111436000D01*
X122419000Y-97436000D02*
X130619000Y-97436000D01*
X122419000Y-111436000D02*
X122419000Y-97436000D01*
D13*
X90710500Y-111197000D02*
X90710500Y-102597000D01*
X90710500Y-102597000D02*
X121680500Y-102597000D01*
X121680500Y-102597000D02*
X121680500Y-111197000D01*
X110260500Y-101702662D02*
X110760500Y-101702662D01*
X110760500Y-101702662D02*
X110510500Y-102135675D01*
X110510500Y-102135675D02*
X110260500Y-101702662D01*
D10*
X147473500Y-111760000D02*
X189473500Y-111760000D01*
D13*
X94263000Y-101042000D02*
X89963000Y-101042000D01*
X89963000Y-101042000D02*
X89963000Y-88442000D01*
X89963000Y-88442000D02*
X94263000Y-88442000D01*
X94263000Y-88442000D02*
X94263000Y-101042000D01*
X89963000Y-95742000D02*
X85963000Y-95742000D01*
X85963000Y-95742000D02*
X85963000Y-93742000D01*
X85963000Y-93742000D02*
X89963000Y-93742000D01*
X174830000Y-60000000D02*
X189930000Y-60000000D01*
X189930000Y-60000000D02*
X189930000Y-76100000D01*
X174830000Y-60000000D02*
X174830000Y-76100000D01*
D12*
X145684000Y-111502000D02*
X131634000Y-111502000D01*
X131634000Y-98302000D02*
X145734000Y-98302000D01*
X145684000Y-111502000D02*
X145684000Y-107812000D01*
X145734000Y-98302000D02*
X145734000Y-104102000D01*
X131634000Y-111502000D02*
X131634000Y-107812000D01*
X131634000Y-98302000D02*
X131634000Y-104152000D01*
D14*
X146544000Y-103002000D02*
G75*
G03X146544000Y-103002000I-200000J0D01*
G01*
D13*
X193945000Y-89392000D02*
X189945000Y-89392000D01*
X193945000Y-87392000D02*
X193945000Y-89392000D01*
X189945000Y-87392000D02*
X193945000Y-87392000D01*
X185645000Y-94692000D02*
X185645000Y-82092000D01*
X189945000Y-94692000D02*
X185645000Y-94692000D01*
X189945000Y-82092000D02*
X189945000Y-94692000D01*
X185645000Y-82092000D02*
X189945000Y-82092000D01*
X114979267Y-86993000D02*
X114636733Y-86993000D01*
X114979267Y-88013000D02*
X114636733Y-88013000D01*
X162553000Y-88318000D02*
X166303000Y-88318000D01*
X173073000Y-88318000D02*
X169323000Y-88318000D01*
X173073000Y-78862437D02*
X173073000Y-88318000D01*
X162553000Y-78862437D02*
X162553000Y-88318000D01*
X163617437Y-77798000D02*
X166303000Y-77798000D01*
X172008563Y-77798000D02*
X169323000Y-77798000D01*
X172008563Y-77798000D02*
X173073000Y-78862437D01*
X163617437Y-77798000D02*
X162553000Y-78862437D01*
X170573000Y-76308000D02*
X170573000Y-77558000D01*
X171198000Y-76933000D02*
X169948000Y-76933000D01*
X182328000Y-76933000D02*
X181078000Y-76933000D01*
X181703000Y-76308000D02*
X181703000Y-77558000D01*
X174747437Y-77798000D02*
X173683000Y-78862437D01*
X183138563Y-77798000D02*
X184203000Y-78862437D01*
X183138563Y-77798000D02*
X180453000Y-77798000D01*
X174747437Y-77798000D02*
X177433000Y-77798000D01*
X173683000Y-78862437D02*
X173683000Y-88318000D01*
X184203000Y-78862437D02*
X184203000Y-88318000D01*
X184203000Y-88318000D02*
X180453000Y-88318000D01*
X173683000Y-88318000D02*
X177433000Y-88318000D01*
X151458000Y-88318000D02*
X155208000Y-88318000D01*
X161978000Y-88318000D02*
X158228000Y-88318000D01*
X161978000Y-78862437D02*
X161978000Y-88318000D01*
X151458000Y-78862437D02*
X151458000Y-88318000D01*
X152522437Y-77798000D02*
X155208000Y-77798000D01*
X160913563Y-77798000D02*
X158228000Y-77798000D01*
X160913563Y-77798000D02*
X161978000Y-78862437D01*
X152522437Y-77798000D02*
X151458000Y-78862437D01*
X159478000Y-76308000D02*
X159478000Y-77558000D01*
X160103000Y-76933000D02*
X158853000Y-76933000D01*
X127153000Y-92684000D02*
X128353000Y-92684000D01*
X131673000Y-92684000D02*
X130473000Y-92684000D01*
X131673000Y-89228437D02*
X131673000Y-92684000D01*
X127153000Y-89228437D02*
X127153000Y-92684000D01*
X128217437Y-88164000D02*
X128353000Y-88164000D01*
X130608563Y-88164000D02*
X130473000Y-88164000D01*
X130608563Y-88164000D02*
X131673000Y-89228437D01*
X128217437Y-88164000D02*
X127153000Y-89228437D01*
X130973000Y-87424000D02*
X130973000Y-87924000D01*
X131223000Y-87674000D02*
X130723000Y-87674000D01*
X121381267Y-91184000D02*
X121038733Y-91184000D01*
X121381267Y-92204000D02*
X121038733Y-92204000D01*
X121367267Y-93855000D02*
X121024733Y-93855000D01*
X121367267Y-92835000D02*
X121024733Y-92835000D01*
X134246733Y-86739000D02*
X134589267Y-86739000D01*
X134246733Y-87759000D02*
X134589267Y-87759000D01*
X185634000Y-65703267D02*
X185634000Y-65360733D01*
X186654000Y-65703267D02*
X186654000Y-65360733D01*
X126933000Y-79435000D02*
X126933000Y-76775000D01*
X121793000Y-79435000D02*
X126933000Y-79435000D01*
X121793000Y-76775000D02*
X126933000Y-76775000D01*
X121793000Y-79435000D02*
X121793000Y-76775000D01*
X120523000Y-79435000D02*
X119193000Y-79435000D01*
X119193000Y-79435000D02*
X119193000Y-78105000D01*
X170196000Y-81658000D02*
X172196000Y-81658000D01*
X170196000Y-84458000D02*
X170196000Y-81658000D01*
X172196000Y-84458000D02*
X170196000Y-84458000D01*
X172196000Y-81658000D02*
X172196000Y-84458000D01*
X183245000Y-81695000D02*
X183245000Y-84495000D01*
X183245000Y-84495000D02*
X181245000Y-84495000D01*
X181245000Y-84495000D02*
X181245000Y-81695000D01*
X181245000Y-81695000D02*
X183245000Y-81695000D01*
X159020000Y-81748000D02*
X161020000Y-81748000D01*
X159020000Y-84548000D02*
X159020000Y-81748000D01*
X161020000Y-84548000D02*
X159020000Y-84548000D01*
X161020000Y-81748000D02*
X161020000Y-84548000D01*
X124758267Y-83695000D02*
X124415733Y-83695000D01*
X124758267Y-82675000D02*
X124415733Y-82675000D01*
X134232733Y-85981000D02*
X134575267Y-85981000D01*
X134232733Y-84961000D02*
X134575267Y-84961000D01*
X94313000Y-86088000D02*
X89913000Y-86088000D01*
X89913000Y-86088000D02*
X89913000Y-77488000D01*
X89913000Y-77488000D02*
X94313000Y-77488000D01*
X94313000Y-77488000D02*
X94313000Y-86088000D01*
X89913000Y-82788000D02*
X85913000Y-82788000D01*
X85913000Y-82788000D02*
X85913000Y-80788000D01*
X85913000Y-80788000D02*
X89913000Y-80788000D01*
D10*
X119083000Y-85563000D02*
X119083000Y-85613000D01*
X123233000Y-85563000D02*
X123233000Y-85708000D01*
X123233000Y-90713000D02*
X123233000Y-90568000D01*
X119083000Y-90713000D02*
X119083000Y-90568000D01*
X119083000Y-85563000D02*
X123233000Y-85563000D01*
X119083000Y-90713000D02*
X123233000Y-90713000D01*
X119083000Y-85613000D02*
X117683000Y-85613000D01*
X127549103Y-100578955D02*
X127549103Y-101579448D01*
X127482403Y-101779546D01*
X127349004Y-101912945D01*
X127148906Y-101979645D01*
X127015507Y-101979645D01*
X128082699Y-100578955D02*
X128949793Y-100578955D01*
X128482896Y-101112551D01*
X128682995Y-101112551D01*
X128816394Y-101179251D01*
X128883093Y-101245950D01*
X128949793Y-101379349D01*
X128949793Y-101712847D01*
X128883093Y-101846246D01*
X128816394Y-101912945D01*
X128682995Y-101979645D01*
X128282798Y-101979645D01*
X128149399Y-101912945D01*
X128082699Y-101846246D01*
X97875666Y-105116380D02*
X97875666Y-105830666D01*
X97828047Y-105973523D01*
X97732809Y-106068761D01*
X97589952Y-106116380D01*
X97494714Y-106116380D01*
X98780428Y-105449714D02*
X98780428Y-106116380D01*
X98542333Y-105068761D02*
X98304238Y-105783047D01*
X98923285Y-105783047D01*
X156710166Y-102322380D02*
X156710166Y-103036666D01*
X156662547Y-103179523D01*
X156567309Y-103274761D01*
X156424452Y-103322380D01*
X156329214Y-103322380D01*
X157662547Y-102322380D02*
X157186357Y-102322380D01*
X157138738Y-102798571D01*
X157186357Y-102750952D01*
X157281595Y-102703333D01*
X157519690Y-102703333D01*
X157614928Y-102750952D01*
X157662547Y-102798571D01*
X157710166Y-102893809D01*
X157710166Y-103131904D01*
X157662547Y-103227142D01*
X157614928Y-103274761D01*
X157519690Y-103322380D01*
X157281595Y-103322380D01*
X157186357Y-103274761D01*
X157138738Y-103227142D01*
X90741666Y-93368761D02*
X90884523Y-93416380D01*
X91122619Y-93416380D01*
X91217857Y-93368761D01*
X91265476Y-93321142D01*
X91313095Y-93225904D01*
X91313095Y-93130666D01*
X91265476Y-93035428D01*
X91217857Y-92987809D01*
X91122619Y-92940190D01*
X90932142Y-92892571D01*
X90836904Y-92844952D01*
X90789285Y-92797333D01*
X90741666Y-92702095D01*
X90741666Y-92606857D01*
X90789285Y-92511619D01*
X90836904Y-92464000D01*
X90932142Y-92416380D01*
X91170238Y-92416380D01*
X91313095Y-92464000D01*
X91646428Y-92416380D02*
X91884523Y-93416380D01*
X92075000Y-92702095D01*
X92265476Y-93416380D01*
X92503571Y-92416380D01*
X92789285Y-92416380D02*
X93408333Y-92416380D01*
X93075000Y-92797333D01*
X93217857Y-92797333D01*
X93313095Y-92844952D01*
X93360714Y-92892571D01*
X93408333Y-92987809D01*
X93408333Y-93225904D01*
X93360714Y-93321142D01*
X93313095Y-93368761D01*
X93217857Y-93416380D01*
X92932142Y-93416380D01*
X92836904Y-93368761D01*
X92789285Y-93321142D01*
X182096666Y-64452380D02*
X182096666Y-65166666D01*
X182049047Y-65309523D01*
X181953809Y-65404761D01*
X181810952Y-65452380D01*
X181715714Y-65452380D01*
X183096666Y-65452380D02*
X182525238Y-65452380D01*
X182810952Y-65452380D02*
X182810952Y-64452380D01*
X182715714Y-64595238D01*
X182620476Y-64690476D01*
X182525238Y-64738095D01*
X142143166Y-106005380D02*
X142143166Y-106719666D01*
X142095547Y-106862523D01*
X142000309Y-106957761D01*
X141857452Y-107005380D01*
X141762214Y-107005380D01*
X142571738Y-106100619D02*
X142619357Y-106053000D01*
X142714595Y-106005380D01*
X142952690Y-106005380D01*
X143047928Y-106053000D01*
X143095547Y-106100619D01*
X143143166Y-106195857D01*
X143143166Y-106291095D01*
X143095547Y-106433952D01*
X142524119Y-107005380D01*
X143143166Y-107005380D01*
X186372666Y-90828761D02*
X186515523Y-90876380D01*
X186753619Y-90876380D01*
X186848857Y-90828761D01*
X186896476Y-90781142D01*
X186944095Y-90685904D01*
X186944095Y-90590666D01*
X186896476Y-90495428D01*
X186848857Y-90447809D01*
X186753619Y-90400190D01*
X186563142Y-90352571D01*
X186467904Y-90304952D01*
X186420285Y-90257333D01*
X186372666Y-90162095D01*
X186372666Y-90066857D01*
X186420285Y-89971619D01*
X186467904Y-89924000D01*
X186563142Y-89876380D01*
X186801238Y-89876380D01*
X186944095Y-89924000D01*
X187277428Y-89876380D02*
X187515523Y-90876380D01*
X187706000Y-90162095D01*
X187896476Y-90876380D01*
X188134571Y-89876380D01*
X188467904Y-89971619D02*
X188515523Y-89924000D01*
X188610761Y-89876380D01*
X188848857Y-89876380D01*
X188944095Y-89924000D01*
X188991714Y-89971619D01*
X189039333Y-90066857D01*
X189039333Y-90162095D01*
X188991714Y-90304952D01*
X188420285Y-90876380D01*
X189039333Y-90876380D01*
X114589333Y-86463142D02*
X114541714Y-86510761D01*
X114398857Y-86558380D01*
X114303619Y-86558380D01*
X114160761Y-86510761D01*
X114065523Y-86415523D01*
X114017904Y-86320285D01*
X113970285Y-86129809D01*
X113970285Y-85986952D01*
X114017904Y-85796476D01*
X114065523Y-85701238D01*
X114160761Y-85606000D01*
X114303619Y-85558380D01*
X114398857Y-85558380D01*
X114541714Y-85606000D01*
X114589333Y-85653619D01*
X115541714Y-86558380D02*
X114970285Y-86558380D01*
X115256000Y-86558380D02*
X115256000Y-85558380D01*
X115160761Y-85701238D01*
X115065523Y-85796476D01*
X114970285Y-85844095D01*
X168124142Y-83224666D02*
X168171761Y-83272285D01*
X168219380Y-83415142D01*
X168219380Y-83510380D01*
X168171761Y-83653238D01*
X168076523Y-83748476D01*
X167981285Y-83796095D01*
X167790809Y-83843714D01*
X167647952Y-83843714D01*
X167457476Y-83796095D01*
X167362238Y-83748476D01*
X167267000Y-83653238D01*
X167219380Y-83510380D01*
X167219380Y-83415142D01*
X167267000Y-83272285D01*
X167314619Y-83224666D01*
X167314619Y-82843714D02*
X167267000Y-82796095D01*
X167219380Y-82700857D01*
X167219380Y-82462761D01*
X167267000Y-82367523D01*
X167314619Y-82319904D01*
X167409857Y-82272285D01*
X167505095Y-82272285D01*
X167647952Y-82319904D01*
X168219380Y-82891333D01*
X168219380Y-82272285D01*
X179300142Y-83224666D02*
X179347761Y-83272285D01*
X179395380Y-83415142D01*
X179395380Y-83510380D01*
X179347761Y-83653238D01*
X179252523Y-83748476D01*
X179157285Y-83796095D01*
X178966809Y-83843714D01*
X178823952Y-83843714D01*
X178633476Y-83796095D01*
X178538238Y-83748476D01*
X178443000Y-83653238D01*
X178395380Y-83510380D01*
X178395380Y-83415142D01*
X178443000Y-83272285D01*
X178490619Y-83224666D01*
X178395380Y-82891333D02*
X178395380Y-82272285D01*
X178776333Y-82605619D01*
X178776333Y-82462761D01*
X178823952Y-82367523D01*
X178871571Y-82319904D01*
X178966809Y-82272285D01*
X179204904Y-82272285D01*
X179300142Y-82319904D01*
X179347761Y-82367523D01*
X179395380Y-82462761D01*
X179395380Y-82748476D01*
X179347761Y-82843714D01*
X179300142Y-82891333D01*
X157075142Y-83224666D02*
X157122761Y-83272285D01*
X157170380Y-83415142D01*
X157170380Y-83510380D01*
X157122761Y-83653238D01*
X157027523Y-83748476D01*
X156932285Y-83796095D01*
X156741809Y-83843714D01*
X156598952Y-83843714D01*
X156408476Y-83796095D01*
X156313238Y-83748476D01*
X156218000Y-83653238D01*
X156170380Y-83510380D01*
X156170380Y-83415142D01*
X156218000Y-83272285D01*
X156265619Y-83224666D01*
X156503714Y-82367523D02*
X157170380Y-82367523D01*
X156122761Y-82605619D02*
X156837047Y-82843714D01*
X156837047Y-82224666D01*
X129770142Y-95162666D02*
X129817761Y-95210285D01*
X129865380Y-95353142D01*
X129865380Y-95448380D01*
X129817761Y-95591238D01*
X129722523Y-95686476D01*
X129627285Y-95734095D01*
X129436809Y-95781714D01*
X129293952Y-95781714D01*
X129103476Y-95734095D01*
X129008238Y-95686476D01*
X128913000Y-95591238D01*
X128865380Y-95448380D01*
X128865380Y-95353142D01*
X128913000Y-95210285D01*
X128960619Y-95162666D01*
X128865380Y-94257904D02*
X128865380Y-94734095D01*
X129341571Y-94781714D01*
X129293952Y-94734095D01*
X129246333Y-94638857D01*
X129246333Y-94400761D01*
X129293952Y-94305523D01*
X129341571Y-94257904D01*
X129436809Y-94210285D01*
X129674904Y-94210285D01*
X129770142Y-94257904D01*
X129817761Y-94305523D01*
X129865380Y-94400761D01*
X129865380Y-94638857D01*
X129817761Y-94734095D01*
X129770142Y-94781714D01*
X123823333Y-92051142D02*
X123775714Y-92098761D01*
X123632857Y-92146380D01*
X123537619Y-92146380D01*
X123394761Y-92098761D01*
X123299523Y-92003523D01*
X123251904Y-91908285D01*
X123204285Y-91717809D01*
X123204285Y-91574952D01*
X123251904Y-91384476D01*
X123299523Y-91289238D01*
X123394761Y-91194000D01*
X123537619Y-91146380D01*
X123632857Y-91146380D01*
X123775714Y-91194000D01*
X123823333Y-91241619D01*
X124680476Y-91146380D02*
X124490000Y-91146380D01*
X124394761Y-91194000D01*
X124347142Y-91241619D01*
X124251904Y-91384476D01*
X124204285Y-91574952D01*
X124204285Y-91955904D01*
X124251904Y-92051142D01*
X124299523Y-92098761D01*
X124394761Y-92146380D01*
X124585238Y-92146380D01*
X124680476Y-92098761D01*
X124728095Y-92051142D01*
X124775714Y-91955904D01*
X124775714Y-91717809D01*
X124728095Y-91622571D01*
X124680476Y-91574952D01*
X124585238Y-91527333D01*
X124394761Y-91527333D01*
X124299523Y-91574952D01*
X124251904Y-91622571D01*
X124204285Y-91717809D01*
X123823333Y-93702142D02*
X123775714Y-93749761D01*
X123632857Y-93797380D01*
X123537619Y-93797380D01*
X123394761Y-93749761D01*
X123299523Y-93654523D01*
X123251904Y-93559285D01*
X123204285Y-93368809D01*
X123204285Y-93225952D01*
X123251904Y-93035476D01*
X123299523Y-92940238D01*
X123394761Y-92845000D01*
X123537619Y-92797380D01*
X123632857Y-92797380D01*
X123775714Y-92845000D01*
X123823333Y-92892619D01*
X124156666Y-92797380D02*
X124823333Y-92797380D01*
X124394761Y-93797380D01*
X134326333Y-89130142D02*
X134278714Y-89177761D01*
X134135857Y-89225380D01*
X134040619Y-89225380D01*
X133897761Y-89177761D01*
X133802523Y-89082523D01*
X133754904Y-88987285D01*
X133707285Y-88796809D01*
X133707285Y-88653952D01*
X133754904Y-88463476D01*
X133802523Y-88368238D01*
X133897761Y-88273000D01*
X134040619Y-88225380D01*
X134135857Y-88225380D01*
X134278714Y-88273000D01*
X134326333Y-88320619D01*
X134897761Y-88653952D02*
X134802523Y-88606333D01*
X134754904Y-88558714D01*
X134707285Y-88463476D01*
X134707285Y-88415857D01*
X134754904Y-88320619D01*
X134802523Y-88273000D01*
X134897761Y-88225380D01*
X135088238Y-88225380D01*
X135183476Y-88273000D01*
X135231095Y-88320619D01*
X135278714Y-88415857D01*
X135278714Y-88463476D01*
X135231095Y-88558714D01*
X135183476Y-88606333D01*
X135088238Y-88653952D01*
X134897761Y-88653952D01*
X134802523Y-88701571D01*
X134754904Y-88749190D01*
X134707285Y-88844428D01*
X134707285Y-89034904D01*
X134754904Y-89130142D01*
X134802523Y-89177761D01*
X134897761Y-89225380D01*
X135088238Y-89225380D01*
X135183476Y-89177761D01*
X135231095Y-89130142D01*
X135278714Y-89034904D01*
X135278714Y-88844428D01*
X135231095Y-88749190D01*
X135183476Y-88701571D01*
X135088238Y-88653952D01*
X184642571Y-66365333D02*
X184642571Y-66698666D01*
X185166380Y-66698666D02*
X184166380Y-66698666D01*
X184166380Y-66222476D01*
X184642571Y-65508190D02*
X184690190Y-65365333D01*
X184737809Y-65317714D01*
X184833047Y-65270095D01*
X184975904Y-65270095D01*
X185071142Y-65317714D01*
X185118761Y-65365333D01*
X185166380Y-65460571D01*
X185166380Y-65841523D01*
X184166380Y-65841523D01*
X184166380Y-65508190D01*
X184214000Y-65412952D01*
X184261619Y-65365333D01*
X184356857Y-65317714D01*
X184452095Y-65317714D01*
X184547333Y-65365333D01*
X184594952Y-65412952D01*
X184642571Y-65508190D01*
X184642571Y-65841523D01*
X185166380Y-64317714D02*
X185166380Y-64889142D01*
X185166380Y-64603428D02*
X184166380Y-64603428D01*
X184309238Y-64698666D01*
X184404476Y-64793904D01*
X184452095Y-64889142D01*
X117645380Y-78938333D02*
X118359666Y-78938333D01*
X118502523Y-78985952D01*
X118597761Y-79081190D01*
X118645380Y-79224047D01*
X118645380Y-79319285D01*
X118645380Y-78462142D02*
X117645380Y-78462142D01*
X117645380Y-78081190D01*
X117693000Y-77985952D01*
X117740619Y-77938333D01*
X117835857Y-77890714D01*
X117978714Y-77890714D01*
X118073952Y-77938333D01*
X118121571Y-77985952D01*
X118169190Y-78081190D01*
X118169190Y-78462142D01*
X118645380Y-76938333D02*
X118645380Y-77509761D01*
X118645380Y-77224047D02*
X117645380Y-77224047D01*
X117788238Y-77319285D01*
X117883476Y-77414523D01*
X117931095Y-77509761D01*
X170648380Y-80843333D02*
X171362666Y-80843333D01*
X171505523Y-80890952D01*
X171600761Y-80986190D01*
X171648380Y-81129047D01*
X171648380Y-81224285D01*
X171648380Y-80367142D02*
X170648380Y-80367142D01*
X170648380Y-79986190D01*
X170696000Y-79890952D01*
X170743619Y-79843333D01*
X170838857Y-79795714D01*
X170981714Y-79795714D01*
X171076952Y-79843333D01*
X171124571Y-79890952D01*
X171172190Y-79986190D01*
X171172190Y-80367142D01*
X170743619Y-79414761D02*
X170696000Y-79367142D01*
X170648380Y-79271904D01*
X170648380Y-79033809D01*
X170696000Y-78938571D01*
X170743619Y-78890952D01*
X170838857Y-78843333D01*
X170934095Y-78843333D01*
X171076952Y-78890952D01*
X171648380Y-79462380D01*
X171648380Y-78843333D01*
X181570380Y-80843333D02*
X182284666Y-80843333D01*
X182427523Y-80890952D01*
X182522761Y-80986190D01*
X182570380Y-81129047D01*
X182570380Y-81224285D01*
X182570380Y-80367142D02*
X181570380Y-80367142D01*
X181570380Y-79986190D01*
X181618000Y-79890952D01*
X181665619Y-79843333D01*
X181760857Y-79795714D01*
X181903714Y-79795714D01*
X181998952Y-79843333D01*
X182046571Y-79890952D01*
X182094190Y-79986190D01*
X182094190Y-80367142D01*
X181570380Y-79462380D02*
X181570380Y-78843333D01*
X181951333Y-79176666D01*
X181951333Y-79033809D01*
X181998952Y-78938571D01*
X182046571Y-78890952D01*
X182141809Y-78843333D01*
X182379904Y-78843333D01*
X182475142Y-78890952D01*
X182522761Y-78938571D01*
X182570380Y-79033809D01*
X182570380Y-79319523D01*
X182522761Y-79414761D01*
X182475142Y-79462380D01*
X159472380Y-80970333D02*
X160186666Y-80970333D01*
X160329523Y-81017952D01*
X160424761Y-81113190D01*
X160472380Y-81256047D01*
X160472380Y-81351285D01*
X160472380Y-80494142D02*
X159472380Y-80494142D01*
X159472380Y-80113190D01*
X159520000Y-80017952D01*
X159567619Y-79970333D01*
X159662857Y-79922714D01*
X159805714Y-79922714D01*
X159900952Y-79970333D01*
X159948571Y-80017952D01*
X159996190Y-80113190D01*
X159996190Y-80494142D01*
X159805714Y-79065571D02*
X160472380Y-79065571D01*
X159424761Y-79303666D02*
X160139047Y-79541761D01*
X160139047Y-78922714D01*
X124420333Y-85067380D02*
X124087000Y-84591190D01*
X123848904Y-85067380D02*
X123848904Y-84067380D01*
X124229857Y-84067380D01*
X124325095Y-84115000D01*
X124372714Y-84162619D01*
X124420333Y-84257857D01*
X124420333Y-84400714D01*
X124372714Y-84495952D01*
X124325095Y-84543571D01*
X124229857Y-84591190D01*
X123848904Y-84591190D01*
X125372714Y-85067380D02*
X124801285Y-85067380D01*
X125087000Y-85067380D02*
X125087000Y-84067380D01*
X124991761Y-84210238D01*
X124896523Y-84305476D01*
X124801285Y-84353095D01*
X134580333Y-84526380D02*
X134247000Y-84050190D01*
X134008904Y-84526380D02*
X134008904Y-83526380D01*
X134389857Y-83526380D01*
X134485095Y-83574000D01*
X134532714Y-83621619D01*
X134580333Y-83716857D01*
X134580333Y-83859714D01*
X134532714Y-83954952D01*
X134485095Y-84002571D01*
X134389857Y-84050190D01*
X134008904Y-84050190D01*
X134961285Y-83621619D02*
X135008904Y-83574000D01*
X135104142Y-83526380D01*
X135342238Y-83526380D01*
X135437476Y-83574000D01*
X135485095Y-83621619D01*
X135532714Y-83716857D01*
X135532714Y-83812095D01*
X135485095Y-83954952D01*
X134913666Y-84526380D01*
X135532714Y-84526380D01*
X91082761Y-83121333D02*
X91130380Y-82978476D01*
X91130380Y-82740380D01*
X91082761Y-82645142D01*
X91035142Y-82597523D01*
X90939904Y-82549904D01*
X90844666Y-82549904D01*
X90749428Y-82597523D01*
X90701809Y-82645142D01*
X90654190Y-82740380D01*
X90606571Y-82930857D01*
X90558952Y-83026095D01*
X90511333Y-83073714D01*
X90416095Y-83121333D01*
X90320857Y-83121333D01*
X90225619Y-83073714D01*
X90178000Y-83026095D01*
X90130380Y-82930857D01*
X90130380Y-82692761D01*
X90178000Y-82549904D01*
X90130380Y-82216571D02*
X91130380Y-81978476D01*
X90416095Y-81788000D01*
X91130380Y-81597523D01*
X90130380Y-81359428D01*
X91130380Y-80454666D02*
X91130380Y-81026095D01*
X91130380Y-80740380D02*
X90130380Y-80740380D01*
X90273238Y-80835619D01*
X90368476Y-80930857D01*
X90416095Y-81026095D01*
X120396095Y-84090380D02*
X120396095Y-84899904D01*
X120443714Y-84995142D01*
X120491333Y-85042761D01*
X120586571Y-85090380D01*
X120777047Y-85090380D01*
X120872285Y-85042761D01*
X120919904Y-84995142D01*
X120967523Y-84899904D01*
X120967523Y-84090380D01*
X121967523Y-85090380D02*
X121396095Y-85090380D01*
X121681809Y-85090380D02*
X121681809Y-84090380D01*
X121586571Y-84233238D01*
X121491333Y-84328476D01*
X121396095Y-84376095D01*
M02*
