M48
; DRILL file {KiCad (5.1.0)-1} date 8/2/2019 10:45:11 AM
; FORMAT={-:-/ absolute / inch / decimal}
; #@! TF.CreationDate,2019-08-02T10:45:11-04:00
; #@! TF.GenerationSoftware,Kicad,Pcbnew,(5.1.0)-1
FMAT,2
INCH
T1C0.0157
T2C0.0276
T3C0.0315
T4C0.0335
T5C0.0354
T6C0.0394
T7C0.0512
T8C0.0591
T9C0.1260
T10C0.0669
T11C0.1260
T12C0.2165
%
G90
G05
T1
X3.7835Y-3.4291
X4.1417Y-3.4567
X4.2283Y-3.4606
X4.2717Y-3.1535
X4.311Y-3.3937
X4.5315Y-3.3307
X4.7244Y-3.2441
X5.126Y-3.185
X5.3189Y-3.189
X5.4331Y-3.9055
X5.5157Y-3.1811
X5.9409Y-3.5276
X6.1535Y-3.5709
X6.1693Y-3.2402
X6.2008Y-3.3071
X6.4724Y-3.5354
X6.6024Y-3.2402
X6.6378Y-3.315
X6.7244Y-3.6142
X6.7677Y-3.4882
X6.9055Y-3.3386
X6.9843Y-3.5433
X6.9872Y-2.8346
X7.0472Y-2.811
X7.0827Y-3.311
X7.126Y-2.8346
X7.1339Y-2.622
X7.2087Y-2.7992
X7.252Y-2.5394
X7.252Y-2.8425
X7.2677Y-3.5748
X7.3346Y-2.5906
X7.374Y-3.0984
T3
X3.6299Y-3.1693
X3.6299Y-3.248
X3.6299Y-3.3268
T5
X5.4331Y-3.6969
X5.4331Y-3.7953
X5.7008Y-3.6969
X5.7008Y-3.7953
T6
X3.9583Y-3.5787
X3.9583Y-3.7787
X4.0033Y-3.6787
X4.0484Y-3.5787
X4.0484Y-3.7787
X4.0935Y-3.6787
X4.1386Y-3.5787
X4.1386Y-3.7787
X4.1837Y-3.6787
X4.2287Y-3.5787
X4.2287Y-3.7787
X4.2738Y-3.6787
X4.3189Y-3.5787
X4.3189Y-3.7787
X4.364Y-3.6787
T7
X6.0201Y-3.6339
X6.3154Y-3.6339
X6.5713Y-3.6339
X6.8665Y-3.6339
X7.1224Y-3.6339
X7.4177Y-3.6339
T8
X3.6299Y-3.0866
X3.6299Y-3.4094
X6.3154Y-3.9193
X6.8665Y-3.9193
X7.4177Y-3.9193
T9
X3.6569Y-3.6787
X4.6411Y-3.6787
T11
X5.7559Y-3.1969
X4.0787Y-3.1969
T12
X4.9173Y-3.1969
T2
G00X5.5374Y-3.9488
M15
G01X5.5965Y-3.9488
M16
G05
T4
G00X5.311Y-3.94
M15
G01X5.311Y-3.8868
M16
G05
G00X5.8228Y-3.8868
M15
G01X5.8228Y-3.94
M16
G05
T6
G00X4.9075Y-3.6732
M15
G01X4.9075Y-3.7126
M16
G05
G00X5.0236Y-3.7677
M15
G01X4.9843Y-3.7677
M16
G05
G00X5.0236Y-3.9843
M15
G01X4.9843Y-3.9843
M16
G05
G00X5.1024Y-3.626
M15
G01X5.063Y-3.626
M16
G05
G00X5.1024Y-3.8425
M15
G01X5.063Y-3.8425
M16
G05
G00X5.1024Y-4.0827
M15
G01X5.063Y-4.0827
M16
G05
G00X5.2461Y-3.6732
M15
G01X5.2461Y-3.7126
M16
G05
G00X5.2461Y-4.0236
M15
G01X5.2461Y-4.063
M16
G05
T10
G00X5.9256Y-3.7224
M15
G01X5.9256Y-3.8406
M16
G05
T0
M30
