M48
; DRILL file {KiCad (5.1.0)-1} date 6/16/2019 6:36:59 PM
; FORMAT={-:-/ absolute / inch / decimal}
; #@! TF.CreationDate,2019-06-16T18:36:59-04:00
; #@! TF.GenerationSoftware,Kicad,Pcbnew,(5.1.0)-1
FMAT,2
INCH
T1C0.0157
T2C0.0276
T3C0.0315
T4C0.0354
T5C0.0394
T6C0.0512
T7C0.0591
T8C0.1260
T9C0.0669
T10C0.1260
%
G90
G05
T1
X3.83Y-3.515
X4.45Y-3.07
X4.4681Y-3.2273
X4.495Y-3.795
X4.615Y-3.145
X4.7Y-3.29
X4.745Y-4.165
X4.965Y-3.45
X5.14Y-3.29
X5.185Y-3.415
X5.295Y-3.065
X5.295Y-3.2035
X5.31Y-3.51
X5.45Y-3.31
X5.495Y-3.125
X6.015Y-3.335
X6.085Y-4.175
X6.11Y-3.665
X6.35Y-3.185
X6.355Y-3.935
X6.545Y-3.23
X6.615Y-3.65
X6.625Y-3.26
X6.645Y-3.73
X6.705Y-3.51
X6.76Y-3.1185
X6.825Y-3.7235
X6.83Y-3.66
X6.875Y-3.765
X6.88Y-3.66
X6.91Y-3.925
X6.94Y-3.38
X6.945Y-2.82
X6.955Y-4.065
X6.99Y-4.215
X7.035Y-2.82
X7.04Y-3.56
X7.075Y-2.99
X7.09Y-3.725
X7.16Y-2.575
X7.16Y-3.54
X7.17Y-2.785
X7.185Y-2.935
X7.185Y-3.005
X7.19Y-2.86
X7.195Y-3.99
X7.26Y-4.05
X7.3Y-3.695
X7.386Y-2.565
X7.43Y-3.8
T2
X5.2241Y-4.1733
X5.48Y-4.2087
X5.7359Y-4.1733
T3
X7.3935Y-3.3225
X7.3935Y-3.4013
X7.3935Y-3.48
X7.3935Y-3.6375
X3.625Y-3.3225
X3.625Y-3.48
X3.625Y-3.5587
X3.625Y-3.6375
X7.3935Y-2.9013
X7.3935Y-2.98
X7.3935Y-3.0587
T4
X5.3461Y-3.9568
X5.3461Y-4.0552
X5.6139Y-3.9568
X5.6139Y-4.0552
T5
X4.8298Y-3.9502
X4.9263Y-4.025
X4.9263Y-4.2416
X5.005Y-3.8833
X5.005Y-4.0998
X5.005Y-4.34
X5.1684Y-3.9502
X5.1684Y-4.3006
X4.745Y-3.075
X4.845Y-3.075
X4.945Y-3.075
X3.9644Y-3.855
X3.9644Y-4.055
X4.0094Y-3.955
X4.0545Y-3.855
X4.0545Y-4.055
X4.0996Y-3.955
X4.1447Y-3.855
X4.1447Y-4.055
X4.1898Y-3.955
X4.2348Y-3.855
X4.2348Y-4.055
X4.2799Y-3.955
X4.325Y-3.855
X4.325Y-4.055
X4.3701Y-3.955
T6
X5.934Y-3.9079
X6.2293Y-3.9079
X6.4852Y-3.9079
X6.7805Y-3.9079
X7.0364Y-3.9079
X7.3316Y-3.9079
T7
X3.625Y-3.2398
X3.625Y-3.7202
X6.2293Y-4.1933
X6.7805Y-4.1933
X7.3316Y-4.1933
X7.3935Y-2.8186
X7.3935Y-3.1414
X7.3935Y-3.2398
X7.3935Y-3.7202
T8
X3.663Y-3.955
X4.6472Y-3.955
T10
X3.835Y-3.15
X5.76Y-3.195
X6.385Y-3.635
X4.34Y-3.58
T9
G00X5.8395Y-3.9965
M15
G01X5.8395Y-4.1146
M16
G05
G00X7.4261Y-3.9965
M15
G01X7.4261Y-4.1146
M16
G05
T0
M30
