G04 #@! TF.GenerationSoftware,KiCad,Pcbnew,(5.1.0)-1*
G04 #@! TF.CreationDate,2019-07-05T20:53:17-04:00*
G04 #@! TF.ProjectId,PSX Breakout,50535820-4272-4656-916b-6f75742e6b69,rev?*
G04 #@! TF.SameCoordinates,Original*
G04 #@! TF.FileFunction,Legend,Top*
G04 #@! TF.FilePolarity,Positive*
%FSLAX46Y46*%
G04 Gerber Fmt 4.6, Leading zero omitted, Abs format (unit mm)*
G04 Created by KiCad (PCBNEW (5.1.0)-1) date 2019-07-05 20:53:17*
%MOMM*%
%LPD*%
G04 APERTURE LIST*
%ADD10C,0.300000*%
%ADD11C,0.150000*%
%ADD12C,0.127000*%
%ADD13C,0.400000*%
%ADD14C,0.120000*%
%ADD15C,0.340000*%
G04 APERTURE END LIST*
D10*
X95478571Y-85678571D02*
X94764285Y-85678571D01*
X94764285Y-84178571D01*
X95978571Y-84178571D02*
X95978571Y-85392857D01*
X96050000Y-85535714D01*
X96121428Y-85607142D01*
X96264285Y-85678571D01*
X96550000Y-85678571D01*
X96692857Y-85607142D01*
X96764285Y-85535714D01*
X96835714Y-85392857D01*
X96835714Y-84178571D01*
X97550000Y-85678571D02*
X97550000Y-84178571D01*
X98050000Y-85250000D01*
X98550000Y-84178571D01*
X98550000Y-85678571D01*
X99192857Y-85250000D02*
X99907142Y-85250000D01*
X99050000Y-85678571D02*
X99550000Y-84178571D01*
X100050000Y-85678571D01*
X95657142Y-80335714D02*
X95585714Y-80407142D01*
X95371428Y-80478571D01*
X95228571Y-80478571D01*
X95014285Y-80407142D01*
X94871428Y-80264285D01*
X94800000Y-80121428D01*
X94728571Y-79835714D01*
X94728571Y-79621428D01*
X94800000Y-79335714D01*
X94871428Y-79192857D01*
X95014285Y-79050000D01*
X95228571Y-78978571D01*
X95371428Y-78978571D01*
X95585714Y-79050000D01*
X95657142Y-79121428D01*
X96085714Y-78978571D02*
X96585714Y-80478571D01*
X97085714Y-78978571D01*
X98085714Y-79692857D02*
X98300000Y-79764285D01*
X98371428Y-79835714D01*
X98442857Y-79978571D01*
X98442857Y-80192857D01*
X98371428Y-80335714D01*
X98300000Y-80407142D01*
X98157142Y-80478571D01*
X97585714Y-80478571D01*
X97585714Y-78978571D01*
X98085714Y-78978571D01*
X98228571Y-79050000D01*
X98300000Y-79121428D01*
X98371428Y-79264285D01*
X98371428Y-79407142D01*
X98300000Y-79550000D01*
X98228571Y-79621428D01*
X98085714Y-79692857D01*
X97585714Y-79692857D01*
X99014285Y-80407142D02*
X99228571Y-80478571D01*
X99585714Y-80478571D01*
X99728571Y-80407142D01*
X99800000Y-80335714D01*
X99871428Y-80192857D01*
X99871428Y-80050000D01*
X99800000Y-79907142D01*
X99728571Y-79835714D01*
X99585714Y-79764285D01*
X99300000Y-79692857D01*
X99157142Y-79621428D01*
X99085714Y-79550000D01*
X99014285Y-79407142D01*
X99014285Y-79264285D01*
X99085714Y-79121428D01*
X99157142Y-79050000D01*
X99300000Y-78978571D01*
X99657142Y-78978571D01*
X99871428Y-79050000D01*
D11*
X175919619Y-68334380D02*
X175919619Y-67334380D01*
X176300571Y-67334380D01*
X176395809Y-67382000D01*
X176443428Y-67429619D01*
X176491047Y-67524857D01*
X176491047Y-67667714D01*
X176443428Y-67762952D01*
X176395809Y-67810571D01*
X176300571Y-67858190D01*
X175919619Y-67858190D01*
X176872000Y-68286761D02*
X177014857Y-68334380D01*
X177252952Y-68334380D01*
X177348190Y-68286761D01*
X177395809Y-68239142D01*
X177443428Y-68143904D01*
X177443428Y-68048666D01*
X177395809Y-67953428D01*
X177348190Y-67905809D01*
X177252952Y-67858190D01*
X177062476Y-67810571D01*
X176967238Y-67762952D01*
X176919619Y-67715333D01*
X176872000Y-67620095D01*
X176872000Y-67524857D01*
X176919619Y-67429619D01*
X176967238Y-67382000D01*
X177062476Y-67334380D01*
X177300571Y-67334380D01*
X177443428Y-67382000D01*
X177776761Y-67334380D02*
X178443428Y-68334380D01*
X178443428Y-67334380D02*
X177776761Y-68334380D01*
X179919619Y-67810571D02*
X180062476Y-67858190D01*
X180110095Y-67905809D01*
X180157714Y-68001047D01*
X180157714Y-68143904D01*
X180110095Y-68239142D01*
X180062476Y-68286761D01*
X179967238Y-68334380D01*
X179586285Y-68334380D01*
X179586285Y-67334380D01*
X179919619Y-67334380D01*
X180014857Y-67382000D01*
X180062476Y-67429619D01*
X180110095Y-67524857D01*
X180110095Y-67620095D01*
X180062476Y-67715333D01*
X180014857Y-67762952D01*
X179919619Y-67810571D01*
X179586285Y-67810571D01*
X180586285Y-68334380D02*
X180586285Y-67667714D01*
X180586285Y-67858190D02*
X180633904Y-67762952D01*
X180681523Y-67715333D01*
X180776761Y-67667714D01*
X180872000Y-67667714D01*
X181586285Y-68286761D02*
X181491047Y-68334380D01*
X181300571Y-68334380D01*
X181205333Y-68286761D01*
X181157714Y-68191523D01*
X181157714Y-67810571D01*
X181205333Y-67715333D01*
X181300571Y-67667714D01*
X181491047Y-67667714D01*
X181586285Y-67715333D01*
X181633904Y-67810571D01*
X181633904Y-67905809D01*
X181157714Y-68001047D01*
X182491047Y-68334380D02*
X182491047Y-67810571D01*
X182443428Y-67715333D01*
X182348190Y-67667714D01*
X182157714Y-67667714D01*
X182062476Y-67715333D01*
X182491047Y-68286761D02*
X182395809Y-68334380D01*
X182157714Y-68334380D01*
X182062476Y-68286761D01*
X182014857Y-68191523D01*
X182014857Y-68096285D01*
X182062476Y-68001047D01*
X182157714Y-67953428D01*
X182395809Y-67953428D01*
X182491047Y-67905809D01*
X182967238Y-68334380D02*
X182967238Y-67334380D01*
X183062476Y-67953428D02*
X183348190Y-68334380D01*
X183348190Y-67667714D02*
X182967238Y-68048666D01*
X183919619Y-68334380D02*
X183824380Y-68286761D01*
X183776761Y-68239142D01*
X183729142Y-68143904D01*
X183729142Y-67858190D01*
X183776761Y-67762952D01*
X183824380Y-67715333D01*
X183919619Y-67667714D01*
X184062476Y-67667714D01*
X184157714Y-67715333D01*
X184205333Y-67762952D01*
X184252952Y-67858190D01*
X184252952Y-68143904D01*
X184205333Y-68239142D01*
X184157714Y-68286761D01*
X184062476Y-68334380D01*
X183919619Y-68334380D01*
X185110095Y-67667714D02*
X185110095Y-68334380D01*
X184681523Y-67667714D02*
X184681523Y-68191523D01*
X184729142Y-68286761D01*
X184824380Y-68334380D01*
X184967238Y-68334380D01*
X185062476Y-68286761D01*
X185110095Y-68239142D01*
X185443428Y-67667714D02*
X185824380Y-67667714D01*
X185586285Y-67334380D02*
X185586285Y-68191523D01*
X185633904Y-68286761D01*
X185729142Y-68334380D01*
X185824380Y-68334380D01*
X187443428Y-68334380D02*
X186872000Y-68334380D01*
X187157714Y-68334380D02*
X187157714Y-67334380D01*
X187062476Y-67477238D01*
X186967238Y-67572476D01*
X186872000Y-67620095D01*
X187872000Y-68239142D02*
X187919619Y-68286761D01*
X187872000Y-68334380D01*
X187824380Y-68286761D01*
X187872000Y-68239142D01*
X187872000Y-68334380D01*
X188300571Y-67429619D02*
X188348190Y-67382000D01*
X188443428Y-67334380D01*
X188681523Y-67334380D01*
X188776761Y-67382000D01*
X188824380Y-67429619D01*
X188872000Y-67524857D01*
X188872000Y-67620095D01*
X188824380Y-67762952D01*
X188252952Y-68334380D01*
X188872000Y-68334380D01*
X176443428Y-68984380D02*
X177014857Y-68984380D01*
X176729142Y-69984380D02*
X176729142Y-68984380D01*
X177348190Y-69984380D02*
X177348190Y-69317714D01*
X177348190Y-68984380D02*
X177300571Y-69032000D01*
X177348190Y-69079619D01*
X177395809Y-69032000D01*
X177348190Y-68984380D01*
X177348190Y-69079619D01*
X177824380Y-69317714D02*
X177824380Y-69984380D01*
X177824380Y-69412952D02*
X177872000Y-69365333D01*
X177967238Y-69317714D01*
X178110095Y-69317714D01*
X178205333Y-69365333D01*
X178252952Y-69460571D01*
X178252952Y-69984380D01*
X178729142Y-69984380D02*
X178729142Y-68984380D01*
X178824380Y-69603428D02*
X179110095Y-69984380D01*
X179110095Y-69317714D02*
X178729142Y-69698666D01*
X179919619Y-69936761D02*
X179824380Y-69984380D01*
X179633904Y-69984380D01*
X179538666Y-69936761D01*
X179491047Y-69841523D01*
X179491047Y-69460571D01*
X179538666Y-69365333D01*
X179633904Y-69317714D01*
X179824380Y-69317714D01*
X179919619Y-69365333D01*
X179967238Y-69460571D01*
X179967238Y-69555809D01*
X179491047Y-69651047D01*
X180395809Y-69984380D02*
X180395809Y-69317714D01*
X180395809Y-69508190D02*
X180443428Y-69412952D01*
X180491047Y-69365333D01*
X180586285Y-69317714D01*
X180681523Y-69317714D01*
X181014857Y-69317714D02*
X181014857Y-70317714D01*
X181014857Y-69365333D02*
X181110095Y-69317714D01*
X181300571Y-69317714D01*
X181395809Y-69365333D01*
X181443428Y-69412952D01*
X181491047Y-69508190D01*
X181491047Y-69793904D01*
X181443428Y-69889142D01*
X181395809Y-69936761D01*
X181300571Y-69984380D01*
X181110095Y-69984380D01*
X181014857Y-69936761D01*
X182062476Y-69984380D02*
X181967238Y-69936761D01*
X181919619Y-69841523D01*
X181919619Y-68984380D01*
X182872000Y-69317714D02*
X182872000Y-69984380D01*
X182443428Y-69317714D02*
X182443428Y-69841523D01*
X182491047Y-69936761D01*
X182586285Y-69984380D01*
X182729142Y-69984380D01*
X182824380Y-69936761D01*
X182872000Y-69889142D01*
X183348190Y-69317714D02*
X183348190Y-69984380D01*
X183348190Y-69412952D02*
X183395809Y-69365333D01*
X183491047Y-69317714D01*
X183633904Y-69317714D01*
X183729142Y-69365333D01*
X183776761Y-69460571D01*
X183776761Y-69984380D01*
X184252952Y-69984380D02*
X184252952Y-68984380D01*
X184348190Y-69603428D02*
X184633904Y-69984380D01*
X184633904Y-69317714D02*
X184252952Y-69698666D01*
X185062476Y-69889142D02*
X185110095Y-69936761D01*
X185062476Y-69984380D01*
X185014857Y-69936761D01*
X185062476Y-69889142D01*
X185062476Y-69984380D01*
X185967238Y-69936761D02*
X185872000Y-69984380D01*
X185681523Y-69984380D01*
X185586285Y-69936761D01*
X185538666Y-69889142D01*
X185491047Y-69793904D01*
X185491047Y-69508190D01*
X185538666Y-69412952D01*
X185586285Y-69365333D01*
X185681523Y-69317714D01*
X185872000Y-69317714D01*
X185967238Y-69365333D01*
X186538666Y-69984380D02*
X186443428Y-69936761D01*
X186395809Y-69889142D01*
X186348190Y-69793904D01*
X186348190Y-69508190D01*
X186395809Y-69412952D01*
X186443428Y-69365333D01*
X186538666Y-69317714D01*
X186681523Y-69317714D01*
X186776761Y-69365333D01*
X186824380Y-69412952D01*
X186872000Y-69508190D01*
X186872000Y-69793904D01*
X186824380Y-69889142D01*
X186776761Y-69936761D01*
X186681523Y-69984380D01*
X186538666Y-69984380D01*
X187300571Y-69984380D02*
X187300571Y-69317714D01*
X187300571Y-69412952D02*
X187348190Y-69365333D01*
X187443428Y-69317714D01*
X187586285Y-69317714D01*
X187681523Y-69365333D01*
X187729142Y-69460571D01*
X187729142Y-69984380D01*
X187729142Y-69460571D02*
X187776761Y-69365333D01*
X187872000Y-69317714D01*
X188014857Y-69317714D01*
X188110095Y-69365333D01*
X188157714Y-69460571D01*
X188157714Y-69984380D01*
X108797500Y-81546428D02*
X108035595Y-81546428D01*
X108226071Y-81736904D02*
X108035595Y-81546428D01*
X108226071Y-81355952D01*
X109273690Y-81927380D02*
X109273690Y-80927380D01*
X109273690Y-81403571D02*
X109845119Y-81403571D01*
X109845119Y-81927380D02*
X109845119Y-80927380D01*
X110321309Y-81927380D02*
X110321309Y-80927380D01*
X110559404Y-80927380D01*
X110702261Y-80975000D01*
X110797500Y-81070238D01*
X110845119Y-81165476D01*
X110892738Y-81355952D01*
X110892738Y-81498809D01*
X110845119Y-81689285D01*
X110797500Y-81784523D01*
X110702261Y-81879761D01*
X110559404Y-81927380D01*
X110321309Y-81927380D01*
X111845119Y-81927380D02*
X111273690Y-81927380D01*
X111559404Y-81927380D02*
X111559404Y-80927380D01*
X111464166Y-81070238D01*
X111368928Y-81165476D01*
X111273690Y-81213095D01*
X112749880Y-80927380D02*
X112273690Y-80927380D01*
X112226071Y-81403571D01*
X112273690Y-81355952D01*
X112368928Y-81308333D01*
X112607023Y-81308333D01*
X112702261Y-81355952D01*
X112749880Y-81403571D01*
X112797500Y-81498809D01*
X112797500Y-81736904D01*
X112749880Y-81832142D01*
X112702261Y-81879761D01*
X112607023Y-81927380D01*
X112368928Y-81927380D01*
X112273690Y-81879761D01*
X112226071Y-81832142D01*
X107987976Y-83529761D02*
X108130833Y-83577380D01*
X108368928Y-83577380D01*
X108464166Y-83529761D01*
X108511785Y-83482142D01*
X108559404Y-83386904D01*
X108559404Y-83291666D01*
X108511785Y-83196428D01*
X108464166Y-83148809D01*
X108368928Y-83101190D01*
X108178452Y-83053571D01*
X108083214Y-83005952D01*
X108035595Y-82958333D01*
X107987976Y-82863095D01*
X107987976Y-82767857D01*
X108035595Y-82672619D01*
X108083214Y-82625000D01*
X108178452Y-82577380D01*
X108416547Y-82577380D01*
X108559404Y-82625000D01*
X109178452Y-83101190D02*
X109178452Y-83577380D01*
X108845119Y-82577380D02*
X109178452Y-83101190D01*
X109511785Y-82577380D01*
X109845119Y-83577380D02*
X109845119Y-82577380D01*
X110416547Y-83577380D01*
X110416547Y-82577380D01*
X111464166Y-83482142D02*
X111416547Y-83529761D01*
X111273690Y-83577380D01*
X111178452Y-83577380D01*
X111035595Y-83529761D01*
X110940357Y-83434523D01*
X110892738Y-83339285D01*
X110845119Y-83148809D01*
X110845119Y-83005952D01*
X110892738Y-82815476D01*
X110940357Y-82720238D01*
X111035595Y-82625000D01*
X111178452Y-82577380D01*
X111273690Y-82577380D01*
X111416547Y-82625000D01*
X111464166Y-82672619D01*
X112607023Y-83529761D02*
X112749880Y-83577380D01*
X112987976Y-83577380D01*
X113083214Y-83529761D01*
X113130833Y-83482142D01*
X113178452Y-83386904D01*
X113178452Y-83291666D01*
X113130833Y-83196428D01*
X113083214Y-83148809D01*
X112987976Y-83101190D01*
X112797500Y-83053571D01*
X112702261Y-83005952D01*
X112654642Y-82958333D01*
X112607023Y-82863095D01*
X112607023Y-82767857D01*
X112654642Y-82672619D01*
X112702261Y-82625000D01*
X112797500Y-82577380D01*
X113035595Y-82577380D01*
X113178452Y-82625000D01*
X113607023Y-83053571D02*
X113940357Y-83053571D01*
X114083214Y-83577380D02*
X113607023Y-83577380D01*
X113607023Y-82577380D01*
X114083214Y-82577380D01*
X114987976Y-83577380D02*
X114511785Y-83577380D01*
X114511785Y-82577380D01*
X115321309Y-83053571D02*
X115654642Y-83053571D01*
X115797500Y-83577380D02*
X115321309Y-83577380D01*
X115321309Y-82577380D01*
X115797500Y-82577380D01*
X116797500Y-83482142D02*
X116749880Y-83529761D01*
X116607023Y-83577380D01*
X116511785Y-83577380D01*
X116368928Y-83529761D01*
X116273690Y-83434523D01*
X116226071Y-83339285D01*
X116178452Y-83148809D01*
X116178452Y-83005952D01*
X116226071Y-82815476D01*
X116273690Y-82720238D01*
X116368928Y-82625000D01*
X116511785Y-82577380D01*
X116607023Y-82577380D01*
X116749880Y-82625000D01*
X116797500Y-82672619D01*
X117083214Y-82577380D02*
X117654642Y-82577380D01*
X117368928Y-83577380D02*
X117368928Y-82577380D01*
X149660000Y-104800000D02*
X191660000Y-104800000D01*
D12*
X148400000Y-104900000D02*
X134350000Y-104900000D01*
X134350000Y-91700000D02*
X148450000Y-91700000D01*
X148400000Y-104900000D02*
X148400000Y-101210000D01*
X148450000Y-91700000D02*
X148450000Y-97500000D01*
X134350000Y-104900000D02*
X134350000Y-101210000D01*
X134350000Y-91700000D02*
X134350000Y-97550000D01*
D13*
X149260000Y-96400000D02*
G75*
G03X149260000Y-96400000I-200000J0D01*
G01*
D14*
X174830000Y-60000000D02*
X189930000Y-60000000D01*
X189930000Y-60000000D02*
X189930000Y-76100000D01*
X174830000Y-60000000D02*
X174830000Y-76100000D01*
X162553000Y-88318000D02*
X166303000Y-88318000D01*
X173073000Y-88318000D02*
X169323000Y-88318000D01*
X173073000Y-78862437D02*
X173073000Y-88318000D01*
X162553000Y-78862437D02*
X162553000Y-88318000D01*
X163617437Y-77798000D02*
X166303000Y-77798000D01*
X172008563Y-77798000D02*
X169323000Y-77798000D01*
X172008563Y-77798000D02*
X173073000Y-78862437D01*
X163617437Y-77798000D02*
X162553000Y-78862437D01*
X170573000Y-76308000D02*
X170573000Y-77558000D01*
X171198000Y-76933000D02*
X169948000Y-76933000D01*
X182328000Y-76933000D02*
X181078000Y-76933000D01*
X181703000Y-76308000D02*
X181703000Y-77558000D01*
X174747437Y-77798000D02*
X173683000Y-78862437D01*
X183138563Y-77798000D02*
X184203000Y-78862437D01*
X183138563Y-77798000D02*
X180453000Y-77798000D01*
X174747437Y-77798000D02*
X177433000Y-77798000D01*
X173683000Y-78862437D02*
X173683000Y-88318000D01*
X184203000Y-78862437D02*
X184203000Y-88318000D01*
X184203000Y-88318000D02*
X180453000Y-88318000D01*
X173683000Y-88318000D02*
X177433000Y-88318000D01*
X151458000Y-88318000D02*
X155208000Y-88318000D01*
X161978000Y-88318000D02*
X158228000Y-88318000D01*
X161978000Y-78862437D02*
X161978000Y-88318000D01*
X151458000Y-78862437D02*
X151458000Y-88318000D01*
X152522437Y-77798000D02*
X155208000Y-77798000D01*
X160913563Y-77798000D02*
X158228000Y-77798000D01*
X160913563Y-77798000D02*
X161978000Y-78862437D01*
X152522437Y-77798000D02*
X151458000Y-78862437D01*
X159478000Y-76308000D02*
X159478000Y-77558000D01*
X160103000Y-76933000D02*
X158853000Y-76933000D01*
X170196000Y-81658000D02*
X172196000Y-81658000D01*
X170196000Y-84458000D02*
X170196000Y-81658000D01*
X172196000Y-84458000D02*
X170196000Y-84458000D01*
X172196000Y-81658000D02*
X172196000Y-84458000D01*
X183245000Y-81695000D02*
X183245000Y-84495000D01*
X183245000Y-84495000D02*
X181245000Y-84495000D01*
X181245000Y-84495000D02*
X181245000Y-81695000D01*
X181245000Y-81695000D02*
X183245000Y-81695000D01*
X159020000Y-81748000D02*
X161020000Y-81748000D01*
X159020000Y-84548000D02*
X159020000Y-81748000D01*
X161020000Y-84548000D02*
X159020000Y-84548000D01*
X161020000Y-81748000D02*
X161020000Y-84548000D01*
X86000000Y-81500000D02*
X90000000Y-81500000D01*
X86000000Y-83500000D02*
X86000000Y-81500000D01*
X90000000Y-83500000D02*
X86000000Y-83500000D01*
X94400000Y-78200000D02*
X94400000Y-86800000D01*
X90000000Y-78200000D02*
X94400000Y-78200000D01*
X90000000Y-86800000D02*
X90000000Y-78200000D01*
X94400000Y-86800000D02*
X90000000Y-86800000D01*
D15*
X124470000Y-103700000D02*
G75*
G03X124470000Y-103700000I-170000J0D01*
G01*
D12*
X125200000Y-104900000D02*
X124900000Y-104900000D01*
X125200000Y-108900000D02*
X125200000Y-104900000D01*
X131200000Y-108900000D02*
X125200000Y-108900000D01*
X131200000Y-104900000D02*
X131200000Y-108900000D01*
X133100000Y-104900000D02*
X131200000Y-104900000D01*
X133100000Y-90900000D02*
X133100000Y-104900000D01*
X124900000Y-90900000D02*
X133100000Y-90900000D01*
X124900000Y-104900000D02*
X124900000Y-90900000D01*
D14*
X89900000Y-104870000D02*
X89900000Y-89260000D01*
X89900000Y-89260000D02*
X120870000Y-89260000D01*
X120870000Y-89260000D02*
X120870000Y-104870000D01*
X109450000Y-88365662D02*
X109950000Y-88365662D01*
X109950000Y-88365662D02*
X109700000Y-88798675D01*
X109700000Y-88798675D02*
X109450000Y-88365662D01*
D11*
X158896666Y-95362380D02*
X158896666Y-96076666D01*
X158849047Y-96219523D01*
X158753809Y-96314761D01*
X158610952Y-96362380D01*
X158515714Y-96362380D01*
X159849047Y-95362380D02*
X159372857Y-95362380D01*
X159325238Y-95838571D01*
X159372857Y-95790952D01*
X159468095Y-95743333D01*
X159706190Y-95743333D01*
X159801428Y-95790952D01*
X159849047Y-95838571D01*
X159896666Y-95933809D01*
X159896666Y-96171904D01*
X159849047Y-96267142D01*
X159801428Y-96314761D01*
X159706190Y-96362380D01*
X159468095Y-96362380D01*
X159372857Y-96314761D01*
X159325238Y-96267142D01*
X144859166Y-99403380D02*
X144859166Y-100117666D01*
X144811547Y-100260523D01*
X144716309Y-100355761D01*
X144573452Y-100403380D01*
X144478214Y-100403380D01*
X145287738Y-99498619D02*
X145335357Y-99451000D01*
X145430595Y-99403380D01*
X145668690Y-99403380D01*
X145763928Y-99451000D01*
X145811547Y-99498619D01*
X145859166Y-99593857D01*
X145859166Y-99689095D01*
X145811547Y-99831952D01*
X145240119Y-100403380D01*
X145859166Y-100403380D01*
X178355666Y-64603380D02*
X178355666Y-65317666D01*
X178308047Y-65460523D01*
X178212809Y-65555761D01*
X178069952Y-65603380D01*
X177974714Y-65603380D01*
X179355666Y-65603380D02*
X178784238Y-65603380D01*
X179069952Y-65603380D02*
X179069952Y-64603380D01*
X178974714Y-64746238D01*
X178879476Y-64841476D01*
X178784238Y-64889095D01*
X168124142Y-83224666D02*
X168171761Y-83272285D01*
X168219380Y-83415142D01*
X168219380Y-83510380D01*
X168171761Y-83653238D01*
X168076523Y-83748476D01*
X167981285Y-83796095D01*
X167790809Y-83843714D01*
X167647952Y-83843714D01*
X167457476Y-83796095D01*
X167362238Y-83748476D01*
X167267000Y-83653238D01*
X167219380Y-83510380D01*
X167219380Y-83415142D01*
X167267000Y-83272285D01*
X167314619Y-83224666D01*
X167314619Y-82843714D02*
X167267000Y-82796095D01*
X167219380Y-82700857D01*
X167219380Y-82462761D01*
X167267000Y-82367523D01*
X167314619Y-82319904D01*
X167409857Y-82272285D01*
X167505095Y-82272285D01*
X167647952Y-82319904D01*
X168219380Y-82891333D01*
X168219380Y-82272285D01*
X179300142Y-83224666D02*
X179347761Y-83272285D01*
X179395380Y-83415142D01*
X179395380Y-83510380D01*
X179347761Y-83653238D01*
X179252523Y-83748476D01*
X179157285Y-83796095D01*
X178966809Y-83843714D01*
X178823952Y-83843714D01*
X178633476Y-83796095D01*
X178538238Y-83748476D01*
X178443000Y-83653238D01*
X178395380Y-83510380D01*
X178395380Y-83415142D01*
X178443000Y-83272285D01*
X178490619Y-83224666D01*
X178395380Y-82891333D02*
X178395380Y-82272285D01*
X178776333Y-82605619D01*
X178776333Y-82462761D01*
X178823952Y-82367523D01*
X178871571Y-82319904D01*
X178966809Y-82272285D01*
X179204904Y-82272285D01*
X179300142Y-82319904D01*
X179347761Y-82367523D01*
X179395380Y-82462761D01*
X179395380Y-82748476D01*
X179347761Y-82843714D01*
X179300142Y-82891333D01*
X157075142Y-83224666D02*
X157122761Y-83272285D01*
X157170380Y-83415142D01*
X157170380Y-83510380D01*
X157122761Y-83653238D01*
X157027523Y-83748476D01*
X156932285Y-83796095D01*
X156741809Y-83843714D01*
X156598952Y-83843714D01*
X156408476Y-83796095D01*
X156313238Y-83748476D01*
X156218000Y-83653238D01*
X156170380Y-83510380D01*
X156170380Y-83415142D01*
X156218000Y-83272285D01*
X156265619Y-83224666D01*
X156503714Y-82367523D02*
X157170380Y-82367523D01*
X156122761Y-82605619D02*
X156837047Y-82843714D01*
X156837047Y-82224666D01*
X170648380Y-80843333D02*
X171362666Y-80843333D01*
X171505523Y-80890952D01*
X171600761Y-80986190D01*
X171648380Y-81129047D01*
X171648380Y-81224285D01*
X171648380Y-80367142D02*
X170648380Y-80367142D01*
X170648380Y-79986190D01*
X170696000Y-79890952D01*
X170743619Y-79843333D01*
X170838857Y-79795714D01*
X170981714Y-79795714D01*
X171076952Y-79843333D01*
X171124571Y-79890952D01*
X171172190Y-79986190D01*
X171172190Y-80367142D01*
X170743619Y-79414761D02*
X170696000Y-79367142D01*
X170648380Y-79271904D01*
X170648380Y-79033809D01*
X170696000Y-78938571D01*
X170743619Y-78890952D01*
X170838857Y-78843333D01*
X170934095Y-78843333D01*
X171076952Y-78890952D01*
X171648380Y-79462380D01*
X171648380Y-78843333D01*
X181570380Y-80843333D02*
X182284666Y-80843333D01*
X182427523Y-80890952D01*
X182522761Y-80986190D01*
X182570380Y-81129047D01*
X182570380Y-81224285D01*
X182570380Y-80367142D02*
X181570380Y-80367142D01*
X181570380Y-79986190D01*
X181618000Y-79890952D01*
X181665619Y-79843333D01*
X181760857Y-79795714D01*
X181903714Y-79795714D01*
X181998952Y-79843333D01*
X182046571Y-79890952D01*
X182094190Y-79986190D01*
X182094190Y-80367142D01*
X181570380Y-79462380D02*
X181570380Y-78843333D01*
X181951333Y-79176666D01*
X181951333Y-79033809D01*
X181998952Y-78938571D01*
X182046571Y-78890952D01*
X182141809Y-78843333D01*
X182379904Y-78843333D01*
X182475142Y-78890952D01*
X182522761Y-78938571D01*
X182570380Y-79033809D01*
X182570380Y-79319523D01*
X182522761Y-79414761D01*
X182475142Y-79462380D01*
X159472380Y-80970333D02*
X160186666Y-80970333D01*
X160329523Y-81017952D01*
X160424761Y-81113190D01*
X160472380Y-81256047D01*
X160472380Y-81351285D01*
X160472380Y-80494142D02*
X159472380Y-80494142D01*
X159472380Y-80113190D01*
X159520000Y-80017952D01*
X159567619Y-79970333D01*
X159662857Y-79922714D01*
X159805714Y-79922714D01*
X159900952Y-79970333D01*
X159948571Y-80017952D01*
X159996190Y-80113190D01*
X159996190Y-80494142D01*
X159805714Y-79065571D02*
X160472380Y-79065571D01*
X159424761Y-79303666D02*
X160139047Y-79541761D01*
X160139047Y-78922714D01*
X91169761Y-83833333D02*
X91217380Y-83690476D01*
X91217380Y-83452380D01*
X91169761Y-83357142D01*
X91122142Y-83309523D01*
X91026904Y-83261904D01*
X90931666Y-83261904D01*
X90836428Y-83309523D01*
X90788809Y-83357142D01*
X90741190Y-83452380D01*
X90693571Y-83642857D01*
X90645952Y-83738095D01*
X90598333Y-83785714D01*
X90503095Y-83833333D01*
X90407857Y-83833333D01*
X90312619Y-83785714D01*
X90265000Y-83738095D01*
X90217380Y-83642857D01*
X90217380Y-83404761D01*
X90265000Y-83261904D01*
X90217380Y-82928571D02*
X91217380Y-82690476D01*
X90503095Y-82500000D01*
X91217380Y-82309523D01*
X90217380Y-82071428D01*
X91217380Y-81166666D02*
X91217380Y-81738095D01*
X91217380Y-81452380D02*
X90217380Y-81452380D01*
X90360238Y-81547619D01*
X90455476Y-81642857D01*
X90503095Y-81738095D01*
X130030103Y-94042955D02*
X130030103Y-95043448D01*
X129963403Y-95243546D01*
X129830004Y-95376945D01*
X129629906Y-95443645D01*
X129496507Y-95443645D01*
X130563699Y-94042955D02*
X131430793Y-94042955D01*
X130963896Y-94576551D01*
X131163995Y-94576551D01*
X131297394Y-94643251D01*
X131364093Y-94709950D01*
X131430793Y-94843349D01*
X131430793Y-95176847D01*
X131364093Y-95310246D01*
X131297394Y-95376945D01*
X131163995Y-95443645D01*
X130763798Y-95443645D01*
X130630399Y-95376945D01*
X130563699Y-95310246D01*
X97065166Y-91749380D02*
X97065166Y-92463666D01*
X97017547Y-92606523D01*
X96922309Y-92701761D01*
X96779452Y-92749380D01*
X96684214Y-92749380D01*
X97969928Y-92082714D02*
X97969928Y-92749380D01*
X97731833Y-91701761D02*
X97493738Y-92416047D01*
X98112785Y-92416047D01*
M02*
