G04 #@! TF.GenerationSoftware,KiCad,Pcbnew,(5.1.0)-1*
G04 #@! TF.CreationDate,2019-06-07T12:29:44-04:00*
G04 #@! TF.ProjectId,PSX Breakout,50535820-4272-4656-916b-6f75742e6b69,rev?*
G04 #@! TF.SameCoordinates,Original*
G04 #@! TF.FileFunction,Soldermask,Bot*
G04 #@! TF.FilePolarity,Negative*
%FSLAX46Y46*%
G04 Gerber Fmt 4.6, Leading zero omitted, Abs format (unit mm)*
G04 Created by KiCad (PCBNEW (5.1.0)-1) date 2019-06-07 12:29:44*
%MOMM*%
%LPD*%
G04 APERTURE LIST*
%ADD10C,0.100000*%
G04 APERTURE END LIST*
D10*
G36*
X127530808Y-109442648D02*
G01*
X127682551Y-109488678D01*
X127822398Y-109563428D01*
X127944975Y-109664025D01*
X128045572Y-109786602D01*
X128120322Y-109926449D01*
X128166352Y-110078192D01*
X128181895Y-110236000D01*
X128166352Y-110393808D01*
X128120322Y-110545551D01*
X128045572Y-110685398D01*
X127944975Y-110807975D01*
X127822398Y-110908572D01*
X127682551Y-110983322D01*
X127530808Y-111029352D01*
X127412546Y-111041000D01*
X125825454Y-111041000D01*
X125707192Y-111029352D01*
X125555449Y-110983322D01*
X125415602Y-110908572D01*
X125293025Y-110807975D01*
X125192428Y-110685398D01*
X125117678Y-110545551D01*
X125071648Y-110393808D01*
X125056105Y-110236000D01*
X125071648Y-110078192D01*
X125117678Y-109926449D01*
X125192428Y-109786602D01*
X125293025Y-109664025D01*
X125415602Y-109563428D01*
X125555449Y-109488678D01*
X125707192Y-109442648D01*
X125825454Y-109431000D01*
X127412546Y-109431000D01*
X127530808Y-109442648D01*
X127530808Y-109442648D01*
G37*
G36*
X110758728Y-107408703D02*
G01*
X110913600Y-107472853D01*
X111052981Y-107565985D01*
X111171515Y-107684519D01*
X111264647Y-107823900D01*
X111328797Y-107978772D01*
X111361500Y-108143184D01*
X111361500Y-108310816D01*
X111328797Y-108475228D01*
X111264647Y-108630100D01*
X111171515Y-108769481D01*
X111052981Y-108888015D01*
X110913600Y-108981147D01*
X110758728Y-109045297D01*
X110594316Y-109078000D01*
X110426684Y-109078000D01*
X110262272Y-109045297D01*
X110107400Y-108981147D01*
X109968019Y-108888015D01*
X109849485Y-108769481D01*
X109756353Y-108630100D01*
X109692203Y-108475228D01*
X109659500Y-108310816D01*
X109659500Y-108143184D01*
X109692203Y-107978772D01*
X109756353Y-107823900D01*
X109849485Y-107684519D01*
X109968019Y-107565985D01*
X110107400Y-107472853D01*
X110262272Y-107408703D01*
X110426684Y-107376000D01*
X110594316Y-107376000D01*
X110758728Y-107408703D01*
X110758728Y-107408703D01*
G37*
G36*
X101598728Y-107408703D02*
G01*
X101753600Y-107472853D01*
X101892981Y-107565985D01*
X102011515Y-107684519D01*
X102104647Y-107823900D01*
X102168797Y-107978772D01*
X102201500Y-108143184D01*
X102201500Y-108310816D01*
X102168797Y-108475228D01*
X102104647Y-108630100D01*
X102011515Y-108769481D01*
X101892981Y-108888015D01*
X101753600Y-108981147D01*
X101598728Y-109045297D01*
X101434316Y-109078000D01*
X101266684Y-109078000D01*
X101102272Y-109045297D01*
X100947400Y-108981147D01*
X100808019Y-108888015D01*
X100689485Y-108769481D01*
X100596353Y-108630100D01*
X100532203Y-108475228D01*
X100499500Y-108310816D01*
X100499500Y-108143184D01*
X100532203Y-107978772D01*
X100596353Y-107823900D01*
X100689485Y-107684519D01*
X100808019Y-107565985D01*
X100947400Y-107472853D01*
X101102272Y-107408703D01*
X101266684Y-107376000D01*
X101434316Y-107376000D01*
X101598728Y-107408703D01*
X101598728Y-107408703D01*
G37*
G36*
X103888728Y-107408703D02*
G01*
X104043600Y-107472853D01*
X104182981Y-107565985D01*
X104301515Y-107684519D01*
X104394647Y-107823900D01*
X104458797Y-107978772D01*
X104491500Y-108143184D01*
X104491500Y-108310816D01*
X104458797Y-108475228D01*
X104394647Y-108630100D01*
X104301515Y-108769481D01*
X104182981Y-108888015D01*
X104043600Y-108981147D01*
X103888728Y-109045297D01*
X103724316Y-109078000D01*
X103556684Y-109078000D01*
X103392272Y-109045297D01*
X103237400Y-108981147D01*
X103098019Y-108888015D01*
X102979485Y-108769481D01*
X102886353Y-108630100D01*
X102822203Y-108475228D01*
X102789500Y-108310816D01*
X102789500Y-108143184D01*
X102822203Y-107978772D01*
X102886353Y-107823900D01*
X102979485Y-107684519D01*
X103098019Y-107565985D01*
X103237400Y-107472853D01*
X103392272Y-107408703D01*
X103556684Y-107376000D01*
X103724316Y-107376000D01*
X103888728Y-107408703D01*
X103888728Y-107408703D01*
G37*
G36*
X108468728Y-107408703D02*
G01*
X108623600Y-107472853D01*
X108762981Y-107565985D01*
X108881515Y-107684519D01*
X108974647Y-107823900D01*
X109038797Y-107978772D01*
X109071500Y-108143184D01*
X109071500Y-108310816D01*
X109038797Y-108475228D01*
X108974647Y-108630100D01*
X108881515Y-108769481D01*
X108762981Y-108888015D01*
X108623600Y-108981147D01*
X108468728Y-109045297D01*
X108304316Y-109078000D01*
X108136684Y-109078000D01*
X107972272Y-109045297D01*
X107817400Y-108981147D01*
X107678019Y-108888015D01*
X107559485Y-108769481D01*
X107466353Y-108630100D01*
X107402203Y-108475228D01*
X107369500Y-108310816D01*
X107369500Y-108143184D01*
X107402203Y-107978772D01*
X107466353Y-107823900D01*
X107559485Y-107684519D01*
X107678019Y-107565985D01*
X107817400Y-107472853D01*
X107972272Y-107408703D01*
X108136684Y-107376000D01*
X108304316Y-107376000D01*
X108468728Y-107408703D01*
X108468728Y-107408703D01*
G37*
G36*
X106178728Y-107408703D02*
G01*
X106333600Y-107472853D01*
X106472981Y-107565985D01*
X106591515Y-107684519D01*
X106684647Y-107823900D01*
X106748797Y-107978772D01*
X106781500Y-108143184D01*
X106781500Y-108310816D01*
X106748797Y-108475228D01*
X106684647Y-108630100D01*
X106591515Y-108769481D01*
X106472981Y-108888015D01*
X106333600Y-108981147D01*
X106178728Y-109045297D01*
X106014316Y-109078000D01*
X105846684Y-109078000D01*
X105682272Y-109045297D01*
X105527400Y-108981147D01*
X105388019Y-108888015D01*
X105269485Y-108769481D01*
X105176353Y-108630100D01*
X105112203Y-108475228D01*
X105079500Y-108310816D01*
X105079500Y-108143184D01*
X105112203Y-107978772D01*
X105176353Y-107823900D01*
X105269485Y-107684519D01*
X105388019Y-107565985D01*
X105527400Y-107472853D01*
X105682272Y-107408703D01*
X105846684Y-107376000D01*
X106014316Y-107376000D01*
X106178728Y-107408703D01*
X106178728Y-107408703D01*
G37*
G36*
X186449134Y-104475654D02*
G01*
X186666099Y-104541470D01*
X186666101Y-104541471D01*
X186866053Y-104648347D01*
X186892559Y-104670100D01*
X187041318Y-104792182D01*
X187094074Y-104856466D01*
X187185153Y-104967445D01*
X187282829Y-105150186D01*
X187292030Y-105167400D01*
X187320963Y-105262779D01*
X187357846Y-105384366D01*
X187374500Y-105553455D01*
X187374500Y-107466545D01*
X187367050Y-107542185D01*
X187357846Y-107635635D01*
X187311031Y-107789963D01*
X187292029Y-107852602D01*
X187185153Y-108052555D01*
X187041318Y-108227818D01*
X186866055Y-108371653D01*
X186672278Y-108475228D01*
X186666100Y-108478530D01*
X186449135Y-108544346D01*
X186223500Y-108566569D01*
X185997866Y-108544346D01*
X185780901Y-108478530D01*
X185774723Y-108475228D01*
X185580946Y-108371653D01*
X185405683Y-108227818D01*
X185261848Y-108052555D01*
X185154972Y-107852602D01*
X185135971Y-107789963D01*
X185089155Y-107635635D01*
X185075026Y-107492185D01*
X185072500Y-107466544D01*
X185072500Y-105553456D01*
X185084787Y-105428703D01*
X185089154Y-105384366D01*
X185154970Y-105167401D01*
X185154972Y-105167398D01*
X185261847Y-104967447D01*
X185294208Y-104928015D01*
X185405682Y-104792182D01*
X185488904Y-104723884D01*
X185580945Y-104648347D01*
X185780898Y-104541471D01*
X185780900Y-104541470D01*
X185997865Y-104475654D01*
X186223500Y-104453431D01*
X186449134Y-104475654D01*
X186449134Y-104475654D01*
G37*
G36*
X158449134Y-104475654D02*
G01*
X158666099Y-104541470D01*
X158666101Y-104541471D01*
X158866053Y-104648347D01*
X158892559Y-104670100D01*
X159041318Y-104792182D01*
X159094074Y-104856466D01*
X159185153Y-104967445D01*
X159282829Y-105150186D01*
X159292030Y-105167400D01*
X159320963Y-105262779D01*
X159357846Y-105384366D01*
X159374500Y-105553455D01*
X159374500Y-107466545D01*
X159367050Y-107542185D01*
X159357846Y-107635635D01*
X159311031Y-107789963D01*
X159292029Y-107852602D01*
X159185153Y-108052555D01*
X159041318Y-108227818D01*
X158866055Y-108371653D01*
X158672278Y-108475228D01*
X158666100Y-108478530D01*
X158449135Y-108544346D01*
X158223500Y-108566569D01*
X157997866Y-108544346D01*
X157780901Y-108478530D01*
X157774723Y-108475228D01*
X157580946Y-108371653D01*
X157405683Y-108227818D01*
X157261848Y-108052555D01*
X157154972Y-107852602D01*
X157135971Y-107789963D01*
X157089155Y-107635635D01*
X157075026Y-107492185D01*
X157072500Y-107466544D01*
X157072500Y-105553456D01*
X157084787Y-105428703D01*
X157089154Y-105384366D01*
X157154970Y-105167401D01*
X157154972Y-105167398D01*
X157261847Y-104967447D01*
X157294208Y-104928015D01*
X157405682Y-104792182D01*
X157488904Y-104723884D01*
X157580945Y-104648347D01*
X157780898Y-104541471D01*
X157780900Y-104541470D01*
X157997865Y-104475654D01*
X158223500Y-104453431D01*
X158449134Y-104475654D01*
X158449134Y-104475654D01*
G37*
G36*
X172449134Y-104475654D02*
G01*
X172666099Y-104541470D01*
X172666101Y-104541471D01*
X172866053Y-104648347D01*
X172892559Y-104670100D01*
X173041318Y-104792182D01*
X173094074Y-104856466D01*
X173185153Y-104967445D01*
X173282829Y-105150186D01*
X173292030Y-105167400D01*
X173320963Y-105262779D01*
X173357846Y-105384366D01*
X173374500Y-105553455D01*
X173374500Y-107466545D01*
X173367050Y-107542185D01*
X173357846Y-107635635D01*
X173311031Y-107789963D01*
X173292029Y-107852602D01*
X173185153Y-108052555D01*
X173041318Y-108227818D01*
X172866055Y-108371653D01*
X172672278Y-108475228D01*
X172666100Y-108478530D01*
X172449135Y-108544346D01*
X172223500Y-108566569D01*
X171997866Y-108544346D01*
X171780901Y-108478530D01*
X171774723Y-108475228D01*
X171580946Y-108371653D01*
X171405683Y-108227818D01*
X171261848Y-108052555D01*
X171154972Y-107852602D01*
X171135971Y-107789963D01*
X171089155Y-107635635D01*
X171075026Y-107492185D01*
X171072500Y-107466544D01*
X171072500Y-105553456D01*
X171084787Y-105428703D01*
X171089154Y-105384366D01*
X171154970Y-105167401D01*
X171154972Y-105167398D01*
X171261847Y-104967447D01*
X171294208Y-104928015D01*
X171405682Y-104792182D01*
X171488904Y-104723884D01*
X171580945Y-104648347D01*
X171780898Y-104541471D01*
X171780900Y-104541470D01*
X171997865Y-104475654D01*
X172223500Y-104453431D01*
X172449134Y-104475654D01*
X172449134Y-104475654D01*
G37*
G36*
X125530808Y-106942648D02*
G01*
X125682551Y-106988678D01*
X125822398Y-107063428D01*
X125944975Y-107164025D01*
X126045572Y-107286602D01*
X126120322Y-107426449D01*
X126166352Y-107578192D01*
X126181895Y-107736000D01*
X126166352Y-107893808D01*
X126120322Y-108045551D01*
X126045572Y-108185398D01*
X125944975Y-108307975D01*
X125822398Y-108408572D01*
X125682551Y-108483322D01*
X125530808Y-108529352D01*
X125412546Y-108541000D01*
X123825454Y-108541000D01*
X123707192Y-108529352D01*
X123555449Y-108483322D01*
X123415602Y-108408572D01*
X123293025Y-108307975D01*
X123192428Y-108185398D01*
X123117678Y-108045551D01*
X123071648Y-107893808D01*
X123056105Y-107736000D01*
X123071648Y-107578192D01*
X123117678Y-107426449D01*
X123192428Y-107286602D01*
X123293025Y-107164025D01*
X123415602Y-107063428D01*
X123555449Y-106988678D01*
X123707192Y-106942648D01*
X123825454Y-106931000D01*
X125412546Y-106931000D01*
X125530808Y-106942648D01*
X125530808Y-106942648D01*
G37*
G36*
X119293754Y-104344818D02*
G01*
X119609620Y-104475654D01*
X119667013Y-104499427D01*
X120002936Y-104723884D01*
X120288616Y-105009564D01*
X120457809Y-105262778D01*
X120513074Y-105345489D01*
X120667682Y-105718746D01*
X120746500Y-106114993D01*
X120746500Y-106519007D01*
X120667682Y-106915254D01*
X120550372Y-107198465D01*
X120513073Y-107288513D01*
X120288616Y-107624436D01*
X120002936Y-107910116D01*
X119667013Y-108134573D01*
X119667012Y-108134574D01*
X119667011Y-108134574D01*
X119293754Y-108289182D01*
X118897507Y-108368000D01*
X118493493Y-108368000D01*
X118097246Y-108289182D01*
X117723989Y-108134574D01*
X117723988Y-108134574D01*
X117723987Y-108134573D01*
X117388064Y-107910116D01*
X117102384Y-107624436D01*
X116877927Y-107288513D01*
X116840628Y-107198465D01*
X116723318Y-106915254D01*
X116644500Y-106519007D01*
X116644500Y-106114993D01*
X116723318Y-105718746D01*
X116877926Y-105345489D01*
X116933192Y-105262778D01*
X117102384Y-105009564D01*
X117388064Y-104723884D01*
X117723987Y-104499427D01*
X117781380Y-104475654D01*
X118097246Y-104344818D01*
X118493493Y-104266000D01*
X118897507Y-104266000D01*
X119293754Y-104344818D01*
X119293754Y-104344818D01*
G37*
G36*
X94293754Y-104344818D02*
G01*
X94609620Y-104475654D01*
X94667013Y-104499427D01*
X95002936Y-104723884D01*
X95288616Y-105009564D01*
X95457809Y-105262778D01*
X95513074Y-105345489D01*
X95667682Y-105718746D01*
X95746500Y-106114993D01*
X95746500Y-106519007D01*
X95667682Y-106915254D01*
X95550372Y-107198465D01*
X95513073Y-107288513D01*
X95288616Y-107624436D01*
X95002936Y-107910116D01*
X94667013Y-108134573D01*
X94667012Y-108134574D01*
X94667011Y-108134574D01*
X94293754Y-108289182D01*
X93897507Y-108368000D01*
X93493493Y-108368000D01*
X93097246Y-108289182D01*
X92723989Y-108134574D01*
X92723988Y-108134574D01*
X92723987Y-108134573D01*
X92388064Y-107910116D01*
X92102384Y-107624436D01*
X91877927Y-107288513D01*
X91840628Y-107198465D01*
X91723318Y-106915254D01*
X91644500Y-106519007D01*
X91644500Y-106114993D01*
X91723318Y-105718746D01*
X91877926Y-105345489D01*
X91933192Y-105262778D01*
X92102384Y-105009564D01*
X92388064Y-104723884D01*
X92723987Y-104499427D01*
X92781380Y-104475654D01*
X93097246Y-104344818D01*
X93493493Y-104266000D01*
X93897507Y-104266000D01*
X94293754Y-104344818D01*
X94293754Y-104344818D01*
G37*
G36*
X139644443Y-106007519D02*
G01*
X139710627Y-106014037D01*
X139880466Y-106065557D01*
X140036991Y-106149222D01*
X140072729Y-106178552D01*
X140174186Y-106261814D01*
X140257448Y-106363271D01*
X140286778Y-106399009D01*
X140370443Y-106555534D01*
X140421963Y-106725373D01*
X140439359Y-106902000D01*
X140421963Y-107078627D01*
X140370443Y-107248466D01*
X140286778Y-107404991D01*
X140257448Y-107440729D01*
X140174186Y-107542186D01*
X140097916Y-107604778D01*
X140036991Y-107654778D01*
X140036989Y-107654779D01*
X139885037Y-107736000D01*
X139880466Y-107738443D01*
X139710627Y-107789963D01*
X139644442Y-107796482D01*
X139578260Y-107803000D01*
X137789740Y-107803000D01*
X137723558Y-107796482D01*
X137657373Y-107789963D01*
X137487534Y-107738443D01*
X137482964Y-107736000D01*
X137331011Y-107654779D01*
X137331009Y-107654778D01*
X137270084Y-107604778D01*
X137193814Y-107542186D01*
X137110552Y-107440729D01*
X137081222Y-107404991D01*
X136997557Y-107248466D01*
X136946037Y-107078627D01*
X136928641Y-106902000D01*
X136946037Y-106725373D01*
X136997557Y-106555534D01*
X137081222Y-106399009D01*
X137110552Y-106363271D01*
X137193814Y-106261814D01*
X137295271Y-106178552D01*
X137331009Y-106149222D01*
X137487534Y-106065557D01*
X137657373Y-106014037D01*
X137723557Y-106007519D01*
X137789740Y-106001000D01*
X139578260Y-106001000D01*
X139644443Y-106007519D01*
X139644443Y-106007519D01*
G37*
G36*
X132360626Y-104264037D02*
G01*
X132530465Y-104315557D01*
X132530467Y-104315558D01*
X132686989Y-104399221D01*
X132824186Y-104511814D01*
X132907448Y-104613271D01*
X132936778Y-104649009D01*
X133020443Y-104805534D01*
X133071963Y-104975373D01*
X133071963Y-104975375D01*
X133085000Y-105107740D01*
X133085000Y-106896260D01*
X133083842Y-106908015D01*
X133071963Y-107028627D01*
X133020443Y-107198466D01*
X132936778Y-107354991D01*
X132919536Y-107376000D01*
X132824186Y-107492186D01*
X132734260Y-107565985D01*
X132686991Y-107604778D01*
X132530466Y-107688443D01*
X132360627Y-107739963D01*
X132184000Y-107757359D01*
X132007374Y-107739963D01*
X131837535Y-107688443D01*
X131681010Y-107604778D01*
X131633741Y-107565985D01*
X131543815Y-107492186D01*
X131448465Y-107376000D01*
X131431223Y-107354991D01*
X131347558Y-107198466D01*
X131296038Y-107028627D01*
X131284159Y-106908015D01*
X131283001Y-106896260D01*
X131283000Y-105107741D01*
X131296037Y-104975376D01*
X131296037Y-104975374D01*
X131347557Y-104805535D01*
X131354694Y-104792182D01*
X131431221Y-104649011D01*
X131543814Y-104511814D01*
X131645271Y-104428552D01*
X131681009Y-104399222D01*
X131837534Y-104315557D01*
X132007373Y-104264037D01*
X132184000Y-104246641D01*
X132360626Y-104264037D01*
X132360626Y-104264037D01*
G37*
G36*
X145360627Y-104264037D02*
G01*
X145530466Y-104315557D01*
X145686991Y-104399222D01*
X145722729Y-104428552D01*
X145824186Y-104511814D01*
X145907448Y-104613271D01*
X145936778Y-104649009D01*
X146020443Y-104805534D01*
X146071963Y-104975373D01*
X146071963Y-104975375D01*
X146085000Y-105107740D01*
X146085000Y-106896260D01*
X146083842Y-106908015D01*
X146071963Y-107028627D01*
X146020443Y-107198466D01*
X145936778Y-107354991D01*
X145919536Y-107376000D01*
X145824186Y-107492186D01*
X145686989Y-107604779D01*
X145530467Y-107688442D01*
X145530465Y-107688443D01*
X145360626Y-107739963D01*
X145184000Y-107757359D01*
X145007373Y-107739963D01*
X144837534Y-107688443D01*
X144681009Y-107604778D01*
X144633740Y-107565985D01*
X144543814Y-107492186D01*
X144431221Y-107354989D01*
X144347558Y-107198467D01*
X144337110Y-107164025D01*
X144296037Y-107028626D01*
X144284158Y-106908015D01*
X144283000Y-106896259D01*
X144283001Y-105107740D01*
X144296038Y-104975375D01*
X144296038Y-104975373D01*
X144347558Y-104805534D01*
X144431223Y-104649009D01*
X144460553Y-104613271D01*
X144543815Y-104511814D01*
X144645272Y-104428552D01*
X144681010Y-104399222D01*
X144837535Y-104315557D01*
X145007374Y-104264037D01*
X145184000Y-104246641D01*
X145360627Y-104264037D01*
X145360627Y-104264037D01*
G37*
G36*
X107323728Y-105428703D02*
G01*
X107478600Y-105492853D01*
X107617981Y-105585985D01*
X107736515Y-105704519D01*
X107829647Y-105843900D01*
X107893797Y-105998772D01*
X107926500Y-106163184D01*
X107926500Y-106330816D01*
X107893797Y-106495228D01*
X107829647Y-106650100D01*
X107736515Y-106789481D01*
X107617981Y-106908015D01*
X107478600Y-107001147D01*
X107323728Y-107065297D01*
X107159316Y-107098000D01*
X106991684Y-107098000D01*
X106827272Y-107065297D01*
X106672400Y-107001147D01*
X106533019Y-106908015D01*
X106414485Y-106789481D01*
X106321353Y-106650100D01*
X106257203Y-106495228D01*
X106224500Y-106330816D01*
X106224500Y-106163184D01*
X106257203Y-105998772D01*
X106321353Y-105843900D01*
X106414485Y-105704519D01*
X106533019Y-105585985D01*
X106672400Y-105492853D01*
X106827272Y-105428703D01*
X106991684Y-105396000D01*
X107159316Y-105396000D01*
X107323728Y-105428703D01*
X107323728Y-105428703D01*
G37*
G36*
X111903728Y-105428703D02*
G01*
X112058600Y-105492853D01*
X112197981Y-105585985D01*
X112316515Y-105704519D01*
X112409647Y-105843900D01*
X112473797Y-105998772D01*
X112506500Y-106163184D01*
X112506500Y-106330816D01*
X112473797Y-106495228D01*
X112409647Y-106650100D01*
X112316515Y-106789481D01*
X112197981Y-106908015D01*
X112058600Y-107001147D01*
X111903728Y-107065297D01*
X111739316Y-107098000D01*
X111571684Y-107098000D01*
X111407272Y-107065297D01*
X111252400Y-107001147D01*
X111113019Y-106908015D01*
X110994485Y-106789481D01*
X110901353Y-106650100D01*
X110837203Y-106495228D01*
X110804500Y-106330816D01*
X110804500Y-106163184D01*
X110837203Y-105998772D01*
X110901353Y-105843900D01*
X110994485Y-105704519D01*
X111113019Y-105585985D01*
X111252400Y-105492853D01*
X111407272Y-105428703D01*
X111571684Y-105396000D01*
X111739316Y-105396000D01*
X111903728Y-105428703D01*
X111903728Y-105428703D01*
G37*
G36*
X105033728Y-105428703D02*
G01*
X105188600Y-105492853D01*
X105327981Y-105585985D01*
X105446515Y-105704519D01*
X105539647Y-105843900D01*
X105603797Y-105998772D01*
X105636500Y-106163184D01*
X105636500Y-106330816D01*
X105603797Y-106495228D01*
X105539647Y-106650100D01*
X105446515Y-106789481D01*
X105327981Y-106908015D01*
X105188600Y-107001147D01*
X105033728Y-107065297D01*
X104869316Y-107098000D01*
X104701684Y-107098000D01*
X104537272Y-107065297D01*
X104382400Y-107001147D01*
X104243019Y-106908015D01*
X104124485Y-106789481D01*
X104031353Y-106650100D01*
X103967203Y-106495228D01*
X103934500Y-106330816D01*
X103934500Y-106163184D01*
X103967203Y-105998772D01*
X104031353Y-105843900D01*
X104124485Y-105704519D01*
X104243019Y-105585985D01*
X104382400Y-105492853D01*
X104537272Y-105428703D01*
X104701684Y-105396000D01*
X104869316Y-105396000D01*
X105033728Y-105428703D01*
X105033728Y-105428703D01*
G37*
G36*
X109613728Y-105428703D02*
G01*
X109768600Y-105492853D01*
X109907981Y-105585985D01*
X110026515Y-105704519D01*
X110119647Y-105843900D01*
X110183797Y-105998772D01*
X110216500Y-106163184D01*
X110216500Y-106330816D01*
X110183797Y-106495228D01*
X110119647Y-106650100D01*
X110026515Y-106789481D01*
X109907981Y-106908015D01*
X109768600Y-107001147D01*
X109613728Y-107065297D01*
X109449316Y-107098000D01*
X109281684Y-107098000D01*
X109117272Y-107065297D01*
X108962400Y-107001147D01*
X108823019Y-106908015D01*
X108704485Y-106789481D01*
X108611353Y-106650100D01*
X108547203Y-106495228D01*
X108514500Y-106330816D01*
X108514500Y-106163184D01*
X108547203Y-105998772D01*
X108611353Y-105843900D01*
X108704485Y-105704519D01*
X108823019Y-105585985D01*
X108962400Y-105492853D01*
X109117272Y-105428703D01*
X109281684Y-105396000D01*
X109449316Y-105396000D01*
X109613728Y-105428703D01*
X109613728Y-105428703D01*
G37*
G36*
X102743728Y-105428703D02*
G01*
X102898600Y-105492853D01*
X103037981Y-105585985D01*
X103156515Y-105704519D01*
X103249647Y-105843900D01*
X103313797Y-105998772D01*
X103346500Y-106163184D01*
X103346500Y-106330816D01*
X103313797Y-106495228D01*
X103249647Y-106650100D01*
X103156515Y-106789481D01*
X103037981Y-106908015D01*
X102898600Y-107001147D01*
X102743728Y-107065297D01*
X102579316Y-107098000D01*
X102411684Y-107098000D01*
X102247272Y-107065297D01*
X102092400Y-107001147D01*
X101953019Y-106908015D01*
X101834485Y-106789481D01*
X101741353Y-106650100D01*
X101677203Y-106495228D01*
X101644500Y-106330816D01*
X101644500Y-106163184D01*
X101677203Y-105998772D01*
X101741353Y-105843900D01*
X101834485Y-105704519D01*
X101953019Y-105585985D01*
X102092400Y-105492853D01*
X102247272Y-105428703D01*
X102411684Y-105396000D01*
X102579316Y-105396000D01*
X102743728Y-105428703D01*
X102743728Y-105428703D01*
G37*
G36*
X188800126Y-100622037D02*
G01*
X188969965Y-100673557D01*
X188969967Y-100673558D01*
X189126489Y-100757221D01*
X189263686Y-100869814D01*
X189325810Y-100945514D01*
X189376278Y-101007009D01*
X189459943Y-101163534D01*
X189511463Y-101333373D01*
X189511463Y-101333375D01*
X189522226Y-101442648D01*
X189524500Y-101465742D01*
X189524500Y-104554258D01*
X189511463Y-104686627D01*
X189459943Y-104856466D01*
X189376278Y-105012991D01*
X189346948Y-105048729D01*
X189263686Y-105150186D01*
X189162229Y-105233448D01*
X189126491Y-105262778D01*
X188969966Y-105346443D01*
X188800127Y-105397963D01*
X188623500Y-105415359D01*
X188446874Y-105397963D01*
X188277035Y-105346443D01*
X188120510Y-105262778D01*
X188084772Y-105233448D01*
X187983315Y-105150186D01*
X187900053Y-105048729D01*
X187870723Y-105012991D01*
X187787058Y-104856466D01*
X187735538Y-104686627D01*
X187722501Y-104554258D01*
X187722500Y-101465743D01*
X187724775Y-101442648D01*
X187735537Y-101333376D01*
X187735537Y-101333374D01*
X187787057Y-101163535D01*
X187800651Y-101138103D01*
X187870721Y-101007011D01*
X187983314Y-100869814D01*
X188084771Y-100786552D01*
X188120509Y-100757222D01*
X188277034Y-100673557D01*
X188446873Y-100622037D01*
X188623500Y-100604641D01*
X188800126Y-100622037D01*
X188800126Y-100622037D01*
G37*
G36*
X148500126Y-100622037D02*
G01*
X148669965Y-100673557D01*
X148669967Y-100673558D01*
X148826489Y-100757221D01*
X148963686Y-100869814D01*
X149025810Y-100945514D01*
X149076278Y-101007009D01*
X149159943Y-101163534D01*
X149211463Y-101333373D01*
X149211463Y-101333375D01*
X149222226Y-101442648D01*
X149224500Y-101465742D01*
X149224500Y-104554258D01*
X149211463Y-104686627D01*
X149159943Y-104856466D01*
X149076278Y-105012991D01*
X149046948Y-105048729D01*
X148963686Y-105150186D01*
X148862229Y-105233448D01*
X148826491Y-105262778D01*
X148669966Y-105346443D01*
X148500127Y-105397963D01*
X148323500Y-105415359D01*
X148146874Y-105397963D01*
X147977035Y-105346443D01*
X147820510Y-105262778D01*
X147784772Y-105233448D01*
X147683315Y-105150186D01*
X147600053Y-105048729D01*
X147570723Y-105012991D01*
X147487058Y-104856466D01*
X147435538Y-104686627D01*
X147422501Y-104554258D01*
X147422500Y-101465743D01*
X147424775Y-101442648D01*
X147435537Y-101333376D01*
X147435537Y-101333374D01*
X147487057Y-101163535D01*
X147500651Y-101138103D01*
X147570721Y-101007011D01*
X147683314Y-100869814D01*
X147784771Y-100786552D01*
X147820509Y-100757222D01*
X147977034Y-100673557D01*
X148146873Y-100622037D01*
X148323500Y-100604641D01*
X148500126Y-100622037D01*
X148500126Y-100622037D01*
G37*
G36*
X108468728Y-103448703D02*
G01*
X108623600Y-103512853D01*
X108762981Y-103605985D01*
X108881515Y-103724519D01*
X108974647Y-103863900D01*
X109038797Y-104018772D01*
X109071500Y-104183184D01*
X109071500Y-104350816D01*
X109038797Y-104515228D01*
X108974647Y-104670100D01*
X108881515Y-104809481D01*
X108762981Y-104928015D01*
X108623600Y-105021147D01*
X108468728Y-105085297D01*
X108304316Y-105118000D01*
X108136684Y-105118000D01*
X107972272Y-105085297D01*
X107817400Y-105021147D01*
X107678019Y-104928015D01*
X107559485Y-104809481D01*
X107466353Y-104670100D01*
X107402203Y-104515228D01*
X107369500Y-104350816D01*
X107369500Y-104183184D01*
X107402203Y-104018772D01*
X107466353Y-103863900D01*
X107559485Y-103724519D01*
X107678019Y-103605985D01*
X107817400Y-103512853D01*
X107972272Y-103448703D01*
X108136684Y-103416000D01*
X108304316Y-103416000D01*
X108468728Y-103448703D01*
X108468728Y-103448703D01*
G37*
G36*
X111361500Y-105118000D02*
G01*
X109659500Y-105118000D01*
X109659500Y-103416000D01*
X111361500Y-103416000D01*
X111361500Y-105118000D01*
X111361500Y-105118000D01*
G37*
G36*
X106178728Y-103448703D02*
G01*
X106333600Y-103512853D01*
X106472981Y-103605985D01*
X106591515Y-103724519D01*
X106684647Y-103863900D01*
X106748797Y-104018772D01*
X106781500Y-104183184D01*
X106781500Y-104350816D01*
X106748797Y-104515228D01*
X106684647Y-104670100D01*
X106591515Y-104809481D01*
X106472981Y-104928015D01*
X106333600Y-105021147D01*
X106178728Y-105085297D01*
X106014316Y-105118000D01*
X105846684Y-105118000D01*
X105682272Y-105085297D01*
X105527400Y-105021147D01*
X105388019Y-104928015D01*
X105269485Y-104809481D01*
X105176353Y-104670100D01*
X105112203Y-104515228D01*
X105079500Y-104350816D01*
X105079500Y-104183184D01*
X105112203Y-104018772D01*
X105176353Y-103863900D01*
X105269485Y-103724519D01*
X105388019Y-103605985D01*
X105527400Y-103512853D01*
X105682272Y-103448703D01*
X105846684Y-103416000D01*
X106014316Y-103416000D01*
X106178728Y-103448703D01*
X106178728Y-103448703D01*
G37*
G36*
X103888728Y-103448703D02*
G01*
X104043600Y-103512853D01*
X104182981Y-103605985D01*
X104301515Y-103724519D01*
X104394647Y-103863900D01*
X104458797Y-104018772D01*
X104491500Y-104183184D01*
X104491500Y-104350816D01*
X104458797Y-104515228D01*
X104394647Y-104670100D01*
X104301515Y-104809481D01*
X104182981Y-104928015D01*
X104043600Y-105021147D01*
X103888728Y-105085297D01*
X103724316Y-105118000D01*
X103556684Y-105118000D01*
X103392272Y-105085297D01*
X103237400Y-105021147D01*
X103098019Y-104928015D01*
X102979485Y-104809481D01*
X102886353Y-104670100D01*
X102822203Y-104515228D01*
X102789500Y-104350816D01*
X102789500Y-104183184D01*
X102822203Y-104018772D01*
X102886353Y-103863900D01*
X102979485Y-103724519D01*
X103098019Y-103605985D01*
X103237400Y-103512853D01*
X103392272Y-103448703D01*
X103556684Y-103416000D01*
X103724316Y-103416000D01*
X103888728Y-103448703D01*
X103888728Y-103448703D01*
G37*
G36*
X101598728Y-103448703D02*
G01*
X101753600Y-103512853D01*
X101892981Y-103605985D01*
X102011515Y-103724519D01*
X102104647Y-103863900D01*
X102168797Y-104018772D01*
X102201500Y-104183184D01*
X102201500Y-104350816D01*
X102168797Y-104515228D01*
X102104647Y-104670100D01*
X102011515Y-104809481D01*
X101892981Y-104928015D01*
X101753600Y-105021147D01*
X101598728Y-105085297D01*
X101434316Y-105118000D01*
X101266684Y-105118000D01*
X101102272Y-105085297D01*
X100947400Y-105021147D01*
X100808019Y-104928015D01*
X100689485Y-104809481D01*
X100596353Y-104670100D01*
X100532203Y-104515228D01*
X100499500Y-104350816D01*
X100499500Y-104183184D01*
X100532203Y-104018772D01*
X100596353Y-103863900D01*
X100689485Y-103724519D01*
X100808019Y-103605985D01*
X100947400Y-103512853D01*
X101102272Y-103448703D01*
X101266684Y-103416000D01*
X101434316Y-103416000D01*
X101598728Y-103448703D01*
X101598728Y-103448703D01*
G37*
G36*
X142839000Y-103757000D02*
G01*
X141329000Y-103757000D01*
X141329000Y-102247000D01*
X142839000Y-102247000D01*
X142839000Y-103757000D01*
X142839000Y-103757000D01*
G37*
G36*
X135431293Y-102261507D02*
G01*
X135504225Y-102276014D01*
X135561138Y-102299588D01*
X135641626Y-102332927D01*
X135765284Y-102415553D01*
X135870447Y-102520716D01*
X135953073Y-102644374D01*
X136009986Y-102781776D01*
X136039000Y-102927638D01*
X136039000Y-103076362D01*
X136009986Y-103222224D01*
X135953073Y-103359626D01*
X135870447Y-103483284D01*
X135765284Y-103588447D01*
X135641626Y-103671073D01*
X135561138Y-103704412D01*
X135504225Y-103727986D01*
X135431293Y-103742493D01*
X135358362Y-103757000D01*
X135209638Y-103757000D01*
X135136707Y-103742493D01*
X135063775Y-103727986D01*
X135006862Y-103704412D01*
X134926374Y-103671073D01*
X134802716Y-103588447D01*
X134697553Y-103483284D01*
X134614927Y-103359626D01*
X134558014Y-103222224D01*
X134529000Y-103076362D01*
X134529000Y-102927638D01*
X134558014Y-102781776D01*
X134614927Y-102644374D01*
X134697553Y-102520716D01*
X134802716Y-102415553D01*
X134926374Y-102332927D01*
X135006862Y-102299588D01*
X135063775Y-102276014D01*
X135136707Y-102261507D01*
X135209638Y-102247000D01*
X135358362Y-102247000D01*
X135431293Y-102261507D01*
X135431293Y-102261507D01*
G37*
G36*
X125530808Y-101442648D02*
G01*
X125682551Y-101488678D01*
X125822398Y-101563428D01*
X125944975Y-101664025D01*
X126045572Y-101786602D01*
X126120322Y-101926449D01*
X126166352Y-102078192D01*
X126181895Y-102236000D01*
X126166352Y-102393808D01*
X126120322Y-102545551D01*
X126045572Y-102685398D01*
X125944975Y-102807975D01*
X125822398Y-102908572D01*
X125682551Y-102983322D01*
X125530808Y-103029352D01*
X125412546Y-103041000D01*
X123825454Y-103041000D01*
X123707192Y-103029352D01*
X123555449Y-102983322D01*
X123415602Y-102908572D01*
X123293025Y-102807975D01*
X123192428Y-102685398D01*
X123117678Y-102545551D01*
X123071648Y-102393808D01*
X123056105Y-102236000D01*
X123071648Y-102078192D01*
X123117678Y-101926449D01*
X123192428Y-101786602D01*
X123293025Y-101664025D01*
X123415602Y-101563428D01*
X123555449Y-101488678D01*
X123707192Y-101442648D01*
X123825454Y-101431000D01*
X125412546Y-101431000D01*
X125530808Y-101442648D01*
X125530808Y-101442648D01*
G37*
G36*
X92125860Y-99754388D02*
G01*
X92144802Y-99769934D01*
X92166413Y-99781485D01*
X92189862Y-99788598D01*
X92214248Y-99791000D01*
X92216516Y-99791000D01*
X92419564Y-99831389D01*
X92610833Y-99910615D01*
X92610835Y-99910616D01*
X92775611Y-100020716D01*
X92782973Y-100025635D01*
X92929365Y-100172027D01*
X93044385Y-100344167D01*
X93123611Y-100535436D01*
X93164000Y-100738484D01*
X93164000Y-100945516D01*
X93123611Y-101148564D01*
X93044385Y-101339833D01*
X93044384Y-101339835D01*
X92929365Y-101511973D01*
X92782973Y-101658365D01*
X92610835Y-101773384D01*
X92610834Y-101773385D01*
X92610833Y-101773385D01*
X92419564Y-101852611D01*
X92216516Y-101893000D01*
X92009484Y-101893000D01*
X91806436Y-101852611D01*
X91615167Y-101773385D01*
X91615166Y-101773385D01*
X91615165Y-101773384D01*
X91443027Y-101658365D01*
X91296635Y-101511973D01*
X91181616Y-101339835D01*
X91181615Y-101339833D01*
X91102389Y-101148564D01*
X91062000Y-100945516D01*
X91062000Y-100738484D01*
X91102389Y-100535436D01*
X91181615Y-100344167D01*
X91296635Y-100172027D01*
X91443027Y-100025635D01*
X91450389Y-100020716D01*
X91615165Y-99910616D01*
X91615167Y-99910615D01*
X91806436Y-99831389D01*
X92009484Y-99791000D01*
X92011752Y-99791000D01*
X92036138Y-99788598D01*
X92059587Y-99781485D01*
X92081198Y-99769934D01*
X92100140Y-99754389D01*
X92113000Y-99738718D01*
X92125860Y-99754388D01*
X92125860Y-99754388D01*
G37*
G36*
X164929531Y-97224207D02*
G01*
X165127645Y-97284305D01*
X165127648Y-97284306D01*
X165193530Y-97319521D01*
X165310229Y-97381897D01*
X165470265Y-97513235D01*
X165601603Y-97673271D01*
X165601604Y-97673273D01*
X165699194Y-97855851D01*
X165699194Y-97855852D01*
X165699195Y-97855854D01*
X165759293Y-98053968D01*
X165774500Y-98208370D01*
X165774500Y-100311630D01*
X165759293Y-100466032D01*
X165725824Y-100576362D01*
X165699194Y-100664149D01*
X165659461Y-100738484D01*
X165601603Y-100846729D01*
X165470265Y-101006765D01*
X165310229Y-101138103D01*
X165248548Y-101171072D01*
X165127649Y-101235694D01*
X165127646Y-101235695D01*
X164929532Y-101295793D01*
X164723500Y-101316085D01*
X164517469Y-101295793D01*
X164319355Y-101235695D01*
X164319352Y-101235694D01*
X164198453Y-101171072D01*
X164136772Y-101138103D01*
X163976736Y-101006765D01*
X163845398Y-100846729D01*
X163787540Y-100738484D01*
X163747807Y-100664149D01*
X163721177Y-100576362D01*
X163687708Y-100466032D01*
X163672501Y-100311630D01*
X163672500Y-98208371D01*
X163687707Y-98053969D01*
X163747805Y-97855855D01*
X163747806Y-97855852D01*
X163783021Y-97789970D01*
X163845397Y-97673271D01*
X163976735Y-97513235D01*
X164136771Y-97381897D01*
X164222525Y-97336061D01*
X164319351Y-97284306D01*
X164319354Y-97284305D01*
X164517468Y-97224207D01*
X164723500Y-97203915D01*
X164929531Y-97224207D01*
X164929531Y-97224207D01*
G37*
G36*
X172429531Y-97224207D02*
G01*
X172627645Y-97284305D01*
X172627648Y-97284306D01*
X172693530Y-97319521D01*
X172810229Y-97381897D01*
X172970265Y-97513235D01*
X173101603Y-97673271D01*
X173101604Y-97673273D01*
X173199194Y-97855851D01*
X173199194Y-97855852D01*
X173199195Y-97855854D01*
X173259293Y-98053968D01*
X173274500Y-98208370D01*
X173274500Y-100311630D01*
X173259293Y-100466032D01*
X173225824Y-100576362D01*
X173199194Y-100664149D01*
X173159461Y-100738484D01*
X173101603Y-100846729D01*
X172970265Y-101006765D01*
X172810229Y-101138103D01*
X172748548Y-101171072D01*
X172627649Y-101235694D01*
X172627646Y-101235695D01*
X172429532Y-101295793D01*
X172223500Y-101316085D01*
X172017469Y-101295793D01*
X171819355Y-101235695D01*
X171819352Y-101235694D01*
X171698453Y-101171072D01*
X171636772Y-101138103D01*
X171476736Y-101006765D01*
X171345398Y-100846729D01*
X171287540Y-100738484D01*
X171247807Y-100664149D01*
X171221177Y-100576362D01*
X171187708Y-100466032D01*
X171172501Y-100311630D01*
X171172500Y-98208371D01*
X171187707Y-98053969D01*
X171247805Y-97855855D01*
X171247806Y-97855852D01*
X171283021Y-97789970D01*
X171345397Y-97673271D01*
X171476735Y-97513235D01*
X171636771Y-97381897D01*
X171722525Y-97336061D01*
X171819351Y-97284306D01*
X171819354Y-97284305D01*
X172017468Y-97224207D01*
X172223500Y-97203915D01*
X172429531Y-97224207D01*
X172429531Y-97224207D01*
G37*
G36*
X158429531Y-97224207D02*
G01*
X158627645Y-97284305D01*
X158627648Y-97284306D01*
X158693530Y-97319521D01*
X158810229Y-97381897D01*
X158970265Y-97513235D01*
X159101603Y-97673271D01*
X159101604Y-97673273D01*
X159199194Y-97855851D01*
X159199194Y-97855852D01*
X159199195Y-97855854D01*
X159259293Y-98053968D01*
X159274500Y-98208370D01*
X159274500Y-100311630D01*
X159259293Y-100466032D01*
X159225824Y-100576362D01*
X159199194Y-100664149D01*
X159159461Y-100738484D01*
X159101603Y-100846729D01*
X158970265Y-101006765D01*
X158810229Y-101138103D01*
X158748548Y-101171072D01*
X158627649Y-101235694D01*
X158627646Y-101235695D01*
X158429532Y-101295793D01*
X158223500Y-101316085D01*
X158017469Y-101295793D01*
X157819355Y-101235695D01*
X157819352Y-101235694D01*
X157698453Y-101171072D01*
X157636772Y-101138103D01*
X157476736Y-101006765D01*
X157345398Y-100846729D01*
X157287540Y-100738484D01*
X157247807Y-100664149D01*
X157221177Y-100576362D01*
X157187708Y-100466032D01*
X157172501Y-100311630D01*
X157172500Y-98208371D01*
X157187707Y-98053969D01*
X157247805Y-97855855D01*
X157247806Y-97855852D01*
X157283021Y-97789970D01*
X157345397Y-97673271D01*
X157476735Y-97513235D01*
X157636771Y-97381897D01*
X157722525Y-97336061D01*
X157819351Y-97284306D01*
X157819354Y-97284305D01*
X158017468Y-97224207D01*
X158223500Y-97203915D01*
X158429531Y-97224207D01*
X158429531Y-97224207D01*
G37*
G36*
X178929531Y-97224207D02*
G01*
X179127645Y-97284305D01*
X179127648Y-97284306D01*
X179193530Y-97319521D01*
X179310229Y-97381897D01*
X179470265Y-97513235D01*
X179601603Y-97673271D01*
X179601604Y-97673273D01*
X179699194Y-97855851D01*
X179699194Y-97855852D01*
X179699195Y-97855854D01*
X179759293Y-98053968D01*
X179774500Y-98208370D01*
X179774500Y-100311630D01*
X179759293Y-100466032D01*
X179725824Y-100576362D01*
X179699194Y-100664149D01*
X179659461Y-100738484D01*
X179601603Y-100846729D01*
X179470265Y-101006765D01*
X179310229Y-101138103D01*
X179248548Y-101171072D01*
X179127649Y-101235694D01*
X179127646Y-101235695D01*
X178929532Y-101295793D01*
X178723500Y-101316085D01*
X178517469Y-101295793D01*
X178319355Y-101235695D01*
X178319352Y-101235694D01*
X178198453Y-101171072D01*
X178136772Y-101138103D01*
X177976736Y-101006765D01*
X177845398Y-100846729D01*
X177787540Y-100738484D01*
X177747807Y-100664149D01*
X177721177Y-100576362D01*
X177687708Y-100466032D01*
X177672501Y-100311630D01*
X177672500Y-98208371D01*
X177687707Y-98053969D01*
X177747805Y-97855855D01*
X177747806Y-97855852D01*
X177783021Y-97789970D01*
X177845397Y-97673271D01*
X177976735Y-97513235D01*
X178136771Y-97381897D01*
X178222525Y-97336061D01*
X178319351Y-97284306D01*
X178319354Y-97284305D01*
X178517468Y-97224207D01*
X178723500Y-97203915D01*
X178929531Y-97224207D01*
X178929531Y-97224207D01*
G37*
G36*
X150929531Y-97224207D02*
G01*
X151127645Y-97284305D01*
X151127648Y-97284306D01*
X151193530Y-97319521D01*
X151310229Y-97381897D01*
X151470265Y-97513235D01*
X151601603Y-97673271D01*
X151601604Y-97673273D01*
X151699194Y-97855851D01*
X151699194Y-97855852D01*
X151699195Y-97855854D01*
X151759293Y-98053968D01*
X151774500Y-98208370D01*
X151774500Y-100311630D01*
X151759293Y-100466032D01*
X151725824Y-100576362D01*
X151699194Y-100664149D01*
X151659461Y-100738484D01*
X151601603Y-100846729D01*
X151470265Y-101006765D01*
X151310229Y-101138103D01*
X151248548Y-101171072D01*
X151127649Y-101235694D01*
X151127646Y-101235695D01*
X150929532Y-101295793D01*
X150723500Y-101316085D01*
X150517469Y-101295793D01*
X150319355Y-101235695D01*
X150319352Y-101235694D01*
X150198453Y-101171072D01*
X150136772Y-101138103D01*
X149976736Y-101006765D01*
X149845398Y-100846729D01*
X149787540Y-100738484D01*
X149747807Y-100664149D01*
X149721177Y-100576362D01*
X149687708Y-100466032D01*
X149672501Y-100311630D01*
X149672500Y-98208371D01*
X149687707Y-98053969D01*
X149747805Y-97855855D01*
X149747806Y-97855852D01*
X149783021Y-97789970D01*
X149845397Y-97673271D01*
X149976735Y-97513235D01*
X150136771Y-97381897D01*
X150222525Y-97336061D01*
X150319351Y-97284306D01*
X150319354Y-97284305D01*
X150517468Y-97224207D01*
X150723500Y-97203915D01*
X150929531Y-97224207D01*
X150929531Y-97224207D01*
G37*
G36*
X186429531Y-97224207D02*
G01*
X186627645Y-97284305D01*
X186627648Y-97284306D01*
X186693530Y-97319521D01*
X186810229Y-97381897D01*
X186970265Y-97513235D01*
X187101603Y-97673271D01*
X187101604Y-97673273D01*
X187199194Y-97855851D01*
X187199194Y-97855852D01*
X187199195Y-97855854D01*
X187259293Y-98053968D01*
X187274500Y-98208370D01*
X187274500Y-100311630D01*
X187259293Y-100466032D01*
X187225824Y-100576362D01*
X187199194Y-100664149D01*
X187159461Y-100738484D01*
X187101603Y-100846729D01*
X186970265Y-101006765D01*
X186810229Y-101138103D01*
X186748548Y-101171072D01*
X186627649Y-101235694D01*
X186627646Y-101235695D01*
X186429532Y-101295793D01*
X186223500Y-101316085D01*
X186017469Y-101295793D01*
X185819355Y-101235695D01*
X185819352Y-101235694D01*
X185698453Y-101171072D01*
X185636772Y-101138103D01*
X185476736Y-101006765D01*
X185345398Y-100846729D01*
X185287540Y-100738484D01*
X185247807Y-100664149D01*
X185221177Y-100576362D01*
X185187708Y-100466032D01*
X185172501Y-100311630D01*
X185172500Y-98208371D01*
X185187707Y-98053969D01*
X185247805Y-97855855D01*
X185247806Y-97855852D01*
X185283021Y-97789970D01*
X185345397Y-97673271D01*
X185476735Y-97513235D01*
X185636771Y-97381897D01*
X185722525Y-97336061D01*
X185819351Y-97284306D01*
X185819354Y-97284305D01*
X186017468Y-97224207D01*
X186223500Y-97203915D01*
X186429531Y-97224207D01*
X186429531Y-97224207D01*
G37*
G36*
X142229232Y-99761097D02*
G01*
X142304225Y-99776014D01*
X142334605Y-99788598D01*
X142441626Y-99832927D01*
X142565284Y-99915553D01*
X142670447Y-100020716D01*
X142753073Y-100144374D01*
X142809986Y-100281776D01*
X142839000Y-100427638D01*
X142839000Y-100576362D01*
X142809986Y-100722224D01*
X142753073Y-100859626D01*
X142670447Y-100983284D01*
X142565284Y-101088447D01*
X142441626Y-101171073D01*
X142361138Y-101204412D01*
X142304225Y-101227986D01*
X142265474Y-101235694D01*
X142158362Y-101257000D01*
X142009638Y-101257000D01*
X141902526Y-101235694D01*
X141863775Y-101227986D01*
X141806862Y-101204412D01*
X141726374Y-101171073D01*
X141602716Y-101088447D01*
X141497553Y-100983284D01*
X141414927Y-100859626D01*
X141358014Y-100722224D01*
X141329000Y-100576362D01*
X141329000Y-100427638D01*
X141358014Y-100281776D01*
X141414927Y-100144374D01*
X141497553Y-100020716D01*
X141602716Y-99915553D01*
X141726374Y-99832927D01*
X141833395Y-99788598D01*
X141863775Y-99776014D01*
X141938768Y-99761097D01*
X142009638Y-99747000D01*
X142158362Y-99747000D01*
X142229232Y-99761097D01*
X142229232Y-99761097D01*
G37*
G36*
X135429232Y-99761097D02*
G01*
X135504225Y-99776014D01*
X135534605Y-99788598D01*
X135641626Y-99832927D01*
X135765284Y-99915553D01*
X135870447Y-100020716D01*
X135953073Y-100144374D01*
X136009986Y-100281776D01*
X136039000Y-100427638D01*
X136039000Y-100576362D01*
X136009986Y-100722224D01*
X135953073Y-100859626D01*
X135870447Y-100983284D01*
X135765284Y-101088447D01*
X135641626Y-101171073D01*
X135561138Y-101204412D01*
X135504225Y-101227986D01*
X135465474Y-101235694D01*
X135358362Y-101257000D01*
X135209638Y-101257000D01*
X135102526Y-101235694D01*
X135063775Y-101227986D01*
X135006862Y-101204412D01*
X134926374Y-101171073D01*
X134802716Y-101088447D01*
X134697553Y-100983284D01*
X134614927Y-100859626D01*
X134558014Y-100722224D01*
X134529000Y-100576362D01*
X134529000Y-100427638D01*
X134558014Y-100281776D01*
X134614927Y-100144374D01*
X134697553Y-100020716D01*
X134802716Y-99915553D01*
X134926374Y-99832927D01*
X135033395Y-99788598D01*
X135063775Y-99776014D01*
X135138768Y-99761097D01*
X135209638Y-99747000D01*
X135358362Y-99747000D01*
X135429232Y-99761097D01*
X135429232Y-99761097D01*
G37*
G36*
X98838256Y-96689298D02*
G01*
X98944579Y-96710447D01*
X99157037Y-96798450D01*
X99211217Y-96820892D01*
X99245042Y-96834903D01*
X99515451Y-97015585D01*
X99745415Y-97245549D01*
X99926097Y-97515958D01*
X99926098Y-97515960D01*
X100050553Y-97816422D01*
X100114000Y-98135389D01*
X100114000Y-98460611D01*
X100071702Y-98673256D01*
X100050553Y-98779579D01*
X99926097Y-99080042D01*
X99745415Y-99350451D01*
X99515451Y-99580415D01*
X99245042Y-99761097D01*
X98944579Y-99885553D01*
X98838256Y-99906702D01*
X98625611Y-99949000D01*
X98300389Y-99949000D01*
X98087744Y-99906702D01*
X97981421Y-99885553D01*
X97680958Y-99761097D01*
X97410549Y-99580415D01*
X97180585Y-99350451D01*
X96999903Y-99080042D01*
X96875447Y-98779579D01*
X96854298Y-98673256D01*
X96812000Y-98460611D01*
X96812000Y-98135389D01*
X96875447Y-97816422D01*
X96999902Y-97515960D01*
X96999903Y-97515958D01*
X97180585Y-97245549D01*
X97410549Y-97015585D01*
X97680958Y-96834903D01*
X97714784Y-96820892D01*
X97768963Y-96798450D01*
X97981421Y-96710447D01*
X98087744Y-96689298D01*
X98300389Y-96647000D01*
X98625611Y-96647000D01*
X98838256Y-96689298D01*
X98838256Y-96689298D01*
G37*
G36*
X92346642Y-97971781D02*
G01*
X92492414Y-98032162D01*
X92492416Y-98032163D01*
X92623608Y-98119822D01*
X92735178Y-98231392D01*
X92822837Y-98362584D01*
X92822838Y-98362586D01*
X92883219Y-98508358D01*
X92914000Y-98663107D01*
X92914000Y-98820893D01*
X92883219Y-98975642D01*
X92839975Y-99080042D01*
X92822837Y-99121416D01*
X92735178Y-99252608D01*
X92623608Y-99364178D01*
X92492416Y-99451837D01*
X92492415Y-99451838D01*
X92492414Y-99451838D01*
X92346642Y-99512219D01*
X92189862Y-99543404D01*
X92166413Y-99550517D01*
X92144803Y-99562068D01*
X92125861Y-99577613D01*
X92113000Y-99593283D01*
X92100140Y-99577613D01*
X92081198Y-99562068D01*
X92059587Y-99550517D01*
X92036138Y-99543404D01*
X91879358Y-99512219D01*
X91733586Y-99451838D01*
X91733585Y-99451838D01*
X91733584Y-99451837D01*
X91602392Y-99364178D01*
X91490822Y-99252608D01*
X91403163Y-99121416D01*
X91386025Y-99080042D01*
X91342781Y-98975642D01*
X91312000Y-98820893D01*
X91312000Y-98663107D01*
X91342781Y-98508358D01*
X91403162Y-98362586D01*
X91403163Y-98362584D01*
X91490822Y-98231392D01*
X91602392Y-98119822D01*
X91733584Y-98032163D01*
X91733586Y-98032162D01*
X91879358Y-97971781D01*
X92034107Y-97941000D01*
X92191893Y-97941000D01*
X92346642Y-97971781D01*
X92346642Y-97971781D01*
G37*
G36*
X92346642Y-95971781D02*
G01*
X92492414Y-96032162D01*
X92492416Y-96032163D01*
X92623608Y-96119822D01*
X92735178Y-96231392D01*
X92822837Y-96362584D01*
X92822838Y-96362586D01*
X92883219Y-96508358D01*
X92914000Y-96663107D01*
X92914000Y-96820893D01*
X92883219Y-96975642D01*
X92866674Y-97015584D01*
X92822837Y-97121416D01*
X92735178Y-97252608D01*
X92623608Y-97364178D01*
X92492416Y-97451837D01*
X92492415Y-97451838D01*
X92492414Y-97451838D01*
X92346642Y-97512219D01*
X92191893Y-97543000D01*
X92034107Y-97543000D01*
X91879358Y-97512219D01*
X91733586Y-97451838D01*
X91733585Y-97451838D01*
X91733584Y-97451837D01*
X91602392Y-97364178D01*
X91490822Y-97252608D01*
X91403163Y-97121416D01*
X91359326Y-97015584D01*
X91342781Y-96975642D01*
X91312000Y-96820893D01*
X91312000Y-96663107D01*
X91342781Y-96508358D01*
X91403162Y-96362586D01*
X91403163Y-96362584D01*
X91490822Y-96231392D01*
X91602392Y-96119822D01*
X91733584Y-96032163D01*
X91733586Y-96032162D01*
X91879358Y-95971781D01*
X92034107Y-95941000D01*
X92191893Y-95941000D01*
X92346642Y-95971781D01*
X92346642Y-95971781D01*
G37*
G36*
X187807860Y-93404388D02*
G01*
X187826802Y-93419934D01*
X187848413Y-93431485D01*
X187871862Y-93438598D01*
X187896248Y-93441000D01*
X187898516Y-93441000D01*
X188101564Y-93481389D01*
X188292833Y-93560615D01*
X188292835Y-93560616D01*
X188464973Y-93675635D01*
X188611365Y-93822027D01*
X188726385Y-93994167D01*
X188805611Y-94185436D01*
X188846000Y-94388484D01*
X188846000Y-94595516D01*
X188805611Y-94798564D01*
X188726385Y-94989833D01*
X188726384Y-94989835D01*
X188611365Y-95161973D01*
X188464973Y-95308365D01*
X188292835Y-95423384D01*
X188292834Y-95423385D01*
X188292833Y-95423385D01*
X188101564Y-95502611D01*
X187898516Y-95543000D01*
X187691484Y-95543000D01*
X187488436Y-95502611D01*
X187297167Y-95423385D01*
X187297166Y-95423385D01*
X187297165Y-95423384D01*
X187125027Y-95308365D01*
X186978635Y-95161973D01*
X186863616Y-94989835D01*
X186863615Y-94989833D01*
X186784389Y-94798564D01*
X186744000Y-94595516D01*
X186744000Y-94388484D01*
X186784389Y-94185436D01*
X186863615Y-93994167D01*
X186978635Y-93822027D01*
X187125027Y-93675635D01*
X187297165Y-93560616D01*
X187297167Y-93560615D01*
X187488436Y-93481389D01*
X187691484Y-93441000D01*
X187693752Y-93441000D01*
X187718138Y-93438598D01*
X187741587Y-93431485D01*
X187763198Y-93419934D01*
X187782140Y-93404389D01*
X187795000Y-93388718D01*
X187807860Y-93404388D01*
X187807860Y-93404388D01*
G37*
G36*
X92346642Y-93971781D02*
G01*
X92492414Y-94032162D01*
X92492416Y-94032163D01*
X92623608Y-94119822D01*
X92735178Y-94231392D01*
X92822837Y-94362584D01*
X92822838Y-94362586D01*
X92883219Y-94508358D01*
X92914000Y-94663107D01*
X92914000Y-94820893D01*
X92883219Y-94975642D01*
X92822838Y-95121414D01*
X92822837Y-95121416D01*
X92735178Y-95252608D01*
X92623608Y-95364178D01*
X92492416Y-95451837D01*
X92492415Y-95451838D01*
X92492414Y-95451838D01*
X92346642Y-95512219D01*
X92191893Y-95543000D01*
X92034107Y-95543000D01*
X91879358Y-95512219D01*
X91733586Y-95451838D01*
X91733585Y-95451838D01*
X91733584Y-95451837D01*
X91602392Y-95364178D01*
X91490822Y-95252608D01*
X91403163Y-95121416D01*
X91403162Y-95121414D01*
X91342781Y-94975642D01*
X91312000Y-94820893D01*
X91312000Y-94663107D01*
X91342781Y-94508358D01*
X91403162Y-94362586D01*
X91403163Y-94362584D01*
X91490822Y-94231392D01*
X91602392Y-94119822D01*
X91733584Y-94032163D01*
X91733586Y-94032162D01*
X91879358Y-93971781D01*
X92034107Y-93941000D01*
X92191893Y-93941000D01*
X92346642Y-93971781D01*
X92346642Y-93971781D01*
G37*
G36*
X188028642Y-91621781D02*
G01*
X188174414Y-91682162D01*
X188174416Y-91682163D01*
X188305608Y-91769822D01*
X188417178Y-91881392D01*
X188504837Y-92012584D01*
X188504838Y-92012586D01*
X188565219Y-92158358D01*
X188596000Y-92313107D01*
X188596000Y-92470893D01*
X188565219Y-92625642D01*
X188504838Y-92771414D01*
X188504837Y-92771416D01*
X188417178Y-92902608D01*
X188305608Y-93014178D01*
X188174416Y-93101837D01*
X188174415Y-93101838D01*
X188174414Y-93101838D01*
X188028642Y-93162219D01*
X187871862Y-93193404D01*
X187848413Y-93200517D01*
X187826803Y-93212068D01*
X187807861Y-93227613D01*
X187795000Y-93243283D01*
X187782140Y-93227613D01*
X187763198Y-93212068D01*
X187741587Y-93200517D01*
X187718138Y-93193404D01*
X187561358Y-93162219D01*
X187415586Y-93101838D01*
X187415585Y-93101838D01*
X187415584Y-93101837D01*
X187284392Y-93014178D01*
X187172822Y-92902608D01*
X187085163Y-92771416D01*
X187085162Y-92771414D01*
X187024781Y-92625642D01*
X186994000Y-92470893D01*
X186994000Y-92313107D01*
X187024781Y-92158358D01*
X187085162Y-92012586D01*
X187085163Y-92012584D01*
X187172822Y-91881392D01*
X187284392Y-91769822D01*
X187415584Y-91682163D01*
X187415586Y-91682162D01*
X187561358Y-91621781D01*
X187716107Y-91591000D01*
X187873893Y-91591000D01*
X188028642Y-91621781D01*
X188028642Y-91621781D01*
G37*
G36*
X92125860Y-89906387D02*
G01*
X92144802Y-89921932D01*
X92166413Y-89933483D01*
X92189862Y-89940596D01*
X92346642Y-89971781D01*
X92492414Y-90032162D01*
X92492416Y-90032163D01*
X92623608Y-90119822D01*
X92735178Y-90231392D01*
X92822837Y-90362584D01*
X92822838Y-90362586D01*
X92883219Y-90508358D01*
X92914000Y-90663107D01*
X92914000Y-90820893D01*
X92883219Y-90975642D01*
X92822838Y-91121414D01*
X92822837Y-91121416D01*
X92735178Y-91252608D01*
X92623608Y-91364178D01*
X92492416Y-91451837D01*
X92492415Y-91451838D01*
X92492414Y-91451838D01*
X92346642Y-91512219D01*
X92191893Y-91543000D01*
X92034107Y-91543000D01*
X91879358Y-91512219D01*
X91733586Y-91451838D01*
X91733585Y-91451838D01*
X91733584Y-91451837D01*
X91602392Y-91364178D01*
X91490822Y-91252608D01*
X91403163Y-91121416D01*
X91403162Y-91121414D01*
X91342781Y-90975642D01*
X91312000Y-90820893D01*
X91312000Y-90663107D01*
X91342781Y-90508358D01*
X91403162Y-90362586D01*
X91403163Y-90362584D01*
X91490822Y-90231392D01*
X91602392Y-90119822D01*
X91733584Y-90032163D01*
X91733586Y-90032162D01*
X91879358Y-89971781D01*
X92036138Y-89940596D01*
X92059587Y-89933483D01*
X92081197Y-89921932D01*
X92100139Y-89906387D01*
X92113000Y-89890717D01*
X92125860Y-89906387D01*
X92125860Y-89906387D01*
G37*
G36*
X92419564Y-87631389D02*
G01*
X92610833Y-87710615D01*
X92610835Y-87710616D01*
X92699443Y-87769822D01*
X92782973Y-87825635D01*
X92929365Y-87972027D01*
X93044385Y-88144167D01*
X93123611Y-88335436D01*
X93164000Y-88538484D01*
X93164000Y-88745516D01*
X93123611Y-88948564D01*
X93064797Y-89090553D01*
X93044384Y-89139835D01*
X92929365Y-89311973D01*
X92782973Y-89458365D01*
X92610835Y-89573384D01*
X92610834Y-89573385D01*
X92610833Y-89573385D01*
X92419564Y-89652611D01*
X92216516Y-89693000D01*
X92214248Y-89693000D01*
X92189862Y-89695402D01*
X92166413Y-89702515D01*
X92144802Y-89714066D01*
X92125860Y-89729611D01*
X92113000Y-89745282D01*
X92100140Y-89729612D01*
X92081198Y-89714066D01*
X92059587Y-89702515D01*
X92036138Y-89695402D01*
X92011752Y-89693000D01*
X92009484Y-89693000D01*
X91806436Y-89652611D01*
X91615167Y-89573385D01*
X91615166Y-89573385D01*
X91615165Y-89573384D01*
X91443027Y-89458365D01*
X91296635Y-89311973D01*
X91181616Y-89139835D01*
X91161203Y-89090553D01*
X91102389Y-88948564D01*
X91062000Y-88745516D01*
X91062000Y-88538484D01*
X91102389Y-88335436D01*
X91181615Y-88144167D01*
X91296635Y-87972027D01*
X91443027Y-87825635D01*
X91526557Y-87769822D01*
X91615165Y-87710616D01*
X91615167Y-87710615D01*
X91806436Y-87631389D01*
X92009484Y-87591000D01*
X92216516Y-87591000D01*
X92419564Y-87631389D01*
X92419564Y-87631389D01*
G37*
G36*
X188028642Y-87621781D02*
G01*
X188174414Y-87682162D01*
X188174416Y-87682163D01*
X188305608Y-87769822D01*
X188417178Y-87881392D01*
X188504837Y-88012584D01*
X188504838Y-88012586D01*
X188565219Y-88158358D01*
X188596000Y-88313107D01*
X188596000Y-88470893D01*
X188565219Y-88625642D01*
X188515566Y-88745514D01*
X188504837Y-88771416D01*
X188417178Y-88902608D01*
X188305608Y-89014178D01*
X188174416Y-89101837D01*
X188174415Y-89101838D01*
X188174414Y-89101838D01*
X188028642Y-89162219D01*
X187873893Y-89193000D01*
X187716107Y-89193000D01*
X187561358Y-89162219D01*
X187415586Y-89101838D01*
X187415585Y-89101838D01*
X187415584Y-89101837D01*
X187284392Y-89014178D01*
X187172822Y-88902608D01*
X187085163Y-88771416D01*
X187074434Y-88745514D01*
X187024781Y-88625642D01*
X186994000Y-88470893D01*
X186994000Y-88313107D01*
X187024781Y-88158358D01*
X187085162Y-88012586D01*
X187085163Y-88012584D01*
X187172822Y-87881392D01*
X187284392Y-87769822D01*
X187415584Y-87682163D01*
X187415586Y-87682162D01*
X187561358Y-87621781D01*
X187716107Y-87591000D01*
X187873893Y-87591000D01*
X188028642Y-87621781D01*
X188028642Y-87621781D01*
G37*
G36*
X178326373Y-85881392D02*
G01*
X178497579Y-85915447D01*
X178798042Y-86039903D01*
X179068451Y-86220585D01*
X179298415Y-86450549D01*
X179479097Y-86720958D01*
X179600553Y-87014178D01*
X179603553Y-87021422D01*
X179667000Y-87340389D01*
X179667000Y-87665611D01*
X179658048Y-87710615D01*
X179603553Y-87984579D01*
X179479097Y-88285042D01*
X179298415Y-88555451D01*
X179068451Y-88785415D01*
X178798042Y-88966097D01*
X178497579Y-89090553D01*
X178440850Y-89101837D01*
X178178611Y-89154000D01*
X177853389Y-89154000D01*
X177591150Y-89101837D01*
X177534421Y-89090553D01*
X177233958Y-88966097D01*
X176963549Y-88785415D01*
X176733585Y-88555451D01*
X176552903Y-88285042D01*
X176428447Y-87984579D01*
X176373952Y-87710615D01*
X176365000Y-87665611D01*
X176365000Y-87340389D01*
X176428447Y-87021422D01*
X176431448Y-87014178D01*
X176552903Y-86720958D01*
X176733585Y-86450549D01*
X176963549Y-86220585D01*
X177233958Y-86039903D01*
X177534421Y-85915447D01*
X177705627Y-85881392D01*
X177853389Y-85852000D01*
X178178611Y-85852000D01*
X178326373Y-85881392D01*
X178326373Y-85881392D01*
G37*
G36*
X188028642Y-85621781D02*
G01*
X188174414Y-85682162D01*
X188174416Y-85682163D01*
X188305608Y-85769822D01*
X188417178Y-85881392D01*
X188490760Y-85991516D01*
X188504838Y-86012586D01*
X188565219Y-86158358D01*
X188596000Y-86313107D01*
X188596000Y-86470893D01*
X188565219Y-86625642D01*
X188525737Y-86720960D01*
X188504837Y-86771416D01*
X188417178Y-86902608D01*
X188305608Y-87014178D01*
X188174416Y-87101837D01*
X188174415Y-87101838D01*
X188174414Y-87101838D01*
X188028642Y-87162219D01*
X187873893Y-87193000D01*
X187716107Y-87193000D01*
X187561358Y-87162219D01*
X187415586Y-87101838D01*
X187415585Y-87101838D01*
X187415584Y-87101837D01*
X187284392Y-87014178D01*
X187172822Y-86902608D01*
X187085163Y-86771416D01*
X187064263Y-86720960D01*
X187024781Y-86625642D01*
X186994000Y-86470893D01*
X186994000Y-86313107D01*
X187024781Y-86158358D01*
X187085162Y-86012586D01*
X187099240Y-85991516D01*
X187172822Y-85881392D01*
X187284392Y-85769822D01*
X187415584Y-85682163D01*
X187415586Y-85682162D01*
X187561358Y-85621781D01*
X187716107Y-85591000D01*
X187873893Y-85591000D01*
X188028642Y-85621781D01*
X188028642Y-85621781D01*
G37*
G36*
X92125860Y-84800388D02*
G01*
X92144802Y-84815934D01*
X92166413Y-84827485D01*
X92189862Y-84834598D01*
X92214248Y-84837000D01*
X92216516Y-84837000D01*
X92419564Y-84877389D01*
X92610833Y-84956615D01*
X92610835Y-84956616D01*
X92782973Y-85071635D01*
X92929365Y-85218027D01*
X93044385Y-85390167D01*
X93123611Y-85581436D01*
X93164000Y-85784484D01*
X93164000Y-85991516D01*
X93123611Y-86194564D01*
X93044385Y-86385833D01*
X93044384Y-86385835D01*
X92929365Y-86557973D01*
X92782973Y-86704365D01*
X92610835Y-86819384D01*
X92610834Y-86819385D01*
X92610833Y-86819385D01*
X92419564Y-86898611D01*
X92216516Y-86939000D01*
X92009484Y-86939000D01*
X91806436Y-86898611D01*
X91615167Y-86819385D01*
X91615166Y-86819385D01*
X91615165Y-86819384D01*
X91443027Y-86704365D01*
X91296635Y-86557973D01*
X91181616Y-86385835D01*
X91181615Y-86385833D01*
X91102389Y-86194564D01*
X91062000Y-85991516D01*
X91062000Y-85784484D01*
X91102389Y-85581436D01*
X91181615Y-85390167D01*
X91296635Y-85218027D01*
X91443027Y-85071635D01*
X91615165Y-84956616D01*
X91615167Y-84956615D01*
X91806436Y-84877389D01*
X92009484Y-84837000D01*
X92011752Y-84837000D01*
X92036138Y-84834598D01*
X92059587Y-84827485D01*
X92081198Y-84815934D01*
X92100140Y-84800389D01*
X92113000Y-84784718D01*
X92125860Y-84800388D01*
X92125860Y-84800388D01*
G37*
G36*
X187807860Y-83556387D02*
G01*
X187826802Y-83571932D01*
X187848413Y-83583483D01*
X187871862Y-83590596D01*
X188028642Y-83621781D01*
X188174414Y-83682162D01*
X188174416Y-83682163D01*
X188305608Y-83769822D01*
X188417178Y-83881392D01*
X188504837Y-84012584D01*
X188504838Y-84012586D01*
X188565219Y-84158358D01*
X188596000Y-84313107D01*
X188596000Y-84470893D01*
X188565219Y-84625642D01*
X188504838Y-84771414D01*
X188504837Y-84771416D01*
X188417178Y-84902608D01*
X188305608Y-85014178D01*
X188174416Y-85101837D01*
X188174415Y-85101838D01*
X188174414Y-85101838D01*
X188028642Y-85162219D01*
X187873893Y-85193000D01*
X187716107Y-85193000D01*
X187561358Y-85162219D01*
X187415586Y-85101838D01*
X187415585Y-85101838D01*
X187415584Y-85101837D01*
X187284392Y-85014178D01*
X187172822Y-84902608D01*
X187085163Y-84771416D01*
X187085162Y-84771414D01*
X187024781Y-84625642D01*
X186994000Y-84470893D01*
X186994000Y-84313107D01*
X187024781Y-84158358D01*
X187085162Y-84012586D01*
X187085163Y-84012584D01*
X187172822Y-83881392D01*
X187284392Y-83769822D01*
X187415584Y-83682163D01*
X187415586Y-83682162D01*
X187561358Y-83621781D01*
X187718138Y-83590596D01*
X187741587Y-83583483D01*
X187763197Y-83571932D01*
X187782139Y-83556387D01*
X187795000Y-83540717D01*
X187807860Y-83556387D01*
X187807860Y-83556387D01*
G37*
G36*
X92346642Y-83017781D02*
G01*
X92492414Y-83078162D01*
X92492416Y-83078163D01*
X92623608Y-83165822D01*
X92735178Y-83277392D01*
X92813949Y-83395282D01*
X92822838Y-83408586D01*
X92883219Y-83554358D01*
X92914000Y-83709107D01*
X92914000Y-83866893D01*
X92883219Y-84021642D01*
X92826589Y-84158358D01*
X92822837Y-84167416D01*
X92735178Y-84298608D01*
X92623608Y-84410178D01*
X92492416Y-84497837D01*
X92492415Y-84497838D01*
X92492414Y-84497838D01*
X92346642Y-84558219D01*
X92189862Y-84589404D01*
X92166413Y-84596517D01*
X92144803Y-84608068D01*
X92125861Y-84623613D01*
X92113000Y-84639283D01*
X92100140Y-84623613D01*
X92081198Y-84608068D01*
X92059587Y-84596517D01*
X92036138Y-84589404D01*
X91879358Y-84558219D01*
X91733586Y-84497838D01*
X91733585Y-84497838D01*
X91733584Y-84497837D01*
X91602392Y-84410178D01*
X91490822Y-84298608D01*
X91403163Y-84167416D01*
X91399411Y-84158358D01*
X91342781Y-84021642D01*
X91312000Y-83866893D01*
X91312000Y-83709107D01*
X91342781Y-83554358D01*
X91403162Y-83408586D01*
X91412051Y-83395282D01*
X91490822Y-83277392D01*
X91602392Y-83165822D01*
X91733584Y-83078163D01*
X91733586Y-83078162D01*
X91879358Y-83017781D01*
X92034107Y-82987000D01*
X92191893Y-82987000D01*
X92346642Y-83017781D01*
X92346642Y-83017781D01*
G37*
G36*
X188101564Y-81281389D02*
G01*
X188292833Y-81360615D01*
X188292835Y-81360616D01*
X188464973Y-81475635D01*
X188611365Y-81622027D01*
X188722265Y-81788000D01*
X188726385Y-81794167D01*
X188805611Y-81985436D01*
X188846000Y-82188484D01*
X188846000Y-82395516D01*
X188805611Y-82598564D01*
X188726385Y-82789833D01*
X188726384Y-82789835D01*
X188611365Y-82961973D01*
X188464973Y-83108365D01*
X188292835Y-83223384D01*
X188292834Y-83223385D01*
X188292833Y-83223385D01*
X188101564Y-83302611D01*
X187898516Y-83343000D01*
X187896248Y-83343000D01*
X187871862Y-83345402D01*
X187848413Y-83352515D01*
X187826802Y-83364066D01*
X187807860Y-83379611D01*
X187795000Y-83395282D01*
X187782140Y-83379612D01*
X187763198Y-83364066D01*
X187741587Y-83352515D01*
X187718138Y-83345402D01*
X187693752Y-83343000D01*
X187691484Y-83343000D01*
X187488436Y-83302611D01*
X187297167Y-83223385D01*
X187297166Y-83223385D01*
X187297165Y-83223384D01*
X187125027Y-83108365D01*
X186978635Y-82961973D01*
X186863616Y-82789835D01*
X186863615Y-82789833D01*
X186784389Y-82598564D01*
X186744000Y-82395516D01*
X186744000Y-82188484D01*
X186784389Y-81985436D01*
X186863615Y-81794167D01*
X186867736Y-81788000D01*
X186978635Y-81622027D01*
X187125027Y-81475635D01*
X187297165Y-81360616D01*
X187297167Y-81360615D01*
X187488436Y-81281389D01*
X187691484Y-81241000D01*
X187898516Y-81241000D01*
X188101564Y-81281389D01*
X188101564Y-81281389D01*
G37*
G36*
X92346642Y-81017781D02*
G01*
X92492414Y-81078162D01*
X92492416Y-81078163D01*
X92623608Y-81165822D01*
X92735178Y-81277392D01*
X92737849Y-81281390D01*
X92822838Y-81408586D01*
X92883219Y-81554358D01*
X92914000Y-81709107D01*
X92914000Y-81866893D01*
X92883219Y-82021642D01*
X92874786Y-82042000D01*
X92822837Y-82167416D01*
X92735178Y-82298608D01*
X92623608Y-82410178D01*
X92492416Y-82497837D01*
X92492415Y-82497838D01*
X92492414Y-82497838D01*
X92346642Y-82558219D01*
X92191893Y-82589000D01*
X92034107Y-82589000D01*
X91879358Y-82558219D01*
X91733586Y-82497838D01*
X91733585Y-82497838D01*
X91733584Y-82497837D01*
X91602392Y-82410178D01*
X91490822Y-82298608D01*
X91403163Y-82167416D01*
X91351214Y-82042000D01*
X91342781Y-82021642D01*
X91312000Y-81866893D01*
X91312000Y-81709107D01*
X91342781Y-81554358D01*
X91403162Y-81408586D01*
X91488151Y-81281390D01*
X91490822Y-81277392D01*
X91602392Y-81165822D01*
X91733584Y-81078163D01*
X91733586Y-81078162D01*
X91879358Y-81017781D01*
X92034107Y-80987000D01*
X92191893Y-80987000D01*
X92346642Y-81017781D01*
X92346642Y-81017781D01*
G37*
G36*
X161885638Y-78775611D02*
G01*
X162025579Y-78803447D01*
X162326042Y-78927903D01*
X162596451Y-79108585D01*
X162826415Y-79338549D01*
X162970614Y-79554358D01*
X163007098Y-79608960D01*
X163131553Y-79909422D01*
X163195000Y-80228389D01*
X163195000Y-80553611D01*
X163182077Y-80618578D01*
X163131553Y-80872579D01*
X163007097Y-81173042D01*
X162826415Y-81443451D01*
X162596451Y-81673415D01*
X162326042Y-81854097D01*
X162025579Y-81978553D01*
X161919256Y-81999702D01*
X161706611Y-82042000D01*
X161381389Y-82042000D01*
X161168744Y-81999702D01*
X161062421Y-81978553D01*
X160761958Y-81854097D01*
X160491549Y-81673415D01*
X160261585Y-81443451D01*
X160080903Y-81173042D01*
X159956447Y-80872579D01*
X159905923Y-80618578D01*
X159893000Y-80553611D01*
X159893000Y-80228389D01*
X159956447Y-79909422D01*
X160080902Y-79608960D01*
X160117386Y-79554358D01*
X160261585Y-79338549D01*
X160491549Y-79108585D01*
X160761958Y-78927903D01*
X161062421Y-78803447D01*
X161202362Y-78775611D01*
X161381389Y-78740000D01*
X161706611Y-78740000D01*
X161885638Y-78775611D01*
X161885638Y-78775611D01*
G37*
G36*
X118739256Y-78528298D02*
G01*
X118845579Y-78549447D01*
X119014424Y-78619385D01*
X119118820Y-78662627D01*
X119146042Y-78673903D01*
X119416451Y-78854585D01*
X119646415Y-79084549D01*
X119816134Y-79338551D01*
X119827098Y-79354960D01*
X119951553Y-79655422D01*
X120015000Y-79974389D01*
X120015000Y-80299611D01*
X119975570Y-80497837D01*
X119951553Y-80618579D01*
X119827097Y-80919042D01*
X119646415Y-81189451D01*
X119416451Y-81419415D01*
X119146042Y-81600097D01*
X119146041Y-81600098D01*
X119146040Y-81600098D01*
X119058037Y-81636550D01*
X118845579Y-81724553D01*
X118739256Y-81745702D01*
X118526611Y-81788000D01*
X118201389Y-81788000D01*
X117988744Y-81745702D01*
X117882421Y-81724553D01*
X117669963Y-81636550D01*
X117581960Y-81600098D01*
X117581959Y-81600098D01*
X117581958Y-81600097D01*
X117311549Y-81419415D01*
X117081585Y-81189451D01*
X116900903Y-80919042D01*
X116776447Y-80618579D01*
X116752430Y-80497837D01*
X116713000Y-80299611D01*
X116713000Y-79974389D01*
X116776447Y-79655422D01*
X116900902Y-79354960D01*
X116911866Y-79338551D01*
X117081585Y-79084549D01*
X117311549Y-78854585D01*
X117581958Y-78673903D01*
X117609181Y-78662627D01*
X117713576Y-78619385D01*
X117882421Y-78549447D01*
X117988744Y-78528298D01*
X118201389Y-78486000D01*
X118526611Y-78486000D01*
X118739256Y-78528298D01*
X118739256Y-78528298D01*
G37*
G36*
X92125860Y-78952387D02*
G01*
X92144802Y-78967932D01*
X92166413Y-78979483D01*
X92189862Y-78986596D01*
X92346642Y-79017781D01*
X92492414Y-79078162D01*
X92492416Y-79078163D01*
X92623608Y-79165822D01*
X92735178Y-79277392D01*
X92799704Y-79373963D01*
X92822838Y-79408586D01*
X92883219Y-79554358D01*
X92914000Y-79709107D01*
X92914000Y-79866893D01*
X92883219Y-80021642D01*
X92822838Y-80167414D01*
X92822837Y-80167416D01*
X92735178Y-80298608D01*
X92623608Y-80410178D01*
X92492416Y-80497837D01*
X92492415Y-80497838D01*
X92492414Y-80497838D01*
X92346642Y-80558219D01*
X92191893Y-80589000D01*
X92034107Y-80589000D01*
X91879358Y-80558219D01*
X91733586Y-80497838D01*
X91733585Y-80497838D01*
X91733584Y-80497837D01*
X91602392Y-80410178D01*
X91490822Y-80298608D01*
X91403163Y-80167416D01*
X91403162Y-80167414D01*
X91342781Y-80021642D01*
X91312000Y-79866893D01*
X91312000Y-79709107D01*
X91342781Y-79554358D01*
X91403162Y-79408586D01*
X91426296Y-79373963D01*
X91490822Y-79277392D01*
X91602392Y-79165822D01*
X91733584Y-79078163D01*
X91733586Y-79078162D01*
X91879358Y-79017781D01*
X92036138Y-78986596D01*
X92059587Y-78979483D01*
X92081197Y-78967932D01*
X92100139Y-78952387D01*
X92113000Y-78936717D01*
X92125860Y-78952387D01*
X92125860Y-78952387D01*
G37*
G36*
X106057000Y-79387000D02*
G01*
X104255000Y-79387000D01*
X104255000Y-77585000D01*
X106057000Y-77585000D01*
X106057000Y-79387000D01*
X106057000Y-79387000D01*
G37*
G36*
X107806442Y-77591518D02*
G01*
X107872627Y-77598037D01*
X108042466Y-77649557D01*
X108198991Y-77733222D01*
X108234729Y-77762552D01*
X108336186Y-77845814D01*
X108419448Y-77947271D01*
X108448778Y-77983009D01*
X108532443Y-78139534D01*
X108583963Y-78309373D01*
X108601359Y-78486000D01*
X108583963Y-78662627D01*
X108532443Y-78832466D01*
X108448778Y-78988991D01*
X108425150Y-79017781D01*
X108336186Y-79126186D01*
X108234729Y-79209448D01*
X108198991Y-79238778D01*
X108042466Y-79322443D01*
X107872627Y-79373963D01*
X107806442Y-79380482D01*
X107740260Y-79387000D01*
X107651740Y-79387000D01*
X107585558Y-79380482D01*
X107519373Y-79373963D01*
X107349534Y-79322443D01*
X107193009Y-79238778D01*
X107157271Y-79209448D01*
X107055814Y-79126186D01*
X106966850Y-79017781D01*
X106943222Y-78988991D01*
X106859557Y-78832466D01*
X106808037Y-78662627D01*
X106790641Y-78486000D01*
X106808037Y-78309373D01*
X106859557Y-78139534D01*
X106943222Y-77983009D01*
X106972552Y-77947271D01*
X107055814Y-77845814D01*
X107157271Y-77762552D01*
X107193009Y-77733222D01*
X107349534Y-77649557D01*
X107519373Y-77598037D01*
X107585558Y-77591518D01*
X107651740Y-77585000D01*
X107740260Y-77585000D01*
X107806442Y-77591518D01*
X107806442Y-77591518D01*
G37*
G36*
X110346442Y-77591518D02*
G01*
X110412627Y-77598037D01*
X110582466Y-77649557D01*
X110738991Y-77733222D01*
X110774729Y-77762552D01*
X110876186Y-77845814D01*
X110959448Y-77947271D01*
X110988778Y-77983009D01*
X111072443Y-78139534D01*
X111123963Y-78309373D01*
X111141359Y-78486000D01*
X111123963Y-78662627D01*
X111072443Y-78832466D01*
X110988778Y-78988991D01*
X110965150Y-79017781D01*
X110876186Y-79126186D01*
X110774729Y-79209448D01*
X110738991Y-79238778D01*
X110582466Y-79322443D01*
X110412627Y-79373963D01*
X110346442Y-79380482D01*
X110280260Y-79387000D01*
X110191740Y-79387000D01*
X110125558Y-79380482D01*
X110059373Y-79373963D01*
X109889534Y-79322443D01*
X109733009Y-79238778D01*
X109697271Y-79209448D01*
X109595814Y-79126186D01*
X109506850Y-79017781D01*
X109483222Y-78988991D01*
X109399557Y-78832466D01*
X109348037Y-78662627D01*
X109330641Y-78486000D01*
X109348037Y-78309373D01*
X109399557Y-78139534D01*
X109483222Y-77983009D01*
X109512552Y-77947271D01*
X109595814Y-77845814D01*
X109697271Y-77762552D01*
X109733009Y-77733222D01*
X109889534Y-77649557D01*
X110059373Y-77598037D01*
X110125558Y-77591518D01*
X110191740Y-77585000D01*
X110280260Y-77585000D01*
X110346442Y-77591518D01*
X110346442Y-77591518D01*
G37*
G36*
X92419564Y-76677389D02*
G01*
X92610833Y-76756615D01*
X92610835Y-76756616D01*
X92782973Y-76871635D01*
X92929365Y-77018027D01*
X93044385Y-77190167D01*
X93123611Y-77381436D01*
X93164000Y-77584484D01*
X93164000Y-77791516D01*
X93123611Y-77994564D01*
X93044385Y-78185833D01*
X93044384Y-78185835D01*
X92929365Y-78357973D01*
X92782973Y-78504365D01*
X92610835Y-78619384D01*
X92610834Y-78619385D01*
X92610833Y-78619385D01*
X92419564Y-78698611D01*
X92216516Y-78739000D01*
X92214248Y-78739000D01*
X92189862Y-78741402D01*
X92166413Y-78748515D01*
X92144802Y-78760066D01*
X92125860Y-78775611D01*
X92113000Y-78791282D01*
X92100140Y-78775612D01*
X92081198Y-78760066D01*
X92059587Y-78748515D01*
X92036138Y-78741402D01*
X92011752Y-78739000D01*
X92009484Y-78739000D01*
X91806436Y-78698611D01*
X91615167Y-78619385D01*
X91615166Y-78619385D01*
X91615165Y-78619384D01*
X91443027Y-78504365D01*
X91296635Y-78357973D01*
X91181616Y-78185835D01*
X91181615Y-78185833D01*
X91102389Y-77994564D01*
X91062000Y-77791516D01*
X91062000Y-77584484D01*
X91102389Y-77381436D01*
X91181615Y-77190167D01*
X91296635Y-77018027D01*
X91443027Y-76871635D01*
X91615165Y-76756616D01*
X91615167Y-76756615D01*
X91806436Y-76677389D01*
X92009484Y-76637000D01*
X92216516Y-76637000D01*
X92419564Y-76677389D01*
X92419564Y-76677389D01*
G37*
G36*
X145669180Y-63401000D02*
G01*
X144067180Y-63401000D01*
X144067180Y-60099000D01*
X145669180Y-60099000D01*
X145669180Y-63401000D01*
X145669180Y-63401000D01*
G37*
G36*
X143505544Y-63401000D02*
G01*
X141903544Y-63401000D01*
X141903544Y-60099000D01*
X143505544Y-60099000D01*
X143505544Y-63401000D01*
X143505544Y-63401000D01*
G37*
G36*
X141341908Y-63401000D02*
G01*
X139739908Y-63401000D01*
X139739908Y-60099000D01*
X141341908Y-60099000D01*
X141341908Y-63401000D01*
X141341908Y-63401000D01*
G37*
G36*
X139178272Y-63401000D02*
G01*
X137576272Y-63401000D01*
X137576272Y-60099000D01*
X139178272Y-60099000D01*
X139178272Y-63401000D01*
X139178272Y-63401000D01*
G37*
G36*
X137014636Y-63401000D02*
G01*
X135412636Y-63401000D01*
X135412636Y-60099000D01*
X137014636Y-60099000D01*
X137014636Y-63401000D01*
X137014636Y-63401000D01*
G37*
G36*
X134851000Y-63401000D02*
G01*
X133249000Y-63401000D01*
X133249000Y-60099000D01*
X134851000Y-60099000D01*
X134851000Y-63401000D01*
X134851000Y-63401000D01*
G37*
M02*
