G04 #@! TF.GenerationSoftware,KiCad,Pcbnew,(5.1.0)-1*
G04 #@! TF.CreationDate,2019-06-16T18:36:56-04:00*
G04 #@! TF.ProjectId,PSX Breakout,50535820-4272-4656-916b-6f75742e6b69,rev?*
G04 #@! TF.SameCoordinates,Original*
G04 #@! TF.FileFunction,Legend,Top*
G04 #@! TF.FilePolarity,Positive*
%FSLAX46Y46*%
G04 Gerber Fmt 4.6, Leading zero omitted, Abs format (unit mm)*
G04 Created by KiCad (PCBNEW (5.1.0)-1) date 2019-06-16 18:36:56*
%MOMM*%
%LPD*%
G04 APERTURE LIST*
%ADD10C,0.150000*%
%ADD11C,0.120000*%
%ADD12C,0.340000*%
%ADD13C,0.127000*%
%ADD14C,0.400000*%
G04 APERTURE END LIST*
D10*
X175919619Y-68334380D02*
X175919619Y-67334380D01*
X176300571Y-67334380D01*
X176395809Y-67382000D01*
X176443428Y-67429619D01*
X176491047Y-67524857D01*
X176491047Y-67667714D01*
X176443428Y-67762952D01*
X176395809Y-67810571D01*
X176300571Y-67858190D01*
X175919619Y-67858190D01*
X176872000Y-68286761D02*
X177014857Y-68334380D01*
X177252952Y-68334380D01*
X177348190Y-68286761D01*
X177395809Y-68239142D01*
X177443428Y-68143904D01*
X177443428Y-68048666D01*
X177395809Y-67953428D01*
X177348190Y-67905809D01*
X177252952Y-67858190D01*
X177062476Y-67810571D01*
X176967238Y-67762952D01*
X176919619Y-67715333D01*
X176872000Y-67620095D01*
X176872000Y-67524857D01*
X176919619Y-67429619D01*
X176967238Y-67382000D01*
X177062476Y-67334380D01*
X177300571Y-67334380D01*
X177443428Y-67382000D01*
X177776761Y-67334380D02*
X178443428Y-68334380D01*
X178443428Y-67334380D02*
X177776761Y-68334380D01*
X179919619Y-67810571D02*
X180062476Y-67858190D01*
X180110095Y-67905809D01*
X180157714Y-68001047D01*
X180157714Y-68143904D01*
X180110095Y-68239142D01*
X180062476Y-68286761D01*
X179967238Y-68334380D01*
X179586285Y-68334380D01*
X179586285Y-67334380D01*
X179919619Y-67334380D01*
X180014857Y-67382000D01*
X180062476Y-67429619D01*
X180110095Y-67524857D01*
X180110095Y-67620095D01*
X180062476Y-67715333D01*
X180014857Y-67762952D01*
X179919619Y-67810571D01*
X179586285Y-67810571D01*
X180586285Y-68334380D02*
X180586285Y-67667714D01*
X180586285Y-67858190D02*
X180633904Y-67762952D01*
X180681523Y-67715333D01*
X180776761Y-67667714D01*
X180872000Y-67667714D01*
X181586285Y-68286761D02*
X181491047Y-68334380D01*
X181300571Y-68334380D01*
X181205333Y-68286761D01*
X181157714Y-68191523D01*
X181157714Y-67810571D01*
X181205333Y-67715333D01*
X181300571Y-67667714D01*
X181491047Y-67667714D01*
X181586285Y-67715333D01*
X181633904Y-67810571D01*
X181633904Y-67905809D01*
X181157714Y-68001047D01*
X182491047Y-68334380D02*
X182491047Y-67810571D01*
X182443428Y-67715333D01*
X182348190Y-67667714D01*
X182157714Y-67667714D01*
X182062476Y-67715333D01*
X182491047Y-68286761D02*
X182395809Y-68334380D01*
X182157714Y-68334380D01*
X182062476Y-68286761D01*
X182014857Y-68191523D01*
X182014857Y-68096285D01*
X182062476Y-68001047D01*
X182157714Y-67953428D01*
X182395809Y-67953428D01*
X182491047Y-67905809D01*
X182967238Y-68334380D02*
X182967238Y-67334380D01*
X183062476Y-67953428D02*
X183348190Y-68334380D01*
X183348190Y-67667714D02*
X182967238Y-68048666D01*
X183919619Y-68334380D02*
X183824380Y-68286761D01*
X183776761Y-68239142D01*
X183729142Y-68143904D01*
X183729142Y-67858190D01*
X183776761Y-67762952D01*
X183824380Y-67715333D01*
X183919619Y-67667714D01*
X184062476Y-67667714D01*
X184157714Y-67715333D01*
X184205333Y-67762952D01*
X184252952Y-67858190D01*
X184252952Y-68143904D01*
X184205333Y-68239142D01*
X184157714Y-68286761D01*
X184062476Y-68334380D01*
X183919619Y-68334380D01*
X185110095Y-67667714D02*
X185110095Y-68334380D01*
X184681523Y-67667714D02*
X184681523Y-68191523D01*
X184729142Y-68286761D01*
X184824380Y-68334380D01*
X184967238Y-68334380D01*
X185062476Y-68286761D01*
X185110095Y-68239142D01*
X185443428Y-67667714D02*
X185824380Y-67667714D01*
X185586285Y-67334380D02*
X185586285Y-68191523D01*
X185633904Y-68286761D01*
X185729142Y-68334380D01*
X185824380Y-68334380D01*
X187443428Y-68334380D02*
X186872000Y-68334380D01*
X187157714Y-68334380D02*
X187157714Y-67334380D01*
X187062476Y-67477238D01*
X186967238Y-67572476D01*
X186872000Y-67620095D01*
X187872000Y-68239142D02*
X187919619Y-68286761D01*
X187872000Y-68334380D01*
X187824380Y-68286761D01*
X187872000Y-68239142D01*
X187872000Y-68334380D01*
X188538666Y-67334380D02*
X188633904Y-67334380D01*
X188729142Y-67382000D01*
X188776761Y-67429619D01*
X188824380Y-67524857D01*
X188872000Y-67715333D01*
X188872000Y-67953428D01*
X188824380Y-68143904D01*
X188776761Y-68239142D01*
X188729142Y-68286761D01*
X188633904Y-68334380D01*
X188538666Y-68334380D01*
X188443428Y-68286761D01*
X188395809Y-68239142D01*
X188348190Y-68143904D01*
X188300571Y-67953428D01*
X188300571Y-67715333D01*
X188348190Y-67524857D01*
X188395809Y-67429619D01*
X188443428Y-67382000D01*
X188538666Y-67334380D01*
X176443428Y-68984380D02*
X177014857Y-68984380D01*
X176729142Y-69984380D02*
X176729142Y-68984380D01*
X177348190Y-69984380D02*
X177348190Y-69317714D01*
X177348190Y-68984380D02*
X177300571Y-69032000D01*
X177348190Y-69079619D01*
X177395809Y-69032000D01*
X177348190Y-68984380D01*
X177348190Y-69079619D01*
X177824380Y-69317714D02*
X177824380Y-69984380D01*
X177824380Y-69412952D02*
X177872000Y-69365333D01*
X177967238Y-69317714D01*
X178110095Y-69317714D01*
X178205333Y-69365333D01*
X178252952Y-69460571D01*
X178252952Y-69984380D01*
X178729142Y-69984380D02*
X178729142Y-68984380D01*
X178824380Y-69603428D02*
X179110095Y-69984380D01*
X179110095Y-69317714D02*
X178729142Y-69698666D01*
X179919619Y-69936761D02*
X179824380Y-69984380D01*
X179633904Y-69984380D01*
X179538666Y-69936761D01*
X179491047Y-69841523D01*
X179491047Y-69460571D01*
X179538666Y-69365333D01*
X179633904Y-69317714D01*
X179824380Y-69317714D01*
X179919619Y-69365333D01*
X179967238Y-69460571D01*
X179967238Y-69555809D01*
X179491047Y-69651047D01*
X180395809Y-69984380D02*
X180395809Y-69317714D01*
X180395809Y-69508190D02*
X180443428Y-69412952D01*
X180491047Y-69365333D01*
X180586285Y-69317714D01*
X180681523Y-69317714D01*
X181014857Y-69317714D02*
X181014857Y-70317714D01*
X181014857Y-69365333D02*
X181110095Y-69317714D01*
X181300571Y-69317714D01*
X181395809Y-69365333D01*
X181443428Y-69412952D01*
X181491047Y-69508190D01*
X181491047Y-69793904D01*
X181443428Y-69889142D01*
X181395809Y-69936761D01*
X181300571Y-69984380D01*
X181110095Y-69984380D01*
X181014857Y-69936761D01*
X182062476Y-69984380D02*
X181967238Y-69936761D01*
X181919619Y-69841523D01*
X181919619Y-68984380D01*
X182872000Y-69317714D02*
X182872000Y-69984380D01*
X182443428Y-69317714D02*
X182443428Y-69841523D01*
X182491047Y-69936761D01*
X182586285Y-69984380D01*
X182729142Y-69984380D01*
X182824380Y-69936761D01*
X182872000Y-69889142D01*
X183348190Y-69317714D02*
X183348190Y-69984380D01*
X183348190Y-69412952D02*
X183395809Y-69365333D01*
X183491047Y-69317714D01*
X183633904Y-69317714D01*
X183729142Y-69365333D01*
X183776761Y-69460571D01*
X183776761Y-69984380D01*
X184252952Y-69984380D02*
X184252952Y-68984380D01*
X184348190Y-69603428D02*
X184633904Y-69984380D01*
X184633904Y-69317714D02*
X184252952Y-69698666D01*
X185062476Y-69889142D02*
X185110095Y-69936761D01*
X185062476Y-69984380D01*
X185014857Y-69936761D01*
X185062476Y-69889142D01*
X185062476Y-69984380D01*
X185967238Y-69936761D02*
X185872000Y-69984380D01*
X185681523Y-69984380D01*
X185586285Y-69936761D01*
X185538666Y-69889142D01*
X185491047Y-69793904D01*
X185491047Y-69508190D01*
X185538666Y-69412952D01*
X185586285Y-69365333D01*
X185681523Y-69317714D01*
X185872000Y-69317714D01*
X185967238Y-69365333D01*
X186538666Y-69984380D02*
X186443428Y-69936761D01*
X186395809Y-69889142D01*
X186348190Y-69793904D01*
X186348190Y-69508190D01*
X186395809Y-69412952D01*
X186443428Y-69365333D01*
X186538666Y-69317714D01*
X186681523Y-69317714D01*
X186776761Y-69365333D01*
X186824380Y-69412952D01*
X186872000Y-69508190D01*
X186872000Y-69793904D01*
X186824380Y-69889142D01*
X186776761Y-69936761D01*
X186681523Y-69984380D01*
X186538666Y-69984380D01*
X187300571Y-69984380D02*
X187300571Y-69317714D01*
X187300571Y-69412952D02*
X187348190Y-69365333D01*
X187443428Y-69317714D01*
X187586285Y-69317714D01*
X187681523Y-69365333D01*
X187729142Y-69460571D01*
X187729142Y-69984380D01*
X187729142Y-69460571D02*
X187776761Y-69365333D01*
X187872000Y-69317714D01*
X188014857Y-69317714D01*
X188110095Y-69365333D01*
X188157714Y-69460571D01*
X188157714Y-69984380D01*
X124095047Y-80351380D02*
X124761714Y-80351380D01*
X124333142Y-81351380D01*
X125618857Y-80351380D02*
X125142666Y-80351380D01*
X125095047Y-80827571D01*
X125142666Y-80779952D01*
X125237904Y-80732333D01*
X125476000Y-80732333D01*
X125571238Y-80779952D01*
X125618857Y-80827571D01*
X125666476Y-80922809D01*
X125666476Y-81160904D01*
X125618857Y-81256142D01*
X125571238Y-81303761D01*
X125476000Y-81351380D01*
X125237904Y-81351380D01*
X125142666Y-81303761D01*
X125095047Y-81256142D01*
X126047428Y-81351380D02*
X126285523Y-81351380D01*
X126285523Y-81160904D01*
X126190285Y-81113285D01*
X126095047Y-81018047D01*
X126047428Y-80875190D01*
X126047428Y-80637095D01*
X126095047Y-80494238D01*
X126190285Y-80399000D01*
X126333142Y-80351380D01*
X126523619Y-80351380D01*
X126666476Y-80399000D01*
X126761714Y-80494238D01*
X126809333Y-80637095D01*
X126809333Y-80875190D01*
X126761714Y-81018047D01*
X126666476Y-81113285D01*
X126571238Y-81160904D01*
X126571238Y-81351380D01*
X126809333Y-81351380D01*
X119451571Y-80351380D02*
X120023000Y-80351380D01*
X119737285Y-81351380D02*
X119737285Y-80351380D01*
X120213476Y-80351380D02*
X120784904Y-80351380D01*
X120499190Y-81351380D02*
X120499190Y-80351380D01*
X121594428Y-81351380D02*
X121118238Y-81351380D01*
X121118238Y-80351380D01*
X136876452Y-84806523D02*
X137162166Y-84901761D01*
X137638357Y-84901761D01*
X137828833Y-84806523D01*
X137924071Y-84711285D01*
X138019309Y-84520809D01*
X138019309Y-84330333D01*
X137924071Y-84139857D01*
X137828833Y-84044619D01*
X137638357Y-83949380D01*
X137257404Y-83854142D01*
X137066928Y-83758904D01*
X136971690Y-83663666D01*
X136876452Y-83473190D01*
X136876452Y-83282714D01*
X136971690Y-83092238D01*
X137066928Y-82997000D01*
X137257404Y-82901761D01*
X137733595Y-82901761D01*
X138019309Y-82997000D01*
X138685976Y-83568428D02*
X139162166Y-84901761D01*
X139638357Y-83568428D02*
X139162166Y-84901761D01*
X138971690Y-85377952D01*
X138876452Y-85473190D01*
X138685976Y-85568428D01*
X140400261Y-83568428D02*
X140400261Y-84901761D01*
X140400261Y-83758904D02*
X140495500Y-83663666D01*
X140685976Y-83568428D01*
X140971690Y-83568428D01*
X141162166Y-83663666D01*
X141257404Y-83854142D01*
X141257404Y-84901761D01*
X143066928Y-84806523D02*
X142876452Y-84901761D01*
X142495500Y-84901761D01*
X142305023Y-84806523D01*
X142209785Y-84711285D01*
X142114547Y-84520809D01*
X142114547Y-83949380D01*
X142209785Y-83758904D01*
X142305023Y-83663666D01*
X142495500Y-83568428D01*
X142876452Y-83568428D01*
X143066928Y-83663666D01*
X136876452Y-87956523D02*
X137162166Y-88051761D01*
X137638357Y-88051761D01*
X137828833Y-87956523D01*
X137924071Y-87861285D01*
X138019309Y-87670809D01*
X138019309Y-87480333D01*
X137924071Y-87289857D01*
X137828833Y-87194619D01*
X137638357Y-87099380D01*
X137257404Y-87004142D01*
X137066928Y-86908904D01*
X136971690Y-86813666D01*
X136876452Y-86623190D01*
X136876452Y-86432714D01*
X136971690Y-86242238D01*
X137066928Y-86147000D01*
X137257404Y-86051761D01*
X137733595Y-86051761D01*
X138019309Y-86147000D01*
X139638357Y-87956523D02*
X139447880Y-88051761D01*
X139066928Y-88051761D01*
X138876452Y-87956523D01*
X138781214Y-87766047D01*
X138781214Y-87004142D01*
X138876452Y-86813666D01*
X139066928Y-86718428D01*
X139447880Y-86718428D01*
X139638357Y-86813666D01*
X139733595Y-87004142D01*
X139733595Y-87194619D01*
X138781214Y-87385095D01*
X140876452Y-88051761D02*
X140685976Y-87956523D01*
X140590738Y-87766047D01*
X140590738Y-86051761D01*
X142400261Y-87956523D02*
X142209785Y-88051761D01*
X141828833Y-88051761D01*
X141638357Y-87956523D01*
X141543119Y-87766047D01*
X141543119Y-87004142D01*
X141638357Y-86813666D01*
X141828833Y-86718428D01*
X142209785Y-86718428D01*
X142400261Y-86813666D01*
X142495500Y-87004142D01*
X142495500Y-87194619D01*
X141543119Y-87385095D01*
X144209785Y-87956523D02*
X144019309Y-88051761D01*
X143638357Y-88051761D01*
X143447880Y-87956523D01*
X143352642Y-87861285D01*
X143257404Y-87670809D01*
X143257404Y-87099380D01*
X143352642Y-86908904D01*
X143447880Y-86813666D01*
X143638357Y-86718428D01*
X144019309Y-86718428D01*
X144209785Y-86813666D01*
X144781214Y-86718428D02*
X145543119Y-86718428D01*
X145066928Y-86051761D02*
X145066928Y-87766047D01*
X145162166Y-87956523D01*
X145352642Y-88051761D01*
X145543119Y-88051761D01*
X137733595Y-91201761D02*
X137733595Y-89677952D01*
X137352642Y-90058904D02*
X137733595Y-89677952D01*
X138114547Y-90058904D01*
X140590738Y-91011285D02*
X140495500Y-91106523D01*
X140209785Y-91201761D01*
X140019309Y-91201761D01*
X139733595Y-91106523D01*
X139543119Y-90916047D01*
X139447880Y-90725571D01*
X139352642Y-90344619D01*
X139352642Y-90058904D01*
X139447880Y-89677952D01*
X139543119Y-89487476D01*
X139733595Y-89297000D01*
X140019309Y-89201761D01*
X140209785Y-89201761D01*
X140495500Y-89297000D01*
X140590738Y-89392238D01*
X141162166Y-89201761D02*
X141828833Y-91201761D01*
X142495500Y-89201761D01*
X143828833Y-90154142D02*
X144114547Y-90249380D01*
X144209785Y-90344619D01*
X144305023Y-90535095D01*
X144305023Y-90820809D01*
X144209785Y-91011285D01*
X144114547Y-91106523D01*
X143924071Y-91201761D01*
X143162166Y-91201761D01*
X143162166Y-89201761D01*
X143828833Y-89201761D01*
X144019309Y-89297000D01*
X144114547Y-89392238D01*
X144209785Y-89582714D01*
X144209785Y-89773190D01*
X144114547Y-89963666D01*
X144019309Y-90058904D01*
X143828833Y-90154142D01*
X143162166Y-90154142D01*
X145066928Y-91106523D02*
X145352642Y-91201761D01*
X145828833Y-91201761D01*
X146019309Y-91106523D01*
X146114547Y-91011285D01*
X146209785Y-90820809D01*
X146209785Y-90630333D01*
X146114547Y-90439857D01*
X146019309Y-90344619D01*
X145828833Y-90249380D01*
X145447880Y-90154142D01*
X145257404Y-90058904D01*
X145162166Y-89963666D01*
X145066928Y-89773190D01*
X145066928Y-89582714D01*
X145162166Y-89392238D01*
X145257404Y-89297000D01*
X145447880Y-89201761D01*
X145924071Y-89201761D01*
X146209785Y-89297000D01*
X137066928Y-93208904D02*
X137066928Y-93970809D01*
X137162166Y-94066047D02*
X137543119Y-94351761D01*
X137162166Y-93113666D02*
X137543119Y-92827952D01*
X137162166Y-93018428D02*
X137162166Y-94161285D01*
X137257404Y-94161285D02*
X137257404Y-93018428D01*
X137352642Y-92923190D02*
X137352642Y-94256523D01*
X137447880Y-94256523D02*
X137447880Y-92923190D01*
X137543119Y-92827952D02*
X137543119Y-94351761D01*
X137638357Y-94351761D02*
X137638357Y-92827952D01*
X137733595Y-92827952D02*
X137733595Y-94351761D01*
X137828833Y-94351761D02*
X137828833Y-92827952D01*
X137924071Y-94351761D02*
X138305023Y-94066047D01*
X137924071Y-92827952D02*
X137924071Y-94351761D01*
X137924071Y-92827952D02*
X138305023Y-93113666D01*
X138019309Y-94256523D02*
X138019309Y-92923190D01*
X138114547Y-92923190D02*
X138114547Y-94256523D01*
X138209785Y-94161285D02*
X138209785Y-93018428D01*
X138305023Y-93018428D02*
X138305023Y-94161285D01*
X138400261Y-93970809D02*
X138400261Y-93208904D01*
X137543119Y-92827952D02*
X137924071Y-92827952D01*
X138305023Y-93018428D01*
X138495500Y-93399380D01*
X138495500Y-93780333D01*
X138305023Y-94161285D01*
X137924071Y-94351761D01*
X137543119Y-94351761D01*
X137162166Y-94161285D01*
X136971690Y-93780333D01*
X136971690Y-93399380D01*
X137162166Y-93018428D01*
X137543119Y-92827952D01*
X140590738Y-94161285D02*
X140495500Y-94256523D01*
X140209785Y-94351761D01*
X140019309Y-94351761D01*
X139733595Y-94256523D01*
X139543119Y-94066047D01*
X139447880Y-93875571D01*
X139352642Y-93494619D01*
X139352642Y-93208904D01*
X139447880Y-92827952D01*
X139543119Y-92637476D01*
X139733595Y-92447000D01*
X140019309Y-92351761D01*
X140209785Y-92351761D01*
X140495500Y-92447000D01*
X140590738Y-92542238D01*
X141352642Y-94256523D02*
X141638357Y-94351761D01*
X142114547Y-94351761D01*
X142305023Y-94256523D01*
X142400261Y-94161285D01*
X142495500Y-93970809D01*
X142495500Y-93780333D01*
X142400261Y-93589857D01*
X142305023Y-93494619D01*
X142114547Y-93399380D01*
X141733595Y-93304142D01*
X141543119Y-93208904D01*
X141447880Y-93113666D01*
X141352642Y-92923190D01*
X141352642Y-92732714D01*
X141447880Y-92542238D01*
X141543119Y-92447000D01*
X141733595Y-92351761D01*
X142209785Y-92351761D01*
X142495500Y-92447000D01*
X143733595Y-93399380D02*
X143733595Y-94351761D01*
X143066928Y-92351761D02*
X143733595Y-93399380D01*
X144400261Y-92351761D01*
X145066928Y-94351761D02*
X145066928Y-92351761D01*
X146209785Y-94351761D01*
X146209785Y-92351761D01*
X148305023Y-94161285D02*
X148209785Y-94256523D01*
X147924071Y-94351761D01*
X147733595Y-94351761D01*
X147447880Y-94256523D01*
X147257404Y-94066047D01*
X147162166Y-93875571D01*
X147066928Y-93494619D01*
X147066928Y-93208904D01*
X147162166Y-92827952D01*
X147257404Y-92637476D01*
X147447880Y-92447000D01*
X147733595Y-92351761D01*
X147924071Y-92351761D01*
X148209785Y-92447000D01*
X148305023Y-92542238D01*
X137733595Y-95977952D02*
X137733595Y-97501761D01*
X138114547Y-97120809D02*
X137733595Y-97501761D01*
X137352642Y-97120809D01*
X140400261Y-97501761D02*
X139447880Y-97501761D01*
X139447880Y-95501761D01*
X141066928Y-95501761D02*
X141066928Y-97120809D01*
X141162166Y-97311285D01*
X141257404Y-97406523D01*
X141447880Y-97501761D01*
X141828833Y-97501761D01*
X142019309Y-97406523D01*
X142114547Y-97311285D01*
X142209785Y-97120809D01*
X142209785Y-95501761D01*
X143162166Y-97501761D02*
X143162166Y-95501761D01*
X143828833Y-96930333D01*
X144495500Y-95501761D01*
X144495500Y-97501761D01*
X145352642Y-96930333D02*
X146305023Y-96930333D01*
X145162166Y-97501761D02*
X145828833Y-95501761D01*
X146495500Y-97501761D01*
X181909785Y-92845380D02*
X181576452Y-92369190D01*
X181338357Y-92845380D02*
X181338357Y-91845380D01*
X181719309Y-91845380D01*
X181814547Y-91893000D01*
X181862166Y-91940619D01*
X181909785Y-92035857D01*
X181909785Y-92178714D01*
X181862166Y-92273952D01*
X181814547Y-92321571D01*
X181719309Y-92369190D01*
X181338357Y-92369190D01*
X182909785Y-92750142D02*
X182862166Y-92797761D01*
X182719309Y-92845380D01*
X182624071Y-92845380D01*
X182481214Y-92797761D01*
X182385976Y-92702523D01*
X182338357Y-92607285D01*
X182290738Y-92416809D01*
X182290738Y-92273952D01*
X182338357Y-92083476D01*
X182385976Y-91988238D01*
X182481214Y-91893000D01*
X182624071Y-91845380D01*
X182719309Y-91845380D01*
X182862166Y-91893000D01*
X182909785Y-91940619D01*
X183290738Y-92559666D02*
X183766928Y-92559666D01*
X183195500Y-92845380D02*
X183528833Y-91845380D01*
X183862166Y-92845380D01*
X184195500Y-92464428D02*
X184957404Y-92464428D01*
X184766928Y-92654904D02*
X184957404Y-92464428D01*
X184766928Y-92273952D01*
X175433595Y-94447761D02*
X175576452Y-94495380D01*
X175814547Y-94495380D01*
X175909785Y-94447761D01*
X175957404Y-94400142D01*
X176005023Y-94304904D01*
X176005023Y-94209666D01*
X175957404Y-94114428D01*
X175909785Y-94066809D01*
X175814547Y-94019190D01*
X175624071Y-93971571D01*
X175528833Y-93923952D01*
X175481214Y-93876333D01*
X175433595Y-93781095D01*
X175433595Y-93685857D01*
X175481214Y-93590619D01*
X175528833Y-93543000D01*
X175624071Y-93495380D01*
X175862166Y-93495380D01*
X176005023Y-93543000D01*
X176624071Y-94019190D02*
X176624071Y-94495380D01*
X176290738Y-93495380D02*
X176624071Y-94019190D01*
X176957404Y-93495380D01*
X177290738Y-94495380D02*
X177290738Y-93495380D01*
X177862166Y-94495380D01*
X177862166Y-93495380D01*
X178909785Y-94400142D02*
X178862166Y-94447761D01*
X178719309Y-94495380D01*
X178624071Y-94495380D01*
X178481214Y-94447761D01*
X178385976Y-94352523D01*
X178338357Y-94257285D01*
X178290738Y-94066809D01*
X178290738Y-93923952D01*
X178338357Y-93733476D01*
X178385976Y-93638238D01*
X178481214Y-93543000D01*
X178624071Y-93495380D01*
X178719309Y-93495380D01*
X178862166Y-93543000D01*
X178909785Y-93590619D01*
X180052642Y-94447761D02*
X180195500Y-94495380D01*
X180433595Y-94495380D01*
X180528833Y-94447761D01*
X180576452Y-94400142D01*
X180624071Y-94304904D01*
X180624071Y-94209666D01*
X180576452Y-94114428D01*
X180528833Y-94066809D01*
X180433595Y-94019190D01*
X180243119Y-93971571D01*
X180147880Y-93923952D01*
X180100261Y-93876333D01*
X180052642Y-93781095D01*
X180052642Y-93685857D01*
X180100261Y-93590619D01*
X180147880Y-93543000D01*
X180243119Y-93495380D01*
X180481214Y-93495380D01*
X180624071Y-93543000D01*
X181052642Y-93971571D02*
X181385976Y-93971571D01*
X181528833Y-94495380D02*
X181052642Y-94495380D01*
X181052642Y-93495380D01*
X181528833Y-93495380D01*
X182433595Y-94495380D02*
X181957404Y-94495380D01*
X181957404Y-93495380D01*
X182766928Y-93971571D02*
X183100261Y-93971571D01*
X183243119Y-94495380D02*
X182766928Y-94495380D01*
X182766928Y-93495380D01*
X183243119Y-93495380D01*
X184243119Y-94400142D02*
X184195500Y-94447761D01*
X184052642Y-94495380D01*
X183957404Y-94495380D01*
X183814547Y-94447761D01*
X183719309Y-94352523D01*
X183671690Y-94257285D01*
X183624071Y-94066809D01*
X183624071Y-93923952D01*
X183671690Y-93733476D01*
X183719309Y-93638238D01*
X183814547Y-93543000D01*
X183957404Y-93495380D01*
X184052642Y-93495380D01*
X184195500Y-93543000D01*
X184243119Y-93590619D01*
X184528833Y-93495380D02*
X185100261Y-93495380D01*
X184814547Y-94495380D02*
X184814547Y-93495380D01*
X95585500Y-87638428D02*
X94823595Y-87638428D01*
X95014071Y-87828904D02*
X94823595Y-87638428D01*
X95014071Y-87447952D01*
X96061690Y-88019380D02*
X96061690Y-87019380D01*
X96061690Y-87495571D02*
X96633119Y-87495571D01*
X96633119Y-88019380D02*
X96633119Y-87019380D01*
X97109309Y-88019380D02*
X97109309Y-87019380D01*
X97347404Y-87019380D01*
X97490261Y-87067000D01*
X97585500Y-87162238D01*
X97633119Y-87257476D01*
X97680738Y-87447952D01*
X97680738Y-87590809D01*
X97633119Y-87781285D01*
X97585500Y-87876523D01*
X97490261Y-87971761D01*
X97347404Y-88019380D01*
X97109309Y-88019380D01*
X98633119Y-88019380D02*
X98061690Y-88019380D01*
X98347404Y-88019380D02*
X98347404Y-87019380D01*
X98252166Y-87162238D01*
X98156928Y-87257476D01*
X98061690Y-87305095D01*
X99537880Y-87019380D02*
X99061690Y-87019380D01*
X99014071Y-87495571D01*
X99061690Y-87447952D01*
X99156928Y-87400333D01*
X99395023Y-87400333D01*
X99490261Y-87447952D01*
X99537880Y-87495571D01*
X99585500Y-87590809D01*
X99585500Y-87828904D01*
X99537880Y-87924142D01*
X99490261Y-87971761D01*
X99395023Y-88019380D01*
X99156928Y-88019380D01*
X99061690Y-87971761D01*
X99014071Y-87924142D01*
X94775976Y-89621761D02*
X94918833Y-89669380D01*
X95156928Y-89669380D01*
X95252166Y-89621761D01*
X95299785Y-89574142D01*
X95347404Y-89478904D01*
X95347404Y-89383666D01*
X95299785Y-89288428D01*
X95252166Y-89240809D01*
X95156928Y-89193190D01*
X94966452Y-89145571D01*
X94871214Y-89097952D01*
X94823595Y-89050333D01*
X94775976Y-88955095D01*
X94775976Y-88859857D01*
X94823595Y-88764619D01*
X94871214Y-88717000D01*
X94966452Y-88669380D01*
X95204547Y-88669380D01*
X95347404Y-88717000D01*
X95966452Y-89193190D02*
X95966452Y-89669380D01*
X95633119Y-88669380D02*
X95966452Y-89193190D01*
X96299785Y-88669380D01*
X96633119Y-89669380D02*
X96633119Y-88669380D01*
X97204547Y-89669380D01*
X97204547Y-88669380D01*
X98252166Y-89574142D02*
X98204547Y-89621761D01*
X98061690Y-89669380D01*
X97966452Y-89669380D01*
X97823595Y-89621761D01*
X97728357Y-89526523D01*
X97680738Y-89431285D01*
X97633119Y-89240809D01*
X97633119Y-89097952D01*
X97680738Y-88907476D01*
X97728357Y-88812238D01*
X97823595Y-88717000D01*
X97966452Y-88669380D01*
X98061690Y-88669380D01*
X98204547Y-88717000D01*
X98252166Y-88764619D01*
X99395023Y-89621761D02*
X99537880Y-89669380D01*
X99775976Y-89669380D01*
X99871214Y-89621761D01*
X99918833Y-89574142D01*
X99966452Y-89478904D01*
X99966452Y-89383666D01*
X99918833Y-89288428D01*
X99871214Y-89240809D01*
X99775976Y-89193190D01*
X99585500Y-89145571D01*
X99490261Y-89097952D01*
X99442642Y-89050333D01*
X99395023Y-88955095D01*
X99395023Y-88859857D01*
X99442642Y-88764619D01*
X99490261Y-88717000D01*
X99585500Y-88669380D01*
X99823595Y-88669380D01*
X99966452Y-88717000D01*
X100395023Y-89145571D02*
X100728357Y-89145571D01*
X100871214Y-89669380D02*
X100395023Y-89669380D01*
X100395023Y-88669380D01*
X100871214Y-88669380D01*
X101775976Y-89669380D02*
X101299785Y-89669380D01*
X101299785Y-88669380D01*
X102109309Y-89145571D02*
X102442642Y-89145571D01*
X102585500Y-89669380D02*
X102109309Y-89669380D01*
X102109309Y-88669380D01*
X102585500Y-88669380D01*
X103585500Y-89574142D02*
X103537880Y-89621761D01*
X103395023Y-89669380D01*
X103299785Y-89669380D01*
X103156928Y-89621761D01*
X103061690Y-89526523D01*
X103014071Y-89431285D01*
X102966452Y-89240809D01*
X102966452Y-89097952D01*
X103014071Y-88907476D01*
X103061690Y-88812238D01*
X103156928Y-88717000D01*
X103299785Y-88669380D01*
X103395023Y-88669380D01*
X103537880Y-88717000D01*
X103585500Y-88764619D01*
X103871214Y-88669380D02*
X104442642Y-88669380D01*
X104156928Y-89669380D02*
X104156928Y-88669380D01*
X181300666Y-75509380D02*
X180824476Y-75509380D01*
X180824476Y-74509380D01*
X181634000Y-74509380D02*
X181634000Y-75318904D01*
X181681619Y-75414142D01*
X181729238Y-75461761D01*
X181824476Y-75509380D01*
X182014952Y-75509380D01*
X182110190Y-75461761D01*
X182157809Y-75414142D01*
X182205428Y-75318904D01*
X182205428Y-74509380D01*
X182681619Y-75509380D02*
X182681619Y-74509380D01*
X183014952Y-75223666D01*
X183348285Y-74509380D01*
X183348285Y-75509380D01*
X183776857Y-75223666D02*
X184253047Y-75223666D01*
X183681619Y-75509380D02*
X184014952Y-74509380D01*
X184348285Y-75509380D01*
X185062571Y-74747476D02*
X185062571Y-75509380D01*
X185253047Y-75318904D02*
X185062571Y-75509380D01*
X184872095Y-75318904D01*
X175786023Y-73827142D02*
X175738404Y-73874761D01*
X175595547Y-73922380D01*
X175500309Y-73922380D01*
X175357452Y-73874761D01*
X175262214Y-73779523D01*
X175214595Y-73684285D01*
X175166976Y-73493809D01*
X175166976Y-73350952D01*
X175214595Y-73160476D01*
X175262214Y-73065238D01*
X175357452Y-72970000D01*
X175500309Y-72922380D01*
X175595547Y-72922380D01*
X175738404Y-72970000D01*
X175786023Y-73017619D01*
X176166976Y-73874761D02*
X176309833Y-73922380D01*
X176547928Y-73922380D01*
X176643166Y-73874761D01*
X176690785Y-73827142D01*
X176738404Y-73731904D01*
X176738404Y-73636666D01*
X176690785Y-73541428D01*
X176643166Y-73493809D01*
X176547928Y-73446190D01*
X176357452Y-73398571D01*
X176262214Y-73350952D01*
X176214595Y-73303333D01*
X176166976Y-73208095D01*
X176166976Y-73112857D01*
X176214595Y-73017619D01*
X176262214Y-72970000D01*
X176357452Y-72922380D01*
X176595547Y-72922380D01*
X176738404Y-72970000D01*
X177357452Y-73446190D02*
X177357452Y-73922380D01*
X177024119Y-72922380D02*
X177357452Y-73446190D01*
X177690785Y-72922380D01*
X178024119Y-73922380D02*
X178024119Y-72922380D01*
X178595547Y-73922380D01*
X178595547Y-72922380D01*
X179643166Y-73827142D02*
X179595547Y-73874761D01*
X179452690Y-73922380D01*
X179357452Y-73922380D01*
X179214595Y-73874761D01*
X179119357Y-73779523D01*
X179071738Y-73684285D01*
X179024119Y-73493809D01*
X179024119Y-73350952D01*
X179071738Y-73160476D01*
X179119357Y-73065238D01*
X179214595Y-72970000D01*
X179357452Y-72922380D01*
X179452690Y-72922380D01*
X179595547Y-72970000D01*
X179643166Y-73017619D01*
X180071738Y-73541428D02*
X180833642Y-73541428D01*
X180643166Y-73731904D02*
X180833642Y-73541428D01*
X180643166Y-73350952D01*
X175166976Y-75524761D02*
X175309833Y-75572380D01*
X175547928Y-75572380D01*
X175643166Y-75524761D01*
X175690785Y-75477142D01*
X175738404Y-75381904D01*
X175738404Y-75286666D01*
X175690785Y-75191428D01*
X175643166Y-75143809D01*
X175547928Y-75096190D01*
X175357452Y-75048571D01*
X175262214Y-75000952D01*
X175214595Y-74953333D01*
X175166976Y-74858095D01*
X175166976Y-74762857D01*
X175214595Y-74667619D01*
X175262214Y-74620000D01*
X175357452Y-74572380D01*
X175595547Y-74572380D01*
X175738404Y-74620000D01*
X176547928Y-75524761D02*
X176452690Y-75572380D01*
X176262214Y-75572380D01*
X176166976Y-75524761D01*
X176119357Y-75429523D01*
X176119357Y-75048571D01*
X176166976Y-74953333D01*
X176262214Y-74905714D01*
X176452690Y-74905714D01*
X176547928Y-74953333D01*
X176595547Y-75048571D01*
X176595547Y-75143809D01*
X176119357Y-75239047D01*
X177166976Y-75572380D02*
X177071738Y-75524761D01*
X177024119Y-75429523D01*
X177024119Y-74572380D01*
X177928880Y-75524761D02*
X177833642Y-75572380D01*
X177643166Y-75572380D01*
X177547928Y-75524761D01*
X177500309Y-75429523D01*
X177500309Y-75048571D01*
X177547928Y-74953333D01*
X177643166Y-74905714D01*
X177833642Y-74905714D01*
X177928880Y-74953333D01*
X177976500Y-75048571D01*
X177976500Y-75143809D01*
X177500309Y-75239047D01*
X178833642Y-75524761D02*
X178738404Y-75572380D01*
X178547928Y-75572380D01*
X178452690Y-75524761D01*
X178405071Y-75477142D01*
X178357452Y-75381904D01*
X178357452Y-75096190D01*
X178405071Y-75000952D01*
X178452690Y-74953333D01*
X178547928Y-74905714D01*
X178738404Y-74905714D01*
X178833642Y-74953333D01*
X179119357Y-74905714D02*
X179500309Y-74905714D01*
X179262214Y-74572380D02*
X179262214Y-75429523D01*
X179309833Y-75524761D01*
X179405071Y-75572380D01*
X179500309Y-75572380D01*
X181419714Y-73001142D02*
X181372095Y-73048761D01*
X181229238Y-73096380D01*
X181134000Y-73096380D01*
X180991142Y-73048761D01*
X180895904Y-72953523D01*
X180848285Y-72858285D01*
X180800666Y-72667809D01*
X180800666Y-72524952D01*
X180848285Y-72334476D01*
X180895904Y-72239238D01*
X180991142Y-72144000D01*
X181134000Y-72096380D01*
X181229238Y-72096380D01*
X181372095Y-72144000D01*
X181419714Y-72191619D01*
X181705428Y-72096380D02*
X182038761Y-73096380D01*
X182372095Y-72096380D01*
X183038761Y-72572571D02*
X183181619Y-72620190D01*
X183229238Y-72667809D01*
X183276857Y-72763047D01*
X183276857Y-72905904D01*
X183229238Y-73001142D01*
X183181619Y-73048761D01*
X183086380Y-73096380D01*
X182705428Y-73096380D01*
X182705428Y-72096380D01*
X183038761Y-72096380D01*
X183134000Y-72144000D01*
X183181619Y-72191619D01*
X183229238Y-72286857D01*
X183229238Y-72382095D01*
X183181619Y-72477333D01*
X183134000Y-72524952D01*
X183038761Y-72572571D01*
X182705428Y-72572571D01*
X183657809Y-73048761D02*
X183800666Y-73096380D01*
X184038761Y-73096380D01*
X184134000Y-73048761D01*
X184181619Y-73001142D01*
X184229238Y-72905904D01*
X184229238Y-72810666D01*
X184181619Y-72715428D01*
X184134000Y-72667809D01*
X184038761Y-72620190D01*
X183848285Y-72572571D01*
X183753047Y-72524952D01*
X183705428Y-72477333D01*
X183657809Y-72382095D01*
X183657809Y-72286857D01*
X183705428Y-72191619D01*
X183753047Y-72144000D01*
X183848285Y-72096380D01*
X184086380Y-72096380D01*
X184229238Y-72144000D01*
X185038761Y-73096380D02*
X185038761Y-72334476D01*
X184848285Y-72524952D02*
X185038761Y-72334476D01*
X185229238Y-72524952D01*
D11*
X109855000Y-95815675D02*
X109605000Y-95382662D01*
X110105000Y-95382662D02*
X109855000Y-95815675D01*
X109605000Y-95382662D02*
X110105000Y-95382662D01*
X121025000Y-96277000D02*
X121025000Y-111887000D01*
X90055000Y-96277000D02*
X121025000Y-96277000D01*
X90055000Y-111887000D02*
X90055000Y-96277000D01*
D12*
X122497000Y-110236000D02*
G75*
G03X122497000Y-110236000I-170000J0D01*
G01*
D13*
X123227000Y-111436000D02*
X122927000Y-111436000D01*
X123227000Y-115436000D02*
X123227000Y-111436000D01*
X129227000Y-115436000D02*
X123227000Y-115436000D01*
X129227000Y-111436000D02*
X129227000Y-115436000D01*
X131127000Y-111436000D02*
X129227000Y-111436000D01*
X131127000Y-97436000D02*
X131127000Y-111436000D01*
X122927000Y-97436000D02*
X131127000Y-97436000D01*
X122927000Y-111436000D02*
X122927000Y-97436000D01*
D10*
X147473500Y-111760000D02*
X189473500Y-111760000D01*
D11*
X94225000Y-94692000D02*
X89925000Y-94692000D01*
X89925000Y-94692000D02*
X89925000Y-82092000D01*
X89925000Y-82092000D02*
X94225000Y-82092000D01*
X94225000Y-82092000D02*
X94225000Y-94692000D01*
X89925000Y-89392000D02*
X85925000Y-89392000D01*
X85925000Y-89392000D02*
X85925000Y-87392000D01*
X85925000Y-87392000D02*
X89925000Y-87392000D01*
X174830000Y-60000000D02*
X189930000Y-60000000D01*
X189930000Y-60000000D02*
X189930000Y-76100000D01*
X174830000Y-60000000D02*
X174830000Y-76100000D01*
D13*
X146192000Y-111502000D02*
X132142000Y-111502000D01*
X132142000Y-98302000D02*
X146242000Y-98302000D01*
X146192000Y-111502000D02*
X146192000Y-107812000D01*
X146242000Y-98302000D02*
X146242000Y-104102000D01*
X132142000Y-111502000D02*
X132142000Y-107812000D01*
X132142000Y-98302000D02*
X132142000Y-104152000D01*
D14*
X147052000Y-103002000D02*
G75*
G03X147052000Y-103002000I-200000J0D01*
G01*
D11*
X193945000Y-89392000D02*
X189945000Y-89392000D01*
X193945000Y-87392000D02*
X193945000Y-89392000D01*
X189945000Y-87392000D02*
X193945000Y-87392000D01*
X185645000Y-94692000D02*
X185645000Y-82092000D01*
X189945000Y-94692000D02*
X185645000Y-94692000D01*
X189945000Y-82092000D02*
X189945000Y-94692000D01*
X185645000Y-82092000D02*
X189945000Y-82092000D01*
X114979267Y-86993000D02*
X114636733Y-86993000D01*
X114979267Y-88013000D02*
X114636733Y-88013000D01*
X162553000Y-88318000D02*
X166303000Y-88318000D01*
X173073000Y-88318000D02*
X169323000Y-88318000D01*
X173073000Y-78862437D02*
X173073000Y-88318000D01*
X162553000Y-78862437D02*
X162553000Y-88318000D01*
X163617437Y-77798000D02*
X166303000Y-77798000D01*
X172008563Y-77798000D02*
X169323000Y-77798000D01*
X172008563Y-77798000D02*
X173073000Y-78862437D01*
X163617437Y-77798000D02*
X162553000Y-78862437D01*
X170573000Y-76308000D02*
X170573000Y-77558000D01*
X171198000Y-76933000D02*
X169948000Y-76933000D01*
X182328000Y-76933000D02*
X181078000Y-76933000D01*
X181703000Y-76308000D02*
X181703000Y-77558000D01*
X174747437Y-77798000D02*
X173683000Y-78862437D01*
X183138563Y-77798000D02*
X184203000Y-78862437D01*
X183138563Y-77798000D02*
X180453000Y-77798000D01*
X174747437Y-77798000D02*
X177433000Y-77798000D01*
X173683000Y-78862437D02*
X173683000Y-88318000D01*
X184203000Y-78862437D02*
X184203000Y-88318000D01*
X184203000Y-88318000D02*
X180453000Y-88318000D01*
X173683000Y-88318000D02*
X177433000Y-88318000D01*
X151458000Y-88318000D02*
X155208000Y-88318000D01*
X161978000Y-88318000D02*
X158228000Y-88318000D01*
X161978000Y-78862437D02*
X161978000Y-88318000D01*
X151458000Y-78862437D02*
X151458000Y-88318000D01*
X152522437Y-77798000D02*
X155208000Y-77798000D01*
X160913563Y-77798000D02*
X158228000Y-77798000D01*
X160913563Y-77798000D02*
X161978000Y-78862437D01*
X152522437Y-77798000D02*
X151458000Y-78862437D01*
X159478000Y-76308000D02*
X159478000Y-77558000D01*
X160103000Y-76933000D02*
X158853000Y-76933000D01*
X127153000Y-92684000D02*
X128353000Y-92684000D01*
X131673000Y-92684000D02*
X130473000Y-92684000D01*
X131673000Y-89228437D02*
X131673000Y-92684000D01*
X127153000Y-89228437D02*
X127153000Y-92684000D01*
X128217437Y-88164000D02*
X128353000Y-88164000D01*
X130608563Y-88164000D02*
X130473000Y-88164000D01*
X130608563Y-88164000D02*
X131673000Y-89228437D01*
X128217437Y-88164000D02*
X127153000Y-89228437D01*
X130973000Y-87424000D02*
X130973000Y-87924000D01*
X131223000Y-87674000D02*
X130723000Y-87674000D01*
X121381267Y-91184000D02*
X121038733Y-91184000D01*
X121381267Y-92204000D02*
X121038733Y-92204000D01*
X121367267Y-93855000D02*
X121024733Y-93855000D01*
X121367267Y-92835000D02*
X121024733Y-92835000D01*
X134246733Y-86739000D02*
X134589267Y-86739000D01*
X134246733Y-87759000D02*
X134589267Y-87759000D01*
X185121733Y-64387000D02*
X185464267Y-64387000D01*
X185121733Y-65407000D02*
X185464267Y-65407000D01*
X126933000Y-79435000D02*
X126933000Y-76775000D01*
X121793000Y-79435000D02*
X126933000Y-79435000D01*
X121793000Y-76775000D02*
X126933000Y-76775000D01*
X121793000Y-79435000D02*
X121793000Y-76775000D01*
X120523000Y-79435000D02*
X119193000Y-79435000D01*
X119193000Y-79435000D02*
X119193000Y-78105000D01*
X170196000Y-81658000D02*
X172196000Y-81658000D01*
X170196000Y-84458000D02*
X170196000Y-81658000D01*
X172196000Y-84458000D02*
X170196000Y-84458000D01*
X172196000Y-81658000D02*
X172196000Y-84458000D01*
X183245000Y-81695000D02*
X183245000Y-84495000D01*
X183245000Y-84495000D02*
X181245000Y-84495000D01*
X181245000Y-84495000D02*
X181245000Y-81695000D01*
X181245000Y-81695000D02*
X183245000Y-81695000D01*
X159020000Y-81748000D02*
X161020000Y-81748000D01*
X159020000Y-84548000D02*
X159020000Y-81748000D01*
X161020000Y-84548000D02*
X159020000Y-84548000D01*
X161020000Y-81748000D02*
X161020000Y-84548000D01*
X124758267Y-83695000D02*
X124415733Y-83695000D01*
X124758267Y-82675000D02*
X124415733Y-82675000D01*
X134232733Y-85981000D02*
X134575267Y-85981000D01*
X134232733Y-84961000D02*
X134575267Y-84961000D01*
X185595000Y-71392000D02*
X189995000Y-71392000D01*
X189995000Y-71392000D02*
X189995000Y-79992000D01*
X189995000Y-79992000D02*
X185595000Y-79992000D01*
X185595000Y-79992000D02*
X185595000Y-71392000D01*
X189995000Y-74692000D02*
X193995000Y-74692000D01*
X193995000Y-74692000D02*
X193995000Y-76692000D01*
X193995000Y-76692000D02*
X189995000Y-76692000D01*
D10*
X119083000Y-85563000D02*
X119083000Y-85613000D01*
X123233000Y-85563000D02*
X123233000Y-85708000D01*
X123233000Y-90713000D02*
X123233000Y-90568000D01*
X119083000Y-90713000D02*
X119083000Y-90568000D01*
X119083000Y-85563000D02*
X123233000Y-85563000D01*
X119083000Y-90713000D02*
X123233000Y-90713000D01*
X119083000Y-85613000D02*
X117683000Y-85613000D01*
X97220166Y-98766380D02*
X97220166Y-99480666D01*
X97172547Y-99623523D01*
X97077309Y-99718761D01*
X96934452Y-99766380D01*
X96839214Y-99766380D01*
X98124928Y-99099714D02*
X98124928Y-99766380D01*
X97886833Y-98718761D02*
X97648738Y-99433047D01*
X98267785Y-99433047D01*
X128057103Y-100578955D02*
X128057103Y-101579448D01*
X127990403Y-101779546D01*
X127857004Y-101912945D01*
X127656906Y-101979645D01*
X127523507Y-101979645D01*
X128590699Y-100578955D02*
X129457793Y-100578955D01*
X128990896Y-101112551D01*
X129190995Y-101112551D01*
X129324394Y-101179251D01*
X129391093Y-101245950D01*
X129457793Y-101379349D01*
X129457793Y-101712847D01*
X129391093Y-101846246D01*
X129324394Y-101912945D01*
X129190995Y-101979645D01*
X128790798Y-101979645D01*
X128657399Y-101912945D01*
X128590699Y-101846246D01*
X156710166Y-102322380D02*
X156710166Y-103036666D01*
X156662547Y-103179523D01*
X156567309Y-103274761D01*
X156424452Y-103322380D01*
X156329214Y-103322380D01*
X157662547Y-102322380D02*
X157186357Y-102322380D01*
X157138738Y-102798571D01*
X157186357Y-102750952D01*
X157281595Y-102703333D01*
X157519690Y-102703333D01*
X157614928Y-102750952D01*
X157662547Y-102798571D01*
X157710166Y-102893809D01*
X157710166Y-103131904D01*
X157662547Y-103227142D01*
X157614928Y-103274761D01*
X157519690Y-103322380D01*
X157281595Y-103322380D01*
X157186357Y-103274761D01*
X157138738Y-103227142D01*
X90703666Y-87018761D02*
X90846523Y-87066380D01*
X91084619Y-87066380D01*
X91179857Y-87018761D01*
X91227476Y-86971142D01*
X91275095Y-86875904D01*
X91275095Y-86780666D01*
X91227476Y-86685428D01*
X91179857Y-86637809D01*
X91084619Y-86590190D01*
X90894142Y-86542571D01*
X90798904Y-86494952D01*
X90751285Y-86447333D01*
X90703666Y-86352095D01*
X90703666Y-86256857D01*
X90751285Y-86161619D01*
X90798904Y-86114000D01*
X90894142Y-86066380D01*
X91132238Y-86066380D01*
X91275095Y-86114000D01*
X91608428Y-86066380D02*
X91846523Y-87066380D01*
X92037000Y-86352095D01*
X92227476Y-87066380D01*
X92465571Y-86066380D01*
X92751285Y-86066380D02*
X93370333Y-86066380D01*
X93037000Y-86447333D01*
X93179857Y-86447333D01*
X93275095Y-86494952D01*
X93322714Y-86542571D01*
X93370333Y-86637809D01*
X93370333Y-86875904D01*
X93322714Y-86971142D01*
X93275095Y-87018761D01*
X93179857Y-87066380D01*
X92894142Y-87066380D01*
X92798904Y-87018761D01*
X92751285Y-86971142D01*
X178355666Y-64603380D02*
X178355666Y-65317666D01*
X178308047Y-65460523D01*
X178212809Y-65555761D01*
X178069952Y-65603380D01*
X177974714Y-65603380D01*
X179355666Y-65603380D02*
X178784238Y-65603380D01*
X179069952Y-65603380D02*
X179069952Y-64603380D01*
X178974714Y-64746238D01*
X178879476Y-64841476D01*
X178784238Y-64889095D01*
X142651166Y-106005380D02*
X142651166Y-106719666D01*
X142603547Y-106862523D01*
X142508309Y-106957761D01*
X142365452Y-107005380D01*
X142270214Y-107005380D01*
X143079738Y-106100619D02*
X143127357Y-106053000D01*
X143222595Y-106005380D01*
X143460690Y-106005380D01*
X143555928Y-106053000D01*
X143603547Y-106100619D01*
X143651166Y-106195857D01*
X143651166Y-106291095D01*
X143603547Y-106433952D01*
X143032119Y-107005380D01*
X143651166Y-107005380D01*
X186372666Y-90828761D02*
X186515523Y-90876380D01*
X186753619Y-90876380D01*
X186848857Y-90828761D01*
X186896476Y-90781142D01*
X186944095Y-90685904D01*
X186944095Y-90590666D01*
X186896476Y-90495428D01*
X186848857Y-90447809D01*
X186753619Y-90400190D01*
X186563142Y-90352571D01*
X186467904Y-90304952D01*
X186420285Y-90257333D01*
X186372666Y-90162095D01*
X186372666Y-90066857D01*
X186420285Y-89971619D01*
X186467904Y-89924000D01*
X186563142Y-89876380D01*
X186801238Y-89876380D01*
X186944095Y-89924000D01*
X187277428Y-89876380D02*
X187515523Y-90876380D01*
X187706000Y-90162095D01*
X187896476Y-90876380D01*
X188134571Y-89876380D01*
X188467904Y-89971619D02*
X188515523Y-89924000D01*
X188610761Y-89876380D01*
X188848857Y-89876380D01*
X188944095Y-89924000D01*
X188991714Y-89971619D01*
X189039333Y-90066857D01*
X189039333Y-90162095D01*
X188991714Y-90304952D01*
X188420285Y-90876380D01*
X189039333Y-90876380D01*
X114589333Y-86463142D02*
X114541714Y-86510761D01*
X114398857Y-86558380D01*
X114303619Y-86558380D01*
X114160761Y-86510761D01*
X114065523Y-86415523D01*
X114017904Y-86320285D01*
X113970285Y-86129809D01*
X113970285Y-85986952D01*
X114017904Y-85796476D01*
X114065523Y-85701238D01*
X114160761Y-85606000D01*
X114303619Y-85558380D01*
X114398857Y-85558380D01*
X114541714Y-85606000D01*
X114589333Y-85653619D01*
X115541714Y-86558380D02*
X114970285Y-86558380D01*
X115256000Y-86558380D02*
X115256000Y-85558380D01*
X115160761Y-85701238D01*
X115065523Y-85796476D01*
X114970285Y-85844095D01*
X168124142Y-83224666D02*
X168171761Y-83272285D01*
X168219380Y-83415142D01*
X168219380Y-83510380D01*
X168171761Y-83653238D01*
X168076523Y-83748476D01*
X167981285Y-83796095D01*
X167790809Y-83843714D01*
X167647952Y-83843714D01*
X167457476Y-83796095D01*
X167362238Y-83748476D01*
X167267000Y-83653238D01*
X167219380Y-83510380D01*
X167219380Y-83415142D01*
X167267000Y-83272285D01*
X167314619Y-83224666D01*
X167314619Y-82843714D02*
X167267000Y-82796095D01*
X167219380Y-82700857D01*
X167219380Y-82462761D01*
X167267000Y-82367523D01*
X167314619Y-82319904D01*
X167409857Y-82272285D01*
X167505095Y-82272285D01*
X167647952Y-82319904D01*
X168219380Y-82891333D01*
X168219380Y-82272285D01*
X179300142Y-83224666D02*
X179347761Y-83272285D01*
X179395380Y-83415142D01*
X179395380Y-83510380D01*
X179347761Y-83653238D01*
X179252523Y-83748476D01*
X179157285Y-83796095D01*
X178966809Y-83843714D01*
X178823952Y-83843714D01*
X178633476Y-83796095D01*
X178538238Y-83748476D01*
X178443000Y-83653238D01*
X178395380Y-83510380D01*
X178395380Y-83415142D01*
X178443000Y-83272285D01*
X178490619Y-83224666D01*
X178395380Y-82891333D02*
X178395380Y-82272285D01*
X178776333Y-82605619D01*
X178776333Y-82462761D01*
X178823952Y-82367523D01*
X178871571Y-82319904D01*
X178966809Y-82272285D01*
X179204904Y-82272285D01*
X179300142Y-82319904D01*
X179347761Y-82367523D01*
X179395380Y-82462761D01*
X179395380Y-82748476D01*
X179347761Y-82843714D01*
X179300142Y-82891333D01*
X157075142Y-83224666D02*
X157122761Y-83272285D01*
X157170380Y-83415142D01*
X157170380Y-83510380D01*
X157122761Y-83653238D01*
X157027523Y-83748476D01*
X156932285Y-83796095D01*
X156741809Y-83843714D01*
X156598952Y-83843714D01*
X156408476Y-83796095D01*
X156313238Y-83748476D01*
X156218000Y-83653238D01*
X156170380Y-83510380D01*
X156170380Y-83415142D01*
X156218000Y-83272285D01*
X156265619Y-83224666D01*
X156503714Y-82367523D02*
X157170380Y-82367523D01*
X156122761Y-82605619D02*
X156837047Y-82843714D01*
X156837047Y-82224666D01*
X129770142Y-95162666D02*
X129817761Y-95210285D01*
X129865380Y-95353142D01*
X129865380Y-95448380D01*
X129817761Y-95591238D01*
X129722523Y-95686476D01*
X129627285Y-95734095D01*
X129436809Y-95781714D01*
X129293952Y-95781714D01*
X129103476Y-95734095D01*
X129008238Y-95686476D01*
X128913000Y-95591238D01*
X128865380Y-95448380D01*
X128865380Y-95353142D01*
X128913000Y-95210285D01*
X128960619Y-95162666D01*
X128865380Y-94257904D02*
X128865380Y-94734095D01*
X129341571Y-94781714D01*
X129293952Y-94734095D01*
X129246333Y-94638857D01*
X129246333Y-94400761D01*
X129293952Y-94305523D01*
X129341571Y-94257904D01*
X129436809Y-94210285D01*
X129674904Y-94210285D01*
X129770142Y-94257904D01*
X129817761Y-94305523D01*
X129865380Y-94400761D01*
X129865380Y-94638857D01*
X129817761Y-94734095D01*
X129770142Y-94781714D01*
X123823333Y-92051142D02*
X123775714Y-92098761D01*
X123632857Y-92146380D01*
X123537619Y-92146380D01*
X123394761Y-92098761D01*
X123299523Y-92003523D01*
X123251904Y-91908285D01*
X123204285Y-91717809D01*
X123204285Y-91574952D01*
X123251904Y-91384476D01*
X123299523Y-91289238D01*
X123394761Y-91194000D01*
X123537619Y-91146380D01*
X123632857Y-91146380D01*
X123775714Y-91194000D01*
X123823333Y-91241619D01*
X124680476Y-91146380D02*
X124490000Y-91146380D01*
X124394761Y-91194000D01*
X124347142Y-91241619D01*
X124251904Y-91384476D01*
X124204285Y-91574952D01*
X124204285Y-91955904D01*
X124251904Y-92051142D01*
X124299523Y-92098761D01*
X124394761Y-92146380D01*
X124585238Y-92146380D01*
X124680476Y-92098761D01*
X124728095Y-92051142D01*
X124775714Y-91955904D01*
X124775714Y-91717809D01*
X124728095Y-91622571D01*
X124680476Y-91574952D01*
X124585238Y-91527333D01*
X124394761Y-91527333D01*
X124299523Y-91574952D01*
X124251904Y-91622571D01*
X124204285Y-91717809D01*
X123823333Y-93702142D02*
X123775714Y-93749761D01*
X123632857Y-93797380D01*
X123537619Y-93797380D01*
X123394761Y-93749761D01*
X123299523Y-93654523D01*
X123251904Y-93559285D01*
X123204285Y-93368809D01*
X123204285Y-93225952D01*
X123251904Y-93035476D01*
X123299523Y-92940238D01*
X123394761Y-92845000D01*
X123537619Y-92797380D01*
X123632857Y-92797380D01*
X123775714Y-92845000D01*
X123823333Y-92892619D01*
X124156666Y-92797380D02*
X124823333Y-92797380D01*
X124394761Y-93797380D01*
X134326333Y-89130142D02*
X134278714Y-89177761D01*
X134135857Y-89225380D01*
X134040619Y-89225380D01*
X133897761Y-89177761D01*
X133802523Y-89082523D01*
X133754904Y-88987285D01*
X133707285Y-88796809D01*
X133707285Y-88653952D01*
X133754904Y-88463476D01*
X133802523Y-88368238D01*
X133897761Y-88273000D01*
X134040619Y-88225380D01*
X134135857Y-88225380D01*
X134278714Y-88273000D01*
X134326333Y-88320619D01*
X134897761Y-88653952D02*
X134802523Y-88606333D01*
X134754904Y-88558714D01*
X134707285Y-88463476D01*
X134707285Y-88415857D01*
X134754904Y-88320619D01*
X134802523Y-88273000D01*
X134897761Y-88225380D01*
X135088238Y-88225380D01*
X135183476Y-88273000D01*
X135231095Y-88320619D01*
X135278714Y-88415857D01*
X135278714Y-88463476D01*
X135231095Y-88558714D01*
X135183476Y-88606333D01*
X135088238Y-88653952D01*
X134897761Y-88653952D01*
X134802523Y-88701571D01*
X134754904Y-88749190D01*
X134707285Y-88844428D01*
X134707285Y-89034904D01*
X134754904Y-89130142D01*
X134802523Y-89177761D01*
X134897761Y-89225380D01*
X135088238Y-89225380D01*
X135183476Y-89177761D01*
X135231095Y-89130142D01*
X135278714Y-89034904D01*
X135278714Y-88844428D01*
X135231095Y-88749190D01*
X135183476Y-88701571D01*
X135088238Y-88653952D01*
X184459666Y-66349571D02*
X184126333Y-66349571D01*
X184126333Y-66873380D02*
X184126333Y-65873380D01*
X184602523Y-65873380D01*
X185316809Y-66349571D02*
X185459666Y-66397190D01*
X185507285Y-66444809D01*
X185554904Y-66540047D01*
X185554904Y-66682904D01*
X185507285Y-66778142D01*
X185459666Y-66825761D01*
X185364428Y-66873380D01*
X184983476Y-66873380D01*
X184983476Y-65873380D01*
X185316809Y-65873380D01*
X185412047Y-65921000D01*
X185459666Y-65968619D01*
X185507285Y-66063857D01*
X185507285Y-66159095D01*
X185459666Y-66254333D01*
X185412047Y-66301952D01*
X185316809Y-66349571D01*
X184983476Y-66349571D01*
X186507285Y-66873380D02*
X185935857Y-66873380D01*
X186221571Y-66873380D02*
X186221571Y-65873380D01*
X186126333Y-66016238D01*
X186031095Y-66111476D01*
X185935857Y-66159095D01*
X117645380Y-78938333D02*
X118359666Y-78938333D01*
X118502523Y-78985952D01*
X118597761Y-79081190D01*
X118645380Y-79224047D01*
X118645380Y-79319285D01*
X118645380Y-78462142D02*
X117645380Y-78462142D01*
X117645380Y-78081190D01*
X117693000Y-77985952D01*
X117740619Y-77938333D01*
X117835857Y-77890714D01*
X117978714Y-77890714D01*
X118073952Y-77938333D01*
X118121571Y-77985952D01*
X118169190Y-78081190D01*
X118169190Y-78462142D01*
X118645380Y-76938333D02*
X118645380Y-77509761D01*
X118645380Y-77224047D02*
X117645380Y-77224047D01*
X117788238Y-77319285D01*
X117883476Y-77414523D01*
X117931095Y-77509761D01*
X170648380Y-80843333D02*
X171362666Y-80843333D01*
X171505523Y-80890952D01*
X171600761Y-80986190D01*
X171648380Y-81129047D01*
X171648380Y-81224285D01*
X171648380Y-80367142D02*
X170648380Y-80367142D01*
X170648380Y-79986190D01*
X170696000Y-79890952D01*
X170743619Y-79843333D01*
X170838857Y-79795714D01*
X170981714Y-79795714D01*
X171076952Y-79843333D01*
X171124571Y-79890952D01*
X171172190Y-79986190D01*
X171172190Y-80367142D01*
X170743619Y-79414761D02*
X170696000Y-79367142D01*
X170648380Y-79271904D01*
X170648380Y-79033809D01*
X170696000Y-78938571D01*
X170743619Y-78890952D01*
X170838857Y-78843333D01*
X170934095Y-78843333D01*
X171076952Y-78890952D01*
X171648380Y-79462380D01*
X171648380Y-78843333D01*
X181570380Y-80843333D02*
X182284666Y-80843333D01*
X182427523Y-80890952D01*
X182522761Y-80986190D01*
X182570380Y-81129047D01*
X182570380Y-81224285D01*
X182570380Y-80367142D02*
X181570380Y-80367142D01*
X181570380Y-79986190D01*
X181618000Y-79890952D01*
X181665619Y-79843333D01*
X181760857Y-79795714D01*
X181903714Y-79795714D01*
X181998952Y-79843333D01*
X182046571Y-79890952D01*
X182094190Y-79986190D01*
X182094190Y-80367142D01*
X181570380Y-79462380D02*
X181570380Y-78843333D01*
X181951333Y-79176666D01*
X181951333Y-79033809D01*
X181998952Y-78938571D01*
X182046571Y-78890952D01*
X182141809Y-78843333D01*
X182379904Y-78843333D01*
X182475142Y-78890952D01*
X182522761Y-78938571D01*
X182570380Y-79033809D01*
X182570380Y-79319523D01*
X182522761Y-79414761D01*
X182475142Y-79462380D01*
X159472380Y-80970333D02*
X160186666Y-80970333D01*
X160329523Y-81017952D01*
X160424761Y-81113190D01*
X160472380Y-81256047D01*
X160472380Y-81351285D01*
X160472380Y-80494142D02*
X159472380Y-80494142D01*
X159472380Y-80113190D01*
X159520000Y-80017952D01*
X159567619Y-79970333D01*
X159662857Y-79922714D01*
X159805714Y-79922714D01*
X159900952Y-79970333D01*
X159948571Y-80017952D01*
X159996190Y-80113190D01*
X159996190Y-80494142D01*
X159805714Y-79065571D02*
X160472380Y-79065571D01*
X159424761Y-79303666D02*
X160139047Y-79541761D01*
X160139047Y-78922714D01*
X124420333Y-85067380D02*
X124087000Y-84591190D01*
X123848904Y-85067380D02*
X123848904Y-84067380D01*
X124229857Y-84067380D01*
X124325095Y-84115000D01*
X124372714Y-84162619D01*
X124420333Y-84257857D01*
X124420333Y-84400714D01*
X124372714Y-84495952D01*
X124325095Y-84543571D01*
X124229857Y-84591190D01*
X123848904Y-84591190D01*
X125372714Y-85067380D02*
X124801285Y-85067380D01*
X125087000Y-85067380D02*
X125087000Y-84067380D01*
X124991761Y-84210238D01*
X124896523Y-84305476D01*
X124801285Y-84353095D01*
X134580333Y-84526380D02*
X134247000Y-84050190D01*
X134008904Y-84526380D02*
X134008904Y-83526380D01*
X134389857Y-83526380D01*
X134485095Y-83574000D01*
X134532714Y-83621619D01*
X134580333Y-83716857D01*
X134580333Y-83859714D01*
X134532714Y-83954952D01*
X134485095Y-84002571D01*
X134389857Y-84050190D01*
X134008904Y-84050190D01*
X134961285Y-83621619D02*
X135008904Y-83574000D01*
X135104142Y-83526380D01*
X135342238Y-83526380D01*
X135437476Y-83574000D01*
X135485095Y-83621619D01*
X135532714Y-83716857D01*
X135532714Y-83812095D01*
X135485095Y-83954952D01*
X134913666Y-84526380D01*
X135532714Y-84526380D01*
X189634761Y-77025333D02*
X189682380Y-76882476D01*
X189682380Y-76644380D01*
X189634761Y-76549142D01*
X189587142Y-76501523D01*
X189491904Y-76453904D01*
X189396666Y-76453904D01*
X189301428Y-76501523D01*
X189253809Y-76549142D01*
X189206190Y-76644380D01*
X189158571Y-76834857D01*
X189110952Y-76930095D01*
X189063333Y-76977714D01*
X188968095Y-77025333D01*
X188872857Y-77025333D01*
X188777619Y-76977714D01*
X188730000Y-76930095D01*
X188682380Y-76834857D01*
X188682380Y-76596761D01*
X188730000Y-76453904D01*
X188682380Y-76120571D02*
X189682380Y-75882476D01*
X188968095Y-75692000D01*
X189682380Y-75501523D01*
X188682380Y-75263428D01*
X189682380Y-74358666D02*
X189682380Y-74930095D01*
X189682380Y-74644380D02*
X188682380Y-74644380D01*
X188825238Y-74739619D01*
X188920476Y-74834857D01*
X188968095Y-74930095D01*
X120396095Y-84090380D02*
X120396095Y-84899904D01*
X120443714Y-84995142D01*
X120491333Y-85042761D01*
X120586571Y-85090380D01*
X120777047Y-85090380D01*
X120872285Y-85042761D01*
X120919904Y-84995142D01*
X120967523Y-84899904D01*
X120967523Y-84090380D01*
X121967523Y-85090380D02*
X121396095Y-85090380D01*
X121681809Y-85090380D02*
X121681809Y-84090380D01*
X121586571Y-84233238D01*
X121491333Y-84328476D01*
X121396095Y-84376095D01*
M02*
