G04 #@! TF.GenerationSoftware,KiCad,Pcbnew,(5.1.0)-1*
G04 #@! TF.CreationDate,2019-06-24T23:24:28-04:00*
G04 #@! TF.ProjectId,PSX Breakout,50535820-4272-4656-916b-6f75742e6b69,rev?*
G04 #@! TF.SameCoordinates,Original*
G04 #@! TF.FileFunction,Legend,Bot*
G04 #@! TF.FilePolarity,Positive*
%FSLAX46Y46*%
G04 Gerber Fmt 4.6, Leading zero omitted, Abs format (unit mm)*
G04 Created by KiCad (PCBNEW (5.1.0)-1) date 2019-06-24 23:24:28*
%MOMM*%
%LPD*%
G04 APERTURE LIST*
%ADD10C,0.150000*%
G04 APERTURE END LIST*
D10*
X178147904Y-78748380D02*
X178624095Y-78748380D01*
X178624095Y-77748380D01*
X177814571Y-78748380D02*
X177814571Y-78081714D01*
X177814571Y-77748380D02*
X177862190Y-77796000D01*
X177814571Y-77843619D01*
X177766952Y-77796000D01*
X177814571Y-77748380D01*
X177814571Y-77843619D01*
X176909809Y-78700761D02*
X177005047Y-78748380D01*
X177195523Y-78748380D01*
X177290761Y-78700761D01*
X177338380Y-78653142D01*
X177386000Y-78557904D01*
X177386000Y-78272190D01*
X177338380Y-78176952D01*
X177290761Y-78129333D01*
X177195523Y-78081714D01*
X177005047Y-78081714D01*
X176909809Y-78129333D01*
X176100285Y-78700761D02*
X176195523Y-78748380D01*
X176386000Y-78748380D01*
X176481238Y-78700761D01*
X176528857Y-78605523D01*
X176528857Y-78224571D01*
X176481238Y-78129333D01*
X176386000Y-78081714D01*
X176195523Y-78081714D01*
X176100285Y-78129333D01*
X176052666Y-78224571D01*
X176052666Y-78319809D01*
X176528857Y-78415047D01*
X175624095Y-78081714D02*
X175624095Y-78748380D01*
X175624095Y-78176952D02*
X175576476Y-78129333D01*
X175481238Y-78081714D01*
X175338380Y-78081714D01*
X175243142Y-78129333D01*
X175195523Y-78224571D01*
X175195523Y-78748380D01*
X174766952Y-78700761D02*
X174671714Y-78748380D01*
X174481238Y-78748380D01*
X174386000Y-78700761D01*
X174338380Y-78605523D01*
X174338380Y-78557904D01*
X174386000Y-78462666D01*
X174481238Y-78415047D01*
X174624095Y-78415047D01*
X174719333Y-78367428D01*
X174766952Y-78272190D01*
X174766952Y-78224571D01*
X174719333Y-78129333D01*
X174624095Y-78081714D01*
X174481238Y-78081714D01*
X174386000Y-78129333D01*
X173528857Y-78700761D02*
X173624095Y-78748380D01*
X173814571Y-78748380D01*
X173909809Y-78700761D01*
X173957428Y-78605523D01*
X173957428Y-78224571D01*
X173909809Y-78129333D01*
X173814571Y-78081714D01*
X173624095Y-78081714D01*
X173528857Y-78129333D01*
X173481238Y-78224571D01*
X173481238Y-78319809D01*
X173957428Y-78415047D01*
X172624095Y-78748380D02*
X172624095Y-77748380D01*
X172624095Y-78700761D02*
X172719333Y-78748380D01*
X172909809Y-78748380D01*
X173005047Y-78700761D01*
X173052666Y-78653142D01*
X173100285Y-78557904D01*
X173100285Y-78272190D01*
X173052666Y-78176952D01*
X173005047Y-78129333D01*
X172909809Y-78081714D01*
X172719333Y-78081714D01*
X172624095Y-78129333D01*
X170957428Y-78081714D02*
X170957428Y-78748380D01*
X171386000Y-78081714D02*
X171386000Y-78605523D01*
X171338380Y-78700761D01*
X171243142Y-78748380D01*
X171100285Y-78748380D01*
X171005047Y-78700761D01*
X170957428Y-78653142D01*
X170481238Y-78081714D02*
X170481238Y-78748380D01*
X170481238Y-78176952D02*
X170433619Y-78129333D01*
X170338380Y-78081714D01*
X170195523Y-78081714D01*
X170100285Y-78129333D01*
X170052666Y-78224571D01*
X170052666Y-78748380D01*
X169147904Y-78748380D02*
X169147904Y-77748380D01*
X169147904Y-78700761D02*
X169243142Y-78748380D01*
X169433619Y-78748380D01*
X169528857Y-78700761D01*
X169576476Y-78653142D01*
X169624095Y-78557904D01*
X169624095Y-78272190D01*
X169576476Y-78176952D01*
X169528857Y-78129333D01*
X169433619Y-78081714D01*
X169243142Y-78081714D01*
X169147904Y-78129333D01*
X168290761Y-78700761D02*
X168386000Y-78748380D01*
X168576476Y-78748380D01*
X168671714Y-78700761D01*
X168719333Y-78605523D01*
X168719333Y-78224571D01*
X168671714Y-78129333D01*
X168576476Y-78081714D01*
X168386000Y-78081714D01*
X168290761Y-78129333D01*
X168243142Y-78224571D01*
X168243142Y-78319809D01*
X168719333Y-78415047D01*
X167814571Y-78748380D02*
X167814571Y-78081714D01*
X167814571Y-78272190D02*
X167766952Y-78176952D01*
X167719333Y-78129333D01*
X167624095Y-78081714D01*
X167528857Y-78081714D01*
X165862190Y-78653142D02*
X165909809Y-78700761D01*
X166052666Y-78748380D01*
X166147904Y-78748380D01*
X166290761Y-78700761D01*
X166386000Y-78605523D01*
X166433619Y-78510285D01*
X166481238Y-78319809D01*
X166481238Y-78176952D01*
X166433619Y-77986476D01*
X166386000Y-77891238D01*
X166290761Y-77796000D01*
X166147904Y-77748380D01*
X166052666Y-77748380D01*
X165909809Y-77796000D01*
X165862190Y-77843619D01*
X165433619Y-78224571D02*
X165100285Y-78224571D01*
X164957428Y-78748380D02*
X165433619Y-78748380D01*
X165433619Y-77748380D01*
X164957428Y-77748380D01*
X163957428Y-78748380D02*
X164290761Y-78272190D01*
X164528857Y-78748380D02*
X164528857Y-77748380D01*
X164147904Y-77748380D01*
X164052666Y-77796000D01*
X164005047Y-77843619D01*
X163957428Y-77938857D01*
X163957428Y-78081714D01*
X164005047Y-78176952D01*
X164052666Y-78224571D01*
X164147904Y-78272190D01*
X164528857Y-78272190D01*
X163528857Y-78748380D02*
X163528857Y-77748380D01*
X162957428Y-78748380D01*
X162957428Y-77748380D01*
X161528857Y-77748380D02*
X161338380Y-77748380D01*
X161243142Y-77796000D01*
X161147904Y-77891238D01*
X161100285Y-78081714D01*
X161100285Y-78415047D01*
X161147904Y-78605523D01*
X161243142Y-78700761D01*
X161338380Y-78748380D01*
X161528857Y-78748380D01*
X161624095Y-78700761D01*
X161719333Y-78605523D01*
X161766952Y-78415047D01*
X161766952Y-78081714D01*
X161719333Y-77891238D01*
X161624095Y-77796000D01*
X161528857Y-77748380D01*
X160671714Y-78748380D02*
X160671714Y-77748380D01*
X160671714Y-78224571D02*
X160100285Y-78224571D01*
X160100285Y-78748380D02*
X160100285Y-77748380D01*
X159147904Y-78748380D02*
X159624095Y-78748380D01*
X159624095Y-77748380D01*
X157528857Y-78748380D02*
X158100285Y-78748380D01*
X157814571Y-78748380D02*
X157814571Y-77748380D01*
X157909809Y-77891238D01*
X158005047Y-77986476D01*
X158100285Y-78034095D01*
X157100285Y-78653142D02*
X157052666Y-78700761D01*
X157100285Y-78748380D01*
X157147904Y-78700761D01*
X157100285Y-78653142D01*
X157100285Y-78748380D01*
X156671714Y-77843619D02*
X156624095Y-77796000D01*
X156528857Y-77748380D01*
X156290761Y-77748380D01*
X156195523Y-77796000D01*
X156147904Y-77843619D01*
X156100285Y-77938857D01*
X156100285Y-78034095D01*
X156147904Y-78176952D01*
X156719333Y-78748380D01*
X156100285Y-78748380D01*
X179290761Y-80398380D02*
X179290761Y-79398380D01*
X178862190Y-80398380D02*
X178862190Y-79874571D01*
X178909809Y-79779333D01*
X179005047Y-79731714D01*
X179147904Y-79731714D01*
X179243142Y-79779333D01*
X179290761Y-79826952D01*
X178528857Y-79731714D02*
X178147904Y-79731714D01*
X178386000Y-79398380D02*
X178386000Y-80255523D01*
X178338380Y-80350761D01*
X178243142Y-80398380D01*
X178147904Y-80398380D01*
X177957428Y-79731714D02*
X177576476Y-79731714D01*
X177814571Y-79398380D02*
X177814571Y-80255523D01*
X177766952Y-80350761D01*
X177671714Y-80398380D01*
X177576476Y-80398380D01*
X177243142Y-79731714D02*
X177243142Y-80731714D01*
X177243142Y-79779333D02*
X177147904Y-79731714D01*
X176957428Y-79731714D01*
X176862190Y-79779333D01*
X176814571Y-79826952D01*
X176766952Y-79922190D01*
X176766952Y-80207904D01*
X176814571Y-80303142D01*
X176862190Y-80350761D01*
X176957428Y-80398380D01*
X177147904Y-80398380D01*
X177243142Y-80350761D01*
X176386000Y-80350761D02*
X176290761Y-80398380D01*
X176100285Y-80398380D01*
X176005047Y-80350761D01*
X175957428Y-80255523D01*
X175957428Y-80207904D01*
X176005047Y-80112666D01*
X176100285Y-80065047D01*
X176243142Y-80065047D01*
X176338380Y-80017428D01*
X176386000Y-79922190D01*
X176386000Y-79874571D01*
X176338380Y-79779333D01*
X176243142Y-79731714D01*
X176100285Y-79731714D01*
X176005047Y-79779333D01*
X175528857Y-80303142D02*
X175481238Y-80350761D01*
X175528857Y-80398380D01*
X175576476Y-80350761D01*
X175528857Y-80303142D01*
X175528857Y-80398380D01*
X175528857Y-79779333D02*
X175481238Y-79826952D01*
X175528857Y-79874571D01*
X175576476Y-79826952D01*
X175528857Y-79779333D01*
X175528857Y-79874571D01*
X174338380Y-79350761D02*
X175195523Y-80636476D01*
X173290761Y-79350761D02*
X174147904Y-80636476D01*
X172528857Y-79731714D02*
X172528857Y-80541238D01*
X172576476Y-80636476D01*
X172624095Y-80684095D01*
X172719333Y-80731714D01*
X172862190Y-80731714D01*
X172957428Y-80684095D01*
X172528857Y-80350761D02*
X172624095Y-80398380D01*
X172814571Y-80398380D01*
X172909809Y-80350761D01*
X172957428Y-80303142D01*
X173005047Y-80207904D01*
X173005047Y-79922190D01*
X172957428Y-79826952D01*
X172909809Y-79779333D01*
X172814571Y-79731714D01*
X172624095Y-79731714D01*
X172528857Y-79779333D01*
X172052666Y-80398380D02*
X172052666Y-79731714D01*
X172052666Y-79398380D02*
X172100285Y-79446000D01*
X172052666Y-79493619D01*
X172005047Y-79446000D01*
X172052666Y-79398380D01*
X172052666Y-79493619D01*
X171719333Y-79731714D02*
X171338380Y-79731714D01*
X171576476Y-79398380D02*
X171576476Y-80255523D01*
X171528857Y-80350761D01*
X171433619Y-80398380D01*
X171338380Y-80398380D01*
X171005047Y-80398380D02*
X171005047Y-79398380D01*
X170576476Y-80398380D02*
X170576476Y-79874571D01*
X170624095Y-79779333D01*
X170719333Y-79731714D01*
X170862190Y-79731714D01*
X170957428Y-79779333D01*
X171005047Y-79826952D01*
X169671714Y-79731714D02*
X169671714Y-80398380D01*
X170100285Y-79731714D02*
X170100285Y-80255523D01*
X170052666Y-80350761D01*
X169957428Y-80398380D01*
X169814571Y-80398380D01*
X169719333Y-80350761D01*
X169671714Y-80303142D01*
X169195523Y-80398380D02*
X169195523Y-79398380D01*
X169195523Y-79779333D02*
X169100285Y-79731714D01*
X168909809Y-79731714D01*
X168814571Y-79779333D01*
X168766952Y-79826952D01*
X168719333Y-79922190D01*
X168719333Y-80207904D01*
X168766952Y-80303142D01*
X168814571Y-80350761D01*
X168909809Y-80398380D01*
X169100285Y-80398380D01*
X169195523Y-80350761D01*
X168290761Y-80303142D02*
X168243142Y-80350761D01*
X168290761Y-80398380D01*
X168338380Y-80350761D01*
X168290761Y-80303142D01*
X168290761Y-80398380D01*
X167386000Y-80350761D02*
X167481238Y-80398380D01*
X167671714Y-80398380D01*
X167766952Y-80350761D01*
X167814571Y-80303142D01*
X167862190Y-80207904D01*
X167862190Y-79922190D01*
X167814571Y-79826952D01*
X167766952Y-79779333D01*
X167671714Y-79731714D01*
X167481238Y-79731714D01*
X167386000Y-79779333D01*
X166814571Y-80398380D02*
X166909809Y-80350761D01*
X166957428Y-80303142D01*
X167005047Y-80207904D01*
X167005047Y-79922190D01*
X166957428Y-79826952D01*
X166909809Y-79779333D01*
X166814571Y-79731714D01*
X166671714Y-79731714D01*
X166576476Y-79779333D01*
X166528857Y-79826952D01*
X166481238Y-79922190D01*
X166481238Y-80207904D01*
X166528857Y-80303142D01*
X166576476Y-80350761D01*
X166671714Y-80398380D01*
X166814571Y-80398380D01*
X166052666Y-80398380D02*
X166052666Y-79731714D01*
X166052666Y-79826952D02*
X166005047Y-79779333D01*
X165909809Y-79731714D01*
X165766952Y-79731714D01*
X165671714Y-79779333D01*
X165624095Y-79874571D01*
X165624095Y-80398380D01*
X165624095Y-79874571D02*
X165576476Y-79779333D01*
X165481238Y-79731714D01*
X165338380Y-79731714D01*
X165243142Y-79779333D01*
X165195523Y-79874571D01*
X165195523Y-80398380D01*
X164005047Y-79350761D02*
X164862190Y-80636476D01*
X163243142Y-80398380D02*
X163243142Y-79874571D01*
X163290761Y-79779333D01*
X163386000Y-79731714D01*
X163576476Y-79731714D01*
X163671714Y-79779333D01*
X163243142Y-80350761D02*
X163338380Y-80398380D01*
X163576476Y-80398380D01*
X163671714Y-80350761D01*
X163719333Y-80255523D01*
X163719333Y-80160285D01*
X163671714Y-80065047D01*
X163576476Y-80017428D01*
X163338380Y-80017428D01*
X163243142Y-79969809D01*
X162766952Y-80398380D02*
X162766952Y-79731714D01*
X162766952Y-79922190D02*
X162719333Y-79826952D01*
X162671714Y-79779333D01*
X162576476Y-79731714D01*
X162481238Y-79731714D01*
X162147904Y-80398380D02*
X162147904Y-79731714D01*
X162147904Y-79398380D02*
X162195523Y-79446000D01*
X162147904Y-79493619D01*
X162100285Y-79446000D01*
X162147904Y-79398380D01*
X162147904Y-79493619D01*
X161814571Y-79731714D02*
X161433619Y-79731714D01*
X161671714Y-79398380D02*
X161671714Y-80255523D01*
X161624095Y-80350761D01*
X161528857Y-80398380D01*
X161433619Y-80398380D01*
X161100285Y-80398380D02*
X161100285Y-79398380D01*
X160671714Y-80398380D02*
X160671714Y-79874571D01*
X160719333Y-79779333D01*
X160814571Y-79731714D01*
X160957428Y-79731714D01*
X161052666Y-79779333D01*
X161100285Y-79826952D01*
X160195523Y-80398380D02*
X160195523Y-79731714D01*
X160195523Y-79826952D02*
X160147904Y-79779333D01*
X160052666Y-79731714D01*
X159909809Y-79731714D01*
X159814571Y-79779333D01*
X159766952Y-79874571D01*
X159766952Y-80398380D01*
X159766952Y-79874571D02*
X159719333Y-79779333D01*
X159624095Y-79731714D01*
X159481238Y-79731714D01*
X159386000Y-79779333D01*
X159338380Y-79874571D01*
X159338380Y-80398380D01*
X158433619Y-80398380D02*
X158433619Y-79874571D01*
X158481238Y-79779333D01*
X158576476Y-79731714D01*
X158766952Y-79731714D01*
X158862190Y-79779333D01*
X158433619Y-80350761D02*
X158528857Y-80398380D01*
X158766952Y-80398380D01*
X158862190Y-80350761D01*
X158909809Y-80255523D01*
X158909809Y-80160285D01*
X158862190Y-80065047D01*
X158766952Y-80017428D01*
X158528857Y-80017428D01*
X158433619Y-79969809D01*
X157814571Y-80398380D02*
X157909809Y-80350761D01*
X157957428Y-80255523D01*
X157957428Y-79398380D01*
X157005047Y-80398380D02*
X157005047Y-79398380D01*
X157005047Y-80350761D02*
X157100285Y-80398380D01*
X157290761Y-80398380D01*
X157386000Y-80350761D01*
X157433619Y-80303142D01*
X157481238Y-80207904D01*
X157481238Y-79922190D01*
X157433619Y-79826952D01*
X157386000Y-79779333D01*
X157290761Y-79731714D01*
X157100285Y-79731714D01*
X157005047Y-79779333D01*
X156386000Y-80398380D02*
X156481238Y-80350761D01*
X156528857Y-80303142D01*
X156576476Y-80207904D01*
X156576476Y-79922190D01*
X156528857Y-79826952D01*
X156481238Y-79779333D01*
X156386000Y-79731714D01*
X156243142Y-79731714D01*
X156147904Y-79779333D01*
X156100285Y-79826952D01*
X156052666Y-79922190D01*
X156052666Y-80207904D01*
X156100285Y-80303142D01*
X156147904Y-80350761D01*
X156243142Y-80398380D01*
X156386000Y-80398380D01*
X155624095Y-80398380D02*
X155624095Y-79731714D01*
X155624095Y-79922190D02*
X155576476Y-79826952D01*
X155528857Y-79779333D01*
X155433619Y-79731714D01*
X155338380Y-79731714D01*
M02*
