G04 #@! TF.GenerationSoftware,KiCad,Pcbnew,(5.1.0)-1*
G04 #@! TF.CreationDate,2019-07-05T20:53:17-04:00*
G04 #@! TF.ProjectId,PSX Breakout,50535820-4272-4656-916b-6f75742e6b69,rev?*
G04 #@! TF.SameCoordinates,Original*
G04 #@! TF.FileFunction,Soldermask,Top*
G04 #@! TF.FilePolarity,Negative*
%FSLAX46Y46*%
G04 Gerber Fmt 4.6, Leading zero omitted, Abs format (unit mm)*
G04 Created by KiCad (PCBNEW (5.1.0)-1) date 2019-07-05 20:53:17*
%MOMM*%
%LPD*%
G04 APERTURE LIST*
%ADD10C,0.100000*%
G04 APERTURE END LIST*
D10*
G36*
X130011808Y-102906648D02*
G01*
X130163551Y-102952678D01*
X130303398Y-103027428D01*
X130425975Y-103128025D01*
X130526572Y-103250602D01*
X130601322Y-103390449D01*
X130647352Y-103542192D01*
X130662895Y-103700000D01*
X130647352Y-103857808D01*
X130601322Y-104009551D01*
X130526572Y-104149398D01*
X130425975Y-104271975D01*
X130303398Y-104372572D01*
X130163551Y-104447322D01*
X130011808Y-104493352D01*
X129893546Y-104505000D01*
X128306454Y-104505000D01*
X128188192Y-104493352D01*
X128036449Y-104447322D01*
X127896602Y-104372572D01*
X127774025Y-104271975D01*
X127673428Y-104149398D01*
X127598678Y-104009551D01*
X127552648Y-103857808D01*
X127537105Y-103700000D01*
X127552648Y-103542192D01*
X127598678Y-103390449D01*
X127673428Y-103250602D01*
X127774025Y-103128025D01*
X127896602Y-103027428D01*
X128036449Y-102952678D01*
X128188192Y-102906648D01*
X128306454Y-102895000D01*
X129893546Y-102895000D01*
X130011808Y-102906648D01*
X130011808Y-102906648D01*
G37*
G36*
X133407808Y-101152648D02*
G01*
X133559551Y-101198678D01*
X133699398Y-101273428D01*
X133821975Y-101374025D01*
X133922572Y-101496602D01*
X133997322Y-101636449D01*
X134043352Y-101788192D01*
X134055000Y-101906454D01*
X134055000Y-103493546D01*
X134043352Y-103611808D01*
X133997322Y-103763551D01*
X133922572Y-103903398D01*
X133821975Y-104025975D01*
X133699397Y-104126572D01*
X133559550Y-104201322D01*
X133407807Y-104247352D01*
X133250000Y-104262895D01*
X133092192Y-104247352D01*
X132940449Y-104201322D01*
X132800602Y-104126572D01*
X132678025Y-104025975D01*
X132577428Y-103903397D01*
X132502678Y-103763550D01*
X132456648Y-103611807D01*
X132445000Y-103493545D01*
X132445001Y-101906454D01*
X132456649Y-101788192D01*
X132502679Y-101636449D01*
X132577429Y-101496602D01*
X132678026Y-101374025D01*
X132800603Y-101273428D01*
X132940450Y-101198678D01*
X133092193Y-101152648D01*
X133250000Y-101137105D01*
X133407808Y-101152648D01*
X133407808Y-101152648D01*
G37*
G36*
X128011808Y-100406648D02*
G01*
X128163551Y-100452678D01*
X128303398Y-100527428D01*
X128425975Y-100628025D01*
X128526572Y-100750602D01*
X128601322Y-100890449D01*
X128647352Y-101042192D01*
X128662895Y-101200000D01*
X128647352Y-101357808D01*
X128601322Y-101509551D01*
X128526572Y-101649398D01*
X128425975Y-101771975D01*
X128303398Y-101872572D01*
X128163551Y-101947322D01*
X128011808Y-101993352D01*
X127893546Y-102005000D01*
X126306454Y-102005000D01*
X126188192Y-101993352D01*
X126036449Y-101947322D01*
X125896602Y-101872572D01*
X125774025Y-101771975D01*
X125673428Y-101649398D01*
X125598678Y-101509551D01*
X125552648Y-101357808D01*
X125537105Y-101200000D01*
X125552648Y-101042192D01*
X125598678Y-100890449D01*
X125673428Y-100750602D01*
X125774025Y-100628025D01*
X125896602Y-100527428D01*
X126036449Y-100452678D01*
X126188192Y-100406648D01*
X126306454Y-100395000D01*
X127893546Y-100395000D01*
X128011808Y-100406648D01*
X128011808Y-100406648D01*
G37*
G36*
X188635634Y-97515654D02*
G01*
X188852599Y-97581470D01*
X188852601Y-97581471D01*
X189052553Y-97688347D01*
X189052555Y-97688348D01*
X189052554Y-97688348D01*
X189227818Y-97832182D01*
X189280574Y-97896466D01*
X189371653Y-98007445D01*
X189469329Y-98190186D01*
X189478530Y-98207400D01*
X189544346Y-98424365D01*
X189561000Y-98593457D01*
X189561000Y-100506543D01*
X189544346Y-100675635D01*
X189479183Y-100890449D01*
X189478529Y-100892602D01*
X189371653Y-101092555D01*
X189227818Y-101267818D01*
X189052555Y-101411653D01*
X188893621Y-101496604D01*
X188852600Y-101518530D01*
X188635635Y-101584346D01*
X188410000Y-101606569D01*
X188184366Y-101584346D01*
X187967401Y-101518530D01*
X187926380Y-101496604D01*
X187767446Y-101411653D01*
X187592183Y-101267818D01*
X187448348Y-101092555D01*
X187341472Y-100892602D01*
X187340819Y-100890449D01*
X187275655Y-100675635D01*
X187259000Y-100506543D01*
X187259000Y-98593458D01*
X187275654Y-98424366D01*
X187341470Y-98207401D01*
X187343538Y-98203532D01*
X187448347Y-98007447D01*
X187528688Y-97909551D01*
X187592182Y-97832182D01*
X187682810Y-97757806D01*
X187767445Y-97688347D01*
X187967398Y-97581471D01*
X187967400Y-97581470D01*
X188184365Y-97515654D01*
X188410000Y-97493431D01*
X188635634Y-97515654D01*
X188635634Y-97515654D01*
G37*
G36*
X160635634Y-97515654D02*
G01*
X160852599Y-97581470D01*
X160852601Y-97581471D01*
X161052553Y-97688347D01*
X161052555Y-97688348D01*
X161052554Y-97688348D01*
X161227818Y-97832182D01*
X161280574Y-97896466D01*
X161371653Y-98007445D01*
X161469329Y-98190186D01*
X161478530Y-98207400D01*
X161544346Y-98424365D01*
X161561000Y-98593457D01*
X161561000Y-100506543D01*
X161544346Y-100675635D01*
X161479183Y-100890449D01*
X161478529Y-100892602D01*
X161371653Y-101092555D01*
X161227818Y-101267818D01*
X161052555Y-101411653D01*
X160893621Y-101496604D01*
X160852600Y-101518530D01*
X160635635Y-101584346D01*
X160410000Y-101606569D01*
X160184366Y-101584346D01*
X159967401Y-101518530D01*
X159926380Y-101496604D01*
X159767446Y-101411653D01*
X159592183Y-101267818D01*
X159448348Y-101092555D01*
X159341472Y-100892602D01*
X159340819Y-100890449D01*
X159275655Y-100675635D01*
X159259000Y-100506543D01*
X159259000Y-98593458D01*
X159275654Y-98424366D01*
X159341470Y-98207401D01*
X159343538Y-98203532D01*
X159448347Y-98007447D01*
X159528688Y-97909551D01*
X159592182Y-97832182D01*
X159682810Y-97757806D01*
X159767445Y-97688347D01*
X159967398Y-97581471D01*
X159967400Y-97581470D01*
X160184365Y-97515654D01*
X160410000Y-97493431D01*
X160635634Y-97515654D01*
X160635634Y-97515654D01*
G37*
G36*
X174635634Y-97515654D02*
G01*
X174852599Y-97581470D01*
X174852601Y-97581471D01*
X175052553Y-97688347D01*
X175052555Y-97688348D01*
X175052554Y-97688348D01*
X175227818Y-97832182D01*
X175280574Y-97896466D01*
X175371653Y-98007445D01*
X175469329Y-98190186D01*
X175478530Y-98207400D01*
X175544346Y-98424365D01*
X175561000Y-98593457D01*
X175561000Y-100506543D01*
X175544346Y-100675635D01*
X175479183Y-100890449D01*
X175478529Y-100892602D01*
X175371653Y-101092555D01*
X175227818Y-101267818D01*
X175052555Y-101411653D01*
X174893621Y-101496604D01*
X174852600Y-101518530D01*
X174635635Y-101584346D01*
X174410000Y-101606569D01*
X174184366Y-101584346D01*
X173967401Y-101518530D01*
X173926380Y-101496604D01*
X173767446Y-101411653D01*
X173592183Y-101267818D01*
X173448348Y-101092555D01*
X173341472Y-100892602D01*
X173340819Y-100890449D01*
X173275655Y-100675635D01*
X173259000Y-100506543D01*
X173259000Y-98593458D01*
X173275654Y-98424366D01*
X173341470Y-98207401D01*
X173343538Y-98203532D01*
X173448347Y-98007447D01*
X173528688Y-97909551D01*
X173592182Y-97832182D01*
X173682810Y-97757806D01*
X173767445Y-97688347D01*
X173967398Y-97581471D01*
X173967400Y-97581470D01*
X174184365Y-97515654D01*
X174410000Y-97493431D01*
X174635634Y-97515654D01*
X174635634Y-97515654D01*
G37*
G36*
X142360442Y-99405518D02*
G01*
X142426627Y-99412037D01*
X142596466Y-99463557D01*
X142752991Y-99547222D01*
X142788729Y-99576552D01*
X142890186Y-99659814D01*
X142973448Y-99761271D01*
X143002778Y-99797009D01*
X143086443Y-99953534D01*
X143137963Y-100123373D01*
X143155359Y-100300000D01*
X143137963Y-100476627D01*
X143086443Y-100646466D01*
X143002778Y-100802991D01*
X142973448Y-100838729D01*
X142890186Y-100940186D01*
X142813916Y-101002778D01*
X142752991Y-101052778D01*
X142596466Y-101136443D01*
X142426627Y-101187963D01*
X142360443Y-101194481D01*
X142294260Y-101201000D01*
X140505740Y-101201000D01*
X140439558Y-101194482D01*
X140373373Y-101187963D01*
X140203534Y-101136443D01*
X140047009Y-101052778D01*
X139986084Y-101002778D01*
X139909814Y-100940186D01*
X139826552Y-100838729D01*
X139797222Y-100802991D01*
X139713557Y-100646466D01*
X139662037Y-100476627D01*
X139644641Y-100300000D01*
X139662037Y-100123373D01*
X139713557Y-99953534D01*
X139797222Y-99797009D01*
X139826552Y-99761271D01*
X139909814Y-99659814D01*
X140011271Y-99576552D01*
X140047009Y-99547222D01*
X140203534Y-99463557D01*
X140373373Y-99412037D01*
X140439557Y-99405519D01*
X140505740Y-99399000D01*
X142294260Y-99399000D01*
X142360442Y-99405518D01*
X142360442Y-99405518D01*
G37*
G36*
X148076627Y-97662037D02*
G01*
X148246466Y-97713557D01*
X148402991Y-97797222D01*
X148438729Y-97826552D01*
X148540186Y-97909814D01*
X148620309Y-98007446D01*
X148652778Y-98047009D01*
X148736443Y-98203534D01*
X148787963Y-98373373D01*
X148787963Y-98373375D01*
X148801000Y-98505740D01*
X148801000Y-100294260D01*
X148794482Y-100360442D01*
X148787963Y-100426627D01*
X148736443Y-100596466D01*
X148652778Y-100752991D01*
X148623448Y-100788729D01*
X148540186Y-100890186D01*
X148402989Y-101002779D01*
X148246467Y-101086442D01*
X148246465Y-101086443D01*
X148076626Y-101137963D01*
X147900000Y-101155359D01*
X147723373Y-101137963D01*
X147553534Y-101086443D01*
X147397009Y-101002778D01*
X147361271Y-100973448D01*
X147259814Y-100890186D01*
X147147221Y-100752989D01*
X147063558Y-100596467D01*
X147042615Y-100527428D01*
X147012037Y-100426626D01*
X147005518Y-100360441D01*
X146999000Y-100294259D01*
X146999001Y-98505740D01*
X147012038Y-98373375D01*
X147012038Y-98373373D01*
X147063558Y-98203534D01*
X147147223Y-98047009D01*
X147179692Y-98007446D01*
X147259815Y-97909814D01*
X147361272Y-97826552D01*
X147397010Y-97797222D01*
X147553535Y-97713557D01*
X147723374Y-97662037D01*
X147900000Y-97644641D01*
X148076627Y-97662037D01*
X148076627Y-97662037D01*
G37*
G36*
X135076626Y-97662037D02*
G01*
X135246465Y-97713557D01*
X135246467Y-97713558D01*
X135402989Y-97797221D01*
X135540186Y-97909814D01*
X135620309Y-98007446D01*
X135652778Y-98047009D01*
X135736443Y-98203534D01*
X135787963Y-98373373D01*
X135787963Y-98373375D01*
X135801000Y-98505740D01*
X135801000Y-100294260D01*
X135794482Y-100360442D01*
X135787963Y-100426627D01*
X135736443Y-100596466D01*
X135652778Y-100752991D01*
X135623448Y-100788729D01*
X135540186Y-100890186D01*
X135438729Y-100973448D01*
X135402991Y-101002778D01*
X135246466Y-101086443D01*
X135076627Y-101137963D01*
X134900000Y-101155359D01*
X134723374Y-101137963D01*
X134553535Y-101086443D01*
X134397010Y-101002778D01*
X134361272Y-100973448D01*
X134259815Y-100890186D01*
X134176553Y-100788729D01*
X134147223Y-100752991D01*
X134063558Y-100596466D01*
X134012038Y-100426627D01*
X134005519Y-100360442D01*
X133999001Y-100294260D01*
X133999000Y-98505741D01*
X134008922Y-98405000D01*
X134012037Y-98373374D01*
X134063557Y-98203535D01*
X134144026Y-98052989D01*
X134147221Y-98047011D01*
X134259814Y-97909814D01*
X134361271Y-97826552D01*
X134397009Y-97797222D01*
X134553534Y-97713557D01*
X134723373Y-97662037D01*
X134900000Y-97644641D01*
X135076626Y-97662037D01*
X135076626Y-97662037D01*
G37*
G36*
X150686626Y-93662037D02*
G01*
X150856465Y-93713557D01*
X150856467Y-93713558D01*
X151012989Y-93797221D01*
X151150186Y-93909814D01*
X151209821Y-93982481D01*
X151262778Y-94047009D01*
X151346443Y-94203534D01*
X151397963Y-94373373D01*
X151397963Y-94373375D01*
X151411000Y-94505740D01*
X151411000Y-97594260D01*
X151406038Y-97644641D01*
X151397963Y-97726627D01*
X151346443Y-97896466D01*
X151262778Y-98052991D01*
X151233448Y-98088729D01*
X151150186Y-98190186D01*
X151049797Y-98272572D01*
X151012991Y-98302778D01*
X151012989Y-98302779D01*
X150880913Y-98373376D01*
X150856466Y-98386443D01*
X150686627Y-98437963D01*
X150510000Y-98455359D01*
X150333374Y-98437963D01*
X150163535Y-98386443D01*
X150139089Y-98373376D01*
X150007012Y-98302779D01*
X150007010Y-98302778D01*
X149970204Y-98272572D01*
X149869815Y-98190186D01*
X149786553Y-98088729D01*
X149757223Y-98052991D01*
X149673558Y-97896466D01*
X149622038Y-97726627D01*
X149613963Y-97644641D01*
X149609001Y-97594260D01*
X149609000Y-94505741D01*
X149622037Y-94373376D01*
X149622037Y-94373374D01*
X149673557Y-94203535D01*
X149718088Y-94120224D01*
X149757221Y-94047011D01*
X149869814Y-93909814D01*
X149972384Y-93825638D01*
X150007009Y-93797222D01*
X150163534Y-93713557D01*
X150333373Y-93662037D01*
X150510000Y-93644641D01*
X150686626Y-93662037D01*
X150686626Y-93662037D01*
G37*
G36*
X130011808Y-96806648D02*
G01*
X130163551Y-96852678D01*
X130303398Y-96927428D01*
X130425975Y-97028025D01*
X130526572Y-97150602D01*
X130601322Y-97290449D01*
X130647352Y-97442192D01*
X130662895Y-97600000D01*
X130647352Y-97757808D01*
X130601322Y-97909551D01*
X130526572Y-98049398D01*
X130425975Y-98171975D01*
X130303398Y-98272572D01*
X130163551Y-98347322D01*
X130011808Y-98393352D01*
X129893546Y-98405000D01*
X128306454Y-98405000D01*
X128188192Y-98393352D01*
X128036449Y-98347322D01*
X127896602Y-98272572D01*
X127774025Y-98171975D01*
X127673428Y-98049398D01*
X127598678Y-97909551D01*
X127552648Y-97757808D01*
X127537105Y-97600000D01*
X127552648Y-97442192D01*
X127598678Y-97290449D01*
X127673428Y-97150602D01*
X127774025Y-97028025D01*
X127896602Y-96927428D01*
X128036449Y-96852678D01*
X128188192Y-96806648D01*
X128306454Y-96795000D01*
X129893546Y-96795000D01*
X130011808Y-96806648D01*
X130011808Y-96806648D01*
G37*
G36*
X145555000Y-97155000D02*
G01*
X144045000Y-97155000D01*
X144045000Y-95645000D01*
X145555000Y-95645000D01*
X145555000Y-97155000D01*
X145555000Y-97155000D01*
G37*
G36*
X138147293Y-95659507D02*
G01*
X138220225Y-95674014D01*
X138277138Y-95697588D01*
X138357626Y-95730927D01*
X138481284Y-95813553D01*
X138586447Y-95918716D01*
X138669073Y-96042374D01*
X138677954Y-96063815D01*
X138713403Y-96149396D01*
X138725986Y-96179776D01*
X138755000Y-96325638D01*
X138755000Y-96474362D01*
X138725986Y-96620224D01*
X138669073Y-96757626D01*
X138586447Y-96881284D01*
X138481284Y-96986447D01*
X138357626Y-97069073D01*
X138277138Y-97102412D01*
X138220225Y-97125986D01*
X138147293Y-97140493D01*
X138074362Y-97155000D01*
X137925638Y-97155000D01*
X137852707Y-97140493D01*
X137779775Y-97125986D01*
X137722862Y-97102412D01*
X137642374Y-97069073D01*
X137518716Y-96986447D01*
X137413553Y-96881284D01*
X137330927Y-96757626D01*
X137274014Y-96620224D01*
X137245000Y-96474362D01*
X137245000Y-96325638D01*
X137274014Y-96179776D01*
X137286598Y-96149396D01*
X137322046Y-96063815D01*
X137330927Y-96042374D01*
X137413553Y-95918716D01*
X137518716Y-95813553D01*
X137642374Y-95730927D01*
X137722862Y-95697588D01*
X137779775Y-95674014D01*
X137852707Y-95659507D01*
X137925638Y-95645000D01*
X138074362Y-95645000D01*
X138147293Y-95659507D01*
X138147293Y-95659507D01*
G37*
G36*
X100788228Y-95161703D02*
G01*
X100943100Y-95225853D01*
X101082481Y-95318985D01*
X101201015Y-95437519D01*
X101294147Y-95576900D01*
X101358297Y-95731772D01*
X101391000Y-95896184D01*
X101391000Y-96063816D01*
X101358297Y-96228228D01*
X101294147Y-96383100D01*
X101201015Y-96522481D01*
X101082481Y-96641015D01*
X100943100Y-96734147D01*
X100788228Y-96798297D01*
X100623816Y-96831000D01*
X100456184Y-96831000D01*
X100291772Y-96798297D01*
X100136900Y-96734147D01*
X99997519Y-96641015D01*
X99878985Y-96522481D01*
X99785853Y-96383100D01*
X99721703Y-96228228D01*
X99689000Y-96063816D01*
X99689000Y-95896184D01*
X99721703Y-95731772D01*
X99785853Y-95576900D01*
X99878985Y-95437519D01*
X99997519Y-95318985D01*
X100136900Y-95225853D01*
X100291772Y-95161703D01*
X100456184Y-95129000D01*
X100623816Y-95129000D01*
X100788228Y-95161703D01*
X100788228Y-95161703D01*
G37*
G36*
X103078228Y-95161703D02*
G01*
X103233100Y-95225853D01*
X103372481Y-95318985D01*
X103491015Y-95437519D01*
X103584147Y-95576900D01*
X103648297Y-95731772D01*
X103681000Y-95896184D01*
X103681000Y-96063816D01*
X103648297Y-96228228D01*
X103584147Y-96383100D01*
X103491015Y-96522481D01*
X103372481Y-96641015D01*
X103233100Y-96734147D01*
X103078228Y-96798297D01*
X102913816Y-96831000D01*
X102746184Y-96831000D01*
X102581772Y-96798297D01*
X102426900Y-96734147D01*
X102287519Y-96641015D01*
X102168985Y-96522481D01*
X102075853Y-96383100D01*
X102011703Y-96228228D01*
X101979000Y-96063816D01*
X101979000Y-95896184D01*
X102011703Y-95731772D01*
X102075853Y-95576900D01*
X102168985Y-95437519D01*
X102287519Y-95318985D01*
X102426900Y-95225853D01*
X102581772Y-95161703D01*
X102746184Y-95129000D01*
X102913816Y-95129000D01*
X103078228Y-95161703D01*
X103078228Y-95161703D01*
G37*
G36*
X109948228Y-95161703D02*
G01*
X110103100Y-95225853D01*
X110242481Y-95318985D01*
X110361015Y-95437519D01*
X110454147Y-95576900D01*
X110518297Y-95731772D01*
X110551000Y-95896184D01*
X110551000Y-96063816D01*
X110518297Y-96228228D01*
X110454147Y-96383100D01*
X110361015Y-96522481D01*
X110242481Y-96641015D01*
X110103100Y-96734147D01*
X109948228Y-96798297D01*
X109783816Y-96831000D01*
X109616184Y-96831000D01*
X109451772Y-96798297D01*
X109296900Y-96734147D01*
X109157519Y-96641015D01*
X109038985Y-96522481D01*
X108945853Y-96383100D01*
X108881703Y-96228228D01*
X108849000Y-96063816D01*
X108849000Y-95896184D01*
X108881703Y-95731772D01*
X108945853Y-95576900D01*
X109038985Y-95437519D01*
X109157519Y-95318985D01*
X109296900Y-95225853D01*
X109451772Y-95161703D01*
X109616184Y-95129000D01*
X109783816Y-95129000D01*
X109948228Y-95161703D01*
X109948228Y-95161703D01*
G37*
G36*
X105368228Y-95161703D02*
G01*
X105523100Y-95225853D01*
X105662481Y-95318985D01*
X105781015Y-95437519D01*
X105874147Y-95576900D01*
X105938297Y-95731772D01*
X105971000Y-95896184D01*
X105971000Y-96063816D01*
X105938297Y-96228228D01*
X105874147Y-96383100D01*
X105781015Y-96522481D01*
X105662481Y-96641015D01*
X105523100Y-96734147D01*
X105368228Y-96798297D01*
X105203816Y-96831000D01*
X105036184Y-96831000D01*
X104871772Y-96798297D01*
X104716900Y-96734147D01*
X104577519Y-96641015D01*
X104458985Y-96522481D01*
X104365853Y-96383100D01*
X104301703Y-96228228D01*
X104269000Y-96063816D01*
X104269000Y-95896184D01*
X104301703Y-95731772D01*
X104365853Y-95576900D01*
X104458985Y-95437519D01*
X104577519Y-95318985D01*
X104716900Y-95225853D01*
X104871772Y-95161703D01*
X105036184Y-95129000D01*
X105203816Y-95129000D01*
X105368228Y-95161703D01*
X105368228Y-95161703D01*
G37*
G36*
X107658228Y-95161703D02*
G01*
X107813100Y-95225853D01*
X107952481Y-95318985D01*
X108071015Y-95437519D01*
X108164147Y-95576900D01*
X108228297Y-95731772D01*
X108261000Y-95896184D01*
X108261000Y-96063816D01*
X108228297Y-96228228D01*
X108164147Y-96383100D01*
X108071015Y-96522481D01*
X107952481Y-96641015D01*
X107813100Y-96734147D01*
X107658228Y-96798297D01*
X107493816Y-96831000D01*
X107326184Y-96831000D01*
X107161772Y-96798297D01*
X107006900Y-96734147D01*
X106867519Y-96641015D01*
X106748985Y-96522481D01*
X106655853Y-96383100D01*
X106591703Y-96228228D01*
X106559000Y-96063816D01*
X106559000Y-95896184D01*
X106591703Y-95731772D01*
X106655853Y-95576900D01*
X106748985Y-95437519D01*
X106867519Y-95318985D01*
X107006900Y-95225853D01*
X107161772Y-95161703D01*
X107326184Y-95129000D01*
X107493816Y-95129000D01*
X107658228Y-95161703D01*
X107658228Y-95161703D01*
G37*
G36*
X128011808Y-94906648D02*
G01*
X128163551Y-94952678D01*
X128303398Y-95027428D01*
X128425975Y-95128025D01*
X128526572Y-95250602D01*
X128601322Y-95390449D01*
X128647352Y-95542192D01*
X128662895Y-95700000D01*
X128647352Y-95857808D01*
X128601322Y-96009551D01*
X128526572Y-96149398D01*
X128425975Y-96271975D01*
X128303398Y-96372572D01*
X128163551Y-96447322D01*
X128011808Y-96493352D01*
X127893546Y-96505000D01*
X126306454Y-96505000D01*
X126188192Y-96493352D01*
X126036449Y-96447322D01*
X125896602Y-96372572D01*
X125774025Y-96271975D01*
X125673428Y-96149398D01*
X125598678Y-96009551D01*
X125552648Y-95857808D01*
X125537105Y-95700000D01*
X125552648Y-95542192D01*
X125598678Y-95390449D01*
X125673428Y-95250602D01*
X125774025Y-95128025D01*
X125896602Y-95027428D01*
X126036449Y-94952678D01*
X126188192Y-94906648D01*
X126306454Y-94895000D01*
X127893546Y-94895000D01*
X128011808Y-94906648D01*
X128011808Y-94906648D01*
G37*
G36*
X93483254Y-91467818D02*
G01*
X93856511Y-91622426D01*
X93856513Y-91622427D01*
X94192436Y-91846884D01*
X94478116Y-92132564D01*
X94561802Y-92257808D01*
X94702574Y-92468489D01*
X94857182Y-92841746D01*
X94936000Y-93237993D01*
X94936000Y-93642007D01*
X94857182Y-94038254D01*
X94752491Y-94291000D01*
X94702573Y-94411513D01*
X94478116Y-94747436D01*
X94192436Y-95033116D01*
X93856513Y-95257573D01*
X93856512Y-95257574D01*
X93856511Y-95257574D01*
X93483254Y-95412182D01*
X93087007Y-95491000D01*
X92682993Y-95491000D01*
X92286746Y-95412182D01*
X91913489Y-95257574D01*
X91913488Y-95257574D01*
X91913487Y-95257573D01*
X91577564Y-95033116D01*
X91291884Y-94747436D01*
X91067427Y-94411513D01*
X91017509Y-94291000D01*
X90912818Y-94038254D01*
X90834000Y-93642007D01*
X90834000Y-93237993D01*
X90912818Y-92841746D01*
X91067426Y-92468489D01*
X91208199Y-92257808D01*
X91291884Y-92132564D01*
X91577564Y-91846884D01*
X91913487Y-91622427D01*
X91913489Y-91622426D01*
X92286746Y-91467818D01*
X92682993Y-91389000D01*
X93087007Y-91389000D01*
X93483254Y-91467818D01*
X93483254Y-91467818D01*
G37*
G36*
X118483254Y-91467818D02*
G01*
X118856511Y-91622426D01*
X118856513Y-91622427D01*
X119192436Y-91846884D01*
X119478116Y-92132564D01*
X119561802Y-92257808D01*
X119702574Y-92468489D01*
X119857182Y-92841746D01*
X119936000Y-93237993D01*
X119936000Y-93642007D01*
X119857182Y-94038254D01*
X119752491Y-94291000D01*
X119702573Y-94411513D01*
X119478116Y-94747436D01*
X119192436Y-95033116D01*
X118856513Y-95257573D01*
X118856512Y-95257574D01*
X118856511Y-95257574D01*
X118483254Y-95412182D01*
X118087007Y-95491000D01*
X117682993Y-95491000D01*
X117286746Y-95412182D01*
X116913489Y-95257574D01*
X116913488Y-95257574D01*
X116913487Y-95257573D01*
X116577564Y-95033116D01*
X116291884Y-94747436D01*
X116067427Y-94411513D01*
X116017509Y-94291000D01*
X115912818Y-94038254D01*
X115834000Y-93642007D01*
X115834000Y-93237993D01*
X115912818Y-92841746D01*
X116067426Y-92468489D01*
X116208199Y-92257808D01*
X116291884Y-92132564D01*
X116577564Y-91846884D01*
X116913487Y-91622427D01*
X116913489Y-91622426D01*
X117286746Y-91467818D01*
X117682993Y-91389000D01*
X118087007Y-91389000D01*
X118483254Y-91467818D01*
X118483254Y-91467818D01*
G37*
G36*
X124807808Y-92252648D02*
G01*
X124959551Y-92298678D01*
X125099398Y-92373428D01*
X125221975Y-92474025D01*
X125322572Y-92596602D01*
X125397322Y-92736449D01*
X125443352Y-92888192D01*
X125455000Y-93006454D01*
X125455000Y-94593546D01*
X125443352Y-94711808D01*
X125397322Y-94863551D01*
X125322572Y-95003398D01*
X125221975Y-95125975D01*
X125099397Y-95226572D01*
X124959550Y-95301322D01*
X124807807Y-95347352D01*
X124650000Y-95362895D01*
X124492192Y-95347352D01*
X124340449Y-95301322D01*
X124200602Y-95226572D01*
X124078025Y-95125975D01*
X123977428Y-95003397D01*
X123902678Y-94863550D01*
X123856648Y-94711807D01*
X123845000Y-94593545D01*
X123845001Y-93006454D01*
X123856649Y-92888192D01*
X123902679Y-92736449D01*
X123977429Y-92596602D01*
X124078026Y-92474025D01*
X124200603Y-92373428D01*
X124340450Y-92298678D01*
X124492193Y-92252648D01*
X124650000Y-92237105D01*
X124807808Y-92252648D01*
X124807808Y-92252648D01*
G37*
G36*
X133407808Y-92252648D02*
G01*
X133559551Y-92298678D01*
X133699398Y-92373428D01*
X133821975Y-92474025D01*
X133922572Y-92596602D01*
X133997322Y-92736449D01*
X134043352Y-92888192D01*
X134055000Y-93006454D01*
X134055000Y-94593546D01*
X134043352Y-94711808D01*
X133997322Y-94863551D01*
X133922572Y-95003398D01*
X133821975Y-95125975D01*
X133699397Y-95226572D01*
X133559550Y-95301322D01*
X133407807Y-95347352D01*
X133250000Y-95362895D01*
X133092192Y-95347352D01*
X132940449Y-95301322D01*
X132800602Y-95226572D01*
X132678025Y-95125975D01*
X132577428Y-95003397D01*
X132502678Y-94863550D01*
X132456648Y-94711807D01*
X132445000Y-94593545D01*
X132445001Y-93006454D01*
X132456649Y-92888192D01*
X132502679Y-92736449D01*
X132577429Y-92596602D01*
X132678026Y-92474025D01*
X132800603Y-92373428D01*
X132940450Y-92298678D01*
X133092193Y-92252648D01*
X133250000Y-92237105D01*
X133407808Y-92252648D01*
X133407808Y-92252648D01*
G37*
G36*
X138147293Y-93159507D02*
G01*
X138220225Y-93174014D01*
X138263094Y-93191771D01*
X138357626Y-93230927D01*
X138481284Y-93313553D01*
X138586447Y-93418716D01*
X138669073Y-93542374D01*
X138702412Y-93622862D01*
X138725986Y-93679775D01*
X138730834Y-93704146D01*
X138755000Y-93825638D01*
X138755000Y-93974362D01*
X138725986Y-94120224D01*
X138669073Y-94257626D01*
X138586447Y-94381284D01*
X138481284Y-94486447D01*
X138357626Y-94569073D01*
X138298542Y-94593546D01*
X138220225Y-94625986D01*
X138147293Y-94640493D01*
X138074362Y-94655000D01*
X137925638Y-94655000D01*
X137852707Y-94640493D01*
X137779775Y-94625986D01*
X137701458Y-94593546D01*
X137642374Y-94569073D01*
X137518716Y-94486447D01*
X137413553Y-94381284D01*
X137330927Y-94257626D01*
X137274014Y-94120224D01*
X137245000Y-93974362D01*
X137245000Y-93825638D01*
X137269166Y-93704146D01*
X137274014Y-93679775D01*
X137297588Y-93622862D01*
X137330927Y-93542374D01*
X137413553Y-93418716D01*
X137518716Y-93313553D01*
X137642374Y-93230927D01*
X137736906Y-93191771D01*
X137779775Y-93174014D01*
X137852707Y-93159507D01*
X137925638Y-93145000D01*
X138074362Y-93145000D01*
X138147293Y-93159507D01*
X138147293Y-93159507D01*
G37*
G36*
X144947293Y-93159507D02*
G01*
X145020225Y-93174014D01*
X145063094Y-93191771D01*
X145157626Y-93230927D01*
X145281284Y-93313553D01*
X145386447Y-93418716D01*
X145469073Y-93542374D01*
X145502412Y-93622862D01*
X145525986Y-93679775D01*
X145530834Y-93704146D01*
X145555000Y-93825638D01*
X145555000Y-93974362D01*
X145525986Y-94120224D01*
X145469073Y-94257626D01*
X145386447Y-94381284D01*
X145281284Y-94486447D01*
X145157626Y-94569073D01*
X145098542Y-94593546D01*
X145020225Y-94625986D01*
X144947293Y-94640493D01*
X144874362Y-94655000D01*
X144725638Y-94655000D01*
X144652707Y-94640493D01*
X144579775Y-94625986D01*
X144501458Y-94593546D01*
X144442374Y-94569073D01*
X144318716Y-94486447D01*
X144213553Y-94381284D01*
X144130927Y-94257626D01*
X144074014Y-94120224D01*
X144045000Y-93974362D01*
X144045000Y-93825638D01*
X144069166Y-93704146D01*
X144074014Y-93679775D01*
X144097588Y-93622862D01*
X144130927Y-93542374D01*
X144213553Y-93418716D01*
X144318716Y-93313553D01*
X144442374Y-93230927D01*
X144536906Y-93191771D01*
X144579775Y-93174014D01*
X144652707Y-93159507D01*
X144725638Y-93145000D01*
X144874362Y-93145000D01*
X144947293Y-93159507D01*
X144947293Y-93159507D01*
G37*
G36*
X167116031Y-90264207D02*
G01*
X167314145Y-90324305D01*
X167314148Y-90324306D01*
X167376285Y-90357519D01*
X167496729Y-90421897D01*
X167656765Y-90553235D01*
X167788103Y-90713271D01*
X167788104Y-90713273D01*
X167885694Y-90895851D01*
X167885694Y-90895852D01*
X167885695Y-90895854D01*
X167945793Y-91093968D01*
X167945793Y-91093970D01*
X167961000Y-91248369D01*
X167961000Y-93351631D01*
X167960551Y-93356185D01*
X167945793Y-93506032D01*
X167904545Y-93642006D01*
X167885694Y-93704149D01*
X167835946Y-93797221D01*
X167788103Y-93886729D01*
X167656765Y-94046765D01*
X167496729Y-94178103D01*
X167410975Y-94223939D01*
X167314149Y-94275694D01*
X167314146Y-94275695D01*
X167116032Y-94335793D01*
X166910000Y-94356085D01*
X166703969Y-94335793D01*
X166505855Y-94275695D01*
X166505852Y-94275694D01*
X166409026Y-94223939D01*
X166323272Y-94178103D01*
X166163236Y-94046765D01*
X166031898Y-93886729D01*
X165984055Y-93797221D01*
X165934307Y-93704149D01*
X165915456Y-93642006D01*
X165874208Y-93506032D01*
X165859450Y-93356185D01*
X165859001Y-93351631D01*
X165859000Y-91248370D01*
X165874207Y-91093971D01*
X165874207Y-91093969D01*
X165934305Y-90895855D01*
X165934306Y-90895852D01*
X165976890Y-90816184D01*
X166031897Y-90713271D01*
X166163235Y-90553235D01*
X166323271Y-90421897D01*
X166409025Y-90376061D01*
X166505851Y-90324306D01*
X166505854Y-90324305D01*
X166703968Y-90264207D01*
X166910000Y-90243915D01*
X167116031Y-90264207D01*
X167116031Y-90264207D01*
G37*
G36*
X174616031Y-90264207D02*
G01*
X174814145Y-90324305D01*
X174814148Y-90324306D01*
X174876285Y-90357519D01*
X174996729Y-90421897D01*
X175156765Y-90553235D01*
X175288103Y-90713271D01*
X175288104Y-90713273D01*
X175385694Y-90895851D01*
X175385694Y-90895852D01*
X175385695Y-90895854D01*
X175445793Y-91093968D01*
X175445793Y-91093970D01*
X175461000Y-91248369D01*
X175461000Y-93351631D01*
X175460551Y-93356185D01*
X175445793Y-93506032D01*
X175404545Y-93642006D01*
X175385694Y-93704149D01*
X175335946Y-93797221D01*
X175288103Y-93886729D01*
X175156765Y-94046765D01*
X174996729Y-94178103D01*
X174910975Y-94223939D01*
X174814149Y-94275694D01*
X174814146Y-94275695D01*
X174616032Y-94335793D01*
X174410000Y-94356085D01*
X174203969Y-94335793D01*
X174005855Y-94275695D01*
X174005852Y-94275694D01*
X173909026Y-94223939D01*
X173823272Y-94178103D01*
X173663236Y-94046765D01*
X173531898Y-93886729D01*
X173484055Y-93797221D01*
X173434307Y-93704149D01*
X173415456Y-93642006D01*
X173374208Y-93506032D01*
X173359450Y-93356185D01*
X173359001Y-93351631D01*
X173359000Y-91248370D01*
X173374207Y-91093971D01*
X173374207Y-91093969D01*
X173434305Y-90895855D01*
X173434306Y-90895852D01*
X173476890Y-90816184D01*
X173531897Y-90713271D01*
X173663235Y-90553235D01*
X173823271Y-90421897D01*
X173909025Y-90376061D01*
X174005851Y-90324306D01*
X174005854Y-90324305D01*
X174203968Y-90264207D01*
X174410000Y-90243915D01*
X174616031Y-90264207D01*
X174616031Y-90264207D01*
G37*
G36*
X160616031Y-90264207D02*
G01*
X160814145Y-90324305D01*
X160814148Y-90324306D01*
X160876285Y-90357519D01*
X160996729Y-90421897D01*
X161156765Y-90553235D01*
X161288103Y-90713271D01*
X161288104Y-90713273D01*
X161385694Y-90895851D01*
X161385694Y-90895852D01*
X161385695Y-90895854D01*
X161445793Y-91093968D01*
X161445793Y-91093970D01*
X161461000Y-91248369D01*
X161461000Y-93351631D01*
X161460551Y-93356185D01*
X161445793Y-93506032D01*
X161404545Y-93642006D01*
X161385694Y-93704149D01*
X161335946Y-93797221D01*
X161288103Y-93886729D01*
X161156765Y-94046765D01*
X160996729Y-94178103D01*
X160910975Y-94223939D01*
X160814149Y-94275694D01*
X160814146Y-94275695D01*
X160616032Y-94335793D01*
X160410000Y-94356085D01*
X160203969Y-94335793D01*
X160005855Y-94275695D01*
X160005852Y-94275694D01*
X159909026Y-94223939D01*
X159823272Y-94178103D01*
X159663236Y-94046765D01*
X159531898Y-93886729D01*
X159484055Y-93797221D01*
X159434307Y-93704149D01*
X159415456Y-93642006D01*
X159374208Y-93506032D01*
X159359450Y-93356185D01*
X159359001Y-93351631D01*
X159359000Y-91248370D01*
X159374207Y-91093971D01*
X159374207Y-91093969D01*
X159434305Y-90895855D01*
X159434306Y-90895852D01*
X159476890Y-90816184D01*
X159531897Y-90713271D01*
X159663235Y-90553235D01*
X159823271Y-90421897D01*
X159909025Y-90376061D01*
X160005851Y-90324306D01*
X160005854Y-90324305D01*
X160203968Y-90264207D01*
X160410000Y-90243915D01*
X160616031Y-90264207D01*
X160616031Y-90264207D01*
G37*
G36*
X153116031Y-90264207D02*
G01*
X153314145Y-90324305D01*
X153314148Y-90324306D01*
X153376285Y-90357519D01*
X153496729Y-90421897D01*
X153656765Y-90553235D01*
X153788103Y-90713271D01*
X153788104Y-90713273D01*
X153885694Y-90895851D01*
X153885694Y-90895852D01*
X153885695Y-90895854D01*
X153945793Y-91093968D01*
X153945793Y-91093970D01*
X153961000Y-91248369D01*
X153961000Y-93351631D01*
X153960551Y-93356185D01*
X153945793Y-93506032D01*
X153904545Y-93642006D01*
X153885694Y-93704149D01*
X153835946Y-93797221D01*
X153788103Y-93886729D01*
X153656765Y-94046765D01*
X153496729Y-94178103D01*
X153410975Y-94223939D01*
X153314149Y-94275694D01*
X153314146Y-94275695D01*
X153116032Y-94335793D01*
X152910000Y-94356085D01*
X152703969Y-94335793D01*
X152505855Y-94275695D01*
X152505852Y-94275694D01*
X152409026Y-94223939D01*
X152323272Y-94178103D01*
X152163236Y-94046765D01*
X152031898Y-93886729D01*
X151984055Y-93797221D01*
X151934307Y-93704149D01*
X151915456Y-93642006D01*
X151874208Y-93506032D01*
X151859450Y-93356185D01*
X151859001Y-93351631D01*
X151859000Y-91248370D01*
X151874207Y-91093971D01*
X151874207Y-91093969D01*
X151934305Y-90895855D01*
X151934306Y-90895852D01*
X151976890Y-90816184D01*
X152031897Y-90713271D01*
X152163235Y-90553235D01*
X152323271Y-90421897D01*
X152409025Y-90376061D01*
X152505851Y-90324306D01*
X152505854Y-90324305D01*
X152703968Y-90264207D01*
X152910000Y-90243915D01*
X153116031Y-90264207D01*
X153116031Y-90264207D01*
G37*
G36*
X181116031Y-90264207D02*
G01*
X181314145Y-90324305D01*
X181314148Y-90324306D01*
X181376285Y-90357519D01*
X181496729Y-90421897D01*
X181656765Y-90553235D01*
X181788103Y-90713271D01*
X181788104Y-90713273D01*
X181885694Y-90895851D01*
X181885694Y-90895852D01*
X181885695Y-90895854D01*
X181945793Y-91093968D01*
X181945793Y-91093970D01*
X181961000Y-91248369D01*
X181961000Y-93351631D01*
X181960551Y-93356185D01*
X181945793Y-93506032D01*
X181904545Y-93642006D01*
X181885694Y-93704149D01*
X181835946Y-93797221D01*
X181788103Y-93886729D01*
X181656765Y-94046765D01*
X181496729Y-94178103D01*
X181410975Y-94223939D01*
X181314149Y-94275694D01*
X181314146Y-94275695D01*
X181116032Y-94335793D01*
X180910000Y-94356085D01*
X180703969Y-94335793D01*
X180505855Y-94275695D01*
X180505852Y-94275694D01*
X180409026Y-94223939D01*
X180323272Y-94178103D01*
X180163236Y-94046765D01*
X180031898Y-93886729D01*
X179984055Y-93797221D01*
X179934307Y-93704149D01*
X179915456Y-93642006D01*
X179874208Y-93506032D01*
X179859450Y-93356185D01*
X179859001Y-93351631D01*
X179859000Y-91248370D01*
X179874207Y-91093971D01*
X179874207Y-91093969D01*
X179934305Y-90895855D01*
X179934306Y-90895852D01*
X179976890Y-90816184D01*
X180031897Y-90713271D01*
X180163235Y-90553235D01*
X180323271Y-90421897D01*
X180409025Y-90376061D01*
X180505851Y-90324306D01*
X180505854Y-90324305D01*
X180703968Y-90264207D01*
X180910000Y-90243915D01*
X181116031Y-90264207D01*
X181116031Y-90264207D01*
G37*
G36*
X188616031Y-90264207D02*
G01*
X188814145Y-90324305D01*
X188814148Y-90324306D01*
X188876285Y-90357519D01*
X188996729Y-90421897D01*
X189156765Y-90553235D01*
X189288103Y-90713271D01*
X189288104Y-90713273D01*
X189385694Y-90895851D01*
X189385694Y-90895852D01*
X189385695Y-90895854D01*
X189445793Y-91093968D01*
X189445793Y-91093970D01*
X189461000Y-91248369D01*
X189461000Y-93351631D01*
X189460551Y-93356185D01*
X189445793Y-93506032D01*
X189404545Y-93642006D01*
X189385694Y-93704149D01*
X189335946Y-93797221D01*
X189288103Y-93886729D01*
X189156765Y-94046765D01*
X188996729Y-94178103D01*
X188910975Y-94223939D01*
X188814149Y-94275694D01*
X188814146Y-94275695D01*
X188616032Y-94335793D01*
X188410000Y-94356085D01*
X188203969Y-94335793D01*
X188005855Y-94275695D01*
X188005852Y-94275694D01*
X187909026Y-94223939D01*
X187823272Y-94178103D01*
X187663236Y-94046765D01*
X187531898Y-93886729D01*
X187484055Y-93797221D01*
X187434307Y-93704149D01*
X187415456Y-93642006D01*
X187374208Y-93506032D01*
X187359450Y-93356185D01*
X187359001Y-93351631D01*
X187359000Y-91248370D01*
X187374207Y-91093971D01*
X187374207Y-91093969D01*
X187434305Y-90895855D01*
X187434306Y-90895852D01*
X187476890Y-90816184D01*
X187531897Y-90713271D01*
X187663235Y-90553235D01*
X187823271Y-90421897D01*
X187909025Y-90376061D01*
X188005851Y-90324306D01*
X188005854Y-90324305D01*
X188203968Y-90264207D01*
X188410000Y-90243915D01*
X188616031Y-90264207D01*
X188616031Y-90264207D01*
G37*
G36*
X111093228Y-92621703D02*
G01*
X111248100Y-92685853D01*
X111387481Y-92778985D01*
X111506015Y-92897519D01*
X111599147Y-93036900D01*
X111663297Y-93191772D01*
X111696000Y-93356184D01*
X111696000Y-93523816D01*
X111663297Y-93688228D01*
X111599147Y-93843100D01*
X111506015Y-93982481D01*
X111387481Y-94101015D01*
X111248100Y-94194147D01*
X111093228Y-94258297D01*
X110928816Y-94291000D01*
X110761184Y-94291000D01*
X110596772Y-94258297D01*
X110441900Y-94194147D01*
X110302519Y-94101015D01*
X110183985Y-93982481D01*
X110090853Y-93843100D01*
X110026703Y-93688228D01*
X109994000Y-93523816D01*
X109994000Y-93356184D01*
X110026703Y-93191772D01*
X110090853Y-93036900D01*
X110183985Y-92897519D01*
X110302519Y-92778985D01*
X110441900Y-92685853D01*
X110596772Y-92621703D01*
X110761184Y-92589000D01*
X110928816Y-92589000D01*
X111093228Y-92621703D01*
X111093228Y-92621703D01*
G37*
G36*
X104223228Y-92621703D02*
G01*
X104378100Y-92685853D01*
X104517481Y-92778985D01*
X104636015Y-92897519D01*
X104729147Y-93036900D01*
X104793297Y-93191772D01*
X104826000Y-93356184D01*
X104826000Y-93523816D01*
X104793297Y-93688228D01*
X104729147Y-93843100D01*
X104636015Y-93982481D01*
X104517481Y-94101015D01*
X104378100Y-94194147D01*
X104223228Y-94258297D01*
X104058816Y-94291000D01*
X103891184Y-94291000D01*
X103726772Y-94258297D01*
X103571900Y-94194147D01*
X103432519Y-94101015D01*
X103313985Y-93982481D01*
X103220853Y-93843100D01*
X103156703Y-93688228D01*
X103124000Y-93523816D01*
X103124000Y-93356184D01*
X103156703Y-93191772D01*
X103220853Y-93036900D01*
X103313985Y-92897519D01*
X103432519Y-92778985D01*
X103571900Y-92685853D01*
X103726772Y-92621703D01*
X103891184Y-92589000D01*
X104058816Y-92589000D01*
X104223228Y-92621703D01*
X104223228Y-92621703D01*
G37*
G36*
X108803228Y-92621703D02*
G01*
X108958100Y-92685853D01*
X109097481Y-92778985D01*
X109216015Y-92897519D01*
X109309147Y-93036900D01*
X109373297Y-93191772D01*
X109406000Y-93356184D01*
X109406000Y-93523816D01*
X109373297Y-93688228D01*
X109309147Y-93843100D01*
X109216015Y-93982481D01*
X109097481Y-94101015D01*
X108958100Y-94194147D01*
X108803228Y-94258297D01*
X108638816Y-94291000D01*
X108471184Y-94291000D01*
X108306772Y-94258297D01*
X108151900Y-94194147D01*
X108012519Y-94101015D01*
X107893985Y-93982481D01*
X107800853Y-93843100D01*
X107736703Y-93688228D01*
X107704000Y-93523816D01*
X107704000Y-93356184D01*
X107736703Y-93191772D01*
X107800853Y-93036900D01*
X107893985Y-92897519D01*
X108012519Y-92778985D01*
X108151900Y-92685853D01*
X108306772Y-92621703D01*
X108471184Y-92589000D01*
X108638816Y-92589000D01*
X108803228Y-92621703D01*
X108803228Y-92621703D01*
G37*
G36*
X106513228Y-92621703D02*
G01*
X106668100Y-92685853D01*
X106807481Y-92778985D01*
X106926015Y-92897519D01*
X107019147Y-93036900D01*
X107083297Y-93191772D01*
X107116000Y-93356184D01*
X107116000Y-93523816D01*
X107083297Y-93688228D01*
X107019147Y-93843100D01*
X106926015Y-93982481D01*
X106807481Y-94101015D01*
X106668100Y-94194147D01*
X106513228Y-94258297D01*
X106348816Y-94291000D01*
X106181184Y-94291000D01*
X106016772Y-94258297D01*
X105861900Y-94194147D01*
X105722519Y-94101015D01*
X105603985Y-93982481D01*
X105510853Y-93843100D01*
X105446703Y-93688228D01*
X105414000Y-93523816D01*
X105414000Y-93356184D01*
X105446703Y-93191772D01*
X105510853Y-93036900D01*
X105603985Y-92897519D01*
X105722519Y-92778985D01*
X105861900Y-92685853D01*
X106016772Y-92621703D01*
X106181184Y-92589000D01*
X106348816Y-92589000D01*
X106513228Y-92621703D01*
X106513228Y-92621703D01*
G37*
G36*
X101933228Y-92621703D02*
G01*
X102088100Y-92685853D01*
X102227481Y-92778985D01*
X102346015Y-92897519D01*
X102439147Y-93036900D01*
X102503297Y-93191772D01*
X102536000Y-93356184D01*
X102536000Y-93523816D01*
X102503297Y-93688228D01*
X102439147Y-93843100D01*
X102346015Y-93982481D01*
X102227481Y-94101015D01*
X102088100Y-94194147D01*
X101933228Y-94258297D01*
X101768816Y-94291000D01*
X101601184Y-94291000D01*
X101436772Y-94258297D01*
X101281900Y-94194147D01*
X101142519Y-94101015D01*
X101023985Y-93982481D01*
X100930853Y-93843100D01*
X100866703Y-93688228D01*
X100834000Y-93523816D01*
X100834000Y-93356184D01*
X100866703Y-93191772D01*
X100930853Y-93036900D01*
X101023985Y-92897519D01*
X101142519Y-92778985D01*
X101281900Y-92685853D01*
X101436772Y-92621703D01*
X101601184Y-92589000D01*
X101768816Y-92589000D01*
X101933228Y-92621703D01*
X101933228Y-92621703D01*
G37*
G36*
X130011808Y-91306648D02*
G01*
X130163551Y-91352678D01*
X130303398Y-91427428D01*
X130425975Y-91528025D01*
X130526572Y-91650602D01*
X130601322Y-91790449D01*
X130647352Y-91942192D01*
X130662895Y-92100000D01*
X130647352Y-92257808D01*
X130601322Y-92409551D01*
X130526572Y-92549398D01*
X130425975Y-92671975D01*
X130303398Y-92772572D01*
X130163551Y-92847322D01*
X130011808Y-92893352D01*
X129893546Y-92905000D01*
X128306454Y-92905000D01*
X128188192Y-92893352D01*
X128036449Y-92847322D01*
X127896602Y-92772572D01*
X127774025Y-92671975D01*
X127673428Y-92549398D01*
X127598678Y-92409551D01*
X127552648Y-92257808D01*
X127537105Y-92100000D01*
X127552648Y-91942192D01*
X127598678Y-91790449D01*
X127673428Y-91650602D01*
X127774025Y-91528025D01*
X127896602Y-91427428D01*
X128036449Y-91352678D01*
X128188192Y-91306648D01*
X128306454Y-91295000D01*
X129893546Y-91295000D01*
X130011808Y-91306648D01*
X130011808Y-91306648D01*
G37*
G36*
X100788228Y-90081703D02*
G01*
X100943100Y-90145853D01*
X101082481Y-90238985D01*
X101201015Y-90357519D01*
X101294147Y-90496900D01*
X101358297Y-90651772D01*
X101391000Y-90816184D01*
X101391000Y-90983816D01*
X101358297Y-91148228D01*
X101294147Y-91303100D01*
X101201015Y-91442481D01*
X101082481Y-91561015D01*
X100943100Y-91654147D01*
X100788228Y-91718297D01*
X100623816Y-91751000D01*
X100456184Y-91751000D01*
X100291772Y-91718297D01*
X100136900Y-91654147D01*
X99997519Y-91561015D01*
X99878985Y-91442481D01*
X99785853Y-91303100D01*
X99721703Y-91148228D01*
X99689000Y-90983816D01*
X99689000Y-90816184D01*
X99721703Y-90651772D01*
X99785853Y-90496900D01*
X99878985Y-90357519D01*
X99997519Y-90238985D01*
X100136900Y-90145853D01*
X100291772Y-90081703D01*
X100456184Y-90049000D01*
X100623816Y-90049000D01*
X100788228Y-90081703D01*
X100788228Y-90081703D01*
G37*
G36*
X103078228Y-90081703D02*
G01*
X103233100Y-90145853D01*
X103372481Y-90238985D01*
X103491015Y-90357519D01*
X103584147Y-90496900D01*
X103648297Y-90651772D01*
X103681000Y-90816184D01*
X103681000Y-90983816D01*
X103648297Y-91148228D01*
X103584147Y-91303100D01*
X103491015Y-91442481D01*
X103372481Y-91561015D01*
X103233100Y-91654147D01*
X103078228Y-91718297D01*
X102913816Y-91751000D01*
X102746184Y-91751000D01*
X102581772Y-91718297D01*
X102426900Y-91654147D01*
X102287519Y-91561015D01*
X102168985Y-91442481D01*
X102075853Y-91303100D01*
X102011703Y-91148228D01*
X101979000Y-90983816D01*
X101979000Y-90816184D01*
X102011703Y-90651772D01*
X102075853Y-90496900D01*
X102168985Y-90357519D01*
X102287519Y-90238985D01*
X102426900Y-90145853D01*
X102581772Y-90081703D01*
X102746184Y-90049000D01*
X102913816Y-90049000D01*
X103078228Y-90081703D01*
X103078228Y-90081703D01*
G37*
G36*
X105368228Y-90081703D02*
G01*
X105523100Y-90145853D01*
X105662481Y-90238985D01*
X105781015Y-90357519D01*
X105874147Y-90496900D01*
X105938297Y-90651772D01*
X105971000Y-90816184D01*
X105971000Y-90983816D01*
X105938297Y-91148228D01*
X105874147Y-91303100D01*
X105781015Y-91442481D01*
X105662481Y-91561015D01*
X105523100Y-91654147D01*
X105368228Y-91718297D01*
X105203816Y-91751000D01*
X105036184Y-91751000D01*
X104871772Y-91718297D01*
X104716900Y-91654147D01*
X104577519Y-91561015D01*
X104458985Y-91442481D01*
X104365853Y-91303100D01*
X104301703Y-91148228D01*
X104269000Y-90983816D01*
X104269000Y-90816184D01*
X104301703Y-90651772D01*
X104365853Y-90496900D01*
X104458985Y-90357519D01*
X104577519Y-90238985D01*
X104716900Y-90145853D01*
X104871772Y-90081703D01*
X105036184Y-90049000D01*
X105203816Y-90049000D01*
X105368228Y-90081703D01*
X105368228Y-90081703D01*
G37*
G36*
X107658228Y-90081703D02*
G01*
X107813100Y-90145853D01*
X107952481Y-90238985D01*
X108071015Y-90357519D01*
X108164147Y-90496900D01*
X108228297Y-90651772D01*
X108261000Y-90816184D01*
X108261000Y-90983816D01*
X108228297Y-91148228D01*
X108164147Y-91303100D01*
X108071015Y-91442481D01*
X107952481Y-91561015D01*
X107813100Y-91654147D01*
X107658228Y-91718297D01*
X107493816Y-91751000D01*
X107326184Y-91751000D01*
X107161772Y-91718297D01*
X107006900Y-91654147D01*
X106867519Y-91561015D01*
X106748985Y-91442481D01*
X106655853Y-91303100D01*
X106591703Y-91148228D01*
X106559000Y-90983816D01*
X106559000Y-90816184D01*
X106591703Y-90651772D01*
X106655853Y-90496900D01*
X106748985Y-90357519D01*
X106867519Y-90238985D01*
X107006900Y-90145853D01*
X107161772Y-90081703D01*
X107326184Y-90049000D01*
X107493816Y-90049000D01*
X107658228Y-90081703D01*
X107658228Y-90081703D01*
G37*
G36*
X110551000Y-91751000D02*
G01*
X108849000Y-91751000D01*
X108849000Y-90049000D01*
X110551000Y-90049000D01*
X110551000Y-91751000D01*
X110551000Y-91751000D01*
G37*
G36*
X168984934Y-85010671D02*
G01*
X169014877Y-85019754D01*
X169042465Y-85034500D01*
X169066651Y-85054349D01*
X169086500Y-85078535D01*
X169101246Y-85106123D01*
X169110329Y-85136066D01*
X169114000Y-85173340D01*
X169114000Y-88942660D01*
X169110329Y-88979934D01*
X169101246Y-89009877D01*
X169086500Y-89037465D01*
X169066651Y-89061651D01*
X169042465Y-89081500D01*
X169014877Y-89096246D01*
X168984934Y-89105329D01*
X168947660Y-89109000D01*
X166678340Y-89109000D01*
X166641066Y-89105329D01*
X166611123Y-89096246D01*
X166583535Y-89081500D01*
X166559349Y-89061651D01*
X166539500Y-89037465D01*
X166524754Y-89009877D01*
X166515671Y-88979934D01*
X166512000Y-88942660D01*
X166512000Y-85173340D01*
X166515671Y-85136066D01*
X166524754Y-85106123D01*
X166539500Y-85078535D01*
X166559349Y-85054349D01*
X166583535Y-85034500D01*
X166611123Y-85019754D01*
X166641066Y-85010671D01*
X166678340Y-85007000D01*
X168947660Y-85007000D01*
X168984934Y-85010671D01*
X168984934Y-85010671D01*
G37*
G36*
X157889934Y-85010671D02*
G01*
X157919877Y-85019754D01*
X157947465Y-85034500D01*
X157971651Y-85054349D01*
X157991500Y-85078535D01*
X158006246Y-85106123D01*
X158015329Y-85136066D01*
X158019000Y-85173340D01*
X158019000Y-88942660D01*
X158015329Y-88979934D01*
X158006246Y-89009877D01*
X157991500Y-89037465D01*
X157971651Y-89061651D01*
X157947465Y-89081500D01*
X157919877Y-89096246D01*
X157889934Y-89105329D01*
X157852660Y-89109000D01*
X155583340Y-89109000D01*
X155546066Y-89105329D01*
X155516123Y-89096246D01*
X155488535Y-89081500D01*
X155464349Y-89061651D01*
X155444500Y-89037465D01*
X155429754Y-89009877D01*
X155420671Y-88979934D01*
X155417000Y-88942660D01*
X155417000Y-85173340D01*
X155420671Y-85136066D01*
X155429754Y-85106123D01*
X155444500Y-85078535D01*
X155464349Y-85054349D01*
X155488535Y-85034500D01*
X155516123Y-85019754D01*
X155546066Y-85010671D01*
X155583340Y-85007000D01*
X157852660Y-85007000D01*
X157889934Y-85010671D01*
X157889934Y-85010671D01*
G37*
G36*
X180114934Y-85010671D02*
G01*
X180144877Y-85019754D01*
X180172465Y-85034500D01*
X180196651Y-85054349D01*
X180216500Y-85078535D01*
X180231246Y-85106123D01*
X180240329Y-85136066D01*
X180244000Y-85173340D01*
X180244000Y-88942660D01*
X180240329Y-88979934D01*
X180231246Y-89009877D01*
X180216500Y-89037465D01*
X180196651Y-89061651D01*
X180172465Y-89081500D01*
X180144877Y-89096246D01*
X180114934Y-89105329D01*
X180077660Y-89109000D01*
X177808340Y-89109000D01*
X177771066Y-89105329D01*
X177741123Y-89096246D01*
X177713535Y-89081500D01*
X177689349Y-89061651D01*
X177669500Y-89037465D01*
X177654754Y-89009877D01*
X177645671Y-88979934D01*
X177642000Y-88942660D01*
X177642000Y-85173340D01*
X177645671Y-85136066D01*
X177654754Y-85106123D01*
X177669500Y-85078535D01*
X177689349Y-85054349D01*
X177713535Y-85034500D01*
X177741123Y-85019754D01*
X177771066Y-85010671D01*
X177808340Y-85007000D01*
X180077660Y-85007000D01*
X180114934Y-85010671D01*
X180114934Y-85010671D01*
G37*
G36*
X92212860Y-85512388D02*
G01*
X92231802Y-85527934D01*
X92253413Y-85539485D01*
X92276862Y-85546598D01*
X92301248Y-85549000D01*
X92303516Y-85549000D01*
X92506564Y-85589389D01*
X92697833Y-85668615D01*
X92697835Y-85668616D01*
X92869973Y-85783635D01*
X93016365Y-85930027D01*
X93131385Y-86102167D01*
X93210611Y-86293436D01*
X93251000Y-86496484D01*
X93251000Y-86703516D01*
X93210611Y-86906564D01*
X93131385Y-87097833D01*
X93131384Y-87097835D01*
X93016365Y-87269973D01*
X92869973Y-87416365D01*
X92697835Y-87531384D01*
X92697834Y-87531385D01*
X92697833Y-87531385D01*
X92506564Y-87610611D01*
X92303516Y-87651000D01*
X92096484Y-87651000D01*
X91893436Y-87610611D01*
X91702167Y-87531385D01*
X91702166Y-87531385D01*
X91702165Y-87531384D01*
X91530027Y-87416365D01*
X91383635Y-87269973D01*
X91268616Y-87097835D01*
X91268615Y-87097833D01*
X91189389Y-86906564D01*
X91149000Y-86703516D01*
X91149000Y-86496484D01*
X91189389Y-86293436D01*
X91268615Y-86102167D01*
X91383635Y-85930027D01*
X91530027Y-85783635D01*
X91702165Y-85668616D01*
X91702167Y-85668615D01*
X91893436Y-85589389D01*
X92096484Y-85549000D01*
X92098752Y-85549000D01*
X92123138Y-85546598D01*
X92146587Y-85539485D01*
X92168198Y-85527934D01*
X92187140Y-85512389D01*
X92200000Y-85496718D01*
X92212860Y-85512388D01*
X92212860Y-85512388D01*
G37*
G36*
X92433642Y-83729781D02*
G01*
X92579414Y-83790162D01*
X92579416Y-83790163D01*
X92710608Y-83877822D01*
X92822178Y-83989392D01*
X92829934Y-84001000D01*
X92909838Y-84120586D01*
X92970219Y-84266358D01*
X93001000Y-84421107D01*
X93001000Y-84578893D01*
X92970219Y-84733642D01*
X92909838Y-84879414D01*
X92909837Y-84879416D01*
X92822178Y-85010608D01*
X92710608Y-85122178D01*
X92579416Y-85209837D01*
X92579415Y-85209838D01*
X92579414Y-85209838D01*
X92433642Y-85270219D01*
X92276862Y-85301404D01*
X92253413Y-85308517D01*
X92231803Y-85320068D01*
X92212861Y-85335613D01*
X92200000Y-85351283D01*
X92187140Y-85335613D01*
X92168198Y-85320068D01*
X92146587Y-85308517D01*
X92123138Y-85301404D01*
X91966358Y-85270219D01*
X91820586Y-85209838D01*
X91820585Y-85209838D01*
X91820584Y-85209837D01*
X91689392Y-85122178D01*
X91577822Y-85010608D01*
X91490163Y-84879416D01*
X91490162Y-84879414D01*
X91429781Y-84733642D01*
X91399000Y-84578893D01*
X91399000Y-84421107D01*
X91429781Y-84266358D01*
X91490162Y-84120586D01*
X91570066Y-84001000D01*
X91577822Y-83989392D01*
X91689392Y-83877822D01*
X91820584Y-83790163D01*
X91820586Y-83790162D01*
X91966358Y-83729781D01*
X92121107Y-83699000D01*
X92278893Y-83699000D01*
X92433642Y-83729781D01*
X92433642Y-83729781D01*
G37*
G36*
X160779999Y-81872737D02*
G01*
X160789608Y-81875652D01*
X160798472Y-81880390D01*
X160806237Y-81886763D01*
X160812610Y-81894528D01*
X160817348Y-81903392D01*
X160820263Y-81913001D01*
X160821852Y-81929140D01*
X160821852Y-82916860D01*
X160820263Y-82932999D01*
X160817348Y-82942608D01*
X160812610Y-82951472D01*
X160806258Y-82959212D01*
X160806237Y-82959237D01*
X160798427Y-82965640D01*
X160798372Y-82965677D01*
X160788853Y-82973480D01*
X160788878Y-82973511D01*
X160775028Y-82984853D01*
X160759463Y-83003779D01*
X160747889Y-83025377D01*
X160740751Y-83048819D01*
X160738324Y-83073202D01*
X160740700Y-83097591D01*
X160747789Y-83121047D01*
X160759318Y-83142670D01*
X160774843Y-83161628D01*
X160793769Y-83177193D01*
X160796825Y-83179029D01*
X160798514Y-83180418D01*
X160798516Y-83180419D01*
X160804712Y-83185515D01*
X160806274Y-83186800D01*
X160812642Y-83194575D01*
X160815791Y-83200483D01*
X160817367Y-83203438D01*
X160819301Y-83209838D01*
X160820282Y-83213085D01*
X160821852Y-83229113D01*
X160821852Y-84366860D01*
X160820263Y-84382999D01*
X160817348Y-84392608D01*
X160812610Y-84401472D01*
X160806237Y-84409237D01*
X160798472Y-84415610D01*
X160789608Y-84420348D01*
X160779999Y-84423263D01*
X160763860Y-84424852D01*
X159276140Y-84424852D01*
X159260001Y-84423263D01*
X159250392Y-84420348D01*
X159241528Y-84415610D01*
X159233763Y-84409237D01*
X159227390Y-84401472D01*
X159222652Y-84392608D01*
X159219737Y-84382999D01*
X159218148Y-84366860D01*
X159218148Y-83229140D01*
X159219737Y-83213001D01*
X159222652Y-83203392D01*
X159227390Y-83194528D01*
X159233763Y-83186763D01*
X159246737Y-83176116D01*
X159255968Y-83169947D01*
X159273294Y-83152619D01*
X159286907Y-83132244D01*
X159296283Y-83109605D01*
X159301063Y-83085572D01*
X159301062Y-83061068D01*
X159296280Y-83037035D01*
X159286902Y-83014396D01*
X159273287Y-82994022D01*
X159255959Y-82976696D01*
X159246683Y-82969825D01*
X159233800Y-82959274D01*
X159232668Y-82957897D01*
X159227419Y-82951516D01*
X159222674Y-82942661D01*
X159220456Y-82935377D01*
X159219758Y-82933085D01*
X159219758Y-82933082D01*
X159219748Y-82933050D01*
X159218753Y-82923000D01*
X159218753Y-82922935D01*
X159218148Y-82916825D01*
X159218148Y-81929140D01*
X159219737Y-81913001D01*
X159222652Y-81903392D01*
X159227390Y-81894528D01*
X159233763Y-81886763D01*
X159241528Y-81880390D01*
X159250392Y-81875652D01*
X159260001Y-81872737D01*
X159276140Y-81871148D01*
X160763860Y-81871148D01*
X160779999Y-81872737D01*
X160779999Y-81872737D01*
G37*
G36*
X183004999Y-81819737D02*
G01*
X183014608Y-81822652D01*
X183023472Y-81827390D01*
X183031237Y-81833763D01*
X183037610Y-81841528D01*
X183042348Y-81850392D01*
X183045263Y-81860001D01*
X183046852Y-81876140D01*
X183046852Y-82863860D01*
X183045263Y-82879999D01*
X183042348Y-82889608D01*
X183037610Y-82898472D01*
X183033055Y-82904022D01*
X183031237Y-82906237D01*
X183023427Y-82912640D01*
X183023372Y-82912677D01*
X183013853Y-82920480D01*
X183013878Y-82920511D01*
X183000028Y-82931853D01*
X182984463Y-82950779D01*
X182972889Y-82972377D01*
X182965751Y-82995819D01*
X182963324Y-83020202D01*
X182965700Y-83044591D01*
X182972789Y-83068047D01*
X182984318Y-83089670D01*
X182999843Y-83108628D01*
X183018769Y-83124193D01*
X183021825Y-83126029D01*
X183023514Y-83127418D01*
X183023516Y-83127419D01*
X183029382Y-83132244D01*
X183031274Y-83133800D01*
X183037642Y-83141575D01*
X183040791Y-83147483D01*
X183042367Y-83150438D01*
X183045257Y-83160001D01*
X183045282Y-83160085D01*
X183046852Y-83176113D01*
X183046852Y-84313860D01*
X183045263Y-84329999D01*
X183042348Y-84339608D01*
X183037610Y-84348472D01*
X183031237Y-84356237D01*
X183023472Y-84362610D01*
X183014608Y-84367348D01*
X183004999Y-84370263D01*
X182988860Y-84371852D01*
X181501140Y-84371852D01*
X181485001Y-84370263D01*
X181475392Y-84367348D01*
X181466528Y-84362610D01*
X181458763Y-84356237D01*
X181452390Y-84348472D01*
X181447652Y-84339608D01*
X181444737Y-84329999D01*
X181443148Y-84313860D01*
X181443148Y-83176140D01*
X181444737Y-83160001D01*
X181447652Y-83150392D01*
X181452390Y-83141528D01*
X181458763Y-83133763D01*
X181471737Y-83123116D01*
X181480968Y-83116947D01*
X181498294Y-83099619D01*
X181511907Y-83079244D01*
X181521283Y-83056605D01*
X181526063Y-83032572D01*
X181526062Y-83008068D01*
X181521280Y-82984035D01*
X181511902Y-82961396D01*
X181498287Y-82941022D01*
X181480959Y-82923696D01*
X181471683Y-82916825D01*
X181458800Y-82906274D01*
X181456948Y-82904022D01*
X181452419Y-82898516D01*
X181447674Y-82889661D01*
X181446749Y-82886623D01*
X181444758Y-82880085D01*
X181444758Y-82880082D01*
X181444748Y-82880050D01*
X181443753Y-82870000D01*
X181443753Y-82869935D01*
X181443148Y-82863825D01*
X181443148Y-81876140D01*
X181444737Y-81860001D01*
X181447652Y-81850392D01*
X181452390Y-81841528D01*
X181458763Y-81833763D01*
X181466528Y-81827390D01*
X181475392Y-81822652D01*
X181485001Y-81819737D01*
X181501140Y-81818148D01*
X182988860Y-81818148D01*
X183004999Y-81819737D01*
X183004999Y-81819737D01*
G37*
G36*
X171955999Y-81782737D02*
G01*
X171965608Y-81785652D01*
X171974472Y-81790390D01*
X171982237Y-81796763D01*
X171988610Y-81804528D01*
X171993348Y-81813392D01*
X171996263Y-81823001D01*
X171997852Y-81839140D01*
X171997852Y-82826860D01*
X171996263Y-82842999D01*
X171993348Y-82852608D01*
X171988610Y-82861472D01*
X171986650Y-82863860D01*
X171982237Y-82869237D01*
X171974427Y-82875640D01*
X171974372Y-82875677D01*
X171964853Y-82883480D01*
X171964878Y-82883511D01*
X171951028Y-82894853D01*
X171935463Y-82913779D01*
X171923889Y-82935377D01*
X171916751Y-82958819D01*
X171914324Y-82983202D01*
X171916700Y-83007591D01*
X171923789Y-83031047D01*
X171935318Y-83052670D01*
X171950843Y-83071628D01*
X171969769Y-83087193D01*
X171972825Y-83089029D01*
X171974514Y-83090418D01*
X171974516Y-83090419D01*
X171980712Y-83095515D01*
X171982274Y-83096800D01*
X171988642Y-83104575D01*
X171991323Y-83109605D01*
X171993367Y-83113438D01*
X171995666Y-83121047D01*
X171996282Y-83123085D01*
X171997852Y-83139113D01*
X171997852Y-84276860D01*
X171996263Y-84292999D01*
X171993348Y-84302608D01*
X171988610Y-84311472D01*
X171982237Y-84319237D01*
X171974472Y-84325610D01*
X171965608Y-84330348D01*
X171955999Y-84333263D01*
X171939860Y-84334852D01*
X170452140Y-84334852D01*
X170436001Y-84333263D01*
X170426392Y-84330348D01*
X170417528Y-84325610D01*
X170409763Y-84319237D01*
X170403390Y-84311472D01*
X170398652Y-84302608D01*
X170395737Y-84292999D01*
X170394148Y-84276860D01*
X170394148Y-83139140D01*
X170395737Y-83123001D01*
X170398652Y-83113392D01*
X170403390Y-83104528D01*
X170409763Y-83096763D01*
X170422737Y-83086116D01*
X170431968Y-83079947D01*
X170449294Y-83062619D01*
X170462907Y-83042244D01*
X170472283Y-83019605D01*
X170477063Y-82995572D01*
X170477062Y-82971068D01*
X170472280Y-82947035D01*
X170462902Y-82924396D01*
X170449287Y-82904022D01*
X170431959Y-82886696D01*
X170422683Y-82879825D01*
X170409800Y-82869274D01*
X170408668Y-82867897D01*
X170403419Y-82861516D01*
X170398674Y-82852661D01*
X170397749Y-82849623D01*
X170395758Y-82843085D01*
X170395758Y-82843082D01*
X170395748Y-82843050D01*
X170394753Y-82833000D01*
X170394753Y-82832935D01*
X170394148Y-82826825D01*
X170394148Y-81839140D01*
X170395737Y-81823001D01*
X170398652Y-81813392D01*
X170403390Y-81804528D01*
X170409763Y-81796763D01*
X170417528Y-81790390D01*
X170426392Y-81785652D01*
X170436001Y-81782737D01*
X170452140Y-81781148D01*
X171939860Y-81781148D01*
X171955999Y-81782737D01*
X171955999Y-81782737D01*
G37*
G36*
X125717021Y-78506640D02*
G01*
X126226769Y-78717785D01*
X126226771Y-78717786D01*
X126685534Y-79024321D01*
X127075679Y-79414466D01*
X127326711Y-79790163D01*
X127382215Y-79873231D01*
X127593360Y-80382979D01*
X127701000Y-80924124D01*
X127701000Y-81475876D01*
X127593360Y-82017021D01*
X127382215Y-82526769D01*
X127382214Y-82526771D01*
X127075679Y-82985534D01*
X126685534Y-83375679D01*
X126226771Y-83682214D01*
X126226770Y-83682215D01*
X126226769Y-83682215D01*
X125717021Y-83893360D01*
X125175876Y-84001000D01*
X124624124Y-84001000D01*
X124082979Y-83893360D01*
X123573231Y-83682215D01*
X123573230Y-83682215D01*
X123573229Y-83682214D01*
X123114466Y-83375679D01*
X122724321Y-82985534D01*
X122417786Y-82526771D01*
X122417785Y-82526769D01*
X122206640Y-82017021D01*
X122099000Y-81475876D01*
X122099000Y-80924124D01*
X122206640Y-80382979D01*
X122417785Y-79873231D01*
X122473289Y-79790163D01*
X122724321Y-79414466D01*
X123114466Y-79024321D01*
X123573229Y-78717786D01*
X123573231Y-78717785D01*
X124082979Y-78506640D01*
X124624124Y-78399000D01*
X125175876Y-78399000D01*
X125717021Y-78506640D01*
X125717021Y-78506640D01*
G37*
G36*
X92433642Y-81729781D02*
G01*
X92579414Y-81790162D01*
X92579416Y-81790163D01*
X92710608Y-81877822D01*
X92822178Y-81989392D01*
X92909837Y-82120584D01*
X92909838Y-82120586D01*
X92970219Y-82266358D01*
X93001000Y-82421107D01*
X93001000Y-82578893D01*
X92970219Y-82733642D01*
X92914064Y-82869212D01*
X92909837Y-82879416D01*
X92822178Y-83010608D01*
X92710608Y-83122178D01*
X92579416Y-83209837D01*
X92579415Y-83209838D01*
X92579414Y-83209838D01*
X92433642Y-83270219D01*
X92278893Y-83301000D01*
X92121107Y-83301000D01*
X91966358Y-83270219D01*
X91820586Y-83209838D01*
X91820585Y-83209838D01*
X91820584Y-83209837D01*
X91689392Y-83122178D01*
X91577822Y-83010608D01*
X91490163Y-82879416D01*
X91485936Y-82869212D01*
X91429781Y-82733642D01*
X91399000Y-82578893D01*
X91399000Y-82421107D01*
X91429781Y-82266358D01*
X91490162Y-82120586D01*
X91490163Y-82120584D01*
X91577822Y-81989392D01*
X91689392Y-81877822D01*
X91820584Y-81790163D01*
X91820586Y-81790162D01*
X91966358Y-81729781D01*
X92121107Y-81699000D01*
X92278893Y-81699000D01*
X92433642Y-81729781D01*
X92433642Y-81729781D01*
G37*
G36*
X103975256Y-79591298D02*
G01*
X104081579Y-79612447D01*
X104289561Y-79698596D01*
X104364851Y-79729782D01*
X104382042Y-79736903D01*
X104652451Y-79917585D01*
X104882415Y-80147549D01*
X105063097Y-80417958D01*
X105063098Y-80417960D01*
X105064402Y-80421108D01*
X105187553Y-80718421D01*
X105190581Y-80733643D01*
X105245673Y-81010607D01*
X105251000Y-81037391D01*
X105251000Y-81362609D01*
X105187553Y-81681579D01*
X105063097Y-81982042D01*
X104882415Y-82252451D01*
X104652451Y-82482415D01*
X104382042Y-82663097D01*
X104081579Y-82787553D01*
X103975256Y-82808702D01*
X103762611Y-82851000D01*
X103437389Y-82851000D01*
X103224744Y-82808702D01*
X103118421Y-82787553D01*
X102817958Y-82663097D01*
X102547549Y-82482415D01*
X102317585Y-82252451D01*
X102136903Y-81982042D01*
X102012447Y-81681579D01*
X101949000Y-81362609D01*
X101949000Y-81037391D01*
X101954328Y-81010607D01*
X102009419Y-80733643D01*
X102012447Y-80718421D01*
X102135598Y-80421108D01*
X102136902Y-80417960D01*
X102136903Y-80417958D01*
X102317585Y-80147549D01*
X102547549Y-79917585D01*
X102817958Y-79736903D01*
X102835150Y-79729782D01*
X102910439Y-79698596D01*
X103118421Y-79612447D01*
X103224744Y-79591298D01*
X103437389Y-79549000D01*
X103762611Y-79549000D01*
X103975256Y-79591298D01*
X103975256Y-79591298D01*
G37*
G36*
X146575256Y-79591298D02*
G01*
X146681579Y-79612447D01*
X146889561Y-79698596D01*
X146964851Y-79729782D01*
X146982042Y-79736903D01*
X147252451Y-79917585D01*
X147482415Y-80147549D01*
X147663097Y-80417958D01*
X147663098Y-80417960D01*
X147664402Y-80421108D01*
X147787553Y-80718421D01*
X147790581Y-80733643D01*
X147845673Y-81010607D01*
X147851000Y-81037391D01*
X147851000Y-81362609D01*
X147787553Y-81681579D01*
X147663097Y-81982042D01*
X147482415Y-82252451D01*
X147252451Y-82482415D01*
X146982042Y-82663097D01*
X146681579Y-82787553D01*
X146575256Y-82808702D01*
X146362611Y-82851000D01*
X146037389Y-82851000D01*
X145824744Y-82808702D01*
X145718421Y-82787553D01*
X145417958Y-82663097D01*
X145147549Y-82482415D01*
X144917585Y-82252451D01*
X144736903Y-81982042D01*
X144612447Y-81681579D01*
X144549000Y-81362609D01*
X144549000Y-81037391D01*
X144554328Y-81010607D01*
X144609419Y-80733643D01*
X144612447Y-80718421D01*
X144735598Y-80421108D01*
X144736902Y-80417960D01*
X144736903Y-80417958D01*
X144917585Y-80147549D01*
X145147549Y-79917585D01*
X145417958Y-79736903D01*
X145435150Y-79729782D01*
X145510439Y-79698596D01*
X145718421Y-79612447D01*
X145824744Y-79591298D01*
X146037389Y-79549000D01*
X146362611Y-79549000D01*
X146575256Y-79591298D01*
X146575256Y-79591298D01*
G37*
G36*
X92212860Y-79664387D02*
G01*
X92231802Y-79679932D01*
X92253413Y-79691483D01*
X92276862Y-79698596D01*
X92433642Y-79729781D01*
X92579414Y-79790162D01*
X92579416Y-79790163D01*
X92710608Y-79877822D01*
X92822178Y-79989392D01*
X92909837Y-80120584D01*
X92909838Y-80120586D01*
X92970219Y-80266358D01*
X93001000Y-80421107D01*
X93001000Y-80578893D01*
X92970219Y-80733642D01*
X92922519Y-80848800D01*
X92909837Y-80879416D01*
X92822178Y-81010608D01*
X92710608Y-81122178D01*
X92579416Y-81209837D01*
X92579415Y-81209838D01*
X92579414Y-81209838D01*
X92433642Y-81270219D01*
X92278893Y-81301000D01*
X92121107Y-81301000D01*
X91966358Y-81270219D01*
X91820586Y-81209838D01*
X91820585Y-81209838D01*
X91820584Y-81209837D01*
X91689392Y-81122178D01*
X91577822Y-81010608D01*
X91490163Y-80879416D01*
X91477481Y-80848800D01*
X91429781Y-80733642D01*
X91399000Y-80578893D01*
X91399000Y-80421107D01*
X91429781Y-80266358D01*
X91490162Y-80120586D01*
X91490163Y-80120584D01*
X91577822Y-79989392D01*
X91689392Y-79877822D01*
X91820584Y-79790163D01*
X91820586Y-79790162D01*
X91966358Y-79729781D01*
X92123138Y-79698596D01*
X92146587Y-79691483D01*
X92168197Y-79679932D01*
X92187139Y-79664387D01*
X92200000Y-79648717D01*
X92212860Y-79664387D01*
X92212860Y-79664387D01*
G37*
G36*
X168984934Y-77010671D02*
G01*
X169014877Y-77019754D01*
X169042465Y-77034500D01*
X169066651Y-77054349D01*
X169086500Y-77078535D01*
X169101246Y-77106123D01*
X169110329Y-77136066D01*
X169114000Y-77173340D01*
X169114000Y-80942660D01*
X169110329Y-80979934D01*
X169101246Y-81009877D01*
X169086500Y-81037465D01*
X169066651Y-81061651D01*
X169042465Y-81081500D01*
X169014877Y-81096246D01*
X168984934Y-81105329D01*
X168947660Y-81109000D01*
X166678340Y-81109000D01*
X166641066Y-81105329D01*
X166611123Y-81096246D01*
X166583535Y-81081500D01*
X166559349Y-81061651D01*
X166539500Y-81037465D01*
X166524754Y-81009877D01*
X166515671Y-80979934D01*
X166512000Y-80942660D01*
X166512000Y-77173340D01*
X166515671Y-77136066D01*
X166524754Y-77106123D01*
X166539500Y-77078535D01*
X166559349Y-77054349D01*
X166583535Y-77034500D01*
X166611123Y-77019754D01*
X166641066Y-77010671D01*
X166678340Y-77007000D01*
X168947660Y-77007000D01*
X168984934Y-77010671D01*
X168984934Y-77010671D01*
G37*
G36*
X180114934Y-77010671D02*
G01*
X180144877Y-77019754D01*
X180172465Y-77034500D01*
X180196651Y-77054349D01*
X180216500Y-77078535D01*
X180231246Y-77106123D01*
X180240329Y-77136066D01*
X180244000Y-77173340D01*
X180244000Y-80942660D01*
X180240329Y-80979934D01*
X180231246Y-81009877D01*
X180216500Y-81037465D01*
X180196651Y-81061651D01*
X180172465Y-81081500D01*
X180144877Y-81096246D01*
X180114934Y-81105329D01*
X180077660Y-81109000D01*
X177808340Y-81109000D01*
X177771066Y-81105329D01*
X177741123Y-81096246D01*
X177713535Y-81081500D01*
X177689349Y-81061651D01*
X177669500Y-81037465D01*
X177654754Y-81009877D01*
X177645671Y-80979934D01*
X177642000Y-80942660D01*
X177642000Y-77173340D01*
X177645671Y-77136066D01*
X177654754Y-77106123D01*
X177669500Y-77078535D01*
X177689349Y-77054349D01*
X177713535Y-77034500D01*
X177741123Y-77019754D01*
X177771066Y-77010671D01*
X177808340Y-77007000D01*
X180077660Y-77007000D01*
X180114934Y-77010671D01*
X180114934Y-77010671D01*
G37*
G36*
X157889934Y-77010671D02*
G01*
X157919877Y-77019754D01*
X157947465Y-77034500D01*
X157971651Y-77054349D01*
X157991500Y-77078535D01*
X158006246Y-77106123D01*
X158015329Y-77136066D01*
X158019000Y-77173340D01*
X158019000Y-80942660D01*
X158015329Y-80979934D01*
X158006246Y-81009877D01*
X157991500Y-81037465D01*
X157971651Y-81061651D01*
X157947465Y-81081500D01*
X157919877Y-81096246D01*
X157889934Y-81105329D01*
X157852660Y-81109000D01*
X155583340Y-81109000D01*
X155546066Y-81105329D01*
X155516123Y-81096246D01*
X155488535Y-81081500D01*
X155464349Y-81061651D01*
X155444500Y-81037465D01*
X155429754Y-81009877D01*
X155420671Y-80979934D01*
X155417000Y-80942660D01*
X155417000Y-77173340D01*
X155420671Y-77136066D01*
X155429754Y-77106123D01*
X155444500Y-77078535D01*
X155464349Y-77054349D01*
X155488535Y-77034500D01*
X155516123Y-77019754D01*
X155546066Y-77010671D01*
X155583340Y-77007000D01*
X157852660Y-77007000D01*
X157889934Y-77010671D01*
X157889934Y-77010671D01*
G37*
G36*
X92506564Y-77389389D02*
G01*
X92697833Y-77468615D01*
X92697835Y-77468616D01*
X92869973Y-77583635D01*
X93016365Y-77730027D01*
X93131385Y-77902167D01*
X93210611Y-78093436D01*
X93251000Y-78296484D01*
X93251000Y-78503516D01*
X93210611Y-78706564D01*
X93131385Y-78897833D01*
X93131384Y-78897835D01*
X93016365Y-79069973D01*
X92869973Y-79216365D01*
X92697835Y-79331384D01*
X92697834Y-79331385D01*
X92697833Y-79331385D01*
X92506564Y-79410611D01*
X92303516Y-79451000D01*
X92301248Y-79451000D01*
X92276862Y-79453402D01*
X92253413Y-79460515D01*
X92231802Y-79472066D01*
X92212860Y-79487611D01*
X92200000Y-79503282D01*
X92187140Y-79487612D01*
X92168198Y-79472066D01*
X92146587Y-79460515D01*
X92123138Y-79453402D01*
X92098752Y-79451000D01*
X92096484Y-79451000D01*
X91893436Y-79410611D01*
X91702167Y-79331385D01*
X91702166Y-79331385D01*
X91702165Y-79331384D01*
X91530027Y-79216365D01*
X91383635Y-79069973D01*
X91268616Y-78897835D01*
X91268615Y-78897833D01*
X91189389Y-78706564D01*
X91149000Y-78503516D01*
X91149000Y-78296484D01*
X91189389Y-78093436D01*
X91268615Y-77902167D01*
X91383635Y-77730027D01*
X91530027Y-77583635D01*
X91702165Y-77468616D01*
X91702167Y-77468615D01*
X91893436Y-77389389D01*
X92096484Y-77349000D01*
X92303516Y-77349000D01*
X92506564Y-77389389D01*
X92506564Y-77389389D01*
G37*
G36*
X180476454Y-63401000D02*
G01*
X178874454Y-63401000D01*
X178874454Y-60099000D01*
X180476454Y-60099000D01*
X180476454Y-63401000D01*
X180476454Y-63401000D01*
G37*
G36*
X189131000Y-63401000D02*
G01*
X187529000Y-63401000D01*
X187529000Y-60099000D01*
X189131000Y-60099000D01*
X189131000Y-63401000D01*
X189131000Y-63401000D01*
G37*
G36*
X186967362Y-63401000D02*
G01*
X185365362Y-63401000D01*
X185365362Y-60099000D01*
X186967362Y-60099000D01*
X186967362Y-63401000D01*
X186967362Y-63401000D01*
G37*
G36*
X184803726Y-63401000D02*
G01*
X183201726Y-63401000D01*
X183201726Y-60099000D01*
X184803726Y-60099000D01*
X184803726Y-63401000D01*
X184803726Y-63401000D01*
G37*
G36*
X182640090Y-63401000D02*
G01*
X181038090Y-63401000D01*
X181038090Y-60099000D01*
X182640090Y-60099000D01*
X182640090Y-63401000D01*
X182640090Y-63401000D01*
G37*
G36*
X178312818Y-63401000D02*
G01*
X176710818Y-63401000D01*
X176710818Y-60099000D01*
X178312818Y-60099000D01*
X178312818Y-63401000D01*
X178312818Y-63401000D01*
G37*
M02*
