G04 #@! TF.GenerationSoftware,KiCad,Pcbnew,(5.1.0)-1*
G04 #@! TF.CreationDate,2019-06-07T12:29:43-04:00*
G04 #@! TF.ProjectId,PSX Breakout,50535820-4272-4656-916b-6f75742e6b69,rev?*
G04 #@! TF.SameCoordinates,Original*
G04 #@! TF.FileFunction,Legend,Bot*
G04 #@! TF.FilePolarity,Positive*
%FSLAX46Y46*%
G04 Gerber Fmt 4.6, Leading zero omitted, Abs format (unit mm)*
G04 Created by KiCad (PCBNEW (5.1.0)-1) date 2019-06-07 12:29:43*
%MOMM*%
%LPD*%
G04 APERTURE LIST*
%ADD10C,0.150000*%
G04 APERTURE END LIST*
D10*
X150334904Y-79256380D02*
X150811095Y-79256380D01*
X150811095Y-78256380D01*
X150001571Y-79256380D02*
X150001571Y-78589714D01*
X150001571Y-78256380D02*
X150049190Y-78304000D01*
X150001571Y-78351619D01*
X149953952Y-78304000D01*
X150001571Y-78256380D01*
X150001571Y-78351619D01*
X149096809Y-79208761D02*
X149192047Y-79256380D01*
X149382523Y-79256380D01*
X149477761Y-79208761D01*
X149525380Y-79161142D01*
X149573000Y-79065904D01*
X149573000Y-78780190D01*
X149525380Y-78684952D01*
X149477761Y-78637333D01*
X149382523Y-78589714D01*
X149192047Y-78589714D01*
X149096809Y-78637333D01*
X148287285Y-79208761D02*
X148382523Y-79256380D01*
X148573000Y-79256380D01*
X148668238Y-79208761D01*
X148715857Y-79113523D01*
X148715857Y-78732571D01*
X148668238Y-78637333D01*
X148573000Y-78589714D01*
X148382523Y-78589714D01*
X148287285Y-78637333D01*
X148239666Y-78732571D01*
X148239666Y-78827809D01*
X148715857Y-78923047D01*
X147811095Y-78589714D02*
X147811095Y-79256380D01*
X147811095Y-78684952D02*
X147763476Y-78637333D01*
X147668238Y-78589714D01*
X147525380Y-78589714D01*
X147430142Y-78637333D01*
X147382523Y-78732571D01*
X147382523Y-79256380D01*
X146953952Y-79208761D02*
X146858714Y-79256380D01*
X146668238Y-79256380D01*
X146573000Y-79208761D01*
X146525380Y-79113523D01*
X146525380Y-79065904D01*
X146573000Y-78970666D01*
X146668238Y-78923047D01*
X146811095Y-78923047D01*
X146906333Y-78875428D01*
X146953952Y-78780190D01*
X146953952Y-78732571D01*
X146906333Y-78637333D01*
X146811095Y-78589714D01*
X146668238Y-78589714D01*
X146573000Y-78637333D01*
X145715857Y-79208761D02*
X145811095Y-79256380D01*
X146001571Y-79256380D01*
X146096809Y-79208761D01*
X146144428Y-79113523D01*
X146144428Y-78732571D01*
X146096809Y-78637333D01*
X146001571Y-78589714D01*
X145811095Y-78589714D01*
X145715857Y-78637333D01*
X145668238Y-78732571D01*
X145668238Y-78827809D01*
X146144428Y-78923047D01*
X144811095Y-79256380D02*
X144811095Y-78256380D01*
X144811095Y-79208761D02*
X144906333Y-79256380D01*
X145096809Y-79256380D01*
X145192047Y-79208761D01*
X145239666Y-79161142D01*
X145287285Y-79065904D01*
X145287285Y-78780190D01*
X145239666Y-78684952D01*
X145192047Y-78637333D01*
X145096809Y-78589714D01*
X144906333Y-78589714D01*
X144811095Y-78637333D01*
X143144428Y-78589714D02*
X143144428Y-79256380D01*
X143573000Y-78589714D02*
X143573000Y-79113523D01*
X143525380Y-79208761D01*
X143430142Y-79256380D01*
X143287285Y-79256380D01*
X143192047Y-79208761D01*
X143144428Y-79161142D01*
X142668238Y-78589714D02*
X142668238Y-79256380D01*
X142668238Y-78684952D02*
X142620619Y-78637333D01*
X142525380Y-78589714D01*
X142382523Y-78589714D01*
X142287285Y-78637333D01*
X142239666Y-78732571D01*
X142239666Y-79256380D01*
X141334904Y-79256380D02*
X141334904Y-78256380D01*
X141334904Y-79208761D02*
X141430142Y-79256380D01*
X141620619Y-79256380D01*
X141715857Y-79208761D01*
X141763476Y-79161142D01*
X141811095Y-79065904D01*
X141811095Y-78780190D01*
X141763476Y-78684952D01*
X141715857Y-78637333D01*
X141620619Y-78589714D01*
X141430142Y-78589714D01*
X141334904Y-78637333D01*
X140477761Y-79208761D02*
X140573000Y-79256380D01*
X140763476Y-79256380D01*
X140858714Y-79208761D01*
X140906333Y-79113523D01*
X140906333Y-78732571D01*
X140858714Y-78637333D01*
X140763476Y-78589714D01*
X140573000Y-78589714D01*
X140477761Y-78637333D01*
X140430142Y-78732571D01*
X140430142Y-78827809D01*
X140906333Y-78923047D01*
X140001571Y-79256380D02*
X140001571Y-78589714D01*
X140001571Y-78780190D02*
X139953952Y-78684952D01*
X139906333Y-78637333D01*
X139811095Y-78589714D01*
X139715857Y-78589714D01*
X138049190Y-79161142D02*
X138096809Y-79208761D01*
X138239666Y-79256380D01*
X138334904Y-79256380D01*
X138477761Y-79208761D01*
X138573000Y-79113523D01*
X138620619Y-79018285D01*
X138668238Y-78827809D01*
X138668238Y-78684952D01*
X138620619Y-78494476D01*
X138573000Y-78399238D01*
X138477761Y-78304000D01*
X138334904Y-78256380D01*
X138239666Y-78256380D01*
X138096809Y-78304000D01*
X138049190Y-78351619D01*
X137620619Y-78732571D02*
X137287285Y-78732571D01*
X137144428Y-79256380D02*
X137620619Y-79256380D01*
X137620619Y-78256380D01*
X137144428Y-78256380D01*
X136144428Y-79256380D02*
X136477761Y-78780190D01*
X136715857Y-79256380D02*
X136715857Y-78256380D01*
X136334904Y-78256380D01*
X136239666Y-78304000D01*
X136192047Y-78351619D01*
X136144428Y-78446857D01*
X136144428Y-78589714D01*
X136192047Y-78684952D01*
X136239666Y-78732571D01*
X136334904Y-78780190D01*
X136715857Y-78780190D01*
X135715857Y-79256380D02*
X135715857Y-78256380D01*
X135144428Y-79256380D01*
X135144428Y-78256380D01*
X133715857Y-78256380D02*
X133525380Y-78256380D01*
X133430142Y-78304000D01*
X133334904Y-78399238D01*
X133287285Y-78589714D01*
X133287285Y-78923047D01*
X133334904Y-79113523D01*
X133430142Y-79208761D01*
X133525380Y-79256380D01*
X133715857Y-79256380D01*
X133811095Y-79208761D01*
X133906333Y-79113523D01*
X133953952Y-78923047D01*
X133953952Y-78589714D01*
X133906333Y-78399238D01*
X133811095Y-78304000D01*
X133715857Y-78256380D01*
X132858714Y-79256380D02*
X132858714Y-78256380D01*
X132858714Y-78732571D02*
X132287285Y-78732571D01*
X132287285Y-79256380D02*
X132287285Y-78256380D01*
X131334904Y-79256380D02*
X131811095Y-79256380D01*
X131811095Y-78256380D01*
X129715857Y-79256380D02*
X130287285Y-79256380D01*
X130001571Y-79256380D02*
X130001571Y-78256380D01*
X130096809Y-78399238D01*
X130192047Y-78494476D01*
X130287285Y-78542095D01*
X129287285Y-79161142D02*
X129239666Y-79208761D01*
X129287285Y-79256380D01*
X129334904Y-79208761D01*
X129287285Y-79161142D01*
X129287285Y-79256380D01*
X128858714Y-78351619D02*
X128811095Y-78304000D01*
X128715857Y-78256380D01*
X128477761Y-78256380D01*
X128382523Y-78304000D01*
X128334904Y-78351619D01*
X128287285Y-78446857D01*
X128287285Y-78542095D01*
X128334904Y-78684952D01*
X128906333Y-79256380D01*
X128287285Y-79256380D01*
X151477761Y-80906380D02*
X151477761Y-79906380D01*
X151049190Y-80906380D02*
X151049190Y-80382571D01*
X151096809Y-80287333D01*
X151192047Y-80239714D01*
X151334904Y-80239714D01*
X151430142Y-80287333D01*
X151477761Y-80334952D01*
X150715857Y-80239714D02*
X150334904Y-80239714D01*
X150573000Y-79906380D02*
X150573000Y-80763523D01*
X150525380Y-80858761D01*
X150430142Y-80906380D01*
X150334904Y-80906380D01*
X150144428Y-80239714D02*
X149763476Y-80239714D01*
X150001571Y-79906380D02*
X150001571Y-80763523D01*
X149953952Y-80858761D01*
X149858714Y-80906380D01*
X149763476Y-80906380D01*
X149430142Y-80239714D02*
X149430142Y-81239714D01*
X149430142Y-80287333D02*
X149334904Y-80239714D01*
X149144428Y-80239714D01*
X149049190Y-80287333D01*
X149001571Y-80334952D01*
X148953952Y-80430190D01*
X148953952Y-80715904D01*
X149001571Y-80811142D01*
X149049190Y-80858761D01*
X149144428Y-80906380D01*
X149334904Y-80906380D01*
X149430142Y-80858761D01*
X148573000Y-80858761D02*
X148477761Y-80906380D01*
X148287285Y-80906380D01*
X148192047Y-80858761D01*
X148144428Y-80763523D01*
X148144428Y-80715904D01*
X148192047Y-80620666D01*
X148287285Y-80573047D01*
X148430142Y-80573047D01*
X148525380Y-80525428D01*
X148573000Y-80430190D01*
X148573000Y-80382571D01*
X148525380Y-80287333D01*
X148430142Y-80239714D01*
X148287285Y-80239714D01*
X148192047Y-80287333D01*
X147715857Y-80811142D02*
X147668238Y-80858761D01*
X147715857Y-80906380D01*
X147763476Y-80858761D01*
X147715857Y-80811142D01*
X147715857Y-80906380D01*
X147715857Y-80287333D02*
X147668238Y-80334952D01*
X147715857Y-80382571D01*
X147763476Y-80334952D01*
X147715857Y-80287333D01*
X147715857Y-80382571D01*
X146525380Y-79858761D02*
X147382523Y-81144476D01*
X145477761Y-79858761D02*
X146334904Y-81144476D01*
X144715857Y-80239714D02*
X144715857Y-81049238D01*
X144763476Y-81144476D01*
X144811095Y-81192095D01*
X144906333Y-81239714D01*
X145049190Y-81239714D01*
X145144428Y-81192095D01*
X144715857Y-80858761D02*
X144811095Y-80906380D01*
X145001571Y-80906380D01*
X145096809Y-80858761D01*
X145144428Y-80811142D01*
X145192047Y-80715904D01*
X145192047Y-80430190D01*
X145144428Y-80334952D01*
X145096809Y-80287333D01*
X145001571Y-80239714D01*
X144811095Y-80239714D01*
X144715857Y-80287333D01*
X144239666Y-80906380D02*
X144239666Y-80239714D01*
X144239666Y-79906380D02*
X144287285Y-79954000D01*
X144239666Y-80001619D01*
X144192047Y-79954000D01*
X144239666Y-79906380D01*
X144239666Y-80001619D01*
X143906333Y-80239714D02*
X143525380Y-80239714D01*
X143763476Y-79906380D02*
X143763476Y-80763523D01*
X143715857Y-80858761D01*
X143620619Y-80906380D01*
X143525380Y-80906380D01*
X143192047Y-80906380D02*
X143192047Y-79906380D01*
X142763476Y-80906380D02*
X142763476Y-80382571D01*
X142811095Y-80287333D01*
X142906333Y-80239714D01*
X143049190Y-80239714D01*
X143144428Y-80287333D01*
X143192047Y-80334952D01*
X141858714Y-80239714D02*
X141858714Y-80906380D01*
X142287285Y-80239714D02*
X142287285Y-80763523D01*
X142239666Y-80858761D01*
X142144428Y-80906380D01*
X142001571Y-80906380D01*
X141906333Y-80858761D01*
X141858714Y-80811142D01*
X141382523Y-80906380D02*
X141382523Y-79906380D01*
X141382523Y-80287333D02*
X141287285Y-80239714D01*
X141096809Y-80239714D01*
X141001571Y-80287333D01*
X140953952Y-80334952D01*
X140906333Y-80430190D01*
X140906333Y-80715904D01*
X140953952Y-80811142D01*
X141001571Y-80858761D01*
X141096809Y-80906380D01*
X141287285Y-80906380D01*
X141382523Y-80858761D01*
X140477761Y-80811142D02*
X140430142Y-80858761D01*
X140477761Y-80906380D01*
X140525380Y-80858761D01*
X140477761Y-80811142D01*
X140477761Y-80906380D01*
X139573000Y-80858761D02*
X139668238Y-80906380D01*
X139858714Y-80906380D01*
X139953952Y-80858761D01*
X140001571Y-80811142D01*
X140049190Y-80715904D01*
X140049190Y-80430190D01*
X140001571Y-80334952D01*
X139953952Y-80287333D01*
X139858714Y-80239714D01*
X139668238Y-80239714D01*
X139573000Y-80287333D01*
X139001571Y-80906380D02*
X139096809Y-80858761D01*
X139144428Y-80811142D01*
X139192047Y-80715904D01*
X139192047Y-80430190D01*
X139144428Y-80334952D01*
X139096809Y-80287333D01*
X139001571Y-80239714D01*
X138858714Y-80239714D01*
X138763476Y-80287333D01*
X138715857Y-80334952D01*
X138668238Y-80430190D01*
X138668238Y-80715904D01*
X138715857Y-80811142D01*
X138763476Y-80858761D01*
X138858714Y-80906380D01*
X139001571Y-80906380D01*
X138239666Y-80906380D02*
X138239666Y-80239714D01*
X138239666Y-80334952D02*
X138192047Y-80287333D01*
X138096809Y-80239714D01*
X137953952Y-80239714D01*
X137858714Y-80287333D01*
X137811095Y-80382571D01*
X137811095Y-80906380D01*
X137811095Y-80382571D02*
X137763476Y-80287333D01*
X137668238Y-80239714D01*
X137525380Y-80239714D01*
X137430142Y-80287333D01*
X137382523Y-80382571D01*
X137382523Y-80906380D01*
X136192047Y-79858761D02*
X137049190Y-81144476D01*
X135430142Y-80906380D02*
X135430142Y-80382571D01*
X135477761Y-80287333D01*
X135573000Y-80239714D01*
X135763476Y-80239714D01*
X135858714Y-80287333D01*
X135430142Y-80858761D02*
X135525380Y-80906380D01*
X135763476Y-80906380D01*
X135858714Y-80858761D01*
X135906333Y-80763523D01*
X135906333Y-80668285D01*
X135858714Y-80573047D01*
X135763476Y-80525428D01*
X135525380Y-80525428D01*
X135430142Y-80477809D01*
X134953952Y-80906380D02*
X134953952Y-80239714D01*
X134953952Y-80430190D02*
X134906333Y-80334952D01*
X134858714Y-80287333D01*
X134763476Y-80239714D01*
X134668238Y-80239714D01*
X134334904Y-80906380D02*
X134334904Y-80239714D01*
X134334904Y-79906380D02*
X134382523Y-79954000D01*
X134334904Y-80001619D01*
X134287285Y-79954000D01*
X134334904Y-79906380D01*
X134334904Y-80001619D01*
X134001571Y-80239714D02*
X133620619Y-80239714D01*
X133858714Y-79906380D02*
X133858714Y-80763523D01*
X133811095Y-80858761D01*
X133715857Y-80906380D01*
X133620619Y-80906380D01*
X133287285Y-80906380D02*
X133287285Y-79906380D01*
X132858714Y-80906380D02*
X132858714Y-80382571D01*
X132906333Y-80287333D01*
X133001571Y-80239714D01*
X133144428Y-80239714D01*
X133239666Y-80287333D01*
X133287285Y-80334952D01*
X132382523Y-80906380D02*
X132382523Y-80239714D01*
X132382523Y-80334952D02*
X132334904Y-80287333D01*
X132239666Y-80239714D01*
X132096809Y-80239714D01*
X132001571Y-80287333D01*
X131953952Y-80382571D01*
X131953952Y-80906380D01*
X131953952Y-80382571D02*
X131906333Y-80287333D01*
X131811095Y-80239714D01*
X131668238Y-80239714D01*
X131573000Y-80287333D01*
X131525380Y-80382571D01*
X131525380Y-80906380D01*
X130620619Y-80906380D02*
X130620619Y-80382571D01*
X130668238Y-80287333D01*
X130763476Y-80239714D01*
X130953952Y-80239714D01*
X131049190Y-80287333D01*
X130620619Y-80858761D02*
X130715857Y-80906380D01*
X130953952Y-80906380D01*
X131049190Y-80858761D01*
X131096809Y-80763523D01*
X131096809Y-80668285D01*
X131049190Y-80573047D01*
X130953952Y-80525428D01*
X130715857Y-80525428D01*
X130620619Y-80477809D01*
X130001571Y-80906380D02*
X130096809Y-80858761D01*
X130144428Y-80763523D01*
X130144428Y-79906380D01*
X129192047Y-80906380D02*
X129192047Y-79906380D01*
X129192047Y-80858761D02*
X129287285Y-80906380D01*
X129477761Y-80906380D01*
X129573000Y-80858761D01*
X129620619Y-80811142D01*
X129668238Y-80715904D01*
X129668238Y-80430190D01*
X129620619Y-80334952D01*
X129573000Y-80287333D01*
X129477761Y-80239714D01*
X129287285Y-80239714D01*
X129192047Y-80287333D01*
X128573000Y-80906380D02*
X128668238Y-80858761D01*
X128715857Y-80811142D01*
X128763476Y-80715904D01*
X128763476Y-80430190D01*
X128715857Y-80334952D01*
X128668238Y-80287333D01*
X128573000Y-80239714D01*
X128430142Y-80239714D01*
X128334904Y-80287333D01*
X128287285Y-80334952D01*
X128239666Y-80430190D01*
X128239666Y-80715904D01*
X128287285Y-80811142D01*
X128334904Y-80858761D01*
X128430142Y-80906380D01*
X128573000Y-80906380D01*
X127811095Y-80906380D02*
X127811095Y-80239714D01*
X127811095Y-80430190D02*
X127763476Y-80334952D01*
X127715857Y-80287333D01*
X127620619Y-80239714D01*
X127525380Y-80239714D01*
M02*
