G04 #@! TF.GenerationSoftware,KiCad,Pcbnew,(5.1.0)-1*
G04 #@! TF.CreationDate,2019-06-07T12:29:43-04:00*
G04 #@! TF.ProjectId,PSX Breakout,50535820-4272-4656-916b-6f75742e6b69,rev?*
G04 #@! TF.SameCoordinates,Original*
G04 #@! TF.FileFunction,Paste,Top*
G04 #@! TF.FilePolarity,Positive*
%FSLAX46Y46*%
G04 Gerber Fmt 4.6, Leading zero omitted, Abs format (unit mm)*
G04 Created by KiCad (PCBNEW (5.1.0)-1) date 2019-06-07 12:29:43*
%MOMM*%
%LPD*%
G04 APERTURE LIST*
%ADD10R,1.500000X3.200000*%
%ADD11C,0.100000*%
%ADD12C,0.950000*%
%ADD13C,2.500000*%
%ADD14C,1.600000*%
%ADD15R,1.550000X0.600000*%
G04 APERTURE END LIST*
D10*
X145950000Y-61750000D03*
X135131818Y-61750000D03*
X137295454Y-61750000D03*
X139459090Y-61750000D03*
X141622726Y-61750000D03*
X143786362Y-61750000D03*
D11*
G36*
X96134779Y-77885144D02*
G01*
X96157834Y-77888563D01*
X96180443Y-77894227D01*
X96202387Y-77902079D01*
X96223457Y-77912044D01*
X96243448Y-77924026D01*
X96262168Y-77937910D01*
X96279438Y-77953562D01*
X96295090Y-77970832D01*
X96308974Y-77989552D01*
X96320956Y-78009543D01*
X96330921Y-78030613D01*
X96338773Y-78052557D01*
X96344437Y-78075166D01*
X96347856Y-78098221D01*
X96349000Y-78121500D01*
X96349000Y-78596500D01*
X96347856Y-78619779D01*
X96344437Y-78642834D01*
X96338773Y-78665443D01*
X96330921Y-78687387D01*
X96320956Y-78708457D01*
X96308974Y-78728448D01*
X96295090Y-78747168D01*
X96279438Y-78764438D01*
X96262168Y-78780090D01*
X96243448Y-78793974D01*
X96223457Y-78805956D01*
X96202387Y-78815921D01*
X96180443Y-78823773D01*
X96157834Y-78829437D01*
X96134779Y-78832856D01*
X96111500Y-78834000D01*
X95536500Y-78834000D01*
X95513221Y-78832856D01*
X95490166Y-78829437D01*
X95467557Y-78823773D01*
X95445613Y-78815921D01*
X95424543Y-78805956D01*
X95404552Y-78793974D01*
X95385832Y-78780090D01*
X95368562Y-78764438D01*
X95352910Y-78747168D01*
X95339026Y-78728448D01*
X95327044Y-78708457D01*
X95317079Y-78687387D01*
X95309227Y-78665443D01*
X95303563Y-78642834D01*
X95300144Y-78619779D01*
X95299000Y-78596500D01*
X95299000Y-78121500D01*
X95300144Y-78098221D01*
X95303563Y-78075166D01*
X95309227Y-78052557D01*
X95317079Y-78030613D01*
X95327044Y-78009543D01*
X95339026Y-77989552D01*
X95352910Y-77970832D01*
X95368562Y-77953562D01*
X95385832Y-77937910D01*
X95404552Y-77924026D01*
X95424543Y-77912044D01*
X95445613Y-77902079D01*
X95467557Y-77894227D01*
X95490166Y-77888563D01*
X95513221Y-77885144D01*
X95536500Y-77884000D01*
X96111500Y-77884000D01*
X96134779Y-77885144D01*
X96134779Y-77885144D01*
G37*
D12*
X95824000Y-78359000D03*
D11*
G36*
X97884779Y-77885144D02*
G01*
X97907834Y-77888563D01*
X97930443Y-77894227D01*
X97952387Y-77902079D01*
X97973457Y-77912044D01*
X97993448Y-77924026D01*
X98012168Y-77937910D01*
X98029438Y-77953562D01*
X98045090Y-77970832D01*
X98058974Y-77989552D01*
X98070956Y-78009543D01*
X98080921Y-78030613D01*
X98088773Y-78052557D01*
X98094437Y-78075166D01*
X98097856Y-78098221D01*
X98099000Y-78121500D01*
X98099000Y-78596500D01*
X98097856Y-78619779D01*
X98094437Y-78642834D01*
X98088773Y-78665443D01*
X98080921Y-78687387D01*
X98070956Y-78708457D01*
X98058974Y-78728448D01*
X98045090Y-78747168D01*
X98029438Y-78764438D01*
X98012168Y-78780090D01*
X97993448Y-78793974D01*
X97973457Y-78805956D01*
X97952387Y-78815921D01*
X97930443Y-78823773D01*
X97907834Y-78829437D01*
X97884779Y-78832856D01*
X97861500Y-78834000D01*
X97286500Y-78834000D01*
X97263221Y-78832856D01*
X97240166Y-78829437D01*
X97217557Y-78823773D01*
X97195613Y-78815921D01*
X97174543Y-78805956D01*
X97154552Y-78793974D01*
X97135832Y-78780090D01*
X97118562Y-78764438D01*
X97102910Y-78747168D01*
X97089026Y-78728448D01*
X97077044Y-78708457D01*
X97067079Y-78687387D01*
X97059227Y-78665443D01*
X97053563Y-78642834D01*
X97050144Y-78619779D01*
X97049000Y-78596500D01*
X97049000Y-78121500D01*
X97050144Y-78098221D01*
X97053563Y-78075166D01*
X97059227Y-78052557D01*
X97067079Y-78030613D01*
X97077044Y-78009543D01*
X97089026Y-77989552D01*
X97102910Y-77970832D01*
X97118562Y-77953562D01*
X97135832Y-77937910D01*
X97154552Y-77924026D01*
X97174543Y-77912044D01*
X97195613Y-77902079D01*
X97217557Y-77894227D01*
X97240166Y-77888563D01*
X97263221Y-77885144D01*
X97286500Y-77884000D01*
X97861500Y-77884000D01*
X97884779Y-77885144D01*
X97884779Y-77885144D01*
G37*
D12*
X97574000Y-78359000D03*
D11*
G36*
X141024504Y-77567204D02*
G01*
X141048773Y-77570804D01*
X141072571Y-77576765D01*
X141095671Y-77585030D01*
X141117849Y-77595520D01*
X141138893Y-77608133D01*
X141158598Y-77622747D01*
X141176777Y-77639223D01*
X141193253Y-77657402D01*
X141207867Y-77677107D01*
X141220480Y-77698151D01*
X141230970Y-77720329D01*
X141239235Y-77743429D01*
X141245196Y-77767227D01*
X141248796Y-77791496D01*
X141250000Y-77816000D01*
X141250000Y-81316000D01*
X141248796Y-81340504D01*
X141245196Y-81364773D01*
X141239235Y-81388571D01*
X141230970Y-81411671D01*
X141220480Y-81433849D01*
X141207867Y-81454893D01*
X141193253Y-81474598D01*
X141176777Y-81492777D01*
X141158598Y-81509253D01*
X141138893Y-81523867D01*
X141117849Y-81536480D01*
X141095671Y-81546970D01*
X141072571Y-81555235D01*
X141048773Y-81561196D01*
X141024504Y-81564796D01*
X141000000Y-81566000D01*
X139000000Y-81566000D01*
X138975496Y-81564796D01*
X138951227Y-81561196D01*
X138927429Y-81555235D01*
X138904329Y-81546970D01*
X138882151Y-81536480D01*
X138861107Y-81523867D01*
X138841402Y-81509253D01*
X138823223Y-81492777D01*
X138806747Y-81474598D01*
X138792133Y-81454893D01*
X138779520Y-81433849D01*
X138769030Y-81411671D01*
X138760765Y-81388571D01*
X138754804Y-81364773D01*
X138751204Y-81340504D01*
X138750000Y-81316000D01*
X138750000Y-77816000D01*
X138751204Y-77791496D01*
X138754804Y-77767227D01*
X138760765Y-77743429D01*
X138769030Y-77720329D01*
X138779520Y-77698151D01*
X138792133Y-77677107D01*
X138806747Y-77657402D01*
X138823223Y-77639223D01*
X138841402Y-77622747D01*
X138861107Y-77608133D01*
X138882151Y-77595520D01*
X138904329Y-77585030D01*
X138927429Y-77576765D01*
X138951227Y-77570804D01*
X138975496Y-77567204D01*
X139000000Y-77566000D01*
X141000000Y-77566000D01*
X141024504Y-77567204D01*
X141024504Y-77567204D01*
G37*
D13*
X140000000Y-79566000D03*
D11*
G36*
X141024504Y-85567204D02*
G01*
X141048773Y-85570804D01*
X141072571Y-85576765D01*
X141095671Y-85585030D01*
X141117849Y-85595520D01*
X141138893Y-85608133D01*
X141158598Y-85622747D01*
X141176777Y-85639223D01*
X141193253Y-85657402D01*
X141207867Y-85677107D01*
X141220480Y-85698151D01*
X141230970Y-85720329D01*
X141239235Y-85743429D01*
X141245196Y-85767227D01*
X141248796Y-85791496D01*
X141250000Y-85816000D01*
X141250000Y-89316000D01*
X141248796Y-89340504D01*
X141245196Y-89364773D01*
X141239235Y-89388571D01*
X141230970Y-89411671D01*
X141220480Y-89433849D01*
X141207867Y-89454893D01*
X141193253Y-89474598D01*
X141176777Y-89492777D01*
X141158598Y-89509253D01*
X141138893Y-89523867D01*
X141117849Y-89536480D01*
X141095671Y-89546970D01*
X141072571Y-89555235D01*
X141048773Y-89561196D01*
X141024504Y-89564796D01*
X141000000Y-89566000D01*
X139000000Y-89566000D01*
X138975496Y-89564796D01*
X138951227Y-89561196D01*
X138927429Y-89555235D01*
X138904329Y-89546970D01*
X138882151Y-89536480D01*
X138861107Y-89523867D01*
X138841402Y-89509253D01*
X138823223Y-89492777D01*
X138806747Y-89474598D01*
X138792133Y-89454893D01*
X138779520Y-89433849D01*
X138769030Y-89411671D01*
X138760765Y-89388571D01*
X138754804Y-89364773D01*
X138751204Y-89340504D01*
X138750000Y-89316000D01*
X138750000Y-85816000D01*
X138751204Y-85791496D01*
X138754804Y-85767227D01*
X138760765Y-85743429D01*
X138769030Y-85720329D01*
X138779520Y-85698151D01*
X138792133Y-85677107D01*
X138806747Y-85657402D01*
X138823223Y-85639223D01*
X138841402Y-85622747D01*
X138861107Y-85608133D01*
X138882151Y-85595520D01*
X138904329Y-85585030D01*
X138927429Y-85576765D01*
X138951227Y-85570804D01*
X138975496Y-85567204D01*
X139000000Y-85566000D01*
X141000000Y-85566000D01*
X141024504Y-85567204D01*
X141024504Y-85567204D01*
G37*
D13*
X140000000Y-87566000D03*
D11*
G36*
X152154504Y-85567204D02*
G01*
X152178773Y-85570804D01*
X152202571Y-85576765D01*
X152225671Y-85585030D01*
X152247849Y-85595520D01*
X152268893Y-85608133D01*
X152288598Y-85622747D01*
X152306777Y-85639223D01*
X152323253Y-85657402D01*
X152337867Y-85677107D01*
X152350480Y-85698151D01*
X152360970Y-85720329D01*
X152369235Y-85743429D01*
X152375196Y-85767227D01*
X152378796Y-85791496D01*
X152380000Y-85816000D01*
X152380000Y-89316000D01*
X152378796Y-89340504D01*
X152375196Y-89364773D01*
X152369235Y-89388571D01*
X152360970Y-89411671D01*
X152350480Y-89433849D01*
X152337867Y-89454893D01*
X152323253Y-89474598D01*
X152306777Y-89492777D01*
X152288598Y-89509253D01*
X152268893Y-89523867D01*
X152247849Y-89536480D01*
X152225671Y-89546970D01*
X152202571Y-89555235D01*
X152178773Y-89561196D01*
X152154504Y-89564796D01*
X152130000Y-89566000D01*
X150130000Y-89566000D01*
X150105496Y-89564796D01*
X150081227Y-89561196D01*
X150057429Y-89555235D01*
X150034329Y-89546970D01*
X150012151Y-89536480D01*
X149991107Y-89523867D01*
X149971402Y-89509253D01*
X149953223Y-89492777D01*
X149936747Y-89474598D01*
X149922133Y-89454893D01*
X149909520Y-89433849D01*
X149899030Y-89411671D01*
X149890765Y-89388571D01*
X149884804Y-89364773D01*
X149881204Y-89340504D01*
X149880000Y-89316000D01*
X149880000Y-85816000D01*
X149881204Y-85791496D01*
X149884804Y-85767227D01*
X149890765Y-85743429D01*
X149899030Y-85720329D01*
X149909520Y-85698151D01*
X149922133Y-85677107D01*
X149936747Y-85657402D01*
X149953223Y-85639223D01*
X149971402Y-85622747D01*
X149991107Y-85608133D01*
X150012151Y-85595520D01*
X150034329Y-85585030D01*
X150057429Y-85576765D01*
X150081227Y-85570804D01*
X150105496Y-85567204D01*
X150130000Y-85566000D01*
X152130000Y-85566000D01*
X152154504Y-85567204D01*
X152154504Y-85567204D01*
G37*
D13*
X151130000Y-87566000D03*
D11*
G36*
X152154504Y-77567204D02*
G01*
X152178773Y-77570804D01*
X152202571Y-77576765D01*
X152225671Y-77585030D01*
X152247849Y-77595520D01*
X152268893Y-77608133D01*
X152288598Y-77622747D01*
X152306777Y-77639223D01*
X152323253Y-77657402D01*
X152337867Y-77677107D01*
X152350480Y-77698151D01*
X152360970Y-77720329D01*
X152369235Y-77743429D01*
X152375196Y-77767227D01*
X152378796Y-77791496D01*
X152380000Y-77816000D01*
X152380000Y-81316000D01*
X152378796Y-81340504D01*
X152375196Y-81364773D01*
X152369235Y-81388571D01*
X152360970Y-81411671D01*
X152350480Y-81433849D01*
X152337867Y-81454893D01*
X152323253Y-81474598D01*
X152306777Y-81492777D01*
X152288598Y-81509253D01*
X152268893Y-81523867D01*
X152247849Y-81536480D01*
X152225671Y-81546970D01*
X152202571Y-81555235D01*
X152178773Y-81561196D01*
X152154504Y-81564796D01*
X152130000Y-81566000D01*
X150130000Y-81566000D01*
X150105496Y-81564796D01*
X150081227Y-81561196D01*
X150057429Y-81555235D01*
X150034329Y-81546970D01*
X150012151Y-81536480D01*
X149991107Y-81523867D01*
X149971402Y-81509253D01*
X149953223Y-81492777D01*
X149936747Y-81474598D01*
X149922133Y-81454893D01*
X149909520Y-81433849D01*
X149899030Y-81411671D01*
X149890765Y-81388571D01*
X149884804Y-81364773D01*
X149881204Y-81340504D01*
X149880000Y-81316000D01*
X149880000Y-77816000D01*
X149881204Y-77791496D01*
X149884804Y-77767227D01*
X149890765Y-77743429D01*
X149899030Y-77720329D01*
X149909520Y-77698151D01*
X149922133Y-77677107D01*
X149936747Y-77657402D01*
X149953223Y-77639223D01*
X149971402Y-77622747D01*
X149991107Y-77608133D01*
X150012151Y-77595520D01*
X150034329Y-77585030D01*
X150057429Y-77576765D01*
X150081227Y-77570804D01*
X150105496Y-77567204D01*
X150130000Y-77566000D01*
X152130000Y-77566000D01*
X152154504Y-77567204D01*
X152154504Y-77567204D01*
G37*
D13*
X151130000Y-79566000D03*
D11*
G36*
X129929504Y-77567204D02*
G01*
X129953773Y-77570804D01*
X129977571Y-77576765D01*
X130000671Y-77585030D01*
X130022849Y-77595520D01*
X130043893Y-77608133D01*
X130063598Y-77622747D01*
X130081777Y-77639223D01*
X130098253Y-77657402D01*
X130112867Y-77677107D01*
X130125480Y-77698151D01*
X130135970Y-77720329D01*
X130144235Y-77743429D01*
X130150196Y-77767227D01*
X130153796Y-77791496D01*
X130155000Y-77816000D01*
X130155000Y-81316000D01*
X130153796Y-81340504D01*
X130150196Y-81364773D01*
X130144235Y-81388571D01*
X130135970Y-81411671D01*
X130125480Y-81433849D01*
X130112867Y-81454893D01*
X130098253Y-81474598D01*
X130081777Y-81492777D01*
X130063598Y-81509253D01*
X130043893Y-81523867D01*
X130022849Y-81536480D01*
X130000671Y-81546970D01*
X129977571Y-81555235D01*
X129953773Y-81561196D01*
X129929504Y-81564796D01*
X129905000Y-81566000D01*
X127905000Y-81566000D01*
X127880496Y-81564796D01*
X127856227Y-81561196D01*
X127832429Y-81555235D01*
X127809329Y-81546970D01*
X127787151Y-81536480D01*
X127766107Y-81523867D01*
X127746402Y-81509253D01*
X127728223Y-81492777D01*
X127711747Y-81474598D01*
X127697133Y-81454893D01*
X127684520Y-81433849D01*
X127674030Y-81411671D01*
X127665765Y-81388571D01*
X127659804Y-81364773D01*
X127656204Y-81340504D01*
X127655000Y-81316000D01*
X127655000Y-77816000D01*
X127656204Y-77791496D01*
X127659804Y-77767227D01*
X127665765Y-77743429D01*
X127674030Y-77720329D01*
X127684520Y-77698151D01*
X127697133Y-77677107D01*
X127711747Y-77657402D01*
X127728223Y-77639223D01*
X127746402Y-77622747D01*
X127766107Y-77608133D01*
X127787151Y-77595520D01*
X127809329Y-77585030D01*
X127832429Y-77576765D01*
X127856227Y-77570804D01*
X127880496Y-77567204D01*
X127905000Y-77566000D01*
X129905000Y-77566000D01*
X129929504Y-77567204D01*
X129929504Y-77567204D01*
G37*
D13*
X128905000Y-79566000D03*
D11*
G36*
X129929504Y-85567204D02*
G01*
X129953773Y-85570804D01*
X129977571Y-85576765D01*
X130000671Y-85585030D01*
X130022849Y-85595520D01*
X130043893Y-85608133D01*
X130063598Y-85622747D01*
X130081777Y-85639223D01*
X130098253Y-85657402D01*
X130112867Y-85677107D01*
X130125480Y-85698151D01*
X130135970Y-85720329D01*
X130144235Y-85743429D01*
X130150196Y-85767227D01*
X130153796Y-85791496D01*
X130155000Y-85816000D01*
X130155000Y-89316000D01*
X130153796Y-89340504D01*
X130150196Y-89364773D01*
X130144235Y-89388571D01*
X130135970Y-89411671D01*
X130125480Y-89433849D01*
X130112867Y-89454893D01*
X130098253Y-89474598D01*
X130081777Y-89492777D01*
X130063598Y-89509253D01*
X130043893Y-89523867D01*
X130022849Y-89536480D01*
X130000671Y-89546970D01*
X129977571Y-89555235D01*
X129953773Y-89561196D01*
X129929504Y-89564796D01*
X129905000Y-89566000D01*
X127905000Y-89566000D01*
X127880496Y-89564796D01*
X127856227Y-89561196D01*
X127832429Y-89555235D01*
X127809329Y-89546970D01*
X127787151Y-89536480D01*
X127766107Y-89523867D01*
X127746402Y-89509253D01*
X127728223Y-89492777D01*
X127711747Y-89474598D01*
X127697133Y-89454893D01*
X127684520Y-89433849D01*
X127674030Y-89411671D01*
X127665765Y-89388571D01*
X127659804Y-89364773D01*
X127656204Y-89340504D01*
X127655000Y-89316000D01*
X127655000Y-85816000D01*
X127656204Y-85791496D01*
X127659804Y-85767227D01*
X127665765Y-85743429D01*
X127674030Y-85720329D01*
X127684520Y-85698151D01*
X127697133Y-85677107D01*
X127711747Y-85657402D01*
X127728223Y-85639223D01*
X127746402Y-85622747D01*
X127766107Y-85608133D01*
X127787151Y-85595520D01*
X127809329Y-85585030D01*
X127832429Y-85576765D01*
X127856227Y-85570804D01*
X127880496Y-85567204D01*
X127905000Y-85566000D01*
X129905000Y-85566000D01*
X129929504Y-85567204D01*
X129929504Y-85567204D01*
G37*
D13*
X128905000Y-87566000D03*
D11*
G36*
X105230504Y-97626204D02*
G01*
X105254773Y-97629804D01*
X105278571Y-97635765D01*
X105301671Y-97644030D01*
X105323849Y-97654520D01*
X105344893Y-97667133D01*
X105364598Y-97681747D01*
X105382777Y-97698223D01*
X105399253Y-97716402D01*
X105413867Y-97736107D01*
X105426480Y-97757151D01*
X105436970Y-97779329D01*
X105445235Y-97802429D01*
X105451196Y-97826227D01*
X105454796Y-97850496D01*
X105456000Y-97875000D01*
X105456000Y-98975000D01*
X105454796Y-98999504D01*
X105451196Y-99023773D01*
X105445235Y-99047571D01*
X105436970Y-99070671D01*
X105426480Y-99092849D01*
X105413867Y-99113893D01*
X105399253Y-99133598D01*
X105382777Y-99151777D01*
X105364598Y-99168253D01*
X105344893Y-99182867D01*
X105323849Y-99195480D01*
X105301671Y-99205970D01*
X105278571Y-99214235D01*
X105254773Y-99220196D01*
X105230504Y-99223796D01*
X105206000Y-99225000D01*
X103106000Y-99225000D01*
X103081496Y-99223796D01*
X103057227Y-99220196D01*
X103033429Y-99214235D01*
X103010329Y-99205970D01*
X102988151Y-99195480D01*
X102967107Y-99182867D01*
X102947402Y-99168253D01*
X102929223Y-99151777D01*
X102912747Y-99133598D01*
X102898133Y-99113893D01*
X102885520Y-99092849D01*
X102875030Y-99070671D01*
X102866765Y-99047571D01*
X102860804Y-99023773D01*
X102857204Y-98999504D01*
X102856000Y-98975000D01*
X102856000Y-97875000D01*
X102857204Y-97850496D01*
X102860804Y-97826227D01*
X102866765Y-97802429D01*
X102875030Y-97779329D01*
X102885520Y-97757151D01*
X102898133Y-97736107D01*
X102912747Y-97716402D01*
X102929223Y-97698223D01*
X102947402Y-97681747D01*
X102967107Y-97667133D01*
X102988151Y-97654520D01*
X103010329Y-97644030D01*
X103033429Y-97635765D01*
X103057227Y-97629804D01*
X103081496Y-97626204D01*
X103106000Y-97625000D01*
X105206000Y-97625000D01*
X105230504Y-97626204D01*
X105230504Y-97626204D01*
G37*
D14*
X104156000Y-98425000D03*
D11*
G36*
X108830504Y-97626204D02*
G01*
X108854773Y-97629804D01*
X108878571Y-97635765D01*
X108901671Y-97644030D01*
X108923849Y-97654520D01*
X108944893Y-97667133D01*
X108964598Y-97681747D01*
X108982777Y-97698223D01*
X108999253Y-97716402D01*
X109013867Y-97736107D01*
X109026480Y-97757151D01*
X109036970Y-97779329D01*
X109045235Y-97802429D01*
X109051196Y-97826227D01*
X109054796Y-97850496D01*
X109056000Y-97875000D01*
X109056000Y-98975000D01*
X109054796Y-98999504D01*
X109051196Y-99023773D01*
X109045235Y-99047571D01*
X109036970Y-99070671D01*
X109026480Y-99092849D01*
X109013867Y-99113893D01*
X108999253Y-99133598D01*
X108982777Y-99151777D01*
X108964598Y-99168253D01*
X108944893Y-99182867D01*
X108923849Y-99195480D01*
X108901671Y-99205970D01*
X108878571Y-99214235D01*
X108854773Y-99220196D01*
X108830504Y-99223796D01*
X108806000Y-99225000D01*
X106706000Y-99225000D01*
X106681496Y-99223796D01*
X106657227Y-99220196D01*
X106633429Y-99214235D01*
X106610329Y-99205970D01*
X106588151Y-99195480D01*
X106567107Y-99182867D01*
X106547402Y-99168253D01*
X106529223Y-99151777D01*
X106512747Y-99133598D01*
X106498133Y-99113893D01*
X106485520Y-99092849D01*
X106475030Y-99070671D01*
X106466765Y-99047571D01*
X106460804Y-99023773D01*
X106457204Y-98999504D01*
X106456000Y-98975000D01*
X106456000Y-97875000D01*
X106457204Y-97850496D01*
X106460804Y-97826227D01*
X106466765Y-97802429D01*
X106475030Y-97779329D01*
X106485520Y-97757151D01*
X106498133Y-97736107D01*
X106512747Y-97716402D01*
X106529223Y-97698223D01*
X106547402Y-97681747D01*
X106567107Y-97667133D01*
X106588151Y-97654520D01*
X106610329Y-97644030D01*
X106633429Y-97635765D01*
X106657227Y-97629804D01*
X106681496Y-97626204D01*
X106706000Y-97625000D01*
X108806000Y-97625000D01*
X108830504Y-97626204D01*
X108830504Y-97626204D01*
G37*
D14*
X107756000Y-98425000D03*
D11*
G36*
X105913779Y-92998144D02*
G01*
X105936834Y-93001563D01*
X105959443Y-93007227D01*
X105981387Y-93015079D01*
X106002457Y-93025044D01*
X106022448Y-93037026D01*
X106041168Y-93050910D01*
X106058438Y-93066562D01*
X106074090Y-93083832D01*
X106087974Y-93102552D01*
X106099956Y-93122543D01*
X106109921Y-93143613D01*
X106117773Y-93165557D01*
X106123437Y-93188166D01*
X106126856Y-93211221D01*
X106128000Y-93234500D01*
X106128000Y-93709500D01*
X106126856Y-93732779D01*
X106123437Y-93755834D01*
X106117773Y-93778443D01*
X106109921Y-93800387D01*
X106099956Y-93821457D01*
X106087974Y-93841448D01*
X106074090Y-93860168D01*
X106058438Y-93877438D01*
X106041168Y-93893090D01*
X106022448Y-93906974D01*
X106002457Y-93918956D01*
X105981387Y-93928921D01*
X105959443Y-93936773D01*
X105936834Y-93942437D01*
X105913779Y-93945856D01*
X105890500Y-93947000D01*
X105315500Y-93947000D01*
X105292221Y-93945856D01*
X105269166Y-93942437D01*
X105246557Y-93936773D01*
X105224613Y-93928921D01*
X105203543Y-93918956D01*
X105183552Y-93906974D01*
X105164832Y-93893090D01*
X105147562Y-93877438D01*
X105131910Y-93860168D01*
X105118026Y-93841448D01*
X105106044Y-93821457D01*
X105096079Y-93800387D01*
X105088227Y-93778443D01*
X105082563Y-93755834D01*
X105079144Y-93732779D01*
X105078000Y-93709500D01*
X105078000Y-93234500D01*
X105079144Y-93211221D01*
X105082563Y-93188166D01*
X105088227Y-93165557D01*
X105096079Y-93143613D01*
X105106044Y-93122543D01*
X105118026Y-93102552D01*
X105131910Y-93083832D01*
X105147562Y-93066562D01*
X105164832Y-93050910D01*
X105183552Y-93037026D01*
X105203543Y-93025044D01*
X105224613Y-93015079D01*
X105246557Y-93007227D01*
X105269166Y-93001563D01*
X105292221Y-92998144D01*
X105315500Y-92997000D01*
X105890500Y-92997000D01*
X105913779Y-92998144D01*
X105913779Y-92998144D01*
G37*
D12*
X105603000Y-93472000D03*
D11*
G36*
X107663779Y-92998144D02*
G01*
X107686834Y-93001563D01*
X107709443Y-93007227D01*
X107731387Y-93015079D01*
X107752457Y-93025044D01*
X107772448Y-93037026D01*
X107791168Y-93050910D01*
X107808438Y-93066562D01*
X107824090Y-93083832D01*
X107837974Y-93102552D01*
X107849956Y-93122543D01*
X107859921Y-93143613D01*
X107867773Y-93165557D01*
X107873437Y-93188166D01*
X107876856Y-93211221D01*
X107878000Y-93234500D01*
X107878000Y-93709500D01*
X107876856Y-93732779D01*
X107873437Y-93755834D01*
X107867773Y-93778443D01*
X107859921Y-93800387D01*
X107849956Y-93821457D01*
X107837974Y-93841448D01*
X107824090Y-93860168D01*
X107808438Y-93877438D01*
X107791168Y-93893090D01*
X107772448Y-93906974D01*
X107752457Y-93918956D01*
X107731387Y-93928921D01*
X107709443Y-93936773D01*
X107686834Y-93942437D01*
X107663779Y-93945856D01*
X107640500Y-93947000D01*
X107065500Y-93947000D01*
X107042221Y-93945856D01*
X107019166Y-93942437D01*
X106996557Y-93936773D01*
X106974613Y-93928921D01*
X106953543Y-93918956D01*
X106933552Y-93906974D01*
X106914832Y-93893090D01*
X106897562Y-93877438D01*
X106881910Y-93860168D01*
X106868026Y-93841448D01*
X106856044Y-93821457D01*
X106846079Y-93800387D01*
X106838227Y-93778443D01*
X106832563Y-93755834D01*
X106829144Y-93732779D01*
X106828000Y-93709500D01*
X106828000Y-93234500D01*
X106829144Y-93211221D01*
X106832563Y-93188166D01*
X106838227Y-93165557D01*
X106846079Y-93143613D01*
X106856044Y-93122543D01*
X106868026Y-93102552D01*
X106881910Y-93083832D01*
X106897562Y-93066562D01*
X106914832Y-93050910D01*
X106933552Y-93037026D01*
X106953543Y-93025044D01*
X106974613Y-93015079D01*
X106996557Y-93007227D01*
X107019166Y-93001563D01*
X107042221Y-92998144D01*
X107065500Y-92997000D01*
X107640500Y-92997000D01*
X107663779Y-92998144D01*
X107663779Y-92998144D01*
G37*
D12*
X107353000Y-93472000D03*
D11*
G36*
X107649779Y-94649144D02*
G01*
X107672834Y-94652563D01*
X107695443Y-94658227D01*
X107717387Y-94666079D01*
X107738457Y-94676044D01*
X107758448Y-94688026D01*
X107777168Y-94701910D01*
X107794438Y-94717562D01*
X107810090Y-94734832D01*
X107823974Y-94753552D01*
X107835956Y-94773543D01*
X107845921Y-94794613D01*
X107853773Y-94816557D01*
X107859437Y-94839166D01*
X107862856Y-94862221D01*
X107864000Y-94885500D01*
X107864000Y-95360500D01*
X107862856Y-95383779D01*
X107859437Y-95406834D01*
X107853773Y-95429443D01*
X107845921Y-95451387D01*
X107835956Y-95472457D01*
X107823974Y-95492448D01*
X107810090Y-95511168D01*
X107794438Y-95528438D01*
X107777168Y-95544090D01*
X107758448Y-95557974D01*
X107738457Y-95569956D01*
X107717387Y-95579921D01*
X107695443Y-95587773D01*
X107672834Y-95593437D01*
X107649779Y-95596856D01*
X107626500Y-95598000D01*
X107051500Y-95598000D01*
X107028221Y-95596856D01*
X107005166Y-95593437D01*
X106982557Y-95587773D01*
X106960613Y-95579921D01*
X106939543Y-95569956D01*
X106919552Y-95557974D01*
X106900832Y-95544090D01*
X106883562Y-95528438D01*
X106867910Y-95511168D01*
X106854026Y-95492448D01*
X106842044Y-95472457D01*
X106832079Y-95451387D01*
X106824227Y-95429443D01*
X106818563Y-95406834D01*
X106815144Y-95383779D01*
X106814000Y-95360500D01*
X106814000Y-94885500D01*
X106815144Y-94862221D01*
X106818563Y-94839166D01*
X106824227Y-94816557D01*
X106832079Y-94794613D01*
X106842044Y-94773543D01*
X106854026Y-94753552D01*
X106867910Y-94734832D01*
X106883562Y-94717562D01*
X106900832Y-94701910D01*
X106919552Y-94688026D01*
X106939543Y-94676044D01*
X106960613Y-94666079D01*
X106982557Y-94658227D01*
X107005166Y-94652563D01*
X107028221Y-94649144D01*
X107051500Y-94648000D01*
X107626500Y-94648000D01*
X107649779Y-94649144D01*
X107649779Y-94649144D01*
G37*
D12*
X107339000Y-95123000D03*
D11*
G36*
X105899779Y-94649144D02*
G01*
X105922834Y-94652563D01*
X105945443Y-94658227D01*
X105967387Y-94666079D01*
X105988457Y-94676044D01*
X106008448Y-94688026D01*
X106027168Y-94701910D01*
X106044438Y-94717562D01*
X106060090Y-94734832D01*
X106073974Y-94753552D01*
X106085956Y-94773543D01*
X106095921Y-94794613D01*
X106103773Y-94816557D01*
X106109437Y-94839166D01*
X106112856Y-94862221D01*
X106114000Y-94885500D01*
X106114000Y-95360500D01*
X106112856Y-95383779D01*
X106109437Y-95406834D01*
X106103773Y-95429443D01*
X106095921Y-95451387D01*
X106085956Y-95472457D01*
X106073974Y-95492448D01*
X106060090Y-95511168D01*
X106044438Y-95528438D01*
X106027168Y-95544090D01*
X106008448Y-95557974D01*
X105988457Y-95569956D01*
X105967387Y-95579921D01*
X105945443Y-95587773D01*
X105922834Y-95593437D01*
X105899779Y-95596856D01*
X105876500Y-95598000D01*
X105301500Y-95598000D01*
X105278221Y-95596856D01*
X105255166Y-95593437D01*
X105232557Y-95587773D01*
X105210613Y-95579921D01*
X105189543Y-95569956D01*
X105169552Y-95557974D01*
X105150832Y-95544090D01*
X105133562Y-95528438D01*
X105117910Y-95511168D01*
X105104026Y-95492448D01*
X105092044Y-95472457D01*
X105082079Y-95451387D01*
X105074227Y-95429443D01*
X105068563Y-95406834D01*
X105065144Y-95383779D01*
X105064000Y-95360500D01*
X105064000Y-94885500D01*
X105065144Y-94862221D01*
X105068563Y-94839166D01*
X105074227Y-94816557D01*
X105082079Y-94794613D01*
X105092044Y-94773543D01*
X105104026Y-94753552D01*
X105117910Y-94734832D01*
X105133562Y-94717562D01*
X105150832Y-94701910D01*
X105169552Y-94688026D01*
X105189543Y-94676044D01*
X105210613Y-94666079D01*
X105232557Y-94658227D01*
X105255166Y-94652563D01*
X105278221Y-94649144D01*
X105301500Y-94648000D01*
X105876500Y-94648000D01*
X105899779Y-94649144D01*
X105899779Y-94649144D01*
G37*
D12*
X105589000Y-95123000D03*
D11*
G36*
X113279779Y-90712144D02*
G01*
X113302834Y-90715563D01*
X113325443Y-90721227D01*
X113347387Y-90729079D01*
X113368457Y-90739044D01*
X113388448Y-90751026D01*
X113407168Y-90764910D01*
X113424438Y-90780562D01*
X113440090Y-90797832D01*
X113453974Y-90816552D01*
X113465956Y-90836543D01*
X113475921Y-90857613D01*
X113483773Y-90879557D01*
X113489437Y-90902166D01*
X113492856Y-90925221D01*
X113494000Y-90948500D01*
X113494000Y-91423500D01*
X113492856Y-91446779D01*
X113489437Y-91469834D01*
X113483773Y-91492443D01*
X113475921Y-91514387D01*
X113465956Y-91535457D01*
X113453974Y-91555448D01*
X113440090Y-91574168D01*
X113424438Y-91591438D01*
X113407168Y-91607090D01*
X113388448Y-91620974D01*
X113368457Y-91632956D01*
X113347387Y-91642921D01*
X113325443Y-91650773D01*
X113302834Y-91656437D01*
X113279779Y-91659856D01*
X113256500Y-91661000D01*
X112681500Y-91661000D01*
X112658221Y-91659856D01*
X112635166Y-91656437D01*
X112612557Y-91650773D01*
X112590613Y-91642921D01*
X112569543Y-91632956D01*
X112549552Y-91620974D01*
X112530832Y-91607090D01*
X112513562Y-91591438D01*
X112497910Y-91574168D01*
X112484026Y-91555448D01*
X112472044Y-91535457D01*
X112462079Y-91514387D01*
X112454227Y-91492443D01*
X112448563Y-91469834D01*
X112445144Y-91446779D01*
X112444000Y-91423500D01*
X112444000Y-90948500D01*
X112445144Y-90925221D01*
X112448563Y-90902166D01*
X112454227Y-90879557D01*
X112462079Y-90857613D01*
X112472044Y-90836543D01*
X112484026Y-90816552D01*
X112497910Y-90797832D01*
X112513562Y-90780562D01*
X112530832Y-90764910D01*
X112549552Y-90751026D01*
X112569543Y-90739044D01*
X112590613Y-90729079D01*
X112612557Y-90721227D01*
X112635166Y-90715563D01*
X112658221Y-90712144D01*
X112681500Y-90711000D01*
X113256500Y-90711000D01*
X113279779Y-90712144D01*
X113279779Y-90712144D01*
G37*
D12*
X112969000Y-91186000D03*
D11*
G36*
X115029779Y-90712144D02*
G01*
X115052834Y-90715563D01*
X115075443Y-90721227D01*
X115097387Y-90729079D01*
X115118457Y-90739044D01*
X115138448Y-90751026D01*
X115157168Y-90764910D01*
X115174438Y-90780562D01*
X115190090Y-90797832D01*
X115203974Y-90816552D01*
X115215956Y-90836543D01*
X115225921Y-90857613D01*
X115233773Y-90879557D01*
X115239437Y-90902166D01*
X115242856Y-90925221D01*
X115244000Y-90948500D01*
X115244000Y-91423500D01*
X115242856Y-91446779D01*
X115239437Y-91469834D01*
X115233773Y-91492443D01*
X115225921Y-91514387D01*
X115215956Y-91535457D01*
X115203974Y-91555448D01*
X115190090Y-91574168D01*
X115174438Y-91591438D01*
X115157168Y-91607090D01*
X115138448Y-91620974D01*
X115118457Y-91632956D01*
X115097387Y-91642921D01*
X115075443Y-91650773D01*
X115052834Y-91656437D01*
X115029779Y-91659856D01*
X115006500Y-91661000D01*
X114431500Y-91661000D01*
X114408221Y-91659856D01*
X114385166Y-91656437D01*
X114362557Y-91650773D01*
X114340613Y-91642921D01*
X114319543Y-91632956D01*
X114299552Y-91620974D01*
X114280832Y-91607090D01*
X114263562Y-91591438D01*
X114247910Y-91574168D01*
X114234026Y-91555448D01*
X114222044Y-91535457D01*
X114212079Y-91514387D01*
X114204227Y-91492443D01*
X114198563Y-91469834D01*
X114195144Y-91446779D01*
X114194000Y-91423500D01*
X114194000Y-90948500D01*
X114195144Y-90925221D01*
X114198563Y-90902166D01*
X114204227Y-90879557D01*
X114212079Y-90857613D01*
X114222044Y-90836543D01*
X114234026Y-90816552D01*
X114247910Y-90797832D01*
X114263562Y-90780562D01*
X114280832Y-90764910D01*
X114299552Y-90751026D01*
X114319543Y-90739044D01*
X114340613Y-90729079D01*
X114362557Y-90721227D01*
X114385166Y-90715563D01*
X114408221Y-90712144D01*
X114431500Y-90711000D01*
X115006500Y-90711000D01*
X115029779Y-90712144D01*
X115029779Y-90712144D01*
G37*
D12*
X114719000Y-91186000D03*
D11*
G36*
X144024779Y-65883144D02*
G01*
X144047834Y-65886563D01*
X144070443Y-65892227D01*
X144092387Y-65900079D01*
X144113457Y-65910044D01*
X144133448Y-65922026D01*
X144152168Y-65935910D01*
X144169438Y-65951562D01*
X144185090Y-65968832D01*
X144198974Y-65987552D01*
X144210956Y-66007543D01*
X144220921Y-66028613D01*
X144228773Y-66050557D01*
X144234437Y-66073166D01*
X144237856Y-66096221D01*
X144239000Y-66119500D01*
X144239000Y-66694500D01*
X144237856Y-66717779D01*
X144234437Y-66740834D01*
X144228773Y-66763443D01*
X144220921Y-66785387D01*
X144210956Y-66806457D01*
X144198974Y-66826448D01*
X144185090Y-66845168D01*
X144169438Y-66862438D01*
X144152168Y-66878090D01*
X144133448Y-66891974D01*
X144113457Y-66903956D01*
X144092387Y-66913921D01*
X144070443Y-66921773D01*
X144047834Y-66927437D01*
X144024779Y-66930856D01*
X144001500Y-66932000D01*
X143526500Y-66932000D01*
X143503221Y-66930856D01*
X143480166Y-66927437D01*
X143457557Y-66921773D01*
X143435613Y-66913921D01*
X143414543Y-66903956D01*
X143394552Y-66891974D01*
X143375832Y-66878090D01*
X143358562Y-66862438D01*
X143342910Y-66845168D01*
X143329026Y-66826448D01*
X143317044Y-66806457D01*
X143307079Y-66785387D01*
X143299227Y-66763443D01*
X143293563Y-66740834D01*
X143290144Y-66717779D01*
X143289000Y-66694500D01*
X143289000Y-66119500D01*
X143290144Y-66096221D01*
X143293563Y-66073166D01*
X143299227Y-66050557D01*
X143307079Y-66028613D01*
X143317044Y-66007543D01*
X143329026Y-65987552D01*
X143342910Y-65968832D01*
X143358562Y-65951562D01*
X143375832Y-65935910D01*
X143394552Y-65922026D01*
X143414543Y-65910044D01*
X143435613Y-65900079D01*
X143457557Y-65892227D01*
X143480166Y-65886563D01*
X143503221Y-65883144D01*
X143526500Y-65882000D01*
X144001500Y-65882000D01*
X144024779Y-65883144D01*
X144024779Y-65883144D01*
G37*
D12*
X143764000Y-66407000D03*
D11*
G36*
X144024779Y-64133144D02*
G01*
X144047834Y-64136563D01*
X144070443Y-64142227D01*
X144092387Y-64150079D01*
X144113457Y-64160044D01*
X144133448Y-64172026D01*
X144152168Y-64185910D01*
X144169438Y-64201562D01*
X144185090Y-64218832D01*
X144198974Y-64237552D01*
X144210956Y-64257543D01*
X144220921Y-64278613D01*
X144228773Y-64300557D01*
X144234437Y-64323166D01*
X144237856Y-64346221D01*
X144239000Y-64369500D01*
X144239000Y-64944500D01*
X144237856Y-64967779D01*
X144234437Y-64990834D01*
X144228773Y-65013443D01*
X144220921Y-65035387D01*
X144210956Y-65056457D01*
X144198974Y-65076448D01*
X144185090Y-65095168D01*
X144169438Y-65112438D01*
X144152168Y-65128090D01*
X144133448Y-65141974D01*
X144113457Y-65153956D01*
X144092387Y-65163921D01*
X144070443Y-65171773D01*
X144047834Y-65177437D01*
X144024779Y-65180856D01*
X144001500Y-65182000D01*
X143526500Y-65182000D01*
X143503221Y-65180856D01*
X143480166Y-65177437D01*
X143457557Y-65171773D01*
X143435613Y-65163921D01*
X143414543Y-65153956D01*
X143394552Y-65141974D01*
X143375832Y-65128090D01*
X143358562Y-65112438D01*
X143342910Y-65095168D01*
X143329026Y-65076448D01*
X143317044Y-65056457D01*
X143307079Y-65035387D01*
X143299227Y-65013443D01*
X143293563Y-64990834D01*
X143290144Y-64967779D01*
X143289000Y-64944500D01*
X143289000Y-64369500D01*
X143290144Y-64346221D01*
X143293563Y-64323166D01*
X143299227Y-64300557D01*
X143307079Y-64278613D01*
X143317044Y-64257543D01*
X143329026Y-64237552D01*
X143342910Y-64218832D01*
X143358562Y-64201562D01*
X143375832Y-64185910D01*
X143394552Y-64172026D01*
X143414543Y-64160044D01*
X143435613Y-64150079D01*
X143457557Y-64142227D01*
X143480166Y-64136563D01*
X143503221Y-64133144D01*
X143526500Y-64132000D01*
X144001500Y-64132000D01*
X144024779Y-64133144D01*
X144024779Y-64133144D01*
G37*
D12*
X143764000Y-64657000D03*
D11*
G36*
X108881779Y-82203144D02*
G01*
X108904834Y-82206563D01*
X108927443Y-82212227D01*
X108949387Y-82220079D01*
X108970457Y-82230044D01*
X108990448Y-82242026D01*
X109009168Y-82255910D01*
X109026438Y-82271562D01*
X109042090Y-82288832D01*
X109055974Y-82307552D01*
X109067956Y-82327543D01*
X109077921Y-82348613D01*
X109085773Y-82370557D01*
X109091437Y-82393166D01*
X109094856Y-82416221D01*
X109096000Y-82439500D01*
X109096000Y-82914500D01*
X109094856Y-82937779D01*
X109091437Y-82960834D01*
X109085773Y-82983443D01*
X109077921Y-83005387D01*
X109067956Y-83026457D01*
X109055974Y-83046448D01*
X109042090Y-83065168D01*
X109026438Y-83082438D01*
X109009168Y-83098090D01*
X108990448Y-83111974D01*
X108970457Y-83123956D01*
X108949387Y-83133921D01*
X108927443Y-83141773D01*
X108904834Y-83147437D01*
X108881779Y-83150856D01*
X108858500Y-83152000D01*
X108283500Y-83152000D01*
X108260221Y-83150856D01*
X108237166Y-83147437D01*
X108214557Y-83141773D01*
X108192613Y-83133921D01*
X108171543Y-83123956D01*
X108151552Y-83111974D01*
X108132832Y-83098090D01*
X108115562Y-83082438D01*
X108099910Y-83065168D01*
X108086026Y-83046448D01*
X108074044Y-83026457D01*
X108064079Y-83005387D01*
X108056227Y-82983443D01*
X108050563Y-82960834D01*
X108047144Y-82937779D01*
X108046000Y-82914500D01*
X108046000Y-82439500D01*
X108047144Y-82416221D01*
X108050563Y-82393166D01*
X108056227Y-82370557D01*
X108064079Y-82348613D01*
X108074044Y-82327543D01*
X108086026Y-82307552D01*
X108099910Y-82288832D01*
X108115562Y-82271562D01*
X108132832Y-82255910D01*
X108151552Y-82242026D01*
X108171543Y-82230044D01*
X108192613Y-82220079D01*
X108214557Y-82212227D01*
X108237166Y-82206563D01*
X108260221Y-82203144D01*
X108283500Y-82202000D01*
X108858500Y-82202000D01*
X108881779Y-82203144D01*
X108881779Y-82203144D01*
G37*
D12*
X108571000Y-82677000D03*
D11*
G36*
X107131779Y-82203144D02*
G01*
X107154834Y-82206563D01*
X107177443Y-82212227D01*
X107199387Y-82220079D01*
X107220457Y-82230044D01*
X107240448Y-82242026D01*
X107259168Y-82255910D01*
X107276438Y-82271562D01*
X107292090Y-82288832D01*
X107305974Y-82307552D01*
X107317956Y-82327543D01*
X107327921Y-82348613D01*
X107335773Y-82370557D01*
X107341437Y-82393166D01*
X107344856Y-82416221D01*
X107346000Y-82439500D01*
X107346000Y-82914500D01*
X107344856Y-82937779D01*
X107341437Y-82960834D01*
X107335773Y-82983443D01*
X107327921Y-83005387D01*
X107317956Y-83026457D01*
X107305974Y-83046448D01*
X107292090Y-83065168D01*
X107276438Y-83082438D01*
X107259168Y-83098090D01*
X107240448Y-83111974D01*
X107220457Y-83123956D01*
X107199387Y-83133921D01*
X107177443Y-83141773D01*
X107154834Y-83147437D01*
X107131779Y-83150856D01*
X107108500Y-83152000D01*
X106533500Y-83152000D01*
X106510221Y-83150856D01*
X106487166Y-83147437D01*
X106464557Y-83141773D01*
X106442613Y-83133921D01*
X106421543Y-83123956D01*
X106401552Y-83111974D01*
X106382832Y-83098090D01*
X106365562Y-83082438D01*
X106349910Y-83065168D01*
X106336026Y-83046448D01*
X106324044Y-83026457D01*
X106314079Y-83005387D01*
X106306227Y-82983443D01*
X106300563Y-82960834D01*
X106297144Y-82937779D01*
X106296000Y-82914500D01*
X106296000Y-82439500D01*
X106297144Y-82416221D01*
X106300563Y-82393166D01*
X106306227Y-82370557D01*
X106314079Y-82348613D01*
X106324044Y-82327543D01*
X106336026Y-82307552D01*
X106349910Y-82288832D01*
X106365562Y-82271562D01*
X106382832Y-82255910D01*
X106401552Y-82242026D01*
X106421543Y-82230044D01*
X106442613Y-82220079D01*
X106464557Y-82212227D01*
X106487166Y-82206563D01*
X106510221Y-82203144D01*
X106533500Y-82202000D01*
X107108500Y-82202000D01*
X107131779Y-82203144D01*
X107131779Y-82203144D01*
G37*
D12*
X106821000Y-82677000D03*
D11*
G36*
X115015779Y-88934144D02*
G01*
X115038834Y-88937563D01*
X115061443Y-88943227D01*
X115083387Y-88951079D01*
X115104457Y-88961044D01*
X115124448Y-88973026D01*
X115143168Y-88986910D01*
X115160438Y-89002562D01*
X115176090Y-89019832D01*
X115189974Y-89038552D01*
X115201956Y-89058543D01*
X115211921Y-89079613D01*
X115219773Y-89101557D01*
X115225437Y-89124166D01*
X115228856Y-89147221D01*
X115230000Y-89170500D01*
X115230000Y-89645500D01*
X115228856Y-89668779D01*
X115225437Y-89691834D01*
X115219773Y-89714443D01*
X115211921Y-89736387D01*
X115201956Y-89757457D01*
X115189974Y-89777448D01*
X115176090Y-89796168D01*
X115160438Y-89813438D01*
X115143168Y-89829090D01*
X115124448Y-89842974D01*
X115104457Y-89854956D01*
X115083387Y-89864921D01*
X115061443Y-89872773D01*
X115038834Y-89878437D01*
X115015779Y-89881856D01*
X114992500Y-89883000D01*
X114417500Y-89883000D01*
X114394221Y-89881856D01*
X114371166Y-89878437D01*
X114348557Y-89872773D01*
X114326613Y-89864921D01*
X114305543Y-89854956D01*
X114285552Y-89842974D01*
X114266832Y-89829090D01*
X114249562Y-89813438D01*
X114233910Y-89796168D01*
X114220026Y-89777448D01*
X114208044Y-89757457D01*
X114198079Y-89736387D01*
X114190227Y-89714443D01*
X114184563Y-89691834D01*
X114181144Y-89668779D01*
X114180000Y-89645500D01*
X114180000Y-89170500D01*
X114181144Y-89147221D01*
X114184563Y-89124166D01*
X114190227Y-89101557D01*
X114198079Y-89079613D01*
X114208044Y-89058543D01*
X114220026Y-89038552D01*
X114233910Y-89019832D01*
X114249562Y-89002562D01*
X114266832Y-88986910D01*
X114285552Y-88973026D01*
X114305543Y-88961044D01*
X114326613Y-88951079D01*
X114348557Y-88943227D01*
X114371166Y-88937563D01*
X114394221Y-88934144D01*
X114417500Y-88933000D01*
X114992500Y-88933000D01*
X115015779Y-88934144D01*
X115015779Y-88934144D01*
G37*
D12*
X114705000Y-89408000D03*
D11*
G36*
X113265779Y-88934144D02*
G01*
X113288834Y-88937563D01*
X113311443Y-88943227D01*
X113333387Y-88951079D01*
X113354457Y-88961044D01*
X113374448Y-88973026D01*
X113393168Y-88986910D01*
X113410438Y-89002562D01*
X113426090Y-89019832D01*
X113439974Y-89038552D01*
X113451956Y-89058543D01*
X113461921Y-89079613D01*
X113469773Y-89101557D01*
X113475437Y-89124166D01*
X113478856Y-89147221D01*
X113480000Y-89170500D01*
X113480000Y-89645500D01*
X113478856Y-89668779D01*
X113475437Y-89691834D01*
X113469773Y-89714443D01*
X113461921Y-89736387D01*
X113451956Y-89757457D01*
X113439974Y-89777448D01*
X113426090Y-89796168D01*
X113410438Y-89813438D01*
X113393168Y-89829090D01*
X113374448Y-89842974D01*
X113354457Y-89854956D01*
X113333387Y-89864921D01*
X113311443Y-89872773D01*
X113288834Y-89878437D01*
X113265779Y-89881856D01*
X113242500Y-89883000D01*
X112667500Y-89883000D01*
X112644221Y-89881856D01*
X112621166Y-89878437D01*
X112598557Y-89872773D01*
X112576613Y-89864921D01*
X112555543Y-89854956D01*
X112535552Y-89842974D01*
X112516832Y-89829090D01*
X112499562Y-89813438D01*
X112483910Y-89796168D01*
X112470026Y-89777448D01*
X112458044Y-89757457D01*
X112448079Y-89736387D01*
X112440227Y-89714443D01*
X112434563Y-89691834D01*
X112431144Y-89668779D01*
X112430000Y-89645500D01*
X112430000Y-89170500D01*
X112431144Y-89147221D01*
X112434563Y-89124166D01*
X112440227Y-89101557D01*
X112448079Y-89079613D01*
X112458044Y-89058543D01*
X112470026Y-89038552D01*
X112483910Y-89019832D01*
X112499562Y-89002562D01*
X112516832Y-88986910D01*
X112535552Y-88973026D01*
X112555543Y-88961044D01*
X112576613Y-88951079D01*
X112598557Y-88943227D01*
X112621166Y-88937563D01*
X112644221Y-88934144D01*
X112667500Y-88933000D01*
X113242500Y-88933000D01*
X113265779Y-88934144D01*
X113265779Y-88934144D01*
G37*
D12*
X112955000Y-89408000D03*
D15*
X103764000Y-87884000D03*
X103764000Y-89154000D03*
X103764000Y-90424000D03*
X103764000Y-91694000D03*
X109164000Y-91694000D03*
X109164000Y-90424000D03*
X109164000Y-89154000D03*
X109164000Y-87884000D03*
M02*
