G04 #@! TF.GenerationSoftware,KiCad,Pcbnew,(5.1.0)-1*
G04 #@! TF.CreationDate,2019-06-16T18:36:56-04:00*
G04 #@! TF.ProjectId,PSX Breakout,50535820-4272-4656-916b-6f75742e6b69,rev?*
G04 #@! TF.SameCoordinates,Original*
G04 #@! TF.FileFunction,Soldermask,Bot*
G04 #@! TF.FilePolarity,Negative*
%FSLAX46Y46*%
G04 Gerber Fmt 4.6, Leading zero omitted, Abs format (unit mm)*
G04 Created by KiCad (PCBNEW (5.1.0)-1) date 2019-06-16 18:36:56*
%MOMM*%
%LPD*%
G04 APERTURE LIST*
%ADD10C,0.100000*%
G04 APERTURE END LIST*
D10*
G36*
X128038808Y-109442648D02*
G01*
X128190551Y-109488678D01*
X128330398Y-109563428D01*
X128452975Y-109664025D01*
X128553572Y-109786602D01*
X128628322Y-109926449D01*
X128674352Y-110078192D01*
X128689895Y-110236000D01*
X128674352Y-110393808D01*
X128628322Y-110545551D01*
X128553572Y-110685398D01*
X128452975Y-110807975D01*
X128330398Y-110908572D01*
X128190551Y-110983322D01*
X128038808Y-111029352D01*
X127920546Y-111041000D01*
X126333454Y-111041000D01*
X126215192Y-111029352D01*
X126063449Y-110983322D01*
X125923602Y-110908572D01*
X125801025Y-110807975D01*
X125700428Y-110685398D01*
X125625678Y-110545551D01*
X125579648Y-110393808D01*
X125564105Y-110236000D01*
X125579648Y-110078192D01*
X125625678Y-109926449D01*
X125700428Y-109786602D01*
X125801025Y-109664025D01*
X125923602Y-109563428D01*
X126063449Y-109488678D01*
X126215192Y-109442648D01*
X126333454Y-109431000D01*
X127920546Y-109431000D01*
X128038808Y-109442648D01*
X128038808Y-109442648D01*
G37*
G36*
X131434808Y-107688648D02*
G01*
X131586551Y-107734678D01*
X131726398Y-107809428D01*
X131848975Y-107910025D01*
X131949572Y-108032602D01*
X132024322Y-108172449D01*
X132070352Y-108324192D01*
X132082000Y-108442454D01*
X132082000Y-110029546D01*
X132070352Y-110147808D01*
X132024322Y-110299551D01*
X131949572Y-110439398D01*
X131848975Y-110561975D01*
X131726397Y-110662572D01*
X131586550Y-110737322D01*
X131434807Y-110783352D01*
X131277000Y-110798895D01*
X131119192Y-110783352D01*
X130967449Y-110737322D01*
X130827602Y-110662572D01*
X130705025Y-110561975D01*
X130604428Y-110439397D01*
X130529678Y-110299550D01*
X130483648Y-110147807D01*
X130472000Y-110029545D01*
X130472001Y-108442454D01*
X130483649Y-108324192D01*
X130529679Y-108172449D01*
X130604429Y-108032602D01*
X130705026Y-107910025D01*
X130827603Y-107809428D01*
X130967450Y-107734678D01*
X131119193Y-107688648D01*
X131277000Y-107673105D01*
X131434808Y-107688648D01*
X131434808Y-107688648D01*
G37*
G36*
X172449134Y-104475654D02*
G01*
X172666099Y-104541470D01*
X172666101Y-104541471D01*
X172866053Y-104648347D01*
X172866861Y-104649010D01*
X173041318Y-104792182D01*
X173094074Y-104856466D01*
X173185153Y-104967445D01*
X173282829Y-105150186D01*
X173292030Y-105167400D01*
X173320963Y-105262779D01*
X173357846Y-105384366D01*
X173374500Y-105553455D01*
X173374500Y-107466545D01*
X173367050Y-107542185D01*
X173357846Y-107635635D01*
X173311031Y-107789963D01*
X173292029Y-107852602D01*
X173185153Y-108052555D01*
X173041318Y-108227818D01*
X172866055Y-108371653D01*
X172666102Y-108478529D01*
X172666100Y-108478530D01*
X172449135Y-108544346D01*
X172223500Y-108566569D01*
X171997866Y-108544346D01*
X171780901Y-108478530D01*
X171780899Y-108478529D01*
X171580946Y-108371653D01*
X171405683Y-108227818D01*
X171261848Y-108052555D01*
X171154972Y-107852602D01*
X171135971Y-107789963D01*
X171089155Y-107635635D01*
X171072500Y-107466543D01*
X171072500Y-105553458D01*
X171089154Y-105384366D01*
X171154970Y-105167401D01*
X171154972Y-105167398D01*
X171261847Y-104967447D01*
X171330888Y-104883320D01*
X171405682Y-104792182D01*
X171508289Y-104707975D01*
X171580945Y-104648347D01*
X171780898Y-104541471D01*
X171780900Y-104541470D01*
X171997865Y-104475654D01*
X172223500Y-104453431D01*
X172449134Y-104475654D01*
X172449134Y-104475654D01*
G37*
G36*
X186449134Y-104475654D02*
G01*
X186666099Y-104541470D01*
X186666101Y-104541471D01*
X186866053Y-104648347D01*
X186866861Y-104649010D01*
X187041318Y-104792182D01*
X187094074Y-104856466D01*
X187185153Y-104967445D01*
X187282829Y-105150186D01*
X187292030Y-105167400D01*
X187320963Y-105262779D01*
X187357846Y-105384366D01*
X187374500Y-105553455D01*
X187374500Y-107466545D01*
X187367050Y-107542185D01*
X187357846Y-107635635D01*
X187311031Y-107789963D01*
X187292029Y-107852602D01*
X187185153Y-108052555D01*
X187041318Y-108227818D01*
X186866055Y-108371653D01*
X186666102Y-108478529D01*
X186666100Y-108478530D01*
X186449135Y-108544346D01*
X186223500Y-108566569D01*
X185997866Y-108544346D01*
X185780901Y-108478530D01*
X185780899Y-108478529D01*
X185580946Y-108371653D01*
X185405683Y-108227818D01*
X185261848Y-108052555D01*
X185154972Y-107852602D01*
X185135971Y-107789963D01*
X185089155Y-107635635D01*
X185072500Y-107466543D01*
X185072500Y-105553458D01*
X185089154Y-105384366D01*
X185154970Y-105167401D01*
X185154972Y-105167398D01*
X185261847Y-104967447D01*
X185330888Y-104883320D01*
X185405682Y-104792182D01*
X185508289Y-104707975D01*
X185580945Y-104648347D01*
X185780898Y-104541471D01*
X185780900Y-104541470D01*
X185997865Y-104475654D01*
X186223500Y-104453431D01*
X186449134Y-104475654D01*
X186449134Y-104475654D01*
G37*
G36*
X158449134Y-104475654D02*
G01*
X158666099Y-104541470D01*
X158666101Y-104541471D01*
X158866053Y-104648347D01*
X158866861Y-104649010D01*
X159041318Y-104792182D01*
X159094074Y-104856466D01*
X159185153Y-104967445D01*
X159282829Y-105150186D01*
X159292030Y-105167400D01*
X159320963Y-105262779D01*
X159357846Y-105384366D01*
X159374500Y-105553455D01*
X159374500Y-107466545D01*
X159367050Y-107542185D01*
X159357846Y-107635635D01*
X159311031Y-107789963D01*
X159292029Y-107852602D01*
X159185153Y-108052555D01*
X159041318Y-108227818D01*
X158866055Y-108371653D01*
X158666102Y-108478529D01*
X158666100Y-108478530D01*
X158449135Y-108544346D01*
X158223500Y-108566569D01*
X157997866Y-108544346D01*
X157780901Y-108478530D01*
X157780899Y-108478529D01*
X157580946Y-108371653D01*
X157405683Y-108227818D01*
X157261848Y-108052555D01*
X157154972Y-107852602D01*
X157135971Y-107789963D01*
X157089155Y-107635635D01*
X157072500Y-107466543D01*
X157072500Y-105553458D01*
X157089154Y-105384366D01*
X157154970Y-105167401D01*
X157154972Y-105167398D01*
X157261847Y-104967447D01*
X157330888Y-104883320D01*
X157405682Y-104792182D01*
X157508289Y-104707975D01*
X157580945Y-104648347D01*
X157780898Y-104541471D01*
X157780900Y-104541470D01*
X157997865Y-104475654D01*
X158223500Y-104453431D01*
X158449134Y-104475654D01*
X158449134Y-104475654D01*
G37*
G36*
X126038808Y-106942648D02*
G01*
X126190551Y-106988678D01*
X126330398Y-107063428D01*
X126452975Y-107164025D01*
X126553572Y-107286602D01*
X126628322Y-107426449D01*
X126674352Y-107578192D01*
X126689895Y-107736000D01*
X126674352Y-107893808D01*
X126628322Y-108045551D01*
X126553572Y-108185398D01*
X126452975Y-108307975D01*
X126330398Y-108408572D01*
X126190551Y-108483322D01*
X126038808Y-108529352D01*
X125920546Y-108541000D01*
X124333454Y-108541000D01*
X124215192Y-108529352D01*
X124063449Y-108483322D01*
X123923602Y-108408572D01*
X123801025Y-108307975D01*
X123700428Y-108185398D01*
X123625678Y-108045551D01*
X123579648Y-107893808D01*
X123564105Y-107736000D01*
X123579648Y-107578192D01*
X123625678Y-107426449D01*
X123700428Y-107286602D01*
X123801025Y-107164025D01*
X123923602Y-107063428D01*
X124063449Y-106988678D01*
X124215192Y-106942648D01*
X124333454Y-106931000D01*
X125920546Y-106931000D01*
X126038808Y-106942648D01*
X126038808Y-106942648D01*
G37*
G36*
X140152443Y-106007519D02*
G01*
X140218627Y-106014037D01*
X140388466Y-106065557D01*
X140544991Y-106149222D01*
X140580729Y-106178552D01*
X140682186Y-106261814D01*
X140765448Y-106363271D01*
X140794778Y-106399009D01*
X140878443Y-106555534D01*
X140929963Y-106725373D01*
X140947359Y-106902000D01*
X140929963Y-107078627D01*
X140878443Y-107248466D01*
X140794778Y-107404991D01*
X140765448Y-107440729D01*
X140682186Y-107542186D01*
X140605916Y-107604778D01*
X140544991Y-107654778D01*
X140544989Y-107654779D01*
X140393037Y-107736000D01*
X140388466Y-107738443D01*
X140218627Y-107789963D01*
X140152442Y-107796482D01*
X140086260Y-107803000D01*
X138297740Y-107803000D01*
X138231558Y-107796482D01*
X138165373Y-107789963D01*
X137995534Y-107738443D01*
X137990964Y-107736000D01*
X137839011Y-107654779D01*
X137839009Y-107654778D01*
X137778084Y-107604778D01*
X137701814Y-107542186D01*
X137618552Y-107440729D01*
X137589222Y-107404991D01*
X137505557Y-107248466D01*
X137454037Y-107078627D01*
X137436641Y-106902000D01*
X137454037Y-106725373D01*
X137505557Y-106555534D01*
X137589222Y-106399009D01*
X137618552Y-106363271D01*
X137701814Y-106261814D01*
X137803271Y-106178552D01*
X137839009Y-106149222D01*
X137995534Y-106065557D01*
X138165373Y-106014037D01*
X138231557Y-106007519D01*
X138297740Y-106001000D01*
X140086260Y-106001000D01*
X140152443Y-106007519D01*
X140152443Y-106007519D01*
G37*
G36*
X132868626Y-104264037D02*
G01*
X133038465Y-104315557D01*
X133038467Y-104315558D01*
X133194989Y-104399221D01*
X133332186Y-104511814D01*
X133415448Y-104613271D01*
X133444778Y-104649009D01*
X133528443Y-104805534D01*
X133579963Y-104975373D01*
X133579963Y-104975375D01*
X133593000Y-105107740D01*
X133593000Y-106896260D01*
X133589578Y-106931000D01*
X133579963Y-107028627D01*
X133528443Y-107198466D01*
X133444778Y-107354991D01*
X133415448Y-107390729D01*
X133332186Y-107492186D01*
X133230729Y-107575448D01*
X133194991Y-107604778D01*
X133038466Y-107688443D01*
X132868627Y-107739963D01*
X132692000Y-107757359D01*
X132515374Y-107739963D01*
X132345535Y-107688443D01*
X132189010Y-107604778D01*
X132153272Y-107575448D01*
X132051815Y-107492186D01*
X131968553Y-107390729D01*
X131939223Y-107354991D01*
X131855558Y-107198466D01*
X131804038Y-107028627D01*
X131794423Y-106931000D01*
X131791001Y-106896260D01*
X131791000Y-105107741D01*
X131804037Y-104975376D01*
X131804037Y-104975374D01*
X131855557Y-104805535D01*
X131939222Y-104649010D01*
X131939766Y-104648347D01*
X132051814Y-104511814D01*
X132153271Y-104428552D01*
X132189009Y-104399222D01*
X132345534Y-104315557D01*
X132515373Y-104264037D01*
X132692000Y-104246641D01*
X132868626Y-104264037D01*
X132868626Y-104264037D01*
G37*
G36*
X145868627Y-104264037D02*
G01*
X146038466Y-104315557D01*
X146194991Y-104399222D01*
X146230729Y-104428552D01*
X146332186Y-104511814D01*
X146415448Y-104613271D01*
X146444778Y-104649009D01*
X146528443Y-104805534D01*
X146579963Y-104975373D01*
X146579963Y-104975375D01*
X146593000Y-105107740D01*
X146593000Y-106896260D01*
X146589578Y-106931000D01*
X146579963Y-107028627D01*
X146528443Y-107198466D01*
X146444778Y-107354991D01*
X146415448Y-107390729D01*
X146332186Y-107492186D01*
X146194989Y-107604779D01*
X146038467Y-107688442D01*
X146038465Y-107688443D01*
X145868626Y-107739963D01*
X145692000Y-107757359D01*
X145515373Y-107739963D01*
X145345534Y-107688443D01*
X145189009Y-107604778D01*
X145153271Y-107575448D01*
X145051814Y-107492186D01*
X144939221Y-107354989D01*
X144855558Y-107198467D01*
X144819205Y-107078627D01*
X144804037Y-107028626D01*
X144794422Y-106931000D01*
X144791000Y-106896259D01*
X144791001Y-105107740D01*
X144804038Y-104975375D01*
X144804038Y-104975373D01*
X144855558Y-104805534D01*
X144939223Y-104649009D01*
X144968553Y-104613271D01*
X145051815Y-104511814D01*
X145153272Y-104428552D01*
X145189010Y-104399222D01*
X145345535Y-104315557D01*
X145515374Y-104264037D01*
X145692000Y-104246641D01*
X145868627Y-104264037D01*
X145868627Y-104264037D01*
G37*
G36*
X148500126Y-100622037D02*
G01*
X148669965Y-100673557D01*
X148669967Y-100673558D01*
X148826489Y-100757221D01*
X148963686Y-100869814D01*
X149046948Y-100971271D01*
X149076278Y-101007009D01*
X149159943Y-101163534D01*
X149211463Y-101333373D01*
X149211463Y-101333375D01*
X149222226Y-101442648D01*
X149224500Y-101465742D01*
X149224500Y-104554258D01*
X149211463Y-104686627D01*
X149159943Y-104856466D01*
X149076278Y-105012991D01*
X149046948Y-105048729D01*
X148963686Y-105150186D01*
X148862229Y-105233448D01*
X148826491Y-105262778D01*
X148669966Y-105346443D01*
X148500127Y-105397963D01*
X148323500Y-105415359D01*
X148146874Y-105397963D01*
X147977035Y-105346443D01*
X147820510Y-105262778D01*
X147784772Y-105233448D01*
X147683315Y-105150186D01*
X147600053Y-105048729D01*
X147570723Y-105012991D01*
X147487058Y-104856466D01*
X147435538Y-104686627D01*
X147422501Y-104554258D01*
X147422500Y-101465743D01*
X147424775Y-101442648D01*
X147435537Y-101333376D01*
X147435537Y-101333374D01*
X147487057Y-101163535D01*
X147500651Y-101138103D01*
X147570721Y-101007011D01*
X147683314Y-100869814D01*
X147784771Y-100786552D01*
X147820509Y-100757222D01*
X147977034Y-100673557D01*
X148146873Y-100622037D01*
X148323500Y-100604641D01*
X148500126Y-100622037D01*
X148500126Y-100622037D01*
G37*
G36*
X188800126Y-100622037D02*
G01*
X188969965Y-100673557D01*
X188969967Y-100673558D01*
X189126489Y-100757221D01*
X189263686Y-100869814D01*
X189346948Y-100971271D01*
X189376278Y-101007009D01*
X189459943Y-101163534D01*
X189511463Y-101333373D01*
X189511463Y-101333375D01*
X189522226Y-101442648D01*
X189524500Y-101465742D01*
X189524500Y-104554258D01*
X189511463Y-104686627D01*
X189459943Y-104856466D01*
X189376278Y-105012991D01*
X189346948Y-105048729D01*
X189263686Y-105150186D01*
X189162229Y-105233448D01*
X189126491Y-105262778D01*
X188969966Y-105346443D01*
X188800127Y-105397963D01*
X188623500Y-105415359D01*
X188446874Y-105397963D01*
X188277035Y-105346443D01*
X188120510Y-105262778D01*
X188084772Y-105233448D01*
X187983315Y-105150186D01*
X187900053Y-105048729D01*
X187870723Y-105012991D01*
X187787058Y-104856466D01*
X187735538Y-104686627D01*
X187722501Y-104554258D01*
X187722500Y-101465743D01*
X187724775Y-101442648D01*
X187735537Y-101333376D01*
X187735537Y-101333374D01*
X187787057Y-101163535D01*
X187800651Y-101138103D01*
X187870721Y-101007011D01*
X187983314Y-100869814D01*
X188084771Y-100786552D01*
X188120509Y-100757222D01*
X188277034Y-100673557D01*
X188446873Y-100622037D01*
X188623500Y-100604641D01*
X188800126Y-100622037D01*
X188800126Y-100622037D01*
G37*
G36*
X128038808Y-103342648D02*
G01*
X128190551Y-103388678D01*
X128330398Y-103463428D01*
X128452975Y-103564025D01*
X128553572Y-103686602D01*
X128628322Y-103826449D01*
X128674352Y-103978192D01*
X128689895Y-104136000D01*
X128674352Y-104293808D01*
X128628322Y-104445551D01*
X128553572Y-104585398D01*
X128452975Y-104707975D01*
X128330398Y-104808572D01*
X128190551Y-104883322D01*
X128038808Y-104929352D01*
X127920546Y-104941000D01*
X126333454Y-104941000D01*
X126215192Y-104929352D01*
X126063449Y-104883322D01*
X125923602Y-104808572D01*
X125801025Y-104707975D01*
X125700428Y-104585398D01*
X125625678Y-104445551D01*
X125579648Y-104293808D01*
X125564105Y-104136000D01*
X125579648Y-103978192D01*
X125625678Y-103826449D01*
X125700428Y-103686602D01*
X125801025Y-103564025D01*
X125923602Y-103463428D01*
X126063449Y-103388678D01*
X126215192Y-103342648D01*
X126333454Y-103331000D01*
X127920546Y-103331000D01*
X128038808Y-103342648D01*
X128038808Y-103342648D01*
G37*
G36*
X107813228Y-102178703D02*
G01*
X107968100Y-102242853D01*
X108107481Y-102335985D01*
X108226015Y-102454519D01*
X108319147Y-102593900D01*
X108383297Y-102748772D01*
X108416000Y-102913184D01*
X108416000Y-103080816D01*
X108383297Y-103245228D01*
X108319147Y-103400100D01*
X108226015Y-103539481D01*
X108107481Y-103658015D01*
X107968100Y-103751147D01*
X107813228Y-103815297D01*
X107648816Y-103848000D01*
X107481184Y-103848000D01*
X107316772Y-103815297D01*
X107161900Y-103751147D01*
X107022519Y-103658015D01*
X106903985Y-103539481D01*
X106810853Y-103400100D01*
X106746703Y-103245228D01*
X106714000Y-103080816D01*
X106714000Y-102913184D01*
X106746703Y-102748772D01*
X106810853Y-102593900D01*
X106903985Y-102454519D01*
X107022519Y-102335985D01*
X107161900Y-102242853D01*
X107316772Y-102178703D01*
X107481184Y-102146000D01*
X107648816Y-102146000D01*
X107813228Y-102178703D01*
X107813228Y-102178703D01*
G37*
G36*
X100943228Y-102178703D02*
G01*
X101098100Y-102242853D01*
X101237481Y-102335985D01*
X101356015Y-102454519D01*
X101449147Y-102593900D01*
X101513297Y-102748772D01*
X101546000Y-102913184D01*
X101546000Y-103080816D01*
X101513297Y-103245228D01*
X101449147Y-103400100D01*
X101356015Y-103539481D01*
X101237481Y-103658015D01*
X101098100Y-103751147D01*
X100943228Y-103815297D01*
X100778816Y-103848000D01*
X100611184Y-103848000D01*
X100446772Y-103815297D01*
X100291900Y-103751147D01*
X100152519Y-103658015D01*
X100033985Y-103539481D01*
X99940853Y-103400100D01*
X99876703Y-103245228D01*
X99844000Y-103080816D01*
X99844000Y-102913184D01*
X99876703Y-102748772D01*
X99940853Y-102593900D01*
X100033985Y-102454519D01*
X100152519Y-102335985D01*
X100291900Y-102242853D01*
X100446772Y-102178703D01*
X100611184Y-102146000D01*
X100778816Y-102146000D01*
X100943228Y-102178703D01*
X100943228Y-102178703D01*
G37*
G36*
X103233228Y-102178703D02*
G01*
X103388100Y-102242853D01*
X103527481Y-102335985D01*
X103646015Y-102454519D01*
X103739147Y-102593900D01*
X103803297Y-102748772D01*
X103836000Y-102913184D01*
X103836000Y-103080816D01*
X103803297Y-103245228D01*
X103739147Y-103400100D01*
X103646015Y-103539481D01*
X103527481Y-103658015D01*
X103388100Y-103751147D01*
X103233228Y-103815297D01*
X103068816Y-103848000D01*
X102901184Y-103848000D01*
X102736772Y-103815297D01*
X102581900Y-103751147D01*
X102442519Y-103658015D01*
X102323985Y-103539481D01*
X102230853Y-103400100D01*
X102166703Y-103245228D01*
X102134000Y-103080816D01*
X102134000Y-102913184D01*
X102166703Y-102748772D01*
X102230853Y-102593900D01*
X102323985Y-102454519D01*
X102442519Y-102335985D01*
X102581900Y-102242853D01*
X102736772Y-102178703D01*
X102901184Y-102146000D01*
X103068816Y-102146000D01*
X103233228Y-102178703D01*
X103233228Y-102178703D01*
G37*
G36*
X105523228Y-102178703D02*
G01*
X105678100Y-102242853D01*
X105817481Y-102335985D01*
X105936015Y-102454519D01*
X106029147Y-102593900D01*
X106093297Y-102748772D01*
X106126000Y-102913184D01*
X106126000Y-103080816D01*
X106093297Y-103245228D01*
X106029147Y-103400100D01*
X105936015Y-103539481D01*
X105817481Y-103658015D01*
X105678100Y-103751147D01*
X105523228Y-103815297D01*
X105358816Y-103848000D01*
X105191184Y-103848000D01*
X105026772Y-103815297D01*
X104871900Y-103751147D01*
X104732519Y-103658015D01*
X104613985Y-103539481D01*
X104520853Y-103400100D01*
X104456703Y-103245228D01*
X104424000Y-103080816D01*
X104424000Y-102913184D01*
X104456703Y-102748772D01*
X104520853Y-102593900D01*
X104613985Y-102454519D01*
X104732519Y-102335985D01*
X104871900Y-102242853D01*
X105026772Y-102178703D01*
X105191184Y-102146000D01*
X105358816Y-102146000D01*
X105523228Y-102178703D01*
X105523228Y-102178703D01*
G37*
G36*
X110103228Y-102178703D02*
G01*
X110258100Y-102242853D01*
X110397481Y-102335985D01*
X110516015Y-102454519D01*
X110609147Y-102593900D01*
X110673297Y-102748772D01*
X110706000Y-102913184D01*
X110706000Y-103080816D01*
X110673297Y-103245228D01*
X110609147Y-103400100D01*
X110516015Y-103539481D01*
X110397481Y-103658015D01*
X110258100Y-103751147D01*
X110103228Y-103815297D01*
X109938816Y-103848000D01*
X109771184Y-103848000D01*
X109606772Y-103815297D01*
X109451900Y-103751147D01*
X109312519Y-103658015D01*
X109193985Y-103539481D01*
X109100853Y-103400100D01*
X109036703Y-103245228D01*
X109004000Y-103080816D01*
X109004000Y-102913184D01*
X109036703Y-102748772D01*
X109100853Y-102593900D01*
X109193985Y-102454519D01*
X109312519Y-102335985D01*
X109451900Y-102242853D01*
X109606772Y-102178703D01*
X109771184Y-102146000D01*
X109938816Y-102146000D01*
X110103228Y-102178703D01*
X110103228Y-102178703D01*
G37*
G36*
X143347000Y-103757000D02*
G01*
X141837000Y-103757000D01*
X141837000Y-102247000D01*
X143347000Y-102247000D01*
X143347000Y-103757000D01*
X143347000Y-103757000D01*
G37*
G36*
X135939293Y-102261507D02*
G01*
X136012225Y-102276014D01*
X136069138Y-102299588D01*
X136149626Y-102332927D01*
X136273284Y-102415553D01*
X136378447Y-102520716D01*
X136461073Y-102644374D01*
X136478065Y-102685398D01*
X136504316Y-102748772D01*
X136517986Y-102781776D01*
X136547000Y-102927638D01*
X136547000Y-103076362D01*
X136517986Y-103222224D01*
X136461073Y-103359626D01*
X136378447Y-103483284D01*
X136273284Y-103588447D01*
X136149626Y-103671073D01*
X136112130Y-103686604D01*
X136012225Y-103727986D01*
X135939293Y-103742493D01*
X135866362Y-103757000D01*
X135717638Y-103757000D01*
X135644707Y-103742493D01*
X135571775Y-103727986D01*
X135471870Y-103686604D01*
X135434374Y-103671073D01*
X135310716Y-103588447D01*
X135205553Y-103483284D01*
X135122927Y-103359626D01*
X135066014Y-103222224D01*
X135037000Y-103076362D01*
X135037000Y-102927638D01*
X135066014Y-102781776D01*
X135079685Y-102748772D01*
X135105935Y-102685398D01*
X135122927Y-102644374D01*
X135205553Y-102520716D01*
X135310716Y-102415553D01*
X135434374Y-102332927D01*
X135514862Y-102299588D01*
X135571775Y-102276014D01*
X135644707Y-102261507D01*
X135717638Y-102247000D01*
X135866362Y-102247000D01*
X135939293Y-102261507D01*
X135939293Y-102261507D01*
G37*
G36*
X126038808Y-101442648D02*
G01*
X126190551Y-101488678D01*
X126330398Y-101563428D01*
X126452975Y-101664025D01*
X126553572Y-101786602D01*
X126628322Y-101926449D01*
X126674352Y-102078192D01*
X126689895Y-102236000D01*
X126674352Y-102393808D01*
X126628322Y-102545551D01*
X126553572Y-102685398D01*
X126452975Y-102807975D01*
X126330398Y-102908572D01*
X126190551Y-102983322D01*
X126038808Y-103029352D01*
X125920546Y-103041000D01*
X124333454Y-103041000D01*
X124215192Y-103029352D01*
X124063449Y-102983322D01*
X123923602Y-102908572D01*
X123801025Y-102807975D01*
X123700428Y-102685398D01*
X123625678Y-102545551D01*
X123579648Y-102393808D01*
X123564105Y-102236000D01*
X123579648Y-102078192D01*
X123625678Y-101926449D01*
X123700428Y-101786602D01*
X123801025Y-101664025D01*
X123923602Y-101563428D01*
X124063449Y-101488678D01*
X124215192Y-101442648D01*
X124333454Y-101431000D01*
X125920546Y-101431000D01*
X126038808Y-101442648D01*
X126038808Y-101442648D01*
G37*
G36*
X118638254Y-98484818D02*
G01*
X119011511Y-98639426D01*
X119011513Y-98639427D01*
X119347436Y-98863884D01*
X119633116Y-99149564D01*
X119827848Y-99441000D01*
X119857574Y-99485489D01*
X120012182Y-99858746D01*
X120091000Y-100254993D01*
X120091000Y-100659007D01*
X120012182Y-101055254D01*
X119869569Y-101399552D01*
X119857573Y-101428513D01*
X119633116Y-101764436D01*
X119347436Y-102050116D01*
X119011513Y-102274573D01*
X119011512Y-102274574D01*
X119011511Y-102274574D01*
X118638254Y-102429182D01*
X118242007Y-102508000D01*
X117837993Y-102508000D01*
X117441746Y-102429182D01*
X117068489Y-102274574D01*
X117068488Y-102274574D01*
X117068487Y-102274573D01*
X116732564Y-102050116D01*
X116446884Y-101764436D01*
X116222427Y-101428513D01*
X116210431Y-101399552D01*
X116067818Y-101055254D01*
X115989000Y-100659007D01*
X115989000Y-100254993D01*
X116067818Y-99858746D01*
X116222426Y-99485489D01*
X116252153Y-99441000D01*
X116446884Y-99149564D01*
X116732564Y-98863884D01*
X117068487Y-98639427D01*
X117068489Y-98639426D01*
X117441746Y-98484818D01*
X117837993Y-98406000D01*
X118242007Y-98406000D01*
X118638254Y-98484818D01*
X118638254Y-98484818D01*
G37*
G36*
X93638254Y-98484818D02*
G01*
X94011511Y-98639426D01*
X94011513Y-98639427D01*
X94347436Y-98863884D01*
X94633116Y-99149564D01*
X94827848Y-99441000D01*
X94857574Y-99485489D01*
X95012182Y-99858746D01*
X95091000Y-100254993D01*
X95091000Y-100659007D01*
X95012182Y-101055254D01*
X94869569Y-101399552D01*
X94857573Y-101428513D01*
X94633116Y-101764436D01*
X94347436Y-102050116D01*
X94011513Y-102274573D01*
X94011512Y-102274574D01*
X94011511Y-102274574D01*
X93638254Y-102429182D01*
X93242007Y-102508000D01*
X92837993Y-102508000D01*
X92441746Y-102429182D01*
X92068489Y-102274574D01*
X92068488Y-102274574D01*
X92068487Y-102274573D01*
X91732564Y-102050116D01*
X91446884Y-101764436D01*
X91222427Y-101428513D01*
X91210431Y-101399552D01*
X91067818Y-101055254D01*
X90989000Y-100659007D01*
X90989000Y-100254993D01*
X91067818Y-99858746D01*
X91222426Y-99485489D01*
X91252153Y-99441000D01*
X91446884Y-99149564D01*
X91732564Y-98863884D01*
X92068487Y-98639427D01*
X92068489Y-98639426D01*
X92441746Y-98484818D01*
X92837993Y-98406000D01*
X93242007Y-98406000D01*
X93638254Y-98484818D01*
X93638254Y-98484818D01*
G37*
G36*
X122834808Y-98788648D02*
G01*
X122986551Y-98834678D01*
X123126398Y-98909428D01*
X123248975Y-99010025D01*
X123349572Y-99132602D01*
X123424322Y-99272449D01*
X123470352Y-99424192D01*
X123482000Y-99542454D01*
X123482000Y-101129546D01*
X123470352Y-101247808D01*
X123424322Y-101399551D01*
X123349572Y-101539398D01*
X123248975Y-101661975D01*
X123126397Y-101762572D01*
X122986550Y-101837322D01*
X122834807Y-101883352D01*
X122677000Y-101898895D01*
X122519192Y-101883352D01*
X122367449Y-101837322D01*
X122227602Y-101762572D01*
X122105025Y-101661975D01*
X122004428Y-101539397D01*
X121929678Y-101399550D01*
X121883648Y-101247807D01*
X121872000Y-101129545D01*
X121872001Y-99542454D01*
X121883649Y-99424192D01*
X121929679Y-99272449D01*
X122004429Y-99132602D01*
X122105026Y-99010025D01*
X122227603Y-98909428D01*
X122367450Y-98834678D01*
X122519193Y-98788648D01*
X122677000Y-98773105D01*
X122834808Y-98788648D01*
X122834808Y-98788648D01*
G37*
G36*
X131434808Y-98788648D02*
G01*
X131586551Y-98834678D01*
X131726398Y-98909428D01*
X131848975Y-99010025D01*
X131949572Y-99132602D01*
X132024322Y-99272449D01*
X132070352Y-99424192D01*
X132082000Y-99542454D01*
X132082000Y-101129546D01*
X132070352Y-101247808D01*
X132024322Y-101399551D01*
X131949572Y-101539398D01*
X131848975Y-101661975D01*
X131726397Y-101762572D01*
X131586550Y-101837322D01*
X131434807Y-101883352D01*
X131277000Y-101898895D01*
X131119192Y-101883352D01*
X130967449Y-101837322D01*
X130827602Y-101762572D01*
X130705025Y-101661975D01*
X130604428Y-101539397D01*
X130529678Y-101399550D01*
X130483648Y-101247807D01*
X130472000Y-101129545D01*
X130472001Y-99542454D01*
X130483649Y-99424192D01*
X130529679Y-99272449D01*
X130604429Y-99132602D01*
X130705026Y-99010025D01*
X130827603Y-98909428D01*
X130967450Y-98834678D01*
X131119193Y-98788648D01*
X131277000Y-98773105D01*
X131434808Y-98788648D01*
X131434808Y-98788648D01*
G37*
G36*
X150929531Y-97224207D02*
G01*
X151127645Y-97284305D01*
X151127648Y-97284306D01*
X151193530Y-97319521D01*
X151310229Y-97381897D01*
X151470265Y-97513235D01*
X151601603Y-97673271D01*
X151601604Y-97673273D01*
X151699194Y-97855851D01*
X151699194Y-97855852D01*
X151699195Y-97855854D01*
X151759293Y-98053968D01*
X151774500Y-98208370D01*
X151774500Y-100311630D01*
X151759293Y-100466032D01*
X151725824Y-100576362D01*
X151699194Y-100664149D01*
X151649446Y-100757221D01*
X151601603Y-100846729D01*
X151470265Y-101006765D01*
X151310229Y-101138103D01*
X151248548Y-101171072D01*
X151127649Y-101235694D01*
X151127646Y-101235695D01*
X150929532Y-101295793D01*
X150723500Y-101316085D01*
X150517469Y-101295793D01*
X150319355Y-101235695D01*
X150319352Y-101235694D01*
X150198453Y-101171072D01*
X150136772Y-101138103D01*
X149976736Y-101006765D01*
X149845398Y-100846729D01*
X149797555Y-100757221D01*
X149747807Y-100664149D01*
X149721177Y-100576362D01*
X149687708Y-100466032D01*
X149672501Y-100311630D01*
X149672500Y-98208371D01*
X149687707Y-98053969D01*
X149747805Y-97855855D01*
X149747806Y-97855852D01*
X149783021Y-97789970D01*
X149845397Y-97673271D01*
X149976735Y-97513235D01*
X150136771Y-97381897D01*
X150222525Y-97336061D01*
X150319351Y-97284306D01*
X150319354Y-97284305D01*
X150517468Y-97224207D01*
X150723500Y-97203915D01*
X150929531Y-97224207D01*
X150929531Y-97224207D01*
G37*
G36*
X186429531Y-97224207D02*
G01*
X186627645Y-97284305D01*
X186627648Y-97284306D01*
X186693530Y-97319521D01*
X186810229Y-97381897D01*
X186970265Y-97513235D01*
X187101603Y-97673271D01*
X187101604Y-97673273D01*
X187199194Y-97855851D01*
X187199194Y-97855852D01*
X187199195Y-97855854D01*
X187259293Y-98053968D01*
X187274500Y-98208370D01*
X187274500Y-100311630D01*
X187259293Y-100466032D01*
X187225824Y-100576362D01*
X187199194Y-100664149D01*
X187149446Y-100757221D01*
X187101603Y-100846729D01*
X186970265Y-101006765D01*
X186810229Y-101138103D01*
X186748548Y-101171072D01*
X186627649Y-101235694D01*
X186627646Y-101235695D01*
X186429532Y-101295793D01*
X186223500Y-101316085D01*
X186017469Y-101295793D01*
X185819355Y-101235695D01*
X185819352Y-101235694D01*
X185698453Y-101171072D01*
X185636772Y-101138103D01*
X185476736Y-101006765D01*
X185345398Y-100846729D01*
X185297555Y-100757221D01*
X185247807Y-100664149D01*
X185221177Y-100576362D01*
X185187708Y-100466032D01*
X185172501Y-100311630D01*
X185172500Y-98208371D01*
X185187707Y-98053969D01*
X185247805Y-97855855D01*
X185247806Y-97855852D01*
X185283021Y-97789970D01*
X185345397Y-97673271D01*
X185476735Y-97513235D01*
X185636771Y-97381897D01*
X185722525Y-97336061D01*
X185819351Y-97284306D01*
X185819354Y-97284305D01*
X186017468Y-97224207D01*
X186223500Y-97203915D01*
X186429531Y-97224207D01*
X186429531Y-97224207D01*
G37*
G36*
X178929531Y-97224207D02*
G01*
X179127645Y-97284305D01*
X179127648Y-97284306D01*
X179193530Y-97319521D01*
X179310229Y-97381897D01*
X179470265Y-97513235D01*
X179601603Y-97673271D01*
X179601604Y-97673273D01*
X179699194Y-97855851D01*
X179699194Y-97855852D01*
X179699195Y-97855854D01*
X179759293Y-98053968D01*
X179774500Y-98208370D01*
X179774500Y-100311630D01*
X179759293Y-100466032D01*
X179725824Y-100576362D01*
X179699194Y-100664149D01*
X179649446Y-100757221D01*
X179601603Y-100846729D01*
X179470265Y-101006765D01*
X179310229Y-101138103D01*
X179248548Y-101171072D01*
X179127649Y-101235694D01*
X179127646Y-101235695D01*
X178929532Y-101295793D01*
X178723500Y-101316085D01*
X178517469Y-101295793D01*
X178319355Y-101235695D01*
X178319352Y-101235694D01*
X178198453Y-101171072D01*
X178136772Y-101138103D01*
X177976736Y-101006765D01*
X177845398Y-100846729D01*
X177797555Y-100757221D01*
X177747807Y-100664149D01*
X177721177Y-100576362D01*
X177687708Y-100466032D01*
X177672501Y-100311630D01*
X177672500Y-98208371D01*
X177687707Y-98053969D01*
X177747805Y-97855855D01*
X177747806Y-97855852D01*
X177783021Y-97789970D01*
X177845397Y-97673271D01*
X177976735Y-97513235D01*
X178136771Y-97381897D01*
X178222525Y-97336061D01*
X178319351Y-97284306D01*
X178319354Y-97284305D01*
X178517468Y-97224207D01*
X178723500Y-97203915D01*
X178929531Y-97224207D01*
X178929531Y-97224207D01*
G37*
G36*
X158429531Y-97224207D02*
G01*
X158627645Y-97284305D01*
X158627648Y-97284306D01*
X158693530Y-97319521D01*
X158810229Y-97381897D01*
X158970265Y-97513235D01*
X159101603Y-97673271D01*
X159101604Y-97673273D01*
X159199194Y-97855851D01*
X159199194Y-97855852D01*
X159199195Y-97855854D01*
X159259293Y-98053968D01*
X159274500Y-98208370D01*
X159274500Y-100311630D01*
X159259293Y-100466032D01*
X159225824Y-100576362D01*
X159199194Y-100664149D01*
X159149446Y-100757221D01*
X159101603Y-100846729D01*
X158970265Y-101006765D01*
X158810229Y-101138103D01*
X158748548Y-101171072D01*
X158627649Y-101235694D01*
X158627646Y-101235695D01*
X158429532Y-101295793D01*
X158223500Y-101316085D01*
X158017469Y-101295793D01*
X157819355Y-101235695D01*
X157819352Y-101235694D01*
X157698453Y-101171072D01*
X157636772Y-101138103D01*
X157476736Y-101006765D01*
X157345398Y-100846729D01*
X157297555Y-100757221D01*
X157247807Y-100664149D01*
X157221177Y-100576362D01*
X157187708Y-100466032D01*
X157172501Y-100311630D01*
X157172500Y-98208371D01*
X157187707Y-98053969D01*
X157247805Y-97855855D01*
X157247806Y-97855852D01*
X157283021Y-97789970D01*
X157345397Y-97673271D01*
X157476735Y-97513235D01*
X157636771Y-97381897D01*
X157722525Y-97336061D01*
X157819351Y-97284306D01*
X157819354Y-97284305D01*
X158017468Y-97224207D01*
X158223500Y-97203915D01*
X158429531Y-97224207D01*
X158429531Y-97224207D01*
G37*
G36*
X164929531Y-97224207D02*
G01*
X165127645Y-97284305D01*
X165127648Y-97284306D01*
X165193530Y-97319521D01*
X165310229Y-97381897D01*
X165470265Y-97513235D01*
X165601603Y-97673271D01*
X165601604Y-97673273D01*
X165699194Y-97855851D01*
X165699194Y-97855852D01*
X165699195Y-97855854D01*
X165759293Y-98053968D01*
X165774500Y-98208370D01*
X165774500Y-100311630D01*
X165759293Y-100466032D01*
X165725824Y-100576362D01*
X165699194Y-100664149D01*
X165649446Y-100757221D01*
X165601603Y-100846729D01*
X165470265Y-101006765D01*
X165310229Y-101138103D01*
X165248548Y-101171072D01*
X165127649Y-101235694D01*
X165127646Y-101235695D01*
X164929532Y-101295793D01*
X164723500Y-101316085D01*
X164517469Y-101295793D01*
X164319355Y-101235695D01*
X164319352Y-101235694D01*
X164198453Y-101171072D01*
X164136772Y-101138103D01*
X163976736Y-101006765D01*
X163845398Y-100846729D01*
X163797555Y-100757221D01*
X163747807Y-100664149D01*
X163721177Y-100576362D01*
X163687708Y-100466032D01*
X163672501Y-100311630D01*
X163672500Y-98208371D01*
X163687707Y-98053969D01*
X163747805Y-97855855D01*
X163747806Y-97855852D01*
X163783021Y-97789970D01*
X163845397Y-97673271D01*
X163976735Y-97513235D01*
X164136771Y-97381897D01*
X164222525Y-97336061D01*
X164319351Y-97284306D01*
X164319354Y-97284305D01*
X164517468Y-97224207D01*
X164723500Y-97203915D01*
X164929531Y-97224207D01*
X164929531Y-97224207D01*
G37*
G36*
X172429531Y-97224207D02*
G01*
X172627645Y-97284305D01*
X172627648Y-97284306D01*
X172693530Y-97319521D01*
X172810229Y-97381897D01*
X172970265Y-97513235D01*
X173101603Y-97673271D01*
X173101604Y-97673273D01*
X173199194Y-97855851D01*
X173199194Y-97855852D01*
X173199195Y-97855854D01*
X173259293Y-98053968D01*
X173274500Y-98208370D01*
X173274500Y-100311630D01*
X173259293Y-100466032D01*
X173225824Y-100576362D01*
X173199194Y-100664149D01*
X173149446Y-100757221D01*
X173101603Y-100846729D01*
X172970265Y-101006765D01*
X172810229Y-101138103D01*
X172748548Y-101171072D01*
X172627649Y-101235694D01*
X172627646Y-101235695D01*
X172429532Y-101295793D01*
X172223500Y-101316085D01*
X172017469Y-101295793D01*
X171819355Y-101235695D01*
X171819352Y-101235694D01*
X171698453Y-101171072D01*
X171636772Y-101138103D01*
X171476736Y-101006765D01*
X171345398Y-100846729D01*
X171297555Y-100757221D01*
X171247807Y-100664149D01*
X171221177Y-100576362D01*
X171187708Y-100466032D01*
X171172501Y-100311630D01*
X171172500Y-98208371D01*
X171187707Y-98053969D01*
X171247805Y-97855855D01*
X171247806Y-97855852D01*
X171283021Y-97789970D01*
X171345397Y-97673271D01*
X171476735Y-97513235D01*
X171636771Y-97381897D01*
X171722525Y-97336061D01*
X171819351Y-97284306D01*
X171819354Y-97284305D01*
X172017468Y-97224207D01*
X172223500Y-97203915D01*
X172429531Y-97224207D01*
X172429531Y-97224207D01*
G37*
G36*
X102088228Y-99638703D02*
G01*
X102243100Y-99702853D01*
X102382481Y-99795985D01*
X102501015Y-99914519D01*
X102594147Y-100053900D01*
X102658297Y-100208772D01*
X102691000Y-100373184D01*
X102691000Y-100540816D01*
X102658297Y-100705228D01*
X102594147Y-100860100D01*
X102501015Y-100999481D01*
X102382481Y-101118015D01*
X102243100Y-101211147D01*
X102088228Y-101275297D01*
X101923816Y-101308000D01*
X101756184Y-101308000D01*
X101591772Y-101275297D01*
X101436900Y-101211147D01*
X101297519Y-101118015D01*
X101178985Y-100999481D01*
X101085853Y-100860100D01*
X101021703Y-100705228D01*
X100989000Y-100540816D01*
X100989000Y-100373184D01*
X101021703Y-100208772D01*
X101085853Y-100053900D01*
X101178985Y-99914519D01*
X101297519Y-99795985D01*
X101436900Y-99702853D01*
X101591772Y-99638703D01*
X101756184Y-99606000D01*
X101923816Y-99606000D01*
X102088228Y-99638703D01*
X102088228Y-99638703D01*
G37*
G36*
X111248228Y-99638703D02*
G01*
X111403100Y-99702853D01*
X111542481Y-99795985D01*
X111661015Y-99914519D01*
X111754147Y-100053900D01*
X111818297Y-100208772D01*
X111851000Y-100373184D01*
X111851000Y-100540816D01*
X111818297Y-100705228D01*
X111754147Y-100860100D01*
X111661015Y-100999481D01*
X111542481Y-101118015D01*
X111403100Y-101211147D01*
X111248228Y-101275297D01*
X111083816Y-101308000D01*
X110916184Y-101308000D01*
X110751772Y-101275297D01*
X110596900Y-101211147D01*
X110457519Y-101118015D01*
X110338985Y-100999481D01*
X110245853Y-100860100D01*
X110181703Y-100705228D01*
X110149000Y-100540816D01*
X110149000Y-100373184D01*
X110181703Y-100208772D01*
X110245853Y-100053900D01*
X110338985Y-99914519D01*
X110457519Y-99795985D01*
X110596900Y-99702853D01*
X110751772Y-99638703D01*
X110916184Y-99606000D01*
X111083816Y-99606000D01*
X111248228Y-99638703D01*
X111248228Y-99638703D01*
G37*
G36*
X104378228Y-99638703D02*
G01*
X104533100Y-99702853D01*
X104672481Y-99795985D01*
X104791015Y-99914519D01*
X104884147Y-100053900D01*
X104948297Y-100208772D01*
X104981000Y-100373184D01*
X104981000Y-100540816D01*
X104948297Y-100705228D01*
X104884147Y-100860100D01*
X104791015Y-100999481D01*
X104672481Y-101118015D01*
X104533100Y-101211147D01*
X104378228Y-101275297D01*
X104213816Y-101308000D01*
X104046184Y-101308000D01*
X103881772Y-101275297D01*
X103726900Y-101211147D01*
X103587519Y-101118015D01*
X103468985Y-100999481D01*
X103375853Y-100860100D01*
X103311703Y-100705228D01*
X103279000Y-100540816D01*
X103279000Y-100373184D01*
X103311703Y-100208772D01*
X103375853Y-100053900D01*
X103468985Y-99914519D01*
X103587519Y-99795985D01*
X103726900Y-99702853D01*
X103881772Y-99638703D01*
X104046184Y-99606000D01*
X104213816Y-99606000D01*
X104378228Y-99638703D01*
X104378228Y-99638703D01*
G37*
G36*
X106668228Y-99638703D02*
G01*
X106823100Y-99702853D01*
X106962481Y-99795985D01*
X107081015Y-99914519D01*
X107174147Y-100053900D01*
X107238297Y-100208772D01*
X107271000Y-100373184D01*
X107271000Y-100540816D01*
X107238297Y-100705228D01*
X107174147Y-100860100D01*
X107081015Y-100999481D01*
X106962481Y-101118015D01*
X106823100Y-101211147D01*
X106668228Y-101275297D01*
X106503816Y-101308000D01*
X106336184Y-101308000D01*
X106171772Y-101275297D01*
X106016900Y-101211147D01*
X105877519Y-101118015D01*
X105758985Y-100999481D01*
X105665853Y-100860100D01*
X105601703Y-100705228D01*
X105569000Y-100540816D01*
X105569000Y-100373184D01*
X105601703Y-100208772D01*
X105665853Y-100053900D01*
X105758985Y-99914519D01*
X105877519Y-99795985D01*
X106016900Y-99702853D01*
X106171772Y-99638703D01*
X106336184Y-99606000D01*
X106503816Y-99606000D01*
X106668228Y-99638703D01*
X106668228Y-99638703D01*
G37*
G36*
X108958228Y-99638703D02*
G01*
X109113100Y-99702853D01*
X109252481Y-99795985D01*
X109371015Y-99914519D01*
X109464147Y-100053900D01*
X109528297Y-100208772D01*
X109561000Y-100373184D01*
X109561000Y-100540816D01*
X109528297Y-100705228D01*
X109464147Y-100860100D01*
X109371015Y-100999481D01*
X109252481Y-101118015D01*
X109113100Y-101211147D01*
X108958228Y-101275297D01*
X108793816Y-101308000D01*
X108626184Y-101308000D01*
X108461772Y-101275297D01*
X108306900Y-101211147D01*
X108167519Y-101118015D01*
X108048985Y-100999481D01*
X107955853Y-100860100D01*
X107891703Y-100705228D01*
X107859000Y-100540816D01*
X107859000Y-100373184D01*
X107891703Y-100208772D01*
X107955853Y-100053900D01*
X108048985Y-99914519D01*
X108167519Y-99795985D01*
X108306900Y-99702853D01*
X108461772Y-99638703D01*
X108626184Y-99606000D01*
X108793816Y-99606000D01*
X108958228Y-99638703D01*
X108958228Y-99638703D01*
G37*
G36*
X142739293Y-99761507D02*
G01*
X142812225Y-99776014D01*
X142860439Y-99795985D01*
X142949626Y-99832927D01*
X143073284Y-99915553D01*
X143178447Y-100020716D01*
X143261073Y-100144374D01*
X143317986Y-100281776D01*
X143347000Y-100427638D01*
X143347000Y-100576362D01*
X143317986Y-100722224D01*
X143261073Y-100859626D01*
X143178447Y-100983284D01*
X143073284Y-101088447D01*
X142949626Y-101171073D01*
X142869138Y-101204412D01*
X142812225Y-101227986D01*
X142773474Y-101235694D01*
X142666362Y-101257000D01*
X142517638Y-101257000D01*
X142410526Y-101235694D01*
X142371775Y-101227986D01*
X142314862Y-101204412D01*
X142234374Y-101171073D01*
X142110716Y-101088447D01*
X142005553Y-100983284D01*
X141922927Y-100859626D01*
X141866014Y-100722224D01*
X141837000Y-100576362D01*
X141837000Y-100427638D01*
X141866014Y-100281776D01*
X141922927Y-100144374D01*
X142005553Y-100020716D01*
X142110716Y-99915553D01*
X142234374Y-99832927D01*
X142323561Y-99795985D01*
X142371775Y-99776014D01*
X142444707Y-99761507D01*
X142517638Y-99747000D01*
X142666362Y-99747000D01*
X142739293Y-99761507D01*
X142739293Y-99761507D01*
G37*
G36*
X135939293Y-99761507D02*
G01*
X136012225Y-99776014D01*
X136060439Y-99795985D01*
X136149626Y-99832927D01*
X136273284Y-99915553D01*
X136378447Y-100020716D01*
X136461073Y-100144374D01*
X136517986Y-100281776D01*
X136547000Y-100427638D01*
X136547000Y-100576362D01*
X136517986Y-100722224D01*
X136461073Y-100859626D01*
X136378447Y-100983284D01*
X136273284Y-101088447D01*
X136149626Y-101171073D01*
X136069138Y-101204412D01*
X136012225Y-101227986D01*
X135973474Y-101235694D01*
X135866362Y-101257000D01*
X135717638Y-101257000D01*
X135610526Y-101235694D01*
X135571775Y-101227986D01*
X135514862Y-101204412D01*
X135434374Y-101171073D01*
X135310716Y-101088447D01*
X135205553Y-100983284D01*
X135122927Y-100859626D01*
X135066014Y-100722224D01*
X135037000Y-100576362D01*
X135037000Y-100427638D01*
X135066014Y-100281776D01*
X135122927Y-100144374D01*
X135205553Y-100020716D01*
X135310716Y-99915553D01*
X135434374Y-99832927D01*
X135523561Y-99795985D01*
X135571775Y-99776014D01*
X135644707Y-99761507D01*
X135717638Y-99747000D01*
X135866362Y-99747000D01*
X135939293Y-99761507D01*
X135939293Y-99761507D01*
G37*
G36*
X128038808Y-97842648D02*
G01*
X128190551Y-97888678D01*
X128330398Y-97963428D01*
X128452975Y-98064025D01*
X128553572Y-98186602D01*
X128628322Y-98326449D01*
X128674352Y-98478192D01*
X128689895Y-98636000D01*
X128674352Y-98793808D01*
X128628322Y-98945551D01*
X128553572Y-99085398D01*
X128452975Y-99207975D01*
X128330398Y-99308572D01*
X128190551Y-99383322D01*
X128038808Y-99429352D01*
X127920546Y-99441000D01*
X126333454Y-99441000D01*
X126215192Y-99429352D01*
X126063449Y-99383322D01*
X125923602Y-99308572D01*
X125801025Y-99207975D01*
X125700428Y-99085398D01*
X125625678Y-98945551D01*
X125579648Y-98793808D01*
X125564105Y-98636000D01*
X125579648Y-98478192D01*
X125625678Y-98326449D01*
X125700428Y-98186602D01*
X125801025Y-98064025D01*
X125923602Y-97963428D01*
X126063449Y-97888678D01*
X126215192Y-97842648D01*
X126333454Y-97831000D01*
X127920546Y-97831000D01*
X128038808Y-97842648D01*
X128038808Y-97842648D01*
G37*
G36*
X107813228Y-97098703D02*
G01*
X107968100Y-97162853D01*
X108107481Y-97255985D01*
X108226015Y-97374519D01*
X108319147Y-97513900D01*
X108383297Y-97668772D01*
X108416000Y-97833184D01*
X108416000Y-98000816D01*
X108383297Y-98165228D01*
X108319147Y-98320100D01*
X108226015Y-98459481D01*
X108107481Y-98578015D01*
X107968100Y-98671147D01*
X107813228Y-98735297D01*
X107648816Y-98768000D01*
X107481184Y-98768000D01*
X107316772Y-98735297D01*
X107161900Y-98671147D01*
X107022519Y-98578015D01*
X106903985Y-98459481D01*
X106810853Y-98320100D01*
X106746703Y-98165228D01*
X106714000Y-98000816D01*
X106714000Y-97833184D01*
X106746703Y-97668772D01*
X106810853Y-97513900D01*
X106903985Y-97374519D01*
X107022519Y-97255985D01*
X107161900Y-97162853D01*
X107316772Y-97098703D01*
X107481184Y-97066000D01*
X107648816Y-97066000D01*
X107813228Y-97098703D01*
X107813228Y-97098703D01*
G37*
G36*
X105523228Y-97098703D02*
G01*
X105678100Y-97162853D01*
X105817481Y-97255985D01*
X105936015Y-97374519D01*
X106029147Y-97513900D01*
X106093297Y-97668772D01*
X106126000Y-97833184D01*
X106126000Y-98000816D01*
X106093297Y-98165228D01*
X106029147Y-98320100D01*
X105936015Y-98459481D01*
X105817481Y-98578015D01*
X105678100Y-98671147D01*
X105523228Y-98735297D01*
X105358816Y-98768000D01*
X105191184Y-98768000D01*
X105026772Y-98735297D01*
X104871900Y-98671147D01*
X104732519Y-98578015D01*
X104613985Y-98459481D01*
X104520853Y-98320100D01*
X104456703Y-98165228D01*
X104424000Y-98000816D01*
X104424000Y-97833184D01*
X104456703Y-97668772D01*
X104520853Y-97513900D01*
X104613985Y-97374519D01*
X104732519Y-97255985D01*
X104871900Y-97162853D01*
X105026772Y-97098703D01*
X105191184Y-97066000D01*
X105358816Y-97066000D01*
X105523228Y-97098703D01*
X105523228Y-97098703D01*
G37*
G36*
X103233228Y-97098703D02*
G01*
X103388100Y-97162853D01*
X103527481Y-97255985D01*
X103646015Y-97374519D01*
X103739147Y-97513900D01*
X103803297Y-97668772D01*
X103836000Y-97833184D01*
X103836000Y-98000816D01*
X103803297Y-98165228D01*
X103739147Y-98320100D01*
X103646015Y-98459481D01*
X103527481Y-98578015D01*
X103388100Y-98671147D01*
X103233228Y-98735297D01*
X103068816Y-98768000D01*
X102901184Y-98768000D01*
X102736772Y-98735297D01*
X102581900Y-98671147D01*
X102442519Y-98578015D01*
X102323985Y-98459481D01*
X102230853Y-98320100D01*
X102166703Y-98165228D01*
X102134000Y-98000816D01*
X102134000Y-97833184D01*
X102166703Y-97668772D01*
X102230853Y-97513900D01*
X102323985Y-97374519D01*
X102442519Y-97255985D01*
X102581900Y-97162853D01*
X102736772Y-97098703D01*
X102901184Y-97066000D01*
X103068816Y-97066000D01*
X103233228Y-97098703D01*
X103233228Y-97098703D01*
G37*
G36*
X100943228Y-97098703D02*
G01*
X101098100Y-97162853D01*
X101237481Y-97255985D01*
X101356015Y-97374519D01*
X101449147Y-97513900D01*
X101513297Y-97668772D01*
X101546000Y-97833184D01*
X101546000Y-98000816D01*
X101513297Y-98165228D01*
X101449147Y-98320100D01*
X101356015Y-98459481D01*
X101237481Y-98578015D01*
X101098100Y-98671147D01*
X100943228Y-98735297D01*
X100778816Y-98768000D01*
X100611184Y-98768000D01*
X100446772Y-98735297D01*
X100291900Y-98671147D01*
X100152519Y-98578015D01*
X100033985Y-98459481D01*
X99940853Y-98320100D01*
X99876703Y-98165228D01*
X99844000Y-98000816D01*
X99844000Y-97833184D01*
X99876703Y-97668772D01*
X99940853Y-97513900D01*
X100033985Y-97374519D01*
X100152519Y-97255985D01*
X100291900Y-97162853D01*
X100446772Y-97098703D01*
X100611184Y-97066000D01*
X100778816Y-97066000D01*
X100943228Y-97098703D01*
X100943228Y-97098703D01*
G37*
G36*
X110706000Y-98768000D02*
G01*
X109004000Y-98768000D01*
X109004000Y-97066000D01*
X110706000Y-97066000D01*
X110706000Y-98768000D01*
X110706000Y-98768000D01*
G37*
G36*
X92087860Y-93404388D02*
G01*
X92106802Y-93419934D01*
X92128413Y-93431485D01*
X92151862Y-93438598D01*
X92176248Y-93441000D01*
X92178516Y-93441000D01*
X92381564Y-93481389D01*
X92572833Y-93560615D01*
X92572835Y-93560616D01*
X92744973Y-93675635D01*
X92891365Y-93822027D01*
X93006385Y-93994167D01*
X93085611Y-94185436D01*
X93126000Y-94388484D01*
X93126000Y-94595516D01*
X93085611Y-94798564D01*
X93006385Y-94989833D01*
X93006384Y-94989835D01*
X92891365Y-95161973D01*
X92744973Y-95308365D01*
X92572835Y-95423384D01*
X92572834Y-95423385D01*
X92572833Y-95423385D01*
X92381564Y-95502611D01*
X92178516Y-95543000D01*
X91971484Y-95543000D01*
X91768436Y-95502611D01*
X91577167Y-95423385D01*
X91577166Y-95423385D01*
X91577165Y-95423384D01*
X91405027Y-95308365D01*
X91258635Y-95161973D01*
X91143616Y-94989835D01*
X91143615Y-94989833D01*
X91064389Y-94798564D01*
X91024000Y-94595516D01*
X91024000Y-94388484D01*
X91064389Y-94185436D01*
X91143615Y-93994167D01*
X91258635Y-93822027D01*
X91405027Y-93675635D01*
X91577165Y-93560616D01*
X91577167Y-93560615D01*
X91768436Y-93481389D01*
X91971484Y-93441000D01*
X91973752Y-93441000D01*
X91998138Y-93438598D01*
X92021587Y-93431485D01*
X92043198Y-93419934D01*
X92062140Y-93404389D01*
X92075000Y-93388718D01*
X92087860Y-93404388D01*
X92087860Y-93404388D01*
G37*
G36*
X187807860Y-93404388D02*
G01*
X187826802Y-93419934D01*
X187848413Y-93431485D01*
X187871862Y-93438598D01*
X187896248Y-93441000D01*
X187898516Y-93441000D01*
X188101564Y-93481389D01*
X188292833Y-93560615D01*
X188292835Y-93560616D01*
X188464973Y-93675635D01*
X188611365Y-93822027D01*
X188726385Y-93994167D01*
X188805611Y-94185436D01*
X188846000Y-94388484D01*
X188846000Y-94595516D01*
X188805611Y-94798564D01*
X188726385Y-94989833D01*
X188726384Y-94989835D01*
X188611365Y-95161973D01*
X188464973Y-95308365D01*
X188292835Y-95423384D01*
X188292834Y-95423385D01*
X188292833Y-95423385D01*
X188101564Y-95502611D01*
X187898516Y-95543000D01*
X187691484Y-95543000D01*
X187488436Y-95502611D01*
X187297167Y-95423385D01*
X187297166Y-95423385D01*
X187297165Y-95423384D01*
X187125027Y-95308365D01*
X186978635Y-95161973D01*
X186863616Y-94989835D01*
X186863615Y-94989833D01*
X186784389Y-94798564D01*
X186744000Y-94595516D01*
X186744000Y-94388484D01*
X186784389Y-94185436D01*
X186863615Y-93994167D01*
X186978635Y-93822027D01*
X187125027Y-93675635D01*
X187297165Y-93560616D01*
X187297167Y-93560615D01*
X187488436Y-93481389D01*
X187691484Y-93441000D01*
X187693752Y-93441000D01*
X187718138Y-93438598D01*
X187741587Y-93431485D01*
X187763198Y-93419934D01*
X187782140Y-93404389D01*
X187795000Y-93388718D01*
X187807860Y-93404388D01*
X187807860Y-93404388D01*
G37*
G36*
X162554256Y-90720298D02*
G01*
X162660579Y-90741447D01*
X162961042Y-90865903D01*
X163231451Y-91046585D01*
X163461415Y-91276549D01*
X163642097Y-91546958D01*
X163711306Y-91714042D01*
X163766553Y-91847422D01*
X163828403Y-92158358D01*
X163830000Y-92166391D01*
X163830000Y-92491609D01*
X163766553Y-92810579D01*
X163728433Y-92902608D01*
X163645910Y-93101838D01*
X163642097Y-93111042D01*
X163461415Y-93381451D01*
X163231451Y-93611415D01*
X162961042Y-93792097D01*
X162660579Y-93916553D01*
X162554256Y-93937702D01*
X162341611Y-93980000D01*
X162016389Y-93980000D01*
X161803744Y-93937702D01*
X161697421Y-93916553D01*
X161396958Y-93792097D01*
X161126549Y-93611415D01*
X160896585Y-93381451D01*
X160715903Y-93111042D01*
X160712091Y-93101838D01*
X160629567Y-92902608D01*
X160591447Y-92810579D01*
X160528000Y-92491609D01*
X160528000Y-92166391D01*
X160529598Y-92158358D01*
X160591447Y-91847422D01*
X160646695Y-91714042D01*
X160715903Y-91546958D01*
X160896585Y-91276549D01*
X161126549Y-91046585D01*
X161396958Y-90865903D01*
X161697421Y-90741447D01*
X161803744Y-90720298D01*
X162016389Y-90678000D01*
X162341611Y-90678000D01*
X162554256Y-90720298D01*
X162554256Y-90720298D01*
G37*
G36*
X188028642Y-91621781D02*
G01*
X188174414Y-91682162D01*
X188174416Y-91682163D01*
X188305608Y-91769822D01*
X188417178Y-91881392D01*
X188486038Y-91984449D01*
X188504838Y-92012586D01*
X188565219Y-92158358D01*
X188596000Y-92313107D01*
X188596000Y-92470893D01*
X188565219Y-92625642D01*
X188504838Y-92771414D01*
X188504837Y-92771416D01*
X188417178Y-92902608D01*
X188305608Y-93014178D01*
X188174416Y-93101837D01*
X188174415Y-93101838D01*
X188174414Y-93101838D01*
X188028642Y-93162219D01*
X187871862Y-93193404D01*
X187848413Y-93200517D01*
X187826803Y-93212068D01*
X187807861Y-93227613D01*
X187795000Y-93243283D01*
X187782140Y-93227613D01*
X187763198Y-93212068D01*
X187741587Y-93200517D01*
X187718138Y-93193404D01*
X187561358Y-93162219D01*
X187415586Y-93101838D01*
X187415585Y-93101838D01*
X187415584Y-93101837D01*
X187284392Y-93014178D01*
X187172822Y-92902608D01*
X187085163Y-92771416D01*
X187085162Y-92771414D01*
X187024781Y-92625642D01*
X186994000Y-92470893D01*
X186994000Y-92313107D01*
X187024781Y-92158358D01*
X187085162Y-92012586D01*
X187103962Y-91984449D01*
X187172822Y-91881392D01*
X187284392Y-91769822D01*
X187415584Y-91682163D01*
X187415586Y-91682162D01*
X187561358Y-91621781D01*
X187716107Y-91591000D01*
X187873893Y-91591000D01*
X188028642Y-91621781D01*
X188028642Y-91621781D01*
G37*
G36*
X92308642Y-91621781D02*
G01*
X92454414Y-91682162D01*
X92454416Y-91682163D01*
X92585608Y-91769822D01*
X92697178Y-91881392D01*
X92766038Y-91984449D01*
X92784838Y-92012586D01*
X92845219Y-92158358D01*
X92876000Y-92313107D01*
X92876000Y-92470893D01*
X92845219Y-92625642D01*
X92784838Y-92771414D01*
X92784837Y-92771416D01*
X92697178Y-92902608D01*
X92585608Y-93014178D01*
X92454416Y-93101837D01*
X92454415Y-93101838D01*
X92454414Y-93101838D01*
X92308642Y-93162219D01*
X92151862Y-93193404D01*
X92128413Y-93200517D01*
X92106803Y-93212068D01*
X92087861Y-93227613D01*
X92075000Y-93243283D01*
X92062140Y-93227613D01*
X92043198Y-93212068D01*
X92021587Y-93200517D01*
X91998138Y-93193404D01*
X91841358Y-93162219D01*
X91695586Y-93101838D01*
X91695585Y-93101838D01*
X91695584Y-93101837D01*
X91564392Y-93014178D01*
X91452822Y-92902608D01*
X91365163Y-92771416D01*
X91365162Y-92771414D01*
X91304781Y-92625642D01*
X91274000Y-92470893D01*
X91274000Y-92313107D01*
X91304781Y-92158358D01*
X91365162Y-92012586D01*
X91383962Y-91984449D01*
X91452822Y-91881392D01*
X91564392Y-91769822D01*
X91695584Y-91682163D01*
X91695586Y-91682162D01*
X91841358Y-91621781D01*
X91996107Y-91591000D01*
X92153893Y-91591000D01*
X92308642Y-91621781D01*
X92308642Y-91621781D01*
G37*
G36*
X110611256Y-89323298D02*
G01*
X110717579Y-89344447D01*
X111018042Y-89468903D01*
X111288451Y-89649585D01*
X111518415Y-89879549D01*
X111699097Y-90149958D01*
X111699098Y-90149960D01*
X111735550Y-90237963D01*
X111766676Y-90313107D01*
X111823553Y-90450422D01*
X111887000Y-90769389D01*
X111887000Y-91094611D01*
X111885562Y-91101838D01*
X111823553Y-91413579D01*
X111699097Y-91714042D01*
X111518415Y-91984451D01*
X111288451Y-92214415D01*
X111018042Y-92395097D01*
X110717579Y-92519553D01*
X110611256Y-92540702D01*
X110398611Y-92583000D01*
X110073389Y-92583000D01*
X109860744Y-92540702D01*
X109754421Y-92519553D01*
X109453958Y-92395097D01*
X109183549Y-92214415D01*
X108953585Y-91984451D01*
X108772903Y-91714042D01*
X108648447Y-91413579D01*
X108586438Y-91101838D01*
X108585000Y-91094611D01*
X108585000Y-90769389D01*
X108648447Y-90450422D01*
X108705325Y-90313107D01*
X108736450Y-90237963D01*
X108772902Y-90149960D01*
X108772903Y-90149958D01*
X108953585Y-89879549D01*
X109183549Y-89649585D01*
X109453958Y-89468903D01*
X109754421Y-89344447D01*
X109860744Y-89323298D01*
X110073389Y-89281000D01*
X110398611Y-89281000D01*
X110611256Y-89323298D01*
X110611256Y-89323298D01*
G37*
G36*
X92308642Y-89621781D02*
G01*
X92454414Y-89682162D01*
X92454416Y-89682163D01*
X92585608Y-89769822D01*
X92697178Y-89881392D01*
X92784837Y-90012584D01*
X92784838Y-90012586D01*
X92845219Y-90158358D01*
X92876000Y-90313107D01*
X92876000Y-90470893D01*
X92845219Y-90625642D01*
X92797251Y-90741447D01*
X92784837Y-90771416D01*
X92697178Y-90902608D01*
X92585608Y-91014178D01*
X92454416Y-91101837D01*
X92454415Y-91101838D01*
X92454414Y-91101838D01*
X92308642Y-91162219D01*
X92153893Y-91193000D01*
X91996107Y-91193000D01*
X91841358Y-91162219D01*
X91695586Y-91101838D01*
X91695585Y-91101838D01*
X91695584Y-91101837D01*
X91564392Y-91014178D01*
X91452822Y-90902608D01*
X91365163Y-90771416D01*
X91352749Y-90741447D01*
X91304781Y-90625642D01*
X91274000Y-90470893D01*
X91274000Y-90313107D01*
X91304781Y-90158358D01*
X91365162Y-90012586D01*
X91365163Y-90012584D01*
X91452822Y-89881392D01*
X91564392Y-89769822D01*
X91695584Y-89682163D01*
X91695586Y-89682162D01*
X91841358Y-89621781D01*
X91996107Y-89591000D01*
X92153893Y-89591000D01*
X92308642Y-89621781D01*
X92308642Y-89621781D01*
G37*
G36*
X188028642Y-87621781D02*
G01*
X188174414Y-87682162D01*
X188174416Y-87682163D01*
X188305608Y-87769822D01*
X188417178Y-87881392D01*
X188504837Y-88012584D01*
X188504838Y-88012586D01*
X188565219Y-88158358D01*
X188596000Y-88313107D01*
X188596000Y-88470893D01*
X188565219Y-88625642D01*
X188504838Y-88771414D01*
X188504837Y-88771416D01*
X188417178Y-88902608D01*
X188305608Y-89014178D01*
X188174416Y-89101837D01*
X188174415Y-89101838D01*
X188174414Y-89101838D01*
X188028642Y-89162219D01*
X187873893Y-89193000D01*
X187716107Y-89193000D01*
X187561358Y-89162219D01*
X187415586Y-89101838D01*
X187415585Y-89101838D01*
X187415584Y-89101837D01*
X187284392Y-89014178D01*
X187172822Y-88902608D01*
X187085163Y-88771416D01*
X187085162Y-88771414D01*
X187024781Y-88625642D01*
X186994000Y-88470893D01*
X186994000Y-88313107D01*
X187024781Y-88158358D01*
X187085162Y-88012586D01*
X187085163Y-88012584D01*
X187172822Y-87881392D01*
X187284392Y-87769822D01*
X187415584Y-87682163D01*
X187415586Y-87682162D01*
X187561358Y-87621781D01*
X187716107Y-87591000D01*
X187873893Y-87591000D01*
X188028642Y-87621781D01*
X188028642Y-87621781D01*
G37*
G36*
X92308642Y-87621781D02*
G01*
X92454414Y-87682162D01*
X92454416Y-87682163D01*
X92585608Y-87769822D01*
X92697178Y-87881392D01*
X92784837Y-88012584D01*
X92784838Y-88012586D01*
X92845219Y-88158358D01*
X92876000Y-88313107D01*
X92876000Y-88470893D01*
X92845219Y-88625642D01*
X92784838Y-88771414D01*
X92784837Y-88771416D01*
X92697178Y-88902608D01*
X92585608Y-89014178D01*
X92454416Y-89101837D01*
X92454415Y-89101838D01*
X92454414Y-89101838D01*
X92308642Y-89162219D01*
X92153893Y-89193000D01*
X91996107Y-89193000D01*
X91841358Y-89162219D01*
X91695586Y-89101838D01*
X91695585Y-89101838D01*
X91695584Y-89101837D01*
X91564392Y-89014178D01*
X91452822Y-88902608D01*
X91365163Y-88771416D01*
X91365162Y-88771414D01*
X91304781Y-88625642D01*
X91274000Y-88470893D01*
X91274000Y-88313107D01*
X91304781Y-88158358D01*
X91365162Y-88012586D01*
X91365163Y-88012584D01*
X91452822Y-87881392D01*
X91564392Y-87769822D01*
X91695584Y-87682163D01*
X91695586Y-87682162D01*
X91841358Y-87621781D01*
X91996107Y-87591000D01*
X92153893Y-87591000D01*
X92308642Y-87621781D01*
X92308642Y-87621781D01*
G37*
G36*
X188028642Y-85621781D02*
G01*
X188174414Y-85682162D01*
X188174416Y-85682163D01*
X188305608Y-85769822D01*
X188417178Y-85881392D01*
X188504837Y-86012584D01*
X188504838Y-86012586D01*
X188565219Y-86158358D01*
X188596000Y-86313107D01*
X188596000Y-86470893D01*
X188565219Y-86625642D01*
X188504838Y-86771414D01*
X188504837Y-86771416D01*
X188417178Y-86902608D01*
X188305608Y-87014178D01*
X188174416Y-87101837D01*
X188174415Y-87101838D01*
X188174414Y-87101838D01*
X188028642Y-87162219D01*
X187873893Y-87193000D01*
X187716107Y-87193000D01*
X187561358Y-87162219D01*
X187415586Y-87101838D01*
X187415585Y-87101838D01*
X187415584Y-87101837D01*
X187284392Y-87014178D01*
X187172822Y-86902608D01*
X187085163Y-86771416D01*
X187085162Y-86771414D01*
X187024781Y-86625642D01*
X186994000Y-86470893D01*
X186994000Y-86313107D01*
X187024781Y-86158358D01*
X187085162Y-86012586D01*
X187085163Y-86012584D01*
X187172822Y-85881392D01*
X187284392Y-85769822D01*
X187415584Y-85682163D01*
X187415586Y-85682162D01*
X187561358Y-85621781D01*
X187716107Y-85591000D01*
X187873893Y-85591000D01*
X188028642Y-85621781D01*
X188028642Y-85621781D01*
G37*
G36*
X92087860Y-83556387D02*
G01*
X92106802Y-83571932D01*
X92128413Y-83583483D01*
X92151862Y-83590596D01*
X92308642Y-83621781D01*
X92454414Y-83682162D01*
X92454416Y-83682163D01*
X92585608Y-83769822D01*
X92697178Y-83881392D01*
X92784837Y-84012584D01*
X92784838Y-84012586D01*
X92845219Y-84158358D01*
X92876000Y-84313107D01*
X92876000Y-84470893D01*
X92845219Y-84625642D01*
X92784838Y-84771414D01*
X92784837Y-84771416D01*
X92697178Y-84902608D01*
X92585608Y-85014178D01*
X92454416Y-85101837D01*
X92454415Y-85101838D01*
X92454414Y-85101838D01*
X92308642Y-85162219D01*
X92153893Y-85193000D01*
X91996107Y-85193000D01*
X91841358Y-85162219D01*
X91695586Y-85101838D01*
X91695585Y-85101838D01*
X91695584Y-85101837D01*
X91564392Y-85014178D01*
X91452822Y-84902608D01*
X91365163Y-84771416D01*
X91365162Y-84771414D01*
X91304781Y-84625642D01*
X91274000Y-84470893D01*
X91274000Y-84313107D01*
X91304781Y-84158358D01*
X91365162Y-84012586D01*
X91365163Y-84012584D01*
X91452822Y-83881392D01*
X91564392Y-83769822D01*
X91695584Y-83682163D01*
X91695586Y-83682162D01*
X91841358Y-83621781D01*
X91998138Y-83590596D01*
X92021587Y-83583483D01*
X92043197Y-83571932D01*
X92062139Y-83556387D01*
X92075000Y-83540717D01*
X92087860Y-83556387D01*
X92087860Y-83556387D01*
G37*
G36*
X187807860Y-83556387D02*
G01*
X187826802Y-83571932D01*
X187848413Y-83583483D01*
X187871862Y-83590596D01*
X188028642Y-83621781D01*
X188174414Y-83682162D01*
X188174416Y-83682163D01*
X188305608Y-83769822D01*
X188417178Y-83881392D01*
X188504837Y-84012584D01*
X188504838Y-84012586D01*
X188565219Y-84158358D01*
X188596000Y-84313107D01*
X188596000Y-84470893D01*
X188565219Y-84625642D01*
X188504838Y-84771414D01*
X188504837Y-84771416D01*
X188417178Y-84902608D01*
X188305608Y-85014178D01*
X188174416Y-85101837D01*
X188174415Y-85101838D01*
X188174414Y-85101838D01*
X188028642Y-85162219D01*
X187873893Y-85193000D01*
X187716107Y-85193000D01*
X187561358Y-85162219D01*
X187415586Y-85101838D01*
X187415585Y-85101838D01*
X187415584Y-85101837D01*
X187284392Y-85014178D01*
X187172822Y-84902608D01*
X187085163Y-84771416D01*
X187085162Y-84771414D01*
X187024781Y-84625642D01*
X186994000Y-84470893D01*
X186994000Y-84313107D01*
X187024781Y-84158358D01*
X187085162Y-84012586D01*
X187085163Y-84012584D01*
X187172822Y-83881392D01*
X187284392Y-83769822D01*
X187415584Y-83682163D01*
X187415586Y-83682162D01*
X187561358Y-83621781D01*
X187718138Y-83590596D01*
X187741587Y-83583483D01*
X187763197Y-83571932D01*
X187782139Y-83556387D01*
X187795000Y-83540717D01*
X187807860Y-83556387D01*
X187807860Y-83556387D01*
G37*
G36*
X92381564Y-81281389D02*
G01*
X92572833Y-81360615D01*
X92572835Y-81360616D01*
X92741175Y-81473097D01*
X92744973Y-81475635D01*
X92891365Y-81622027D01*
X93006385Y-81794167D01*
X93085611Y-81985436D01*
X93126000Y-82188484D01*
X93126000Y-82395516D01*
X93085611Y-82598564D01*
X93078348Y-82616098D01*
X93006384Y-82789835D01*
X92891365Y-82961973D01*
X92744973Y-83108365D01*
X92572835Y-83223384D01*
X92572834Y-83223385D01*
X92572833Y-83223385D01*
X92381564Y-83302611D01*
X92178516Y-83343000D01*
X92176248Y-83343000D01*
X92151862Y-83345402D01*
X92128413Y-83352515D01*
X92106802Y-83364066D01*
X92087860Y-83379611D01*
X92075000Y-83395282D01*
X92062140Y-83379612D01*
X92043198Y-83364066D01*
X92021587Y-83352515D01*
X91998138Y-83345402D01*
X91973752Y-83343000D01*
X91971484Y-83343000D01*
X91768436Y-83302611D01*
X91577167Y-83223385D01*
X91577166Y-83223385D01*
X91577165Y-83223384D01*
X91405027Y-83108365D01*
X91258635Y-82961973D01*
X91143616Y-82789835D01*
X91071652Y-82616098D01*
X91064389Y-82598564D01*
X91024000Y-82395516D01*
X91024000Y-82188484D01*
X91064389Y-81985436D01*
X91143615Y-81794167D01*
X91258635Y-81622027D01*
X91405027Y-81475635D01*
X91408825Y-81473097D01*
X91577165Y-81360616D01*
X91577167Y-81360615D01*
X91768436Y-81281389D01*
X91971484Y-81241000D01*
X92178516Y-81241000D01*
X92381564Y-81281389D01*
X92381564Y-81281389D01*
G37*
G36*
X188101564Y-81281389D02*
G01*
X188292833Y-81360615D01*
X188292835Y-81360616D01*
X188461175Y-81473097D01*
X188464973Y-81475635D01*
X188611365Y-81622027D01*
X188726385Y-81794167D01*
X188805611Y-81985436D01*
X188846000Y-82188484D01*
X188846000Y-82395516D01*
X188805611Y-82598564D01*
X188798348Y-82616098D01*
X188726384Y-82789835D01*
X188611365Y-82961973D01*
X188464973Y-83108365D01*
X188292835Y-83223384D01*
X188292834Y-83223385D01*
X188292833Y-83223385D01*
X188101564Y-83302611D01*
X187898516Y-83343000D01*
X187896248Y-83343000D01*
X187871862Y-83345402D01*
X187848413Y-83352515D01*
X187826802Y-83364066D01*
X187807860Y-83379611D01*
X187795000Y-83395282D01*
X187782140Y-83379612D01*
X187763198Y-83364066D01*
X187741587Y-83352515D01*
X187718138Y-83345402D01*
X187693752Y-83343000D01*
X187691484Y-83343000D01*
X187488436Y-83302611D01*
X187297167Y-83223385D01*
X187297166Y-83223385D01*
X187297165Y-83223384D01*
X187125027Y-83108365D01*
X186978635Y-82961973D01*
X186863616Y-82789835D01*
X186791652Y-82616098D01*
X186784389Y-82598564D01*
X186744000Y-82395516D01*
X186744000Y-82188484D01*
X186784389Y-81985436D01*
X186863615Y-81794167D01*
X186978635Y-81622027D01*
X187125027Y-81475635D01*
X187128825Y-81473097D01*
X187297165Y-81360616D01*
X187297167Y-81360615D01*
X187488436Y-81281389D01*
X187691484Y-81241000D01*
X187898516Y-81241000D01*
X188101564Y-81281389D01*
X188101564Y-81281389D01*
G37*
G36*
X146599442Y-79528422D02*
G01*
X146785579Y-79565447D01*
X146998037Y-79653450D01*
X147082617Y-79688484D01*
X147086042Y-79689903D01*
X147356451Y-79870585D01*
X147586415Y-80100549D01*
X147767097Y-80370958D01*
X147891553Y-80671421D01*
X147955000Y-80990391D01*
X147955000Y-81315609D01*
X147891553Y-81634579D01*
X147767097Y-81935042D01*
X147586415Y-82205451D01*
X147356451Y-82435415D01*
X147086042Y-82616097D01*
X146785579Y-82740553D01*
X146679256Y-82761702D01*
X146466611Y-82804000D01*
X146141389Y-82804000D01*
X145928744Y-82761702D01*
X145822421Y-82740553D01*
X145521958Y-82616097D01*
X145251549Y-82435415D01*
X145021585Y-82205451D01*
X144840903Y-81935042D01*
X144716447Y-81634579D01*
X144653000Y-81315609D01*
X144653000Y-80990391D01*
X144716447Y-80671421D01*
X144840903Y-80370958D01*
X145021585Y-80100549D01*
X145251549Y-79870585D01*
X145521958Y-79689903D01*
X145525384Y-79688484D01*
X145609963Y-79653450D01*
X145822421Y-79565447D01*
X146008558Y-79528422D01*
X146141389Y-79502000D01*
X146466611Y-79502000D01*
X146599442Y-79528422D01*
X146599442Y-79528422D01*
G37*
G36*
X97784256Y-78401298D02*
G01*
X97890579Y-78422447D01*
X98191042Y-78546903D01*
X98461451Y-78727585D01*
X98691415Y-78957549D01*
X98872097Y-79227958D01*
X98978748Y-79485435D01*
X98996553Y-79528422D01*
X99060000Y-79847389D01*
X99060000Y-80172611D01*
X99020546Y-80370958D01*
X98996553Y-80491579D01*
X98872097Y-80792042D01*
X98691415Y-81062451D01*
X98461451Y-81292415D01*
X98191042Y-81473097D01*
X97890579Y-81597553D01*
X97784256Y-81618702D01*
X97571611Y-81661000D01*
X97246389Y-81661000D01*
X97033744Y-81618702D01*
X96927421Y-81597553D01*
X96626958Y-81473097D01*
X96356549Y-81292415D01*
X96126585Y-81062451D01*
X95945903Y-80792042D01*
X95821447Y-80491579D01*
X95797454Y-80370958D01*
X95758000Y-80172611D01*
X95758000Y-79847389D01*
X95821447Y-79528422D01*
X95839253Y-79485435D01*
X95945903Y-79227958D01*
X96126585Y-78957549D01*
X96356549Y-78727585D01*
X96626958Y-78546903D01*
X96927421Y-78422447D01*
X97033744Y-78401298D01*
X97246389Y-78359000D01*
X97571611Y-78359000D01*
X97784256Y-78401298D01*
X97784256Y-78401298D01*
G37*
G36*
X187807860Y-78704388D02*
G01*
X187826802Y-78719934D01*
X187848413Y-78731485D01*
X187871862Y-78738598D01*
X187896248Y-78741000D01*
X187898516Y-78741000D01*
X188101564Y-78781389D01*
X188285986Y-78857779D01*
X188292835Y-78860616D01*
X188413801Y-78941443D01*
X188464973Y-78975635D01*
X188611365Y-79122027D01*
X188726385Y-79294167D01*
X188805611Y-79485436D01*
X188846000Y-79688484D01*
X188846000Y-79895516D01*
X188805611Y-80098564D01*
X188726385Y-80289833D01*
X188726384Y-80289835D01*
X188611365Y-80461973D01*
X188464973Y-80608365D01*
X188292835Y-80723384D01*
X188292834Y-80723385D01*
X188292833Y-80723385D01*
X188101564Y-80802611D01*
X187898516Y-80843000D01*
X187691484Y-80843000D01*
X187488436Y-80802611D01*
X187297167Y-80723385D01*
X187297166Y-80723385D01*
X187297165Y-80723384D01*
X187125027Y-80608365D01*
X186978635Y-80461973D01*
X186863616Y-80289835D01*
X186863615Y-80289833D01*
X186784389Y-80098564D01*
X186744000Y-79895516D01*
X186744000Y-79688484D01*
X186784389Y-79485436D01*
X186863615Y-79294167D01*
X186978635Y-79122027D01*
X187125027Y-78975635D01*
X187176199Y-78941443D01*
X187297165Y-78860616D01*
X187304014Y-78857779D01*
X187488436Y-78781389D01*
X187691484Y-78741000D01*
X187693752Y-78741000D01*
X187718138Y-78738598D01*
X187741587Y-78731485D01*
X187763198Y-78719934D01*
X187782140Y-78704389D01*
X187795000Y-78688718D01*
X187807860Y-78704388D01*
X187807860Y-78704388D01*
G37*
G36*
X123173443Y-77210519D02*
G01*
X123239627Y-77217037D01*
X123409466Y-77268557D01*
X123565991Y-77352222D01*
X123601729Y-77381552D01*
X123703186Y-77464814D01*
X123786448Y-77566271D01*
X123815778Y-77602009D01*
X123899443Y-77758534D01*
X123950963Y-77928373D01*
X123968359Y-78105000D01*
X123950963Y-78281627D01*
X123899443Y-78451466D01*
X123899442Y-78451468D01*
X123867050Y-78512068D01*
X123815778Y-78607991D01*
X123786448Y-78643729D01*
X123703186Y-78745186D01*
X123601729Y-78828448D01*
X123565991Y-78857778D01*
X123409466Y-78941443D01*
X123239627Y-78992963D01*
X123173443Y-78999481D01*
X123107260Y-79006000D01*
X123018740Y-79006000D01*
X122952557Y-78999481D01*
X122886373Y-78992963D01*
X122716534Y-78941443D01*
X122560009Y-78857778D01*
X122524271Y-78828448D01*
X122422814Y-78745186D01*
X122339552Y-78643729D01*
X122310222Y-78607991D01*
X122258950Y-78512068D01*
X122226558Y-78451468D01*
X122226557Y-78451466D01*
X122175037Y-78281627D01*
X122157641Y-78105000D01*
X122175037Y-77928373D01*
X122226557Y-77758534D01*
X122310222Y-77602009D01*
X122339552Y-77566271D01*
X122422814Y-77464814D01*
X122524271Y-77381552D01*
X122560009Y-77352222D01*
X122716534Y-77268557D01*
X122886373Y-77217037D01*
X122952557Y-77210519D01*
X123018740Y-77204000D01*
X123107260Y-77204000D01*
X123173443Y-77210519D01*
X123173443Y-77210519D01*
G37*
G36*
X121424000Y-79006000D02*
G01*
X119622000Y-79006000D01*
X119622000Y-77204000D01*
X121424000Y-77204000D01*
X121424000Y-79006000D01*
X121424000Y-79006000D01*
G37*
G36*
X125713443Y-77210519D02*
G01*
X125779627Y-77217037D01*
X125949466Y-77268557D01*
X126105991Y-77352222D01*
X126141729Y-77381552D01*
X126243186Y-77464814D01*
X126326448Y-77566271D01*
X126355778Y-77602009D01*
X126439443Y-77758534D01*
X126490963Y-77928373D01*
X126508359Y-78105000D01*
X126490963Y-78281627D01*
X126439443Y-78451466D01*
X126439442Y-78451468D01*
X126407050Y-78512068D01*
X126355778Y-78607991D01*
X126326448Y-78643729D01*
X126243186Y-78745186D01*
X126141729Y-78828448D01*
X126105991Y-78857778D01*
X125949466Y-78941443D01*
X125779627Y-78992963D01*
X125713443Y-78999481D01*
X125647260Y-79006000D01*
X125558740Y-79006000D01*
X125492557Y-78999481D01*
X125426373Y-78992963D01*
X125256534Y-78941443D01*
X125100009Y-78857778D01*
X125064271Y-78828448D01*
X124962814Y-78745186D01*
X124879552Y-78643729D01*
X124850222Y-78607991D01*
X124798950Y-78512068D01*
X124766558Y-78451468D01*
X124766557Y-78451466D01*
X124715037Y-78281627D01*
X124697641Y-78105000D01*
X124715037Y-77928373D01*
X124766557Y-77758534D01*
X124850222Y-77602009D01*
X124879552Y-77566271D01*
X124962814Y-77464814D01*
X125064271Y-77381552D01*
X125100009Y-77352222D01*
X125256534Y-77268557D01*
X125426373Y-77217037D01*
X125492557Y-77210519D01*
X125558740Y-77204000D01*
X125647260Y-77204000D01*
X125713443Y-77210519D01*
X125713443Y-77210519D01*
G37*
G36*
X188028642Y-76921781D02*
G01*
X188174414Y-76982162D01*
X188174416Y-76982163D01*
X188305608Y-77069822D01*
X188417178Y-77181392D01*
X188475419Y-77268557D01*
X188504838Y-77312586D01*
X188565219Y-77458358D01*
X188596000Y-77613107D01*
X188596000Y-77770893D01*
X188565219Y-77925642D01*
X188504838Y-78071414D01*
X188504837Y-78071416D01*
X188417178Y-78202608D01*
X188305608Y-78314178D01*
X188174416Y-78401837D01*
X188174415Y-78401838D01*
X188174414Y-78401838D01*
X188028642Y-78462219D01*
X187871862Y-78493404D01*
X187848413Y-78500517D01*
X187826803Y-78512068D01*
X187807861Y-78527613D01*
X187795000Y-78543283D01*
X187782140Y-78527613D01*
X187763198Y-78512068D01*
X187741587Y-78500517D01*
X187718138Y-78493404D01*
X187561358Y-78462219D01*
X187415586Y-78401838D01*
X187415585Y-78401838D01*
X187415584Y-78401837D01*
X187284392Y-78314178D01*
X187172822Y-78202608D01*
X187085163Y-78071416D01*
X187085162Y-78071414D01*
X187024781Y-77925642D01*
X186994000Y-77770893D01*
X186994000Y-77613107D01*
X187024781Y-77458358D01*
X187085162Y-77312586D01*
X187114581Y-77268557D01*
X187172822Y-77181392D01*
X187284392Y-77069822D01*
X187415584Y-76982163D01*
X187415586Y-76982162D01*
X187561358Y-76921781D01*
X187716107Y-76891000D01*
X187873893Y-76891000D01*
X188028642Y-76921781D01*
X188028642Y-76921781D01*
G37*
G36*
X188028642Y-74921781D02*
G01*
X188174414Y-74982162D01*
X188174416Y-74982163D01*
X188305608Y-75069822D01*
X188417178Y-75181392D01*
X188504837Y-75312584D01*
X188504838Y-75312586D01*
X188565219Y-75458358D01*
X188596000Y-75613107D01*
X188596000Y-75770893D01*
X188565219Y-75925642D01*
X188504838Y-76071414D01*
X188504837Y-76071416D01*
X188417178Y-76202608D01*
X188305608Y-76314178D01*
X188174416Y-76401837D01*
X188174415Y-76401838D01*
X188174414Y-76401838D01*
X188028642Y-76462219D01*
X187873893Y-76493000D01*
X187716107Y-76493000D01*
X187561358Y-76462219D01*
X187415586Y-76401838D01*
X187415585Y-76401838D01*
X187415584Y-76401837D01*
X187284392Y-76314178D01*
X187172822Y-76202608D01*
X187085163Y-76071416D01*
X187085162Y-76071414D01*
X187024781Y-75925642D01*
X186994000Y-75770893D01*
X186994000Y-75613107D01*
X187024781Y-75458358D01*
X187085162Y-75312586D01*
X187085163Y-75312584D01*
X187172822Y-75181392D01*
X187284392Y-75069822D01*
X187415584Y-74982163D01*
X187415586Y-74982162D01*
X187561358Y-74921781D01*
X187716107Y-74891000D01*
X187873893Y-74891000D01*
X188028642Y-74921781D01*
X188028642Y-74921781D01*
G37*
G36*
X187807860Y-72856387D02*
G01*
X187826802Y-72871932D01*
X187848413Y-72883483D01*
X187871862Y-72890596D01*
X188028642Y-72921781D01*
X188174414Y-72982162D01*
X188174416Y-72982163D01*
X188305608Y-73069822D01*
X188417178Y-73181392D01*
X188504837Y-73312584D01*
X188504838Y-73312586D01*
X188565219Y-73458358D01*
X188596000Y-73613107D01*
X188596000Y-73770893D01*
X188565219Y-73925642D01*
X188504838Y-74071414D01*
X188504837Y-74071416D01*
X188417178Y-74202608D01*
X188305608Y-74314178D01*
X188174416Y-74401837D01*
X188174415Y-74401838D01*
X188174414Y-74401838D01*
X188028642Y-74462219D01*
X187873893Y-74493000D01*
X187716107Y-74493000D01*
X187561358Y-74462219D01*
X187415586Y-74401838D01*
X187415585Y-74401838D01*
X187415584Y-74401837D01*
X187284392Y-74314178D01*
X187172822Y-74202608D01*
X187085163Y-74071416D01*
X187085162Y-74071414D01*
X187024781Y-73925642D01*
X186994000Y-73770893D01*
X186994000Y-73613107D01*
X187024781Y-73458358D01*
X187085162Y-73312586D01*
X187085163Y-73312584D01*
X187172822Y-73181392D01*
X187284392Y-73069822D01*
X187415584Y-72982163D01*
X187415586Y-72982162D01*
X187561358Y-72921781D01*
X187718138Y-72890596D01*
X187741587Y-72883483D01*
X187763197Y-72871932D01*
X187782139Y-72856387D01*
X187795000Y-72840717D01*
X187807860Y-72856387D01*
X187807860Y-72856387D01*
G37*
G36*
X188101564Y-70581389D02*
G01*
X188292833Y-70660615D01*
X188292835Y-70660616D01*
X188464973Y-70775635D01*
X188611365Y-70922027D01*
X188726385Y-71094167D01*
X188805611Y-71285436D01*
X188846000Y-71488484D01*
X188846000Y-71695516D01*
X188805611Y-71898564D01*
X188726385Y-72089833D01*
X188726384Y-72089835D01*
X188611365Y-72261973D01*
X188464973Y-72408365D01*
X188292835Y-72523384D01*
X188292834Y-72523385D01*
X188292833Y-72523385D01*
X188101564Y-72602611D01*
X187898516Y-72643000D01*
X187896248Y-72643000D01*
X187871862Y-72645402D01*
X187848413Y-72652515D01*
X187826802Y-72664066D01*
X187807860Y-72679611D01*
X187795000Y-72695282D01*
X187782140Y-72679612D01*
X187763198Y-72664066D01*
X187741587Y-72652515D01*
X187718138Y-72645402D01*
X187693752Y-72643000D01*
X187691484Y-72643000D01*
X187488436Y-72602611D01*
X187297167Y-72523385D01*
X187297166Y-72523385D01*
X187297165Y-72523384D01*
X187125027Y-72408365D01*
X186978635Y-72261973D01*
X186863616Y-72089835D01*
X186863615Y-72089833D01*
X186784389Y-71898564D01*
X186744000Y-71695516D01*
X186744000Y-71488484D01*
X186784389Y-71285436D01*
X186863615Y-71094167D01*
X186978635Y-70922027D01*
X187125027Y-70775635D01*
X187297165Y-70660616D01*
X187297167Y-70660615D01*
X187488436Y-70581389D01*
X187691484Y-70541000D01*
X187898516Y-70541000D01*
X188101564Y-70581389D01*
X188101564Y-70581389D01*
G37*
G36*
X181558272Y-63401000D02*
G01*
X179956272Y-63401000D01*
X179956272Y-60099000D01*
X181558272Y-60099000D01*
X181558272Y-63401000D01*
X181558272Y-63401000D01*
G37*
G36*
X188049180Y-63401000D02*
G01*
X186447180Y-63401000D01*
X186447180Y-60099000D01*
X188049180Y-60099000D01*
X188049180Y-63401000D01*
X188049180Y-63401000D01*
G37*
G36*
X185885544Y-63401000D02*
G01*
X184283544Y-63401000D01*
X184283544Y-60099000D01*
X185885544Y-60099000D01*
X185885544Y-63401000D01*
X185885544Y-63401000D01*
G37*
G36*
X183721908Y-63401000D02*
G01*
X182119908Y-63401000D01*
X182119908Y-60099000D01*
X183721908Y-60099000D01*
X183721908Y-63401000D01*
X183721908Y-63401000D01*
G37*
G36*
X177231000Y-63401000D02*
G01*
X175629000Y-63401000D01*
X175629000Y-60099000D01*
X177231000Y-60099000D01*
X177231000Y-63401000D01*
X177231000Y-63401000D01*
G37*
G36*
X179394636Y-63401000D02*
G01*
X177792636Y-63401000D01*
X177792636Y-60099000D01*
X179394636Y-60099000D01*
X179394636Y-63401000D01*
X179394636Y-63401000D01*
G37*
M02*
