G04 #@! TF.GenerationSoftware,KiCad,Pcbnew,(5.1.0)-1*
G04 #@! TF.CreationDate,2019-06-24T23:31:03-04:00*
G04 #@! TF.ProjectId,PSX_BREAKOUT_CASE,5053585f-4252-4454-914b-4f55545f4341,rev?*
G04 #@! TF.SameCoordinates,Original*
G04 #@! TF.FileFunction,Other,Comment*
%FSLAX46Y46*%
G04 Gerber Fmt 4.6, Leading zero omitted, Abs format (unit mm)*
G04 Created by KiCad (PCBNEW (5.1.0)-1) date 2019-06-24 23:31:03*
%MOMM*%
%LPD*%
G04 APERTURE LIST*
%ADD10C,0.150000*%
G04 APERTURE END LIST*
D10*
X191421095Y-76144428D02*
X190659190Y-76144428D01*
X190849666Y-76334904D02*
X190659190Y-76144428D01*
X190849666Y-75953952D01*
X191754428Y-75525380D02*
X192087761Y-76525380D01*
X192421095Y-75525380D01*
X192754428Y-76144428D02*
X193516333Y-76144428D01*
X193944904Y-76477761D02*
X194087761Y-76525380D01*
X194325857Y-76525380D01*
X194421095Y-76477761D01*
X194468714Y-76430142D01*
X194516333Y-76334904D01*
X194516333Y-76239666D01*
X194468714Y-76144428D01*
X194421095Y-76096809D01*
X194325857Y-76049190D01*
X194135380Y-76001571D01*
X194040142Y-75953952D01*
X193992523Y-75906333D01*
X193944904Y-75811095D01*
X193944904Y-75715857D01*
X193992523Y-75620619D01*
X194040142Y-75573000D01*
X194135380Y-75525380D01*
X194373476Y-75525380D01*
X194516333Y-75573000D01*
X195373476Y-76477761D02*
X195278238Y-76525380D01*
X195087761Y-76525380D01*
X194992523Y-76477761D01*
X194944904Y-76430142D01*
X194897285Y-76334904D01*
X194897285Y-76049190D01*
X194944904Y-75953952D01*
X194992523Y-75906333D01*
X195087761Y-75858714D01*
X195278238Y-75858714D01*
X195373476Y-75906333D01*
X195944904Y-76525380D02*
X195849666Y-76477761D01*
X195802047Y-76430142D01*
X195754428Y-76334904D01*
X195754428Y-76049190D01*
X195802047Y-75953952D01*
X195849666Y-75906333D01*
X195944904Y-75858714D01*
X196087761Y-75858714D01*
X196183000Y-75906333D01*
X196230619Y-75953952D01*
X196278238Y-76049190D01*
X196278238Y-76334904D01*
X196230619Y-76430142D01*
X196183000Y-76477761D01*
X196087761Y-76525380D01*
X195944904Y-76525380D01*
X196706809Y-76525380D02*
X196706809Y-75858714D01*
X196706809Y-76049190D02*
X196754428Y-75953952D01*
X196802047Y-75906333D01*
X196897285Y-75858714D01*
X196992523Y-75858714D01*
X197706809Y-76477761D02*
X197611571Y-76525380D01*
X197421095Y-76525380D01*
X197325857Y-76477761D01*
X197278238Y-76382523D01*
X197278238Y-76001571D01*
X197325857Y-75906333D01*
X197421095Y-75858714D01*
X197611571Y-75858714D01*
X197706809Y-75906333D01*
X197754428Y-76001571D01*
X197754428Y-76096809D01*
X197278238Y-76192047D01*
X142598001Y-58420000D02*
G75*
G03X142598001Y-58420000I-2648001J0D01*
G01*
X142602001Y-93980000D02*
G75*
G03X142602001Y-93980000I-2648001J0D01*
G01*
X100609000Y-44450000D02*
G75*
G03X100609000Y-44450000I-3200000J0D01*
G01*
X113436000Y-55372000D02*
G75*
G03X113436000Y-55372000I-3200000J0D01*
G01*
X165379000Y-56769000D02*
G75*
G03X165379000Y-56769000I-3200000J0D01*
G01*
X149504000Y-45593000D02*
G75*
G03X149504000Y-45593000I-3200000J0D01*
G01*
X113436000Y-90932000D02*
G75*
G03X113436000Y-90932000I-3200000J0D01*
G01*
X100609000Y-80010000D02*
G75*
G03X100609000Y-80010000I-3200000J0D01*
G01*
X149504000Y-81153000D02*
G75*
G03X149504000Y-81153000I-3200000J0D01*
G01*
X165379000Y-92329000D02*
G75*
G03X165379000Y-92329000I-3200000J0D01*
G01*
M02*
