G04 #@! TF.GenerationSoftware,KiCad,Pcbnew,(5.1.0)-1*
G04 #@! TF.CreationDate,2019-06-11T16:03:23-04:00*
G04 #@! TF.ProjectId,PSX_BREAKOUT_CASE,5053585f-4252-4454-914b-4f55545f4341,rev?*
G04 #@! TF.SameCoordinates,Original*
G04 #@! TF.FileFunction,Copper,L1,Top*
G04 #@! TF.FilePolarity,Positive*
%FSLAX46Y46*%
G04 Gerber Fmt 4.6, Leading zero omitted, Abs format (unit mm)*
G04 Created by KiCad (PCBNEW (5.1.0)-1) date 2019-06-11 16:03:23*
%MOMM*%
%LPD*%
G04 APERTURE LIST*
%ADD10C,0.010000*%
G04 APERTURE END LIST*
D10*
G36*
X125285500Y-92096475D02*
G01*
X125010333Y-92168504D01*
X124909657Y-92194967D01*
X124737505Y-92240345D01*
X124504249Y-92301896D01*
X124220264Y-92376882D01*
X123895923Y-92462564D01*
X123541602Y-92556201D01*
X123167672Y-92655055D01*
X123020666Y-92693928D01*
X122638948Y-92794701D01*
X122270255Y-92891711D01*
X121925413Y-92982133D01*
X121615251Y-93063142D01*
X121350596Y-93131912D01*
X121142275Y-93185617D01*
X121001116Y-93221431D01*
X120969195Y-93229310D01*
X120761333Y-93286467D01*
X120616291Y-93348395D01*
X120512900Y-93430577D01*
X120429994Y-93548497D01*
X120369246Y-93668166D01*
X120287129Y-93899985D01*
X120277777Y-94090369D01*
X120330813Y-94224412D01*
X120380048Y-94284220D01*
X120440682Y-94330256D01*
X120523252Y-94363939D01*
X120638293Y-94386693D01*
X120796341Y-94399937D01*
X121007933Y-94405092D01*
X121283602Y-94403579D01*
X121612736Y-94397299D01*
X122214511Y-94375607D01*
X122761192Y-94336861D01*
X123281285Y-94277414D01*
X123803294Y-94193622D01*
X124355724Y-94081842D01*
X124704667Y-94001951D01*
X124919181Y-93951410D01*
X125102968Y-93908686D01*
X125241000Y-93877228D01*
X125318252Y-93860484D01*
X125329083Y-93858666D01*
X125334762Y-93899024D01*
X125339811Y-94012199D01*
X125343985Y-94186342D01*
X125347041Y-94409604D01*
X125348736Y-94670135D01*
X125349000Y-94827192D01*
X125349000Y-95795717D01*
X124893916Y-95945251D01*
X124679643Y-96008515D01*
X124412443Y-96076750D01*
X124123155Y-96142621D01*
X123842620Y-96198792D01*
X123782666Y-96209553D01*
X123585637Y-96242971D01*
X123410252Y-96269477D01*
X123242229Y-96290018D01*
X123067285Y-96305535D01*
X122871136Y-96316974D01*
X122639500Y-96325279D01*
X122358093Y-96331393D01*
X122012633Y-96336261D01*
X121835333Y-96338265D01*
X121355990Y-96341361D01*
X120953871Y-96339289D01*
X120621682Y-96331871D01*
X120352128Y-96318928D01*
X120137913Y-96300279D01*
X120099666Y-96295671D01*
X119397542Y-96186942D01*
X118765927Y-96048735D01*
X118206076Y-95881813D01*
X117719246Y-95686940D01*
X117306694Y-95464878D01*
X116969674Y-95216389D01*
X116709443Y-94942237D01*
X116527258Y-94643183D01*
X116424374Y-94319992D01*
X116399988Y-94049166D01*
X116425171Y-93791720D01*
X116504421Y-93552388D01*
X116645536Y-93314671D01*
X116856311Y-93062071D01*
X116876668Y-93040459D01*
X117083651Y-92835855D01*
X117303922Y-92647484D01*
X117551190Y-92465854D01*
X117839166Y-92281473D01*
X118181558Y-92084847D01*
X118512166Y-91908016D01*
X118847830Y-91738679D01*
X119189255Y-91579245D01*
X119548839Y-91424847D01*
X119938982Y-91270615D01*
X120372082Y-91111680D01*
X120860538Y-90943173D01*
X121416750Y-90760225D01*
X121517833Y-90727692D01*
X121792362Y-90644313D01*
X122130238Y-90549155D01*
X122511810Y-90447151D01*
X122917424Y-90343231D01*
X123327426Y-90242328D01*
X123722164Y-90149375D01*
X124081984Y-90069302D01*
X124387234Y-90007042D01*
X124396500Y-90005282D01*
X124629800Y-89960881D01*
X124844008Y-89919729D01*
X125020423Y-89885446D01*
X125140342Y-89861653D01*
X125169785Y-89855569D01*
X125308070Y-89826135D01*
X125285500Y-92096475D01*
X125285500Y-92096475D01*
G37*
X125285500Y-92096475D02*
X125010333Y-92168504D01*
X124909657Y-92194967D01*
X124737505Y-92240345D01*
X124504249Y-92301896D01*
X124220264Y-92376882D01*
X123895923Y-92462564D01*
X123541602Y-92556201D01*
X123167672Y-92655055D01*
X123020666Y-92693928D01*
X122638948Y-92794701D01*
X122270255Y-92891711D01*
X121925413Y-92982133D01*
X121615251Y-93063142D01*
X121350596Y-93131912D01*
X121142275Y-93185617D01*
X121001116Y-93221431D01*
X120969195Y-93229310D01*
X120761333Y-93286467D01*
X120616291Y-93348395D01*
X120512900Y-93430577D01*
X120429994Y-93548497D01*
X120369246Y-93668166D01*
X120287129Y-93899985D01*
X120277777Y-94090369D01*
X120330813Y-94224412D01*
X120380048Y-94284220D01*
X120440682Y-94330256D01*
X120523252Y-94363939D01*
X120638293Y-94386693D01*
X120796341Y-94399937D01*
X121007933Y-94405092D01*
X121283602Y-94403579D01*
X121612736Y-94397299D01*
X122214511Y-94375607D01*
X122761192Y-94336861D01*
X123281285Y-94277414D01*
X123803294Y-94193622D01*
X124355724Y-94081842D01*
X124704667Y-94001951D01*
X124919181Y-93951410D01*
X125102968Y-93908686D01*
X125241000Y-93877228D01*
X125318252Y-93860484D01*
X125329083Y-93858666D01*
X125334762Y-93899024D01*
X125339811Y-94012199D01*
X125343985Y-94186342D01*
X125347041Y-94409604D01*
X125348736Y-94670135D01*
X125349000Y-94827192D01*
X125349000Y-95795717D01*
X124893916Y-95945251D01*
X124679643Y-96008515D01*
X124412443Y-96076750D01*
X124123155Y-96142621D01*
X123842620Y-96198792D01*
X123782666Y-96209553D01*
X123585637Y-96242971D01*
X123410252Y-96269477D01*
X123242229Y-96290018D01*
X123067285Y-96305535D01*
X122871136Y-96316974D01*
X122639500Y-96325279D01*
X122358093Y-96331393D01*
X122012633Y-96336261D01*
X121835333Y-96338265D01*
X121355990Y-96341361D01*
X120953871Y-96339289D01*
X120621682Y-96331871D01*
X120352128Y-96318928D01*
X120137913Y-96300279D01*
X120099666Y-96295671D01*
X119397542Y-96186942D01*
X118765927Y-96048735D01*
X118206076Y-95881813D01*
X117719246Y-95686940D01*
X117306694Y-95464878D01*
X116969674Y-95216389D01*
X116709443Y-94942237D01*
X116527258Y-94643183D01*
X116424374Y-94319992D01*
X116399988Y-94049166D01*
X116425171Y-93791720D01*
X116504421Y-93552388D01*
X116645536Y-93314671D01*
X116856311Y-93062071D01*
X116876668Y-93040459D01*
X117083651Y-92835855D01*
X117303922Y-92647484D01*
X117551190Y-92465854D01*
X117839166Y-92281473D01*
X118181558Y-92084847D01*
X118512166Y-91908016D01*
X118847830Y-91738679D01*
X119189255Y-91579245D01*
X119548839Y-91424847D01*
X119938982Y-91270615D01*
X120372082Y-91111680D01*
X120860538Y-90943173D01*
X121416750Y-90760225D01*
X121517833Y-90727692D01*
X121792362Y-90644313D01*
X122130238Y-90549155D01*
X122511810Y-90447151D01*
X122917424Y-90343231D01*
X123327426Y-90242328D01*
X123722164Y-90149375D01*
X124081984Y-90069302D01*
X124387234Y-90007042D01*
X124396500Y-90005282D01*
X124629800Y-89960881D01*
X124844008Y-89919729D01*
X125020423Y-89885446D01*
X125140342Y-89861653D01*
X125169785Y-89855569D01*
X125308070Y-89826135D01*
X125285500Y-92096475D01*
G36*
X137728816Y-90489167D02*
G01*
X138207218Y-90579276D01*
X138700164Y-90720014D01*
X139229223Y-90914570D01*
X139341616Y-90960364D01*
X139819272Y-91176976D01*
X140277933Y-91422032D01*
X140708110Y-91688392D01*
X141100314Y-91968912D01*
X141445054Y-92256452D01*
X141732842Y-92543869D01*
X141954187Y-92824023D01*
X142062628Y-93008178D01*
X142144529Y-93199895D01*
X142185857Y-93373655D01*
X142182163Y-93534429D01*
X142128998Y-93687190D01*
X142021910Y-93836909D01*
X141856452Y-93988558D01*
X141628171Y-94147109D01*
X141332620Y-94317533D01*
X140965348Y-94504803D01*
X140545860Y-94702885D01*
X140287030Y-94818351D01*
X139964574Y-94956513D01*
X139594379Y-95110967D01*
X139192328Y-95275312D01*
X138774307Y-95443146D01*
X138356201Y-95608067D01*
X137953893Y-95763674D01*
X137583270Y-95903564D01*
X137392833Y-95973614D01*
X137174895Y-96053355D01*
X136977887Y-96126381D01*
X136819116Y-96186207D01*
X136715893Y-96226348D01*
X136694333Y-96235309D01*
X136602084Y-96271788D01*
X136438629Y-96332277D01*
X136212963Y-96413666D01*
X135934085Y-96512840D01*
X135610991Y-96626689D01*
X135252680Y-96752099D01*
X134868148Y-96885957D01*
X134466392Y-97025152D01*
X134056410Y-97166571D01*
X133647200Y-97307102D01*
X133247757Y-97443631D01*
X132867081Y-97573047D01*
X132514167Y-97692237D01*
X132198013Y-97798088D01*
X131927618Y-97887488D01*
X131773083Y-97937744D01*
X131318000Y-98084336D01*
X131318000Y-95949443D01*
X131963583Y-95726874D01*
X132208892Y-95642025D01*
X132450142Y-95558092D01*
X132665225Y-95482799D01*
X132832035Y-95423871D01*
X132884333Y-95405156D01*
X132967801Y-95375473D01*
X133124393Y-95320185D01*
X133347327Y-95241675D01*
X133629820Y-95142325D01*
X133965089Y-95024517D01*
X134346352Y-94890635D01*
X134766826Y-94743059D01*
X135219727Y-94584173D01*
X135698275Y-94416359D01*
X136195684Y-94241999D01*
X136281515Y-94211920D01*
X136773305Y-94039244D01*
X137241274Y-93874286D01*
X137679366Y-93719221D01*
X138081524Y-93576222D01*
X138441694Y-93447464D01*
X138753818Y-93335119D01*
X139011841Y-93241363D01*
X139209707Y-93168368D01*
X139341359Y-93118309D01*
X139400741Y-93093360D01*
X139403598Y-93091219D01*
X139368524Y-93059602D01*
X139282379Y-93016777D01*
X139266083Y-93010138D01*
X139179202Y-92973798D01*
X139028682Y-92908783D01*
X138828123Y-92821096D01*
X138591126Y-92716736D01*
X138331291Y-92601706D01*
X138062219Y-92482007D01*
X137797511Y-92363639D01*
X137616558Y-92282293D01*
X137417654Y-92204003D01*
X137274489Y-92174990D01*
X137214392Y-92179253D01*
X137135671Y-92196995D01*
X136990491Y-92230631D01*
X136794756Y-92276442D01*
X136564368Y-92330707D01*
X136355666Y-92380110D01*
X136068407Y-92448110D01*
X135764191Y-92519864D01*
X135471097Y-92588766D01*
X135217206Y-92648209D01*
X135106833Y-92673924D01*
X134828384Y-92738741D01*
X134522300Y-92810217D01*
X134177462Y-92890959D01*
X133782750Y-92983572D01*
X133327043Y-93090664D01*
X132842000Y-93204771D01*
X132576085Y-93267234D01*
X132300018Y-93331880D01*
X132041807Y-93392161D01*
X131829456Y-93441534D01*
X131778128Y-93453414D01*
X131370424Y-93547631D01*
X131352071Y-93068148D01*
X131345854Y-92805301D01*
X131344709Y-92506676D01*
X131348634Y-92221008D01*
X131352133Y-92107574D01*
X131370547Y-91626481D01*
X131820523Y-91455058D01*
X132429914Y-91236962D01*
X133037198Y-91049441D01*
X133658002Y-90889025D01*
X134307954Y-90752247D01*
X135002679Y-90635638D01*
X135757806Y-90535729D01*
X136165166Y-90490717D01*
X136729360Y-90448076D01*
X137243386Y-90446496D01*
X137728816Y-90489167D01*
X137728816Y-90489167D01*
G37*
X137728816Y-90489167D02*
X138207218Y-90579276D01*
X138700164Y-90720014D01*
X139229223Y-90914570D01*
X139341616Y-90960364D01*
X139819272Y-91176976D01*
X140277933Y-91422032D01*
X140708110Y-91688392D01*
X141100314Y-91968912D01*
X141445054Y-92256452D01*
X141732842Y-92543869D01*
X141954187Y-92824023D01*
X142062628Y-93008178D01*
X142144529Y-93199895D01*
X142185857Y-93373655D01*
X142182163Y-93534429D01*
X142128998Y-93687190D01*
X142021910Y-93836909D01*
X141856452Y-93988558D01*
X141628171Y-94147109D01*
X141332620Y-94317533D01*
X140965348Y-94504803D01*
X140545860Y-94702885D01*
X140287030Y-94818351D01*
X139964574Y-94956513D01*
X139594379Y-95110967D01*
X139192328Y-95275312D01*
X138774307Y-95443146D01*
X138356201Y-95608067D01*
X137953893Y-95763674D01*
X137583270Y-95903564D01*
X137392833Y-95973614D01*
X137174895Y-96053355D01*
X136977887Y-96126381D01*
X136819116Y-96186207D01*
X136715893Y-96226348D01*
X136694333Y-96235309D01*
X136602084Y-96271788D01*
X136438629Y-96332277D01*
X136212963Y-96413666D01*
X135934085Y-96512840D01*
X135610991Y-96626689D01*
X135252680Y-96752099D01*
X134868148Y-96885957D01*
X134466392Y-97025152D01*
X134056410Y-97166571D01*
X133647200Y-97307102D01*
X133247757Y-97443631D01*
X132867081Y-97573047D01*
X132514167Y-97692237D01*
X132198013Y-97798088D01*
X131927618Y-97887488D01*
X131773083Y-97937744D01*
X131318000Y-98084336D01*
X131318000Y-95949443D01*
X131963583Y-95726874D01*
X132208892Y-95642025D01*
X132450142Y-95558092D01*
X132665225Y-95482799D01*
X132832035Y-95423871D01*
X132884333Y-95405156D01*
X132967801Y-95375473D01*
X133124393Y-95320185D01*
X133347327Y-95241675D01*
X133629820Y-95142325D01*
X133965089Y-95024517D01*
X134346352Y-94890635D01*
X134766826Y-94743059D01*
X135219727Y-94584173D01*
X135698275Y-94416359D01*
X136195684Y-94241999D01*
X136281515Y-94211920D01*
X136773305Y-94039244D01*
X137241274Y-93874286D01*
X137679366Y-93719221D01*
X138081524Y-93576222D01*
X138441694Y-93447464D01*
X138753818Y-93335119D01*
X139011841Y-93241363D01*
X139209707Y-93168368D01*
X139341359Y-93118309D01*
X139400741Y-93093360D01*
X139403598Y-93091219D01*
X139368524Y-93059602D01*
X139282379Y-93016777D01*
X139266083Y-93010138D01*
X139179202Y-92973798D01*
X139028682Y-92908783D01*
X138828123Y-92821096D01*
X138591126Y-92716736D01*
X138331291Y-92601706D01*
X138062219Y-92482007D01*
X137797511Y-92363639D01*
X137616558Y-92282293D01*
X137417654Y-92204003D01*
X137274489Y-92174990D01*
X137214392Y-92179253D01*
X137135671Y-92196995D01*
X136990491Y-92230631D01*
X136794756Y-92276442D01*
X136564368Y-92330707D01*
X136355666Y-92380110D01*
X136068407Y-92448110D01*
X135764191Y-92519864D01*
X135471097Y-92588766D01*
X135217206Y-92648209D01*
X135106833Y-92673924D01*
X134828384Y-92738741D01*
X134522300Y-92810217D01*
X134177462Y-92890959D01*
X133782750Y-92983572D01*
X133327043Y-93090664D01*
X132842000Y-93204771D01*
X132576085Y-93267234D01*
X132300018Y-93331880D01*
X132041807Y-93392161D01*
X131829456Y-93441534D01*
X131778128Y-93453414D01*
X131370424Y-93547631D01*
X131352071Y-93068148D01*
X131345854Y-92805301D01*
X131344709Y-92506676D01*
X131348634Y-92221008D01*
X131352133Y-92107574D01*
X131370547Y-91626481D01*
X131820523Y-91455058D01*
X132429914Y-91236962D01*
X133037198Y-91049441D01*
X133658002Y-90889025D01*
X134307954Y-90752247D01*
X135002679Y-90635638D01*
X135757806Y-90535729D01*
X136165166Y-90490717D01*
X136729360Y-90448076D01*
X137243386Y-90446496D01*
X137728816Y-90489167D01*
G36*
X126460250Y-78424680D02*
G01*
X127213116Y-78585604D01*
X127970845Y-78763589D01*
X128714102Y-78953565D01*
X129423546Y-79150463D01*
X130079842Y-79349213D01*
X130450166Y-79470667D01*
X131360801Y-79800045D01*
X132196256Y-80144499D01*
X132955468Y-80503324D01*
X133637374Y-80875815D01*
X134240912Y-81261266D01*
X134765017Y-81658972D01*
X135208627Y-82068228D01*
X135570678Y-82488327D01*
X135850108Y-82918566D01*
X135950921Y-83120374D01*
X136034731Y-83333914D01*
X136122962Y-83607380D01*
X136209382Y-83916708D01*
X136287766Y-84237829D01*
X136351883Y-84546677D01*
X136395505Y-84819184D01*
X136399855Y-84855082D01*
X136422410Y-85123691D01*
X136435195Y-85434432D01*
X136438287Y-85761230D01*
X136431763Y-86078011D01*
X136415703Y-86358699D01*
X136394816Y-86548057D01*
X136307556Y-86988211D01*
X136180799Y-87425283D01*
X136020897Y-87846422D01*
X135834197Y-88238775D01*
X135627049Y-88589492D01*
X135405801Y-88885720D01*
X135176804Y-89114609D01*
X135096469Y-89176102D01*
X134926693Y-89268768D01*
X134725982Y-89324404D01*
X134479702Y-89345113D01*
X134173221Y-89332993D01*
X134069666Y-89323505D01*
X133642131Y-89256136D01*
X133272082Y-89142302D01*
X132941777Y-88974385D01*
X132633473Y-88744766D01*
X132552800Y-88672225D01*
X132312833Y-88448879D01*
X132291666Y-85539975D01*
X132270500Y-82631071D01*
X131910666Y-82483469D01*
X131734884Y-82410746D01*
X131508112Y-82316033D01*
X131257225Y-82210598D01*
X131009093Y-82105708D01*
X130961937Y-82085691D01*
X130756164Y-82000008D01*
X130579122Y-81929576D01*
X130444745Y-81879680D01*
X130366967Y-81855604D01*
X130353591Y-81854964D01*
X130351487Y-81898595D01*
X130349142Y-82022827D01*
X130346582Y-82223594D01*
X130343829Y-82496830D01*
X130340910Y-82838469D01*
X130337847Y-83244447D01*
X130334665Y-83710696D01*
X130331389Y-84233152D01*
X130328043Y-84807749D01*
X130324651Y-85430422D01*
X130321237Y-86097104D01*
X130317826Y-86803729D01*
X130314443Y-87546233D01*
X130311111Y-88320550D01*
X130307854Y-89122613D01*
X130304698Y-89948357D01*
X130303948Y-90152551D01*
X130300829Y-90983398D01*
X130297622Y-91791527D01*
X130294350Y-92572873D01*
X130291036Y-93323373D01*
X130287705Y-94038963D01*
X130284379Y-94715581D01*
X130281082Y-95349161D01*
X130277837Y-95935640D01*
X130274668Y-96470955D01*
X130271598Y-96951042D01*
X130268651Y-97371837D01*
X130265849Y-97729276D01*
X130263217Y-98019297D01*
X130260778Y-98237834D01*
X130258555Y-98380824D01*
X130256572Y-98444205D01*
X130256127Y-98447126D01*
X130211678Y-98439503D01*
X130112440Y-98403602D01*
X129984500Y-98349216D01*
X129891315Y-98308200D01*
X129729832Y-98238173D01*
X129509666Y-98143261D01*
X129240429Y-98027593D01*
X128931737Y-97895296D01*
X128593202Y-97750497D01*
X128234439Y-97597324D01*
X128048044Y-97517851D01*
X126365588Y-96800833D01*
X126365294Y-87603110D01*
X126365000Y-78405386D01*
X126460250Y-78424680D01*
X126460250Y-78424680D01*
G37*
X126460250Y-78424680D02*
X127213116Y-78585604D01*
X127970845Y-78763589D01*
X128714102Y-78953565D01*
X129423546Y-79150463D01*
X130079842Y-79349213D01*
X130450166Y-79470667D01*
X131360801Y-79800045D01*
X132196256Y-80144499D01*
X132955468Y-80503324D01*
X133637374Y-80875815D01*
X134240912Y-81261266D01*
X134765017Y-81658972D01*
X135208627Y-82068228D01*
X135570678Y-82488327D01*
X135850108Y-82918566D01*
X135950921Y-83120374D01*
X136034731Y-83333914D01*
X136122962Y-83607380D01*
X136209382Y-83916708D01*
X136287766Y-84237829D01*
X136351883Y-84546677D01*
X136395505Y-84819184D01*
X136399855Y-84855082D01*
X136422410Y-85123691D01*
X136435195Y-85434432D01*
X136438287Y-85761230D01*
X136431763Y-86078011D01*
X136415703Y-86358699D01*
X136394816Y-86548057D01*
X136307556Y-86988211D01*
X136180799Y-87425283D01*
X136020897Y-87846422D01*
X135834197Y-88238775D01*
X135627049Y-88589492D01*
X135405801Y-88885720D01*
X135176804Y-89114609D01*
X135096469Y-89176102D01*
X134926693Y-89268768D01*
X134725982Y-89324404D01*
X134479702Y-89345113D01*
X134173221Y-89332993D01*
X134069666Y-89323505D01*
X133642131Y-89256136D01*
X133272082Y-89142302D01*
X132941777Y-88974385D01*
X132633473Y-88744766D01*
X132552800Y-88672225D01*
X132312833Y-88448879D01*
X132291666Y-85539975D01*
X132270500Y-82631071D01*
X131910666Y-82483469D01*
X131734884Y-82410746D01*
X131508112Y-82316033D01*
X131257225Y-82210598D01*
X131009093Y-82105708D01*
X130961937Y-82085691D01*
X130756164Y-82000008D01*
X130579122Y-81929576D01*
X130444745Y-81879680D01*
X130366967Y-81855604D01*
X130353591Y-81854964D01*
X130351487Y-81898595D01*
X130349142Y-82022827D01*
X130346582Y-82223594D01*
X130343829Y-82496830D01*
X130340910Y-82838469D01*
X130337847Y-83244447D01*
X130334665Y-83710696D01*
X130331389Y-84233152D01*
X130328043Y-84807749D01*
X130324651Y-85430422D01*
X130321237Y-86097104D01*
X130317826Y-86803729D01*
X130314443Y-87546233D01*
X130311111Y-88320550D01*
X130307854Y-89122613D01*
X130304698Y-89948357D01*
X130303948Y-90152551D01*
X130300829Y-90983398D01*
X130297622Y-91791527D01*
X130294350Y-92572873D01*
X130291036Y-93323373D01*
X130287705Y-94038963D01*
X130284379Y-94715581D01*
X130281082Y-95349161D01*
X130277837Y-95935640D01*
X130274668Y-96470955D01*
X130271598Y-96951042D01*
X130268651Y-97371837D01*
X130265849Y-97729276D01*
X130263217Y-98019297D01*
X130260778Y-98237834D01*
X130258555Y-98380824D01*
X130256572Y-98444205D01*
X130256127Y-98447126D01*
X130211678Y-98439503D01*
X130112440Y-98403602D01*
X129984500Y-98349216D01*
X129891315Y-98308200D01*
X129729832Y-98238173D01*
X129509666Y-98143261D01*
X129240429Y-98027593D01*
X128931737Y-97895296D01*
X128593202Y-97750497D01*
X128234439Y-97597324D01*
X128048044Y-97517851D01*
X126365588Y-96800833D01*
X126365294Y-87603110D01*
X126365000Y-78405386D01*
X126460250Y-78424680D01*
M02*
