G04 #@! TF.GenerationSoftware,KiCad,Pcbnew,(5.1.0)-1*
G04 #@! TF.CreationDate,2019-06-11T16:03:23-04:00*
G04 #@! TF.ProjectId,PSX_BREAKOUT_CASE,5053585f-4252-4454-914b-4f55545f4341,rev?*
G04 #@! TF.SameCoordinates,Original*
G04 #@! TF.FileFunction,Soldermask,Bot*
G04 #@! TF.FilePolarity,Negative*
%FSLAX46Y46*%
G04 Gerber Fmt 4.6, Leading zero omitted, Abs format (unit mm)*
G04 Created by KiCad (PCBNEW (5.1.0)-1) date 2019-06-11 16:03:23*
%MOMM*%
%LPD*%
G04 APERTURE LIST*
%ADD10C,0.100000*%
G04 APERTURE END LIST*
D10*
G36*
X110103256Y-95038298D02*
G01*
X110209579Y-95059447D01*
X110510042Y-95183903D01*
X110780451Y-95364585D01*
X111010415Y-95594549D01*
X111191097Y-95864958D01*
X111315553Y-96165421D01*
X111379000Y-96484391D01*
X111379000Y-96809609D01*
X111315553Y-97128579D01*
X111191097Y-97429042D01*
X111010415Y-97699451D01*
X110780451Y-97929415D01*
X110510042Y-98110097D01*
X110209579Y-98234553D01*
X110103256Y-98255702D01*
X109890611Y-98298000D01*
X109565389Y-98298000D01*
X109352744Y-98255702D01*
X109246421Y-98234553D01*
X108945958Y-98110097D01*
X108675549Y-97929415D01*
X108445585Y-97699451D01*
X108264903Y-97429042D01*
X108140447Y-97128579D01*
X108077000Y-96809609D01*
X108077000Y-96484391D01*
X108140447Y-96165421D01*
X108264903Y-95864958D01*
X108445585Y-95594549D01*
X108675549Y-95364585D01*
X108945958Y-95183903D01*
X109246421Y-95059447D01*
X109352744Y-95038298D01*
X109565389Y-94996000D01*
X109890611Y-94996000D01*
X110103256Y-95038298D01*
X110103256Y-95038298D01*
G37*
G36*
X162554256Y-90720298D02*
G01*
X162660579Y-90741447D01*
X162961042Y-90865903D01*
X163231451Y-91046585D01*
X163461415Y-91276549D01*
X163642097Y-91546958D01*
X163766553Y-91847421D01*
X163830000Y-92166391D01*
X163830000Y-92491609D01*
X163766553Y-92810579D01*
X163642097Y-93111042D01*
X163461415Y-93381451D01*
X163231451Y-93611415D01*
X162961042Y-93792097D01*
X162660579Y-93916553D01*
X162554256Y-93937702D01*
X162341611Y-93980000D01*
X162016389Y-93980000D01*
X161803744Y-93937702D01*
X161697421Y-93916553D01*
X161396958Y-93792097D01*
X161126549Y-93611415D01*
X160896585Y-93381451D01*
X160715903Y-93111042D01*
X160591447Y-92810579D01*
X160528000Y-92491609D01*
X160528000Y-92166391D01*
X160591447Y-91847421D01*
X160715903Y-91546958D01*
X160896585Y-91276549D01*
X161126549Y-91046585D01*
X161396958Y-90865903D01*
X161697421Y-90741447D01*
X161803744Y-90720298D01*
X162016389Y-90678000D01*
X162341611Y-90678000D01*
X162554256Y-90720298D01*
X162554256Y-90720298D01*
G37*
G36*
X107817256Y-79798298D02*
G01*
X107923579Y-79819447D01*
X108224042Y-79943903D01*
X108494451Y-80124585D01*
X108724415Y-80354549D01*
X108905097Y-80624958D01*
X109029553Y-80925421D01*
X109093000Y-81244391D01*
X109093000Y-81569609D01*
X109029553Y-81888579D01*
X108905097Y-82189042D01*
X108724415Y-82459451D01*
X108494451Y-82689415D01*
X108224042Y-82870097D01*
X107923579Y-82994553D01*
X107817256Y-83015702D01*
X107604611Y-83058000D01*
X107279389Y-83058000D01*
X107066744Y-83015702D01*
X106960421Y-82994553D01*
X106659958Y-82870097D01*
X106389549Y-82689415D01*
X106159585Y-82459451D01*
X105978903Y-82189042D01*
X105854447Y-81888579D01*
X105791000Y-81569609D01*
X105791000Y-81244391D01*
X105854447Y-80925421D01*
X105978903Y-80624958D01*
X106159585Y-80354549D01*
X106389549Y-80124585D01*
X106659958Y-79943903D01*
X106960421Y-79819447D01*
X107066744Y-79798298D01*
X107279389Y-79756000D01*
X107604611Y-79756000D01*
X107817256Y-79798298D01*
X107817256Y-79798298D01*
G37*
G36*
X146679256Y-79544298D02*
G01*
X146785579Y-79565447D01*
X147086042Y-79689903D01*
X147356451Y-79870585D01*
X147586415Y-80100549D01*
X147767097Y-80370958D01*
X147891553Y-80671421D01*
X147955000Y-80990391D01*
X147955000Y-81315609D01*
X147891553Y-81634579D01*
X147767097Y-81935042D01*
X147586415Y-82205451D01*
X147356451Y-82435415D01*
X147086042Y-82616097D01*
X146785579Y-82740553D01*
X146679256Y-82761702D01*
X146466611Y-82804000D01*
X146141389Y-82804000D01*
X145928744Y-82761702D01*
X145822421Y-82740553D01*
X145521958Y-82616097D01*
X145251549Y-82435415D01*
X145021585Y-82205451D01*
X144840903Y-81935042D01*
X144716447Y-81634579D01*
X144653000Y-81315609D01*
X144653000Y-80990391D01*
X144716447Y-80671421D01*
X144840903Y-80370958D01*
X145021585Y-80100549D01*
X145251549Y-79870585D01*
X145521958Y-79689903D01*
X145822421Y-79565447D01*
X145928744Y-79544298D01*
X146141389Y-79502000D01*
X146466611Y-79502000D01*
X146679256Y-79544298D01*
X146679256Y-79544298D01*
G37*
G36*
X110103256Y-59478298D02*
G01*
X110209579Y-59499447D01*
X110510042Y-59623903D01*
X110780451Y-59804585D01*
X111010415Y-60034549D01*
X111191097Y-60304958D01*
X111315553Y-60605421D01*
X111379000Y-60924391D01*
X111379000Y-61249609D01*
X111315553Y-61568579D01*
X111191097Y-61869042D01*
X111010415Y-62139451D01*
X110780451Y-62369415D01*
X110510042Y-62550097D01*
X110209579Y-62674553D01*
X110103256Y-62695702D01*
X109890611Y-62738000D01*
X109565389Y-62738000D01*
X109352744Y-62695702D01*
X109246421Y-62674553D01*
X108945958Y-62550097D01*
X108675549Y-62369415D01*
X108445585Y-62139451D01*
X108264903Y-61869042D01*
X108140447Y-61568579D01*
X108077000Y-61249609D01*
X108077000Y-60924391D01*
X108140447Y-60605421D01*
X108264903Y-60304958D01*
X108445585Y-60034549D01*
X108675549Y-59804585D01*
X108945958Y-59623903D01*
X109246421Y-59499447D01*
X109352744Y-59478298D01*
X109565389Y-59436000D01*
X109890611Y-59436000D01*
X110103256Y-59478298D01*
X110103256Y-59478298D01*
G37*
G36*
X162554256Y-55160298D02*
G01*
X162660579Y-55181447D01*
X162961042Y-55305903D01*
X163231451Y-55486585D01*
X163461415Y-55716549D01*
X163642097Y-55986958D01*
X163766553Y-56287421D01*
X163830000Y-56606391D01*
X163830000Y-56931609D01*
X163766553Y-57250579D01*
X163642097Y-57551042D01*
X163461415Y-57821451D01*
X163231451Y-58051415D01*
X162961042Y-58232097D01*
X162660579Y-58356553D01*
X162554256Y-58377702D01*
X162341611Y-58420000D01*
X162016389Y-58420000D01*
X161803744Y-58377702D01*
X161697421Y-58356553D01*
X161396958Y-58232097D01*
X161126549Y-58051415D01*
X160896585Y-57821451D01*
X160715903Y-57551042D01*
X160591447Y-57250579D01*
X160528000Y-56931609D01*
X160528000Y-56606391D01*
X160591447Y-56287421D01*
X160715903Y-55986958D01*
X160896585Y-55716549D01*
X161126549Y-55486585D01*
X161396958Y-55305903D01*
X161697421Y-55181447D01*
X161803744Y-55160298D01*
X162016389Y-55118000D01*
X162341611Y-55118000D01*
X162554256Y-55160298D01*
X162554256Y-55160298D01*
G37*
G36*
X107817256Y-44238298D02*
G01*
X107923579Y-44259447D01*
X108224042Y-44383903D01*
X108494451Y-44564585D01*
X108724415Y-44794549D01*
X108905097Y-45064958D01*
X109029553Y-45365421D01*
X109093000Y-45684391D01*
X109093000Y-46009609D01*
X109029553Y-46328579D01*
X108905097Y-46629042D01*
X108724415Y-46899451D01*
X108494451Y-47129415D01*
X108224042Y-47310097D01*
X107923579Y-47434553D01*
X107817256Y-47455702D01*
X107604611Y-47498000D01*
X107279389Y-47498000D01*
X107066744Y-47455702D01*
X106960421Y-47434553D01*
X106659958Y-47310097D01*
X106389549Y-47129415D01*
X106159585Y-46899451D01*
X105978903Y-46629042D01*
X105854447Y-46328579D01*
X105791000Y-46009609D01*
X105791000Y-45684391D01*
X105854447Y-45365421D01*
X105978903Y-45064958D01*
X106159585Y-44794549D01*
X106389549Y-44564585D01*
X106659958Y-44383903D01*
X106960421Y-44259447D01*
X107066744Y-44238298D01*
X107279389Y-44196000D01*
X107604611Y-44196000D01*
X107817256Y-44238298D01*
X107817256Y-44238298D01*
G37*
G36*
X146679256Y-43984298D02*
G01*
X146785579Y-44005447D01*
X147086042Y-44129903D01*
X147356451Y-44310585D01*
X147586415Y-44540549D01*
X147767097Y-44810958D01*
X147891553Y-45111421D01*
X147955000Y-45430391D01*
X147955000Y-45755609D01*
X147891553Y-46074579D01*
X147767097Y-46375042D01*
X147586415Y-46645451D01*
X147356451Y-46875415D01*
X147086042Y-47056097D01*
X146785579Y-47180553D01*
X146679256Y-47201702D01*
X146466611Y-47244000D01*
X146141389Y-47244000D01*
X145928744Y-47201702D01*
X145822421Y-47180553D01*
X145521958Y-47056097D01*
X145251549Y-46875415D01*
X145021585Y-46645451D01*
X144840903Y-46375042D01*
X144716447Y-46074579D01*
X144653000Y-45755609D01*
X144653000Y-45430391D01*
X144716447Y-45111421D01*
X144840903Y-44810958D01*
X145021585Y-44540549D01*
X145251549Y-44310585D01*
X145521958Y-44129903D01*
X145822421Y-44005447D01*
X145928744Y-43984298D01*
X146141389Y-43942000D01*
X146466611Y-43942000D01*
X146679256Y-43984298D01*
X146679256Y-43984298D01*
G37*
M02*
