G04 #@! TF.GenerationSoftware,KiCad,Pcbnew,(5.1.0)-1*
G04 #@! TF.CreationDate,2019-06-24T23:31:03-04:00*
G04 #@! TF.ProjectId,PSX_BREAKOUT_CASE,5053585f-4252-4454-914b-4f55545f4341,rev?*
G04 #@! TF.SameCoordinates,Original*
G04 #@! TF.FileFunction,Copper,L2,Bot*
G04 #@! TF.FilePolarity,Positive*
%FSLAX46Y46*%
G04 Gerber Fmt 4.6, Leading zero omitted, Abs format (unit mm)*
G04 Created by KiCad (PCBNEW (5.1.0)-1) date 2019-06-24 23:31:03*
%MOMM*%
%LPD*%
G04 APERTURE LIST*
%ADD10C,0.010000*%
G04 APERTURE END LIST*
D10*
G36*
X178777844Y-63319844D02*
G01*
X178572742Y-63390957D01*
X178381785Y-63502889D01*
X178211243Y-63655625D01*
X178067387Y-63849151D01*
X178002768Y-63971129D01*
X177946842Y-64141743D01*
X177919735Y-64338711D01*
X177922738Y-64541205D01*
X177956067Y-64724699D01*
X178047162Y-64948924D01*
X178179258Y-65143422D01*
X178345642Y-65304367D01*
X178539598Y-65427933D01*
X178754414Y-65510292D01*
X178983375Y-65547617D01*
X179219767Y-65536082D01*
X179336291Y-65511430D01*
X179563385Y-65423091D01*
X179765081Y-65288290D01*
X179936515Y-65111183D01*
X180072820Y-64895927D01*
X180084352Y-64872419D01*
X180124217Y-64784205D01*
X180149249Y-64709910D01*
X180162839Y-64631535D01*
X180168382Y-64531080D01*
X180169302Y-64421774D01*
X180167780Y-64290448D01*
X180160914Y-64195509D01*
X180145250Y-64118753D01*
X180117333Y-64041974D01*
X180082873Y-63966223D01*
X179954338Y-63751190D01*
X179796052Y-63577080D01*
X179614287Y-63443876D01*
X179415313Y-63351566D01*
X179205400Y-63300134D01*
X178990821Y-63289565D01*
X178777844Y-63319844D01*
X178777844Y-63319844D01*
G37*
X178777844Y-63319844D02*
X178572742Y-63390957D01*
X178381785Y-63502889D01*
X178211243Y-63655625D01*
X178067387Y-63849151D01*
X178002768Y-63971129D01*
X177946842Y-64141743D01*
X177919735Y-64338711D01*
X177922738Y-64541205D01*
X177956067Y-64724699D01*
X178047162Y-64948924D01*
X178179258Y-65143422D01*
X178345642Y-65304367D01*
X178539598Y-65427933D01*
X178754414Y-65510292D01*
X178983375Y-65547617D01*
X179219767Y-65536082D01*
X179336291Y-65511430D01*
X179563385Y-65423091D01*
X179765081Y-65288290D01*
X179936515Y-65111183D01*
X180072820Y-64895927D01*
X180084352Y-64872419D01*
X180124217Y-64784205D01*
X180149249Y-64709910D01*
X180162839Y-64631535D01*
X180168382Y-64531080D01*
X180169302Y-64421774D01*
X180167780Y-64290448D01*
X180160914Y-64195509D01*
X180145250Y-64118753D01*
X180117333Y-64041974D01*
X180082873Y-63966223D01*
X179954338Y-63751190D01*
X179796052Y-63577080D01*
X179614287Y-63443876D01*
X179415313Y-63351566D01*
X179205400Y-63300134D01*
X178990821Y-63289565D01*
X178777844Y-63319844D01*
G36*
X159744033Y-65150618D02*
G01*
X159511746Y-65151571D01*
X159432796Y-65152052D01*
X158347151Y-65159193D01*
X158333495Y-69324247D01*
X158331692Y-69889041D01*
X158330092Y-70401864D01*
X158328594Y-70865371D01*
X158327094Y-71282214D01*
X158325491Y-71655045D01*
X158323680Y-71986519D01*
X158321560Y-72279286D01*
X158319028Y-72536002D01*
X158315980Y-72759318D01*
X158312315Y-72951887D01*
X158307929Y-73116363D01*
X158302720Y-73255398D01*
X158296584Y-73371644D01*
X158289420Y-73467756D01*
X158281125Y-73546386D01*
X158271595Y-73610187D01*
X158260728Y-73661811D01*
X158248421Y-73703912D01*
X158234572Y-73739143D01*
X158219077Y-73770156D01*
X158201835Y-73799604D01*
X158182742Y-73830141D01*
X158161695Y-73864418D01*
X158157381Y-73871720D01*
X158085004Y-73995221D01*
X159131024Y-73988068D01*
X160177044Y-73980914D01*
X160190699Y-73751142D01*
X160198135Y-73640873D01*
X160205883Y-73577122D01*
X160216397Y-73551827D01*
X160232128Y-73556922D01*
X160245323Y-73571498D01*
X160302803Y-73624591D01*
X160396487Y-73692837D01*
X160513175Y-73768080D01*
X160639669Y-73842167D01*
X160762769Y-73906943D01*
X160857287Y-73949561D01*
X161078726Y-74019595D01*
X161332793Y-74069204D01*
X161600734Y-74096494D01*
X161863789Y-74099569D01*
X162103205Y-74076532D01*
X162107147Y-74075873D01*
X162434747Y-73993669D01*
X162741413Y-73862700D01*
X163024186Y-73685780D01*
X163280108Y-73465726D01*
X163506222Y-73205351D01*
X163699570Y-72907472D01*
X163857194Y-72574904D01*
X163943016Y-72328548D01*
X163999611Y-72122445D01*
X164041582Y-71922867D01*
X164070211Y-71717690D01*
X164086782Y-71494791D01*
X164092577Y-71242045D01*
X164090011Y-71035662D01*
X162074675Y-71035662D01*
X162065138Y-71381732D01*
X162035054Y-71679467D01*
X161983497Y-71931510D01*
X161909542Y-72140502D01*
X161812262Y-72309086D01*
X161690734Y-72439906D01*
X161550454Y-72532385D01*
X161477460Y-72566909D01*
X161414153Y-72587607D01*
X161343573Y-72597077D01*
X161248758Y-72597915D01*
X161146613Y-72594228D01*
X160945739Y-72576510D01*
X160786866Y-72541813D01*
X160736936Y-72524433D01*
X160622925Y-72473102D01*
X160502677Y-72408643D01*
X160450162Y-72376376D01*
X160313603Y-72286805D01*
X160313603Y-69447706D01*
X160463818Y-69357665D01*
X160673308Y-69255923D01*
X160887342Y-69195751D01*
X161098091Y-69176796D01*
X161297727Y-69198701D01*
X161478423Y-69261113D01*
X161632351Y-69363676D01*
X161682019Y-69412906D01*
X161801738Y-69574211D01*
X161898636Y-69769471D01*
X161973523Y-70002031D01*
X162027207Y-70275239D01*
X162060500Y-70592441D01*
X162074211Y-70956984D01*
X162074675Y-71035662D01*
X164090011Y-71035662D01*
X164088942Y-70949756D01*
X164065918Y-70500158D01*
X164019622Y-70094628D01*
X163948836Y-69727257D01*
X163852339Y-69392137D01*
X163728913Y-69083363D01*
X163684869Y-68991822D01*
X163507460Y-68693296D01*
X163293070Y-68428007D01*
X163046741Y-68200237D01*
X162773513Y-68014268D01*
X162478426Y-67874382D01*
X162301541Y-67816678D01*
X162127822Y-67782422D01*
X161918795Y-67762041D01*
X161691986Y-67755525D01*
X161464916Y-67762866D01*
X161255108Y-67784055D01*
X161086648Y-67817295D01*
X160886143Y-67882482D01*
X160691805Y-67966307D01*
X160521776Y-68060280D01*
X160431279Y-68124058D01*
X160368856Y-68171484D01*
X160325147Y-68200361D01*
X160315204Y-68204462D01*
X160312121Y-68178041D01*
X160309247Y-68102339D01*
X160306645Y-67982698D01*
X160304379Y-67824462D01*
X160302512Y-67632973D01*
X160301109Y-67413574D01*
X160300233Y-67171607D01*
X160299947Y-66925147D01*
X160300106Y-66609476D01*
X160300892Y-66343337D01*
X160302762Y-66121641D01*
X160306175Y-65939296D01*
X160311591Y-65791212D01*
X160319469Y-65672299D01*
X160330267Y-65577465D01*
X160344445Y-65501620D01*
X160362461Y-65439674D01*
X160384775Y-65386536D01*
X160411846Y-65337115D01*
X160444133Y-65286321D01*
X160448287Y-65280031D01*
X160489929Y-65214245D01*
X160515071Y-65169008D01*
X160518441Y-65159466D01*
X160492097Y-65156455D01*
X160416931Y-65154006D01*
X160298743Y-65152158D01*
X160143331Y-65150951D01*
X159956494Y-65150424D01*
X159744033Y-65150618D01*
X159744033Y-65150618D01*
G37*
X159744033Y-65150618D02*
X159511746Y-65151571D01*
X159432796Y-65152052D01*
X158347151Y-65159193D01*
X158333495Y-69324247D01*
X158331692Y-69889041D01*
X158330092Y-70401864D01*
X158328594Y-70865371D01*
X158327094Y-71282214D01*
X158325491Y-71655045D01*
X158323680Y-71986519D01*
X158321560Y-72279286D01*
X158319028Y-72536002D01*
X158315980Y-72759318D01*
X158312315Y-72951887D01*
X158307929Y-73116363D01*
X158302720Y-73255398D01*
X158296584Y-73371644D01*
X158289420Y-73467756D01*
X158281125Y-73546386D01*
X158271595Y-73610187D01*
X158260728Y-73661811D01*
X158248421Y-73703912D01*
X158234572Y-73739143D01*
X158219077Y-73770156D01*
X158201835Y-73799604D01*
X158182742Y-73830141D01*
X158161695Y-73864418D01*
X158157381Y-73871720D01*
X158085004Y-73995221D01*
X159131024Y-73988068D01*
X160177044Y-73980914D01*
X160190699Y-73751142D01*
X160198135Y-73640873D01*
X160205883Y-73577122D01*
X160216397Y-73551827D01*
X160232128Y-73556922D01*
X160245323Y-73571498D01*
X160302803Y-73624591D01*
X160396487Y-73692837D01*
X160513175Y-73768080D01*
X160639669Y-73842167D01*
X160762769Y-73906943D01*
X160857287Y-73949561D01*
X161078726Y-74019595D01*
X161332793Y-74069204D01*
X161600734Y-74096494D01*
X161863789Y-74099569D01*
X162103205Y-74076532D01*
X162107147Y-74075873D01*
X162434747Y-73993669D01*
X162741413Y-73862700D01*
X163024186Y-73685780D01*
X163280108Y-73465726D01*
X163506222Y-73205351D01*
X163699570Y-72907472D01*
X163857194Y-72574904D01*
X163943016Y-72328548D01*
X163999611Y-72122445D01*
X164041582Y-71922867D01*
X164070211Y-71717690D01*
X164086782Y-71494791D01*
X164092577Y-71242045D01*
X164090011Y-71035662D01*
X162074675Y-71035662D01*
X162065138Y-71381732D01*
X162035054Y-71679467D01*
X161983497Y-71931510D01*
X161909542Y-72140502D01*
X161812262Y-72309086D01*
X161690734Y-72439906D01*
X161550454Y-72532385D01*
X161477460Y-72566909D01*
X161414153Y-72587607D01*
X161343573Y-72597077D01*
X161248758Y-72597915D01*
X161146613Y-72594228D01*
X160945739Y-72576510D01*
X160786866Y-72541813D01*
X160736936Y-72524433D01*
X160622925Y-72473102D01*
X160502677Y-72408643D01*
X160450162Y-72376376D01*
X160313603Y-72286805D01*
X160313603Y-69447706D01*
X160463818Y-69357665D01*
X160673308Y-69255923D01*
X160887342Y-69195751D01*
X161098091Y-69176796D01*
X161297727Y-69198701D01*
X161478423Y-69261113D01*
X161632351Y-69363676D01*
X161682019Y-69412906D01*
X161801738Y-69574211D01*
X161898636Y-69769471D01*
X161973523Y-70002031D01*
X162027207Y-70275239D01*
X162060500Y-70592441D01*
X162074211Y-70956984D01*
X162074675Y-71035662D01*
X164090011Y-71035662D01*
X164088942Y-70949756D01*
X164065918Y-70500158D01*
X164019622Y-70094628D01*
X163948836Y-69727257D01*
X163852339Y-69392137D01*
X163728913Y-69083363D01*
X163684869Y-68991822D01*
X163507460Y-68693296D01*
X163293070Y-68428007D01*
X163046741Y-68200237D01*
X162773513Y-68014268D01*
X162478426Y-67874382D01*
X162301541Y-67816678D01*
X162127822Y-67782422D01*
X161918795Y-67762041D01*
X161691986Y-67755525D01*
X161464916Y-67762866D01*
X161255108Y-67784055D01*
X161086648Y-67817295D01*
X160886143Y-67882482D01*
X160691805Y-67966307D01*
X160521776Y-68060280D01*
X160431279Y-68124058D01*
X160368856Y-68171484D01*
X160325147Y-68200361D01*
X160315204Y-68204462D01*
X160312121Y-68178041D01*
X160309247Y-68102339D01*
X160306645Y-67982698D01*
X160304379Y-67824462D01*
X160302512Y-67632973D01*
X160301109Y-67413574D01*
X160300233Y-67171607D01*
X160299947Y-66925147D01*
X160300106Y-66609476D01*
X160300892Y-66343337D01*
X160302762Y-66121641D01*
X160306175Y-65939296D01*
X160311591Y-65791212D01*
X160319469Y-65672299D01*
X160330267Y-65577465D01*
X160344445Y-65501620D01*
X160362461Y-65439674D01*
X160384775Y-65386536D01*
X160411846Y-65337115D01*
X160444133Y-65286321D01*
X160448287Y-65280031D01*
X160489929Y-65214245D01*
X160515071Y-65169008D01*
X160518441Y-65159466D01*
X160492097Y-65156455D01*
X160416931Y-65154006D01*
X160298743Y-65152158D01*
X160143331Y-65150951D01*
X159956494Y-65150424D01*
X159744033Y-65150618D01*
G36*
X167054049Y-67751368D02*
G01*
X166918728Y-67761611D01*
X166531558Y-67813122D01*
X166188679Y-67895283D01*
X165888420Y-68009222D01*
X165629112Y-68156072D01*
X165409084Y-68336962D01*
X165226666Y-68553022D01*
X165080189Y-68805384D01*
X164973229Y-69078441D01*
X164946079Y-69165541D01*
X164922436Y-69247107D01*
X164902023Y-69327529D01*
X164884561Y-69411199D01*
X164869770Y-69502508D01*
X164857373Y-69605847D01*
X164847089Y-69725609D01*
X164838642Y-69866183D01*
X164831752Y-70031962D01*
X164826139Y-70227336D01*
X164821527Y-70456698D01*
X164817635Y-70724437D01*
X164814185Y-71034947D01*
X164810898Y-71392618D01*
X164808549Y-71673064D01*
X164792742Y-73598548D01*
X164690323Y-73783843D01*
X164641825Y-73873111D01*
X164605734Y-73942448D01*
X164588517Y-73979354D01*
X164587904Y-73981854D01*
X164614220Y-73984715D01*
X164689189Y-73987351D01*
X164806839Y-73989689D01*
X164961200Y-73991653D01*
X165146300Y-73993170D01*
X165356168Y-73994165D01*
X165584833Y-73994565D01*
X165612097Y-73994570D01*
X166636291Y-73994570D01*
X166636291Y-73762419D01*
X166638037Y-73657507D01*
X166642698Y-73577271D01*
X166649404Y-73534251D01*
X166652368Y-73530269D01*
X166679477Y-73546950D01*
X166735269Y-73590731D01*
X166807785Y-73652216D01*
X166809411Y-73653638D01*
X166941743Y-73752160D01*
X167108867Y-73851089D01*
X167291900Y-73940706D01*
X167471957Y-74011293D01*
X167551237Y-74035414D01*
X167709009Y-74066051D01*
X167902603Y-74085602D01*
X168114296Y-74093787D01*
X168326368Y-74090327D01*
X168521096Y-74074945D01*
X168657366Y-74052811D01*
X168991546Y-73954676D01*
X169292397Y-73814819D01*
X169557961Y-73634974D01*
X169786279Y-73416876D01*
X169975394Y-73162261D01*
X170123347Y-72872864D01*
X170187175Y-72697258D01*
X170227177Y-72526576D01*
X170253687Y-72321678D01*
X170265953Y-72101464D01*
X170265550Y-72069420D01*
X168418388Y-72069420D01*
X168403070Y-72233053D01*
X168352065Y-72369042D01*
X168257796Y-72495208D01*
X168221589Y-72532203D01*
X168092880Y-72632221D01*
X167944115Y-72696294D01*
X167765887Y-72727309D01*
X167578202Y-72729593D01*
X167400186Y-72714514D01*
X167263888Y-72685021D01*
X167204694Y-72662869D01*
X167098005Y-72602496D01*
X166984963Y-72517589D01*
X166881825Y-72422295D01*
X166804849Y-72330760D01*
X166784409Y-72297181D01*
X166768519Y-72250157D01*
X166757222Y-72175333D01*
X166749991Y-72065560D01*
X166746300Y-71913692D01*
X166745538Y-71769155D01*
X166746054Y-71600644D01*
X166748140Y-71478799D01*
X166752598Y-71395666D01*
X166760235Y-71343292D01*
X166771854Y-71313726D01*
X166788260Y-71299013D01*
X166793334Y-71296670D01*
X166837430Y-71289453D01*
X166924400Y-71283550D01*
X167042500Y-71279493D01*
X167179986Y-71277815D01*
X167209839Y-71277813D01*
X167393614Y-71280746D01*
X167535593Y-71289469D01*
X167648409Y-71305177D01*
X167741598Y-71328118D01*
X167972754Y-71415535D01*
X168154027Y-71523010D01*
X168286986Y-71652262D01*
X168373199Y-71805010D01*
X168414238Y-71982972D01*
X168418388Y-72069420D01*
X170265550Y-72069420D01*
X170263224Y-71884834D01*
X170244748Y-71690689D01*
X170230336Y-71612252D01*
X170138310Y-71321017D01*
X169998377Y-71053054D01*
X169813177Y-70810932D01*
X169585352Y-70597221D01*
X169317543Y-70414492D01*
X169012393Y-70265314D01*
X168752957Y-70174727D01*
X168579566Y-70127136D01*
X168413718Y-70090155D01*
X168244671Y-70062585D01*
X168061683Y-70043224D01*
X167854011Y-70030871D01*
X167610913Y-70024326D01*
X167391128Y-70022483D01*
X166739406Y-70020699D01*
X166751891Y-69824798D01*
X166787343Y-69612243D01*
X166862759Y-69429543D01*
X166974927Y-69281262D01*
X167120636Y-69171960D01*
X167248936Y-69118624D01*
X167432765Y-69085010D01*
X167651606Y-69080183D01*
X167895200Y-69102363D01*
X168153290Y-69149772D01*
X168415615Y-69220629D01*
X168671918Y-69313155D01*
X168858176Y-69397778D01*
X168947789Y-69441231D01*
X169016142Y-69471580D01*
X169050903Y-69483423D01*
X169052789Y-69483043D01*
X169064785Y-69456518D01*
X169094738Y-69386210D01*
X169139830Y-69278855D01*
X169197243Y-69141190D01*
X169264158Y-68979949D01*
X169332176Y-68815395D01*
X169604103Y-68156328D01*
X169410681Y-68124559D01*
X169326846Y-68108619D01*
X169200817Y-68081847D01*
X169043392Y-68046673D01*
X168865367Y-68005528D01*
X168677537Y-67960842D01*
X168602742Y-67942683D01*
X168279162Y-67867631D01*
X167995868Y-67811362D01*
X167742285Y-67772738D01*
X167507838Y-67750623D01*
X167281951Y-67743878D01*
X167054049Y-67751368D01*
X167054049Y-67751368D01*
G37*
X167054049Y-67751368D02*
X166918728Y-67761611D01*
X166531558Y-67813122D01*
X166188679Y-67895283D01*
X165888420Y-68009222D01*
X165629112Y-68156072D01*
X165409084Y-68336962D01*
X165226666Y-68553022D01*
X165080189Y-68805384D01*
X164973229Y-69078441D01*
X164946079Y-69165541D01*
X164922436Y-69247107D01*
X164902023Y-69327529D01*
X164884561Y-69411199D01*
X164869770Y-69502508D01*
X164857373Y-69605847D01*
X164847089Y-69725609D01*
X164838642Y-69866183D01*
X164831752Y-70031962D01*
X164826139Y-70227336D01*
X164821527Y-70456698D01*
X164817635Y-70724437D01*
X164814185Y-71034947D01*
X164810898Y-71392618D01*
X164808549Y-71673064D01*
X164792742Y-73598548D01*
X164690323Y-73783843D01*
X164641825Y-73873111D01*
X164605734Y-73942448D01*
X164588517Y-73979354D01*
X164587904Y-73981854D01*
X164614220Y-73984715D01*
X164689189Y-73987351D01*
X164806839Y-73989689D01*
X164961200Y-73991653D01*
X165146300Y-73993170D01*
X165356168Y-73994165D01*
X165584833Y-73994565D01*
X165612097Y-73994570D01*
X166636291Y-73994570D01*
X166636291Y-73762419D01*
X166638037Y-73657507D01*
X166642698Y-73577271D01*
X166649404Y-73534251D01*
X166652368Y-73530269D01*
X166679477Y-73546950D01*
X166735269Y-73590731D01*
X166807785Y-73652216D01*
X166809411Y-73653638D01*
X166941743Y-73752160D01*
X167108867Y-73851089D01*
X167291900Y-73940706D01*
X167471957Y-74011293D01*
X167551237Y-74035414D01*
X167709009Y-74066051D01*
X167902603Y-74085602D01*
X168114296Y-74093787D01*
X168326368Y-74090327D01*
X168521096Y-74074945D01*
X168657366Y-74052811D01*
X168991546Y-73954676D01*
X169292397Y-73814819D01*
X169557961Y-73634974D01*
X169786279Y-73416876D01*
X169975394Y-73162261D01*
X170123347Y-72872864D01*
X170187175Y-72697258D01*
X170227177Y-72526576D01*
X170253687Y-72321678D01*
X170265953Y-72101464D01*
X170265550Y-72069420D01*
X168418388Y-72069420D01*
X168403070Y-72233053D01*
X168352065Y-72369042D01*
X168257796Y-72495208D01*
X168221589Y-72532203D01*
X168092880Y-72632221D01*
X167944115Y-72696294D01*
X167765887Y-72727309D01*
X167578202Y-72729593D01*
X167400186Y-72714514D01*
X167263888Y-72685021D01*
X167204694Y-72662869D01*
X167098005Y-72602496D01*
X166984963Y-72517589D01*
X166881825Y-72422295D01*
X166804849Y-72330760D01*
X166784409Y-72297181D01*
X166768519Y-72250157D01*
X166757222Y-72175333D01*
X166749991Y-72065560D01*
X166746300Y-71913692D01*
X166745538Y-71769155D01*
X166746054Y-71600644D01*
X166748140Y-71478799D01*
X166752598Y-71395666D01*
X166760235Y-71343292D01*
X166771854Y-71313726D01*
X166788260Y-71299013D01*
X166793334Y-71296670D01*
X166837430Y-71289453D01*
X166924400Y-71283550D01*
X167042500Y-71279493D01*
X167179986Y-71277815D01*
X167209839Y-71277813D01*
X167393614Y-71280746D01*
X167535593Y-71289469D01*
X167648409Y-71305177D01*
X167741598Y-71328118D01*
X167972754Y-71415535D01*
X168154027Y-71523010D01*
X168286986Y-71652262D01*
X168373199Y-71805010D01*
X168414238Y-71982972D01*
X168418388Y-72069420D01*
X170265550Y-72069420D01*
X170263224Y-71884834D01*
X170244748Y-71690689D01*
X170230336Y-71612252D01*
X170138310Y-71321017D01*
X169998377Y-71053054D01*
X169813177Y-70810932D01*
X169585352Y-70597221D01*
X169317543Y-70414492D01*
X169012393Y-70265314D01*
X168752957Y-70174727D01*
X168579566Y-70127136D01*
X168413718Y-70090155D01*
X168244671Y-70062585D01*
X168061683Y-70043224D01*
X167854011Y-70030871D01*
X167610913Y-70024326D01*
X167391128Y-70022483D01*
X166739406Y-70020699D01*
X166751891Y-69824798D01*
X166787343Y-69612243D01*
X166862759Y-69429543D01*
X166974927Y-69281262D01*
X167120636Y-69171960D01*
X167248936Y-69118624D01*
X167432765Y-69085010D01*
X167651606Y-69080183D01*
X167895200Y-69102363D01*
X168153290Y-69149772D01*
X168415615Y-69220629D01*
X168671918Y-69313155D01*
X168858176Y-69397778D01*
X168947789Y-69441231D01*
X169016142Y-69471580D01*
X169050903Y-69483423D01*
X169052789Y-69483043D01*
X169064785Y-69456518D01*
X169094738Y-69386210D01*
X169139830Y-69278855D01*
X169197243Y-69141190D01*
X169264158Y-68979949D01*
X169332176Y-68815395D01*
X169604103Y-68156328D01*
X169410681Y-68124559D01*
X169326846Y-68108619D01*
X169200817Y-68081847D01*
X169043392Y-68046673D01*
X168865367Y-68005528D01*
X168677537Y-67960842D01*
X168602742Y-67942683D01*
X168279162Y-67867631D01*
X167995868Y-67811362D01*
X167742285Y-67772738D01*
X167507838Y-67750623D01*
X167281951Y-67743878D01*
X167054049Y-67751368D01*
G36*
X172479807Y-65555777D02*
G01*
X172185294Y-65588019D01*
X171899961Y-65645729D01*
X171612200Y-65731917D01*
X171310404Y-65849593D01*
X170982966Y-66001767D01*
X170923999Y-66031243D01*
X170788676Y-66097910D01*
X170661049Y-66157939D01*
X170553713Y-66205599D01*
X170479264Y-66235155D01*
X170467827Y-66238876D01*
X170358226Y-66271714D01*
X170848845Y-66985453D01*
X170968794Y-67159895D01*
X171078461Y-67319270D01*
X171174117Y-67458168D01*
X171252031Y-67571178D01*
X171308475Y-67652890D01*
X171339719Y-67697891D01*
X171344795Y-67705018D01*
X171365412Y-67690117D01*
X171416161Y-67645320D01*
X171487966Y-67578765D01*
X171527594Y-67541147D01*
X171752118Y-67362568D01*
X172004274Y-67226868D01*
X172221560Y-67152537D01*
X172351993Y-67129193D01*
X172515307Y-67114967D01*
X172692293Y-67110124D01*
X172863744Y-67114926D01*
X173010452Y-67129638D01*
X173068993Y-67140905D01*
X173332853Y-67231685D01*
X173570622Y-67370296D01*
X173782124Y-67556485D01*
X173967184Y-67789999D01*
X174125625Y-68070584D01*
X174257271Y-68397987D01*
X174361946Y-68771955D01*
X174424155Y-69092097D01*
X174440386Y-69233426D01*
X174451444Y-69416004D01*
X174457437Y-69626709D01*
X174458473Y-69852422D01*
X174454657Y-70080022D01*
X174446097Y-70296389D01*
X174432899Y-70488402D01*
X174415170Y-70642943D01*
X174411333Y-70666786D01*
X174326749Y-71050860D01*
X174211505Y-71390783D01*
X174064897Y-71688078D01*
X173886226Y-71944268D01*
X173759400Y-72082775D01*
X173531475Y-72270828D01*
X173281512Y-72410220D01*
X173013730Y-72500195D01*
X172732344Y-72539994D01*
X172441571Y-72528857D01*
X172145627Y-72466026D01*
X171970660Y-72404547D01*
X171728534Y-72281436D01*
X171478980Y-72104837D01*
X171339191Y-71985412D01*
X171260699Y-71916291D01*
X171199030Y-71865579D01*
X171163928Y-71841144D01*
X171159570Y-71840398D01*
X171143903Y-71865367D01*
X171103308Y-71931348D01*
X171041243Y-72032685D01*
X170961167Y-72163721D01*
X170866538Y-72318800D01*
X170760814Y-72492265D01*
X170701967Y-72588896D01*
X170252474Y-73327201D01*
X170813683Y-73604549D01*
X171016596Y-73704172D01*
X171180973Y-73782729D01*
X171316861Y-73844122D01*
X171434309Y-73892253D01*
X171543364Y-73931023D01*
X171654074Y-73964333D01*
X171776487Y-73996086D01*
X171893818Y-74023969D01*
X171998105Y-74045546D01*
X172107168Y-74061851D01*
X172231927Y-74073791D01*
X172383297Y-74082270D01*
X172572199Y-74088192D01*
X172699517Y-74090749D01*
X172881177Y-74092494D01*
X173055367Y-74091614D01*
X173210557Y-74088360D01*
X173335223Y-74082984D01*
X173417834Y-74075735D01*
X173422730Y-74075012D01*
X173851709Y-73982205D01*
X174254551Y-73841449D01*
X174631112Y-73652839D01*
X174981252Y-73416466D01*
X175304828Y-73132424D01*
X175601700Y-72800805D01*
X175816701Y-72506075D01*
X176045589Y-72120298D01*
X176230611Y-71712895D01*
X176372662Y-71280600D01*
X176472636Y-70820146D01*
X176531428Y-70328267D01*
X176549951Y-69828799D01*
X176534717Y-69345634D01*
X176486844Y-68899842D01*
X176404811Y-68483905D01*
X176287097Y-68090304D01*
X176132181Y-67711518D01*
X176113683Y-67672275D01*
X175909894Y-67305440D01*
X175659598Y-66956360D01*
X175369885Y-66632260D01*
X175047846Y-66340366D01*
X174700574Y-66087904D01*
X174376987Y-65902714D01*
X174050096Y-65757670D01*
X173722511Y-65652603D01*
X173381552Y-65584653D01*
X173014535Y-65550960D01*
X172795108Y-65545992D01*
X172479807Y-65555777D01*
X172479807Y-65555777D01*
G37*
X172479807Y-65555777D02*
X172185294Y-65588019D01*
X171899961Y-65645729D01*
X171612200Y-65731917D01*
X171310404Y-65849593D01*
X170982966Y-66001767D01*
X170923999Y-66031243D01*
X170788676Y-66097910D01*
X170661049Y-66157939D01*
X170553713Y-66205599D01*
X170479264Y-66235155D01*
X170467827Y-66238876D01*
X170358226Y-66271714D01*
X170848845Y-66985453D01*
X170968794Y-67159895D01*
X171078461Y-67319270D01*
X171174117Y-67458168D01*
X171252031Y-67571178D01*
X171308475Y-67652890D01*
X171339719Y-67697891D01*
X171344795Y-67705018D01*
X171365412Y-67690117D01*
X171416161Y-67645320D01*
X171487966Y-67578765D01*
X171527594Y-67541147D01*
X171752118Y-67362568D01*
X172004274Y-67226868D01*
X172221560Y-67152537D01*
X172351993Y-67129193D01*
X172515307Y-67114967D01*
X172692293Y-67110124D01*
X172863744Y-67114926D01*
X173010452Y-67129638D01*
X173068993Y-67140905D01*
X173332853Y-67231685D01*
X173570622Y-67370296D01*
X173782124Y-67556485D01*
X173967184Y-67789999D01*
X174125625Y-68070584D01*
X174257271Y-68397987D01*
X174361946Y-68771955D01*
X174424155Y-69092097D01*
X174440386Y-69233426D01*
X174451444Y-69416004D01*
X174457437Y-69626709D01*
X174458473Y-69852422D01*
X174454657Y-70080022D01*
X174446097Y-70296389D01*
X174432899Y-70488402D01*
X174415170Y-70642943D01*
X174411333Y-70666786D01*
X174326749Y-71050860D01*
X174211505Y-71390783D01*
X174064897Y-71688078D01*
X173886226Y-71944268D01*
X173759400Y-72082775D01*
X173531475Y-72270828D01*
X173281512Y-72410220D01*
X173013730Y-72500195D01*
X172732344Y-72539994D01*
X172441571Y-72528857D01*
X172145627Y-72466026D01*
X171970660Y-72404547D01*
X171728534Y-72281436D01*
X171478980Y-72104837D01*
X171339191Y-71985412D01*
X171260699Y-71916291D01*
X171199030Y-71865579D01*
X171163928Y-71841144D01*
X171159570Y-71840398D01*
X171143903Y-71865367D01*
X171103308Y-71931348D01*
X171041243Y-72032685D01*
X170961167Y-72163721D01*
X170866538Y-72318800D01*
X170760814Y-72492265D01*
X170701967Y-72588896D01*
X170252474Y-73327201D01*
X170813683Y-73604549D01*
X171016596Y-73704172D01*
X171180973Y-73782729D01*
X171316861Y-73844122D01*
X171434309Y-73892253D01*
X171543364Y-73931023D01*
X171654074Y-73964333D01*
X171776487Y-73996086D01*
X171893818Y-74023969D01*
X171998105Y-74045546D01*
X172107168Y-74061851D01*
X172231927Y-74073791D01*
X172383297Y-74082270D01*
X172572199Y-74088192D01*
X172699517Y-74090749D01*
X172881177Y-74092494D01*
X173055367Y-74091614D01*
X173210557Y-74088360D01*
X173335223Y-74082984D01*
X173417834Y-74075735D01*
X173422730Y-74075012D01*
X173851709Y-73982205D01*
X174254551Y-73841449D01*
X174631112Y-73652839D01*
X174981252Y-73416466D01*
X175304828Y-73132424D01*
X175601700Y-72800805D01*
X175816701Y-72506075D01*
X176045589Y-72120298D01*
X176230611Y-71712895D01*
X176372662Y-71280600D01*
X176472636Y-70820146D01*
X176531428Y-70328267D01*
X176549951Y-69828799D01*
X176534717Y-69345634D01*
X176486844Y-68899842D01*
X176404811Y-68483905D01*
X176287097Y-68090304D01*
X176132181Y-67711518D01*
X176113683Y-67672275D01*
X175909894Y-67305440D01*
X175659598Y-66956360D01*
X175369885Y-66632260D01*
X175047846Y-66340366D01*
X174700574Y-66087904D01*
X174376987Y-65902714D01*
X174050096Y-65757670D01*
X173722511Y-65652603D01*
X173381552Y-65584653D01*
X173014535Y-65550960D01*
X172795108Y-65545992D01*
X172479807Y-65555777D01*
G36*
X185202446Y-64189541D02*
G01*
X184676244Y-64189613D01*
X184431303Y-64189623D01*
X180510699Y-64189623D01*
X180510699Y-64420734D01*
X180486032Y-64701976D01*
X180411584Y-64961359D01*
X180286686Y-65200424D01*
X180110670Y-65420714D01*
X180051118Y-65480210D01*
X179836895Y-65648971D01*
X179600690Y-65772052D01*
X179349517Y-65849510D01*
X179090393Y-65881399D01*
X178830333Y-65867776D01*
X178576353Y-65808697D01*
X178335469Y-65704217D01*
X178114696Y-65554393D01*
X178015543Y-65464001D01*
X177830773Y-65242376D01*
X177695284Y-64998661D01*
X177610256Y-64735643D01*
X177576872Y-64456106D01*
X177576428Y-64428606D01*
X177574678Y-64189632D01*
X177469645Y-64189628D01*
X177376470Y-64202273D01*
X177291356Y-64233040D01*
X177285731Y-64236219D01*
X177266508Y-64246194D01*
X177248855Y-64253962D01*
X177232708Y-64261787D01*
X177218005Y-64271930D01*
X177204681Y-64286655D01*
X177192672Y-64308225D01*
X177181915Y-64338901D01*
X177172346Y-64380947D01*
X177163901Y-64436626D01*
X177156516Y-64508199D01*
X177150127Y-64597930D01*
X177144671Y-64708082D01*
X177140084Y-64840916D01*
X177136302Y-64998696D01*
X177133260Y-65183684D01*
X177130897Y-65398144D01*
X177129147Y-65644337D01*
X177127947Y-65924527D01*
X177127232Y-66240975D01*
X177126940Y-66595946D01*
X177127007Y-66991700D01*
X177127368Y-67430502D01*
X177127960Y-67914614D01*
X177128719Y-68446298D01*
X177129581Y-69027817D01*
X177130482Y-69661433D01*
X177130587Y-69738629D01*
X177131395Y-70376287D01*
X177132081Y-70961582D01*
X177132717Y-71496778D01*
X177133376Y-71984136D01*
X177134131Y-72425917D01*
X177135053Y-72824382D01*
X177136216Y-73181795D01*
X177137693Y-73500415D01*
X177139555Y-73782506D01*
X177141876Y-74030328D01*
X177144729Y-74246143D01*
X177148185Y-74432213D01*
X177152318Y-74590800D01*
X177157200Y-74724164D01*
X177162904Y-74834569D01*
X177169502Y-74924275D01*
X177177068Y-74995544D01*
X177185673Y-75050638D01*
X177195390Y-75091818D01*
X177206293Y-75121346D01*
X177218453Y-75141484D01*
X177231943Y-75154493D01*
X177246837Y-75162636D01*
X177263206Y-75168173D01*
X177281123Y-75173366D01*
X177300661Y-75180477D01*
X177305434Y-75182642D01*
X177320434Y-75187506D01*
X177345541Y-75191976D01*
X177382946Y-75196066D01*
X177434842Y-75199793D01*
X177503420Y-75203173D01*
X177590873Y-75206221D01*
X177699394Y-75208954D01*
X177831174Y-75211387D01*
X177988406Y-75213537D01*
X178173281Y-75215419D01*
X178387993Y-75217049D01*
X178634734Y-75218443D01*
X178915694Y-75219617D01*
X179233068Y-75220587D01*
X179589047Y-75221369D01*
X179985822Y-75221979D01*
X180425588Y-75222432D01*
X180910535Y-75222745D01*
X181442856Y-75222934D01*
X182024743Y-75223013D01*
X182658389Y-75223000D01*
X182863644Y-75222980D01*
X183511347Y-75222876D01*
X184106644Y-75222706D01*
X184651755Y-75222453D01*
X185148897Y-75222098D01*
X185600290Y-75221626D01*
X186008151Y-75221018D01*
X186374700Y-75220258D01*
X186702154Y-75219327D01*
X186992732Y-75218209D01*
X187248652Y-75216886D01*
X187472133Y-75215341D01*
X187665394Y-75213557D01*
X187830652Y-75211516D01*
X187970127Y-75209201D01*
X188086037Y-75206594D01*
X188180600Y-75203678D01*
X188256034Y-75200436D01*
X188314558Y-75196851D01*
X188358391Y-75192905D01*
X188389752Y-75188581D01*
X188410857Y-75183862D01*
X188422363Y-75179540D01*
X188442812Y-75170916D01*
X188461587Y-75164557D01*
X188478760Y-75158203D01*
X188494402Y-75149597D01*
X188508584Y-75136480D01*
X188521377Y-75116594D01*
X188532852Y-75087679D01*
X188543080Y-75047479D01*
X188552133Y-74993733D01*
X188560080Y-74924185D01*
X188566994Y-74836574D01*
X188572945Y-74728644D01*
X188578005Y-74598135D01*
X188582245Y-74442789D01*
X188585735Y-74260348D01*
X188588547Y-74048553D01*
X188589283Y-73967258D01*
X187860361Y-73967258D01*
X185283987Y-73967258D01*
X185333561Y-73892150D01*
X185382878Y-73814968D01*
X185424640Y-73741469D01*
X185459441Y-73666512D01*
X185487877Y-73584953D01*
X185510540Y-73491648D01*
X185528025Y-73381453D01*
X185540926Y-73249225D01*
X185549837Y-73089820D01*
X185555352Y-72898095D01*
X185558064Y-72668907D01*
X185558569Y-72397112D01*
X185557459Y-72077566D01*
X185556830Y-71958932D01*
X185549732Y-70687123D01*
X184744033Y-71784010D01*
X184515779Y-72095183D01*
X184318025Y-72366143D01*
X184148635Y-72600478D01*
X184005473Y-72801780D01*
X183886405Y-72973637D01*
X183789295Y-73119640D01*
X183712007Y-73243378D01*
X183652407Y-73348441D01*
X183608359Y-73438420D01*
X183577728Y-73516903D01*
X183558378Y-73587480D01*
X183548175Y-73653742D01*
X183544983Y-73719277D01*
X183546667Y-73787677D01*
X183547097Y-73796274D01*
X183555968Y-73967372D01*
X182144236Y-73967315D01*
X180732505Y-73967258D01*
X180942516Y-73755500D01*
X180999504Y-73697582D01*
X181053566Y-73641225D01*
X181107076Y-73583322D01*
X181162404Y-73520764D01*
X181221925Y-73450443D01*
X181288011Y-73369251D01*
X181363034Y-73274081D01*
X181449367Y-73161823D01*
X181549383Y-73029370D01*
X181665454Y-72873614D01*
X181799952Y-72691446D01*
X181955251Y-72479760D01*
X182133722Y-72235446D01*
X182337740Y-71955397D01*
X182569675Y-71636504D01*
X182759782Y-71374920D01*
X182998372Y-71046292D01*
X183206508Y-70758957D01*
X183386075Y-70510187D01*
X183538957Y-70297254D01*
X183667041Y-70117430D01*
X183772212Y-69967986D01*
X183856355Y-69846196D01*
X183921357Y-69749331D01*
X183969103Y-69674662D01*
X184001477Y-69619463D01*
X184020366Y-69581004D01*
X184027655Y-69556559D01*
X184025464Y-69543706D01*
X183998913Y-69509504D01*
X183941508Y-69437108D01*
X183856713Y-69330820D01*
X183747992Y-69194945D01*
X183618808Y-69033784D01*
X183472626Y-68851643D01*
X183312909Y-68652822D01*
X183143121Y-68441627D01*
X182966726Y-68222359D01*
X182787187Y-67999323D01*
X182688435Y-67876720D01*
X180236548Y-67876720D01*
X180032742Y-68245430D01*
X180032742Y-73598548D01*
X180236548Y-73967258D01*
X179031111Y-73967258D01*
X178743341Y-73967174D01*
X178505647Y-73966797D01*
X178313482Y-73965935D01*
X178162298Y-73964400D01*
X178047548Y-73962000D01*
X177964685Y-73958546D01*
X177909162Y-73953849D01*
X177876430Y-73947717D01*
X177861943Y-73939961D01*
X177861153Y-73930391D01*
X177869513Y-73918817D01*
X177869599Y-73918721D01*
X177904036Y-73868907D01*
X177949637Y-73787910D01*
X177989908Y-73707055D01*
X178066291Y-73543925D01*
X178074081Y-70710322D01*
X178081871Y-67876720D01*
X180236548Y-67876720D01*
X182688435Y-67876720D01*
X182607969Y-67776821D01*
X182432536Y-67559157D01*
X182264350Y-67350633D01*
X182106877Y-67155554D01*
X181963579Y-66978221D01*
X181837921Y-66822939D01*
X181733366Y-66694010D01*
X181653379Y-66595738D01*
X181606398Y-66538441D01*
X181423963Y-66324180D01*
X181248452Y-66130830D01*
X181086016Y-65964720D01*
X180942805Y-65832180D01*
X180841171Y-65750921D01*
X180720998Y-65664462D01*
X183484840Y-65664462D01*
X183484064Y-65826646D01*
X183491788Y-65945883D01*
X183520828Y-66056426D01*
X183565782Y-66161216D01*
X183595004Y-66220416D01*
X183626423Y-66279074D01*
X183662909Y-66341086D01*
X183707331Y-66410345D01*
X183762561Y-66490746D01*
X183831469Y-66586181D01*
X183916923Y-66700547D01*
X184021796Y-66837735D01*
X184148955Y-67001642D01*
X184301273Y-67196160D01*
X184481618Y-67425185D01*
X184692862Y-67692609D01*
X184716721Y-67722783D01*
X185549732Y-68776195D01*
X185557796Y-67609522D01*
X185559420Y-67260069D01*
X185559074Y-66964230D01*
X185556742Y-66721030D01*
X185552407Y-66529493D01*
X185546051Y-66388644D01*
X185537659Y-66297508D01*
X185534838Y-66280220D01*
X185490584Y-66098117D01*
X185432602Y-65933950D01*
X185366437Y-65801954D01*
X185326687Y-65745972D01*
X185258102Y-65664462D01*
X186559453Y-65664462D01*
X186869885Y-65664728D01*
X187129477Y-65665591D01*
X187342014Y-65667154D01*
X187511276Y-65669517D01*
X187641048Y-65672780D01*
X187735111Y-65677045D01*
X187797248Y-65682413D01*
X187831241Y-65688983D01*
X187840874Y-65696858D01*
X187840208Y-65698602D01*
X187812620Y-65740243D01*
X187766564Y-65806248D01*
X187742735Y-65839631D01*
X187718099Y-65872944D01*
X187695955Y-65902734D01*
X187676164Y-65931933D01*
X187658586Y-65963474D01*
X187643081Y-66000286D01*
X187629511Y-66045303D01*
X187617736Y-66101455D01*
X187607616Y-66171675D01*
X187599013Y-66258894D01*
X187591786Y-66366043D01*
X187585796Y-66496055D01*
X187580904Y-66651861D01*
X187576971Y-66836393D01*
X187573857Y-67052581D01*
X187571422Y-67303359D01*
X187569527Y-67591658D01*
X187568033Y-67920409D01*
X187566801Y-68292543D01*
X187565690Y-68710994D01*
X187564562Y-69178691D01*
X187563508Y-69608354D01*
X187562512Y-70087353D01*
X187561994Y-70544362D01*
X187561941Y-70976464D01*
X187562338Y-71380738D01*
X187563172Y-71754265D01*
X187564429Y-72094127D01*
X187566094Y-72397404D01*
X187568156Y-72661177D01*
X187570599Y-72882527D01*
X187573410Y-73058535D01*
X187576576Y-73186283D01*
X187580082Y-73262849D01*
X187580745Y-73270941D01*
X187604905Y-73456568D01*
X187642624Y-73605647D01*
X187700064Y-73735750D01*
X187783389Y-73864452D01*
X187793811Y-73878494D01*
X187860361Y-73967258D01*
X188589283Y-73967258D01*
X188590752Y-73805145D01*
X188592421Y-73527867D01*
X188593625Y-73214459D01*
X188594435Y-72862664D01*
X188594922Y-72470223D01*
X188595156Y-72034877D01*
X188595211Y-71554368D01*
X188595156Y-71026438D01*
X188595062Y-70448828D01*
X188595002Y-69819279D01*
X188595000Y-69694301D01*
X188594965Y-69058122D01*
X188594847Y-68474325D01*
X188594628Y-67940668D01*
X188594292Y-67454909D01*
X188593822Y-67014805D01*
X188593198Y-66618116D01*
X188592406Y-66262599D01*
X188591426Y-65946012D01*
X188590242Y-65666113D01*
X188588836Y-65420661D01*
X188587190Y-65207413D01*
X188585288Y-65024128D01*
X188583113Y-64868564D01*
X188580645Y-64738478D01*
X188577869Y-64631629D01*
X188574767Y-64545775D01*
X188571321Y-64478674D01*
X188567515Y-64428084D01*
X188563330Y-64391764D01*
X188558749Y-64367470D01*
X188553755Y-64352962D01*
X188553570Y-64352600D01*
X188543285Y-64330437D01*
X188534718Y-64310372D01*
X188525241Y-64292301D01*
X188512226Y-64276121D01*
X188493043Y-64261726D01*
X188465065Y-64249014D01*
X188425663Y-64237880D01*
X188372208Y-64228221D01*
X188302071Y-64219932D01*
X188212624Y-64212910D01*
X188101238Y-64207050D01*
X187965284Y-64202250D01*
X187802135Y-64198404D01*
X187609161Y-64195409D01*
X187383733Y-64193161D01*
X187123224Y-64191556D01*
X186825004Y-64190491D01*
X186486445Y-64189860D01*
X186104918Y-64189561D01*
X185677794Y-64189490D01*
X185202446Y-64189541D01*
X185202446Y-64189541D01*
G37*
X185202446Y-64189541D02*
X184676244Y-64189613D01*
X184431303Y-64189623D01*
X180510699Y-64189623D01*
X180510699Y-64420734D01*
X180486032Y-64701976D01*
X180411584Y-64961359D01*
X180286686Y-65200424D01*
X180110670Y-65420714D01*
X180051118Y-65480210D01*
X179836895Y-65648971D01*
X179600690Y-65772052D01*
X179349517Y-65849510D01*
X179090393Y-65881399D01*
X178830333Y-65867776D01*
X178576353Y-65808697D01*
X178335469Y-65704217D01*
X178114696Y-65554393D01*
X178015543Y-65464001D01*
X177830773Y-65242376D01*
X177695284Y-64998661D01*
X177610256Y-64735643D01*
X177576872Y-64456106D01*
X177576428Y-64428606D01*
X177574678Y-64189632D01*
X177469645Y-64189628D01*
X177376470Y-64202273D01*
X177291356Y-64233040D01*
X177285731Y-64236219D01*
X177266508Y-64246194D01*
X177248855Y-64253962D01*
X177232708Y-64261787D01*
X177218005Y-64271930D01*
X177204681Y-64286655D01*
X177192672Y-64308225D01*
X177181915Y-64338901D01*
X177172346Y-64380947D01*
X177163901Y-64436626D01*
X177156516Y-64508199D01*
X177150127Y-64597930D01*
X177144671Y-64708082D01*
X177140084Y-64840916D01*
X177136302Y-64998696D01*
X177133260Y-65183684D01*
X177130897Y-65398144D01*
X177129147Y-65644337D01*
X177127947Y-65924527D01*
X177127232Y-66240975D01*
X177126940Y-66595946D01*
X177127007Y-66991700D01*
X177127368Y-67430502D01*
X177127960Y-67914614D01*
X177128719Y-68446298D01*
X177129581Y-69027817D01*
X177130482Y-69661433D01*
X177130587Y-69738629D01*
X177131395Y-70376287D01*
X177132081Y-70961582D01*
X177132717Y-71496778D01*
X177133376Y-71984136D01*
X177134131Y-72425917D01*
X177135053Y-72824382D01*
X177136216Y-73181795D01*
X177137693Y-73500415D01*
X177139555Y-73782506D01*
X177141876Y-74030328D01*
X177144729Y-74246143D01*
X177148185Y-74432213D01*
X177152318Y-74590800D01*
X177157200Y-74724164D01*
X177162904Y-74834569D01*
X177169502Y-74924275D01*
X177177068Y-74995544D01*
X177185673Y-75050638D01*
X177195390Y-75091818D01*
X177206293Y-75121346D01*
X177218453Y-75141484D01*
X177231943Y-75154493D01*
X177246837Y-75162636D01*
X177263206Y-75168173D01*
X177281123Y-75173366D01*
X177300661Y-75180477D01*
X177305434Y-75182642D01*
X177320434Y-75187506D01*
X177345541Y-75191976D01*
X177382946Y-75196066D01*
X177434842Y-75199793D01*
X177503420Y-75203173D01*
X177590873Y-75206221D01*
X177699394Y-75208954D01*
X177831174Y-75211387D01*
X177988406Y-75213537D01*
X178173281Y-75215419D01*
X178387993Y-75217049D01*
X178634734Y-75218443D01*
X178915694Y-75219617D01*
X179233068Y-75220587D01*
X179589047Y-75221369D01*
X179985822Y-75221979D01*
X180425588Y-75222432D01*
X180910535Y-75222745D01*
X181442856Y-75222934D01*
X182024743Y-75223013D01*
X182658389Y-75223000D01*
X182863644Y-75222980D01*
X183511347Y-75222876D01*
X184106644Y-75222706D01*
X184651755Y-75222453D01*
X185148897Y-75222098D01*
X185600290Y-75221626D01*
X186008151Y-75221018D01*
X186374700Y-75220258D01*
X186702154Y-75219327D01*
X186992732Y-75218209D01*
X187248652Y-75216886D01*
X187472133Y-75215341D01*
X187665394Y-75213557D01*
X187830652Y-75211516D01*
X187970127Y-75209201D01*
X188086037Y-75206594D01*
X188180600Y-75203678D01*
X188256034Y-75200436D01*
X188314558Y-75196851D01*
X188358391Y-75192905D01*
X188389752Y-75188581D01*
X188410857Y-75183862D01*
X188422363Y-75179540D01*
X188442812Y-75170916D01*
X188461587Y-75164557D01*
X188478760Y-75158203D01*
X188494402Y-75149597D01*
X188508584Y-75136480D01*
X188521377Y-75116594D01*
X188532852Y-75087679D01*
X188543080Y-75047479D01*
X188552133Y-74993733D01*
X188560080Y-74924185D01*
X188566994Y-74836574D01*
X188572945Y-74728644D01*
X188578005Y-74598135D01*
X188582245Y-74442789D01*
X188585735Y-74260348D01*
X188588547Y-74048553D01*
X188589283Y-73967258D01*
X187860361Y-73967258D01*
X185283987Y-73967258D01*
X185333561Y-73892150D01*
X185382878Y-73814968D01*
X185424640Y-73741469D01*
X185459441Y-73666512D01*
X185487877Y-73584953D01*
X185510540Y-73491648D01*
X185528025Y-73381453D01*
X185540926Y-73249225D01*
X185549837Y-73089820D01*
X185555352Y-72898095D01*
X185558064Y-72668907D01*
X185558569Y-72397112D01*
X185557459Y-72077566D01*
X185556830Y-71958932D01*
X185549732Y-70687123D01*
X184744033Y-71784010D01*
X184515779Y-72095183D01*
X184318025Y-72366143D01*
X184148635Y-72600478D01*
X184005473Y-72801780D01*
X183886405Y-72973637D01*
X183789295Y-73119640D01*
X183712007Y-73243378D01*
X183652407Y-73348441D01*
X183608359Y-73438420D01*
X183577728Y-73516903D01*
X183558378Y-73587480D01*
X183548175Y-73653742D01*
X183544983Y-73719277D01*
X183546667Y-73787677D01*
X183547097Y-73796274D01*
X183555968Y-73967372D01*
X182144236Y-73967315D01*
X180732505Y-73967258D01*
X180942516Y-73755500D01*
X180999504Y-73697582D01*
X181053566Y-73641225D01*
X181107076Y-73583322D01*
X181162404Y-73520764D01*
X181221925Y-73450443D01*
X181288011Y-73369251D01*
X181363034Y-73274081D01*
X181449367Y-73161823D01*
X181549383Y-73029370D01*
X181665454Y-72873614D01*
X181799952Y-72691446D01*
X181955251Y-72479760D01*
X182133722Y-72235446D01*
X182337740Y-71955397D01*
X182569675Y-71636504D01*
X182759782Y-71374920D01*
X182998372Y-71046292D01*
X183206508Y-70758957D01*
X183386075Y-70510187D01*
X183538957Y-70297254D01*
X183667041Y-70117430D01*
X183772212Y-69967986D01*
X183856355Y-69846196D01*
X183921357Y-69749331D01*
X183969103Y-69674662D01*
X184001477Y-69619463D01*
X184020366Y-69581004D01*
X184027655Y-69556559D01*
X184025464Y-69543706D01*
X183998913Y-69509504D01*
X183941508Y-69437108D01*
X183856713Y-69330820D01*
X183747992Y-69194945D01*
X183618808Y-69033784D01*
X183472626Y-68851643D01*
X183312909Y-68652822D01*
X183143121Y-68441627D01*
X182966726Y-68222359D01*
X182787187Y-67999323D01*
X182688435Y-67876720D01*
X180236548Y-67876720D01*
X180032742Y-68245430D01*
X180032742Y-73598548D01*
X180236548Y-73967258D01*
X179031111Y-73967258D01*
X178743341Y-73967174D01*
X178505647Y-73966797D01*
X178313482Y-73965935D01*
X178162298Y-73964400D01*
X178047548Y-73962000D01*
X177964685Y-73958546D01*
X177909162Y-73953849D01*
X177876430Y-73947717D01*
X177861943Y-73939961D01*
X177861153Y-73930391D01*
X177869513Y-73918817D01*
X177869599Y-73918721D01*
X177904036Y-73868907D01*
X177949637Y-73787910D01*
X177989908Y-73707055D01*
X178066291Y-73543925D01*
X178074081Y-70710322D01*
X178081871Y-67876720D01*
X180236548Y-67876720D01*
X182688435Y-67876720D01*
X182607969Y-67776821D01*
X182432536Y-67559157D01*
X182264350Y-67350633D01*
X182106877Y-67155554D01*
X181963579Y-66978221D01*
X181837921Y-66822939D01*
X181733366Y-66694010D01*
X181653379Y-66595738D01*
X181606398Y-66538441D01*
X181423963Y-66324180D01*
X181248452Y-66130830D01*
X181086016Y-65964720D01*
X180942805Y-65832180D01*
X180841171Y-65750921D01*
X180720998Y-65664462D01*
X183484840Y-65664462D01*
X183484064Y-65826646D01*
X183491788Y-65945883D01*
X183520828Y-66056426D01*
X183565782Y-66161216D01*
X183595004Y-66220416D01*
X183626423Y-66279074D01*
X183662909Y-66341086D01*
X183707331Y-66410345D01*
X183762561Y-66490746D01*
X183831469Y-66586181D01*
X183916923Y-66700547D01*
X184021796Y-66837735D01*
X184148955Y-67001642D01*
X184301273Y-67196160D01*
X184481618Y-67425185D01*
X184692862Y-67692609D01*
X184716721Y-67722783D01*
X185549732Y-68776195D01*
X185557796Y-67609522D01*
X185559420Y-67260069D01*
X185559074Y-66964230D01*
X185556742Y-66721030D01*
X185552407Y-66529493D01*
X185546051Y-66388644D01*
X185537659Y-66297508D01*
X185534838Y-66280220D01*
X185490584Y-66098117D01*
X185432602Y-65933950D01*
X185366437Y-65801954D01*
X185326687Y-65745972D01*
X185258102Y-65664462D01*
X186559453Y-65664462D01*
X186869885Y-65664728D01*
X187129477Y-65665591D01*
X187342014Y-65667154D01*
X187511276Y-65669517D01*
X187641048Y-65672780D01*
X187735111Y-65677045D01*
X187797248Y-65682413D01*
X187831241Y-65688983D01*
X187840874Y-65696858D01*
X187840208Y-65698602D01*
X187812620Y-65740243D01*
X187766564Y-65806248D01*
X187742735Y-65839631D01*
X187718099Y-65872944D01*
X187695955Y-65902734D01*
X187676164Y-65931933D01*
X187658586Y-65963474D01*
X187643081Y-66000286D01*
X187629511Y-66045303D01*
X187617736Y-66101455D01*
X187607616Y-66171675D01*
X187599013Y-66258894D01*
X187591786Y-66366043D01*
X187585796Y-66496055D01*
X187580904Y-66651861D01*
X187576971Y-66836393D01*
X187573857Y-67052581D01*
X187571422Y-67303359D01*
X187569527Y-67591658D01*
X187568033Y-67920409D01*
X187566801Y-68292543D01*
X187565690Y-68710994D01*
X187564562Y-69178691D01*
X187563508Y-69608354D01*
X187562512Y-70087353D01*
X187561994Y-70544362D01*
X187561941Y-70976464D01*
X187562338Y-71380738D01*
X187563172Y-71754265D01*
X187564429Y-72094127D01*
X187566094Y-72397404D01*
X187568156Y-72661177D01*
X187570599Y-72882527D01*
X187573410Y-73058535D01*
X187576576Y-73186283D01*
X187580082Y-73262849D01*
X187580745Y-73270941D01*
X187604905Y-73456568D01*
X187642624Y-73605647D01*
X187700064Y-73735750D01*
X187783389Y-73864452D01*
X187793811Y-73878494D01*
X187860361Y-73967258D01*
X188589283Y-73967258D01*
X188590752Y-73805145D01*
X188592421Y-73527867D01*
X188593625Y-73214459D01*
X188594435Y-72862664D01*
X188594922Y-72470223D01*
X188595156Y-72034877D01*
X188595211Y-71554368D01*
X188595156Y-71026438D01*
X188595062Y-70448828D01*
X188595002Y-69819279D01*
X188595000Y-69694301D01*
X188594965Y-69058122D01*
X188594847Y-68474325D01*
X188594628Y-67940668D01*
X188594292Y-67454909D01*
X188593822Y-67014805D01*
X188593198Y-66618116D01*
X188592406Y-66262599D01*
X188591426Y-65946012D01*
X188590242Y-65666113D01*
X188588836Y-65420661D01*
X188587190Y-65207413D01*
X188585288Y-65024128D01*
X188583113Y-64868564D01*
X188580645Y-64738478D01*
X188577869Y-64631629D01*
X188574767Y-64545775D01*
X188571321Y-64478674D01*
X188567515Y-64428084D01*
X188563330Y-64391764D01*
X188558749Y-64367470D01*
X188553755Y-64352962D01*
X188553570Y-64352600D01*
X188543285Y-64330437D01*
X188534718Y-64310372D01*
X188525241Y-64292301D01*
X188512226Y-64276121D01*
X188493043Y-64261726D01*
X188465065Y-64249014D01*
X188425663Y-64237880D01*
X188372208Y-64228221D01*
X188302071Y-64219932D01*
X188212624Y-64212910D01*
X188101238Y-64207050D01*
X187965284Y-64202250D01*
X187802135Y-64198404D01*
X187609161Y-64195409D01*
X187383733Y-64193161D01*
X187123224Y-64191556D01*
X186825004Y-64190491D01*
X186486445Y-64189860D01*
X186104918Y-64189561D01*
X185677794Y-64189490D01*
X185202446Y-64189541D01*
G36*
X137100493Y-45401600D02*
G01*
X136678309Y-47641068D01*
X135120509Y-48283245D01*
X133562709Y-48925421D01*
X131693868Y-47654623D01*
X131170495Y-47300790D01*
X130697394Y-46984863D01*
X130296642Y-46721268D01*
X129990316Y-46524426D01*
X129800494Y-46408763D01*
X129748799Y-46383824D01*
X129655672Y-46447965D01*
X129456669Y-46625289D01*
X129174098Y-46893143D01*
X128830263Y-47228875D01*
X128447471Y-47609834D01*
X128048027Y-48013369D01*
X127654237Y-48416826D01*
X127288407Y-48797556D01*
X126972842Y-49132905D01*
X126729849Y-49400222D01*
X126581733Y-49576856D01*
X126546324Y-49635969D01*
X126597283Y-49744949D01*
X126740149Y-49983702D01*
X126959898Y-50328875D01*
X127241511Y-50757113D01*
X127569967Y-51245064D01*
X127760294Y-51523379D01*
X128107206Y-52031582D01*
X128415472Y-52490184D01*
X128670137Y-52876356D01*
X128856247Y-53167272D01*
X128958848Y-53340104D01*
X128974265Y-53376425D01*
X128939314Y-53479651D01*
X128844045Y-53720229D01*
X128702832Y-54064336D01*
X128530051Y-54478145D01*
X128340075Y-54927831D01*
X128147279Y-55379569D01*
X127966038Y-55799534D01*
X127810727Y-56153900D01*
X127695721Y-56408843D01*
X127635393Y-56530536D01*
X127631832Y-56535326D01*
X127537105Y-56558562D01*
X127284828Y-56610400D01*
X126901150Y-56685746D01*
X126412221Y-56779502D01*
X125844189Y-56886572D01*
X125512773Y-56948316D01*
X124905802Y-57063883D01*
X124357565Y-57173851D01*
X123895799Y-57272203D01*
X123548239Y-57352923D01*
X123342621Y-57409992D01*
X123301287Y-57428099D01*
X123260804Y-57550654D01*
X123228140Y-57827442D01*
X123203273Y-58226096D01*
X123186181Y-58714249D01*
X123176841Y-59259536D01*
X123175232Y-59829588D01*
X123181331Y-60392038D01*
X123195117Y-60914522D01*
X123216566Y-61364670D01*
X123245658Y-61710117D01*
X123282369Y-61918495D01*
X123304388Y-61961875D01*
X123436004Y-62013870D01*
X123714892Y-62088205D01*
X124104163Y-62176148D01*
X124566927Y-62268965D01*
X124728468Y-62298992D01*
X125507322Y-62441654D01*
X126122560Y-62556546D01*
X126594512Y-62648233D01*
X126943506Y-62721282D01*
X127189871Y-62780259D01*
X127353936Y-62829731D01*
X127456029Y-62874265D01*
X127516479Y-62918426D01*
X127524936Y-62927154D01*
X127609364Y-63067749D01*
X127738157Y-63341367D01*
X127898457Y-63714501D01*
X128077404Y-64153649D01*
X128262136Y-64625304D01*
X128439794Y-65095962D01*
X128597518Y-65532119D01*
X128722447Y-65900270D01*
X128801721Y-66166909D01*
X128822481Y-66298533D01*
X128820750Y-66303144D01*
X128750411Y-66410729D01*
X128590838Y-66647444D01*
X128358801Y-66988649D01*
X128071068Y-67409706D01*
X127744408Y-67885976D01*
X127651379Y-68021322D01*
X127319677Y-68512010D01*
X127027793Y-68959716D01*
X126791628Y-69338731D01*
X126627081Y-69623345D01*
X126550055Y-69787852D01*
X126546324Y-69808062D01*
X126611041Y-69914289D01*
X126789865Y-70124728D01*
X127059810Y-70416762D01*
X127397886Y-70767776D01*
X127781104Y-71155152D01*
X128186478Y-71556273D01*
X128591017Y-71948522D01*
X128971735Y-72309284D01*
X129305642Y-72615941D01*
X129569750Y-72845876D01*
X129741071Y-72976472D01*
X129788465Y-72997794D01*
X129898782Y-72947573D01*
X130124645Y-72812122D01*
X130429263Y-72614259D01*
X130663635Y-72455002D01*
X131088306Y-72162776D01*
X131591220Y-71818691D01*
X132095669Y-71475157D01*
X132366876Y-71291298D01*
X133284855Y-70670388D01*
X134055434Y-71087032D01*
X134406490Y-71269556D01*
X134705011Y-71411427D01*
X134906996Y-71492344D01*
X134958411Y-71503603D01*
X135020236Y-71420473D01*
X135142206Y-71185560D01*
X135315217Y-70820532D01*
X135530163Y-70347060D01*
X135777939Y-69786811D01*
X136049441Y-69161453D01*
X136335563Y-68492657D01*
X136627200Y-67802089D01*
X136915247Y-67111420D01*
X137190600Y-66442318D01*
X137444152Y-65816451D01*
X137666800Y-65255488D01*
X137849438Y-64781099D01*
X137982960Y-64414950D01*
X138058263Y-64178712D01*
X138070373Y-64097578D01*
X137974388Y-63994089D01*
X137764229Y-63826095D01*
X137483832Y-63628501D01*
X137460298Y-63612868D01*
X136735581Y-63032757D01*
X136151221Y-62355965D01*
X135712282Y-61604133D01*
X135423829Y-60798902D01*
X135290924Y-59961912D01*
X135318634Y-59114804D01*
X135512021Y-58279219D01*
X135876151Y-57476798D01*
X135983281Y-57301238D01*
X136540494Y-56592318D01*
X137198774Y-56023044D01*
X137935337Y-55596378D01*
X138727399Y-55315279D01*
X139552176Y-55182709D01*
X140386886Y-55201627D01*
X141208744Y-55374995D01*
X141994966Y-55705772D01*
X142722769Y-56196919D01*
X142947900Y-56396265D01*
X143520868Y-57020271D01*
X143938385Y-57677171D01*
X144224787Y-58413497D01*
X144384298Y-59142689D01*
X144423675Y-59962531D01*
X144292372Y-60786443D01*
X144003725Y-61586576D01*
X143571073Y-62335080D01*
X143007753Y-63004109D01*
X142327101Y-63565812D01*
X142237646Y-63625021D01*
X141954244Y-63818920D01*
X141738806Y-63986921D01*
X141635809Y-64094187D01*
X141634311Y-64097578D01*
X141656423Y-64213615D01*
X141744079Y-64476966D01*
X141888169Y-64865970D01*
X142079584Y-65358961D01*
X142309216Y-65934276D01*
X142567957Y-66570252D01*
X142846698Y-67245225D01*
X143136329Y-67937530D01*
X143427744Y-68625504D01*
X143711832Y-69287483D01*
X143979485Y-69901804D01*
X144221594Y-70446802D01*
X144429052Y-70900815D01*
X144592749Y-71242177D01*
X144703577Y-71449225D01*
X144748207Y-71503603D01*
X144884585Y-71461259D01*
X145139762Y-71347692D01*
X145469737Y-71183200D01*
X145651184Y-71087032D01*
X146421763Y-70670388D01*
X147339742Y-71291298D01*
X147808350Y-71609386D01*
X148321394Y-71959433D01*
X148802167Y-72289031D01*
X149042983Y-72455002D01*
X149381682Y-72682441D01*
X149668482Y-72862677D01*
X149865971Y-72972885D01*
X149930116Y-72996183D01*
X150023479Y-72933335D01*
X150230106Y-72757885D01*
X150529964Y-72488050D01*
X150903022Y-72142045D01*
X151329247Y-71738088D01*
X151598816Y-71478720D01*
X152070431Y-71015338D01*
X152478012Y-70600877D01*
X152805081Y-70253068D01*
X153035163Y-69989640D01*
X153151782Y-69828323D01*
X153162970Y-69795586D01*
X153111051Y-69671063D01*
X152967578Y-69419283D01*
X152748468Y-69065738D01*
X152469634Y-68635917D01*
X152146992Y-68155311D01*
X152055239Y-68021322D01*
X151720919Y-67534334D01*
X151420982Y-67095883D01*
X151172197Y-66730607D01*
X150991333Y-66463146D01*
X150895159Y-66318138D01*
X150885868Y-66303144D01*
X150899763Y-66187580D01*
X150973518Y-65933496D01*
X151094273Y-65574396D01*
X151249169Y-65143784D01*
X151425344Y-64675166D01*
X151609938Y-64202046D01*
X151790092Y-63757929D01*
X151952945Y-63376319D01*
X152085637Y-63090721D01*
X152175308Y-62934641D01*
X152181682Y-62927154D01*
X152236516Y-62882547D01*
X152329130Y-62838436D01*
X152479852Y-62790254D01*
X152709011Y-62733434D01*
X153036936Y-62663411D01*
X153483954Y-62575618D01*
X154070396Y-62465488D01*
X154816589Y-62328455D01*
X154978150Y-62298992D01*
X155456984Y-62206477D01*
X155874424Y-62115974D01*
X156193579Y-62036213D01*
X156377561Y-61975929D01*
X156402231Y-61961875D01*
X156442883Y-61837275D01*
X156475926Y-61558830D01*
X156501339Y-61158908D01*
X156519100Y-60669876D01*
X156529186Y-60124100D01*
X156531575Y-59553947D01*
X156526244Y-58991784D01*
X156513173Y-58469978D01*
X156492339Y-58020896D01*
X156463719Y-57676905D01*
X156427291Y-57470371D01*
X156405331Y-57428099D01*
X156283074Y-57385459D01*
X156004682Y-57316089D01*
X155597890Y-57226008D01*
X155090435Y-57121232D01*
X154510054Y-57007779D01*
X154193845Y-56948316D01*
X153593888Y-56836163D01*
X153058872Y-56734563D01*
X152614944Y-56648614D01*
X152288255Y-56583412D01*
X152104955Y-56544052D01*
X152074787Y-56535326D01*
X152023798Y-56436947D01*
X151916015Y-56199983D01*
X151765804Y-55858287D01*
X151587532Y-55445714D01*
X151395567Y-54996118D01*
X151204276Y-54543351D01*
X151028026Y-54121267D01*
X150881183Y-53763720D01*
X150778115Y-53504564D01*
X150733189Y-53377652D01*
X150732353Y-53372105D01*
X150783283Y-53271989D01*
X150926067Y-53041599D01*
X151145698Y-52703832D01*
X151427169Y-52281587D01*
X151755472Y-51797762D01*
X151946324Y-51519853D01*
X152294090Y-51010289D01*
X152602971Y-50547659D01*
X152857896Y-50155365D01*
X153043793Y-49856810D01*
X153145592Y-49675399D01*
X153160294Y-49634732D01*
X153097093Y-49540074D01*
X152922369Y-49337965D01*
X152658442Y-49051047D01*
X152327630Y-48701963D01*
X151952253Y-48313354D01*
X151554631Y-47907865D01*
X151157083Y-47508136D01*
X150781928Y-47136811D01*
X150451486Y-46816532D01*
X150188076Y-46569942D01*
X150014017Y-46419684D01*
X149955788Y-46383824D01*
X149860976Y-46434248D01*
X149634207Y-46575908D01*
X149297528Y-46794382D01*
X148872988Y-47075251D01*
X148382635Y-47404095D01*
X148012750Y-47654623D01*
X146143909Y-48925421D01*
X144586109Y-48283245D01*
X143028309Y-47641068D01*
X142606125Y-45401600D01*
X142183941Y-43162133D01*
X137522677Y-43162133D01*
X137100493Y-45401600D01*
X137100493Y-45401600D01*
G37*
X137100493Y-45401600D02*
X136678309Y-47641068D01*
X135120509Y-48283245D01*
X133562709Y-48925421D01*
X131693868Y-47654623D01*
X131170495Y-47300790D01*
X130697394Y-46984863D01*
X130296642Y-46721268D01*
X129990316Y-46524426D01*
X129800494Y-46408763D01*
X129748799Y-46383824D01*
X129655672Y-46447965D01*
X129456669Y-46625289D01*
X129174098Y-46893143D01*
X128830263Y-47228875D01*
X128447471Y-47609834D01*
X128048027Y-48013369D01*
X127654237Y-48416826D01*
X127288407Y-48797556D01*
X126972842Y-49132905D01*
X126729849Y-49400222D01*
X126581733Y-49576856D01*
X126546324Y-49635969D01*
X126597283Y-49744949D01*
X126740149Y-49983702D01*
X126959898Y-50328875D01*
X127241511Y-50757113D01*
X127569967Y-51245064D01*
X127760294Y-51523379D01*
X128107206Y-52031582D01*
X128415472Y-52490184D01*
X128670137Y-52876356D01*
X128856247Y-53167272D01*
X128958848Y-53340104D01*
X128974265Y-53376425D01*
X128939314Y-53479651D01*
X128844045Y-53720229D01*
X128702832Y-54064336D01*
X128530051Y-54478145D01*
X128340075Y-54927831D01*
X128147279Y-55379569D01*
X127966038Y-55799534D01*
X127810727Y-56153900D01*
X127695721Y-56408843D01*
X127635393Y-56530536D01*
X127631832Y-56535326D01*
X127537105Y-56558562D01*
X127284828Y-56610400D01*
X126901150Y-56685746D01*
X126412221Y-56779502D01*
X125844189Y-56886572D01*
X125512773Y-56948316D01*
X124905802Y-57063883D01*
X124357565Y-57173851D01*
X123895799Y-57272203D01*
X123548239Y-57352923D01*
X123342621Y-57409992D01*
X123301287Y-57428099D01*
X123260804Y-57550654D01*
X123228140Y-57827442D01*
X123203273Y-58226096D01*
X123186181Y-58714249D01*
X123176841Y-59259536D01*
X123175232Y-59829588D01*
X123181331Y-60392038D01*
X123195117Y-60914522D01*
X123216566Y-61364670D01*
X123245658Y-61710117D01*
X123282369Y-61918495D01*
X123304388Y-61961875D01*
X123436004Y-62013870D01*
X123714892Y-62088205D01*
X124104163Y-62176148D01*
X124566927Y-62268965D01*
X124728468Y-62298992D01*
X125507322Y-62441654D01*
X126122560Y-62556546D01*
X126594512Y-62648233D01*
X126943506Y-62721282D01*
X127189871Y-62780259D01*
X127353936Y-62829731D01*
X127456029Y-62874265D01*
X127516479Y-62918426D01*
X127524936Y-62927154D01*
X127609364Y-63067749D01*
X127738157Y-63341367D01*
X127898457Y-63714501D01*
X128077404Y-64153649D01*
X128262136Y-64625304D01*
X128439794Y-65095962D01*
X128597518Y-65532119D01*
X128722447Y-65900270D01*
X128801721Y-66166909D01*
X128822481Y-66298533D01*
X128820750Y-66303144D01*
X128750411Y-66410729D01*
X128590838Y-66647444D01*
X128358801Y-66988649D01*
X128071068Y-67409706D01*
X127744408Y-67885976D01*
X127651379Y-68021322D01*
X127319677Y-68512010D01*
X127027793Y-68959716D01*
X126791628Y-69338731D01*
X126627081Y-69623345D01*
X126550055Y-69787852D01*
X126546324Y-69808062D01*
X126611041Y-69914289D01*
X126789865Y-70124728D01*
X127059810Y-70416762D01*
X127397886Y-70767776D01*
X127781104Y-71155152D01*
X128186478Y-71556273D01*
X128591017Y-71948522D01*
X128971735Y-72309284D01*
X129305642Y-72615941D01*
X129569750Y-72845876D01*
X129741071Y-72976472D01*
X129788465Y-72997794D01*
X129898782Y-72947573D01*
X130124645Y-72812122D01*
X130429263Y-72614259D01*
X130663635Y-72455002D01*
X131088306Y-72162776D01*
X131591220Y-71818691D01*
X132095669Y-71475157D01*
X132366876Y-71291298D01*
X133284855Y-70670388D01*
X134055434Y-71087032D01*
X134406490Y-71269556D01*
X134705011Y-71411427D01*
X134906996Y-71492344D01*
X134958411Y-71503603D01*
X135020236Y-71420473D01*
X135142206Y-71185560D01*
X135315217Y-70820532D01*
X135530163Y-70347060D01*
X135777939Y-69786811D01*
X136049441Y-69161453D01*
X136335563Y-68492657D01*
X136627200Y-67802089D01*
X136915247Y-67111420D01*
X137190600Y-66442318D01*
X137444152Y-65816451D01*
X137666800Y-65255488D01*
X137849438Y-64781099D01*
X137982960Y-64414950D01*
X138058263Y-64178712D01*
X138070373Y-64097578D01*
X137974388Y-63994089D01*
X137764229Y-63826095D01*
X137483832Y-63628501D01*
X137460298Y-63612868D01*
X136735581Y-63032757D01*
X136151221Y-62355965D01*
X135712282Y-61604133D01*
X135423829Y-60798902D01*
X135290924Y-59961912D01*
X135318634Y-59114804D01*
X135512021Y-58279219D01*
X135876151Y-57476798D01*
X135983281Y-57301238D01*
X136540494Y-56592318D01*
X137198774Y-56023044D01*
X137935337Y-55596378D01*
X138727399Y-55315279D01*
X139552176Y-55182709D01*
X140386886Y-55201627D01*
X141208744Y-55374995D01*
X141994966Y-55705772D01*
X142722769Y-56196919D01*
X142947900Y-56396265D01*
X143520868Y-57020271D01*
X143938385Y-57677171D01*
X144224787Y-58413497D01*
X144384298Y-59142689D01*
X144423675Y-59962531D01*
X144292372Y-60786443D01*
X144003725Y-61586576D01*
X143571073Y-62335080D01*
X143007753Y-63004109D01*
X142327101Y-63565812D01*
X142237646Y-63625021D01*
X141954244Y-63818920D01*
X141738806Y-63986921D01*
X141635809Y-64094187D01*
X141634311Y-64097578D01*
X141656423Y-64213615D01*
X141744079Y-64476966D01*
X141888169Y-64865970D01*
X142079584Y-65358961D01*
X142309216Y-65934276D01*
X142567957Y-66570252D01*
X142846698Y-67245225D01*
X143136329Y-67937530D01*
X143427744Y-68625504D01*
X143711832Y-69287483D01*
X143979485Y-69901804D01*
X144221594Y-70446802D01*
X144429052Y-70900815D01*
X144592749Y-71242177D01*
X144703577Y-71449225D01*
X144748207Y-71503603D01*
X144884585Y-71461259D01*
X145139762Y-71347692D01*
X145469737Y-71183200D01*
X145651184Y-71087032D01*
X146421763Y-70670388D01*
X147339742Y-71291298D01*
X147808350Y-71609386D01*
X148321394Y-71959433D01*
X148802167Y-72289031D01*
X149042983Y-72455002D01*
X149381682Y-72682441D01*
X149668482Y-72862677D01*
X149865971Y-72972885D01*
X149930116Y-72996183D01*
X150023479Y-72933335D01*
X150230106Y-72757885D01*
X150529964Y-72488050D01*
X150903022Y-72142045D01*
X151329247Y-71738088D01*
X151598816Y-71478720D01*
X152070431Y-71015338D01*
X152478012Y-70600877D01*
X152805081Y-70253068D01*
X153035163Y-69989640D01*
X153151782Y-69828323D01*
X153162970Y-69795586D01*
X153111051Y-69671063D01*
X152967578Y-69419283D01*
X152748468Y-69065738D01*
X152469634Y-68635917D01*
X152146992Y-68155311D01*
X152055239Y-68021322D01*
X151720919Y-67534334D01*
X151420982Y-67095883D01*
X151172197Y-66730607D01*
X150991333Y-66463146D01*
X150895159Y-66318138D01*
X150885868Y-66303144D01*
X150899763Y-66187580D01*
X150973518Y-65933496D01*
X151094273Y-65574396D01*
X151249169Y-65143784D01*
X151425344Y-64675166D01*
X151609938Y-64202046D01*
X151790092Y-63757929D01*
X151952945Y-63376319D01*
X152085637Y-63090721D01*
X152175308Y-62934641D01*
X152181682Y-62927154D01*
X152236516Y-62882547D01*
X152329130Y-62838436D01*
X152479852Y-62790254D01*
X152709011Y-62733434D01*
X153036936Y-62663411D01*
X153483954Y-62575618D01*
X154070396Y-62465488D01*
X154816589Y-62328455D01*
X154978150Y-62298992D01*
X155456984Y-62206477D01*
X155874424Y-62115974D01*
X156193579Y-62036213D01*
X156377561Y-61975929D01*
X156402231Y-61961875D01*
X156442883Y-61837275D01*
X156475926Y-61558830D01*
X156501339Y-61158908D01*
X156519100Y-60669876D01*
X156529186Y-60124100D01*
X156531575Y-59553947D01*
X156526244Y-58991784D01*
X156513173Y-58469978D01*
X156492339Y-58020896D01*
X156463719Y-57676905D01*
X156427291Y-57470371D01*
X156405331Y-57428099D01*
X156283074Y-57385459D01*
X156004682Y-57316089D01*
X155597890Y-57226008D01*
X155090435Y-57121232D01*
X154510054Y-57007779D01*
X154193845Y-56948316D01*
X153593888Y-56836163D01*
X153058872Y-56734563D01*
X152614944Y-56648614D01*
X152288255Y-56583412D01*
X152104955Y-56544052D01*
X152074787Y-56535326D01*
X152023798Y-56436947D01*
X151916015Y-56199983D01*
X151765804Y-55858287D01*
X151587532Y-55445714D01*
X151395567Y-54996118D01*
X151204276Y-54543351D01*
X151028026Y-54121267D01*
X150881183Y-53763720D01*
X150778115Y-53504564D01*
X150733189Y-53377652D01*
X150732353Y-53372105D01*
X150783283Y-53271989D01*
X150926067Y-53041599D01*
X151145698Y-52703832D01*
X151427169Y-52281587D01*
X151755472Y-51797762D01*
X151946324Y-51519853D01*
X152294090Y-51010289D01*
X152602971Y-50547659D01*
X152857896Y-50155365D01*
X153043793Y-49856810D01*
X153145592Y-49675399D01*
X153160294Y-49634732D01*
X153097093Y-49540074D01*
X152922369Y-49337965D01*
X152658442Y-49051047D01*
X152327630Y-48701963D01*
X151952253Y-48313354D01*
X151554631Y-47907865D01*
X151157083Y-47508136D01*
X150781928Y-47136811D01*
X150451486Y-46816532D01*
X150188076Y-46569942D01*
X150014017Y-46419684D01*
X149955788Y-46383824D01*
X149860976Y-46434248D01*
X149634207Y-46575908D01*
X149297528Y-46794382D01*
X148872988Y-47075251D01*
X148382635Y-47404095D01*
X148012750Y-47654623D01*
X146143909Y-48925421D01*
X144586109Y-48283245D01*
X143028309Y-47641068D01*
X142606125Y-45401600D01*
X142183941Y-43162133D01*
X137522677Y-43162133D01*
X137100493Y-45401600D01*
M02*
