G04 #@! TF.GenerationSoftware,KiCad,Pcbnew,(5.1.0)-1*
G04 #@! TF.CreationDate,2019-06-16T18:46:58-04:00*
G04 #@! TF.ProjectId,PSX_BREAKOUT_CASE,5053585f-4252-4454-914b-4f55545f4341,rev?*
G04 #@! TF.SameCoordinates,Original*
G04 #@! TF.FileFunction,Copper,L1,Top*
G04 #@! TF.FilePolarity,Positive*
%FSLAX46Y46*%
G04 Gerber Fmt 4.6, Leading zero omitted, Abs format (unit mm)*
G04 Created by KiCad (PCBNEW (5.1.0)-1) date 2019-06-16 18:46:58*
%MOMM*%
%LPD*%
G04 APERTURE LIST*
%ADD10C,0.010000*%
G04 APERTURE END LIST*
D10*
G36*
X132651500Y-93318475D02*
G01*
X132376333Y-93390504D01*
X132275657Y-93416967D01*
X132103505Y-93462345D01*
X131870249Y-93523896D01*
X131586264Y-93598882D01*
X131261923Y-93684564D01*
X130907602Y-93778201D01*
X130533672Y-93877055D01*
X130386666Y-93915928D01*
X130004948Y-94016701D01*
X129636255Y-94113711D01*
X129291413Y-94204133D01*
X128981251Y-94285142D01*
X128716596Y-94353912D01*
X128508275Y-94407617D01*
X128367116Y-94443431D01*
X128335195Y-94451310D01*
X128127333Y-94508467D01*
X127982291Y-94570395D01*
X127878900Y-94652577D01*
X127795994Y-94770497D01*
X127735246Y-94890166D01*
X127653129Y-95121985D01*
X127643777Y-95312369D01*
X127696813Y-95446412D01*
X127746048Y-95506220D01*
X127806682Y-95552256D01*
X127889252Y-95585939D01*
X128004293Y-95608693D01*
X128162341Y-95621937D01*
X128373933Y-95627092D01*
X128649602Y-95625579D01*
X128978736Y-95619299D01*
X129580511Y-95597607D01*
X130127192Y-95558861D01*
X130647285Y-95499414D01*
X131169294Y-95415622D01*
X131721724Y-95303842D01*
X132070667Y-95223951D01*
X132285181Y-95173410D01*
X132468968Y-95130686D01*
X132607000Y-95099228D01*
X132684252Y-95082484D01*
X132695083Y-95080666D01*
X132700762Y-95121024D01*
X132705811Y-95234199D01*
X132709985Y-95408342D01*
X132713041Y-95631604D01*
X132714736Y-95892135D01*
X132715000Y-96049192D01*
X132715000Y-97017717D01*
X132259916Y-97167251D01*
X132045643Y-97230515D01*
X131778443Y-97298750D01*
X131489155Y-97364621D01*
X131208620Y-97420792D01*
X131148666Y-97431553D01*
X130951637Y-97464971D01*
X130776252Y-97491477D01*
X130608229Y-97512018D01*
X130433285Y-97527535D01*
X130237136Y-97538974D01*
X130005500Y-97547279D01*
X129724093Y-97553393D01*
X129378633Y-97558261D01*
X129201333Y-97560265D01*
X128721990Y-97563361D01*
X128319871Y-97561289D01*
X127987682Y-97553871D01*
X127718128Y-97540928D01*
X127503913Y-97522279D01*
X127465666Y-97517671D01*
X126763542Y-97408942D01*
X126131927Y-97270735D01*
X125572076Y-97103813D01*
X125085246Y-96908940D01*
X124672694Y-96686878D01*
X124335674Y-96438389D01*
X124075443Y-96164237D01*
X123893258Y-95865183D01*
X123790374Y-95541992D01*
X123765988Y-95271166D01*
X123791171Y-95013720D01*
X123870421Y-94774388D01*
X124011536Y-94536671D01*
X124222311Y-94284071D01*
X124242668Y-94262459D01*
X124449651Y-94057855D01*
X124669922Y-93869484D01*
X124917190Y-93687854D01*
X125205166Y-93503473D01*
X125547558Y-93306847D01*
X125878166Y-93130016D01*
X126213830Y-92960679D01*
X126555255Y-92801245D01*
X126914839Y-92646847D01*
X127304982Y-92492615D01*
X127738082Y-92333680D01*
X128226538Y-92165173D01*
X128782750Y-91982225D01*
X128883833Y-91949692D01*
X129158362Y-91866313D01*
X129496238Y-91771155D01*
X129877810Y-91669151D01*
X130283424Y-91565231D01*
X130693426Y-91464328D01*
X131088164Y-91371375D01*
X131447984Y-91291302D01*
X131753234Y-91229042D01*
X131762500Y-91227282D01*
X131995800Y-91182881D01*
X132210008Y-91141729D01*
X132386423Y-91107446D01*
X132506342Y-91083653D01*
X132535785Y-91077569D01*
X132674070Y-91048135D01*
X132651500Y-93318475D01*
X132651500Y-93318475D01*
G37*
X132651500Y-93318475D02*
X132376333Y-93390504D01*
X132275657Y-93416967D01*
X132103505Y-93462345D01*
X131870249Y-93523896D01*
X131586264Y-93598882D01*
X131261923Y-93684564D01*
X130907602Y-93778201D01*
X130533672Y-93877055D01*
X130386666Y-93915928D01*
X130004948Y-94016701D01*
X129636255Y-94113711D01*
X129291413Y-94204133D01*
X128981251Y-94285142D01*
X128716596Y-94353912D01*
X128508275Y-94407617D01*
X128367116Y-94443431D01*
X128335195Y-94451310D01*
X128127333Y-94508467D01*
X127982291Y-94570395D01*
X127878900Y-94652577D01*
X127795994Y-94770497D01*
X127735246Y-94890166D01*
X127653129Y-95121985D01*
X127643777Y-95312369D01*
X127696813Y-95446412D01*
X127746048Y-95506220D01*
X127806682Y-95552256D01*
X127889252Y-95585939D01*
X128004293Y-95608693D01*
X128162341Y-95621937D01*
X128373933Y-95627092D01*
X128649602Y-95625579D01*
X128978736Y-95619299D01*
X129580511Y-95597607D01*
X130127192Y-95558861D01*
X130647285Y-95499414D01*
X131169294Y-95415622D01*
X131721724Y-95303842D01*
X132070667Y-95223951D01*
X132285181Y-95173410D01*
X132468968Y-95130686D01*
X132607000Y-95099228D01*
X132684252Y-95082484D01*
X132695083Y-95080666D01*
X132700762Y-95121024D01*
X132705811Y-95234199D01*
X132709985Y-95408342D01*
X132713041Y-95631604D01*
X132714736Y-95892135D01*
X132715000Y-96049192D01*
X132715000Y-97017717D01*
X132259916Y-97167251D01*
X132045643Y-97230515D01*
X131778443Y-97298750D01*
X131489155Y-97364621D01*
X131208620Y-97420792D01*
X131148666Y-97431553D01*
X130951637Y-97464971D01*
X130776252Y-97491477D01*
X130608229Y-97512018D01*
X130433285Y-97527535D01*
X130237136Y-97538974D01*
X130005500Y-97547279D01*
X129724093Y-97553393D01*
X129378633Y-97558261D01*
X129201333Y-97560265D01*
X128721990Y-97563361D01*
X128319871Y-97561289D01*
X127987682Y-97553871D01*
X127718128Y-97540928D01*
X127503913Y-97522279D01*
X127465666Y-97517671D01*
X126763542Y-97408942D01*
X126131927Y-97270735D01*
X125572076Y-97103813D01*
X125085246Y-96908940D01*
X124672694Y-96686878D01*
X124335674Y-96438389D01*
X124075443Y-96164237D01*
X123893258Y-95865183D01*
X123790374Y-95541992D01*
X123765988Y-95271166D01*
X123791171Y-95013720D01*
X123870421Y-94774388D01*
X124011536Y-94536671D01*
X124222311Y-94284071D01*
X124242668Y-94262459D01*
X124449651Y-94057855D01*
X124669922Y-93869484D01*
X124917190Y-93687854D01*
X125205166Y-93503473D01*
X125547558Y-93306847D01*
X125878166Y-93130016D01*
X126213830Y-92960679D01*
X126555255Y-92801245D01*
X126914839Y-92646847D01*
X127304982Y-92492615D01*
X127738082Y-92333680D01*
X128226538Y-92165173D01*
X128782750Y-91982225D01*
X128883833Y-91949692D01*
X129158362Y-91866313D01*
X129496238Y-91771155D01*
X129877810Y-91669151D01*
X130283424Y-91565231D01*
X130693426Y-91464328D01*
X131088164Y-91371375D01*
X131447984Y-91291302D01*
X131753234Y-91229042D01*
X131762500Y-91227282D01*
X131995800Y-91182881D01*
X132210008Y-91141729D01*
X132386423Y-91107446D01*
X132506342Y-91083653D01*
X132535785Y-91077569D01*
X132674070Y-91048135D01*
X132651500Y-93318475D01*
G36*
X145094816Y-91711167D02*
G01*
X145573218Y-91801276D01*
X146066164Y-91942014D01*
X146595223Y-92136570D01*
X146707616Y-92182364D01*
X147185272Y-92398976D01*
X147643933Y-92644032D01*
X148074110Y-92910392D01*
X148466314Y-93190912D01*
X148811054Y-93478452D01*
X149098842Y-93765869D01*
X149320187Y-94046023D01*
X149428628Y-94230178D01*
X149510529Y-94421895D01*
X149551857Y-94595655D01*
X149548163Y-94756429D01*
X149494998Y-94909190D01*
X149387910Y-95058909D01*
X149222452Y-95210558D01*
X148994171Y-95369109D01*
X148698620Y-95539533D01*
X148331348Y-95726803D01*
X147911860Y-95924885D01*
X147653030Y-96040351D01*
X147330574Y-96178513D01*
X146960379Y-96332967D01*
X146558328Y-96497312D01*
X146140307Y-96665146D01*
X145722201Y-96830067D01*
X145319893Y-96985674D01*
X144949270Y-97125564D01*
X144758833Y-97195614D01*
X144540895Y-97275355D01*
X144343887Y-97348381D01*
X144185116Y-97408207D01*
X144081893Y-97448348D01*
X144060333Y-97457309D01*
X143968084Y-97493788D01*
X143804629Y-97554277D01*
X143578963Y-97635666D01*
X143300085Y-97734840D01*
X142976991Y-97848689D01*
X142618680Y-97974099D01*
X142234148Y-98107957D01*
X141832392Y-98247152D01*
X141422410Y-98388571D01*
X141013200Y-98529102D01*
X140613757Y-98665631D01*
X140233081Y-98795047D01*
X139880167Y-98914237D01*
X139564013Y-99020088D01*
X139293618Y-99109488D01*
X139139083Y-99159744D01*
X138684000Y-99306336D01*
X138684000Y-97171443D01*
X139329583Y-96948874D01*
X139574892Y-96864025D01*
X139816142Y-96780092D01*
X140031225Y-96704799D01*
X140198035Y-96645871D01*
X140250333Y-96627156D01*
X140333801Y-96597473D01*
X140490393Y-96542185D01*
X140713327Y-96463675D01*
X140995820Y-96364325D01*
X141331089Y-96246517D01*
X141712352Y-96112635D01*
X142132826Y-95965059D01*
X142585727Y-95806173D01*
X143064275Y-95638359D01*
X143561684Y-95463999D01*
X143647515Y-95433920D01*
X144139305Y-95261244D01*
X144607274Y-95096286D01*
X145045366Y-94941221D01*
X145447524Y-94798222D01*
X145807694Y-94669464D01*
X146119818Y-94557119D01*
X146377841Y-94463363D01*
X146575707Y-94390368D01*
X146707359Y-94340309D01*
X146766741Y-94315360D01*
X146769598Y-94313219D01*
X146734524Y-94281602D01*
X146648379Y-94238777D01*
X146632083Y-94232138D01*
X146545202Y-94195798D01*
X146394682Y-94130783D01*
X146194123Y-94043096D01*
X145957126Y-93938736D01*
X145697291Y-93823706D01*
X145428219Y-93704007D01*
X145163511Y-93585639D01*
X144982558Y-93504293D01*
X144783654Y-93426003D01*
X144640489Y-93396990D01*
X144580392Y-93401253D01*
X144501671Y-93418995D01*
X144356491Y-93452631D01*
X144160756Y-93498442D01*
X143930368Y-93552707D01*
X143721666Y-93602110D01*
X143434407Y-93670110D01*
X143130191Y-93741864D01*
X142837097Y-93810766D01*
X142583206Y-93870209D01*
X142472833Y-93895924D01*
X142194384Y-93960741D01*
X141888300Y-94032217D01*
X141543462Y-94112959D01*
X141148750Y-94205572D01*
X140693043Y-94312664D01*
X140208000Y-94426771D01*
X139942085Y-94489234D01*
X139666018Y-94553880D01*
X139407807Y-94614161D01*
X139195456Y-94663534D01*
X139144128Y-94675414D01*
X138736424Y-94769631D01*
X138718071Y-94290148D01*
X138711854Y-94027301D01*
X138710709Y-93728676D01*
X138714634Y-93443008D01*
X138718133Y-93329574D01*
X138736547Y-92848481D01*
X139186523Y-92677058D01*
X139795914Y-92458962D01*
X140403198Y-92271441D01*
X141024002Y-92111025D01*
X141673954Y-91974247D01*
X142368679Y-91857638D01*
X143123806Y-91757729D01*
X143531166Y-91712717D01*
X144095360Y-91670076D01*
X144609386Y-91668496D01*
X145094816Y-91711167D01*
X145094816Y-91711167D01*
G37*
X145094816Y-91711167D02*
X145573218Y-91801276D01*
X146066164Y-91942014D01*
X146595223Y-92136570D01*
X146707616Y-92182364D01*
X147185272Y-92398976D01*
X147643933Y-92644032D01*
X148074110Y-92910392D01*
X148466314Y-93190912D01*
X148811054Y-93478452D01*
X149098842Y-93765869D01*
X149320187Y-94046023D01*
X149428628Y-94230178D01*
X149510529Y-94421895D01*
X149551857Y-94595655D01*
X149548163Y-94756429D01*
X149494998Y-94909190D01*
X149387910Y-95058909D01*
X149222452Y-95210558D01*
X148994171Y-95369109D01*
X148698620Y-95539533D01*
X148331348Y-95726803D01*
X147911860Y-95924885D01*
X147653030Y-96040351D01*
X147330574Y-96178513D01*
X146960379Y-96332967D01*
X146558328Y-96497312D01*
X146140307Y-96665146D01*
X145722201Y-96830067D01*
X145319893Y-96985674D01*
X144949270Y-97125564D01*
X144758833Y-97195614D01*
X144540895Y-97275355D01*
X144343887Y-97348381D01*
X144185116Y-97408207D01*
X144081893Y-97448348D01*
X144060333Y-97457309D01*
X143968084Y-97493788D01*
X143804629Y-97554277D01*
X143578963Y-97635666D01*
X143300085Y-97734840D01*
X142976991Y-97848689D01*
X142618680Y-97974099D01*
X142234148Y-98107957D01*
X141832392Y-98247152D01*
X141422410Y-98388571D01*
X141013200Y-98529102D01*
X140613757Y-98665631D01*
X140233081Y-98795047D01*
X139880167Y-98914237D01*
X139564013Y-99020088D01*
X139293618Y-99109488D01*
X139139083Y-99159744D01*
X138684000Y-99306336D01*
X138684000Y-97171443D01*
X139329583Y-96948874D01*
X139574892Y-96864025D01*
X139816142Y-96780092D01*
X140031225Y-96704799D01*
X140198035Y-96645871D01*
X140250333Y-96627156D01*
X140333801Y-96597473D01*
X140490393Y-96542185D01*
X140713327Y-96463675D01*
X140995820Y-96364325D01*
X141331089Y-96246517D01*
X141712352Y-96112635D01*
X142132826Y-95965059D01*
X142585727Y-95806173D01*
X143064275Y-95638359D01*
X143561684Y-95463999D01*
X143647515Y-95433920D01*
X144139305Y-95261244D01*
X144607274Y-95096286D01*
X145045366Y-94941221D01*
X145447524Y-94798222D01*
X145807694Y-94669464D01*
X146119818Y-94557119D01*
X146377841Y-94463363D01*
X146575707Y-94390368D01*
X146707359Y-94340309D01*
X146766741Y-94315360D01*
X146769598Y-94313219D01*
X146734524Y-94281602D01*
X146648379Y-94238777D01*
X146632083Y-94232138D01*
X146545202Y-94195798D01*
X146394682Y-94130783D01*
X146194123Y-94043096D01*
X145957126Y-93938736D01*
X145697291Y-93823706D01*
X145428219Y-93704007D01*
X145163511Y-93585639D01*
X144982558Y-93504293D01*
X144783654Y-93426003D01*
X144640489Y-93396990D01*
X144580392Y-93401253D01*
X144501671Y-93418995D01*
X144356491Y-93452631D01*
X144160756Y-93498442D01*
X143930368Y-93552707D01*
X143721666Y-93602110D01*
X143434407Y-93670110D01*
X143130191Y-93741864D01*
X142837097Y-93810766D01*
X142583206Y-93870209D01*
X142472833Y-93895924D01*
X142194384Y-93960741D01*
X141888300Y-94032217D01*
X141543462Y-94112959D01*
X141148750Y-94205572D01*
X140693043Y-94312664D01*
X140208000Y-94426771D01*
X139942085Y-94489234D01*
X139666018Y-94553880D01*
X139407807Y-94614161D01*
X139195456Y-94663534D01*
X139144128Y-94675414D01*
X138736424Y-94769631D01*
X138718071Y-94290148D01*
X138711854Y-94027301D01*
X138710709Y-93728676D01*
X138714634Y-93443008D01*
X138718133Y-93329574D01*
X138736547Y-92848481D01*
X139186523Y-92677058D01*
X139795914Y-92458962D01*
X140403198Y-92271441D01*
X141024002Y-92111025D01*
X141673954Y-91974247D01*
X142368679Y-91857638D01*
X143123806Y-91757729D01*
X143531166Y-91712717D01*
X144095360Y-91670076D01*
X144609386Y-91668496D01*
X145094816Y-91711167D01*
G36*
X133826250Y-79646680D02*
G01*
X134579116Y-79807604D01*
X135336845Y-79985589D01*
X136080102Y-80175565D01*
X136789546Y-80372463D01*
X137445842Y-80571213D01*
X137816166Y-80692667D01*
X138726801Y-81022045D01*
X139562256Y-81366499D01*
X140321468Y-81725324D01*
X141003374Y-82097815D01*
X141606912Y-82483266D01*
X142131017Y-82880972D01*
X142574627Y-83290228D01*
X142936678Y-83710327D01*
X143216108Y-84140566D01*
X143316921Y-84342374D01*
X143400731Y-84555914D01*
X143488962Y-84829380D01*
X143575382Y-85138708D01*
X143653766Y-85459829D01*
X143717883Y-85768677D01*
X143761505Y-86041184D01*
X143765855Y-86077082D01*
X143788410Y-86345691D01*
X143801195Y-86656432D01*
X143804287Y-86983230D01*
X143797763Y-87300011D01*
X143781703Y-87580699D01*
X143760816Y-87770057D01*
X143673556Y-88210211D01*
X143546799Y-88647283D01*
X143386897Y-89068422D01*
X143200197Y-89460775D01*
X142993049Y-89811492D01*
X142771801Y-90107720D01*
X142542804Y-90336609D01*
X142462469Y-90398102D01*
X142292693Y-90490768D01*
X142091982Y-90546404D01*
X141845702Y-90567113D01*
X141539221Y-90554993D01*
X141435666Y-90545505D01*
X141008131Y-90478136D01*
X140638082Y-90364302D01*
X140307777Y-90196385D01*
X139999473Y-89966766D01*
X139918800Y-89894225D01*
X139678833Y-89670879D01*
X139657666Y-86761975D01*
X139636500Y-83853071D01*
X139276666Y-83705469D01*
X139100884Y-83632746D01*
X138874112Y-83538033D01*
X138623225Y-83432598D01*
X138375093Y-83327708D01*
X138327937Y-83307691D01*
X138122164Y-83222008D01*
X137945122Y-83151576D01*
X137810745Y-83101680D01*
X137732967Y-83077604D01*
X137719591Y-83076964D01*
X137717487Y-83120595D01*
X137715142Y-83244827D01*
X137712582Y-83445594D01*
X137709829Y-83718830D01*
X137706910Y-84060469D01*
X137703847Y-84466447D01*
X137700665Y-84932696D01*
X137697389Y-85455152D01*
X137694043Y-86029749D01*
X137690651Y-86652422D01*
X137687237Y-87319104D01*
X137683826Y-88025729D01*
X137680443Y-88768233D01*
X137677111Y-89542550D01*
X137673854Y-90344613D01*
X137670698Y-91170357D01*
X137669948Y-91374551D01*
X137666829Y-92205398D01*
X137663622Y-93013527D01*
X137660350Y-93794873D01*
X137657036Y-94545373D01*
X137653705Y-95260963D01*
X137650379Y-95937581D01*
X137647082Y-96571161D01*
X137643837Y-97157640D01*
X137640668Y-97692955D01*
X137637598Y-98173042D01*
X137634651Y-98593837D01*
X137631849Y-98951276D01*
X137629217Y-99241297D01*
X137626778Y-99459834D01*
X137624555Y-99602824D01*
X137622572Y-99666205D01*
X137622127Y-99669126D01*
X137577678Y-99661503D01*
X137478440Y-99625602D01*
X137350500Y-99571216D01*
X137257315Y-99530200D01*
X137095832Y-99460173D01*
X136875666Y-99365261D01*
X136606429Y-99249593D01*
X136297737Y-99117296D01*
X135959202Y-98972497D01*
X135600439Y-98819324D01*
X135414044Y-98739851D01*
X133731588Y-98022833D01*
X133731294Y-88825110D01*
X133731000Y-79627386D01*
X133826250Y-79646680D01*
X133826250Y-79646680D01*
G37*
X133826250Y-79646680D02*
X134579116Y-79807604D01*
X135336845Y-79985589D01*
X136080102Y-80175565D01*
X136789546Y-80372463D01*
X137445842Y-80571213D01*
X137816166Y-80692667D01*
X138726801Y-81022045D01*
X139562256Y-81366499D01*
X140321468Y-81725324D01*
X141003374Y-82097815D01*
X141606912Y-82483266D01*
X142131017Y-82880972D01*
X142574627Y-83290228D01*
X142936678Y-83710327D01*
X143216108Y-84140566D01*
X143316921Y-84342374D01*
X143400731Y-84555914D01*
X143488962Y-84829380D01*
X143575382Y-85138708D01*
X143653766Y-85459829D01*
X143717883Y-85768677D01*
X143761505Y-86041184D01*
X143765855Y-86077082D01*
X143788410Y-86345691D01*
X143801195Y-86656432D01*
X143804287Y-86983230D01*
X143797763Y-87300011D01*
X143781703Y-87580699D01*
X143760816Y-87770057D01*
X143673556Y-88210211D01*
X143546799Y-88647283D01*
X143386897Y-89068422D01*
X143200197Y-89460775D01*
X142993049Y-89811492D01*
X142771801Y-90107720D01*
X142542804Y-90336609D01*
X142462469Y-90398102D01*
X142292693Y-90490768D01*
X142091982Y-90546404D01*
X141845702Y-90567113D01*
X141539221Y-90554993D01*
X141435666Y-90545505D01*
X141008131Y-90478136D01*
X140638082Y-90364302D01*
X140307777Y-90196385D01*
X139999473Y-89966766D01*
X139918800Y-89894225D01*
X139678833Y-89670879D01*
X139657666Y-86761975D01*
X139636500Y-83853071D01*
X139276666Y-83705469D01*
X139100884Y-83632746D01*
X138874112Y-83538033D01*
X138623225Y-83432598D01*
X138375093Y-83327708D01*
X138327937Y-83307691D01*
X138122164Y-83222008D01*
X137945122Y-83151576D01*
X137810745Y-83101680D01*
X137732967Y-83077604D01*
X137719591Y-83076964D01*
X137717487Y-83120595D01*
X137715142Y-83244827D01*
X137712582Y-83445594D01*
X137709829Y-83718830D01*
X137706910Y-84060469D01*
X137703847Y-84466447D01*
X137700665Y-84932696D01*
X137697389Y-85455152D01*
X137694043Y-86029749D01*
X137690651Y-86652422D01*
X137687237Y-87319104D01*
X137683826Y-88025729D01*
X137680443Y-88768233D01*
X137677111Y-89542550D01*
X137673854Y-90344613D01*
X137670698Y-91170357D01*
X137669948Y-91374551D01*
X137666829Y-92205398D01*
X137663622Y-93013527D01*
X137660350Y-93794873D01*
X137657036Y-94545373D01*
X137653705Y-95260963D01*
X137650379Y-95937581D01*
X137647082Y-96571161D01*
X137643837Y-97157640D01*
X137640668Y-97692955D01*
X137637598Y-98173042D01*
X137634651Y-98593837D01*
X137631849Y-98951276D01*
X137629217Y-99241297D01*
X137626778Y-99459834D01*
X137624555Y-99602824D01*
X137622572Y-99666205D01*
X137622127Y-99669126D01*
X137577678Y-99661503D01*
X137478440Y-99625602D01*
X137350500Y-99571216D01*
X137257315Y-99530200D01*
X137095832Y-99460173D01*
X136875666Y-99365261D01*
X136606429Y-99249593D01*
X136297737Y-99117296D01*
X135959202Y-98972497D01*
X135600439Y-98819324D01*
X135414044Y-98739851D01*
X133731588Y-98022833D01*
X133731294Y-88825110D01*
X133731000Y-79627386D01*
X133826250Y-79646680D01*
M02*
