G04 #@! TF.GenerationSoftware,KiCad,Pcbnew,(5.1.0)-1*
G04 #@! TF.CreationDate,2019-06-16T18:46:58-04:00*
G04 #@! TF.ProjectId,PSX_BREAKOUT_CASE,5053585f-4252-4454-914b-4f55545f4341,rev?*
G04 #@! TF.SameCoordinates,Original*
G04 #@! TF.FileFunction,Legend,Top*
G04 #@! TF.FilePolarity,Positive*
%FSLAX46Y46*%
G04 Gerber Fmt 4.6, Leading zero omitted, Abs format (unit mm)*
G04 Created by KiCad (PCBNEW (5.1.0)-1) date 2019-06-16 18:46:58*
%MOMM*%
%LPD*%
G04 APERTURE LIST*
%ADD10C,0.150000*%
G04 APERTURE END LIST*
D10*
X167782952Y-97036380D02*
X167449619Y-96560190D01*
X167211523Y-97036380D02*
X167211523Y-96036380D01*
X167592476Y-96036380D01*
X167687714Y-96084000D01*
X167735333Y-96131619D01*
X167782952Y-96226857D01*
X167782952Y-96369714D01*
X167735333Y-96464952D01*
X167687714Y-96512571D01*
X167592476Y-96560190D01*
X167211523Y-96560190D01*
X168782952Y-96941142D02*
X168735333Y-96988761D01*
X168592476Y-97036380D01*
X168497238Y-97036380D01*
X168354380Y-96988761D01*
X168259142Y-96893523D01*
X168211523Y-96798285D01*
X168163904Y-96607809D01*
X168163904Y-96464952D01*
X168211523Y-96274476D01*
X168259142Y-96179238D01*
X168354380Y-96084000D01*
X168497238Y-96036380D01*
X168592476Y-96036380D01*
X168735333Y-96084000D01*
X168782952Y-96131619D01*
X169163904Y-96750666D02*
X169640095Y-96750666D01*
X169068666Y-97036380D02*
X169402000Y-96036380D01*
X169735333Y-97036380D01*
X157211523Y-98686380D02*
X156878190Y-98210190D01*
X156640095Y-98686380D02*
X156640095Y-97686380D01*
X157021047Y-97686380D01*
X157116285Y-97734000D01*
X157163904Y-97781619D01*
X157211523Y-97876857D01*
X157211523Y-98019714D01*
X157163904Y-98114952D01*
X157116285Y-98162571D01*
X157021047Y-98210190D01*
X156640095Y-98210190D01*
X158163904Y-97734000D02*
X158068666Y-97686380D01*
X157925809Y-97686380D01*
X157782952Y-97734000D01*
X157687714Y-97829238D01*
X157640095Y-97924476D01*
X157592476Y-98114952D01*
X157592476Y-98257809D01*
X157640095Y-98448285D01*
X157687714Y-98543523D01*
X157782952Y-98638761D01*
X157925809Y-98686380D01*
X158021047Y-98686380D01*
X158163904Y-98638761D01*
X158211523Y-98591142D01*
X158211523Y-98257809D01*
X158021047Y-98257809D01*
X158973428Y-98162571D02*
X159116285Y-98210190D01*
X159163904Y-98257809D01*
X159211523Y-98353047D01*
X159211523Y-98495904D01*
X159163904Y-98591142D01*
X159116285Y-98638761D01*
X159021047Y-98686380D01*
X158640095Y-98686380D01*
X158640095Y-97686380D01*
X158973428Y-97686380D01*
X159068666Y-97734000D01*
X159116285Y-97781619D01*
X159163904Y-97876857D01*
X159163904Y-97972095D01*
X159116285Y-98067333D01*
X159068666Y-98114952D01*
X158973428Y-98162571D01*
X158640095Y-98162571D01*
X160354380Y-97638761D02*
X159497238Y-98924476D01*
X160878190Y-98210190D02*
X160878190Y-98686380D01*
X160544857Y-97686380D02*
X160878190Y-98210190D01*
X161211523Y-97686380D01*
X161544857Y-98686380D02*
X161544857Y-97686380D01*
X161925809Y-97686380D01*
X162021047Y-97734000D01*
X162068666Y-97781619D01*
X162116285Y-97876857D01*
X162116285Y-98019714D01*
X162068666Y-98114952D01*
X162021047Y-98162571D01*
X161925809Y-98210190D01*
X161544857Y-98210190D01*
X162544857Y-98686380D02*
X162544857Y-97686380D01*
X162544857Y-98067333D02*
X162640095Y-98019714D01*
X162830571Y-98019714D01*
X162925809Y-98067333D01*
X162973428Y-98114952D01*
X163021047Y-98210190D01*
X163021047Y-98495904D01*
X162973428Y-98591142D01*
X162925809Y-98638761D01*
X162830571Y-98686380D01*
X162640095Y-98686380D01*
X162544857Y-98638761D01*
X163449619Y-98686380D02*
X163449619Y-97686380D01*
X163830571Y-97686380D01*
X163925809Y-97734000D01*
X163973428Y-97781619D01*
X164021047Y-97876857D01*
X164021047Y-98019714D01*
X163973428Y-98114952D01*
X163925809Y-98162571D01*
X163830571Y-98210190D01*
X163449619Y-98210190D01*
X164449619Y-98686380D02*
X164449619Y-98019714D01*
X164449619Y-98210190D02*
X164497238Y-98114952D01*
X164544857Y-98067333D01*
X164640095Y-98019714D01*
X164735333Y-98019714D01*
X165116285Y-98638761D02*
X165116285Y-98686380D01*
X165068666Y-98781619D01*
X165021047Y-98829238D01*
X166259142Y-98638761D02*
X166402000Y-98686380D01*
X166640095Y-98686380D01*
X166735333Y-98638761D01*
X166782952Y-98591142D01*
X166830571Y-98495904D01*
X166830571Y-98400666D01*
X166782952Y-98305428D01*
X166735333Y-98257809D01*
X166640095Y-98210190D01*
X166449619Y-98162571D01*
X166354380Y-98114952D01*
X166306761Y-98067333D01*
X166259142Y-97972095D01*
X166259142Y-97876857D01*
X166306761Y-97781619D01*
X166354380Y-97734000D01*
X166449619Y-97686380D01*
X166687714Y-97686380D01*
X166830571Y-97734000D01*
X167163904Y-98019714D02*
X167402000Y-98686380D01*
X167640095Y-98019714D02*
X167402000Y-98686380D01*
X167306761Y-98924476D01*
X167259142Y-98972095D01*
X167163904Y-99019714D01*
X168021047Y-98019714D02*
X168021047Y-98686380D01*
X168021047Y-98114952D02*
X168068666Y-98067333D01*
X168163904Y-98019714D01*
X168306761Y-98019714D01*
X168402000Y-98067333D01*
X168449619Y-98162571D01*
X168449619Y-98686380D01*
X169354380Y-98638761D02*
X169259142Y-98686380D01*
X169068666Y-98686380D01*
X168973428Y-98638761D01*
X168925809Y-98591142D01*
X168878190Y-98495904D01*
X168878190Y-98210190D01*
X168925809Y-98114952D01*
X168973428Y-98067333D01*
X169068666Y-98019714D01*
X169259142Y-98019714D01*
X169354380Y-98067333D01*
X170497238Y-97638761D02*
X169640095Y-98924476D01*
X171402000Y-98591142D02*
X171354380Y-98638761D01*
X171211523Y-98686380D01*
X171116285Y-98686380D01*
X170973428Y-98638761D01*
X170878190Y-98543523D01*
X170830571Y-98448285D01*
X170782952Y-98257809D01*
X170782952Y-98114952D01*
X170830571Y-97924476D01*
X170878190Y-97829238D01*
X170973428Y-97734000D01*
X171116285Y-97686380D01*
X171211523Y-97686380D01*
X171354380Y-97734000D01*
X171402000Y-97781619D01*
X171687714Y-97686380D02*
X172021047Y-98686380D01*
X172354380Y-97686380D01*
X173021047Y-98162571D02*
X173163904Y-98210190D01*
X173211523Y-98257809D01*
X173259142Y-98353047D01*
X173259142Y-98495904D01*
X173211523Y-98591142D01*
X173163904Y-98638761D01*
X173068666Y-98686380D01*
X172687714Y-98686380D01*
X172687714Y-97686380D01*
X173021047Y-97686380D01*
X173116285Y-97734000D01*
X173163904Y-97781619D01*
X173211523Y-97876857D01*
X173211523Y-97972095D01*
X173163904Y-98067333D01*
X173116285Y-98114952D01*
X173021047Y-98162571D01*
X172687714Y-98162571D01*
X173640095Y-98638761D02*
X173782952Y-98686380D01*
X174021047Y-98686380D01*
X174116285Y-98638761D01*
X174163904Y-98591142D01*
X174211523Y-98495904D01*
X174211523Y-98400666D01*
X174163904Y-98305428D01*
X174116285Y-98257809D01*
X174021047Y-98210190D01*
X173830571Y-98162571D01*
X173735333Y-98114952D01*
X173687714Y-98067333D01*
X173640095Y-97972095D01*
X173640095Y-97876857D01*
X173687714Y-97781619D01*
X173735333Y-97734000D01*
X173830571Y-97686380D01*
X174068666Y-97686380D01*
X174211523Y-97734000D01*
X174687714Y-98638761D02*
X174687714Y-98686380D01*
X174640095Y-98781619D01*
X174592476Y-98829238D01*
X175830571Y-98638761D02*
X175973428Y-98686380D01*
X176211523Y-98686380D01*
X176306761Y-98638761D01*
X176354380Y-98591142D01*
X176402000Y-98495904D01*
X176402000Y-98400666D01*
X176354380Y-98305428D01*
X176306761Y-98257809D01*
X176211523Y-98210190D01*
X176021047Y-98162571D01*
X175925809Y-98114952D01*
X175878190Y-98067333D01*
X175830571Y-97972095D01*
X175830571Y-97876857D01*
X175878190Y-97781619D01*
X175925809Y-97734000D01*
X176021047Y-97686380D01*
X176259142Y-97686380D01*
X176402000Y-97734000D01*
X176687714Y-98019714D02*
X177068666Y-98019714D01*
X176830571Y-97686380D02*
X176830571Y-98543523D01*
X176878190Y-98638761D01*
X176973428Y-98686380D01*
X177068666Y-98686380D01*
X177782952Y-98638761D02*
X177687714Y-98686380D01*
X177497238Y-98686380D01*
X177402000Y-98638761D01*
X177354380Y-98543523D01*
X177354380Y-98162571D01*
X177402000Y-98067333D01*
X177497238Y-98019714D01*
X177687714Y-98019714D01*
X177782952Y-98067333D01*
X177830571Y-98162571D01*
X177830571Y-98257809D01*
X177354380Y-98353047D01*
X178259142Y-98686380D02*
X178259142Y-98019714D01*
X178259142Y-98210190D02*
X178306761Y-98114952D01*
X178354380Y-98067333D01*
X178449619Y-98019714D01*
X178544857Y-98019714D01*
X179259142Y-98638761D02*
X179163904Y-98686380D01*
X178973428Y-98686380D01*
X178878190Y-98638761D01*
X178830571Y-98543523D01*
X178830571Y-98162571D01*
X178878190Y-98067333D01*
X178973428Y-98019714D01*
X179163904Y-98019714D01*
X179259142Y-98067333D01*
X179306761Y-98162571D01*
X179306761Y-98257809D01*
X178830571Y-98353047D01*
X179878190Y-98686380D02*
X179782952Y-98638761D01*
X179735333Y-98591142D01*
X179687714Y-98495904D01*
X179687714Y-98210190D01*
X179735333Y-98114952D01*
X179782952Y-98067333D01*
X179878190Y-98019714D01*
X180021047Y-98019714D01*
X180116285Y-98067333D01*
X180163904Y-98114952D01*
X180211523Y-98210190D01*
X180211523Y-98495904D01*
X180163904Y-98591142D01*
X180116285Y-98638761D01*
X180021047Y-98686380D01*
X179878190Y-98686380D01*
X136287238Y-111085261D02*
X136430095Y-111132880D01*
X136668190Y-111132880D01*
X136763428Y-111085261D01*
X136811047Y-111037642D01*
X136858666Y-110942404D01*
X136858666Y-110847166D01*
X136811047Y-110751928D01*
X136763428Y-110704309D01*
X136668190Y-110656690D01*
X136477714Y-110609071D01*
X136382476Y-110561452D01*
X136334857Y-110513833D01*
X136287238Y-110418595D01*
X136287238Y-110323357D01*
X136334857Y-110228119D01*
X136382476Y-110180500D01*
X136477714Y-110132880D01*
X136715809Y-110132880D01*
X136858666Y-110180500D01*
X137287238Y-110751928D02*
X138049142Y-110751928D01*
X138382476Y-110132880D02*
X138715809Y-111132880D01*
X139049142Y-110132880D01*
X139382476Y-111132880D02*
X139382476Y-110466214D01*
X139382476Y-110132880D02*
X139334857Y-110180500D01*
X139382476Y-110228119D01*
X139430095Y-110180500D01*
X139382476Y-110132880D01*
X139382476Y-110228119D01*
X140287238Y-111132880D02*
X140287238Y-110132880D01*
X140287238Y-111085261D02*
X140192000Y-111132880D01*
X140001523Y-111132880D01*
X139906285Y-111085261D01*
X139858666Y-111037642D01*
X139811047Y-110942404D01*
X139811047Y-110656690D01*
X139858666Y-110561452D01*
X139906285Y-110513833D01*
X140001523Y-110466214D01*
X140192000Y-110466214D01*
X140287238Y-110513833D01*
X141144380Y-111085261D02*
X141049142Y-111132880D01*
X140858666Y-111132880D01*
X140763428Y-111085261D01*
X140715809Y-110990023D01*
X140715809Y-110609071D01*
X140763428Y-110513833D01*
X140858666Y-110466214D01*
X141049142Y-110466214D01*
X141144380Y-110513833D01*
X141192000Y-110609071D01*
X141192000Y-110704309D01*
X140715809Y-110799547D01*
X141763428Y-111132880D02*
X141668190Y-111085261D01*
X141620571Y-111037642D01*
X141572952Y-110942404D01*
X141572952Y-110656690D01*
X141620571Y-110561452D01*
X141668190Y-110513833D01*
X141763428Y-110466214D01*
X141906285Y-110466214D01*
X142001523Y-110513833D01*
X142049142Y-110561452D01*
X142096761Y-110656690D01*
X142096761Y-110942404D01*
X142049142Y-111037642D01*
X142001523Y-111085261D01*
X141906285Y-111132880D01*
X141763428Y-111132880D01*
X123846047Y-108482380D02*
X124465095Y-108482380D01*
X124131761Y-108863333D01*
X124274619Y-108863333D01*
X124369857Y-108910952D01*
X124417476Y-108958571D01*
X124465095Y-109053809D01*
X124465095Y-109291904D01*
X124417476Y-109387142D01*
X124369857Y-109434761D01*
X124274619Y-109482380D01*
X123988904Y-109482380D01*
X123893666Y-109434761D01*
X123846047Y-109387142D01*
X124893666Y-109387142D02*
X124941285Y-109434761D01*
X124893666Y-109482380D01*
X124846047Y-109434761D01*
X124893666Y-109387142D01*
X124893666Y-109482380D01*
X125846047Y-108482380D02*
X125369857Y-108482380D01*
X125322238Y-108958571D01*
X125369857Y-108910952D01*
X125465095Y-108863333D01*
X125703190Y-108863333D01*
X125798428Y-108910952D01*
X125846047Y-108958571D01*
X125893666Y-109053809D01*
X125893666Y-109291904D01*
X125846047Y-109387142D01*
X125798428Y-109434761D01*
X125703190Y-109482380D01*
X125465095Y-109482380D01*
X125369857Y-109434761D01*
X125322238Y-109387142D01*
X126322238Y-109482380D02*
X126322238Y-108815714D01*
X126322238Y-108910952D02*
X126369857Y-108863333D01*
X126465095Y-108815714D01*
X126607952Y-108815714D01*
X126703190Y-108863333D01*
X126750809Y-108958571D01*
X126750809Y-109482380D01*
X126750809Y-108958571D02*
X126798428Y-108863333D01*
X126893666Y-108815714D01*
X127036523Y-108815714D01*
X127131761Y-108863333D01*
X127179380Y-108958571D01*
X127179380Y-109482380D01*
X127655571Y-109482380D02*
X127655571Y-108815714D01*
X127655571Y-108910952D02*
X127703190Y-108863333D01*
X127798428Y-108815714D01*
X127941285Y-108815714D01*
X128036523Y-108863333D01*
X128084142Y-108958571D01*
X128084142Y-109482380D01*
X128084142Y-108958571D02*
X128131761Y-108863333D01*
X128227000Y-108815714D01*
X128369857Y-108815714D01*
X128465095Y-108863333D01*
X128512714Y-108958571D01*
X128512714Y-109482380D01*
X124036523Y-111084761D02*
X124179380Y-111132380D01*
X124417476Y-111132380D01*
X124512714Y-111084761D01*
X124560333Y-111037142D01*
X124607952Y-110941904D01*
X124607952Y-110846666D01*
X124560333Y-110751428D01*
X124512714Y-110703809D01*
X124417476Y-110656190D01*
X124227000Y-110608571D01*
X124131761Y-110560952D01*
X124084142Y-110513333D01*
X124036523Y-110418095D01*
X124036523Y-110322857D01*
X124084142Y-110227619D01*
X124131761Y-110180000D01*
X124227000Y-110132380D01*
X124465095Y-110132380D01*
X124607952Y-110180000D01*
X124893666Y-110465714D02*
X125274619Y-110465714D01*
X125036523Y-110132380D02*
X125036523Y-110989523D01*
X125084142Y-111084761D01*
X125179380Y-111132380D01*
X125274619Y-111132380D01*
X125988904Y-111084761D02*
X125893666Y-111132380D01*
X125703190Y-111132380D01*
X125607952Y-111084761D01*
X125560333Y-110989523D01*
X125560333Y-110608571D01*
X125607952Y-110513333D01*
X125703190Y-110465714D01*
X125893666Y-110465714D01*
X125988904Y-110513333D01*
X126036523Y-110608571D01*
X126036523Y-110703809D01*
X125560333Y-110799047D01*
X126465095Y-111132380D02*
X126465095Y-110465714D01*
X126465095Y-110656190D02*
X126512714Y-110560952D01*
X126560333Y-110513333D01*
X126655571Y-110465714D01*
X126750809Y-110465714D01*
X127465095Y-111084761D02*
X127369857Y-111132380D01*
X127179380Y-111132380D01*
X127084142Y-111084761D01*
X127036523Y-110989523D01*
X127036523Y-110608571D01*
X127084142Y-110513333D01*
X127179380Y-110465714D01*
X127369857Y-110465714D01*
X127465095Y-110513333D01*
X127512714Y-110608571D01*
X127512714Y-110703809D01*
X127036523Y-110799047D01*
X128084142Y-111132380D02*
X127988904Y-111084761D01*
X127941285Y-111037142D01*
X127893666Y-110941904D01*
X127893666Y-110656190D01*
X127941285Y-110560952D01*
X127988904Y-110513333D01*
X128084142Y-110465714D01*
X128226999Y-110465714D01*
X128322238Y-110513333D01*
X128369857Y-110560952D01*
X128417476Y-110656190D01*
X128417476Y-110941904D01*
X128369857Y-111037142D01*
X128322238Y-111084761D01*
X128226999Y-111132380D01*
X128084142Y-111132380D01*
X101671952Y-109482380D02*
X101671952Y-108482380D01*
X101910047Y-108482380D01*
X102052904Y-108530000D01*
X102148142Y-108625238D01*
X102195761Y-108720476D01*
X102243380Y-108910952D01*
X102243380Y-109053809D01*
X102195761Y-109244285D01*
X102148142Y-109339523D01*
X102052904Y-109434761D01*
X101910047Y-109482380D01*
X101671952Y-109482380D01*
X102624333Y-109434761D02*
X102767190Y-109482380D01*
X103005285Y-109482380D01*
X103100523Y-109434761D01*
X103148142Y-109387142D01*
X103195761Y-109291904D01*
X103195761Y-109196666D01*
X103148142Y-109101428D01*
X103100523Y-109053809D01*
X103005285Y-109006190D01*
X102814809Y-108958571D01*
X102719571Y-108910952D01*
X102671952Y-108863333D01*
X102624333Y-108768095D01*
X102624333Y-108672857D01*
X102671952Y-108577619D01*
X102719571Y-108530000D01*
X102814809Y-108482380D01*
X103052904Y-108482380D01*
X103195761Y-108530000D01*
X103624333Y-108482380D02*
X103624333Y-109291904D01*
X103671952Y-109387142D01*
X103719571Y-109434761D01*
X103814809Y-109482380D01*
X104005285Y-109482380D01*
X104100523Y-109434761D01*
X104148142Y-109387142D01*
X104195761Y-109291904D01*
X104195761Y-108482380D01*
X105005285Y-108958571D02*
X105148142Y-109006190D01*
X105195761Y-109053809D01*
X105243380Y-109149047D01*
X105243380Y-109291904D01*
X105195761Y-109387142D01*
X105148142Y-109434761D01*
X105052904Y-109482380D01*
X104671952Y-109482380D01*
X104671952Y-108482380D01*
X105005285Y-108482380D01*
X105100523Y-108530000D01*
X105148142Y-108577619D01*
X105195761Y-108672857D01*
X105195761Y-108768095D01*
X105148142Y-108863333D01*
X105100523Y-108910952D01*
X105005285Y-108958571D01*
X104671952Y-108958571D01*
X106433857Y-109482380D02*
X106433857Y-108482380D01*
X106433857Y-108958571D02*
X107005285Y-108958571D01*
X107005285Y-109482380D02*
X107005285Y-108482380D01*
X107481476Y-109482380D02*
X107481476Y-108482380D01*
X107719571Y-108482380D01*
X107862428Y-108530000D01*
X107957666Y-108625238D01*
X108005285Y-108720476D01*
X108052904Y-108910952D01*
X108052904Y-109053809D01*
X108005285Y-109244285D01*
X107957666Y-109339523D01*
X107862428Y-109434761D01*
X107719571Y-109482380D01*
X107481476Y-109482380D01*
X109005285Y-109482380D02*
X108433857Y-109482380D01*
X108719571Y-109482380D02*
X108719571Y-108482380D01*
X108624333Y-108625238D01*
X108529095Y-108720476D01*
X108433857Y-108768095D01*
X109910047Y-108482380D02*
X109433857Y-108482380D01*
X109386238Y-108958571D01*
X109433857Y-108910952D01*
X109529095Y-108863333D01*
X109767190Y-108863333D01*
X109862428Y-108910952D01*
X109910047Y-108958571D01*
X109957666Y-109053809D01*
X109957666Y-109291904D01*
X109910047Y-109387142D01*
X109862428Y-109434761D01*
X109767190Y-109482380D01*
X109529095Y-109482380D01*
X109433857Y-109434761D01*
X109386238Y-109387142D01*
X104624333Y-111132380D02*
X104291000Y-110656190D01*
X104052904Y-111132380D02*
X104052904Y-110132380D01*
X104433857Y-110132380D01*
X104529095Y-110180000D01*
X104576714Y-110227619D01*
X104624333Y-110322857D01*
X104624333Y-110465714D01*
X104576714Y-110560952D01*
X104529095Y-110608571D01*
X104433857Y-110656190D01*
X104052904Y-110656190D01*
X105576714Y-110180000D02*
X105481476Y-110132380D01*
X105338619Y-110132380D01*
X105195761Y-110180000D01*
X105100523Y-110275238D01*
X105052904Y-110370476D01*
X105005285Y-110560952D01*
X105005285Y-110703809D01*
X105052904Y-110894285D01*
X105100523Y-110989523D01*
X105195761Y-111084761D01*
X105338619Y-111132380D01*
X105433857Y-111132380D01*
X105576714Y-111084761D01*
X105624333Y-111037142D01*
X105624333Y-110703809D01*
X105433857Y-110703809D01*
X106386238Y-110608571D02*
X106529095Y-110656190D01*
X106576714Y-110703809D01*
X106624333Y-110799047D01*
X106624333Y-110941904D01*
X106576714Y-111037142D01*
X106529095Y-111084761D01*
X106433857Y-111132380D01*
X106052904Y-111132380D01*
X106052904Y-110132380D01*
X106386238Y-110132380D01*
X106481476Y-110180000D01*
X106529095Y-110227619D01*
X106576714Y-110322857D01*
X106576714Y-110418095D01*
X106529095Y-110513333D01*
X106481476Y-110560952D01*
X106386238Y-110608571D01*
X106052904Y-110608571D01*
X107005285Y-111084761D02*
X107148142Y-111132380D01*
X107386238Y-111132380D01*
X107481476Y-111084761D01*
X107529095Y-111037142D01*
X107576714Y-110941904D01*
X107576714Y-110846666D01*
X107529095Y-110751428D01*
X107481476Y-110703809D01*
X107386238Y-110656190D01*
X107195761Y-110608571D01*
X107100523Y-110560952D01*
X107052904Y-110513333D01*
X107005285Y-110418095D01*
X107005285Y-110322857D01*
X107052904Y-110227619D01*
X107100523Y-110180000D01*
X107195761Y-110132380D01*
X107433857Y-110132380D01*
X107576714Y-110180000D01*
X90549047Y-97097952D02*
X90549047Y-94597952D01*
X91501428Y-94597952D01*
X91739523Y-94717000D01*
X91858571Y-94836047D01*
X91977619Y-95074142D01*
X91977619Y-95431285D01*
X91858571Y-95669380D01*
X91739523Y-95788428D01*
X91501428Y-95907476D01*
X90549047Y-95907476D01*
X92930000Y-96978904D02*
X93287142Y-97097952D01*
X93882380Y-97097952D01*
X94120476Y-96978904D01*
X94239523Y-96859857D01*
X94358571Y-96621761D01*
X94358571Y-96383666D01*
X94239523Y-96145571D01*
X94120476Y-96026523D01*
X93882380Y-95907476D01*
X93406190Y-95788428D01*
X93168095Y-95669380D01*
X93049047Y-95550333D01*
X92930000Y-95312238D01*
X92930000Y-95074142D01*
X93049047Y-94836047D01*
X93168095Y-94717000D01*
X93406190Y-94597952D01*
X94001428Y-94597952D01*
X94358571Y-94717000D01*
X95191904Y-94597952D02*
X96858571Y-97097952D01*
X96858571Y-94597952D02*
X95191904Y-97097952D01*
X100549047Y-95788428D02*
X100906190Y-95907476D01*
X101025238Y-96026523D01*
X101144285Y-96264619D01*
X101144285Y-96621761D01*
X101025238Y-96859857D01*
X100906190Y-96978904D01*
X100668095Y-97097952D01*
X99715714Y-97097952D01*
X99715714Y-94597952D01*
X100549047Y-94597952D01*
X100787142Y-94717000D01*
X100906190Y-94836047D01*
X101025238Y-95074142D01*
X101025238Y-95312238D01*
X100906190Y-95550333D01*
X100787142Y-95669380D01*
X100549047Y-95788428D01*
X99715714Y-95788428D01*
X102215714Y-97097952D02*
X102215714Y-95431285D01*
X102215714Y-95907476D02*
X102334761Y-95669380D01*
X102453809Y-95550333D01*
X102691904Y-95431285D01*
X102930000Y-95431285D01*
X104715714Y-96978904D02*
X104477619Y-97097952D01*
X104001428Y-97097952D01*
X103763333Y-96978904D01*
X103644285Y-96740809D01*
X103644285Y-95788428D01*
X103763333Y-95550333D01*
X104001428Y-95431285D01*
X104477619Y-95431285D01*
X104715714Y-95550333D01*
X104834761Y-95788428D01*
X104834761Y-96026523D01*
X103644285Y-96264619D01*
X106977619Y-97097952D02*
X106977619Y-95788428D01*
X106858571Y-95550333D01*
X106620476Y-95431285D01*
X106144285Y-95431285D01*
X105906190Y-95550333D01*
X106977619Y-96978904D02*
X106739523Y-97097952D01*
X106144285Y-97097952D01*
X105906190Y-96978904D01*
X105787142Y-96740809D01*
X105787142Y-96502714D01*
X105906190Y-96264619D01*
X106144285Y-96145571D01*
X106739523Y-96145571D01*
X106977619Y-96026523D01*
X108168095Y-97097952D02*
X108168095Y-94597952D01*
X108406190Y-96145571D02*
X109120476Y-97097952D01*
X109120476Y-95431285D02*
X108168095Y-96383666D01*
X110549047Y-97097952D02*
X110310952Y-96978904D01*
X110191904Y-96859857D01*
X110072857Y-96621761D01*
X110072857Y-95907476D01*
X110191904Y-95669380D01*
X110310952Y-95550333D01*
X110549047Y-95431285D01*
X110906190Y-95431285D01*
X111144285Y-95550333D01*
X111263333Y-95669380D01*
X111382380Y-95907476D01*
X111382380Y-96621761D01*
X111263333Y-96859857D01*
X111144285Y-96978904D01*
X110906190Y-97097952D01*
X110549047Y-97097952D01*
X113525238Y-95431285D02*
X113525238Y-97097952D01*
X112453809Y-95431285D02*
X112453809Y-96740809D01*
X112572857Y-96978904D01*
X112810952Y-97097952D01*
X113168095Y-97097952D01*
X113406190Y-96978904D01*
X113525238Y-96859857D01*
X114358571Y-95431285D02*
X115310952Y-95431285D01*
X114715714Y-94597952D02*
X114715714Y-96740809D01*
X114834761Y-96978904D01*
X115072857Y-97097952D01*
X115310952Y-97097952D01*
X119358571Y-97097952D02*
X117930000Y-97097952D01*
X118644285Y-97097952D02*
X118644285Y-94597952D01*
X118406190Y-94955095D01*
X118168095Y-95193190D01*
X117930000Y-95312238D01*
X120430000Y-96859857D02*
X120549047Y-96978904D01*
X120430000Y-97097952D01*
X120310952Y-96978904D01*
X120430000Y-96859857D01*
X120430000Y-97097952D01*
X122096666Y-94597952D02*
X122334761Y-94597952D01*
X122572857Y-94717000D01*
X122691904Y-94836047D01*
X122810952Y-95074142D01*
X122929999Y-95550333D01*
X122929999Y-96145571D01*
X122810952Y-96621761D01*
X122691904Y-96859857D01*
X122572857Y-96978904D01*
X122334761Y-97097952D01*
X122096666Y-97097952D01*
X121858571Y-96978904D01*
X121739523Y-96859857D01*
X121620476Y-96621761D01*
X121501428Y-96145571D01*
X121501428Y-95550333D01*
X121620476Y-95074142D01*
X121739523Y-94836047D01*
X121858571Y-94717000D01*
X122096666Y-94597952D01*
X91858571Y-98497952D02*
X93287142Y-98497952D01*
X92572857Y-100997952D02*
X92572857Y-98497952D01*
X94120476Y-100997952D02*
X94120476Y-99331285D01*
X94120476Y-98497952D02*
X94001428Y-98617000D01*
X94120476Y-98736047D01*
X94239523Y-98617000D01*
X94120476Y-98497952D01*
X94120476Y-98736047D01*
X95310952Y-99331285D02*
X95310952Y-100997952D01*
X95310952Y-99569380D02*
X95429999Y-99450333D01*
X95668095Y-99331285D01*
X96025238Y-99331285D01*
X96263333Y-99450333D01*
X96382380Y-99688428D01*
X96382380Y-100997952D01*
X97572857Y-100997952D02*
X97572857Y-98497952D01*
X97810952Y-100045571D02*
X98525238Y-100997952D01*
X98525238Y-99331285D02*
X97572857Y-100283666D01*
X100549047Y-100878904D02*
X100310952Y-100997952D01*
X99834761Y-100997952D01*
X99596666Y-100878904D01*
X99477619Y-100640809D01*
X99477619Y-99688428D01*
X99596666Y-99450333D01*
X99834761Y-99331285D01*
X100310952Y-99331285D01*
X100549047Y-99450333D01*
X100668095Y-99688428D01*
X100668095Y-99926523D01*
X99477619Y-100164619D01*
X101739523Y-100997952D02*
X101739523Y-99331285D01*
X101739523Y-99807476D02*
X101858571Y-99569380D01*
X101977619Y-99450333D01*
X102215714Y-99331285D01*
X102453809Y-99331285D01*
X103287142Y-99331285D02*
X103287142Y-101831285D01*
X103287142Y-99450333D02*
X103525238Y-99331285D01*
X104001428Y-99331285D01*
X104239523Y-99450333D01*
X104358571Y-99569380D01*
X104477619Y-99807476D01*
X104477619Y-100521761D01*
X104358571Y-100759857D01*
X104239523Y-100878904D01*
X104001428Y-100997952D01*
X103525238Y-100997952D01*
X103287142Y-100878904D01*
X105906190Y-100997952D02*
X105668095Y-100878904D01*
X105549047Y-100640809D01*
X105549047Y-98497952D01*
X107929999Y-99331285D02*
X107929999Y-100997952D01*
X106858571Y-99331285D02*
X106858571Y-100640809D01*
X106977619Y-100878904D01*
X107215714Y-100997952D01*
X107572857Y-100997952D01*
X107810952Y-100878904D01*
X107929999Y-100759857D01*
X109120476Y-99331285D02*
X109120476Y-100997952D01*
X109120476Y-99569380D02*
X109239523Y-99450333D01*
X109477619Y-99331285D01*
X109834761Y-99331285D01*
X110072857Y-99450333D01*
X110191904Y-99688428D01*
X110191904Y-100997952D01*
X111382380Y-100997952D02*
X111382380Y-98497952D01*
X111620476Y-100045571D02*
X112334761Y-100997952D01*
X112334761Y-99331285D02*
X111382380Y-100283666D01*
X113406190Y-100759857D02*
X113525238Y-100878904D01*
X113406190Y-100997952D01*
X113287142Y-100878904D01*
X113406190Y-100759857D01*
X113406190Y-100997952D01*
X115668095Y-100878904D02*
X115429999Y-100997952D01*
X114953809Y-100997952D01*
X114715714Y-100878904D01*
X114596666Y-100759857D01*
X114477619Y-100521761D01*
X114477619Y-99807476D01*
X114596666Y-99569380D01*
X114715714Y-99450333D01*
X114953809Y-99331285D01*
X115429999Y-99331285D01*
X115668095Y-99450333D01*
X117096666Y-100997952D02*
X116858571Y-100878904D01*
X116739523Y-100759857D01*
X116620476Y-100521761D01*
X116620476Y-99807476D01*
X116739523Y-99569380D01*
X116858571Y-99450333D01*
X117096666Y-99331285D01*
X117453809Y-99331285D01*
X117691904Y-99450333D01*
X117810952Y-99569380D01*
X117929999Y-99807476D01*
X117929999Y-100521761D01*
X117810952Y-100759857D01*
X117691904Y-100878904D01*
X117453809Y-100997952D01*
X117096666Y-100997952D01*
X119001428Y-100997952D02*
X119001428Y-99331285D01*
X119001428Y-99569380D02*
X119120476Y-99450333D01*
X119358571Y-99331285D01*
X119715714Y-99331285D01*
X119953809Y-99450333D01*
X120072857Y-99688428D01*
X120072857Y-100997952D01*
X120072857Y-99688428D02*
X120191904Y-99450333D01*
X120429999Y-99331285D01*
X120787142Y-99331285D01*
X121025238Y-99450333D01*
X121144285Y-99688428D01*
X121144285Y-100997952D01*
X124095047Y-77176380D02*
X124761714Y-77176380D01*
X124333142Y-78176380D01*
X125618857Y-77176380D02*
X125142666Y-77176380D01*
X125095047Y-77652571D01*
X125142666Y-77604952D01*
X125237904Y-77557333D01*
X125476000Y-77557333D01*
X125571238Y-77604952D01*
X125618857Y-77652571D01*
X125666476Y-77747809D01*
X125666476Y-77985904D01*
X125618857Y-78081142D01*
X125571238Y-78128761D01*
X125476000Y-78176380D01*
X125237904Y-78176380D01*
X125142666Y-78128761D01*
X125095047Y-78081142D01*
X126047428Y-78176380D02*
X126285523Y-78176380D01*
X126285523Y-77985904D01*
X126190285Y-77938285D01*
X126095047Y-77843047D01*
X126047428Y-77700190D01*
X126047428Y-77462095D01*
X126095047Y-77319238D01*
X126190285Y-77224000D01*
X126333142Y-77176380D01*
X126523619Y-77176380D01*
X126666476Y-77224000D01*
X126761714Y-77319238D01*
X126809333Y-77462095D01*
X126809333Y-77700190D01*
X126761714Y-77843047D01*
X126666476Y-77938285D01*
X126571238Y-77985904D01*
X126571238Y-78176380D01*
X126809333Y-78176380D01*
X119451571Y-77176380D02*
X120023000Y-77176380D01*
X119737285Y-78176380D02*
X119737285Y-77176380D01*
X120213476Y-77176380D02*
X120784904Y-77176380D01*
X120499190Y-78176380D02*
X120499190Y-77176380D01*
X121594428Y-78176380D02*
X121118238Y-78176380D01*
X121118238Y-77176380D01*
X167356452Y-83206523D02*
X167642166Y-83301761D01*
X168118357Y-83301761D01*
X168308833Y-83206523D01*
X168404071Y-83111285D01*
X168499309Y-82920809D01*
X168499309Y-82730333D01*
X168404071Y-82539857D01*
X168308833Y-82444619D01*
X168118357Y-82349380D01*
X167737404Y-82254142D01*
X167546928Y-82158904D01*
X167451690Y-82063666D01*
X167356452Y-81873190D01*
X167356452Y-81682714D01*
X167451690Y-81492238D01*
X167546928Y-81397000D01*
X167737404Y-81301761D01*
X168213595Y-81301761D01*
X168499309Y-81397000D01*
X169165976Y-81968428D02*
X169642166Y-83301761D01*
X170118357Y-81968428D02*
X169642166Y-83301761D01*
X169451690Y-83777952D01*
X169356452Y-83873190D01*
X169165976Y-83968428D01*
X170880261Y-81968428D02*
X170880261Y-83301761D01*
X170880261Y-82158904D02*
X170975500Y-82063666D01*
X171165976Y-81968428D01*
X171451690Y-81968428D01*
X171642166Y-82063666D01*
X171737404Y-82254142D01*
X171737404Y-83301761D01*
X173546928Y-83206523D02*
X173356452Y-83301761D01*
X172975500Y-83301761D01*
X172785023Y-83206523D01*
X172689785Y-83111285D01*
X172594547Y-82920809D01*
X172594547Y-82349380D01*
X172689785Y-82158904D01*
X172785023Y-82063666D01*
X172975500Y-81968428D01*
X173356452Y-81968428D01*
X173546928Y-82063666D01*
X175832642Y-83206523D02*
X176118357Y-83301761D01*
X176594547Y-83301761D01*
X176785023Y-83206523D01*
X176880261Y-83111285D01*
X176975500Y-82920809D01*
X176975500Y-82730333D01*
X176880261Y-82539857D01*
X176785023Y-82444619D01*
X176594547Y-82349380D01*
X176213595Y-82254142D01*
X176023119Y-82158904D01*
X175927880Y-82063666D01*
X175832642Y-81873190D01*
X175832642Y-81682714D01*
X175927880Y-81492238D01*
X176023119Y-81397000D01*
X176213595Y-81301761D01*
X176689785Y-81301761D01*
X176975500Y-81397000D01*
X178594547Y-83206523D02*
X178404071Y-83301761D01*
X178023119Y-83301761D01*
X177832642Y-83206523D01*
X177737404Y-83016047D01*
X177737404Y-82254142D01*
X177832642Y-82063666D01*
X178023119Y-81968428D01*
X178404071Y-81968428D01*
X178594547Y-82063666D01*
X178689785Y-82254142D01*
X178689785Y-82444619D01*
X177737404Y-82635095D01*
X179832642Y-83301761D02*
X179642166Y-83206523D01*
X179546928Y-83016047D01*
X179546928Y-81301761D01*
X181356452Y-83206523D02*
X181165976Y-83301761D01*
X180785023Y-83301761D01*
X180594547Y-83206523D01*
X180499309Y-83016047D01*
X180499309Y-82254142D01*
X180594547Y-82063666D01*
X180785023Y-81968428D01*
X181165976Y-81968428D01*
X181356452Y-82063666D01*
X181451690Y-82254142D01*
X181451690Y-82444619D01*
X180499309Y-82635095D01*
X183165976Y-83206523D02*
X182975500Y-83301761D01*
X182594547Y-83301761D01*
X182404071Y-83206523D01*
X182308833Y-83111285D01*
X182213595Y-82920809D01*
X182213595Y-82349380D01*
X182308833Y-82158904D01*
X182404071Y-82063666D01*
X182594547Y-81968428D01*
X182975500Y-81968428D01*
X183165976Y-82063666D01*
X183737404Y-81968428D02*
X184499309Y-81968428D01*
X184023119Y-81301761D02*
X184023119Y-83016047D01*
X184118357Y-83206523D01*
X184308833Y-83301761D01*
X184499309Y-83301761D01*
X168213595Y-86451761D02*
X168213595Y-84927952D01*
X167832642Y-85308904D02*
X168213595Y-84927952D01*
X168594547Y-85308904D01*
X171070738Y-86261285D02*
X170975500Y-86356523D01*
X170689785Y-86451761D01*
X170499309Y-86451761D01*
X170213595Y-86356523D01*
X170023119Y-86166047D01*
X169927880Y-85975571D01*
X169832642Y-85594619D01*
X169832642Y-85308904D01*
X169927880Y-84927952D01*
X170023119Y-84737476D01*
X170213595Y-84547000D01*
X170499309Y-84451761D01*
X170689785Y-84451761D01*
X170975500Y-84547000D01*
X171070738Y-84642238D01*
X171642166Y-84451761D02*
X172308833Y-86451761D01*
X172975500Y-84451761D01*
X174308833Y-85404142D02*
X174594547Y-85499380D01*
X174689785Y-85594619D01*
X174785023Y-85785095D01*
X174785023Y-86070809D01*
X174689785Y-86261285D01*
X174594547Y-86356523D01*
X174404071Y-86451761D01*
X173642166Y-86451761D01*
X173642166Y-84451761D01*
X174308833Y-84451761D01*
X174499309Y-84547000D01*
X174594547Y-84642238D01*
X174689785Y-84832714D01*
X174689785Y-85023190D01*
X174594547Y-85213666D01*
X174499309Y-85308904D01*
X174308833Y-85404142D01*
X173642166Y-85404142D01*
X175546928Y-86356523D02*
X175832642Y-86451761D01*
X176308833Y-86451761D01*
X176499309Y-86356523D01*
X176594547Y-86261285D01*
X176689785Y-86070809D01*
X176689785Y-85880333D01*
X176594547Y-85689857D01*
X176499309Y-85594619D01*
X176308833Y-85499380D01*
X175927880Y-85404142D01*
X175737404Y-85308904D01*
X175642166Y-85213666D01*
X175546928Y-85023190D01*
X175546928Y-84832714D01*
X175642166Y-84642238D01*
X175737404Y-84547000D01*
X175927880Y-84451761D01*
X176404071Y-84451761D01*
X176689785Y-84547000D01*
X167546928Y-88458904D02*
X167546928Y-89220809D01*
X167642166Y-89316047D02*
X168023119Y-89601761D01*
X167642166Y-88363666D02*
X168023119Y-88077952D01*
X167642166Y-88268428D02*
X167642166Y-89411285D01*
X167737404Y-89411285D02*
X167737404Y-88268428D01*
X167832642Y-88173190D02*
X167832642Y-89506523D01*
X167927880Y-89506523D02*
X167927880Y-88173190D01*
X168023119Y-88077952D02*
X168023119Y-89601761D01*
X168118357Y-89601761D02*
X168118357Y-88077952D01*
X168213595Y-88077952D02*
X168213595Y-89601761D01*
X168308833Y-89601761D02*
X168308833Y-88077952D01*
X168404071Y-89601761D02*
X168785023Y-89316047D01*
X168404071Y-88077952D02*
X168404071Y-89601761D01*
X168404071Y-88077952D02*
X168785023Y-88363666D01*
X168499309Y-89506523D02*
X168499309Y-88173190D01*
X168594547Y-88173190D02*
X168594547Y-89506523D01*
X168689785Y-89411285D02*
X168689785Y-88268428D01*
X168785023Y-88268428D02*
X168785023Y-89411285D01*
X168880261Y-89220809D02*
X168880261Y-88458904D01*
X168023119Y-88077952D02*
X168404071Y-88077952D01*
X168785023Y-88268428D01*
X168975500Y-88649380D01*
X168975500Y-89030333D01*
X168785023Y-89411285D01*
X168404071Y-89601761D01*
X168023119Y-89601761D01*
X167642166Y-89411285D01*
X167451690Y-89030333D01*
X167451690Y-88649380D01*
X167642166Y-88268428D01*
X168023119Y-88077952D01*
X171070738Y-89411285D02*
X170975500Y-89506523D01*
X170689785Y-89601761D01*
X170499309Y-89601761D01*
X170213595Y-89506523D01*
X170023119Y-89316047D01*
X169927880Y-89125571D01*
X169832642Y-88744619D01*
X169832642Y-88458904D01*
X169927880Y-88077952D01*
X170023119Y-87887476D01*
X170213595Y-87697000D01*
X170499309Y-87601761D01*
X170689785Y-87601761D01*
X170975500Y-87697000D01*
X171070738Y-87792238D01*
X171832642Y-89506523D02*
X172118357Y-89601761D01*
X172594547Y-89601761D01*
X172785023Y-89506523D01*
X172880261Y-89411285D01*
X172975500Y-89220809D01*
X172975500Y-89030333D01*
X172880261Y-88839857D01*
X172785023Y-88744619D01*
X172594547Y-88649380D01*
X172213595Y-88554142D01*
X172023119Y-88458904D01*
X171927880Y-88363666D01*
X171832642Y-88173190D01*
X171832642Y-87982714D01*
X171927880Y-87792238D01*
X172023119Y-87697000D01*
X172213595Y-87601761D01*
X172689785Y-87601761D01*
X172975500Y-87697000D01*
X174213595Y-88649380D02*
X174213595Y-89601761D01*
X173546928Y-87601761D02*
X174213595Y-88649380D01*
X174880261Y-87601761D01*
X175546928Y-89601761D02*
X175546928Y-87601761D01*
X176689785Y-89601761D01*
X176689785Y-87601761D01*
X178785023Y-89411285D02*
X178689785Y-89506523D01*
X178404071Y-89601761D01*
X178213595Y-89601761D01*
X177927880Y-89506523D01*
X177737404Y-89316047D01*
X177642166Y-89125571D01*
X177546928Y-88744619D01*
X177546928Y-88458904D01*
X177642166Y-88077952D01*
X177737404Y-87887476D01*
X177927880Y-87697000D01*
X178213595Y-87601761D01*
X178404071Y-87601761D01*
X178689785Y-87697000D01*
X178785023Y-87792238D01*
X168213595Y-91227952D02*
X168213595Y-92751761D01*
X168594547Y-92370809D02*
X168213595Y-92751761D01*
X167832642Y-92370809D01*
X170880261Y-92751761D02*
X169927880Y-92751761D01*
X169927880Y-90751761D01*
X171546928Y-90751761D02*
X171546928Y-92370809D01*
X171642166Y-92561285D01*
X171737404Y-92656523D01*
X171927880Y-92751761D01*
X172308833Y-92751761D01*
X172499309Y-92656523D01*
X172594547Y-92561285D01*
X172689785Y-92370809D01*
X172689785Y-90751761D01*
X173642166Y-92751761D02*
X173642166Y-90751761D01*
X174308833Y-92180333D01*
X174975500Y-90751761D01*
X174975500Y-92751761D01*
X175832642Y-92180333D02*
X176785023Y-92180333D01*
X175642166Y-92751761D02*
X176308833Y-90751761D01*
X176975500Y-92751761D01*
X186354785Y-88019380D02*
X186021452Y-87543190D01*
X185783357Y-88019380D02*
X185783357Y-87019380D01*
X186164309Y-87019380D01*
X186259547Y-87067000D01*
X186307166Y-87114619D01*
X186354785Y-87209857D01*
X186354785Y-87352714D01*
X186307166Y-87447952D01*
X186259547Y-87495571D01*
X186164309Y-87543190D01*
X185783357Y-87543190D01*
X187354785Y-87924142D02*
X187307166Y-87971761D01*
X187164309Y-88019380D01*
X187069071Y-88019380D01*
X186926214Y-87971761D01*
X186830976Y-87876523D01*
X186783357Y-87781285D01*
X186735738Y-87590809D01*
X186735738Y-87447952D01*
X186783357Y-87257476D01*
X186830976Y-87162238D01*
X186926214Y-87067000D01*
X187069071Y-87019380D01*
X187164309Y-87019380D01*
X187307166Y-87067000D01*
X187354785Y-87114619D01*
X187735738Y-87733666D02*
X188211928Y-87733666D01*
X187640500Y-88019380D02*
X187973833Y-87019380D01*
X188307166Y-88019380D01*
X188640500Y-87638428D02*
X189402404Y-87638428D01*
X189211928Y-87828904D02*
X189402404Y-87638428D01*
X189211928Y-87447952D01*
X179878595Y-89621761D02*
X180021452Y-89669380D01*
X180259547Y-89669380D01*
X180354785Y-89621761D01*
X180402404Y-89574142D01*
X180450023Y-89478904D01*
X180450023Y-89383666D01*
X180402404Y-89288428D01*
X180354785Y-89240809D01*
X180259547Y-89193190D01*
X180069071Y-89145571D01*
X179973833Y-89097952D01*
X179926214Y-89050333D01*
X179878595Y-88955095D01*
X179878595Y-88859857D01*
X179926214Y-88764619D01*
X179973833Y-88717000D01*
X180069071Y-88669380D01*
X180307166Y-88669380D01*
X180450023Y-88717000D01*
X181069071Y-89193190D02*
X181069071Y-89669380D01*
X180735738Y-88669380D02*
X181069071Y-89193190D01*
X181402404Y-88669380D01*
X181735738Y-89669380D02*
X181735738Y-88669380D01*
X182307166Y-89669380D01*
X182307166Y-88669380D01*
X183354785Y-89574142D02*
X183307166Y-89621761D01*
X183164309Y-89669380D01*
X183069071Y-89669380D01*
X182926214Y-89621761D01*
X182830976Y-89526523D01*
X182783357Y-89431285D01*
X182735738Y-89240809D01*
X182735738Y-89097952D01*
X182783357Y-88907476D01*
X182830976Y-88812238D01*
X182926214Y-88717000D01*
X183069071Y-88669380D01*
X183164309Y-88669380D01*
X183307166Y-88717000D01*
X183354785Y-88764619D01*
X184497642Y-89621761D02*
X184640500Y-89669380D01*
X184878595Y-89669380D01*
X184973833Y-89621761D01*
X185021452Y-89574142D01*
X185069071Y-89478904D01*
X185069071Y-89383666D01*
X185021452Y-89288428D01*
X184973833Y-89240809D01*
X184878595Y-89193190D01*
X184688119Y-89145571D01*
X184592880Y-89097952D01*
X184545261Y-89050333D01*
X184497642Y-88955095D01*
X184497642Y-88859857D01*
X184545261Y-88764619D01*
X184592880Y-88717000D01*
X184688119Y-88669380D01*
X184926214Y-88669380D01*
X185069071Y-88717000D01*
X185497642Y-89145571D02*
X185830976Y-89145571D01*
X185973833Y-89669380D02*
X185497642Y-89669380D01*
X185497642Y-88669380D01*
X185973833Y-88669380D01*
X186878595Y-89669380D02*
X186402404Y-89669380D01*
X186402404Y-88669380D01*
X187211928Y-89145571D02*
X187545261Y-89145571D01*
X187688119Y-89669380D02*
X187211928Y-89669380D01*
X187211928Y-88669380D01*
X187688119Y-88669380D01*
X188688119Y-89574142D02*
X188640500Y-89621761D01*
X188497642Y-89669380D01*
X188402404Y-89669380D01*
X188259547Y-89621761D01*
X188164309Y-89526523D01*
X188116690Y-89431285D01*
X188069071Y-89240809D01*
X188069071Y-89097952D01*
X188116690Y-88907476D01*
X188164309Y-88812238D01*
X188259547Y-88717000D01*
X188402404Y-88669380D01*
X188497642Y-88669380D01*
X188640500Y-88717000D01*
X188688119Y-88764619D01*
X188973833Y-88669380D02*
X189545261Y-88669380D01*
X189259547Y-89669380D02*
X189259547Y-88669380D01*
X91394500Y-87638428D02*
X90632595Y-87638428D01*
X90823071Y-87828904D02*
X90632595Y-87638428D01*
X90823071Y-87447952D01*
X91870690Y-88019380D02*
X91870690Y-87019380D01*
X91870690Y-87495571D02*
X92442119Y-87495571D01*
X92442119Y-88019380D02*
X92442119Y-87019380D01*
X92918309Y-88019380D02*
X92918309Y-87019380D01*
X93156404Y-87019380D01*
X93299261Y-87067000D01*
X93394500Y-87162238D01*
X93442119Y-87257476D01*
X93489738Y-87447952D01*
X93489738Y-87590809D01*
X93442119Y-87781285D01*
X93394500Y-87876523D01*
X93299261Y-87971761D01*
X93156404Y-88019380D01*
X92918309Y-88019380D01*
X94442119Y-88019380D02*
X93870690Y-88019380D01*
X94156404Y-88019380D02*
X94156404Y-87019380D01*
X94061166Y-87162238D01*
X93965928Y-87257476D01*
X93870690Y-87305095D01*
X95346880Y-87019380D02*
X94870690Y-87019380D01*
X94823071Y-87495571D01*
X94870690Y-87447952D01*
X94965928Y-87400333D01*
X95204023Y-87400333D01*
X95299261Y-87447952D01*
X95346880Y-87495571D01*
X95394500Y-87590809D01*
X95394500Y-87828904D01*
X95346880Y-87924142D01*
X95299261Y-87971761D01*
X95204023Y-88019380D01*
X94965928Y-88019380D01*
X94870690Y-87971761D01*
X94823071Y-87924142D01*
X90584976Y-89621761D02*
X90727833Y-89669380D01*
X90965928Y-89669380D01*
X91061166Y-89621761D01*
X91108785Y-89574142D01*
X91156404Y-89478904D01*
X91156404Y-89383666D01*
X91108785Y-89288428D01*
X91061166Y-89240809D01*
X90965928Y-89193190D01*
X90775452Y-89145571D01*
X90680214Y-89097952D01*
X90632595Y-89050333D01*
X90584976Y-88955095D01*
X90584976Y-88859857D01*
X90632595Y-88764619D01*
X90680214Y-88717000D01*
X90775452Y-88669380D01*
X91013547Y-88669380D01*
X91156404Y-88717000D01*
X91775452Y-89193190D02*
X91775452Y-89669380D01*
X91442119Y-88669380D02*
X91775452Y-89193190D01*
X92108785Y-88669380D01*
X92442119Y-89669380D02*
X92442119Y-88669380D01*
X93013547Y-89669380D01*
X93013547Y-88669380D01*
X94061166Y-89574142D02*
X94013547Y-89621761D01*
X93870690Y-89669380D01*
X93775452Y-89669380D01*
X93632595Y-89621761D01*
X93537357Y-89526523D01*
X93489738Y-89431285D01*
X93442119Y-89240809D01*
X93442119Y-89097952D01*
X93489738Y-88907476D01*
X93537357Y-88812238D01*
X93632595Y-88717000D01*
X93775452Y-88669380D01*
X93870690Y-88669380D01*
X94013547Y-88717000D01*
X94061166Y-88764619D01*
X95204023Y-89621761D02*
X95346880Y-89669380D01*
X95584976Y-89669380D01*
X95680214Y-89621761D01*
X95727833Y-89574142D01*
X95775452Y-89478904D01*
X95775452Y-89383666D01*
X95727833Y-89288428D01*
X95680214Y-89240809D01*
X95584976Y-89193190D01*
X95394500Y-89145571D01*
X95299261Y-89097952D01*
X95251642Y-89050333D01*
X95204023Y-88955095D01*
X95204023Y-88859857D01*
X95251642Y-88764619D01*
X95299261Y-88717000D01*
X95394500Y-88669380D01*
X95632595Y-88669380D01*
X95775452Y-88717000D01*
X96204023Y-89145571D02*
X96537357Y-89145571D01*
X96680214Y-89669380D02*
X96204023Y-89669380D01*
X96204023Y-88669380D01*
X96680214Y-88669380D01*
X97584976Y-89669380D02*
X97108785Y-89669380D01*
X97108785Y-88669380D01*
X97918309Y-89145571D02*
X98251642Y-89145571D01*
X98394500Y-89669380D02*
X97918309Y-89669380D01*
X97918309Y-88669380D01*
X98394500Y-88669380D01*
X99394500Y-89574142D02*
X99346880Y-89621761D01*
X99204023Y-89669380D01*
X99108785Y-89669380D01*
X98965928Y-89621761D01*
X98870690Y-89526523D01*
X98823071Y-89431285D01*
X98775452Y-89240809D01*
X98775452Y-89097952D01*
X98823071Y-88907476D01*
X98870690Y-88812238D01*
X98965928Y-88717000D01*
X99108785Y-88669380D01*
X99204023Y-88669380D01*
X99346880Y-88717000D01*
X99394500Y-88764619D01*
X99680214Y-88669380D02*
X100251642Y-88669380D01*
X99965928Y-89669380D02*
X99965928Y-88669380D01*
X185247547Y-79700476D02*
X185247547Y-80462380D01*
X185438023Y-80271904D02*
X185247547Y-80462380D01*
X185057071Y-80271904D01*
X186580880Y-80462380D02*
X186104690Y-80462380D01*
X186104690Y-79462380D01*
X186914214Y-79462380D02*
X186914214Y-80271904D01*
X186961833Y-80367142D01*
X187009452Y-80414761D01*
X187104690Y-80462380D01*
X187295166Y-80462380D01*
X187390404Y-80414761D01*
X187438023Y-80367142D01*
X187485642Y-80271904D01*
X187485642Y-79462380D01*
X187961833Y-80462380D02*
X187961833Y-79462380D01*
X188295166Y-80176666D01*
X188628500Y-79462380D01*
X188628500Y-80462380D01*
X189057071Y-80176666D02*
X189533261Y-80176666D01*
X188961833Y-80462380D02*
X189295166Y-79462380D01*
X189628500Y-80462380D01*
X179221428Y-77446142D02*
X179173809Y-77493761D01*
X179030952Y-77541380D01*
X178935714Y-77541380D01*
X178792857Y-77493761D01*
X178697619Y-77398523D01*
X178650000Y-77303285D01*
X178602380Y-77112809D01*
X178602380Y-76969952D01*
X178650000Y-76779476D01*
X178697619Y-76684238D01*
X178792857Y-76589000D01*
X178935714Y-76541380D01*
X179030952Y-76541380D01*
X179173809Y-76589000D01*
X179221428Y-76636619D01*
X179602380Y-77493761D02*
X179745238Y-77541380D01*
X179983333Y-77541380D01*
X180078571Y-77493761D01*
X180126190Y-77446142D01*
X180173809Y-77350904D01*
X180173809Y-77255666D01*
X180126190Y-77160428D01*
X180078571Y-77112809D01*
X179983333Y-77065190D01*
X179792857Y-77017571D01*
X179697619Y-76969952D01*
X179650000Y-76922333D01*
X179602380Y-76827095D01*
X179602380Y-76731857D01*
X179650000Y-76636619D01*
X179697619Y-76589000D01*
X179792857Y-76541380D01*
X180030952Y-76541380D01*
X180173809Y-76589000D01*
X180792857Y-77065190D02*
X180792857Y-77541380D01*
X180459523Y-76541380D02*
X180792857Y-77065190D01*
X181126190Y-76541380D01*
X181459523Y-77541380D02*
X181459523Y-76541380D01*
X182030952Y-77541380D01*
X182030952Y-76541380D01*
X183078571Y-77446142D02*
X183030952Y-77493761D01*
X182888095Y-77541380D01*
X182792857Y-77541380D01*
X182650000Y-77493761D01*
X182554761Y-77398523D01*
X182507142Y-77303285D01*
X182459523Y-77112809D01*
X182459523Y-76969952D01*
X182507142Y-76779476D01*
X182554761Y-76684238D01*
X182650000Y-76589000D01*
X182792857Y-76541380D01*
X182888095Y-76541380D01*
X183030952Y-76589000D01*
X183078571Y-76636619D01*
X184221428Y-77493761D02*
X184364285Y-77541380D01*
X184602380Y-77541380D01*
X184697619Y-77493761D01*
X184745238Y-77446142D01*
X184792857Y-77350904D01*
X184792857Y-77255666D01*
X184745238Y-77160428D01*
X184697619Y-77112809D01*
X184602380Y-77065190D01*
X184411904Y-77017571D01*
X184316666Y-76969952D01*
X184269047Y-76922333D01*
X184221428Y-76827095D01*
X184221428Y-76731857D01*
X184269047Y-76636619D01*
X184316666Y-76589000D01*
X184411904Y-76541380D01*
X184650000Y-76541380D01*
X184792857Y-76589000D01*
X185602380Y-77493761D02*
X185507142Y-77541380D01*
X185316666Y-77541380D01*
X185221428Y-77493761D01*
X185173809Y-77398523D01*
X185173809Y-77017571D01*
X185221428Y-76922333D01*
X185316666Y-76874714D01*
X185507142Y-76874714D01*
X185602380Y-76922333D01*
X185650000Y-77017571D01*
X185650000Y-77112809D01*
X185173809Y-77208047D01*
X186221428Y-77541380D02*
X186126190Y-77493761D01*
X186078571Y-77398523D01*
X186078571Y-76541380D01*
X186983333Y-77493761D02*
X186888095Y-77541380D01*
X186697619Y-77541380D01*
X186602380Y-77493761D01*
X186554761Y-77398523D01*
X186554761Y-77017571D01*
X186602380Y-76922333D01*
X186697619Y-76874714D01*
X186888095Y-76874714D01*
X186983333Y-76922333D01*
X187030952Y-77017571D01*
X187030952Y-77112809D01*
X186554761Y-77208047D01*
X187888095Y-77493761D02*
X187792857Y-77541380D01*
X187602380Y-77541380D01*
X187507142Y-77493761D01*
X187459523Y-77446142D01*
X187411904Y-77350904D01*
X187411904Y-77065190D01*
X187459523Y-76969952D01*
X187507142Y-76922333D01*
X187602380Y-76874714D01*
X187792857Y-76874714D01*
X187888095Y-76922333D01*
X188173809Y-76874714D02*
X188554761Y-76874714D01*
X188316666Y-76541380D02*
X188316666Y-77398523D01*
X188364285Y-77493761D01*
X188459523Y-77541380D01*
X188554761Y-77541380D01*
X188888095Y-77160428D02*
X189650000Y-77160428D01*
X189459523Y-77350904D02*
X189650000Y-77160428D01*
X189459523Y-76969952D01*
X185247547Y-79065380D02*
X185247547Y-78303476D01*
X185057071Y-78493952D02*
X185247547Y-78303476D01*
X185438023Y-78493952D01*
X186676119Y-78970142D02*
X186628500Y-79017761D01*
X186485642Y-79065380D01*
X186390404Y-79065380D01*
X186247547Y-79017761D01*
X186152309Y-78922523D01*
X186104690Y-78827285D01*
X186057071Y-78636809D01*
X186057071Y-78493952D01*
X186104690Y-78303476D01*
X186152309Y-78208238D01*
X186247547Y-78113000D01*
X186390404Y-78065380D01*
X186485642Y-78065380D01*
X186628500Y-78113000D01*
X186676119Y-78160619D01*
X186961833Y-78065380D02*
X187295166Y-79065380D01*
X187628500Y-78065380D01*
X188295166Y-78541571D02*
X188438023Y-78589190D01*
X188485642Y-78636809D01*
X188533261Y-78732047D01*
X188533261Y-78874904D01*
X188485642Y-78970142D01*
X188438023Y-79017761D01*
X188342785Y-79065380D01*
X187961833Y-79065380D01*
X187961833Y-78065380D01*
X188295166Y-78065380D01*
X188390404Y-78113000D01*
X188438023Y-78160619D01*
X188485642Y-78255857D01*
X188485642Y-78351095D01*
X188438023Y-78446333D01*
X188390404Y-78493952D01*
X188295166Y-78541571D01*
X187961833Y-78541571D01*
X188914214Y-79017761D02*
X189057071Y-79065380D01*
X189295166Y-79065380D01*
X189390404Y-79017761D01*
X189438023Y-78970142D01*
X189485642Y-78874904D01*
X189485642Y-78779666D01*
X189438023Y-78684428D01*
X189390404Y-78636809D01*
X189295166Y-78589190D01*
X189104690Y-78541571D01*
X189009452Y-78493952D01*
X188961833Y-78446333D01*
X188914214Y-78351095D01*
X188914214Y-78255857D01*
X188961833Y-78160619D01*
X189009452Y-78113000D01*
X189104690Y-78065380D01*
X189342785Y-78065380D01*
X189485642Y-78113000D01*
M02*
