G04 #@! TF.GenerationSoftware,KiCad,Pcbnew,(5.1.2)-1*
G04 #@! TF.CreationDate,2019-06-09T09:13:54-04:00*
G04 #@! TF.ProjectId,Case top_bottom,43617365-2074-46f7-905f-626f74746f6d,rev?*
G04 #@! TF.SameCoordinates,Original*
G04 #@! TF.FileFunction,Copper,L1,Top*
G04 #@! TF.FilePolarity,Positive*
%FSLAX46Y46*%
G04 Gerber Fmt 4.6, Leading zero omitted, Abs format (unit mm)*
G04 Created by KiCad (PCBNEW (5.1.2)-1) date 2019-06-09 09:13:54*
%MOMM*%
%LPD*%
G04 APERTURE LIST*
%ADD10C,0.010000*%
G04 APERTURE END LIST*
D10*
G36*
X135953500Y-92096475D02*
G01*
X135678333Y-92168504D01*
X135577657Y-92194967D01*
X135405505Y-92240345D01*
X135172249Y-92301896D01*
X134888264Y-92376882D01*
X134563923Y-92462564D01*
X134209602Y-92556201D01*
X133835672Y-92655055D01*
X133688666Y-92693928D01*
X133306948Y-92794701D01*
X132938255Y-92891711D01*
X132593413Y-92982133D01*
X132283251Y-93063142D01*
X132018596Y-93131912D01*
X131810275Y-93185617D01*
X131669116Y-93221431D01*
X131637195Y-93229310D01*
X131429333Y-93286467D01*
X131284291Y-93348395D01*
X131180900Y-93430577D01*
X131097994Y-93548497D01*
X131037246Y-93668166D01*
X130955129Y-93899985D01*
X130945777Y-94090369D01*
X130998813Y-94224412D01*
X131048048Y-94284220D01*
X131108682Y-94330256D01*
X131191252Y-94363939D01*
X131306293Y-94386693D01*
X131464341Y-94399937D01*
X131675933Y-94405092D01*
X131951602Y-94403579D01*
X132280736Y-94397299D01*
X132882511Y-94375607D01*
X133429192Y-94336861D01*
X133949285Y-94277414D01*
X134471294Y-94193622D01*
X135023724Y-94081842D01*
X135372667Y-94001951D01*
X135587181Y-93951410D01*
X135770968Y-93908686D01*
X135909000Y-93877228D01*
X135986252Y-93860484D01*
X135997083Y-93858666D01*
X136002762Y-93899024D01*
X136007811Y-94012199D01*
X136011985Y-94186342D01*
X136015041Y-94409604D01*
X136016736Y-94670135D01*
X136017000Y-94827192D01*
X136017000Y-95795717D01*
X135561916Y-95945251D01*
X135347643Y-96008515D01*
X135080443Y-96076750D01*
X134791155Y-96142621D01*
X134510620Y-96198792D01*
X134450666Y-96209553D01*
X134253637Y-96242971D01*
X134078252Y-96269477D01*
X133910229Y-96290018D01*
X133735285Y-96305535D01*
X133539136Y-96316974D01*
X133307500Y-96325279D01*
X133026093Y-96331393D01*
X132680633Y-96336261D01*
X132503333Y-96338265D01*
X132023990Y-96341361D01*
X131621871Y-96339289D01*
X131289682Y-96331871D01*
X131020128Y-96318928D01*
X130805913Y-96300279D01*
X130767666Y-96295671D01*
X130065542Y-96186942D01*
X129433927Y-96048735D01*
X128874076Y-95881813D01*
X128387246Y-95686940D01*
X127974694Y-95464878D01*
X127637674Y-95216389D01*
X127377443Y-94942237D01*
X127195258Y-94643183D01*
X127092374Y-94319992D01*
X127067988Y-94049166D01*
X127093171Y-93791720D01*
X127172421Y-93552388D01*
X127313536Y-93314671D01*
X127524311Y-93062071D01*
X127544668Y-93040459D01*
X127751651Y-92835855D01*
X127971922Y-92647484D01*
X128219190Y-92465854D01*
X128507166Y-92281473D01*
X128849558Y-92084847D01*
X129180166Y-91908016D01*
X129515830Y-91738679D01*
X129857255Y-91579245D01*
X130216839Y-91424847D01*
X130606982Y-91270615D01*
X131040082Y-91111680D01*
X131528538Y-90943173D01*
X132084750Y-90760225D01*
X132185833Y-90727692D01*
X132460362Y-90644313D01*
X132798238Y-90549155D01*
X133179810Y-90447151D01*
X133585424Y-90343231D01*
X133995426Y-90242328D01*
X134390164Y-90149375D01*
X134749984Y-90069302D01*
X135055234Y-90007042D01*
X135064500Y-90005282D01*
X135297800Y-89960881D01*
X135512008Y-89919729D01*
X135688423Y-89885446D01*
X135808342Y-89861653D01*
X135837785Y-89855569D01*
X135976070Y-89826135D01*
X135953500Y-92096475D01*
X135953500Y-92096475D01*
G37*
X135953500Y-92096475D02*
X135678333Y-92168504D01*
X135577657Y-92194967D01*
X135405505Y-92240345D01*
X135172249Y-92301896D01*
X134888264Y-92376882D01*
X134563923Y-92462564D01*
X134209602Y-92556201D01*
X133835672Y-92655055D01*
X133688666Y-92693928D01*
X133306948Y-92794701D01*
X132938255Y-92891711D01*
X132593413Y-92982133D01*
X132283251Y-93063142D01*
X132018596Y-93131912D01*
X131810275Y-93185617D01*
X131669116Y-93221431D01*
X131637195Y-93229310D01*
X131429333Y-93286467D01*
X131284291Y-93348395D01*
X131180900Y-93430577D01*
X131097994Y-93548497D01*
X131037246Y-93668166D01*
X130955129Y-93899985D01*
X130945777Y-94090369D01*
X130998813Y-94224412D01*
X131048048Y-94284220D01*
X131108682Y-94330256D01*
X131191252Y-94363939D01*
X131306293Y-94386693D01*
X131464341Y-94399937D01*
X131675933Y-94405092D01*
X131951602Y-94403579D01*
X132280736Y-94397299D01*
X132882511Y-94375607D01*
X133429192Y-94336861D01*
X133949285Y-94277414D01*
X134471294Y-94193622D01*
X135023724Y-94081842D01*
X135372667Y-94001951D01*
X135587181Y-93951410D01*
X135770968Y-93908686D01*
X135909000Y-93877228D01*
X135986252Y-93860484D01*
X135997083Y-93858666D01*
X136002762Y-93899024D01*
X136007811Y-94012199D01*
X136011985Y-94186342D01*
X136015041Y-94409604D01*
X136016736Y-94670135D01*
X136017000Y-94827192D01*
X136017000Y-95795717D01*
X135561916Y-95945251D01*
X135347643Y-96008515D01*
X135080443Y-96076750D01*
X134791155Y-96142621D01*
X134510620Y-96198792D01*
X134450666Y-96209553D01*
X134253637Y-96242971D01*
X134078252Y-96269477D01*
X133910229Y-96290018D01*
X133735285Y-96305535D01*
X133539136Y-96316974D01*
X133307500Y-96325279D01*
X133026093Y-96331393D01*
X132680633Y-96336261D01*
X132503333Y-96338265D01*
X132023990Y-96341361D01*
X131621871Y-96339289D01*
X131289682Y-96331871D01*
X131020128Y-96318928D01*
X130805913Y-96300279D01*
X130767666Y-96295671D01*
X130065542Y-96186942D01*
X129433927Y-96048735D01*
X128874076Y-95881813D01*
X128387246Y-95686940D01*
X127974694Y-95464878D01*
X127637674Y-95216389D01*
X127377443Y-94942237D01*
X127195258Y-94643183D01*
X127092374Y-94319992D01*
X127067988Y-94049166D01*
X127093171Y-93791720D01*
X127172421Y-93552388D01*
X127313536Y-93314671D01*
X127524311Y-93062071D01*
X127544668Y-93040459D01*
X127751651Y-92835855D01*
X127971922Y-92647484D01*
X128219190Y-92465854D01*
X128507166Y-92281473D01*
X128849558Y-92084847D01*
X129180166Y-91908016D01*
X129515830Y-91738679D01*
X129857255Y-91579245D01*
X130216839Y-91424847D01*
X130606982Y-91270615D01*
X131040082Y-91111680D01*
X131528538Y-90943173D01*
X132084750Y-90760225D01*
X132185833Y-90727692D01*
X132460362Y-90644313D01*
X132798238Y-90549155D01*
X133179810Y-90447151D01*
X133585424Y-90343231D01*
X133995426Y-90242328D01*
X134390164Y-90149375D01*
X134749984Y-90069302D01*
X135055234Y-90007042D01*
X135064500Y-90005282D01*
X135297800Y-89960881D01*
X135512008Y-89919729D01*
X135688423Y-89885446D01*
X135808342Y-89861653D01*
X135837785Y-89855569D01*
X135976070Y-89826135D01*
X135953500Y-92096475D01*
G36*
X148396816Y-90489167D02*
G01*
X148875218Y-90579276D01*
X149368164Y-90720014D01*
X149897223Y-90914570D01*
X150009616Y-90960364D01*
X150487272Y-91176976D01*
X150945933Y-91422032D01*
X151376110Y-91688392D01*
X151768314Y-91968912D01*
X152113054Y-92256452D01*
X152400842Y-92543869D01*
X152622187Y-92824023D01*
X152730628Y-93008178D01*
X152812529Y-93199895D01*
X152853857Y-93373655D01*
X152850163Y-93534429D01*
X152796998Y-93687190D01*
X152689910Y-93836909D01*
X152524452Y-93988558D01*
X152296171Y-94147109D01*
X152000620Y-94317533D01*
X151633348Y-94504803D01*
X151213860Y-94702885D01*
X150955030Y-94818351D01*
X150632574Y-94956513D01*
X150262379Y-95110967D01*
X149860328Y-95275312D01*
X149442307Y-95443146D01*
X149024201Y-95608067D01*
X148621893Y-95763674D01*
X148251270Y-95903564D01*
X148060833Y-95973614D01*
X147842895Y-96053355D01*
X147645887Y-96126381D01*
X147487116Y-96186207D01*
X147383893Y-96226348D01*
X147362333Y-96235309D01*
X147270084Y-96271788D01*
X147106629Y-96332277D01*
X146880963Y-96413666D01*
X146602085Y-96512840D01*
X146278991Y-96626689D01*
X145920680Y-96752099D01*
X145536148Y-96885957D01*
X145134392Y-97025152D01*
X144724410Y-97166571D01*
X144315200Y-97307102D01*
X143915757Y-97443631D01*
X143535081Y-97573047D01*
X143182167Y-97692237D01*
X142866013Y-97798088D01*
X142595618Y-97887488D01*
X142441083Y-97937744D01*
X141986000Y-98084336D01*
X141986000Y-95949443D01*
X142631583Y-95726874D01*
X142876892Y-95642025D01*
X143118142Y-95558092D01*
X143333225Y-95482799D01*
X143500035Y-95423871D01*
X143552333Y-95405156D01*
X143635801Y-95375473D01*
X143792393Y-95320185D01*
X144015327Y-95241675D01*
X144297820Y-95142325D01*
X144633089Y-95024517D01*
X145014352Y-94890635D01*
X145434826Y-94743059D01*
X145887727Y-94584173D01*
X146366275Y-94416359D01*
X146863684Y-94241999D01*
X146949515Y-94211920D01*
X147441305Y-94039244D01*
X147909274Y-93874286D01*
X148347366Y-93719221D01*
X148749524Y-93576222D01*
X149109694Y-93447464D01*
X149421818Y-93335119D01*
X149679841Y-93241363D01*
X149877707Y-93168368D01*
X150009359Y-93118309D01*
X150068741Y-93093360D01*
X150071598Y-93091219D01*
X150036524Y-93059602D01*
X149950379Y-93016777D01*
X149934083Y-93010138D01*
X149847202Y-92973798D01*
X149696682Y-92908783D01*
X149496123Y-92821096D01*
X149259126Y-92716736D01*
X148999291Y-92601706D01*
X148730219Y-92482007D01*
X148465511Y-92363639D01*
X148284558Y-92282293D01*
X148085654Y-92204003D01*
X147942489Y-92174990D01*
X147882392Y-92179253D01*
X147803671Y-92196995D01*
X147658491Y-92230631D01*
X147462756Y-92276442D01*
X147232368Y-92330707D01*
X147023666Y-92380110D01*
X146736407Y-92448110D01*
X146432191Y-92519864D01*
X146139097Y-92588766D01*
X145885206Y-92648209D01*
X145774833Y-92673924D01*
X145496384Y-92738741D01*
X145190300Y-92810217D01*
X144845462Y-92890959D01*
X144450750Y-92983572D01*
X143995043Y-93090664D01*
X143510000Y-93204771D01*
X143244085Y-93267234D01*
X142968018Y-93331880D01*
X142709807Y-93392161D01*
X142497456Y-93441534D01*
X142446128Y-93453414D01*
X142038424Y-93547631D01*
X142020071Y-93068148D01*
X142013854Y-92805301D01*
X142012709Y-92506676D01*
X142016634Y-92221008D01*
X142020133Y-92107574D01*
X142038547Y-91626481D01*
X142488523Y-91455058D01*
X143097914Y-91236962D01*
X143705198Y-91049441D01*
X144326002Y-90889025D01*
X144975954Y-90752247D01*
X145670679Y-90635638D01*
X146425806Y-90535729D01*
X146833166Y-90490717D01*
X147397360Y-90448076D01*
X147911386Y-90446496D01*
X148396816Y-90489167D01*
X148396816Y-90489167D01*
G37*
X148396816Y-90489167D02*
X148875218Y-90579276D01*
X149368164Y-90720014D01*
X149897223Y-90914570D01*
X150009616Y-90960364D01*
X150487272Y-91176976D01*
X150945933Y-91422032D01*
X151376110Y-91688392D01*
X151768314Y-91968912D01*
X152113054Y-92256452D01*
X152400842Y-92543869D01*
X152622187Y-92824023D01*
X152730628Y-93008178D01*
X152812529Y-93199895D01*
X152853857Y-93373655D01*
X152850163Y-93534429D01*
X152796998Y-93687190D01*
X152689910Y-93836909D01*
X152524452Y-93988558D01*
X152296171Y-94147109D01*
X152000620Y-94317533D01*
X151633348Y-94504803D01*
X151213860Y-94702885D01*
X150955030Y-94818351D01*
X150632574Y-94956513D01*
X150262379Y-95110967D01*
X149860328Y-95275312D01*
X149442307Y-95443146D01*
X149024201Y-95608067D01*
X148621893Y-95763674D01*
X148251270Y-95903564D01*
X148060833Y-95973614D01*
X147842895Y-96053355D01*
X147645887Y-96126381D01*
X147487116Y-96186207D01*
X147383893Y-96226348D01*
X147362333Y-96235309D01*
X147270084Y-96271788D01*
X147106629Y-96332277D01*
X146880963Y-96413666D01*
X146602085Y-96512840D01*
X146278991Y-96626689D01*
X145920680Y-96752099D01*
X145536148Y-96885957D01*
X145134392Y-97025152D01*
X144724410Y-97166571D01*
X144315200Y-97307102D01*
X143915757Y-97443631D01*
X143535081Y-97573047D01*
X143182167Y-97692237D01*
X142866013Y-97798088D01*
X142595618Y-97887488D01*
X142441083Y-97937744D01*
X141986000Y-98084336D01*
X141986000Y-95949443D01*
X142631583Y-95726874D01*
X142876892Y-95642025D01*
X143118142Y-95558092D01*
X143333225Y-95482799D01*
X143500035Y-95423871D01*
X143552333Y-95405156D01*
X143635801Y-95375473D01*
X143792393Y-95320185D01*
X144015327Y-95241675D01*
X144297820Y-95142325D01*
X144633089Y-95024517D01*
X145014352Y-94890635D01*
X145434826Y-94743059D01*
X145887727Y-94584173D01*
X146366275Y-94416359D01*
X146863684Y-94241999D01*
X146949515Y-94211920D01*
X147441305Y-94039244D01*
X147909274Y-93874286D01*
X148347366Y-93719221D01*
X148749524Y-93576222D01*
X149109694Y-93447464D01*
X149421818Y-93335119D01*
X149679841Y-93241363D01*
X149877707Y-93168368D01*
X150009359Y-93118309D01*
X150068741Y-93093360D01*
X150071598Y-93091219D01*
X150036524Y-93059602D01*
X149950379Y-93016777D01*
X149934083Y-93010138D01*
X149847202Y-92973798D01*
X149696682Y-92908783D01*
X149496123Y-92821096D01*
X149259126Y-92716736D01*
X148999291Y-92601706D01*
X148730219Y-92482007D01*
X148465511Y-92363639D01*
X148284558Y-92282293D01*
X148085654Y-92204003D01*
X147942489Y-92174990D01*
X147882392Y-92179253D01*
X147803671Y-92196995D01*
X147658491Y-92230631D01*
X147462756Y-92276442D01*
X147232368Y-92330707D01*
X147023666Y-92380110D01*
X146736407Y-92448110D01*
X146432191Y-92519864D01*
X146139097Y-92588766D01*
X145885206Y-92648209D01*
X145774833Y-92673924D01*
X145496384Y-92738741D01*
X145190300Y-92810217D01*
X144845462Y-92890959D01*
X144450750Y-92983572D01*
X143995043Y-93090664D01*
X143510000Y-93204771D01*
X143244085Y-93267234D01*
X142968018Y-93331880D01*
X142709807Y-93392161D01*
X142497456Y-93441534D01*
X142446128Y-93453414D01*
X142038424Y-93547631D01*
X142020071Y-93068148D01*
X142013854Y-92805301D01*
X142012709Y-92506676D01*
X142016634Y-92221008D01*
X142020133Y-92107574D01*
X142038547Y-91626481D01*
X142488523Y-91455058D01*
X143097914Y-91236962D01*
X143705198Y-91049441D01*
X144326002Y-90889025D01*
X144975954Y-90752247D01*
X145670679Y-90635638D01*
X146425806Y-90535729D01*
X146833166Y-90490717D01*
X147397360Y-90448076D01*
X147911386Y-90446496D01*
X148396816Y-90489167D01*
G36*
X137128250Y-78424680D02*
G01*
X137881116Y-78585604D01*
X138638845Y-78763589D01*
X139382102Y-78953565D01*
X140091546Y-79150463D01*
X140747842Y-79349213D01*
X141118166Y-79470667D01*
X142028801Y-79800045D01*
X142864256Y-80144499D01*
X143623468Y-80503324D01*
X144305374Y-80875815D01*
X144908912Y-81261266D01*
X145433017Y-81658972D01*
X145876627Y-82068228D01*
X146238678Y-82488327D01*
X146518108Y-82918566D01*
X146618921Y-83120374D01*
X146702731Y-83333914D01*
X146790962Y-83607380D01*
X146877382Y-83916708D01*
X146955766Y-84237829D01*
X147019883Y-84546677D01*
X147063505Y-84819184D01*
X147067855Y-84855082D01*
X147090410Y-85123691D01*
X147103195Y-85434432D01*
X147106287Y-85761230D01*
X147099763Y-86078011D01*
X147083703Y-86358699D01*
X147062816Y-86548057D01*
X146975556Y-86988211D01*
X146848799Y-87425283D01*
X146688897Y-87846422D01*
X146502197Y-88238775D01*
X146295049Y-88589492D01*
X146073801Y-88885720D01*
X145844804Y-89114609D01*
X145764469Y-89176102D01*
X145594693Y-89268768D01*
X145393982Y-89324404D01*
X145147702Y-89345113D01*
X144841221Y-89332993D01*
X144737666Y-89323505D01*
X144310131Y-89256136D01*
X143940082Y-89142302D01*
X143609777Y-88974385D01*
X143301473Y-88744766D01*
X143220800Y-88672225D01*
X142980833Y-88448879D01*
X142959666Y-85539975D01*
X142938500Y-82631071D01*
X142578666Y-82483469D01*
X142402884Y-82410746D01*
X142176112Y-82316033D01*
X141925225Y-82210598D01*
X141677093Y-82105708D01*
X141629937Y-82085691D01*
X141424164Y-82000008D01*
X141247122Y-81929576D01*
X141112745Y-81879680D01*
X141034967Y-81855604D01*
X141021591Y-81854964D01*
X141019487Y-81898595D01*
X141017142Y-82022827D01*
X141014582Y-82223594D01*
X141011829Y-82496830D01*
X141008910Y-82838469D01*
X141005847Y-83244447D01*
X141002665Y-83710696D01*
X140999389Y-84233152D01*
X140996043Y-84807749D01*
X140992651Y-85430422D01*
X140989237Y-86097104D01*
X140985826Y-86803729D01*
X140982443Y-87546233D01*
X140979111Y-88320550D01*
X140975854Y-89122613D01*
X140972698Y-89948357D01*
X140971948Y-90152551D01*
X140968829Y-90983398D01*
X140965622Y-91791527D01*
X140962350Y-92572873D01*
X140959036Y-93323373D01*
X140955705Y-94038963D01*
X140952379Y-94715581D01*
X140949082Y-95349161D01*
X140945837Y-95935640D01*
X140942668Y-96470955D01*
X140939598Y-96951042D01*
X140936651Y-97371837D01*
X140933849Y-97729276D01*
X140931217Y-98019297D01*
X140928778Y-98237834D01*
X140926555Y-98380824D01*
X140924572Y-98444205D01*
X140924127Y-98447126D01*
X140879678Y-98439503D01*
X140780440Y-98403602D01*
X140652500Y-98349216D01*
X140559315Y-98308200D01*
X140397832Y-98238173D01*
X140177666Y-98143261D01*
X139908429Y-98027593D01*
X139599737Y-97895296D01*
X139261202Y-97750497D01*
X138902439Y-97597324D01*
X138716044Y-97517851D01*
X137033588Y-96800833D01*
X137033294Y-87603110D01*
X137033000Y-78405386D01*
X137128250Y-78424680D01*
X137128250Y-78424680D01*
G37*
X137128250Y-78424680D02*
X137881116Y-78585604D01*
X138638845Y-78763589D01*
X139382102Y-78953565D01*
X140091546Y-79150463D01*
X140747842Y-79349213D01*
X141118166Y-79470667D01*
X142028801Y-79800045D01*
X142864256Y-80144499D01*
X143623468Y-80503324D01*
X144305374Y-80875815D01*
X144908912Y-81261266D01*
X145433017Y-81658972D01*
X145876627Y-82068228D01*
X146238678Y-82488327D01*
X146518108Y-82918566D01*
X146618921Y-83120374D01*
X146702731Y-83333914D01*
X146790962Y-83607380D01*
X146877382Y-83916708D01*
X146955766Y-84237829D01*
X147019883Y-84546677D01*
X147063505Y-84819184D01*
X147067855Y-84855082D01*
X147090410Y-85123691D01*
X147103195Y-85434432D01*
X147106287Y-85761230D01*
X147099763Y-86078011D01*
X147083703Y-86358699D01*
X147062816Y-86548057D01*
X146975556Y-86988211D01*
X146848799Y-87425283D01*
X146688897Y-87846422D01*
X146502197Y-88238775D01*
X146295049Y-88589492D01*
X146073801Y-88885720D01*
X145844804Y-89114609D01*
X145764469Y-89176102D01*
X145594693Y-89268768D01*
X145393982Y-89324404D01*
X145147702Y-89345113D01*
X144841221Y-89332993D01*
X144737666Y-89323505D01*
X144310131Y-89256136D01*
X143940082Y-89142302D01*
X143609777Y-88974385D01*
X143301473Y-88744766D01*
X143220800Y-88672225D01*
X142980833Y-88448879D01*
X142959666Y-85539975D01*
X142938500Y-82631071D01*
X142578666Y-82483469D01*
X142402884Y-82410746D01*
X142176112Y-82316033D01*
X141925225Y-82210598D01*
X141677093Y-82105708D01*
X141629937Y-82085691D01*
X141424164Y-82000008D01*
X141247122Y-81929576D01*
X141112745Y-81879680D01*
X141034967Y-81855604D01*
X141021591Y-81854964D01*
X141019487Y-81898595D01*
X141017142Y-82022827D01*
X141014582Y-82223594D01*
X141011829Y-82496830D01*
X141008910Y-82838469D01*
X141005847Y-83244447D01*
X141002665Y-83710696D01*
X140999389Y-84233152D01*
X140996043Y-84807749D01*
X140992651Y-85430422D01*
X140989237Y-86097104D01*
X140985826Y-86803729D01*
X140982443Y-87546233D01*
X140979111Y-88320550D01*
X140975854Y-89122613D01*
X140972698Y-89948357D01*
X140971948Y-90152551D01*
X140968829Y-90983398D01*
X140965622Y-91791527D01*
X140962350Y-92572873D01*
X140959036Y-93323373D01*
X140955705Y-94038963D01*
X140952379Y-94715581D01*
X140949082Y-95349161D01*
X140945837Y-95935640D01*
X140942668Y-96470955D01*
X140939598Y-96951042D01*
X140936651Y-97371837D01*
X140933849Y-97729276D01*
X140931217Y-98019297D01*
X140928778Y-98237834D01*
X140926555Y-98380824D01*
X140924572Y-98444205D01*
X140924127Y-98447126D01*
X140879678Y-98439503D01*
X140780440Y-98403602D01*
X140652500Y-98349216D01*
X140559315Y-98308200D01*
X140397832Y-98238173D01*
X140177666Y-98143261D01*
X139908429Y-98027593D01*
X139599737Y-97895296D01*
X139261202Y-97750497D01*
X138902439Y-97597324D01*
X138716044Y-97517851D01*
X137033588Y-96800833D01*
X137033294Y-87603110D01*
X137033000Y-78405386D01*
X137128250Y-78424680D01*
M02*
