G04 #@! TF.GenerationSoftware,KiCad,Pcbnew,(5.1.0)-1*
G04 #@! TF.CreationDate,2019-06-07T12:29:43-04:00*
G04 #@! TF.ProjectId,PSX Breakout,50535820-4272-4656-916b-6f75742e6b69,rev?*
G04 #@! TF.SameCoordinates,Original*
G04 #@! TF.FileFunction,Legend,Top*
G04 #@! TF.FilePolarity,Positive*
%FSLAX46Y46*%
G04 Gerber Fmt 4.6, Leading zero omitted, Abs format (unit mm)*
G04 Created by KiCad (PCBNEW (5.1.0)-1) date 2019-06-07 12:29:43*
%MOMM*%
%LPD*%
G04 APERTURE LIST*
%ADD10C,0.150000*%
%ADD11C,0.120000*%
%ADD12C,0.340000*%
%ADD13C,0.127000*%
%ADD14C,0.400000*%
G04 APERTURE END LIST*
D10*
X133755619Y-70620380D02*
X133755619Y-69620380D01*
X134136571Y-69620380D01*
X134231809Y-69668000D01*
X134279428Y-69715619D01*
X134327047Y-69810857D01*
X134327047Y-69953714D01*
X134279428Y-70048952D01*
X134231809Y-70096571D01*
X134136571Y-70144190D01*
X133755619Y-70144190D01*
X134708000Y-70572761D02*
X134850857Y-70620380D01*
X135088952Y-70620380D01*
X135184190Y-70572761D01*
X135231809Y-70525142D01*
X135279428Y-70429904D01*
X135279428Y-70334666D01*
X135231809Y-70239428D01*
X135184190Y-70191809D01*
X135088952Y-70144190D01*
X134898476Y-70096571D01*
X134803238Y-70048952D01*
X134755619Y-70001333D01*
X134708000Y-69906095D01*
X134708000Y-69810857D01*
X134755619Y-69715619D01*
X134803238Y-69668000D01*
X134898476Y-69620380D01*
X135136571Y-69620380D01*
X135279428Y-69668000D01*
X135612761Y-69620380D02*
X136279428Y-70620380D01*
X136279428Y-69620380D02*
X135612761Y-70620380D01*
X137755619Y-70096571D02*
X137898476Y-70144190D01*
X137946095Y-70191809D01*
X137993714Y-70287047D01*
X137993714Y-70429904D01*
X137946095Y-70525142D01*
X137898476Y-70572761D01*
X137803238Y-70620380D01*
X137422285Y-70620380D01*
X137422285Y-69620380D01*
X137755619Y-69620380D01*
X137850857Y-69668000D01*
X137898476Y-69715619D01*
X137946095Y-69810857D01*
X137946095Y-69906095D01*
X137898476Y-70001333D01*
X137850857Y-70048952D01*
X137755619Y-70096571D01*
X137422285Y-70096571D01*
X138422285Y-70620380D02*
X138422285Y-69953714D01*
X138422285Y-70144190D02*
X138469904Y-70048952D01*
X138517523Y-70001333D01*
X138612761Y-69953714D01*
X138708000Y-69953714D01*
X139422285Y-70572761D02*
X139327047Y-70620380D01*
X139136571Y-70620380D01*
X139041333Y-70572761D01*
X138993714Y-70477523D01*
X138993714Y-70096571D01*
X139041333Y-70001333D01*
X139136571Y-69953714D01*
X139327047Y-69953714D01*
X139422285Y-70001333D01*
X139469904Y-70096571D01*
X139469904Y-70191809D01*
X138993714Y-70287047D01*
X140327047Y-70620380D02*
X140327047Y-70096571D01*
X140279428Y-70001333D01*
X140184190Y-69953714D01*
X139993714Y-69953714D01*
X139898476Y-70001333D01*
X140327047Y-70572761D02*
X140231809Y-70620380D01*
X139993714Y-70620380D01*
X139898476Y-70572761D01*
X139850857Y-70477523D01*
X139850857Y-70382285D01*
X139898476Y-70287047D01*
X139993714Y-70239428D01*
X140231809Y-70239428D01*
X140327047Y-70191809D01*
X140803238Y-70620380D02*
X140803238Y-69620380D01*
X140898476Y-70239428D02*
X141184190Y-70620380D01*
X141184190Y-69953714D02*
X140803238Y-70334666D01*
X141755619Y-70620380D02*
X141660380Y-70572761D01*
X141612761Y-70525142D01*
X141565142Y-70429904D01*
X141565142Y-70144190D01*
X141612761Y-70048952D01*
X141660380Y-70001333D01*
X141755619Y-69953714D01*
X141898476Y-69953714D01*
X141993714Y-70001333D01*
X142041333Y-70048952D01*
X142088952Y-70144190D01*
X142088952Y-70429904D01*
X142041333Y-70525142D01*
X141993714Y-70572761D01*
X141898476Y-70620380D01*
X141755619Y-70620380D01*
X142946095Y-69953714D02*
X142946095Y-70620380D01*
X142517523Y-69953714D02*
X142517523Y-70477523D01*
X142565142Y-70572761D01*
X142660380Y-70620380D01*
X142803238Y-70620380D01*
X142898476Y-70572761D01*
X142946095Y-70525142D01*
X143279428Y-69953714D02*
X143660380Y-69953714D01*
X143422285Y-69620380D02*
X143422285Y-70477523D01*
X143469904Y-70572761D01*
X143565142Y-70620380D01*
X143660380Y-70620380D01*
X145279428Y-70620380D02*
X144708000Y-70620380D01*
X144993714Y-70620380D02*
X144993714Y-69620380D01*
X144898476Y-69763238D01*
X144803238Y-69858476D01*
X144708000Y-69906095D01*
X145708000Y-70525142D02*
X145755619Y-70572761D01*
X145708000Y-70620380D01*
X145660380Y-70572761D01*
X145708000Y-70525142D01*
X145708000Y-70620380D01*
X146374666Y-69620380D02*
X146469904Y-69620380D01*
X146565142Y-69668000D01*
X146612761Y-69715619D01*
X146660380Y-69810857D01*
X146708000Y-70001333D01*
X146708000Y-70239428D01*
X146660380Y-70429904D01*
X146612761Y-70525142D01*
X146565142Y-70572761D01*
X146469904Y-70620380D01*
X146374666Y-70620380D01*
X146279428Y-70572761D01*
X146231809Y-70525142D01*
X146184190Y-70429904D01*
X146136571Y-70239428D01*
X146136571Y-70001333D01*
X146184190Y-69810857D01*
X146231809Y-69715619D01*
X146279428Y-69668000D01*
X146374666Y-69620380D01*
X134279428Y-71270380D02*
X134850857Y-71270380D01*
X134565142Y-72270380D02*
X134565142Y-71270380D01*
X135184190Y-72270380D02*
X135184190Y-71603714D01*
X135184190Y-71270380D02*
X135136571Y-71318000D01*
X135184190Y-71365619D01*
X135231809Y-71318000D01*
X135184190Y-71270380D01*
X135184190Y-71365619D01*
X135660380Y-71603714D02*
X135660380Y-72270380D01*
X135660380Y-71698952D02*
X135708000Y-71651333D01*
X135803238Y-71603714D01*
X135946095Y-71603714D01*
X136041333Y-71651333D01*
X136088952Y-71746571D01*
X136088952Y-72270380D01*
X136565142Y-72270380D02*
X136565142Y-71270380D01*
X136660380Y-71889428D02*
X136946095Y-72270380D01*
X136946095Y-71603714D02*
X136565142Y-71984666D01*
X137755619Y-72222761D02*
X137660380Y-72270380D01*
X137469904Y-72270380D01*
X137374666Y-72222761D01*
X137327047Y-72127523D01*
X137327047Y-71746571D01*
X137374666Y-71651333D01*
X137469904Y-71603714D01*
X137660380Y-71603714D01*
X137755619Y-71651333D01*
X137803238Y-71746571D01*
X137803238Y-71841809D01*
X137327047Y-71937047D01*
X138231809Y-72270380D02*
X138231809Y-71603714D01*
X138231809Y-71794190D02*
X138279428Y-71698952D01*
X138327047Y-71651333D01*
X138422285Y-71603714D01*
X138517523Y-71603714D01*
X138850857Y-71603714D02*
X138850857Y-72603714D01*
X138850857Y-71651333D02*
X138946095Y-71603714D01*
X139136571Y-71603714D01*
X139231809Y-71651333D01*
X139279428Y-71698952D01*
X139327047Y-71794190D01*
X139327047Y-72079904D01*
X139279428Y-72175142D01*
X139231809Y-72222761D01*
X139136571Y-72270380D01*
X138946095Y-72270380D01*
X138850857Y-72222761D01*
X139898476Y-72270380D02*
X139803238Y-72222761D01*
X139755619Y-72127523D01*
X139755619Y-71270380D01*
X140708000Y-71603714D02*
X140708000Y-72270380D01*
X140279428Y-71603714D02*
X140279428Y-72127523D01*
X140327047Y-72222761D01*
X140422285Y-72270380D01*
X140565142Y-72270380D01*
X140660380Y-72222761D01*
X140708000Y-72175142D01*
X141184190Y-71603714D02*
X141184190Y-72270380D01*
X141184190Y-71698952D02*
X141231809Y-71651333D01*
X141327047Y-71603714D01*
X141469904Y-71603714D01*
X141565142Y-71651333D01*
X141612761Y-71746571D01*
X141612761Y-72270380D01*
X142088952Y-72270380D02*
X142088952Y-71270380D01*
X142184190Y-71889428D02*
X142469904Y-72270380D01*
X142469904Y-71603714D02*
X142088952Y-71984666D01*
X142898476Y-72175142D02*
X142946095Y-72222761D01*
X142898476Y-72270380D01*
X142850857Y-72222761D01*
X142898476Y-72175142D01*
X142898476Y-72270380D01*
X143803238Y-72222761D02*
X143708000Y-72270380D01*
X143517523Y-72270380D01*
X143422285Y-72222761D01*
X143374666Y-72175142D01*
X143327047Y-72079904D01*
X143327047Y-71794190D01*
X143374666Y-71698952D01*
X143422285Y-71651333D01*
X143517523Y-71603714D01*
X143708000Y-71603714D01*
X143803238Y-71651333D01*
X144374666Y-72270380D02*
X144279428Y-72222761D01*
X144231809Y-72175142D01*
X144184190Y-72079904D01*
X144184190Y-71794190D01*
X144231809Y-71698952D01*
X144279428Y-71651333D01*
X144374666Y-71603714D01*
X144517523Y-71603714D01*
X144612761Y-71651333D01*
X144660380Y-71698952D01*
X144708000Y-71794190D01*
X144708000Y-72079904D01*
X144660380Y-72175142D01*
X144612761Y-72222761D01*
X144517523Y-72270380D01*
X144374666Y-72270380D01*
X145136571Y-72270380D02*
X145136571Y-71603714D01*
X145136571Y-71698952D02*
X145184190Y-71651333D01*
X145279428Y-71603714D01*
X145422285Y-71603714D01*
X145517523Y-71651333D01*
X145565142Y-71746571D01*
X145565142Y-72270380D01*
X145565142Y-71746571D02*
X145612761Y-71651333D01*
X145708000Y-71603714D01*
X145850857Y-71603714D01*
X145946095Y-71651333D01*
X145993714Y-71746571D01*
X145993714Y-72270380D01*
X108855047Y-80224380D02*
X109521714Y-80224380D01*
X109093142Y-81224380D01*
X110378857Y-80224380D02*
X109902666Y-80224380D01*
X109855047Y-80700571D01*
X109902666Y-80652952D01*
X109997904Y-80605333D01*
X110236000Y-80605333D01*
X110331238Y-80652952D01*
X110378857Y-80700571D01*
X110426476Y-80795809D01*
X110426476Y-81033904D01*
X110378857Y-81129142D01*
X110331238Y-81176761D01*
X110236000Y-81224380D01*
X109997904Y-81224380D01*
X109902666Y-81176761D01*
X109855047Y-81129142D01*
X110807428Y-81224380D02*
X111045523Y-81224380D01*
X111045523Y-81033904D01*
X110950285Y-80986285D01*
X110855047Y-80891047D01*
X110807428Y-80748190D01*
X110807428Y-80510095D01*
X110855047Y-80367238D01*
X110950285Y-80272000D01*
X111093142Y-80224380D01*
X111283619Y-80224380D01*
X111426476Y-80272000D01*
X111521714Y-80367238D01*
X111569333Y-80510095D01*
X111569333Y-80748190D01*
X111521714Y-80891047D01*
X111426476Y-80986285D01*
X111331238Y-81033904D01*
X111331238Y-81224380D01*
X111569333Y-81224380D01*
X104211571Y-80224380D02*
X104783000Y-80224380D01*
X104497285Y-81224380D02*
X104497285Y-80224380D01*
X104973476Y-80224380D02*
X105544904Y-80224380D01*
X105259190Y-81224380D02*
X105259190Y-80224380D01*
X106354428Y-81224380D02*
X105878238Y-81224380D01*
X105878238Y-80224380D01*
X157069452Y-86254523D02*
X157355166Y-86349761D01*
X157831357Y-86349761D01*
X158021833Y-86254523D01*
X158117071Y-86159285D01*
X158212309Y-85968809D01*
X158212309Y-85778333D01*
X158117071Y-85587857D01*
X158021833Y-85492619D01*
X157831357Y-85397380D01*
X157450404Y-85302142D01*
X157259928Y-85206904D01*
X157164690Y-85111666D01*
X157069452Y-84921190D01*
X157069452Y-84730714D01*
X157164690Y-84540238D01*
X157259928Y-84445000D01*
X157450404Y-84349761D01*
X157926595Y-84349761D01*
X158212309Y-84445000D01*
X158878976Y-85016428D02*
X159355166Y-86349761D01*
X159831357Y-85016428D02*
X159355166Y-86349761D01*
X159164690Y-86825952D01*
X159069452Y-86921190D01*
X158878976Y-87016428D01*
X160593261Y-85016428D02*
X160593261Y-86349761D01*
X160593261Y-85206904D02*
X160688500Y-85111666D01*
X160878976Y-85016428D01*
X161164690Y-85016428D01*
X161355166Y-85111666D01*
X161450404Y-85302142D01*
X161450404Y-86349761D01*
X163259928Y-86254523D02*
X163069452Y-86349761D01*
X162688500Y-86349761D01*
X162498023Y-86254523D01*
X162402785Y-86159285D01*
X162307547Y-85968809D01*
X162307547Y-85397380D01*
X162402785Y-85206904D01*
X162498023Y-85111666D01*
X162688500Y-85016428D01*
X163069452Y-85016428D01*
X163259928Y-85111666D01*
X165545642Y-86254523D02*
X165831357Y-86349761D01*
X166307547Y-86349761D01*
X166498023Y-86254523D01*
X166593261Y-86159285D01*
X166688500Y-85968809D01*
X166688500Y-85778333D01*
X166593261Y-85587857D01*
X166498023Y-85492619D01*
X166307547Y-85397380D01*
X165926595Y-85302142D01*
X165736119Y-85206904D01*
X165640880Y-85111666D01*
X165545642Y-84921190D01*
X165545642Y-84730714D01*
X165640880Y-84540238D01*
X165736119Y-84445000D01*
X165926595Y-84349761D01*
X166402785Y-84349761D01*
X166688500Y-84445000D01*
X168307547Y-86254523D02*
X168117071Y-86349761D01*
X167736119Y-86349761D01*
X167545642Y-86254523D01*
X167450404Y-86064047D01*
X167450404Y-85302142D01*
X167545642Y-85111666D01*
X167736119Y-85016428D01*
X168117071Y-85016428D01*
X168307547Y-85111666D01*
X168402785Y-85302142D01*
X168402785Y-85492619D01*
X167450404Y-85683095D01*
X169545642Y-86349761D02*
X169355166Y-86254523D01*
X169259928Y-86064047D01*
X169259928Y-84349761D01*
X171069452Y-86254523D02*
X170878976Y-86349761D01*
X170498023Y-86349761D01*
X170307547Y-86254523D01*
X170212309Y-86064047D01*
X170212309Y-85302142D01*
X170307547Y-85111666D01*
X170498023Y-85016428D01*
X170878976Y-85016428D01*
X171069452Y-85111666D01*
X171164690Y-85302142D01*
X171164690Y-85492619D01*
X170212309Y-85683095D01*
X172878976Y-86254523D02*
X172688500Y-86349761D01*
X172307547Y-86349761D01*
X172117071Y-86254523D01*
X172021833Y-86159285D01*
X171926595Y-85968809D01*
X171926595Y-85397380D01*
X172021833Y-85206904D01*
X172117071Y-85111666D01*
X172307547Y-85016428D01*
X172688500Y-85016428D01*
X172878976Y-85111666D01*
X173450404Y-85016428D02*
X174212309Y-85016428D01*
X173736119Y-84349761D02*
X173736119Y-86064047D01*
X173831357Y-86254523D01*
X174021833Y-86349761D01*
X174212309Y-86349761D01*
X157926595Y-89499761D02*
X157926595Y-87975952D01*
X157545642Y-88356904D02*
X157926595Y-87975952D01*
X158307547Y-88356904D01*
X160783738Y-89309285D02*
X160688500Y-89404523D01*
X160402785Y-89499761D01*
X160212309Y-89499761D01*
X159926595Y-89404523D01*
X159736119Y-89214047D01*
X159640880Y-89023571D01*
X159545642Y-88642619D01*
X159545642Y-88356904D01*
X159640880Y-87975952D01*
X159736119Y-87785476D01*
X159926595Y-87595000D01*
X160212309Y-87499761D01*
X160402785Y-87499761D01*
X160688500Y-87595000D01*
X160783738Y-87690238D01*
X161355166Y-87499761D02*
X162021833Y-89499761D01*
X162688500Y-87499761D01*
X164021833Y-88452142D02*
X164307547Y-88547380D01*
X164402785Y-88642619D01*
X164498023Y-88833095D01*
X164498023Y-89118809D01*
X164402785Y-89309285D01*
X164307547Y-89404523D01*
X164117071Y-89499761D01*
X163355166Y-89499761D01*
X163355166Y-87499761D01*
X164021833Y-87499761D01*
X164212309Y-87595000D01*
X164307547Y-87690238D01*
X164402785Y-87880714D01*
X164402785Y-88071190D01*
X164307547Y-88261666D01*
X164212309Y-88356904D01*
X164021833Y-88452142D01*
X163355166Y-88452142D01*
X165259928Y-89404523D02*
X165545642Y-89499761D01*
X166021833Y-89499761D01*
X166212309Y-89404523D01*
X166307547Y-89309285D01*
X166402785Y-89118809D01*
X166402785Y-88928333D01*
X166307547Y-88737857D01*
X166212309Y-88642619D01*
X166021833Y-88547380D01*
X165640880Y-88452142D01*
X165450404Y-88356904D01*
X165355166Y-88261666D01*
X165259928Y-88071190D01*
X165259928Y-87880714D01*
X165355166Y-87690238D01*
X165450404Y-87595000D01*
X165640880Y-87499761D01*
X166117071Y-87499761D01*
X166402785Y-87595000D01*
X157259928Y-91506904D02*
X157259928Y-92268809D01*
X157355166Y-92364047D02*
X157736119Y-92649761D01*
X157355166Y-91411666D02*
X157736119Y-91125952D01*
X157355166Y-91316428D02*
X157355166Y-92459285D01*
X157450404Y-92459285D02*
X157450404Y-91316428D01*
X157545642Y-91221190D02*
X157545642Y-92554523D01*
X157640880Y-92554523D02*
X157640880Y-91221190D01*
X157736119Y-91125952D02*
X157736119Y-92649761D01*
X157831357Y-92649761D02*
X157831357Y-91125952D01*
X157926595Y-91125952D02*
X157926595Y-92649761D01*
X158021833Y-92649761D02*
X158021833Y-91125952D01*
X158117071Y-92649761D02*
X158498023Y-92364047D01*
X158117071Y-91125952D02*
X158117071Y-92649761D01*
X158117071Y-91125952D02*
X158498023Y-91411666D01*
X158212309Y-92554523D02*
X158212309Y-91221190D01*
X158307547Y-91221190D02*
X158307547Y-92554523D01*
X158402785Y-92459285D02*
X158402785Y-91316428D01*
X158498023Y-91316428D02*
X158498023Y-92459285D01*
X158593261Y-92268809D02*
X158593261Y-91506904D01*
X157736119Y-91125952D02*
X158117071Y-91125952D01*
X158498023Y-91316428D01*
X158688500Y-91697380D01*
X158688500Y-92078333D01*
X158498023Y-92459285D01*
X158117071Y-92649761D01*
X157736119Y-92649761D01*
X157355166Y-92459285D01*
X157164690Y-92078333D01*
X157164690Y-91697380D01*
X157355166Y-91316428D01*
X157736119Y-91125952D01*
X160783738Y-92459285D02*
X160688500Y-92554523D01*
X160402785Y-92649761D01*
X160212309Y-92649761D01*
X159926595Y-92554523D01*
X159736119Y-92364047D01*
X159640880Y-92173571D01*
X159545642Y-91792619D01*
X159545642Y-91506904D01*
X159640880Y-91125952D01*
X159736119Y-90935476D01*
X159926595Y-90745000D01*
X160212309Y-90649761D01*
X160402785Y-90649761D01*
X160688500Y-90745000D01*
X160783738Y-90840238D01*
X161545642Y-92554523D02*
X161831357Y-92649761D01*
X162307547Y-92649761D01*
X162498023Y-92554523D01*
X162593261Y-92459285D01*
X162688500Y-92268809D01*
X162688500Y-92078333D01*
X162593261Y-91887857D01*
X162498023Y-91792619D01*
X162307547Y-91697380D01*
X161926595Y-91602142D01*
X161736119Y-91506904D01*
X161640880Y-91411666D01*
X161545642Y-91221190D01*
X161545642Y-91030714D01*
X161640880Y-90840238D01*
X161736119Y-90745000D01*
X161926595Y-90649761D01*
X162402785Y-90649761D01*
X162688500Y-90745000D01*
X163926595Y-91697380D02*
X163926595Y-92649761D01*
X163259928Y-90649761D02*
X163926595Y-91697380D01*
X164593261Y-90649761D01*
X165259928Y-92649761D02*
X165259928Y-90649761D01*
X166402785Y-92649761D01*
X166402785Y-90649761D01*
X168498023Y-92459285D02*
X168402785Y-92554523D01*
X168117071Y-92649761D01*
X167926595Y-92649761D01*
X167640880Y-92554523D01*
X167450404Y-92364047D01*
X167355166Y-92173571D01*
X167259928Y-91792619D01*
X167259928Y-91506904D01*
X167355166Y-91125952D01*
X167450404Y-90935476D01*
X167640880Y-90745000D01*
X167926595Y-90649761D01*
X168117071Y-90649761D01*
X168402785Y-90745000D01*
X168498023Y-90840238D01*
X157926595Y-94275952D02*
X157926595Y-95799761D01*
X158307547Y-95418809D02*
X157926595Y-95799761D01*
X157545642Y-95418809D01*
X160593261Y-95799761D02*
X159640880Y-95799761D01*
X159640880Y-93799761D01*
X161259928Y-93799761D02*
X161259928Y-95418809D01*
X161355166Y-95609285D01*
X161450404Y-95704523D01*
X161640880Y-95799761D01*
X162021833Y-95799761D01*
X162212309Y-95704523D01*
X162307547Y-95609285D01*
X162402785Y-95418809D01*
X162402785Y-93799761D01*
X163355166Y-95799761D02*
X163355166Y-93799761D01*
X164021833Y-95228333D01*
X164688500Y-93799761D01*
X164688500Y-95799761D01*
X165545642Y-95228333D02*
X166498023Y-95228333D01*
X165355166Y-95799761D02*
X166021833Y-93799761D01*
X166688500Y-95799761D01*
X181909785Y-92845380D02*
X181576452Y-92369190D01*
X181338357Y-92845380D02*
X181338357Y-91845380D01*
X181719309Y-91845380D01*
X181814547Y-91893000D01*
X181862166Y-91940619D01*
X181909785Y-92035857D01*
X181909785Y-92178714D01*
X181862166Y-92273952D01*
X181814547Y-92321571D01*
X181719309Y-92369190D01*
X181338357Y-92369190D01*
X182909785Y-92750142D02*
X182862166Y-92797761D01*
X182719309Y-92845380D01*
X182624071Y-92845380D01*
X182481214Y-92797761D01*
X182385976Y-92702523D01*
X182338357Y-92607285D01*
X182290738Y-92416809D01*
X182290738Y-92273952D01*
X182338357Y-92083476D01*
X182385976Y-91988238D01*
X182481214Y-91893000D01*
X182624071Y-91845380D01*
X182719309Y-91845380D01*
X182862166Y-91893000D01*
X182909785Y-91940619D01*
X183290738Y-92559666D02*
X183766928Y-92559666D01*
X183195500Y-92845380D02*
X183528833Y-91845380D01*
X183862166Y-92845380D01*
X184195500Y-92464428D02*
X184957404Y-92464428D01*
X184766928Y-92654904D02*
X184957404Y-92464428D01*
X184766928Y-92273952D01*
X175433595Y-94447761D02*
X175576452Y-94495380D01*
X175814547Y-94495380D01*
X175909785Y-94447761D01*
X175957404Y-94400142D01*
X176005023Y-94304904D01*
X176005023Y-94209666D01*
X175957404Y-94114428D01*
X175909785Y-94066809D01*
X175814547Y-94019190D01*
X175624071Y-93971571D01*
X175528833Y-93923952D01*
X175481214Y-93876333D01*
X175433595Y-93781095D01*
X175433595Y-93685857D01*
X175481214Y-93590619D01*
X175528833Y-93543000D01*
X175624071Y-93495380D01*
X175862166Y-93495380D01*
X176005023Y-93543000D01*
X176624071Y-94019190D02*
X176624071Y-94495380D01*
X176290738Y-93495380D02*
X176624071Y-94019190D01*
X176957404Y-93495380D01*
X177290738Y-94495380D02*
X177290738Y-93495380D01*
X177862166Y-94495380D01*
X177862166Y-93495380D01*
X178909785Y-94400142D02*
X178862166Y-94447761D01*
X178719309Y-94495380D01*
X178624071Y-94495380D01*
X178481214Y-94447761D01*
X178385976Y-94352523D01*
X178338357Y-94257285D01*
X178290738Y-94066809D01*
X178290738Y-93923952D01*
X178338357Y-93733476D01*
X178385976Y-93638238D01*
X178481214Y-93543000D01*
X178624071Y-93495380D01*
X178719309Y-93495380D01*
X178862166Y-93543000D01*
X178909785Y-93590619D01*
X180052642Y-94447761D02*
X180195500Y-94495380D01*
X180433595Y-94495380D01*
X180528833Y-94447761D01*
X180576452Y-94400142D01*
X180624071Y-94304904D01*
X180624071Y-94209666D01*
X180576452Y-94114428D01*
X180528833Y-94066809D01*
X180433595Y-94019190D01*
X180243119Y-93971571D01*
X180147880Y-93923952D01*
X180100261Y-93876333D01*
X180052642Y-93781095D01*
X180052642Y-93685857D01*
X180100261Y-93590619D01*
X180147880Y-93543000D01*
X180243119Y-93495380D01*
X180481214Y-93495380D01*
X180624071Y-93543000D01*
X181052642Y-93971571D02*
X181385976Y-93971571D01*
X181528833Y-94495380D02*
X181052642Y-94495380D01*
X181052642Y-93495380D01*
X181528833Y-93495380D01*
X182433595Y-94495380D02*
X181957404Y-94495380D01*
X181957404Y-93495380D01*
X182766928Y-93971571D02*
X183100261Y-93971571D01*
X183243119Y-94495380D02*
X182766928Y-94495380D01*
X182766928Y-93495380D01*
X183243119Y-93495380D01*
X184243119Y-94400142D02*
X184195500Y-94447761D01*
X184052642Y-94495380D01*
X183957404Y-94495380D01*
X183814547Y-94447761D01*
X183719309Y-94352523D01*
X183671690Y-94257285D01*
X183624071Y-94066809D01*
X183624071Y-93923952D01*
X183671690Y-93733476D01*
X183719309Y-93638238D01*
X183814547Y-93543000D01*
X183957404Y-93495380D01*
X184052642Y-93495380D01*
X184195500Y-93543000D01*
X184243119Y-93590619D01*
X184528833Y-93495380D02*
X185100261Y-93495380D01*
X184814547Y-94495380D02*
X184814547Y-93495380D01*
X95585500Y-92591428D02*
X94823595Y-92591428D01*
X95014071Y-92781904D02*
X94823595Y-92591428D01*
X95014071Y-92400952D01*
X96061690Y-92972380D02*
X96061690Y-91972380D01*
X96061690Y-92448571D02*
X96633119Y-92448571D01*
X96633119Y-92972380D02*
X96633119Y-91972380D01*
X97109309Y-92972380D02*
X97109309Y-91972380D01*
X97347404Y-91972380D01*
X97490261Y-92020000D01*
X97585500Y-92115238D01*
X97633119Y-92210476D01*
X97680738Y-92400952D01*
X97680738Y-92543809D01*
X97633119Y-92734285D01*
X97585500Y-92829523D01*
X97490261Y-92924761D01*
X97347404Y-92972380D01*
X97109309Y-92972380D01*
X98633119Y-92972380D02*
X98061690Y-92972380D01*
X98347404Y-92972380D02*
X98347404Y-91972380D01*
X98252166Y-92115238D01*
X98156928Y-92210476D01*
X98061690Y-92258095D01*
X99537880Y-91972380D02*
X99061690Y-91972380D01*
X99014071Y-92448571D01*
X99061690Y-92400952D01*
X99156928Y-92353333D01*
X99395023Y-92353333D01*
X99490261Y-92400952D01*
X99537880Y-92448571D01*
X99585500Y-92543809D01*
X99585500Y-92781904D01*
X99537880Y-92877142D01*
X99490261Y-92924761D01*
X99395023Y-92972380D01*
X99156928Y-92972380D01*
X99061690Y-92924761D01*
X99014071Y-92877142D01*
X94775976Y-94574761D02*
X94918833Y-94622380D01*
X95156928Y-94622380D01*
X95252166Y-94574761D01*
X95299785Y-94527142D01*
X95347404Y-94431904D01*
X95347404Y-94336666D01*
X95299785Y-94241428D01*
X95252166Y-94193809D01*
X95156928Y-94146190D01*
X94966452Y-94098571D01*
X94871214Y-94050952D01*
X94823595Y-94003333D01*
X94775976Y-93908095D01*
X94775976Y-93812857D01*
X94823595Y-93717619D01*
X94871214Y-93670000D01*
X94966452Y-93622380D01*
X95204547Y-93622380D01*
X95347404Y-93670000D01*
X95966452Y-94146190D02*
X95966452Y-94622380D01*
X95633119Y-93622380D02*
X95966452Y-94146190D01*
X96299785Y-93622380D01*
X96633119Y-94622380D02*
X96633119Y-93622380D01*
X97204547Y-94622380D01*
X97204547Y-93622380D01*
X98252166Y-94527142D02*
X98204547Y-94574761D01*
X98061690Y-94622380D01*
X97966452Y-94622380D01*
X97823595Y-94574761D01*
X97728357Y-94479523D01*
X97680738Y-94384285D01*
X97633119Y-94193809D01*
X97633119Y-94050952D01*
X97680738Y-93860476D01*
X97728357Y-93765238D01*
X97823595Y-93670000D01*
X97966452Y-93622380D01*
X98061690Y-93622380D01*
X98204547Y-93670000D01*
X98252166Y-93717619D01*
X99395023Y-94574761D02*
X99537880Y-94622380D01*
X99775976Y-94622380D01*
X99871214Y-94574761D01*
X99918833Y-94527142D01*
X99966452Y-94431904D01*
X99966452Y-94336666D01*
X99918833Y-94241428D01*
X99871214Y-94193809D01*
X99775976Y-94146190D01*
X99585500Y-94098571D01*
X99490261Y-94050952D01*
X99442642Y-94003333D01*
X99395023Y-93908095D01*
X99395023Y-93812857D01*
X99442642Y-93717619D01*
X99490261Y-93670000D01*
X99585500Y-93622380D01*
X99823595Y-93622380D01*
X99966452Y-93670000D01*
X100395023Y-94098571D02*
X100728357Y-94098571D01*
X100871214Y-94622380D02*
X100395023Y-94622380D01*
X100395023Y-93622380D01*
X100871214Y-93622380D01*
X101775976Y-94622380D02*
X101299785Y-94622380D01*
X101299785Y-93622380D01*
X102109309Y-94098571D02*
X102442642Y-94098571D01*
X102585500Y-94622380D02*
X102109309Y-94622380D01*
X102109309Y-93622380D01*
X102585500Y-93622380D01*
X103585500Y-94527142D02*
X103537880Y-94574761D01*
X103395023Y-94622380D01*
X103299785Y-94622380D01*
X103156928Y-94574761D01*
X103061690Y-94479523D01*
X103014071Y-94384285D01*
X102966452Y-94193809D01*
X102966452Y-94050952D01*
X103014071Y-93860476D01*
X103061690Y-93765238D01*
X103156928Y-93670000D01*
X103299785Y-93622380D01*
X103395023Y-93622380D01*
X103537880Y-93670000D01*
X103585500Y-93717619D01*
X103871214Y-93622380D02*
X104442642Y-93622380D01*
X104156928Y-94622380D02*
X104156928Y-93622380D01*
X94845428Y-82875476D02*
X94845428Y-83637380D01*
X95035904Y-83446904D02*
X94845428Y-83637380D01*
X94654952Y-83446904D01*
X96178761Y-83637380D02*
X95702571Y-83637380D01*
X95702571Y-82637380D01*
X96512095Y-82637380D02*
X96512095Y-83446904D01*
X96559714Y-83542142D01*
X96607333Y-83589761D01*
X96702571Y-83637380D01*
X96893047Y-83637380D01*
X96988285Y-83589761D01*
X97035904Y-83542142D01*
X97083523Y-83446904D01*
X97083523Y-82637380D01*
X97559714Y-83637380D02*
X97559714Y-82637380D01*
X97893047Y-83351666D01*
X98226380Y-82637380D01*
X98226380Y-83637380D01*
X98654952Y-83351666D02*
X99131142Y-83351666D01*
X98559714Y-83637380D02*
X98893047Y-82637380D01*
X99226380Y-83637380D01*
X95361380Y-85479428D02*
X94599476Y-85479428D01*
X94789952Y-85669904D02*
X94599476Y-85479428D01*
X94789952Y-85288952D01*
X96409000Y-85765142D02*
X96361380Y-85812761D01*
X96218523Y-85860380D01*
X96123285Y-85860380D01*
X95980428Y-85812761D01*
X95885190Y-85717523D01*
X95837571Y-85622285D01*
X95789952Y-85431809D01*
X95789952Y-85288952D01*
X95837571Y-85098476D01*
X95885190Y-85003238D01*
X95980428Y-84908000D01*
X96123285Y-84860380D01*
X96218523Y-84860380D01*
X96361380Y-84908000D01*
X96409000Y-84955619D01*
X96789952Y-85812761D02*
X96932809Y-85860380D01*
X97170904Y-85860380D01*
X97266142Y-85812761D01*
X97313761Y-85765142D01*
X97361380Y-85669904D01*
X97361380Y-85574666D01*
X97313761Y-85479428D01*
X97266142Y-85431809D01*
X97170904Y-85384190D01*
X96980428Y-85336571D01*
X96885190Y-85288952D01*
X96837571Y-85241333D01*
X96789952Y-85146095D01*
X96789952Y-85050857D01*
X96837571Y-84955619D01*
X96885190Y-84908000D01*
X96980428Y-84860380D01*
X97218523Y-84860380D01*
X97361380Y-84908000D01*
X97980428Y-85384190D02*
X97980428Y-85860380D01*
X97647095Y-84860380D02*
X97980428Y-85384190D01*
X98313761Y-84860380D01*
X98647095Y-85860380D02*
X98647095Y-84860380D01*
X99218523Y-85860380D01*
X99218523Y-84860380D01*
X100266142Y-85765142D02*
X100218523Y-85812761D01*
X100075666Y-85860380D01*
X99980428Y-85860380D01*
X99837571Y-85812761D01*
X99742333Y-85717523D01*
X99694714Y-85622285D01*
X99647095Y-85431809D01*
X99647095Y-85288952D01*
X99694714Y-85098476D01*
X99742333Y-85003238D01*
X99837571Y-84908000D01*
X99980428Y-84860380D01*
X100075666Y-84860380D01*
X100218523Y-84908000D01*
X100266142Y-84955619D01*
X95289952Y-87462761D02*
X95432809Y-87510380D01*
X95670904Y-87510380D01*
X95766142Y-87462761D01*
X95813761Y-87415142D01*
X95861380Y-87319904D01*
X95861380Y-87224666D01*
X95813761Y-87129428D01*
X95766142Y-87081809D01*
X95670904Y-87034190D01*
X95480428Y-86986571D01*
X95385190Y-86938952D01*
X95337571Y-86891333D01*
X95289952Y-86796095D01*
X95289952Y-86700857D01*
X95337571Y-86605619D01*
X95385190Y-86558000D01*
X95480428Y-86510380D01*
X95718523Y-86510380D01*
X95861380Y-86558000D01*
X96670904Y-87462761D02*
X96575666Y-87510380D01*
X96385190Y-87510380D01*
X96289952Y-87462761D01*
X96242333Y-87367523D01*
X96242333Y-86986571D01*
X96289952Y-86891333D01*
X96385190Y-86843714D01*
X96575666Y-86843714D01*
X96670904Y-86891333D01*
X96718523Y-86986571D01*
X96718523Y-87081809D01*
X96242333Y-87177047D01*
X97289952Y-87510380D02*
X97194714Y-87462761D01*
X97147095Y-87367523D01*
X97147095Y-86510380D01*
X98051857Y-87462761D02*
X97956619Y-87510380D01*
X97766142Y-87510380D01*
X97670904Y-87462761D01*
X97623285Y-87367523D01*
X97623285Y-86986571D01*
X97670904Y-86891333D01*
X97766142Y-86843714D01*
X97956619Y-86843714D01*
X98051857Y-86891333D01*
X98099476Y-86986571D01*
X98099476Y-87081809D01*
X97623285Y-87177047D01*
X98956619Y-87462761D02*
X98861380Y-87510380D01*
X98670904Y-87510380D01*
X98575666Y-87462761D01*
X98528047Y-87415142D01*
X98480428Y-87319904D01*
X98480428Y-87034190D01*
X98528047Y-86938952D01*
X98575666Y-86891333D01*
X98670904Y-86843714D01*
X98861380Y-86843714D01*
X98956619Y-86891333D01*
X99242333Y-86843714D02*
X99623285Y-86843714D01*
X99385190Y-86510380D02*
X99385190Y-87367523D01*
X99432809Y-87462761D01*
X99528047Y-87510380D01*
X99623285Y-87510380D01*
X94869238Y-81224380D02*
X94869238Y-80462476D01*
X94678761Y-80652952D02*
X94869238Y-80462476D01*
X95059714Y-80652952D01*
X96297809Y-81129142D02*
X96250190Y-81176761D01*
X96107333Y-81224380D01*
X96012095Y-81224380D01*
X95869238Y-81176761D01*
X95774000Y-81081523D01*
X95726380Y-80986285D01*
X95678761Y-80795809D01*
X95678761Y-80652952D01*
X95726380Y-80462476D01*
X95774000Y-80367238D01*
X95869238Y-80272000D01*
X96012095Y-80224380D01*
X96107333Y-80224380D01*
X96250190Y-80272000D01*
X96297809Y-80319619D01*
X96583523Y-80224380D02*
X96916857Y-81224380D01*
X97250190Y-80224380D01*
X97916857Y-80700571D02*
X98059714Y-80748190D01*
X98107333Y-80795809D01*
X98154952Y-80891047D01*
X98154952Y-81033904D01*
X98107333Y-81129142D01*
X98059714Y-81176761D01*
X97964476Y-81224380D01*
X97583523Y-81224380D01*
X97583523Y-80224380D01*
X97916857Y-80224380D01*
X98012095Y-80272000D01*
X98059714Y-80319619D01*
X98107333Y-80414857D01*
X98107333Y-80510095D01*
X98059714Y-80605333D01*
X98012095Y-80652952D01*
X97916857Y-80700571D01*
X97583523Y-80700571D01*
X98535904Y-81176761D02*
X98678761Y-81224380D01*
X98916857Y-81224380D01*
X99012095Y-81176761D01*
X99059714Y-81129142D01*
X99107333Y-81033904D01*
X99107333Y-80938666D01*
X99059714Y-80843428D01*
X99012095Y-80795809D01*
X98916857Y-80748190D01*
X98726380Y-80700571D01*
X98631142Y-80652952D01*
X98583523Y-80605333D01*
X98535904Y-80510095D01*
X98535904Y-80414857D01*
X98583523Y-80319619D01*
X98631142Y-80272000D01*
X98726380Y-80224380D01*
X98964476Y-80224380D01*
X99107333Y-80272000D01*
D11*
X90710500Y-111197000D02*
X90710500Y-102597000D01*
X90710500Y-102597000D02*
X121680500Y-102597000D01*
X121680500Y-102597000D02*
X121680500Y-111197000D01*
X110260500Y-101702662D02*
X110760500Y-101702662D01*
X110760500Y-101702662D02*
X110510500Y-102135675D01*
X110510500Y-102135675D02*
X110260500Y-101702662D01*
D12*
X121989000Y-110236000D02*
G75*
G03X121989000Y-110236000I-170000J0D01*
G01*
D13*
X122719000Y-111436000D02*
X122419000Y-111436000D01*
X122719000Y-115436000D02*
X122719000Y-111436000D01*
X128719000Y-115436000D02*
X122719000Y-115436000D01*
X128719000Y-111436000D02*
X128719000Y-115436000D01*
X130619000Y-111436000D02*
X128719000Y-111436000D01*
X130619000Y-97436000D02*
X130619000Y-111436000D01*
X122419000Y-97436000D02*
X130619000Y-97436000D01*
X122419000Y-111436000D02*
X122419000Y-97436000D01*
D10*
X147473500Y-111760000D02*
X189473500Y-111760000D01*
D11*
X94263000Y-101042000D02*
X89963000Y-101042000D01*
X89963000Y-101042000D02*
X89963000Y-88442000D01*
X89963000Y-88442000D02*
X94263000Y-88442000D01*
X94263000Y-88442000D02*
X94263000Y-101042000D01*
X89963000Y-95742000D02*
X85963000Y-95742000D01*
X85963000Y-95742000D02*
X85963000Y-93742000D01*
X85963000Y-93742000D02*
X89963000Y-93742000D01*
X132450000Y-60000000D02*
X147550000Y-60000000D01*
X147550000Y-60000000D02*
X147550000Y-76100000D01*
X132450000Y-60000000D02*
X132450000Y-76100000D01*
D13*
X145684000Y-111502000D02*
X131634000Y-111502000D01*
X131634000Y-98302000D02*
X145734000Y-98302000D01*
X145684000Y-111502000D02*
X145684000Y-107812000D01*
X145734000Y-98302000D02*
X145734000Y-104102000D01*
X131634000Y-111502000D02*
X131634000Y-107812000D01*
X131634000Y-98302000D02*
X131634000Y-104152000D01*
D14*
X146544000Y-103002000D02*
G75*
G03X146544000Y-103002000I-200000J0D01*
G01*
D11*
X193945000Y-89392000D02*
X189945000Y-89392000D01*
X193945000Y-87392000D02*
X193945000Y-89392000D01*
X189945000Y-87392000D02*
X193945000Y-87392000D01*
X185645000Y-94692000D02*
X185645000Y-82092000D01*
X189945000Y-94692000D02*
X185645000Y-94692000D01*
X189945000Y-82092000D02*
X189945000Y-94692000D01*
X185645000Y-82092000D02*
X189945000Y-82092000D01*
X96870267Y-77849000D02*
X96527733Y-77849000D01*
X96870267Y-78869000D02*
X96527733Y-78869000D01*
X134740000Y-88826000D02*
X138490000Y-88826000D01*
X145260000Y-88826000D02*
X141510000Y-88826000D01*
X145260000Y-79370437D02*
X145260000Y-88826000D01*
X134740000Y-79370437D02*
X134740000Y-88826000D01*
X135804437Y-78306000D02*
X138490000Y-78306000D01*
X144195563Y-78306000D02*
X141510000Y-78306000D01*
X144195563Y-78306000D02*
X145260000Y-79370437D01*
X135804437Y-78306000D02*
X134740000Y-79370437D01*
X142760000Y-76816000D02*
X142760000Y-78066000D01*
X143385000Y-77441000D02*
X142135000Y-77441000D01*
X154515000Y-77441000D02*
X153265000Y-77441000D01*
X153890000Y-76816000D02*
X153890000Y-78066000D01*
X146934437Y-78306000D02*
X145870000Y-79370437D01*
X155325563Y-78306000D02*
X156390000Y-79370437D01*
X155325563Y-78306000D02*
X152640000Y-78306000D01*
X146934437Y-78306000D02*
X149620000Y-78306000D01*
X145870000Y-79370437D02*
X145870000Y-88826000D01*
X156390000Y-79370437D02*
X156390000Y-88826000D01*
X156390000Y-88826000D02*
X152640000Y-88826000D01*
X145870000Y-88826000D02*
X149620000Y-88826000D01*
X123645000Y-88826000D02*
X127395000Y-88826000D01*
X134165000Y-88826000D02*
X130415000Y-88826000D01*
X134165000Y-79370437D02*
X134165000Y-88826000D01*
X123645000Y-79370437D02*
X123645000Y-88826000D01*
X124709437Y-78306000D02*
X127395000Y-78306000D01*
X133100563Y-78306000D02*
X130415000Y-78306000D01*
X133100563Y-78306000D02*
X134165000Y-79370437D01*
X124709437Y-78306000D02*
X123645000Y-79370437D01*
X131665000Y-76816000D02*
X131665000Y-78066000D01*
X132290000Y-77441000D02*
X131040000Y-77441000D01*
X108216000Y-100685000D02*
X108216000Y-99485000D01*
X108216000Y-96165000D02*
X108216000Y-97365000D01*
X104760437Y-96165000D02*
X108216000Y-96165000D01*
X104760437Y-100685000D02*
X108216000Y-100685000D01*
X103696000Y-99620563D02*
X103696000Y-99485000D01*
X103696000Y-97229437D02*
X103696000Y-97365000D01*
X103696000Y-97229437D02*
X104760437Y-96165000D01*
X103696000Y-99620563D02*
X104760437Y-100685000D01*
X102956000Y-96865000D02*
X103456000Y-96865000D01*
X103206000Y-96615000D02*
X103206000Y-97115000D01*
X106649267Y-92962000D02*
X106306733Y-92962000D01*
X106649267Y-93982000D02*
X106306733Y-93982000D01*
X106635267Y-95633000D02*
X106292733Y-95633000D01*
X106635267Y-94613000D02*
X106292733Y-94613000D01*
X113672733Y-90676000D02*
X114015267Y-90676000D01*
X113672733Y-91696000D02*
X114015267Y-91696000D01*
X143254000Y-65703267D02*
X143254000Y-65360733D01*
X144274000Y-65703267D02*
X144274000Y-65360733D01*
X111566000Y-79816000D02*
X111566000Y-77156000D01*
X106426000Y-79816000D02*
X111566000Y-79816000D01*
X106426000Y-77156000D02*
X111566000Y-77156000D01*
X106426000Y-79816000D02*
X106426000Y-77156000D01*
X105156000Y-79816000D02*
X103826000Y-79816000D01*
X103826000Y-79816000D02*
X103826000Y-78486000D01*
X142383000Y-82166000D02*
X144383000Y-82166000D01*
X142383000Y-84966000D02*
X142383000Y-82166000D01*
X144383000Y-84966000D02*
X142383000Y-84966000D01*
X144383000Y-82166000D02*
X144383000Y-84966000D01*
X155432000Y-82203000D02*
X155432000Y-85003000D01*
X155432000Y-85003000D02*
X153432000Y-85003000D01*
X153432000Y-85003000D02*
X153432000Y-82203000D01*
X153432000Y-82203000D02*
X155432000Y-82203000D01*
X131207000Y-82256000D02*
X133207000Y-82256000D01*
X131207000Y-85056000D02*
X131207000Y-82256000D01*
X133207000Y-85056000D02*
X131207000Y-85056000D01*
X133207000Y-82256000D02*
X133207000Y-85056000D01*
X107867267Y-83187000D02*
X107524733Y-83187000D01*
X107867267Y-82167000D02*
X107524733Y-82167000D01*
X113658733Y-89918000D02*
X114001267Y-89918000D01*
X113658733Y-88898000D02*
X114001267Y-88898000D01*
X94313000Y-86088000D02*
X89913000Y-86088000D01*
X89913000Y-86088000D02*
X89913000Y-77488000D01*
X89913000Y-77488000D02*
X94313000Y-77488000D01*
X94313000Y-77488000D02*
X94313000Y-86088000D01*
X89913000Y-82788000D02*
X85913000Y-82788000D01*
X85913000Y-82788000D02*
X85913000Y-80788000D01*
X85913000Y-80788000D02*
X89913000Y-80788000D01*
D10*
X104389000Y-87214000D02*
X104389000Y-87264000D01*
X108539000Y-87214000D02*
X108539000Y-87359000D01*
X108539000Y-92364000D02*
X108539000Y-92219000D01*
X104389000Y-92364000D02*
X104389000Y-92219000D01*
X104389000Y-87214000D02*
X108539000Y-87214000D01*
X104389000Y-92364000D02*
X108539000Y-92364000D01*
X104389000Y-87264000D02*
X102989000Y-87264000D01*
X97875666Y-105116380D02*
X97875666Y-105830666D01*
X97828047Y-105973523D01*
X97732809Y-106068761D01*
X97589952Y-106116380D01*
X97494714Y-106116380D01*
X98780428Y-105449714D02*
X98780428Y-106116380D01*
X98542333Y-105068761D02*
X98304238Y-105783047D01*
X98923285Y-105783047D01*
X127549103Y-100578955D02*
X127549103Y-101579448D01*
X127482403Y-101779546D01*
X127349004Y-101912945D01*
X127148906Y-101979645D01*
X127015507Y-101979645D01*
X128082699Y-100578955D02*
X128949793Y-100578955D01*
X128482896Y-101112551D01*
X128682995Y-101112551D01*
X128816394Y-101179251D01*
X128883093Y-101245950D01*
X128949793Y-101379349D01*
X128949793Y-101712847D01*
X128883093Y-101846246D01*
X128816394Y-101912945D01*
X128682995Y-101979645D01*
X128282798Y-101979645D01*
X128149399Y-101912945D01*
X128082699Y-101846246D01*
X156710166Y-102322380D02*
X156710166Y-103036666D01*
X156662547Y-103179523D01*
X156567309Y-103274761D01*
X156424452Y-103322380D01*
X156329214Y-103322380D01*
X157662547Y-102322380D02*
X157186357Y-102322380D01*
X157138738Y-102798571D01*
X157186357Y-102750952D01*
X157281595Y-102703333D01*
X157519690Y-102703333D01*
X157614928Y-102750952D01*
X157662547Y-102798571D01*
X157710166Y-102893809D01*
X157710166Y-103131904D01*
X157662547Y-103227142D01*
X157614928Y-103274761D01*
X157519690Y-103322380D01*
X157281595Y-103322380D01*
X157186357Y-103274761D01*
X157138738Y-103227142D01*
X90741666Y-93368761D02*
X90884523Y-93416380D01*
X91122619Y-93416380D01*
X91217857Y-93368761D01*
X91265476Y-93321142D01*
X91313095Y-93225904D01*
X91313095Y-93130666D01*
X91265476Y-93035428D01*
X91217857Y-92987809D01*
X91122619Y-92940190D01*
X90932142Y-92892571D01*
X90836904Y-92844952D01*
X90789285Y-92797333D01*
X90741666Y-92702095D01*
X90741666Y-92606857D01*
X90789285Y-92511619D01*
X90836904Y-92464000D01*
X90932142Y-92416380D01*
X91170238Y-92416380D01*
X91313095Y-92464000D01*
X91646428Y-92416380D02*
X91884523Y-93416380D01*
X92075000Y-92702095D01*
X92265476Y-93416380D01*
X92503571Y-92416380D01*
X92789285Y-92416380D02*
X93408333Y-92416380D01*
X93075000Y-92797333D01*
X93217857Y-92797333D01*
X93313095Y-92844952D01*
X93360714Y-92892571D01*
X93408333Y-92987809D01*
X93408333Y-93225904D01*
X93360714Y-93321142D01*
X93313095Y-93368761D01*
X93217857Y-93416380D01*
X92932142Y-93416380D01*
X92836904Y-93368761D01*
X92789285Y-93321142D01*
X139716666Y-64452380D02*
X139716666Y-65166666D01*
X139669047Y-65309523D01*
X139573809Y-65404761D01*
X139430952Y-65452380D01*
X139335714Y-65452380D01*
X140716666Y-65452380D02*
X140145238Y-65452380D01*
X140430952Y-65452380D02*
X140430952Y-64452380D01*
X140335714Y-64595238D01*
X140240476Y-64690476D01*
X140145238Y-64738095D01*
X142143166Y-106005380D02*
X142143166Y-106719666D01*
X142095547Y-106862523D01*
X142000309Y-106957761D01*
X141857452Y-107005380D01*
X141762214Y-107005380D01*
X142571738Y-106100619D02*
X142619357Y-106053000D01*
X142714595Y-106005380D01*
X142952690Y-106005380D01*
X143047928Y-106053000D01*
X143095547Y-106100619D01*
X143143166Y-106195857D01*
X143143166Y-106291095D01*
X143095547Y-106433952D01*
X142524119Y-107005380D01*
X143143166Y-107005380D01*
X186372666Y-90828761D02*
X186515523Y-90876380D01*
X186753619Y-90876380D01*
X186848857Y-90828761D01*
X186896476Y-90781142D01*
X186944095Y-90685904D01*
X186944095Y-90590666D01*
X186896476Y-90495428D01*
X186848857Y-90447809D01*
X186753619Y-90400190D01*
X186563142Y-90352571D01*
X186467904Y-90304952D01*
X186420285Y-90257333D01*
X186372666Y-90162095D01*
X186372666Y-90066857D01*
X186420285Y-89971619D01*
X186467904Y-89924000D01*
X186563142Y-89876380D01*
X186801238Y-89876380D01*
X186944095Y-89924000D01*
X187277428Y-89876380D02*
X187515523Y-90876380D01*
X187706000Y-90162095D01*
X187896476Y-90876380D01*
X188134571Y-89876380D01*
X188467904Y-89971619D02*
X188515523Y-89924000D01*
X188610761Y-89876380D01*
X188848857Y-89876380D01*
X188944095Y-89924000D01*
X188991714Y-89971619D01*
X189039333Y-90066857D01*
X189039333Y-90162095D01*
X188991714Y-90304952D01*
X188420285Y-90876380D01*
X189039333Y-90876380D01*
X96480333Y-77319142D02*
X96432714Y-77366761D01*
X96289857Y-77414380D01*
X96194619Y-77414380D01*
X96051761Y-77366761D01*
X95956523Y-77271523D01*
X95908904Y-77176285D01*
X95861285Y-76985809D01*
X95861285Y-76842952D01*
X95908904Y-76652476D01*
X95956523Y-76557238D01*
X96051761Y-76462000D01*
X96194619Y-76414380D01*
X96289857Y-76414380D01*
X96432714Y-76462000D01*
X96480333Y-76509619D01*
X97432714Y-77414380D02*
X96861285Y-77414380D01*
X97147000Y-77414380D02*
X97147000Y-76414380D01*
X97051761Y-76557238D01*
X96956523Y-76652476D01*
X96861285Y-76700095D01*
X140311142Y-83732666D02*
X140358761Y-83780285D01*
X140406380Y-83923142D01*
X140406380Y-84018380D01*
X140358761Y-84161238D01*
X140263523Y-84256476D01*
X140168285Y-84304095D01*
X139977809Y-84351714D01*
X139834952Y-84351714D01*
X139644476Y-84304095D01*
X139549238Y-84256476D01*
X139454000Y-84161238D01*
X139406380Y-84018380D01*
X139406380Y-83923142D01*
X139454000Y-83780285D01*
X139501619Y-83732666D01*
X139501619Y-83351714D02*
X139454000Y-83304095D01*
X139406380Y-83208857D01*
X139406380Y-82970761D01*
X139454000Y-82875523D01*
X139501619Y-82827904D01*
X139596857Y-82780285D01*
X139692095Y-82780285D01*
X139834952Y-82827904D01*
X140406380Y-83399333D01*
X140406380Y-82780285D01*
X151487142Y-83732666D02*
X151534761Y-83780285D01*
X151582380Y-83923142D01*
X151582380Y-84018380D01*
X151534761Y-84161238D01*
X151439523Y-84256476D01*
X151344285Y-84304095D01*
X151153809Y-84351714D01*
X151010952Y-84351714D01*
X150820476Y-84304095D01*
X150725238Y-84256476D01*
X150630000Y-84161238D01*
X150582380Y-84018380D01*
X150582380Y-83923142D01*
X150630000Y-83780285D01*
X150677619Y-83732666D01*
X150582380Y-83399333D02*
X150582380Y-82780285D01*
X150963333Y-83113619D01*
X150963333Y-82970761D01*
X151010952Y-82875523D01*
X151058571Y-82827904D01*
X151153809Y-82780285D01*
X151391904Y-82780285D01*
X151487142Y-82827904D01*
X151534761Y-82875523D01*
X151582380Y-82970761D01*
X151582380Y-83256476D01*
X151534761Y-83351714D01*
X151487142Y-83399333D01*
X129262142Y-83732666D02*
X129309761Y-83780285D01*
X129357380Y-83923142D01*
X129357380Y-84018380D01*
X129309761Y-84161238D01*
X129214523Y-84256476D01*
X129119285Y-84304095D01*
X128928809Y-84351714D01*
X128785952Y-84351714D01*
X128595476Y-84304095D01*
X128500238Y-84256476D01*
X128405000Y-84161238D01*
X128357380Y-84018380D01*
X128357380Y-83923142D01*
X128405000Y-83780285D01*
X128452619Y-83732666D01*
X128690714Y-82875523D02*
X129357380Y-82875523D01*
X128309761Y-83113619D02*
X129024047Y-83351714D01*
X129024047Y-82732666D01*
X110361333Y-98782142D02*
X110313714Y-98829761D01*
X110170857Y-98877380D01*
X110075619Y-98877380D01*
X109932761Y-98829761D01*
X109837523Y-98734523D01*
X109789904Y-98639285D01*
X109742285Y-98448809D01*
X109742285Y-98305952D01*
X109789904Y-98115476D01*
X109837523Y-98020238D01*
X109932761Y-97925000D01*
X110075619Y-97877380D01*
X110170857Y-97877380D01*
X110313714Y-97925000D01*
X110361333Y-97972619D01*
X111266095Y-97877380D02*
X110789904Y-97877380D01*
X110742285Y-98353571D01*
X110789904Y-98305952D01*
X110885142Y-98258333D01*
X111123238Y-98258333D01*
X111218476Y-98305952D01*
X111266095Y-98353571D01*
X111313714Y-98448809D01*
X111313714Y-98686904D01*
X111266095Y-98782142D01*
X111218476Y-98829761D01*
X111123238Y-98877380D01*
X110885142Y-98877380D01*
X110789904Y-98829761D01*
X110742285Y-98782142D01*
X109091333Y-93829142D02*
X109043714Y-93876761D01*
X108900857Y-93924380D01*
X108805619Y-93924380D01*
X108662761Y-93876761D01*
X108567523Y-93781523D01*
X108519904Y-93686285D01*
X108472285Y-93495809D01*
X108472285Y-93352952D01*
X108519904Y-93162476D01*
X108567523Y-93067238D01*
X108662761Y-92972000D01*
X108805619Y-92924380D01*
X108900857Y-92924380D01*
X109043714Y-92972000D01*
X109091333Y-93019619D01*
X109948476Y-92924380D02*
X109758000Y-92924380D01*
X109662761Y-92972000D01*
X109615142Y-93019619D01*
X109519904Y-93162476D01*
X109472285Y-93352952D01*
X109472285Y-93733904D01*
X109519904Y-93829142D01*
X109567523Y-93876761D01*
X109662761Y-93924380D01*
X109853238Y-93924380D01*
X109948476Y-93876761D01*
X109996095Y-93829142D01*
X110043714Y-93733904D01*
X110043714Y-93495809D01*
X109996095Y-93400571D01*
X109948476Y-93352952D01*
X109853238Y-93305333D01*
X109662761Y-93305333D01*
X109567523Y-93352952D01*
X109519904Y-93400571D01*
X109472285Y-93495809D01*
X109091333Y-95480142D02*
X109043714Y-95527761D01*
X108900857Y-95575380D01*
X108805619Y-95575380D01*
X108662761Y-95527761D01*
X108567523Y-95432523D01*
X108519904Y-95337285D01*
X108472285Y-95146809D01*
X108472285Y-95003952D01*
X108519904Y-94813476D01*
X108567523Y-94718238D01*
X108662761Y-94623000D01*
X108805619Y-94575380D01*
X108900857Y-94575380D01*
X109043714Y-94623000D01*
X109091333Y-94670619D01*
X109424666Y-94575380D02*
X110091333Y-94575380D01*
X109662761Y-95575380D01*
X116457333Y-91543142D02*
X116409714Y-91590761D01*
X116266857Y-91638380D01*
X116171619Y-91638380D01*
X116028761Y-91590761D01*
X115933523Y-91495523D01*
X115885904Y-91400285D01*
X115838285Y-91209809D01*
X115838285Y-91066952D01*
X115885904Y-90876476D01*
X115933523Y-90781238D01*
X116028761Y-90686000D01*
X116171619Y-90638380D01*
X116266857Y-90638380D01*
X116409714Y-90686000D01*
X116457333Y-90733619D01*
X117028761Y-91066952D02*
X116933523Y-91019333D01*
X116885904Y-90971714D01*
X116838285Y-90876476D01*
X116838285Y-90828857D01*
X116885904Y-90733619D01*
X116933523Y-90686000D01*
X117028761Y-90638380D01*
X117219238Y-90638380D01*
X117314476Y-90686000D01*
X117362095Y-90733619D01*
X117409714Y-90828857D01*
X117409714Y-90876476D01*
X117362095Y-90971714D01*
X117314476Y-91019333D01*
X117219238Y-91066952D01*
X117028761Y-91066952D01*
X116933523Y-91114571D01*
X116885904Y-91162190D01*
X116838285Y-91257428D01*
X116838285Y-91447904D01*
X116885904Y-91543142D01*
X116933523Y-91590761D01*
X117028761Y-91638380D01*
X117219238Y-91638380D01*
X117314476Y-91590761D01*
X117362095Y-91543142D01*
X117409714Y-91447904D01*
X117409714Y-91257428D01*
X117362095Y-91162190D01*
X117314476Y-91114571D01*
X117219238Y-91066952D01*
X142262571Y-66365333D02*
X142262571Y-66698666D01*
X142786380Y-66698666D02*
X141786380Y-66698666D01*
X141786380Y-66222476D01*
X142262571Y-65508190D02*
X142310190Y-65365333D01*
X142357809Y-65317714D01*
X142453047Y-65270095D01*
X142595904Y-65270095D01*
X142691142Y-65317714D01*
X142738761Y-65365333D01*
X142786380Y-65460571D01*
X142786380Y-65841523D01*
X141786380Y-65841523D01*
X141786380Y-65508190D01*
X141834000Y-65412952D01*
X141881619Y-65365333D01*
X141976857Y-65317714D01*
X142072095Y-65317714D01*
X142167333Y-65365333D01*
X142214952Y-65412952D01*
X142262571Y-65508190D01*
X142262571Y-65841523D01*
X142786380Y-64317714D02*
X142786380Y-64889142D01*
X142786380Y-64603428D02*
X141786380Y-64603428D01*
X141929238Y-64698666D01*
X142024476Y-64793904D01*
X142072095Y-64889142D01*
X102278380Y-79319333D02*
X102992666Y-79319333D01*
X103135523Y-79366952D01*
X103230761Y-79462190D01*
X103278380Y-79605047D01*
X103278380Y-79700285D01*
X103278380Y-78843142D02*
X102278380Y-78843142D01*
X102278380Y-78462190D01*
X102326000Y-78366952D01*
X102373619Y-78319333D01*
X102468857Y-78271714D01*
X102611714Y-78271714D01*
X102706952Y-78319333D01*
X102754571Y-78366952D01*
X102802190Y-78462190D01*
X102802190Y-78843142D01*
X103278380Y-77319333D02*
X103278380Y-77890761D01*
X103278380Y-77605047D02*
X102278380Y-77605047D01*
X102421238Y-77700285D01*
X102516476Y-77795523D01*
X102564095Y-77890761D01*
X142835380Y-81351333D02*
X143549666Y-81351333D01*
X143692523Y-81398952D01*
X143787761Y-81494190D01*
X143835380Y-81637047D01*
X143835380Y-81732285D01*
X143835380Y-80875142D02*
X142835380Y-80875142D01*
X142835380Y-80494190D01*
X142883000Y-80398952D01*
X142930619Y-80351333D01*
X143025857Y-80303714D01*
X143168714Y-80303714D01*
X143263952Y-80351333D01*
X143311571Y-80398952D01*
X143359190Y-80494190D01*
X143359190Y-80875142D01*
X142930619Y-79922761D02*
X142883000Y-79875142D01*
X142835380Y-79779904D01*
X142835380Y-79541809D01*
X142883000Y-79446571D01*
X142930619Y-79398952D01*
X143025857Y-79351333D01*
X143121095Y-79351333D01*
X143263952Y-79398952D01*
X143835380Y-79970380D01*
X143835380Y-79351333D01*
X153757380Y-81351333D02*
X154471666Y-81351333D01*
X154614523Y-81398952D01*
X154709761Y-81494190D01*
X154757380Y-81637047D01*
X154757380Y-81732285D01*
X154757380Y-80875142D02*
X153757380Y-80875142D01*
X153757380Y-80494190D01*
X153805000Y-80398952D01*
X153852619Y-80351333D01*
X153947857Y-80303714D01*
X154090714Y-80303714D01*
X154185952Y-80351333D01*
X154233571Y-80398952D01*
X154281190Y-80494190D01*
X154281190Y-80875142D01*
X153757380Y-79970380D02*
X153757380Y-79351333D01*
X154138333Y-79684666D01*
X154138333Y-79541809D01*
X154185952Y-79446571D01*
X154233571Y-79398952D01*
X154328809Y-79351333D01*
X154566904Y-79351333D01*
X154662142Y-79398952D01*
X154709761Y-79446571D01*
X154757380Y-79541809D01*
X154757380Y-79827523D01*
X154709761Y-79922761D01*
X154662142Y-79970380D01*
X131659380Y-81478333D02*
X132373666Y-81478333D01*
X132516523Y-81525952D01*
X132611761Y-81621190D01*
X132659380Y-81764047D01*
X132659380Y-81859285D01*
X132659380Y-81002142D02*
X131659380Y-81002142D01*
X131659380Y-80621190D01*
X131707000Y-80525952D01*
X131754619Y-80478333D01*
X131849857Y-80430714D01*
X131992714Y-80430714D01*
X132087952Y-80478333D01*
X132135571Y-80525952D01*
X132183190Y-80621190D01*
X132183190Y-81002142D01*
X131992714Y-79573571D02*
X132659380Y-79573571D01*
X131611761Y-79811666D02*
X132326047Y-80049761D01*
X132326047Y-79430714D01*
X107529333Y-84559380D02*
X107196000Y-84083190D01*
X106957904Y-84559380D02*
X106957904Y-83559380D01*
X107338857Y-83559380D01*
X107434095Y-83607000D01*
X107481714Y-83654619D01*
X107529333Y-83749857D01*
X107529333Y-83892714D01*
X107481714Y-83987952D01*
X107434095Y-84035571D01*
X107338857Y-84083190D01*
X106957904Y-84083190D01*
X108481714Y-84559380D02*
X107910285Y-84559380D01*
X108196000Y-84559380D02*
X108196000Y-83559380D01*
X108100761Y-83702238D01*
X108005523Y-83797476D01*
X107910285Y-83845095D01*
X116457333Y-89860380D02*
X116124000Y-89384190D01*
X115885904Y-89860380D02*
X115885904Y-88860380D01*
X116266857Y-88860380D01*
X116362095Y-88908000D01*
X116409714Y-88955619D01*
X116457333Y-89050857D01*
X116457333Y-89193714D01*
X116409714Y-89288952D01*
X116362095Y-89336571D01*
X116266857Y-89384190D01*
X115885904Y-89384190D01*
X116838285Y-88955619D02*
X116885904Y-88908000D01*
X116981142Y-88860380D01*
X117219238Y-88860380D01*
X117314476Y-88908000D01*
X117362095Y-88955619D01*
X117409714Y-89050857D01*
X117409714Y-89146095D01*
X117362095Y-89288952D01*
X116790666Y-89860380D01*
X117409714Y-89860380D01*
X91082761Y-83121333D02*
X91130380Y-82978476D01*
X91130380Y-82740380D01*
X91082761Y-82645142D01*
X91035142Y-82597523D01*
X90939904Y-82549904D01*
X90844666Y-82549904D01*
X90749428Y-82597523D01*
X90701809Y-82645142D01*
X90654190Y-82740380D01*
X90606571Y-82930857D01*
X90558952Y-83026095D01*
X90511333Y-83073714D01*
X90416095Y-83121333D01*
X90320857Y-83121333D01*
X90225619Y-83073714D01*
X90178000Y-83026095D01*
X90130380Y-82930857D01*
X90130380Y-82692761D01*
X90178000Y-82549904D01*
X90130380Y-82216571D02*
X91130380Y-81978476D01*
X90416095Y-81788000D01*
X91130380Y-81597523D01*
X90130380Y-81359428D01*
X91130380Y-80454666D02*
X91130380Y-81026095D01*
X91130380Y-80740380D02*
X90130380Y-80740380D01*
X90273238Y-80835619D01*
X90368476Y-80930857D01*
X90416095Y-81026095D01*
X105702095Y-85741380D02*
X105702095Y-86550904D01*
X105749714Y-86646142D01*
X105797333Y-86693761D01*
X105892571Y-86741380D01*
X106083047Y-86741380D01*
X106178285Y-86693761D01*
X106225904Y-86646142D01*
X106273523Y-86550904D01*
X106273523Y-85741380D01*
X107273523Y-86741380D02*
X106702095Y-86741380D01*
X106987809Y-86741380D02*
X106987809Y-85741380D01*
X106892571Y-85884238D01*
X106797333Y-85979476D01*
X106702095Y-86027095D01*
M02*
